M48
;DRILL file {KiCad 5.0.2-bee76a0~70~ubuntu18.04.1} date Čt 11. dubna 2019, 12:15:30 CEST
;FORMAT={-:-/ absolute / metric / decimal}
FMAT,2
METRIC,TZ
T1C0.400
T2C0.700
T3C0.762
T4C0.800
T5C1.000
T6C1.020
%
G90
G05
T1
X195.5Y-114.5
X197.Y-150.75
X198.Y-102.
X198.Y-109.5
X198.Y-124.5
X198.Y-129.5
X198.Y-134.5
X198.Y-139.5
X201.Y-106.
X202.Y-148.
X202.Y-150.75
X203.Y-102.
X205.Y-105.
X207.Y-148.
X207.Y-150.75
X208.Y-102.
X208.Y-133.
X208.02Y-130.35
X210.Y-105.
X210.Y-120.5
X210.Y-127.5
X210.Y-130.
X210.5Y-144.5
X210.5Y-145.5
X211.5Y-143.
X211.5Y-144.5
X211.5Y-145.5
X212.5Y-130.
X212.5Y-140.5
X212.5Y-144.5
X212.5Y-145.5
X213.Y-102.
X213.Y-128.
X213.5Y-144.5
X213.5Y-145.5
X213.99Y-105.51
X214.679Y-139.272
X214.75Y-134.75
X215.Y-144.4
X215.36Y-137.4
X215.75Y-135.5
X216.8Y-144.4
X216.835Y-136.909
X217.Y-148.
X217.Y-150.75
X217.11Y-130.5
X217.44Y-122.54
X217.46Y-125.492
X217.5Y-120.5
X217.5Y-138.2
X217.66Y-135.93
X218.Y-99.5
X218.35Y-134.98
X219.Y-128.6
X219.13Y-133.88
X219.5Y-138.
X219.69Y-104.43
X219.75Y-101.75
X219.75Y-106.75
X220.65Y-142.96
X221.188Y-130.509
X221.295Y-132.65
X222.Y-145.
X222.Y-148.
X222.Y-150.75
X222.25Y-128.6
X223.Y-99.5
X224.45Y-122.55
X225.Y-120.5
X225.Y-139.
X225.036Y-136.999
X225.04Y-135.5
X225.52Y-141.75
X225.91Y-142.86
X226.Y-147.
X226.Y-150.
X226.Y-133.
X226.69Y-104.43
X226.75Y-102.
X226.75Y-106.75
X227.2Y-134.9
X227.47Y-143.82
X228.Y-99.5
X228.54Y-140.18
X229.Y-133.
X230.Y-134.9
X230.Y-138.9
X231.44Y-122.54
X232.5Y-120.5
X233.Y-99.5
X233.5Y-102.5
X233.5Y-106.75
X233.69Y-104.43
X234.Y-133.5
X234.Y-137.
X234.25Y-141.5
X235.Y-147.
X235.Y-150.
X236.Y-135.
X236.75Y-143.25
X237.1Y-121.5
X237.6Y-124.6
X238.Y-99.5
X238.Y-142.
X238.14Y-139.58
X238.15Y-134.94
X241.Y-135.5
X241.Y-139.
X241.09Y-128.01
X241.5Y-143.25
X242.Y-99.5
X242.Y-103.
X242.Y-106.
X242.Y-113.
X242.Y-116.
X242.Y-119.
X242.Y-122.
X242.Y-125.5
X242.77Y-137.275
X244.Y-147.
X244.Y-150.
X245.5Y-99.5
X246.Y-128.61
X248.Y-99.5
X250.Y-128.61
X250.5Y-99.5
X250.5Y-143.25
X251.Y-134.
X251.Y-136.
X252.Y-98.5
X252.Y-99.5
X253.Y-98.
X253.Y-99.
X253.Y-100.
X253.Y-137.
X253.Y-142.
X253.Y-147.
X253.Y-150.
X254.Y-128.61
X254.Y-134.
X256.Y-98.
X256.Y-99.
X256.Y-100.
X257.Y-98.5
X257.Y-99.5
X258.Y-99.5
X258.Y-128.61
X258.Y-134.
X258.Y-142.
X260.5Y-99.5
X261.Y-128.61
X261.Y-134.
X262.Y-150.
X263.Y-99.5
X263.Y-137.
X263.Y-142.
X263.Y-147.
X264.Y-100.
X264.Y-102.
X264.Y-105.
X264.Y-108.
X264.Y-115.
X264.Y-118.
X264.Y-132.
T2
X254.39Y-98.57
T3
X255.46Y-147.5
X246.5Y-147.5
X237.5Y-147.5
X228.5Y-147.5
T4
X234.Y-116.5
X236.Y-116.5
X213.Y-110.5
X215.Y-110.5
X257.46Y-147.5
X259.46Y-147.5
X220.Y-116.5
X222.Y-116.5
X220.Y-110.5
X222.Y-110.5
X213.Y-116.5
X215.Y-116.5
X227.Y-116.5
X229.Y-116.5
X234.Y-110.5
X236.Y-110.5
X248.5Y-147.5
X250.5Y-147.5
X239.5Y-147.5
X241.5Y-147.5
X230.5Y-147.5
X232.5Y-147.5
X227.Y-110.5
X229.Y-110.5
T5
X203.25Y-134.25
X203.25Y-136.79
X203.25Y-139.33
X203.25Y-141.87
X203.25Y-144.41
T6
X199.3Y-148.5
X212.Y-148.5
T5
X200.Y-112.5G85X200.Y-114.5
G05
X202.Y-118.2G85X204.Y-118.2
G05
X206.Y-112.5G85X206.Y-114.5
G05
T0
M30
