G04 #@! TF.GenerationSoftware,KiCad,Pcbnew,5.0.2-bee76a0~70~ubuntu18.04.1*
G04 #@! TF.CreationDate,2019-07-19T10:20:09+02:00*
G04 #@! TF.ProjectId,Plant_monitoring_device,506c616e-745f-46d6-9f6e-69746f72696e,rev?*
G04 #@! TF.SameCoordinates,Original*
G04 #@! TF.FileFunction,Copper,L2,Bot*
G04 #@! TF.FilePolarity,Positive*
%FSLAX46Y46*%
G04 Gerber Fmt 4.6, Leading zero omitted, Abs format (unit mm)*
G04 Created by KiCad (PCBNEW 5.0.2-bee76a0~70~ubuntu18.04.1) date Fri 19 Jul 2019 10:20:09 CEST*
%MOMM*%
%LPD*%
G01*
G04 APERTURE LIST*
G04 #@! TA.AperFunction,ComponentPad*
%ADD10R,1.200000X1.200000*%
G04 #@! TD*
G04 #@! TA.AperFunction,ComponentPad*
%ADD11C,1.200000*%
G04 #@! TD*
G04 #@! TA.AperFunction,ComponentPad*
%ADD12C,1.800000*%
G04 #@! TD*
G04 #@! TA.AperFunction,ComponentPad*
%ADD13R,1.800000X1.800000*%
G04 #@! TD*
G04 #@! TA.AperFunction,ComponentPad*
%ADD14R,1.700000X1.700000*%
G04 #@! TD*
G04 #@! TA.AperFunction,ComponentPad*
%ADD15O,1.700000X1.700000*%
G04 #@! TD*
G04 #@! TA.AperFunction,Conductor*
%ADD16C,0.100000*%
G04 #@! TD*
G04 #@! TA.AperFunction,ComponentPad*
%ADD17C,3.500000*%
G04 #@! TD*
G04 #@! TA.AperFunction,ComponentPad*
%ADD18C,3.000000*%
G04 #@! TD*
G04 #@! TA.AperFunction,ComponentPad*
%ADD19R,3.500000X3.500000*%
G04 #@! TD*
G04 #@! TA.AperFunction,ViaPad*
%ADD20C,0.800000*%
G04 #@! TD*
G04 #@! TA.AperFunction,Conductor*
%ADD21C,0.250000*%
G04 #@! TD*
G04 #@! TA.AperFunction,Conductor*
%ADD22C,0.800000*%
G04 #@! TD*
G04 #@! TA.AperFunction,Conductor*
%ADD23C,0.300000*%
G04 #@! TD*
G04 #@! TA.AperFunction,Conductor*
%ADD24C,0.400000*%
G04 #@! TD*
G04 #@! TA.AperFunction,Conductor*
%ADD25C,0.700000*%
G04 #@! TD*
G04 #@! TA.AperFunction,Conductor*
%ADD26C,0.254000*%
G04 #@! TD*
G04 APERTURE END LIST*
D10*
G04 #@! TO.P,J15,1*
G04 #@! TO.N,/WATER_LVL_SW*
X208000000Y-146300000D03*
D11*
G04 #@! TO.P,J15,2*
G04 #@! TO.N,+3V3*
X209500000Y-146300000D03*
G04 #@! TD*
G04 #@! TO.P,J14,3*
G04 #@! TO.N,/ADC_SOIL4*
X241500000Y-146300000D03*
G04 #@! TO.P,J14,2*
G04 #@! TO.N,+3V3*
X240000000Y-146300000D03*
D10*
G04 #@! TO.P,J14,1*
G04 #@! TO.N,GND*
X238500000Y-146300000D03*
G04 #@! TD*
D11*
G04 #@! TO.P,J13,3*
G04 #@! TO.N,/ADC_SOIL3*
X233500000Y-146300000D03*
G04 #@! TO.P,J13,2*
G04 #@! TO.N,+3V3*
X232000000Y-146300000D03*
D10*
G04 #@! TO.P,J13,1*
G04 #@! TO.N,GND*
X230500000Y-146300000D03*
G04 #@! TD*
D11*
G04 #@! TO.P,J12,3*
G04 #@! TO.N,/ADC_SOIL2*
X225500000Y-146300000D03*
G04 #@! TO.P,J12,2*
G04 #@! TO.N,+3V3*
X224000000Y-146300000D03*
D10*
G04 #@! TO.P,J12,1*
G04 #@! TO.N,GND*
X222500000Y-146300000D03*
G04 #@! TD*
D11*
G04 #@! TO.P,J11,3*
G04 #@! TO.N,/ADC_SOIL1*
X217500000Y-146300000D03*
G04 #@! TO.P,J11,2*
G04 #@! TO.N,+3V3*
X216000000Y-146300000D03*
D10*
G04 #@! TO.P,J11,1*
G04 #@! TO.N,GND*
X214500000Y-146300000D03*
G04 #@! TD*
D12*
G04 #@! TO.P,J10,2*
G04 #@! TO.N,Net-(J10-Pad2)*
X187700000Y-106500000D03*
D13*
G04 #@! TO.P,J10,1*
G04 #@! TO.N,+12V*
X187700000Y-104000000D03*
G04 #@! TD*
G04 #@! TO.P,J9,1*
G04 #@! TO.N,+12V*
X187700000Y-95500000D03*
D12*
G04 #@! TO.P,J9,2*
G04 #@! TO.N,Net-(J9-Pad2)*
X187700000Y-98000000D03*
G04 #@! TD*
G04 #@! TO.P,J8,2*
G04 #@! TO.N,Net-(J8-Pad2)*
X187700000Y-89500000D03*
D13*
G04 #@! TO.P,J8,1*
G04 #@! TO.N,+12V*
X187700000Y-87000000D03*
G04 #@! TD*
G04 #@! TO.P,J7,1*
G04 #@! TO.N,+12V*
X187700000Y-78500000D03*
D12*
G04 #@! TO.P,J7,2*
G04 #@! TO.N,Net-(J7-Pad2)*
X187700000Y-81000000D03*
G04 #@! TD*
G04 #@! TO.P,J6,2*
G04 #@! TO.N,Net-(J6-Pad2)*
X187700000Y-141500000D03*
D13*
G04 #@! TO.P,J6,1*
G04 #@! TO.N,+12V*
X187700000Y-139000000D03*
G04 #@! TD*
G04 #@! TO.P,J5,1*
G04 #@! TO.N,+12V*
X187700000Y-130500000D03*
D12*
G04 #@! TO.P,J5,2*
G04 #@! TO.N,Net-(J5-Pad2)*
X187700000Y-133000000D03*
G04 #@! TD*
G04 #@! TO.P,J4,2*
G04 #@! TO.N,Net-(J4-Pad2)*
X187700000Y-124500000D03*
D13*
G04 #@! TO.P,J4,1*
G04 #@! TO.N,+12V*
X187700000Y-122000000D03*
G04 #@! TD*
G04 #@! TO.P,J3,1*
G04 #@! TO.N,+12V*
X187700000Y-113500000D03*
D12*
G04 #@! TO.P,J3,2*
G04 #@! TO.N,Net-(J3-Pad2)*
X187700000Y-116000000D03*
G04 #@! TD*
D14*
G04 #@! TO.P,J2,1*
G04 #@! TO.N,+3V3*
X236750000Y-104000000D03*
D15*
G04 #@! TO.P,J2,2*
G04 #@! TO.N,GND*
X239290000Y-104000000D03*
G04 #@! TO.P,J2,3*
G04 #@! TO.N,/UART_RX*
X241830000Y-104000000D03*
G04 #@! TO.P,J2,4*
G04 #@! TO.N,/UART_TX*
X244370000Y-104000000D03*
G04 #@! TO.P,J2,5*
G04 #@! TO.N,/IO0*
X246910000Y-104000000D03*
G04 #@! TO.P,J2,6*
G04 #@! TO.N,/EN*
X249450000Y-104000000D03*
G04 #@! TD*
D16*
G04 #@! TO.N,N/C*
G04 #@! TO.C,J1*
G36*
X201660765Y-139554213D02*
X201745704Y-139566813D01*
X201828999Y-139587677D01*
X201909848Y-139616605D01*
X201987472Y-139653319D01*
X202061124Y-139697464D01*
X202130094Y-139748616D01*
X202193718Y-139806282D01*
X202251384Y-139869906D01*
X202302536Y-139938876D01*
X202346681Y-140012528D01*
X202383395Y-140090152D01*
X202412323Y-140171001D01*
X202433187Y-140254296D01*
X202445787Y-140339235D01*
X202450000Y-140425000D01*
X202450000Y-142175000D01*
X202445787Y-142260765D01*
X202433187Y-142345704D01*
X202412323Y-142428999D01*
X202383395Y-142509848D01*
X202346681Y-142587472D01*
X202302536Y-142661124D01*
X202251384Y-142730094D01*
X202193718Y-142793718D01*
X202130094Y-142851384D01*
X202061124Y-142902536D01*
X201987472Y-142946681D01*
X201909848Y-142983395D01*
X201828999Y-143012323D01*
X201745704Y-143033187D01*
X201660765Y-143045787D01*
X201575000Y-143050000D01*
X199825000Y-143050000D01*
X199739235Y-143045787D01*
X199654296Y-143033187D01*
X199571001Y-143012323D01*
X199490152Y-142983395D01*
X199412528Y-142946681D01*
X199338876Y-142902536D01*
X199269906Y-142851384D01*
X199206282Y-142793718D01*
X199148616Y-142730094D01*
X199097464Y-142661124D01*
X199053319Y-142587472D01*
X199016605Y-142509848D01*
X198987677Y-142428999D01*
X198966813Y-142345704D01*
X198954213Y-142260765D01*
X198950000Y-142175000D01*
X198950000Y-140425000D01*
X198954213Y-140339235D01*
X198966813Y-140254296D01*
X198987677Y-140171001D01*
X199016605Y-140090152D01*
X199053319Y-140012528D01*
X199097464Y-139938876D01*
X199148616Y-139869906D01*
X199206282Y-139806282D01*
X199269906Y-139748616D01*
X199338876Y-139697464D01*
X199412528Y-139653319D01*
X199490152Y-139616605D01*
X199571001Y-139587677D01*
X199654296Y-139566813D01*
X199739235Y-139554213D01*
X199825000Y-139550000D01*
X201575000Y-139550000D01*
X201660765Y-139554213D01*
X201660765Y-139554213D01*
G37*
D17*
G04 #@! TD*
G04 #@! TO.P,J1,3*
G04 #@! TO.N,N/C*
X200700000Y-141300000D03*
D16*
G04 #@! TO.N,GND*
G04 #@! TO.C,J1*
G36*
X197073513Y-142803611D02*
X197146318Y-142814411D01*
X197217714Y-142832295D01*
X197287013Y-142857090D01*
X197353548Y-142888559D01*
X197416678Y-142926398D01*
X197475795Y-142970242D01*
X197530330Y-143019670D01*
X197579758Y-143074205D01*
X197623602Y-143133322D01*
X197661441Y-143196452D01*
X197692910Y-143262987D01*
X197717705Y-143332286D01*
X197735589Y-143403682D01*
X197746389Y-143476487D01*
X197750000Y-143550000D01*
X197750000Y-145050000D01*
X197746389Y-145123513D01*
X197735589Y-145196318D01*
X197717705Y-145267714D01*
X197692910Y-145337013D01*
X197661441Y-145403548D01*
X197623602Y-145466678D01*
X197579758Y-145525795D01*
X197530330Y-145580330D01*
X197475795Y-145629758D01*
X197416678Y-145673602D01*
X197353548Y-145711441D01*
X197287013Y-145742910D01*
X197217714Y-145767705D01*
X197146318Y-145785589D01*
X197073513Y-145796389D01*
X197000000Y-145800000D01*
X195000000Y-145800000D01*
X194926487Y-145796389D01*
X194853682Y-145785589D01*
X194782286Y-145767705D01*
X194712987Y-145742910D01*
X194646452Y-145711441D01*
X194583322Y-145673602D01*
X194524205Y-145629758D01*
X194469670Y-145580330D01*
X194420242Y-145525795D01*
X194376398Y-145466678D01*
X194338559Y-145403548D01*
X194307090Y-145337013D01*
X194282295Y-145267714D01*
X194264411Y-145196318D01*
X194253611Y-145123513D01*
X194250000Y-145050000D01*
X194250000Y-143550000D01*
X194253611Y-143476487D01*
X194264411Y-143403682D01*
X194282295Y-143332286D01*
X194307090Y-143262987D01*
X194338559Y-143196452D01*
X194376398Y-143133322D01*
X194420242Y-143074205D01*
X194469670Y-143019670D01*
X194524205Y-142970242D01*
X194583322Y-142926398D01*
X194646452Y-142888559D01*
X194712987Y-142857090D01*
X194782286Y-142832295D01*
X194853682Y-142814411D01*
X194926487Y-142803611D01*
X195000000Y-142800000D01*
X197000000Y-142800000D01*
X197073513Y-142803611D01*
X197073513Y-142803611D01*
G37*
D18*
G04 #@! TD*
G04 #@! TO.P,J1,2*
G04 #@! TO.N,GND*
X196000000Y-144300000D03*
D19*
G04 #@! TO.P,J1,1*
G04 #@! TO.N,Net-(D1-Pad2)*
X196000000Y-138300000D03*
G04 #@! TD*
D20*
G04 #@! TO.N,*
X245000000Y-125000000D03*
X252000000Y-117000000D03*
X249000000Y-117000000D03*
G04 #@! TO.N,GND*
X211449986Y-131000000D03*
X211500000Y-133250000D03*
X245000000Y-110000000D03*
X240000000Y-120000000D03*
X240000000Y-110000000D03*
X235000000Y-120000000D03*
X210000000Y-125000000D03*
X225000000Y-120000000D03*
X225000000Y-100000000D03*
X215000000Y-110000000D03*
X205000000Y-110000000D03*
X205000000Y-120000000D03*
X215000000Y-120000000D03*
X215000000Y-100000000D03*
X205000000Y-100000000D03*
X205000000Y-85000000D03*
X215000000Y-85000000D03*
X225000000Y-85000000D03*
X200000000Y-80000000D03*
X193000000Y-77500000D03*
X193000000Y-83500000D03*
X240000000Y-135000000D03*
X245000000Y-135000000D03*
X250750000Y-102750000D03*
X225000000Y-80000000D03*
X215000000Y-80000000D03*
X220000000Y-80000000D03*
X210000000Y-80000000D03*
X205000000Y-80000000D03*
X192500000Y-92500000D03*
X192500000Y-102000000D03*
X192500000Y-109500000D03*
X192500000Y-112500000D03*
X205000000Y-147500000D03*
X257500000Y-147500000D03*
X257500000Y-138000000D03*
X257500000Y-140000000D03*
X257500000Y-142500000D03*
X252500000Y-147500000D03*
X205000000Y-92500000D03*
X210000000Y-92500000D03*
X215000000Y-92500000D03*
X220000000Y-92500000D03*
X225000000Y-92500000D03*
X210000000Y-85000000D03*
X220000000Y-85000000D03*
X249000000Y-110000000D03*
X215000000Y-125000000D03*
X227500000Y-127500000D03*
X227500000Y-142500000D03*
X233000000Y-128500000D03*
X252245010Y-110000000D03*
X231500000Y-84600000D03*
X195500000Y-110500000D03*
X229000000Y-101000000D03*
X203500000Y-135500000D03*
X203500000Y-140500000D03*
X203500000Y-145500000D03*
X203500000Y-133000000D03*
X235000000Y-110000000D03*
X229000000Y-106500000D03*
X232500000Y-112000000D03*
X255000000Y-140000000D03*
X229000000Y-140500000D03*
X249000000Y-142000000D03*
X251500000Y-142000000D03*
X251500000Y-143000000D03*
X246500000Y-147500000D03*
X245000000Y-146000000D03*
X248000000Y-143000000D03*
X249500000Y-144500000D03*
X222800000Y-135400000D03*
X222200000Y-143600000D03*
X220000000Y-135400000D03*
X240000000Y-125000000D03*
X245000000Y-128000000D03*
X240000000Y-128000000D03*
X249000000Y-123000000D03*
X252000000Y-123000000D03*
X239000000Y-101600000D03*
X242700000Y-101600000D03*
X244500000Y-98800000D03*
X257274990Y-105000000D03*
X257274990Y-110000000D03*
X257274990Y-120000000D03*
X257274990Y-133000000D03*
X257274990Y-115000000D03*
X232000000Y-136000000D03*
X235500000Y-140500000D03*
X235500000Y-143500000D03*
X231500000Y-143500000D03*
X231500000Y-140500000D03*
X243000000Y-142500000D03*
X224000000Y-140500000D03*
X220500000Y-140500000D03*
X198500000Y-114500000D03*
X198400000Y-118000000D03*
X198500000Y-124900000D03*
X202000000Y-124900000D03*
X202400000Y-122400000D03*
X202300000Y-118000000D03*
X202300000Y-114500000D03*
X198000000Y-102000000D03*
X203000000Y-102000000D03*
X203000000Y-109000000D03*
X198000000Y-109000000D03*
X197000000Y-94000000D03*
X203000000Y-94000000D03*
X199000000Y-122000000D03*
X239000000Y-143000000D03*
X241000000Y-141000000D03*
X238000000Y-138000000D03*
X199000000Y-85000000D03*
X201000000Y-83000000D03*
X199000000Y-89000000D03*
X227500000Y-132500000D03*
X227500000Y-136500000D03*
X220000000Y-105000000D03*
X193000000Y-72000000D03*
X233900000Y-79400000D03*
X256000000Y-81000000D03*
X222000000Y-133000000D03*
X218250000Y-130500000D03*
X215000000Y-130750000D03*
X230250000Y-120000000D03*
X235000000Y-114000000D03*
X230250000Y-114250000D03*
X225000000Y-114250000D03*
X219500000Y-114250000D03*
X219500000Y-120000000D03*
X219500000Y-125000000D03*
X222750000Y-123250000D03*
X254750000Y-127500000D03*
X254500000Y-120000000D03*
X208500000Y-141250000D03*
X214500000Y-141250000D03*
X217500000Y-141250000D03*
X254500000Y-100750000D03*
X254500000Y-104500000D03*
X258500000Y-85000000D03*
X258500000Y-94500000D03*
X258500000Y-100500000D03*
X237000000Y-97500000D03*
X231000000Y-97500000D03*
X235000000Y-102000000D03*
G04 #@! TO.N,/I2C_SDA*
X252000000Y-126050000D03*
X249466844Y-126029433D03*
G04 #@! TO.N,Net-(J5-Pad2)*
X191500000Y-124300000D03*
G04 #@! TO.N,Net-(J6-Pad2)*
X191500000Y-127800000D03*
G04 #@! TO.N,Net-(J4-Pad2)*
X189800000Y-119500000D03*
G04 #@! TO.N,+3V3*
X246850000Y-113900000D03*
X254050000Y-113900000D03*
X234750000Y-129400022D03*
X234750000Y-124250000D03*
X229000000Y-93000000D03*
X229099960Y-80750000D03*
G04 #@! TO.N,/UART_RX*
X256500000Y-84600000D03*
G04 #@! TO.N,/UART_TX*
X257500012Y-83300000D03*
G04 #@! TO.N,/PWM_LED_B*
X233550010Y-102600000D03*
X255450000Y-89650000D03*
G04 #@! TO.N,/PWM_LED_G*
X232000000Y-102600000D03*
X255450000Y-85850000D03*
G04 #@! TO.N,/PWM_LED_R*
X232800000Y-101000000D03*
X255450000Y-88400000D03*
G04 #@! TO.N,/WATER_LVL_SW*
X255487340Y-99500000D03*
G04 #@! TD*
D21*
G04 #@! TO.N,/I2C_SDA*
X252000000Y-126050000D02*
X249487411Y-126050000D01*
D22*
G04 #@! TO.N,Net-(J5-Pad2)*
X189200000Y-133000000D02*
X187700000Y-133000000D01*
X190000000Y-126365685D02*
X190000000Y-132200000D01*
X191500000Y-124300000D02*
X191500000Y-124865685D01*
X190000000Y-132200000D02*
X189200000Y-133000000D01*
X191500000Y-124865685D02*
X190000000Y-126365685D01*
G04 #@! TO.N,Net-(J6-Pad2)*
X189700000Y-141500000D02*
X187700000Y-141500000D01*
X191500000Y-127800000D02*
X191500000Y-139700000D01*
X191500000Y-139700000D02*
X189700000Y-141500000D01*
G04 #@! TO.N,Net-(J4-Pad2)*
X189200000Y-124500000D02*
X187700000Y-124500000D01*
X189800000Y-119500000D02*
X189800000Y-123900000D01*
X189800000Y-123900000D02*
X189200000Y-124500000D01*
D23*
G04 #@! TO.N,+3V3*
X254050000Y-113900000D02*
X246850000Y-113900000D01*
D24*
X234750000Y-129400022D02*
X234750000Y-124250000D01*
D25*
X229000000Y-93000000D02*
X229000000Y-80849960D01*
X229000000Y-80849960D02*
X229099960Y-80750000D01*
D23*
G04 #@! TO.N,/UART_RX*
X244629989Y-101200011D02*
X251299989Y-101200011D01*
X256500000Y-85165685D02*
X256500000Y-84600000D01*
X256500000Y-96000000D02*
X256500000Y-85165685D01*
X251299989Y-101200011D02*
X256500000Y-96000000D01*
X241830000Y-104000000D02*
X244629989Y-101200011D01*
G04 #@! TO.N,/UART_TX*
X257500012Y-95999988D02*
X257500012Y-83865685D01*
X246669978Y-101700022D02*
X251799978Y-101700022D01*
X244370000Y-104000000D02*
X246669978Y-101700022D01*
X251799978Y-101700022D02*
X257500012Y-95999988D01*
X257500012Y-83865685D02*
X257500012Y-83300000D01*
G04 #@! TO.N,/PWM_LED_B*
X255450000Y-96050000D02*
X250800000Y-100700000D01*
X255450000Y-89650000D02*
X255450000Y-96050000D01*
X250800000Y-100700000D02*
X234300000Y-100700000D01*
X233550010Y-101449990D02*
X233550010Y-102600000D01*
X234300000Y-100700000D02*
X233550010Y-101449990D01*
G04 #@! TO.N,/PWM_LED_G*
X232000000Y-100700000D02*
X232000000Y-102600000D01*
X255450000Y-86850000D02*
X254100000Y-88200000D01*
X255450000Y-85850000D02*
X255450000Y-86850000D01*
X254100000Y-88200000D02*
X254100000Y-95400000D01*
X233100000Y-99600000D02*
X232000000Y-100700000D01*
X254100000Y-95400000D02*
X249900000Y-99600000D01*
X249900000Y-99600000D02*
X233100000Y-99600000D01*
G04 #@! TO.N,/PWM_LED_R*
X250300000Y-100200000D02*
X254600000Y-95900000D01*
X232800000Y-101000000D02*
X233600000Y-100200000D01*
X254800000Y-88400000D02*
X255450000Y-88400000D01*
X254600000Y-88600000D02*
X254800000Y-88400000D01*
X254600000Y-95900000D02*
X254600000Y-88600000D01*
X233600000Y-100200000D02*
X250300000Y-100200000D01*
D21*
G04 #@! TO.N,/WATER_LVL_SW*
X248000000Y-148500000D02*
X256000000Y-140500000D01*
X209350000Y-148500000D02*
X248000000Y-148500000D01*
X256000000Y-140500000D02*
X256000000Y-137000000D01*
X256000000Y-137000000D02*
X258000000Y-135000000D01*
X258000000Y-135000000D02*
X258000000Y-102012660D01*
X258000000Y-102012660D02*
X255887339Y-99899999D01*
X255887339Y-99899999D02*
X255487340Y-99500000D01*
X208000000Y-147150000D02*
X209350000Y-148500000D01*
X208000000Y-146300000D02*
X208000000Y-147150000D01*
G04 #@! TD*
D26*
G04 #@! TO.N,GND*
G36*
X201440122Y-70994891D02*
X201844867Y-71178918D01*
X202181692Y-71469145D01*
X202423521Y-71842242D01*
X202555150Y-72282377D01*
X202572501Y-72515869D01*
X202572500Y-76542103D01*
X202575614Y-76557757D01*
X202595644Y-76827300D01*
X202605007Y-76869889D01*
X202610926Y-76913095D01*
X202612392Y-76918108D01*
X202774869Y-77461393D01*
X202799202Y-77514055D01*
X202822896Y-77567024D01*
X202825710Y-77571424D01*
X203134138Y-78047270D01*
X203172283Y-78090996D01*
X203209882Y-78135175D01*
X203213818Y-78138609D01*
X203643403Y-78508764D01*
X203692324Y-78540050D01*
X203740775Y-78571877D01*
X203745516Y-78574068D01*
X204261725Y-78808774D01*
X204317431Y-78825063D01*
X204372897Y-78842021D01*
X204378061Y-78842793D01*
X204378063Y-78842793D01*
X204927940Y-78921541D01*
X204957896Y-78927500D01*
X254979657Y-78927500D01*
X255769721Y-79002879D01*
X256511674Y-79220544D01*
X257199082Y-79574582D01*
X257807136Y-80052216D01*
X258313907Y-80636217D01*
X258701099Y-81305505D01*
X258954747Y-82035934D01*
X259067881Y-82816202D01*
X259072501Y-83005247D01*
X259072500Y-144979657D01*
X258997121Y-145769721D01*
X258779456Y-146511674D01*
X258425419Y-147199080D01*
X257947785Y-147807137D01*
X257363783Y-148313906D01*
X256694495Y-148701099D01*
X255964066Y-148954747D01*
X255183798Y-149067881D01*
X254994794Y-149072500D01*
X185020343Y-149072500D01*
X184230279Y-148997121D01*
X183488326Y-148779456D01*
X182800920Y-148425419D01*
X182192863Y-147947785D01*
X181686094Y-147363783D01*
X181298901Y-146694495D01*
X181045253Y-145964066D01*
X180932119Y-145183798D01*
X180927500Y-144994794D01*
X180927500Y-144529750D01*
X193823000Y-144529750D01*
X193823000Y-145884935D01*
X193888007Y-146041876D01*
X194008124Y-146161993D01*
X194165064Y-146227000D01*
X195770250Y-146227000D01*
X195877000Y-146120250D01*
X195877000Y-144423000D01*
X196123000Y-144423000D01*
X196123000Y-146120250D01*
X196229750Y-146227000D01*
X197834936Y-146227000D01*
X197991876Y-146161993D01*
X198111993Y-146041876D01*
X198177000Y-145884935D01*
X198177000Y-145700000D01*
X206964635Y-145700000D01*
X206964635Y-146900000D01*
X206997775Y-147066607D01*
X207092150Y-147207850D01*
X207233393Y-147302225D01*
X207400000Y-147335365D01*
X207474058Y-147335365D01*
X207480028Y-147365379D01*
X207502553Y-147399090D01*
X207602031Y-147547970D01*
X207648121Y-147578766D01*
X208921233Y-148851879D01*
X208952030Y-148897970D01*
X209122993Y-149012203D01*
X209134620Y-149019972D01*
X209349999Y-149062814D01*
X209404364Y-149052000D01*
X247945635Y-149052000D01*
X248000000Y-149062814D01*
X248054365Y-149052000D01*
X248215380Y-149019972D01*
X248397970Y-148897970D01*
X248428768Y-148851877D01*
X253177467Y-144103178D01*
X252973000Y-144596805D01*
X252973000Y-145403195D01*
X253281593Y-146148203D01*
X253851797Y-146718407D01*
X254596805Y-147027000D01*
X255403195Y-147027000D01*
X256148203Y-146718407D01*
X256718407Y-146148203D01*
X257027000Y-145403195D01*
X257027000Y-144596805D01*
X256718407Y-143851797D01*
X256148203Y-143281593D01*
X255403195Y-142973000D01*
X254596805Y-142973000D01*
X254103179Y-143177467D01*
X256351880Y-140928766D01*
X256397970Y-140897970D01*
X256519972Y-140715380D01*
X256552000Y-140554365D01*
X256552000Y-140554364D01*
X256562814Y-140500001D01*
X256552000Y-140445636D01*
X256552000Y-137228645D01*
X258351880Y-135428766D01*
X258397970Y-135397970D01*
X258519972Y-135215380D01*
X258552000Y-135054365D01*
X258552000Y-135054364D01*
X258562814Y-135000001D01*
X258552000Y-134945636D01*
X258552000Y-102067025D01*
X258562814Y-102012660D01*
X258519972Y-101797281D01*
X258519972Y-101797280D01*
X258397970Y-101614690D01*
X258351876Y-101583891D01*
X256316105Y-99548120D01*
X256316103Y-99548117D01*
X256314340Y-99546354D01*
X256314340Y-99335499D01*
X256188437Y-99031542D01*
X255955798Y-98798903D01*
X255651841Y-98673000D01*
X255643001Y-98673000D01*
X257867827Y-96448174D01*
X257916006Y-96415982D01*
X258043534Y-96225122D01*
X258077012Y-96056817D01*
X258077012Y-96056816D01*
X258088316Y-95999989D01*
X258077012Y-95943161D01*
X258077012Y-83892555D01*
X258201109Y-83768458D01*
X258327012Y-83464501D01*
X258327012Y-83135499D01*
X258201109Y-82831542D01*
X257968470Y-82598903D01*
X257664513Y-82473000D01*
X257335511Y-82473000D01*
X257031554Y-82598903D01*
X256798915Y-82831542D01*
X256673012Y-83135499D01*
X256673012Y-83464501D01*
X256798915Y-83768458D01*
X256901714Y-83871257D01*
X256664501Y-83773000D01*
X256335499Y-83773000D01*
X256031542Y-83898903D01*
X255798903Y-84131542D01*
X255673000Y-84435499D01*
X255673000Y-84764501D01*
X255798903Y-85068458D01*
X255851693Y-85121248D01*
X255614501Y-85023000D01*
X255285499Y-85023000D01*
X254981542Y-85148903D01*
X254748903Y-85381542D01*
X254623000Y-85685499D01*
X254623000Y-86014501D01*
X254748903Y-86318458D01*
X254873001Y-86442556D01*
X254873001Y-86610998D01*
X253732188Y-87751812D01*
X253684006Y-87784006D01*
X253556478Y-87974867D01*
X253540245Y-88056478D01*
X253511696Y-88200000D01*
X253523000Y-88256828D01*
X253523001Y-95160998D01*
X249661000Y-99023000D01*
X233156828Y-99023000D01*
X233100000Y-99011696D01*
X233043172Y-99023000D01*
X233043171Y-99023000D01*
X232874866Y-99056478D01*
X232684006Y-99184006D01*
X232651815Y-99232184D01*
X231632188Y-100251812D01*
X231584006Y-100284006D01*
X231456478Y-100474867D01*
X231445205Y-100531542D01*
X231411696Y-100700000D01*
X231423000Y-100756828D01*
X231423001Y-102007444D01*
X231298903Y-102131542D01*
X231173000Y-102435499D01*
X231173000Y-102764501D01*
X231298903Y-103068458D01*
X231531542Y-103301097D01*
X231835499Y-103427000D01*
X232164501Y-103427000D01*
X232468458Y-103301097D01*
X232701097Y-103068458D01*
X232775005Y-102890028D01*
X232848913Y-103068458D01*
X233081552Y-103301097D01*
X233385509Y-103427000D01*
X233714511Y-103427000D01*
X234018468Y-103301097D01*
X234169565Y-103150000D01*
X235464635Y-103150000D01*
X235464635Y-104850000D01*
X235497775Y-105016607D01*
X235592150Y-105157850D01*
X235733393Y-105252225D01*
X235900000Y-105285365D01*
X237600000Y-105285365D01*
X237766607Y-105252225D01*
X237907850Y-105157850D01*
X238002225Y-105016607D01*
X238035365Y-104850000D01*
X238035365Y-104123002D01*
X238125676Y-104123002D01*
X238053817Y-104320325D01*
X238270499Y-104769008D01*
X238642391Y-105100617D01*
X238969676Y-105236173D01*
X239167000Y-105163768D01*
X239167000Y-104123000D01*
X239147000Y-104123000D01*
X239147000Y-103877000D01*
X239167000Y-103877000D01*
X239167000Y-102836232D01*
X238969676Y-102763827D01*
X238642391Y-102899383D01*
X238270499Y-103230992D01*
X238053817Y-103679675D01*
X238125676Y-103876998D01*
X238035365Y-103876998D01*
X238035365Y-103150000D01*
X238002225Y-102983393D01*
X237907850Y-102842150D01*
X237766607Y-102747775D01*
X237600000Y-102714635D01*
X235900000Y-102714635D01*
X235733393Y-102747775D01*
X235592150Y-102842150D01*
X235497775Y-102983393D01*
X235464635Y-103150000D01*
X234169565Y-103150000D01*
X234251107Y-103068458D01*
X234377010Y-102764501D01*
X234377010Y-102435499D01*
X234251107Y-102131542D01*
X234127010Y-102007445D01*
X234127010Y-101688990D01*
X234539001Y-101277000D01*
X243736999Y-101277000D01*
X242235381Y-102778618D01*
X241955769Y-102723000D01*
X241704231Y-102723000D01*
X241331740Y-102797093D01*
X240909335Y-103079335D01*
X240627093Y-103501740D01*
X240552450Y-103876998D01*
X240454324Y-103876998D01*
X240526183Y-103679675D01*
X240309501Y-103230992D01*
X239937609Y-102899383D01*
X239610324Y-102763827D01*
X239413000Y-102836232D01*
X239413000Y-103877000D01*
X239433000Y-103877000D01*
X239433000Y-104123000D01*
X239413000Y-104123000D01*
X239413000Y-105163768D01*
X239610324Y-105236173D01*
X239937609Y-105100617D01*
X240309501Y-104769008D01*
X240526183Y-104320325D01*
X240454324Y-104123002D01*
X240552450Y-104123002D01*
X240627093Y-104498260D01*
X240909335Y-104920665D01*
X241331740Y-105202907D01*
X241704231Y-105277000D01*
X241955769Y-105277000D01*
X242328260Y-105202907D01*
X242750665Y-104920665D01*
X243032907Y-104498260D01*
X243100000Y-104160960D01*
X243167093Y-104498260D01*
X243449335Y-104920665D01*
X243871740Y-105202907D01*
X244244231Y-105277000D01*
X244495769Y-105277000D01*
X244868260Y-105202907D01*
X245290665Y-104920665D01*
X245572907Y-104498260D01*
X245640000Y-104160960D01*
X245707093Y-104498260D01*
X245989335Y-104920665D01*
X246411740Y-105202907D01*
X246784231Y-105277000D01*
X247035769Y-105277000D01*
X247408260Y-105202907D01*
X247830665Y-104920665D01*
X248112907Y-104498260D01*
X248180000Y-104160960D01*
X248247093Y-104498260D01*
X248529335Y-104920665D01*
X248951740Y-105202907D01*
X249324231Y-105277000D01*
X249575769Y-105277000D01*
X249948260Y-105202907D01*
X250370665Y-104920665D01*
X250652907Y-104498260D01*
X250752017Y-104000000D01*
X250652907Y-103501740D01*
X250370665Y-103079335D01*
X249948260Y-102797093D01*
X249575769Y-102723000D01*
X249324231Y-102723000D01*
X248951740Y-102797093D01*
X248529335Y-103079335D01*
X248247093Y-103501740D01*
X248180000Y-103839040D01*
X248112907Y-103501740D01*
X247830665Y-103079335D01*
X247408260Y-102797093D01*
X247035769Y-102723000D01*
X246784231Y-102723000D01*
X246411740Y-102797093D01*
X246342931Y-102843070D01*
X246908979Y-102277022D01*
X251743150Y-102277022D01*
X251799978Y-102288326D01*
X251856806Y-102277022D01*
X251856807Y-102277022D01*
X252025112Y-102243544D01*
X252215972Y-102116016D01*
X252248166Y-102067834D01*
X254660340Y-99655660D01*
X254660340Y-99664501D01*
X254786243Y-99968458D01*
X255018882Y-100201097D01*
X255322839Y-100327000D01*
X255533694Y-100327000D01*
X255535457Y-100328763D01*
X255535460Y-100328765D01*
X257448001Y-102241306D01*
X257448000Y-134771354D01*
X255648121Y-136571234D01*
X255602031Y-136602030D01*
X255571236Y-136648119D01*
X255480028Y-136784621D01*
X255437186Y-137000000D01*
X255448001Y-137054370D01*
X255448000Y-140271354D01*
X247771355Y-147948000D01*
X209578646Y-147948000D01*
X208866275Y-147235629D01*
X208907850Y-147207850D01*
X208929574Y-147175338D01*
X209295717Y-147327000D01*
X209704283Y-147327000D01*
X210081749Y-147170648D01*
X210370648Y-146881749D01*
X210516451Y-146529750D01*
X213473000Y-146529750D01*
X213473000Y-146984936D01*
X213538007Y-147141876D01*
X213658124Y-147261993D01*
X213815065Y-147327000D01*
X214270250Y-147327000D01*
X214377000Y-147220250D01*
X214377000Y-146423000D01*
X213579750Y-146423000D01*
X213473000Y-146529750D01*
X210516451Y-146529750D01*
X210527000Y-146504283D01*
X210527000Y-146095717D01*
X210370648Y-145718251D01*
X210267461Y-145615064D01*
X213473000Y-145615064D01*
X213473000Y-146070250D01*
X213579750Y-146177000D01*
X214377000Y-146177000D01*
X214377000Y-145379750D01*
X214623000Y-145379750D01*
X214623000Y-146177000D01*
X214643000Y-146177000D01*
X214643000Y-146423000D01*
X214623000Y-146423000D01*
X214623000Y-147220250D01*
X214729750Y-147327000D01*
X215184935Y-147327000D01*
X215341876Y-147261993D01*
X215428836Y-147175033D01*
X215795717Y-147327000D01*
X216204283Y-147327000D01*
X216581749Y-147170648D01*
X216750000Y-147002397D01*
X216918251Y-147170648D01*
X217295717Y-147327000D01*
X217704283Y-147327000D01*
X218081749Y-147170648D01*
X218370648Y-146881749D01*
X218516451Y-146529750D01*
X221473000Y-146529750D01*
X221473000Y-146984936D01*
X221538007Y-147141876D01*
X221658124Y-147261993D01*
X221815065Y-147327000D01*
X222270250Y-147327000D01*
X222377000Y-147220250D01*
X222377000Y-146423000D01*
X221579750Y-146423000D01*
X221473000Y-146529750D01*
X218516451Y-146529750D01*
X218527000Y-146504283D01*
X218527000Y-146095717D01*
X218370648Y-145718251D01*
X218267461Y-145615064D01*
X221473000Y-145615064D01*
X221473000Y-146070250D01*
X221579750Y-146177000D01*
X222377000Y-146177000D01*
X222377000Y-145379750D01*
X222623000Y-145379750D01*
X222623000Y-146177000D01*
X222643000Y-146177000D01*
X222643000Y-146423000D01*
X222623000Y-146423000D01*
X222623000Y-147220250D01*
X222729750Y-147327000D01*
X223184935Y-147327000D01*
X223341876Y-147261993D01*
X223428836Y-147175033D01*
X223795717Y-147327000D01*
X224204283Y-147327000D01*
X224581749Y-147170648D01*
X224750000Y-147002397D01*
X224918251Y-147170648D01*
X225295717Y-147327000D01*
X225704283Y-147327000D01*
X226081749Y-147170648D01*
X226370648Y-146881749D01*
X226516451Y-146529750D01*
X229473000Y-146529750D01*
X229473000Y-146984936D01*
X229538007Y-147141876D01*
X229658124Y-147261993D01*
X229815065Y-147327000D01*
X230270250Y-147327000D01*
X230377000Y-147220250D01*
X230377000Y-146423000D01*
X229579750Y-146423000D01*
X229473000Y-146529750D01*
X226516451Y-146529750D01*
X226527000Y-146504283D01*
X226527000Y-146095717D01*
X226370648Y-145718251D01*
X226267461Y-145615064D01*
X229473000Y-145615064D01*
X229473000Y-146070250D01*
X229579750Y-146177000D01*
X230377000Y-146177000D01*
X230377000Y-145379750D01*
X230623000Y-145379750D01*
X230623000Y-146177000D01*
X230643000Y-146177000D01*
X230643000Y-146423000D01*
X230623000Y-146423000D01*
X230623000Y-147220250D01*
X230729750Y-147327000D01*
X231184935Y-147327000D01*
X231341876Y-147261993D01*
X231428836Y-147175033D01*
X231795717Y-147327000D01*
X232204283Y-147327000D01*
X232581749Y-147170648D01*
X232750000Y-147002397D01*
X232918251Y-147170648D01*
X233295717Y-147327000D01*
X233704283Y-147327000D01*
X234081749Y-147170648D01*
X234370648Y-146881749D01*
X234516451Y-146529750D01*
X237473000Y-146529750D01*
X237473000Y-146984936D01*
X237538007Y-147141876D01*
X237658124Y-147261993D01*
X237815065Y-147327000D01*
X238270250Y-147327000D01*
X238377000Y-147220250D01*
X238377000Y-146423000D01*
X237579750Y-146423000D01*
X237473000Y-146529750D01*
X234516451Y-146529750D01*
X234527000Y-146504283D01*
X234527000Y-146095717D01*
X234370648Y-145718251D01*
X234267461Y-145615064D01*
X237473000Y-145615064D01*
X237473000Y-146070250D01*
X237579750Y-146177000D01*
X238377000Y-146177000D01*
X238377000Y-145379750D01*
X238623000Y-145379750D01*
X238623000Y-146177000D01*
X238643000Y-146177000D01*
X238643000Y-146423000D01*
X238623000Y-146423000D01*
X238623000Y-147220250D01*
X238729750Y-147327000D01*
X239184935Y-147327000D01*
X239341876Y-147261993D01*
X239428836Y-147175033D01*
X239795717Y-147327000D01*
X240204283Y-147327000D01*
X240581749Y-147170648D01*
X240750000Y-147002397D01*
X240918251Y-147170648D01*
X241295717Y-147327000D01*
X241704283Y-147327000D01*
X242081749Y-147170648D01*
X242370648Y-146881749D01*
X242527000Y-146504283D01*
X242527000Y-146095717D01*
X242370648Y-145718251D01*
X242081749Y-145429352D01*
X241704283Y-145273000D01*
X241295717Y-145273000D01*
X240918251Y-145429352D01*
X240750000Y-145597603D01*
X240581749Y-145429352D01*
X240204283Y-145273000D01*
X239795717Y-145273000D01*
X239428836Y-145424967D01*
X239341876Y-145338007D01*
X239184935Y-145273000D01*
X238729750Y-145273000D01*
X238623000Y-145379750D01*
X238377000Y-145379750D01*
X238270250Y-145273000D01*
X237815065Y-145273000D01*
X237658124Y-145338007D01*
X237538007Y-145458124D01*
X237473000Y-145615064D01*
X234267461Y-145615064D01*
X234081749Y-145429352D01*
X233704283Y-145273000D01*
X233295717Y-145273000D01*
X232918251Y-145429352D01*
X232750000Y-145597603D01*
X232581749Y-145429352D01*
X232204283Y-145273000D01*
X231795717Y-145273000D01*
X231428836Y-145424967D01*
X231341876Y-145338007D01*
X231184935Y-145273000D01*
X230729750Y-145273000D01*
X230623000Y-145379750D01*
X230377000Y-145379750D01*
X230270250Y-145273000D01*
X229815065Y-145273000D01*
X229658124Y-145338007D01*
X229538007Y-145458124D01*
X229473000Y-145615064D01*
X226267461Y-145615064D01*
X226081749Y-145429352D01*
X225704283Y-145273000D01*
X225295717Y-145273000D01*
X224918251Y-145429352D01*
X224750000Y-145597603D01*
X224581749Y-145429352D01*
X224204283Y-145273000D01*
X223795717Y-145273000D01*
X223428836Y-145424967D01*
X223341876Y-145338007D01*
X223184935Y-145273000D01*
X222729750Y-145273000D01*
X222623000Y-145379750D01*
X222377000Y-145379750D01*
X222270250Y-145273000D01*
X221815065Y-145273000D01*
X221658124Y-145338007D01*
X221538007Y-145458124D01*
X221473000Y-145615064D01*
X218267461Y-145615064D01*
X218081749Y-145429352D01*
X217704283Y-145273000D01*
X217295717Y-145273000D01*
X216918251Y-145429352D01*
X216750000Y-145597603D01*
X216581749Y-145429352D01*
X216204283Y-145273000D01*
X215795717Y-145273000D01*
X215428836Y-145424967D01*
X215341876Y-145338007D01*
X215184935Y-145273000D01*
X214729750Y-145273000D01*
X214623000Y-145379750D01*
X214377000Y-145379750D01*
X214270250Y-145273000D01*
X213815065Y-145273000D01*
X213658124Y-145338007D01*
X213538007Y-145458124D01*
X213473000Y-145615064D01*
X210267461Y-145615064D01*
X210081749Y-145429352D01*
X209704283Y-145273000D01*
X209295717Y-145273000D01*
X208929574Y-145424662D01*
X208907850Y-145392150D01*
X208766607Y-145297775D01*
X208600000Y-145264635D01*
X207400000Y-145264635D01*
X207233393Y-145297775D01*
X207092150Y-145392150D01*
X206997775Y-145533393D01*
X206964635Y-145700000D01*
X198177000Y-145700000D01*
X198177000Y-144529750D01*
X198070250Y-144423000D01*
X196123000Y-144423000D01*
X195877000Y-144423000D01*
X193929750Y-144423000D01*
X193823000Y-144529750D01*
X180927500Y-144529750D01*
X180927500Y-129600000D01*
X186364635Y-129600000D01*
X186364635Y-131400000D01*
X186397775Y-131566607D01*
X186492150Y-131707850D01*
X186633393Y-131802225D01*
X186800000Y-131835365D01*
X187044060Y-131835365D01*
X186948315Y-131875024D01*
X186575024Y-132248315D01*
X186373000Y-132736043D01*
X186373000Y-133263957D01*
X186575024Y-133751685D01*
X186948315Y-134124976D01*
X187436043Y-134327000D01*
X187963957Y-134327000D01*
X188451685Y-134124976D01*
X188749661Y-133827000D01*
X189118556Y-133827000D01*
X189200000Y-133843200D01*
X189281444Y-133827000D01*
X189281448Y-133827000D01*
X189522679Y-133779016D01*
X189796233Y-133596233D01*
X189842372Y-133527181D01*
X190527183Y-132842371D01*
X190596233Y-132796233D01*
X190673000Y-132681342D01*
X190673001Y-139357444D01*
X189357447Y-140673000D01*
X188749661Y-140673000D01*
X188451685Y-140375024D01*
X188355940Y-140335365D01*
X188600000Y-140335365D01*
X188766607Y-140302225D01*
X188907850Y-140207850D01*
X189002225Y-140066607D01*
X189035365Y-139900000D01*
X189035365Y-138100000D01*
X189002225Y-137933393D01*
X188907850Y-137792150D01*
X188766607Y-137697775D01*
X188600000Y-137664635D01*
X186800000Y-137664635D01*
X186633393Y-137697775D01*
X186492150Y-137792150D01*
X186397775Y-137933393D01*
X186364635Y-138100000D01*
X186364635Y-139900000D01*
X186397775Y-140066607D01*
X186492150Y-140207850D01*
X186633393Y-140302225D01*
X186800000Y-140335365D01*
X187044060Y-140335365D01*
X186948315Y-140375024D01*
X186575024Y-140748315D01*
X186373000Y-141236043D01*
X186373000Y-141763957D01*
X186575024Y-142251685D01*
X186948315Y-142624976D01*
X187436043Y-142827000D01*
X187963957Y-142827000D01*
X188234191Y-142715065D01*
X193823000Y-142715065D01*
X193823000Y-144070250D01*
X193929750Y-144177000D01*
X195877000Y-144177000D01*
X195877000Y-142479750D01*
X196123000Y-142479750D01*
X196123000Y-144177000D01*
X198070250Y-144177000D01*
X198177000Y-144070250D01*
X198177000Y-142715065D01*
X198111993Y-142558124D01*
X197991876Y-142438007D01*
X197834936Y-142373000D01*
X196229750Y-142373000D01*
X196123000Y-142479750D01*
X195877000Y-142479750D01*
X195770250Y-142373000D01*
X194165064Y-142373000D01*
X194008124Y-142438007D01*
X193888007Y-142558124D01*
X193823000Y-142715065D01*
X188234191Y-142715065D01*
X188451685Y-142624976D01*
X188749661Y-142327000D01*
X189618556Y-142327000D01*
X189700000Y-142343200D01*
X189781444Y-142327000D01*
X189781448Y-142327000D01*
X190022679Y-142279016D01*
X190296233Y-142096233D01*
X190342372Y-142027181D01*
X192027186Y-140342368D01*
X192096233Y-140296233D01*
X192149438Y-140216607D01*
X192249664Y-140066607D01*
X192279016Y-140022679D01*
X192327000Y-139781448D01*
X192327000Y-139781444D01*
X192343200Y-139700001D01*
X192327000Y-139618558D01*
X192327000Y-136550000D01*
X193814635Y-136550000D01*
X193814635Y-140050000D01*
X193847775Y-140216607D01*
X193942150Y-140357850D01*
X194083393Y-140452225D01*
X194250000Y-140485365D01*
X197750000Y-140485365D01*
X197916607Y-140452225D01*
X197957352Y-140425000D01*
X198514635Y-140425000D01*
X198514635Y-142175000D01*
X198614381Y-142676455D01*
X198898432Y-143101568D01*
X199323545Y-143385619D01*
X199825000Y-143485365D01*
X201575000Y-143485365D01*
X202076455Y-143385619D01*
X202501568Y-143101568D01*
X202785619Y-142676455D01*
X202885365Y-142175000D01*
X202885365Y-140425000D01*
X202785619Y-139923545D01*
X202501568Y-139498432D01*
X202076455Y-139214381D01*
X201575000Y-139114635D01*
X199825000Y-139114635D01*
X199323545Y-139214381D01*
X198898432Y-139498432D01*
X198614381Y-139923545D01*
X198514635Y-140425000D01*
X197957352Y-140425000D01*
X198057850Y-140357850D01*
X198152225Y-140216607D01*
X198185365Y-140050000D01*
X198185365Y-136550000D01*
X198152225Y-136383393D01*
X198057850Y-136242150D01*
X197916607Y-136147775D01*
X197750000Y-136114635D01*
X194250000Y-136114635D01*
X194083393Y-136147775D01*
X193942150Y-136242150D01*
X193847775Y-136383393D01*
X193814635Y-136550000D01*
X192327000Y-136550000D01*
X192327000Y-131957897D01*
X246572500Y-131957897D01*
X246572501Y-139042104D01*
X246580714Y-139083393D01*
X246580714Y-139083401D01*
X246656834Y-139466084D01*
X246720666Y-139620189D01*
X246720669Y-139620192D01*
X246937439Y-139944613D01*
X247055386Y-140062560D01*
X247055389Y-140062561D01*
X247379808Y-140279331D01*
X247379811Y-140279334D01*
X247488779Y-140324470D01*
X247533915Y-140343166D01*
X247533916Y-140343166D01*
X247916599Y-140419286D01*
X248083401Y-140419286D01*
X248466084Y-140343166D01*
X248620189Y-140279334D01*
X248620192Y-140279331D01*
X248908236Y-140086867D01*
X248910197Y-140089803D01*
X248951399Y-140117333D01*
X249000000Y-140127000D01*
X253000000Y-140127000D01*
X253048601Y-140117333D01*
X253089803Y-140089803D01*
X253091765Y-140086867D01*
X253379808Y-140279331D01*
X253379811Y-140279334D01*
X253488779Y-140324470D01*
X253533915Y-140343166D01*
X253533916Y-140343166D01*
X253916599Y-140419286D01*
X254083401Y-140419286D01*
X254466084Y-140343166D01*
X254620189Y-140279334D01*
X254620192Y-140279331D01*
X254944613Y-140062561D01*
X255062560Y-139944614D01*
X255062561Y-139944611D01*
X255279331Y-139620192D01*
X255279334Y-139620189D01*
X255329767Y-139498432D01*
X255343166Y-139466085D01*
X255343166Y-139466084D01*
X255419286Y-139083401D01*
X255419286Y-139083399D01*
X255427500Y-139042104D01*
X255427500Y-131957896D01*
X255406998Y-131854824D01*
X255343166Y-131533916D01*
X255341710Y-131530399D01*
X255324470Y-131488779D01*
X255279334Y-131379811D01*
X255279331Y-131379808D01*
X255062560Y-131055387D01*
X255062560Y-131055386D01*
X254944613Y-130937439D01*
X254620192Y-130720669D01*
X254620189Y-130720666D01*
X254466084Y-130656834D01*
X254083401Y-130580714D01*
X254083399Y-130580714D01*
X254042104Y-130572500D01*
X252957896Y-130572500D01*
X252916601Y-130580714D01*
X252916599Y-130580714D01*
X252533916Y-130656834D01*
X252533915Y-130656834D01*
X252488779Y-130675530D01*
X252379811Y-130720666D01*
X252379808Y-130720669D01*
X252151829Y-130873000D01*
X249848173Y-130873000D01*
X249620192Y-130720669D01*
X249620189Y-130720666D01*
X249466084Y-130656834D01*
X249083401Y-130580714D01*
X249083399Y-130580714D01*
X249042104Y-130572500D01*
X247957896Y-130572500D01*
X247916601Y-130580714D01*
X247916599Y-130580714D01*
X247533916Y-130656834D01*
X247533915Y-130656834D01*
X247488779Y-130675530D01*
X247379811Y-130720666D01*
X247379808Y-130720669D01*
X247055389Y-130937439D01*
X247055386Y-130937440D01*
X246937439Y-131055387D01*
X246720669Y-131379808D01*
X246720666Y-131379811D01*
X246656834Y-131533916D01*
X246580714Y-131916599D01*
X246580714Y-131916602D01*
X246572500Y-131957897D01*
X192327000Y-131957897D01*
X192327000Y-127635499D01*
X192295217Y-127558767D01*
X192279016Y-127477321D01*
X192232881Y-127408275D01*
X192201097Y-127331542D01*
X192142368Y-127272813D01*
X192096233Y-127203767D01*
X192027187Y-127157632D01*
X191968458Y-127098903D01*
X191891723Y-127067119D01*
X191822678Y-127020984D01*
X191741233Y-127004784D01*
X191664501Y-126973000D01*
X191581447Y-126973000D01*
X191500000Y-126956799D01*
X191418552Y-126973000D01*
X191335499Y-126973000D01*
X191258767Y-127004783D01*
X191177321Y-127020984D01*
X191108275Y-127067119D01*
X191031542Y-127098903D01*
X190972813Y-127157632D01*
X190903767Y-127203767D01*
X190857632Y-127272813D01*
X190827000Y-127303445D01*
X190827000Y-126708238D01*
X192027186Y-125508054D01*
X192096233Y-125461918D01*
X192279016Y-125188364D01*
X192327000Y-124947133D01*
X192327000Y-124947129D01*
X192343200Y-124865686D01*
X192327000Y-124784243D01*
X192327000Y-124135499D01*
X192295217Y-124058767D01*
X192279016Y-123977321D01*
X192232881Y-123908275D01*
X192201097Y-123831542D01*
X192142368Y-123772813D01*
X192096233Y-123703767D01*
X192027187Y-123657632D01*
X191968458Y-123598903D01*
X191963393Y-123596805D01*
X203973000Y-123596805D01*
X203973000Y-124403195D01*
X204281593Y-125148203D01*
X204851797Y-125718407D01*
X205596805Y-126027000D01*
X206403195Y-126027000D01*
X207148203Y-125718407D01*
X207718407Y-125148203D01*
X208027000Y-124403195D01*
X208027000Y-124085499D01*
X233923000Y-124085499D01*
X233923000Y-124414501D01*
X234048903Y-124718458D01*
X234123001Y-124792556D01*
X234123000Y-128857467D01*
X234048903Y-128931564D01*
X233923000Y-129235521D01*
X233923000Y-129564523D01*
X234048903Y-129868480D01*
X234281542Y-130101119D01*
X234585499Y-130227022D01*
X234914501Y-130227022D01*
X235218458Y-130101119D01*
X235451097Y-129868480D01*
X235577000Y-129564523D01*
X235577000Y-129235521D01*
X235451097Y-128931564D01*
X235377000Y-128857467D01*
X235377000Y-125864932D01*
X248639844Y-125864932D01*
X248639844Y-126193934D01*
X248765747Y-126497891D01*
X248998386Y-126730530D01*
X249302343Y-126856433D01*
X249631345Y-126856433D01*
X249935302Y-126730530D01*
X250063832Y-126602000D01*
X251382445Y-126602000D01*
X251531542Y-126751097D01*
X251835499Y-126877000D01*
X252164501Y-126877000D01*
X252468458Y-126751097D01*
X252701097Y-126518458D01*
X252827000Y-126214501D01*
X252827000Y-125885499D01*
X252701097Y-125581542D01*
X252468458Y-125348903D01*
X252164501Y-125223000D01*
X251835499Y-125223000D01*
X251531542Y-125348903D01*
X251382445Y-125498000D01*
X250104966Y-125498000D01*
X249935302Y-125328336D01*
X249631345Y-125202433D01*
X249302343Y-125202433D01*
X248998386Y-125328336D01*
X248765747Y-125560975D01*
X248639844Y-125864932D01*
X235377000Y-125864932D01*
X235377000Y-124835499D01*
X244173000Y-124835499D01*
X244173000Y-125164501D01*
X244298903Y-125468458D01*
X244531542Y-125701097D01*
X244835499Y-125827000D01*
X245164501Y-125827000D01*
X245468458Y-125701097D01*
X245701097Y-125468458D01*
X245827000Y-125164501D01*
X245827000Y-124835499D01*
X245701097Y-124531542D01*
X245468458Y-124298903D01*
X245164501Y-124173000D01*
X244835499Y-124173000D01*
X244531542Y-124298903D01*
X244298903Y-124531542D01*
X244173000Y-124835499D01*
X235377000Y-124835499D01*
X235377000Y-124792555D01*
X235451097Y-124718458D01*
X235577000Y-124414501D01*
X235577000Y-124085499D01*
X235451097Y-123781542D01*
X235218458Y-123548903D01*
X234914501Y-123423000D01*
X234585499Y-123423000D01*
X234281542Y-123548903D01*
X234048903Y-123781542D01*
X233923000Y-124085499D01*
X208027000Y-124085499D01*
X208027000Y-123596805D01*
X207718407Y-122851797D01*
X207148203Y-122281593D01*
X206403195Y-121973000D01*
X205596805Y-121973000D01*
X204851797Y-122281593D01*
X204281593Y-122851797D01*
X203973000Y-123596805D01*
X191963393Y-123596805D01*
X191891723Y-123567119D01*
X191822678Y-123520984D01*
X191741233Y-123504784D01*
X191664501Y-123473000D01*
X191581447Y-123473000D01*
X191500000Y-123456799D01*
X191418552Y-123473000D01*
X191335499Y-123473000D01*
X191258767Y-123504783D01*
X191177321Y-123520984D01*
X191108275Y-123567119D01*
X191031542Y-123598903D01*
X190972813Y-123657632D01*
X190903767Y-123703767D01*
X190857632Y-123772813D01*
X190798903Y-123831542D01*
X190767119Y-123908277D01*
X190720984Y-123977322D01*
X190704784Y-124058766D01*
X190673000Y-124135499D01*
X190673000Y-124523130D01*
X189472819Y-125723313D01*
X189403767Y-125769452D01*
X189220984Y-126043007D01*
X189173000Y-126284238D01*
X189173000Y-126284241D01*
X189156800Y-126365685D01*
X189173000Y-126447129D01*
X189173001Y-131857445D01*
X188857447Y-132173000D01*
X188749661Y-132173000D01*
X188451685Y-131875024D01*
X188355940Y-131835365D01*
X188600000Y-131835365D01*
X188766607Y-131802225D01*
X188907850Y-131707850D01*
X189002225Y-131566607D01*
X189035365Y-131400000D01*
X189035365Y-129600000D01*
X189002225Y-129433393D01*
X188907850Y-129292150D01*
X188766607Y-129197775D01*
X188600000Y-129164635D01*
X186800000Y-129164635D01*
X186633393Y-129197775D01*
X186492150Y-129292150D01*
X186397775Y-129433393D01*
X186364635Y-129600000D01*
X180927500Y-129600000D01*
X180927500Y-121100000D01*
X186364635Y-121100000D01*
X186364635Y-122900000D01*
X186397775Y-123066607D01*
X186492150Y-123207850D01*
X186633393Y-123302225D01*
X186800000Y-123335365D01*
X187044060Y-123335365D01*
X186948315Y-123375024D01*
X186575024Y-123748315D01*
X186373000Y-124236043D01*
X186373000Y-124763957D01*
X186575024Y-125251685D01*
X186948315Y-125624976D01*
X187436043Y-125827000D01*
X187963957Y-125827000D01*
X188451685Y-125624976D01*
X188749661Y-125327000D01*
X189118556Y-125327000D01*
X189200000Y-125343200D01*
X189281444Y-125327000D01*
X189281448Y-125327000D01*
X189522679Y-125279016D01*
X189796233Y-125096233D01*
X189842372Y-125027181D01*
X190327183Y-124542371D01*
X190396233Y-124496233D01*
X190579016Y-124222679D01*
X190627000Y-123981448D01*
X190627000Y-123981444D01*
X190643200Y-123900001D01*
X190627000Y-123818558D01*
X190627000Y-119335499D01*
X190595217Y-119258767D01*
X190579016Y-119177321D01*
X190532881Y-119108275D01*
X190501097Y-119031542D01*
X190442368Y-118972813D01*
X190396233Y-118903767D01*
X190327187Y-118857632D01*
X190268458Y-118798903D01*
X190191723Y-118767119D01*
X190122678Y-118720984D01*
X190041233Y-118704784D01*
X189964501Y-118673000D01*
X189881447Y-118673000D01*
X189800000Y-118656799D01*
X189718552Y-118673000D01*
X189635499Y-118673000D01*
X189558767Y-118704783D01*
X189477321Y-118720984D01*
X189408275Y-118767119D01*
X189331542Y-118798903D01*
X189272813Y-118857632D01*
X189203767Y-118903767D01*
X189157632Y-118972813D01*
X189098903Y-119031542D01*
X189067119Y-119108277D01*
X189020984Y-119177322D01*
X189004784Y-119258766D01*
X188973000Y-119335499D01*
X188973000Y-120889655D01*
X188907850Y-120792150D01*
X188766607Y-120697775D01*
X188600000Y-120664635D01*
X186800000Y-120664635D01*
X186633393Y-120697775D01*
X186492150Y-120792150D01*
X186397775Y-120933393D01*
X186364635Y-121100000D01*
X180927500Y-121100000D01*
X180927500Y-112600000D01*
X186364635Y-112600000D01*
X186364635Y-114400000D01*
X186397775Y-114566607D01*
X186492150Y-114707850D01*
X186633393Y-114802225D01*
X186800000Y-114835365D01*
X187044060Y-114835365D01*
X186948315Y-114875024D01*
X186575024Y-115248315D01*
X186373000Y-115736043D01*
X186373000Y-116263957D01*
X186575024Y-116751685D01*
X186948315Y-117124976D01*
X187436043Y-117327000D01*
X187963957Y-117327000D01*
X188451685Y-117124976D01*
X188741162Y-116835499D01*
X248173000Y-116835499D01*
X248173000Y-117164501D01*
X248298903Y-117468458D01*
X248531542Y-117701097D01*
X248835499Y-117827000D01*
X249164501Y-117827000D01*
X249468458Y-117701097D01*
X249701097Y-117468458D01*
X249827000Y-117164501D01*
X249827000Y-116835499D01*
X251173000Y-116835499D01*
X251173000Y-117164501D01*
X251298903Y-117468458D01*
X251531542Y-117701097D01*
X251835499Y-117827000D01*
X252164501Y-117827000D01*
X252468458Y-117701097D01*
X252701097Y-117468458D01*
X252827000Y-117164501D01*
X252827000Y-116835499D01*
X252701097Y-116531542D01*
X252468458Y-116298903D01*
X252164501Y-116173000D01*
X251835499Y-116173000D01*
X251531542Y-116298903D01*
X251298903Y-116531542D01*
X251173000Y-116835499D01*
X249827000Y-116835499D01*
X249701097Y-116531542D01*
X249468458Y-116298903D01*
X249164501Y-116173000D01*
X248835499Y-116173000D01*
X248531542Y-116298903D01*
X248298903Y-116531542D01*
X248173000Y-116835499D01*
X188741162Y-116835499D01*
X188824976Y-116751685D01*
X189027000Y-116263957D01*
X189027000Y-115736043D01*
X188824976Y-115248315D01*
X188451685Y-114875024D01*
X188355940Y-114835365D01*
X188600000Y-114835365D01*
X188766607Y-114802225D01*
X188907850Y-114707850D01*
X189002225Y-114566607D01*
X189035365Y-114400000D01*
X189035365Y-113735499D01*
X246023000Y-113735499D01*
X246023000Y-114064501D01*
X246148903Y-114368458D01*
X246381542Y-114601097D01*
X246685499Y-114727000D01*
X247014501Y-114727000D01*
X247318458Y-114601097D01*
X247442555Y-114477000D01*
X253457445Y-114477000D01*
X253581542Y-114601097D01*
X253885499Y-114727000D01*
X254214501Y-114727000D01*
X254518458Y-114601097D01*
X254751097Y-114368458D01*
X254877000Y-114064501D01*
X254877000Y-113735499D01*
X254751097Y-113431542D01*
X254518458Y-113198903D01*
X254214501Y-113073000D01*
X253885499Y-113073000D01*
X253581542Y-113198903D01*
X253457445Y-113323000D01*
X247442555Y-113323000D01*
X247318458Y-113198903D01*
X247014501Y-113073000D01*
X246685499Y-113073000D01*
X246381542Y-113198903D01*
X246148903Y-113431542D01*
X246023000Y-113735499D01*
X189035365Y-113735499D01*
X189035365Y-112600000D01*
X189002225Y-112433393D01*
X188907850Y-112292150D01*
X188766607Y-112197775D01*
X188600000Y-112164635D01*
X186800000Y-112164635D01*
X186633393Y-112197775D01*
X186492150Y-112292150D01*
X186397775Y-112433393D01*
X186364635Y-112600000D01*
X180927500Y-112600000D01*
X180927500Y-103100000D01*
X186364635Y-103100000D01*
X186364635Y-104900000D01*
X186397775Y-105066607D01*
X186492150Y-105207850D01*
X186633393Y-105302225D01*
X186800000Y-105335365D01*
X187044060Y-105335365D01*
X186948315Y-105375024D01*
X186575024Y-105748315D01*
X186373000Y-106236043D01*
X186373000Y-106763957D01*
X186575024Y-107251685D01*
X186948315Y-107624976D01*
X187436043Y-107827000D01*
X187963957Y-107827000D01*
X188451685Y-107624976D01*
X188479856Y-107596805D01*
X252973000Y-107596805D01*
X252973000Y-108403195D01*
X253281593Y-109148203D01*
X253851797Y-109718407D01*
X254596805Y-110027000D01*
X255403195Y-110027000D01*
X256148203Y-109718407D01*
X256718407Y-109148203D01*
X257027000Y-108403195D01*
X257027000Y-107596805D01*
X256718407Y-106851797D01*
X256148203Y-106281593D01*
X255403195Y-105973000D01*
X254596805Y-105973000D01*
X253851797Y-106281593D01*
X253281593Y-106851797D01*
X252973000Y-107596805D01*
X188479856Y-107596805D01*
X188824976Y-107251685D01*
X189027000Y-106763957D01*
X189027000Y-106236043D01*
X188824976Y-105748315D01*
X188451685Y-105375024D01*
X188355940Y-105335365D01*
X188600000Y-105335365D01*
X188766607Y-105302225D01*
X188907850Y-105207850D01*
X189002225Y-105066607D01*
X189035365Y-104900000D01*
X189035365Y-103100000D01*
X189002225Y-102933393D01*
X188907850Y-102792150D01*
X188766607Y-102697775D01*
X188600000Y-102664635D01*
X186800000Y-102664635D01*
X186633393Y-102697775D01*
X186492150Y-102792150D01*
X186397775Y-102933393D01*
X186364635Y-103100000D01*
X180927500Y-103100000D01*
X180927500Y-94600000D01*
X186364635Y-94600000D01*
X186364635Y-96400000D01*
X186397775Y-96566607D01*
X186492150Y-96707850D01*
X186633393Y-96802225D01*
X186800000Y-96835365D01*
X187044060Y-96835365D01*
X186948315Y-96875024D01*
X186575024Y-97248315D01*
X186373000Y-97736043D01*
X186373000Y-98263957D01*
X186575024Y-98751685D01*
X186948315Y-99124976D01*
X187436043Y-99327000D01*
X187963957Y-99327000D01*
X188451685Y-99124976D01*
X188824976Y-98751685D01*
X189027000Y-98263957D01*
X189027000Y-97736043D01*
X188824976Y-97248315D01*
X188451685Y-96875024D01*
X188355940Y-96835365D01*
X188600000Y-96835365D01*
X188766607Y-96802225D01*
X188907850Y-96707850D01*
X189002225Y-96566607D01*
X189035365Y-96400000D01*
X189035365Y-94600000D01*
X189002225Y-94433393D01*
X188907850Y-94292150D01*
X188766607Y-94197775D01*
X188600000Y-94164635D01*
X186800000Y-94164635D01*
X186633393Y-94197775D01*
X186492150Y-94292150D01*
X186397775Y-94433393D01*
X186364635Y-94600000D01*
X180927500Y-94600000D01*
X180927500Y-92835499D01*
X228173000Y-92835499D01*
X228173000Y-93164501D01*
X228298903Y-93468458D01*
X228531542Y-93701097D01*
X228835499Y-93827000D01*
X229164501Y-93827000D01*
X229468458Y-93701097D01*
X229701097Y-93468458D01*
X229827000Y-93164501D01*
X229827000Y-92835499D01*
X229777000Y-92714788D01*
X229777000Y-81242515D01*
X229801057Y-81218458D01*
X229926960Y-80914501D01*
X229926960Y-80585499D01*
X229801057Y-80281542D01*
X229568418Y-80048903D01*
X229264461Y-79923000D01*
X228935459Y-79923000D01*
X228631502Y-80048903D01*
X228398863Y-80281542D01*
X228323099Y-80464453D01*
X228268083Y-80546790D01*
X228207778Y-80849960D01*
X228223001Y-80926490D01*
X228223000Y-92714788D01*
X228173000Y-92835499D01*
X180927500Y-92835499D01*
X180927500Y-86100000D01*
X186364635Y-86100000D01*
X186364635Y-87900000D01*
X186397775Y-88066607D01*
X186492150Y-88207850D01*
X186633393Y-88302225D01*
X186800000Y-88335365D01*
X187044060Y-88335365D01*
X186948315Y-88375024D01*
X186575024Y-88748315D01*
X186373000Y-89236043D01*
X186373000Y-89763957D01*
X186575024Y-90251685D01*
X186948315Y-90624976D01*
X187436043Y-90827000D01*
X187963957Y-90827000D01*
X188451685Y-90624976D01*
X188824976Y-90251685D01*
X189027000Y-89763957D01*
X189027000Y-89236043D01*
X188824976Y-88748315D01*
X188451685Y-88375024D01*
X188355940Y-88335365D01*
X188600000Y-88335365D01*
X188766607Y-88302225D01*
X188907850Y-88207850D01*
X189002225Y-88066607D01*
X189035365Y-87900000D01*
X189035365Y-86100000D01*
X189002225Y-85933393D01*
X188907850Y-85792150D01*
X188766607Y-85697775D01*
X188600000Y-85664635D01*
X186800000Y-85664635D01*
X186633393Y-85697775D01*
X186492150Y-85792150D01*
X186397775Y-85933393D01*
X186364635Y-86100000D01*
X180927500Y-86100000D01*
X180927500Y-77600000D01*
X186364635Y-77600000D01*
X186364635Y-79400000D01*
X186397775Y-79566607D01*
X186492150Y-79707850D01*
X186633393Y-79802225D01*
X186800000Y-79835365D01*
X187044060Y-79835365D01*
X186948315Y-79875024D01*
X186575024Y-80248315D01*
X186373000Y-80736043D01*
X186373000Y-81263957D01*
X186575024Y-81751685D01*
X186948315Y-82124976D01*
X187436043Y-82327000D01*
X187963957Y-82327000D01*
X188451685Y-82124976D01*
X188824976Y-81751685D01*
X189027000Y-81263957D01*
X189027000Y-80736043D01*
X188824976Y-80248315D01*
X188451685Y-79875024D01*
X188355940Y-79835365D01*
X188600000Y-79835365D01*
X188766607Y-79802225D01*
X188907850Y-79707850D01*
X189002225Y-79566607D01*
X189035365Y-79400000D01*
X189035365Y-77600000D01*
X189002225Y-77433393D01*
X188907850Y-77292150D01*
X188766607Y-77197775D01*
X188600000Y-77164635D01*
X186800000Y-77164635D01*
X186633393Y-77197775D01*
X186492150Y-77292150D01*
X186397775Y-77433393D01*
X186364635Y-77600000D01*
X180927500Y-77600000D01*
X180927500Y-75020343D01*
X181002879Y-74230279D01*
X181042035Y-74096805D01*
X196973000Y-74096805D01*
X196973000Y-74903195D01*
X197281593Y-75648203D01*
X197851797Y-76218407D01*
X198596805Y-76527000D01*
X199403195Y-76527000D01*
X200148203Y-76218407D01*
X200718407Y-75648203D01*
X201027000Y-74903195D01*
X201027000Y-74096805D01*
X200718407Y-73351797D01*
X200148203Y-72781593D01*
X199403195Y-72473000D01*
X198596805Y-72473000D01*
X197851797Y-72781593D01*
X197281593Y-73351797D01*
X196973000Y-74096805D01*
X181042035Y-74096805D01*
X181220544Y-73488326D01*
X181574582Y-72800918D01*
X182052216Y-72192864D01*
X182636217Y-71686093D01*
X183305505Y-71298901D01*
X184035934Y-71045253D01*
X184816202Y-70932119D01*
X185005206Y-70927500D01*
X200969547Y-70927500D01*
X201440122Y-70994891D01*
X201440122Y-70994891D01*
G37*
X201440122Y-70994891D02*
X201844867Y-71178918D01*
X202181692Y-71469145D01*
X202423521Y-71842242D01*
X202555150Y-72282377D01*
X202572501Y-72515869D01*
X202572500Y-76542103D01*
X202575614Y-76557757D01*
X202595644Y-76827300D01*
X202605007Y-76869889D01*
X202610926Y-76913095D01*
X202612392Y-76918108D01*
X202774869Y-77461393D01*
X202799202Y-77514055D01*
X202822896Y-77567024D01*
X202825710Y-77571424D01*
X203134138Y-78047270D01*
X203172283Y-78090996D01*
X203209882Y-78135175D01*
X203213818Y-78138609D01*
X203643403Y-78508764D01*
X203692324Y-78540050D01*
X203740775Y-78571877D01*
X203745516Y-78574068D01*
X204261725Y-78808774D01*
X204317431Y-78825063D01*
X204372897Y-78842021D01*
X204378061Y-78842793D01*
X204378063Y-78842793D01*
X204927940Y-78921541D01*
X204957896Y-78927500D01*
X254979657Y-78927500D01*
X255769721Y-79002879D01*
X256511674Y-79220544D01*
X257199082Y-79574582D01*
X257807136Y-80052216D01*
X258313907Y-80636217D01*
X258701099Y-81305505D01*
X258954747Y-82035934D01*
X259067881Y-82816202D01*
X259072501Y-83005247D01*
X259072500Y-144979657D01*
X258997121Y-145769721D01*
X258779456Y-146511674D01*
X258425419Y-147199080D01*
X257947785Y-147807137D01*
X257363783Y-148313906D01*
X256694495Y-148701099D01*
X255964066Y-148954747D01*
X255183798Y-149067881D01*
X254994794Y-149072500D01*
X185020343Y-149072500D01*
X184230279Y-148997121D01*
X183488326Y-148779456D01*
X182800920Y-148425419D01*
X182192863Y-147947785D01*
X181686094Y-147363783D01*
X181298901Y-146694495D01*
X181045253Y-145964066D01*
X180932119Y-145183798D01*
X180927500Y-144994794D01*
X180927500Y-144529750D01*
X193823000Y-144529750D01*
X193823000Y-145884935D01*
X193888007Y-146041876D01*
X194008124Y-146161993D01*
X194165064Y-146227000D01*
X195770250Y-146227000D01*
X195877000Y-146120250D01*
X195877000Y-144423000D01*
X196123000Y-144423000D01*
X196123000Y-146120250D01*
X196229750Y-146227000D01*
X197834936Y-146227000D01*
X197991876Y-146161993D01*
X198111993Y-146041876D01*
X198177000Y-145884935D01*
X198177000Y-145700000D01*
X206964635Y-145700000D01*
X206964635Y-146900000D01*
X206997775Y-147066607D01*
X207092150Y-147207850D01*
X207233393Y-147302225D01*
X207400000Y-147335365D01*
X207474058Y-147335365D01*
X207480028Y-147365379D01*
X207502553Y-147399090D01*
X207602031Y-147547970D01*
X207648121Y-147578766D01*
X208921233Y-148851879D01*
X208952030Y-148897970D01*
X209122993Y-149012203D01*
X209134620Y-149019972D01*
X209349999Y-149062814D01*
X209404364Y-149052000D01*
X247945635Y-149052000D01*
X248000000Y-149062814D01*
X248054365Y-149052000D01*
X248215380Y-149019972D01*
X248397970Y-148897970D01*
X248428768Y-148851877D01*
X253177467Y-144103178D01*
X252973000Y-144596805D01*
X252973000Y-145403195D01*
X253281593Y-146148203D01*
X253851797Y-146718407D01*
X254596805Y-147027000D01*
X255403195Y-147027000D01*
X256148203Y-146718407D01*
X256718407Y-146148203D01*
X257027000Y-145403195D01*
X257027000Y-144596805D01*
X256718407Y-143851797D01*
X256148203Y-143281593D01*
X255403195Y-142973000D01*
X254596805Y-142973000D01*
X254103179Y-143177467D01*
X256351880Y-140928766D01*
X256397970Y-140897970D01*
X256519972Y-140715380D01*
X256552000Y-140554365D01*
X256552000Y-140554364D01*
X256562814Y-140500001D01*
X256552000Y-140445636D01*
X256552000Y-137228645D01*
X258351880Y-135428766D01*
X258397970Y-135397970D01*
X258519972Y-135215380D01*
X258552000Y-135054365D01*
X258552000Y-135054364D01*
X258562814Y-135000001D01*
X258552000Y-134945636D01*
X258552000Y-102067025D01*
X258562814Y-102012660D01*
X258519972Y-101797281D01*
X258519972Y-101797280D01*
X258397970Y-101614690D01*
X258351876Y-101583891D01*
X256316105Y-99548120D01*
X256316103Y-99548117D01*
X256314340Y-99546354D01*
X256314340Y-99335499D01*
X256188437Y-99031542D01*
X255955798Y-98798903D01*
X255651841Y-98673000D01*
X255643001Y-98673000D01*
X257867827Y-96448174D01*
X257916006Y-96415982D01*
X258043534Y-96225122D01*
X258077012Y-96056817D01*
X258077012Y-96056816D01*
X258088316Y-95999989D01*
X258077012Y-95943161D01*
X258077012Y-83892555D01*
X258201109Y-83768458D01*
X258327012Y-83464501D01*
X258327012Y-83135499D01*
X258201109Y-82831542D01*
X257968470Y-82598903D01*
X257664513Y-82473000D01*
X257335511Y-82473000D01*
X257031554Y-82598903D01*
X256798915Y-82831542D01*
X256673012Y-83135499D01*
X256673012Y-83464501D01*
X256798915Y-83768458D01*
X256901714Y-83871257D01*
X256664501Y-83773000D01*
X256335499Y-83773000D01*
X256031542Y-83898903D01*
X255798903Y-84131542D01*
X255673000Y-84435499D01*
X255673000Y-84764501D01*
X255798903Y-85068458D01*
X255851693Y-85121248D01*
X255614501Y-85023000D01*
X255285499Y-85023000D01*
X254981542Y-85148903D01*
X254748903Y-85381542D01*
X254623000Y-85685499D01*
X254623000Y-86014501D01*
X254748903Y-86318458D01*
X254873001Y-86442556D01*
X254873001Y-86610998D01*
X253732188Y-87751812D01*
X253684006Y-87784006D01*
X253556478Y-87974867D01*
X253540245Y-88056478D01*
X253511696Y-88200000D01*
X253523000Y-88256828D01*
X253523001Y-95160998D01*
X249661000Y-99023000D01*
X233156828Y-99023000D01*
X233100000Y-99011696D01*
X233043172Y-99023000D01*
X233043171Y-99023000D01*
X232874866Y-99056478D01*
X232684006Y-99184006D01*
X232651815Y-99232184D01*
X231632188Y-100251812D01*
X231584006Y-100284006D01*
X231456478Y-100474867D01*
X231445205Y-100531542D01*
X231411696Y-100700000D01*
X231423000Y-100756828D01*
X231423001Y-102007444D01*
X231298903Y-102131542D01*
X231173000Y-102435499D01*
X231173000Y-102764501D01*
X231298903Y-103068458D01*
X231531542Y-103301097D01*
X231835499Y-103427000D01*
X232164501Y-103427000D01*
X232468458Y-103301097D01*
X232701097Y-103068458D01*
X232775005Y-102890028D01*
X232848913Y-103068458D01*
X233081552Y-103301097D01*
X233385509Y-103427000D01*
X233714511Y-103427000D01*
X234018468Y-103301097D01*
X234169565Y-103150000D01*
X235464635Y-103150000D01*
X235464635Y-104850000D01*
X235497775Y-105016607D01*
X235592150Y-105157850D01*
X235733393Y-105252225D01*
X235900000Y-105285365D01*
X237600000Y-105285365D01*
X237766607Y-105252225D01*
X237907850Y-105157850D01*
X238002225Y-105016607D01*
X238035365Y-104850000D01*
X238035365Y-104123002D01*
X238125676Y-104123002D01*
X238053817Y-104320325D01*
X238270499Y-104769008D01*
X238642391Y-105100617D01*
X238969676Y-105236173D01*
X239167000Y-105163768D01*
X239167000Y-104123000D01*
X239147000Y-104123000D01*
X239147000Y-103877000D01*
X239167000Y-103877000D01*
X239167000Y-102836232D01*
X238969676Y-102763827D01*
X238642391Y-102899383D01*
X238270499Y-103230992D01*
X238053817Y-103679675D01*
X238125676Y-103876998D01*
X238035365Y-103876998D01*
X238035365Y-103150000D01*
X238002225Y-102983393D01*
X237907850Y-102842150D01*
X237766607Y-102747775D01*
X237600000Y-102714635D01*
X235900000Y-102714635D01*
X235733393Y-102747775D01*
X235592150Y-102842150D01*
X235497775Y-102983393D01*
X235464635Y-103150000D01*
X234169565Y-103150000D01*
X234251107Y-103068458D01*
X234377010Y-102764501D01*
X234377010Y-102435499D01*
X234251107Y-102131542D01*
X234127010Y-102007445D01*
X234127010Y-101688990D01*
X234539001Y-101277000D01*
X243736999Y-101277000D01*
X242235381Y-102778618D01*
X241955769Y-102723000D01*
X241704231Y-102723000D01*
X241331740Y-102797093D01*
X240909335Y-103079335D01*
X240627093Y-103501740D01*
X240552450Y-103876998D01*
X240454324Y-103876998D01*
X240526183Y-103679675D01*
X240309501Y-103230992D01*
X239937609Y-102899383D01*
X239610324Y-102763827D01*
X239413000Y-102836232D01*
X239413000Y-103877000D01*
X239433000Y-103877000D01*
X239433000Y-104123000D01*
X239413000Y-104123000D01*
X239413000Y-105163768D01*
X239610324Y-105236173D01*
X239937609Y-105100617D01*
X240309501Y-104769008D01*
X240526183Y-104320325D01*
X240454324Y-104123002D01*
X240552450Y-104123002D01*
X240627093Y-104498260D01*
X240909335Y-104920665D01*
X241331740Y-105202907D01*
X241704231Y-105277000D01*
X241955769Y-105277000D01*
X242328260Y-105202907D01*
X242750665Y-104920665D01*
X243032907Y-104498260D01*
X243100000Y-104160960D01*
X243167093Y-104498260D01*
X243449335Y-104920665D01*
X243871740Y-105202907D01*
X244244231Y-105277000D01*
X244495769Y-105277000D01*
X244868260Y-105202907D01*
X245290665Y-104920665D01*
X245572907Y-104498260D01*
X245640000Y-104160960D01*
X245707093Y-104498260D01*
X245989335Y-104920665D01*
X246411740Y-105202907D01*
X246784231Y-105277000D01*
X247035769Y-105277000D01*
X247408260Y-105202907D01*
X247830665Y-104920665D01*
X248112907Y-104498260D01*
X248180000Y-104160960D01*
X248247093Y-104498260D01*
X248529335Y-104920665D01*
X248951740Y-105202907D01*
X249324231Y-105277000D01*
X249575769Y-105277000D01*
X249948260Y-105202907D01*
X250370665Y-104920665D01*
X250652907Y-104498260D01*
X250752017Y-104000000D01*
X250652907Y-103501740D01*
X250370665Y-103079335D01*
X249948260Y-102797093D01*
X249575769Y-102723000D01*
X249324231Y-102723000D01*
X248951740Y-102797093D01*
X248529335Y-103079335D01*
X248247093Y-103501740D01*
X248180000Y-103839040D01*
X248112907Y-103501740D01*
X247830665Y-103079335D01*
X247408260Y-102797093D01*
X247035769Y-102723000D01*
X246784231Y-102723000D01*
X246411740Y-102797093D01*
X246342931Y-102843070D01*
X246908979Y-102277022D01*
X251743150Y-102277022D01*
X251799978Y-102288326D01*
X251856806Y-102277022D01*
X251856807Y-102277022D01*
X252025112Y-102243544D01*
X252215972Y-102116016D01*
X252248166Y-102067834D01*
X254660340Y-99655660D01*
X254660340Y-99664501D01*
X254786243Y-99968458D01*
X255018882Y-100201097D01*
X255322839Y-100327000D01*
X255533694Y-100327000D01*
X255535457Y-100328763D01*
X255535460Y-100328765D01*
X257448001Y-102241306D01*
X257448000Y-134771354D01*
X255648121Y-136571234D01*
X255602031Y-136602030D01*
X255571236Y-136648119D01*
X255480028Y-136784621D01*
X255437186Y-137000000D01*
X255448001Y-137054370D01*
X255448000Y-140271354D01*
X247771355Y-147948000D01*
X209578646Y-147948000D01*
X208866275Y-147235629D01*
X208907850Y-147207850D01*
X208929574Y-147175338D01*
X209295717Y-147327000D01*
X209704283Y-147327000D01*
X210081749Y-147170648D01*
X210370648Y-146881749D01*
X210516451Y-146529750D01*
X213473000Y-146529750D01*
X213473000Y-146984936D01*
X213538007Y-147141876D01*
X213658124Y-147261993D01*
X213815065Y-147327000D01*
X214270250Y-147327000D01*
X214377000Y-147220250D01*
X214377000Y-146423000D01*
X213579750Y-146423000D01*
X213473000Y-146529750D01*
X210516451Y-146529750D01*
X210527000Y-146504283D01*
X210527000Y-146095717D01*
X210370648Y-145718251D01*
X210267461Y-145615064D01*
X213473000Y-145615064D01*
X213473000Y-146070250D01*
X213579750Y-146177000D01*
X214377000Y-146177000D01*
X214377000Y-145379750D01*
X214623000Y-145379750D01*
X214623000Y-146177000D01*
X214643000Y-146177000D01*
X214643000Y-146423000D01*
X214623000Y-146423000D01*
X214623000Y-147220250D01*
X214729750Y-147327000D01*
X215184935Y-147327000D01*
X215341876Y-147261993D01*
X215428836Y-147175033D01*
X215795717Y-147327000D01*
X216204283Y-147327000D01*
X216581749Y-147170648D01*
X216750000Y-147002397D01*
X216918251Y-147170648D01*
X217295717Y-147327000D01*
X217704283Y-147327000D01*
X218081749Y-147170648D01*
X218370648Y-146881749D01*
X218516451Y-146529750D01*
X221473000Y-146529750D01*
X221473000Y-146984936D01*
X221538007Y-147141876D01*
X221658124Y-147261993D01*
X221815065Y-147327000D01*
X222270250Y-147327000D01*
X222377000Y-147220250D01*
X222377000Y-146423000D01*
X221579750Y-146423000D01*
X221473000Y-146529750D01*
X218516451Y-146529750D01*
X218527000Y-146504283D01*
X218527000Y-146095717D01*
X218370648Y-145718251D01*
X218267461Y-145615064D01*
X221473000Y-145615064D01*
X221473000Y-146070250D01*
X221579750Y-146177000D01*
X222377000Y-146177000D01*
X222377000Y-145379750D01*
X222623000Y-145379750D01*
X222623000Y-146177000D01*
X222643000Y-146177000D01*
X222643000Y-146423000D01*
X222623000Y-146423000D01*
X222623000Y-147220250D01*
X222729750Y-147327000D01*
X223184935Y-147327000D01*
X223341876Y-147261993D01*
X223428836Y-147175033D01*
X223795717Y-147327000D01*
X224204283Y-147327000D01*
X224581749Y-147170648D01*
X224750000Y-147002397D01*
X224918251Y-147170648D01*
X225295717Y-147327000D01*
X225704283Y-147327000D01*
X226081749Y-147170648D01*
X226370648Y-146881749D01*
X226516451Y-146529750D01*
X229473000Y-146529750D01*
X229473000Y-146984936D01*
X229538007Y-147141876D01*
X229658124Y-147261993D01*
X229815065Y-147327000D01*
X230270250Y-147327000D01*
X230377000Y-147220250D01*
X230377000Y-146423000D01*
X229579750Y-146423000D01*
X229473000Y-146529750D01*
X226516451Y-146529750D01*
X226527000Y-146504283D01*
X226527000Y-146095717D01*
X226370648Y-145718251D01*
X226267461Y-145615064D01*
X229473000Y-145615064D01*
X229473000Y-146070250D01*
X229579750Y-146177000D01*
X230377000Y-146177000D01*
X230377000Y-145379750D01*
X230623000Y-145379750D01*
X230623000Y-146177000D01*
X230643000Y-146177000D01*
X230643000Y-146423000D01*
X230623000Y-146423000D01*
X230623000Y-147220250D01*
X230729750Y-147327000D01*
X231184935Y-147327000D01*
X231341876Y-147261993D01*
X231428836Y-147175033D01*
X231795717Y-147327000D01*
X232204283Y-147327000D01*
X232581749Y-147170648D01*
X232750000Y-147002397D01*
X232918251Y-147170648D01*
X233295717Y-147327000D01*
X233704283Y-147327000D01*
X234081749Y-147170648D01*
X234370648Y-146881749D01*
X234516451Y-146529750D01*
X237473000Y-146529750D01*
X237473000Y-146984936D01*
X237538007Y-147141876D01*
X237658124Y-147261993D01*
X237815065Y-147327000D01*
X238270250Y-147327000D01*
X238377000Y-147220250D01*
X238377000Y-146423000D01*
X237579750Y-146423000D01*
X237473000Y-146529750D01*
X234516451Y-146529750D01*
X234527000Y-146504283D01*
X234527000Y-146095717D01*
X234370648Y-145718251D01*
X234267461Y-145615064D01*
X237473000Y-145615064D01*
X237473000Y-146070250D01*
X237579750Y-146177000D01*
X238377000Y-146177000D01*
X238377000Y-145379750D01*
X238623000Y-145379750D01*
X238623000Y-146177000D01*
X238643000Y-146177000D01*
X238643000Y-146423000D01*
X238623000Y-146423000D01*
X238623000Y-147220250D01*
X238729750Y-147327000D01*
X239184935Y-147327000D01*
X239341876Y-147261993D01*
X239428836Y-147175033D01*
X239795717Y-147327000D01*
X240204283Y-147327000D01*
X240581749Y-147170648D01*
X240750000Y-147002397D01*
X240918251Y-147170648D01*
X241295717Y-147327000D01*
X241704283Y-147327000D01*
X242081749Y-147170648D01*
X242370648Y-146881749D01*
X242527000Y-146504283D01*
X242527000Y-146095717D01*
X242370648Y-145718251D01*
X242081749Y-145429352D01*
X241704283Y-145273000D01*
X241295717Y-145273000D01*
X240918251Y-145429352D01*
X240750000Y-145597603D01*
X240581749Y-145429352D01*
X240204283Y-145273000D01*
X239795717Y-145273000D01*
X239428836Y-145424967D01*
X239341876Y-145338007D01*
X239184935Y-145273000D01*
X238729750Y-145273000D01*
X238623000Y-145379750D01*
X238377000Y-145379750D01*
X238270250Y-145273000D01*
X237815065Y-145273000D01*
X237658124Y-145338007D01*
X237538007Y-145458124D01*
X237473000Y-145615064D01*
X234267461Y-145615064D01*
X234081749Y-145429352D01*
X233704283Y-145273000D01*
X233295717Y-145273000D01*
X232918251Y-145429352D01*
X232750000Y-145597603D01*
X232581749Y-145429352D01*
X232204283Y-145273000D01*
X231795717Y-145273000D01*
X231428836Y-145424967D01*
X231341876Y-145338007D01*
X231184935Y-145273000D01*
X230729750Y-145273000D01*
X230623000Y-145379750D01*
X230377000Y-145379750D01*
X230270250Y-145273000D01*
X229815065Y-145273000D01*
X229658124Y-145338007D01*
X229538007Y-145458124D01*
X229473000Y-145615064D01*
X226267461Y-145615064D01*
X226081749Y-145429352D01*
X225704283Y-145273000D01*
X225295717Y-145273000D01*
X224918251Y-145429352D01*
X224750000Y-145597603D01*
X224581749Y-145429352D01*
X224204283Y-145273000D01*
X223795717Y-145273000D01*
X223428836Y-145424967D01*
X223341876Y-145338007D01*
X223184935Y-145273000D01*
X222729750Y-145273000D01*
X222623000Y-145379750D01*
X222377000Y-145379750D01*
X222270250Y-145273000D01*
X221815065Y-145273000D01*
X221658124Y-145338007D01*
X221538007Y-145458124D01*
X221473000Y-145615064D01*
X218267461Y-145615064D01*
X218081749Y-145429352D01*
X217704283Y-145273000D01*
X217295717Y-145273000D01*
X216918251Y-145429352D01*
X216750000Y-145597603D01*
X216581749Y-145429352D01*
X216204283Y-145273000D01*
X215795717Y-145273000D01*
X215428836Y-145424967D01*
X215341876Y-145338007D01*
X215184935Y-145273000D01*
X214729750Y-145273000D01*
X214623000Y-145379750D01*
X214377000Y-145379750D01*
X214270250Y-145273000D01*
X213815065Y-145273000D01*
X213658124Y-145338007D01*
X213538007Y-145458124D01*
X213473000Y-145615064D01*
X210267461Y-145615064D01*
X210081749Y-145429352D01*
X209704283Y-145273000D01*
X209295717Y-145273000D01*
X208929574Y-145424662D01*
X208907850Y-145392150D01*
X208766607Y-145297775D01*
X208600000Y-145264635D01*
X207400000Y-145264635D01*
X207233393Y-145297775D01*
X207092150Y-145392150D01*
X206997775Y-145533393D01*
X206964635Y-145700000D01*
X198177000Y-145700000D01*
X198177000Y-144529750D01*
X198070250Y-144423000D01*
X196123000Y-144423000D01*
X195877000Y-144423000D01*
X193929750Y-144423000D01*
X193823000Y-144529750D01*
X180927500Y-144529750D01*
X180927500Y-129600000D01*
X186364635Y-129600000D01*
X186364635Y-131400000D01*
X186397775Y-131566607D01*
X186492150Y-131707850D01*
X186633393Y-131802225D01*
X186800000Y-131835365D01*
X187044060Y-131835365D01*
X186948315Y-131875024D01*
X186575024Y-132248315D01*
X186373000Y-132736043D01*
X186373000Y-133263957D01*
X186575024Y-133751685D01*
X186948315Y-134124976D01*
X187436043Y-134327000D01*
X187963957Y-134327000D01*
X188451685Y-134124976D01*
X188749661Y-133827000D01*
X189118556Y-133827000D01*
X189200000Y-133843200D01*
X189281444Y-133827000D01*
X189281448Y-133827000D01*
X189522679Y-133779016D01*
X189796233Y-133596233D01*
X189842372Y-133527181D01*
X190527183Y-132842371D01*
X190596233Y-132796233D01*
X190673000Y-132681342D01*
X190673001Y-139357444D01*
X189357447Y-140673000D01*
X188749661Y-140673000D01*
X188451685Y-140375024D01*
X188355940Y-140335365D01*
X188600000Y-140335365D01*
X188766607Y-140302225D01*
X188907850Y-140207850D01*
X189002225Y-140066607D01*
X189035365Y-139900000D01*
X189035365Y-138100000D01*
X189002225Y-137933393D01*
X188907850Y-137792150D01*
X188766607Y-137697775D01*
X188600000Y-137664635D01*
X186800000Y-137664635D01*
X186633393Y-137697775D01*
X186492150Y-137792150D01*
X186397775Y-137933393D01*
X186364635Y-138100000D01*
X186364635Y-139900000D01*
X186397775Y-140066607D01*
X186492150Y-140207850D01*
X186633393Y-140302225D01*
X186800000Y-140335365D01*
X187044060Y-140335365D01*
X186948315Y-140375024D01*
X186575024Y-140748315D01*
X186373000Y-141236043D01*
X186373000Y-141763957D01*
X186575024Y-142251685D01*
X186948315Y-142624976D01*
X187436043Y-142827000D01*
X187963957Y-142827000D01*
X188234191Y-142715065D01*
X193823000Y-142715065D01*
X193823000Y-144070250D01*
X193929750Y-144177000D01*
X195877000Y-144177000D01*
X195877000Y-142479750D01*
X196123000Y-142479750D01*
X196123000Y-144177000D01*
X198070250Y-144177000D01*
X198177000Y-144070250D01*
X198177000Y-142715065D01*
X198111993Y-142558124D01*
X197991876Y-142438007D01*
X197834936Y-142373000D01*
X196229750Y-142373000D01*
X196123000Y-142479750D01*
X195877000Y-142479750D01*
X195770250Y-142373000D01*
X194165064Y-142373000D01*
X194008124Y-142438007D01*
X193888007Y-142558124D01*
X193823000Y-142715065D01*
X188234191Y-142715065D01*
X188451685Y-142624976D01*
X188749661Y-142327000D01*
X189618556Y-142327000D01*
X189700000Y-142343200D01*
X189781444Y-142327000D01*
X189781448Y-142327000D01*
X190022679Y-142279016D01*
X190296233Y-142096233D01*
X190342372Y-142027181D01*
X192027186Y-140342368D01*
X192096233Y-140296233D01*
X192149438Y-140216607D01*
X192249664Y-140066607D01*
X192279016Y-140022679D01*
X192327000Y-139781448D01*
X192327000Y-139781444D01*
X192343200Y-139700001D01*
X192327000Y-139618558D01*
X192327000Y-136550000D01*
X193814635Y-136550000D01*
X193814635Y-140050000D01*
X193847775Y-140216607D01*
X193942150Y-140357850D01*
X194083393Y-140452225D01*
X194250000Y-140485365D01*
X197750000Y-140485365D01*
X197916607Y-140452225D01*
X197957352Y-140425000D01*
X198514635Y-140425000D01*
X198514635Y-142175000D01*
X198614381Y-142676455D01*
X198898432Y-143101568D01*
X199323545Y-143385619D01*
X199825000Y-143485365D01*
X201575000Y-143485365D01*
X202076455Y-143385619D01*
X202501568Y-143101568D01*
X202785619Y-142676455D01*
X202885365Y-142175000D01*
X202885365Y-140425000D01*
X202785619Y-139923545D01*
X202501568Y-139498432D01*
X202076455Y-139214381D01*
X201575000Y-139114635D01*
X199825000Y-139114635D01*
X199323545Y-139214381D01*
X198898432Y-139498432D01*
X198614381Y-139923545D01*
X198514635Y-140425000D01*
X197957352Y-140425000D01*
X198057850Y-140357850D01*
X198152225Y-140216607D01*
X198185365Y-140050000D01*
X198185365Y-136550000D01*
X198152225Y-136383393D01*
X198057850Y-136242150D01*
X197916607Y-136147775D01*
X197750000Y-136114635D01*
X194250000Y-136114635D01*
X194083393Y-136147775D01*
X193942150Y-136242150D01*
X193847775Y-136383393D01*
X193814635Y-136550000D01*
X192327000Y-136550000D01*
X192327000Y-131957897D01*
X246572500Y-131957897D01*
X246572501Y-139042104D01*
X246580714Y-139083393D01*
X246580714Y-139083401D01*
X246656834Y-139466084D01*
X246720666Y-139620189D01*
X246720669Y-139620192D01*
X246937439Y-139944613D01*
X247055386Y-140062560D01*
X247055389Y-140062561D01*
X247379808Y-140279331D01*
X247379811Y-140279334D01*
X247488779Y-140324470D01*
X247533915Y-140343166D01*
X247533916Y-140343166D01*
X247916599Y-140419286D01*
X248083401Y-140419286D01*
X248466084Y-140343166D01*
X248620189Y-140279334D01*
X248620192Y-140279331D01*
X248908236Y-140086867D01*
X248910197Y-140089803D01*
X248951399Y-140117333D01*
X249000000Y-140127000D01*
X253000000Y-140127000D01*
X253048601Y-140117333D01*
X253089803Y-140089803D01*
X253091765Y-140086867D01*
X253379808Y-140279331D01*
X253379811Y-140279334D01*
X253488779Y-140324470D01*
X253533915Y-140343166D01*
X253533916Y-140343166D01*
X253916599Y-140419286D01*
X254083401Y-140419286D01*
X254466084Y-140343166D01*
X254620189Y-140279334D01*
X254620192Y-140279331D01*
X254944613Y-140062561D01*
X255062560Y-139944614D01*
X255062561Y-139944611D01*
X255279331Y-139620192D01*
X255279334Y-139620189D01*
X255329767Y-139498432D01*
X255343166Y-139466085D01*
X255343166Y-139466084D01*
X255419286Y-139083401D01*
X255419286Y-139083399D01*
X255427500Y-139042104D01*
X255427500Y-131957896D01*
X255406998Y-131854824D01*
X255343166Y-131533916D01*
X255341710Y-131530399D01*
X255324470Y-131488779D01*
X255279334Y-131379811D01*
X255279331Y-131379808D01*
X255062560Y-131055387D01*
X255062560Y-131055386D01*
X254944613Y-130937439D01*
X254620192Y-130720669D01*
X254620189Y-130720666D01*
X254466084Y-130656834D01*
X254083401Y-130580714D01*
X254083399Y-130580714D01*
X254042104Y-130572500D01*
X252957896Y-130572500D01*
X252916601Y-130580714D01*
X252916599Y-130580714D01*
X252533916Y-130656834D01*
X252533915Y-130656834D01*
X252488779Y-130675530D01*
X252379811Y-130720666D01*
X252379808Y-130720669D01*
X252151829Y-130873000D01*
X249848173Y-130873000D01*
X249620192Y-130720669D01*
X249620189Y-130720666D01*
X249466084Y-130656834D01*
X249083401Y-130580714D01*
X249083399Y-130580714D01*
X249042104Y-130572500D01*
X247957896Y-130572500D01*
X247916601Y-130580714D01*
X247916599Y-130580714D01*
X247533916Y-130656834D01*
X247533915Y-130656834D01*
X247488779Y-130675530D01*
X247379811Y-130720666D01*
X247379808Y-130720669D01*
X247055389Y-130937439D01*
X247055386Y-130937440D01*
X246937439Y-131055387D01*
X246720669Y-131379808D01*
X246720666Y-131379811D01*
X246656834Y-131533916D01*
X246580714Y-131916599D01*
X246580714Y-131916602D01*
X246572500Y-131957897D01*
X192327000Y-131957897D01*
X192327000Y-127635499D01*
X192295217Y-127558767D01*
X192279016Y-127477321D01*
X192232881Y-127408275D01*
X192201097Y-127331542D01*
X192142368Y-127272813D01*
X192096233Y-127203767D01*
X192027187Y-127157632D01*
X191968458Y-127098903D01*
X191891723Y-127067119D01*
X191822678Y-127020984D01*
X191741233Y-127004784D01*
X191664501Y-126973000D01*
X191581447Y-126973000D01*
X191500000Y-126956799D01*
X191418552Y-126973000D01*
X191335499Y-126973000D01*
X191258767Y-127004783D01*
X191177321Y-127020984D01*
X191108275Y-127067119D01*
X191031542Y-127098903D01*
X190972813Y-127157632D01*
X190903767Y-127203767D01*
X190857632Y-127272813D01*
X190827000Y-127303445D01*
X190827000Y-126708238D01*
X192027186Y-125508054D01*
X192096233Y-125461918D01*
X192279016Y-125188364D01*
X192327000Y-124947133D01*
X192327000Y-124947129D01*
X192343200Y-124865686D01*
X192327000Y-124784243D01*
X192327000Y-124135499D01*
X192295217Y-124058767D01*
X192279016Y-123977321D01*
X192232881Y-123908275D01*
X192201097Y-123831542D01*
X192142368Y-123772813D01*
X192096233Y-123703767D01*
X192027187Y-123657632D01*
X191968458Y-123598903D01*
X191963393Y-123596805D01*
X203973000Y-123596805D01*
X203973000Y-124403195D01*
X204281593Y-125148203D01*
X204851797Y-125718407D01*
X205596805Y-126027000D01*
X206403195Y-126027000D01*
X207148203Y-125718407D01*
X207718407Y-125148203D01*
X208027000Y-124403195D01*
X208027000Y-124085499D01*
X233923000Y-124085499D01*
X233923000Y-124414501D01*
X234048903Y-124718458D01*
X234123001Y-124792556D01*
X234123000Y-128857467D01*
X234048903Y-128931564D01*
X233923000Y-129235521D01*
X233923000Y-129564523D01*
X234048903Y-129868480D01*
X234281542Y-130101119D01*
X234585499Y-130227022D01*
X234914501Y-130227022D01*
X235218458Y-130101119D01*
X235451097Y-129868480D01*
X235577000Y-129564523D01*
X235577000Y-129235521D01*
X235451097Y-128931564D01*
X235377000Y-128857467D01*
X235377000Y-125864932D01*
X248639844Y-125864932D01*
X248639844Y-126193934D01*
X248765747Y-126497891D01*
X248998386Y-126730530D01*
X249302343Y-126856433D01*
X249631345Y-126856433D01*
X249935302Y-126730530D01*
X250063832Y-126602000D01*
X251382445Y-126602000D01*
X251531542Y-126751097D01*
X251835499Y-126877000D01*
X252164501Y-126877000D01*
X252468458Y-126751097D01*
X252701097Y-126518458D01*
X252827000Y-126214501D01*
X252827000Y-125885499D01*
X252701097Y-125581542D01*
X252468458Y-125348903D01*
X252164501Y-125223000D01*
X251835499Y-125223000D01*
X251531542Y-125348903D01*
X251382445Y-125498000D01*
X250104966Y-125498000D01*
X249935302Y-125328336D01*
X249631345Y-125202433D01*
X249302343Y-125202433D01*
X248998386Y-125328336D01*
X248765747Y-125560975D01*
X248639844Y-125864932D01*
X235377000Y-125864932D01*
X235377000Y-124835499D01*
X244173000Y-124835499D01*
X244173000Y-125164501D01*
X244298903Y-125468458D01*
X244531542Y-125701097D01*
X244835499Y-125827000D01*
X245164501Y-125827000D01*
X245468458Y-125701097D01*
X245701097Y-125468458D01*
X245827000Y-125164501D01*
X245827000Y-124835499D01*
X245701097Y-124531542D01*
X245468458Y-124298903D01*
X245164501Y-124173000D01*
X244835499Y-124173000D01*
X244531542Y-124298903D01*
X244298903Y-124531542D01*
X244173000Y-124835499D01*
X235377000Y-124835499D01*
X235377000Y-124792555D01*
X235451097Y-124718458D01*
X235577000Y-124414501D01*
X235577000Y-124085499D01*
X235451097Y-123781542D01*
X235218458Y-123548903D01*
X234914501Y-123423000D01*
X234585499Y-123423000D01*
X234281542Y-123548903D01*
X234048903Y-123781542D01*
X233923000Y-124085499D01*
X208027000Y-124085499D01*
X208027000Y-123596805D01*
X207718407Y-122851797D01*
X207148203Y-122281593D01*
X206403195Y-121973000D01*
X205596805Y-121973000D01*
X204851797Y-122281593D01*
X204281593Y-122851797D01*
X203973000Y-123596805D01*
X191963393Y-123596805D01*
X191891723Y-123567119D01*
X191822678Y-123520984D01*
X191741233Y-123504784D01*
X191664501Y-123473000D01*
X191581447Y-123473000D01*
X191500000Y-123456799D01*
X191418552Y-123473000D01*
X191335499Y-123473000D01*
X191258767Y-123504783D01*
X191177321Y-123520984D01*
X191108275Y-123567119D01*
X191031542Y-123598903D01*
X190972813Y-123657632D01*
X190903767Y-123703767D01*
X190857632Y-123772813D01*
X190798903Y-123831542D01*
X190767119Y-123908277D01*
X190720984Y-123977322D01*
X190704784Y-124058766D01*
X190673000Y-124135499D01*
X190673000Y-124523130D01*
X189472819Y-125723313D01*
X189403767Y-125769452D01*
X189220984Y-126043007D01*
X189173000Y-126284238D01*
X189173000Y-126284241D01*
X189156800Y-126365685D01*
X189173000Y-126447129D01*
X189173001Y-131857445D01*
X188857447Y-132173000D01*
X188749661Y-132173000D01*
X188451685Y-131875024D01*
X188355940Y-131835365D01*
X188600000Y-131835365D01*
X188766607Y-131802225D01*
X188907850Y-131707850D01*
X189002225Y-131566607D01*
X189035365Y-131400000D01*
X189035365Y-129600000D01*
X189002225Y-129433393D01*
X188907850Y-129292150D01*
X188766607Y-129197775D01*
X188600000Y-129164635D01*
X186800000Y-129164635D01*
X186633393Y-129197775D01*
X186492150Y-129292150D01*
X186397775Y-129433393D01*
X186364635Y-129600000D01*
X180927500Y-129600000D01*
X180927500Y-121100000D01*
X186364635Y-121100000D01*
X186364635Y-122900000D01*
X186397775Y-123066607D01*
X186492150Y-123207850D01*
X186633393Y-123302225D01*
X186800000Y-123335365D01*
X187044060Y-123335365D01*
X186948315Y-123375024D01*
X186575024Y-123748315D01*
X186373000Y-124236043D01*
X186373000Y-124763957D01*
X186575024Y-125251685D01*
X186948315Y-125624976D01*
X187436043Y-125827000D01*
X187963957Y-125827000D01*
X188451685Y-125624976D01*
X188749661Y-125327000D01*
X189118556Y-125327000D01*
X189200000Y-125343200D01*
X189281444Y-125327000D01*
X189281448Y-125327000D01*
X189522679Y-125279016D01*
X189796233Y-125096233D01*
X189842372Y-125027181D01*
X190327183Y-124542371D01*
X190396233Y-124496233D01*
X190579016Y-124222679D01*
X190627000Y-123981448D01*
X190627000Y-123981444D01*
X190643200Y-123900001D01*
X190627000Y-123818558D01*
X190627000Y-119335499D01*
X190595217Y-119258767D01*
X190579016Y-119177321D01*
X190532881Y-119108275D01*
X190501097Y-119031542D01*
X190442368Y-118972813D01*
X190396233Y-118903767D01*
X190327187Y-118857632D01*
X190268458Y-118798903D01*
X190191723Y-118767119D01*
X190122678Y-118720984D01*
X190041233Y-118704784D01*
X189964501Y-118673000D01*
X189881447Y-118673000D01*
X189800000Y-118656799D01*
X189718552Y-118673000D01*
X189635499Y-118673000D01*
X189558767Y-118704783D01*
X189477321Y-118720984D01*
X189408275Y-118767119D01*
X189331542Y-118798903D01*
X189272813Y-118857632D01*
X189203767Y-118903767D01*
X189157632Y-118972813D01*
X189098903Y-119031542D01*
X189067119Y-119108277D01*
X189020984Y-119177322D01*
X189004784Y-119258766D01*
X188973000Y-119335499D01*
X188973000Y-120889655D01*
X188907850Y-120792150D01*
X188766607Y-120697775D01*
X188600000Y-120664635D01*
X186800000Y-120664635D01*
X186633393Y-120697775D01*
X186492150Y-120792150D01*
X186397775Y-120933393D01*
X186364635Y-121100000D01*
X180927500Y-121100000D01*
X180927500Y-112600000D01*
X186364635Y-112600000D01*
X186364635Y-114400000D01*
X186397775Y-114566607D01*
X186492150Y-114707850D01*
X186633393Y-114802225D01*
X186800000Y-114835365D01*
X187044060Y-114835365D01*
X186948315Y-114875024D01*
X186575024Y-115248315D01*
X186373000Y-115736043D01*
X186373000Y-116263957D01*
X186575024Y-116751685D01*
X186948315Y-117124976D01*
X187436043Y-117327000D01*
X187963957Y-117327000D01*
X188451685Y-117124976D01*
X188741162Y-116835499D01*
X248173000Y-116835499D01*
X248173000Y-117164501D01*
X248298903Y-117468458D01*
X248531542Y-117701097D01*
X248835499Y-117827000D01*
X249164501Y-117827000D01*
X249468458Y-117701097D01*
X249701097Y-117468458D01*
X249827000Y-117164501D01*
X249827000Y-116835499D01*
X251173000Y-116835499D01*
X251173000Y-117164501D01*
X251298903Y-117468458D01*
X251531542Y-117701097D01*
X251835499Y-117827000D01*
X252164501Y-117827000D01*
X252468458Y-117701097D01*
X252701097Y-117468458D01*
X252827000Y-117164501D01*
X252827000Y-116835499D01*
X252701097Y-116531542D01*
X252468458Y-116298903D01*
X252164501Y-116173000D01*
X251835499Y-116173000D01*
X251531542Y-116298903D01*
X251298903Y-116531542D01*
X251173000Y-116835499D01*
X249827000Y-116835499D01*
X249701097Y-116531542D01*
X249468458Y-116298903D01*
X249164501Y-116173000D01*
X248835499Y-116173000D01*
X248531542Y-116298903D01*
X248298903Y-116531542D01*
X248173000Y-116835499D01*
X188741162Y-116835499D01*
X188824976Y-116751685D01*
X189027000Y-116263957D01*
X189027000Y-115736043D01*
X188824976Y-115248315D01*
X188451685Y-114875024D01*
X188355940Y-114835365D01*
X188600000Y-114835365D01*
X188766607Y-114802225D01*
X188907850Y-114707850D01*
X189002225Y-114566607D01*
X189035365Y-114400000D01*
X189035365Y-113735499D01*
X246023000Y-113735499D01*
X246023000Y-114064501D01*
X246148903Y-114368458D01*
X246381542Y-114601097D01*
X246685499Y-114727000D01*
X247014501Y-114727000D01*
X247318458Y-114601097D01*
X247442555Y-114477000D01*
X253457445Y-114477000D01*
X253581542Y-114601097D01*
X253885499Y-114727000D01*
X254214501Y-114727000D01*
X254518458Y-114601097D01*
X254751097Y-114368458D01*
X254877000Y-114064501D01*
X254877000Y-113735499D01*
X254751097Y-113431542D01*
X254518458Y-113198903D01*
X254214501Y-113073000D01*
X253885499Y-113073000D01*
X253581542Y-113198903D01*
X253457445Y-113323000D01*
X247442555Y-113323000D01*
X247318458Y-113198903D01*
X247014501Y-113073000D01*
X246685499Y-113073000D01*
X246381542Y-113198903D01*
X246148903Y-113431542D01*
X246023000Y-113735499D01*
X189035365Y-113735499D01*
X189035365Y-112600000D01*
X189002225Y-112433393D01*
X188907850Y-112292150D01*
X188766607Y-112197775D01*
X188600000Y-112164635D01*
X186800000Y-112164635D01*
X186633393Y-112197775D01*
X186492150Y-112292150D01*
X186397775Y-112433393D01*
X186364635Y-112600000D01*
X180927500Y-112600000D01*
X180927500Y-103100000D01*
X186364635Y-103100000D01*
X186364635Y-104900000D01*
X186397775Y-105066607D01*
X186492150Y-105207850D01*
X186633393Y-105302225D01*
X186800000Y-105335365D01*
X187044060Y-105335365D01*
X186948315Y-105375024D01*
X186575024Y-105748315D01*
X186373000Y-106236043D01*
X186373000Y-106763957D01*
X186575024Y-107251685D01*
X186948315Y-107624976D01*
X187436043Y-107827000D01*
X187963957Y-107827000D01*
X188451685Y-107624976D01*
X188479856Y-107596805D01*
X252973000Y-107596805D01*
X252973000Y-108403195D01*
X253281593Y-109148203D01*
X253851797Y-109718407D01*
X254596805Y-110027000D01*
X255403195Y-110027000D01*
X256148203Y-109718407D01*
X256718407Y-109148203D01*
X257027000Y-108403195D01*
X257027000Y-107596805D01*
X256718407Y-106851797D01*
X256148203Y-106281593D01*
X255403195Y-105973000D01*
X254596805Y-105973000D01*
X253851797Y-106281593D01*
X253281593Y-106851797D01*
X252973000Y-107596805D01*
X188479856Y-107596805D01*
X188824976Y-107251685D01*
X189027000Y-106763957D01*
X189027000Y-106236043D01*
X188824976Y-105748315D01*
X188451685Y-105375024D01*
X188355940Y-105335365D01*
X188600000Y-105335365D01*
X188766607Y-105302225D01*
X188907850Y-105207850D01*
X189002225Y-105066607D01*
X189035365Y-104900000D01*
X189035365Y-103100000D01*
X189002225Y-102933393D01*
X188907850Y-102792150D01*
X188766607Y-102697775D01*
X188600000Y-102664635D01*
X186800000Y-102664635D01*
X186633393Y-102697775D01*
X186492150Y-102792150D01*
X186397775Y-102933393D01*
X186364635Y-103100000D01*
X180927500Y-103100000D01*
X180927500Y-94600000D01*
X186364635Y-94600000D01*
X186364635Y-96400000D01*
X186397775Y-96566607D01*
X186492150Y-96707850D01*
X186633393Y-96802225D01*
X186800000Y-96835365D01*
X187044060Y-96835365D01*
X186948315Y-96875024D01*
X186575024Y-97248315D01*
X186373000Y-97736043D01*
X186373000Y-98263957D01*
X186575024Y-98751685D01*
X186948315Y-99124976D01*
X187436043Y-99327000D01*
X187963957Y-99327000D01*
X188451685Y-99124976D01*
X188824976Y-98751685D01*
X189027000Y-98263957D01*
X189027000Y-97736043D01*
X188824976Y-97248315D01*
X188451685Y-96875024D01*
X188355940Y-96835365D01*
X188600000Y-96835365D01*
X188766607Y-96802225D01*
X188907850Y-96707850D01*
X189002225Y-96566607D01*
X189035365Y-96400000D01*
X189035365Y-94600000D01*
X189002225Y-94433393D01*
X188907850Y-94292150D01*
X188766607Y-94197775D01*
X188600000Y-94164635D01*
X186800000Y-94164635D01*
X186633393Y-94197775D01*
X186492150Y-94292150D01*
X186397775Y-94433393D01*
X186364635Y-94600000D01*
X180927500Y-94600000D01*
X180927500Y-92835499D01*
X228173000Y-92835499D01*
X228173000Y-93164501D01*
X228298903Y-93468458D01*
X228531542Y-93701097D01*
X228835499Y-93827000D01*
X229164501Y-93827000D01*
X229468458Y-93701097D01*
X229701097Y-93468458D01*
X229827000Y-93164501D01*
X229827000Y-92835499D01*
X229777000Y-92714788D01*
X229777000Y-81242515D01*
X229801057Y-81218458D01*
X229926960Y-80914501D01*
X229926960Y-80585499D01*
X229801057Y-80281542D01*
X229568418Y-80048903D01*
X229264461Y-79923000D01*
X228935459Y-79923000D01*
X228631502Y-80048903D01*
X228398863Y-80281542D01*
X228323099Y-80464453D01*
X228268083Y-80546790D01*
X228207778Y-80849960D01*
X228223001Y-80926490D01*
X228223000Y-92714788D01*
X228173000Y-92835499D01*
X180927500Y-92835499D01*
X180927500Y-86100000D01*
X186364635Y-86100000D01*
X186364635Y-87900000D01*
X186397775Y-88066607D01*
X186492150Y-88207850D01*
X186633393Y-88302225D01*
X186800000Y-88335365D01*
X187044060Y-88335365D01*
X186948315Y-88375024D01*
X186575024Y-88748315D01*
X186373000Y-89236043D01*
X186373000Y-89763957D01*
X186575024Y-90251685D01*
X186948315Y-90624976D01*
X187436043Y-90827000D01*
X187963957Y-90827000D01*
X188451685Y-90624976D01*
X188824976Y-90251685D01*
X189027000Y-89763957D01*
X189027000Y-89236043D01*
X188824976Y-88748315D01*
X188451685Y-88375024D01*
X188355940Y-88335365D01*
X188600000Y-88335365D01*
X188766607Y-88302225D01*
X188907850Y-88207850D01*
X189002225Y-88066607D01*
X189035365Y-87900000D01*
X189035365Y-86100000D01*
X189002225Y-85933393D01*
X188907850Y-85792150D01*
X188766607Y-85697775D01*
X188600000Y-85664635D01*
X186800000Y-85664635D01*
X186633393Y-85697775D01*
X186492150Y-85792150D01*
X186397775Y-85933393D01*
X186364635Y-86100000D01*
X180927500Y-86100000D01*
X180927500Y-77600000D01*
X186364635Y-77600000D01*
X186364635Y-79400000D01*
X186397775Y-79566607D01*
X186492150Y-79707850D01*
X186633393Y-79802225D01*
X186800000Y-79835365D01*
X187044060Y-79835365D01*
X186948315Y-79875024D01*
X186575024Y-80248315D01*
X186373000Y-80736043D01*
X186373000Y-81263957D01*
X186575024Y-81751685D01*
X186948315Y-82124976D01*
X187436043Y-82327000D01*
X187963957Y-82327000D01*
X188451685Y-82124976D01*
X188824976Y-81751685D01*
X189027000Y-81263957D01*
X189027000Y-80736043D01*
X188824976Y-80248315D01*
X188451685Y-79875024D01*
X188355940Y-79835365D01*
X188600000Y-79835365D01*
X188766607Y-79802225D01*
X188907850Y-79707850D01*
X189002225Y-79566607D01*
X189035365Y-79400000D01*
X189035365Y-77600000D01*
X189002225Y-77433393D01*
X188907850Y-77292150D01*
X188766607Y-77197775D01*
X188600000Y-77164635D01*
X186800000Y-77164635D01*
X186633393Y-77197775D01*
X186492150Y-77292150D01*
X186397775Y-77433393D01*
X186364635Y-77600000D01*
X180927500Y-77600000D01*
X180927500Y-75020343D01*
X181002879Y-74230279D01*
X181042035Y-74096805D01*
X196973000Y-74096805D01*
X196973000Y-74903195D01*
X197281593Y-75648203D01*
X197851797Y-76218407D01*
X198596805Y-76527000D01*
X199403195Y-76527000D01*
X200148203Y-76218407D01*
X200718407Y-75648203D01*
X201027000Y-74903195D01*
X201027000Y-74096805D01*
X200718407Y-73351797D01*
X200148203Y-72781593D01*
X199403195Y-72473000D01*
X198596805Y-72473000D01*
X197851797Y-72781593D01*
X197281593Y-73351797D01*
X196973000Y-74096805D01*
X181042035Y-74096805D01*
X181220544Y-73488326D01*
X181574582Y-72800918D01*
X182052216Y-72192864D01*
X182636217Y-71686093D01*
X183305505Y-71298901D01*
X184035934Y-71045253D01*
X184816202Y-70932119D01*
X185005206Y-70927500D01*
X200969547Y-70927500D01*
X201440122Y-70994891D01*
G04 #@! TD*
M02*
