M48
;DRILL file {KiCad 5.0.2-bee76a0~70~ubuntu18.04.1} date Fri 19 Jul 2019 10:20:12 CEST
;FORMAT={-:-/ absolute / metric / decimal}
FMAT,2
METRIC,TZ
T1C0.400
T2C0.700
T3C0.900
T4C1.000
%
G90
G05
T1
X189.8Y-119.5
X191.5Y-124.3
X191.5Y-127.8
X192.5Y-92.5
X192.5Y-102.
X192.5Y-109.5
X192.5Y-112.5
X193.Y-72.
X193.Y-77.5
X193.Y-83.5
X195.5Y-110.5
X197.Y-94.
X198.Y-102.
X198.Y-109.
X198.4Y-118.
X198.5Y-114.5
X198.5Y-124.9
X199.Y-85.
X199.Y-89.
X199.Y-122.
X200.Y-80.
X201.Y-83.
X202.Y-124.9
X202.3Y-114.5
X202.3Y-118.
X202.4Y-122.4
X203.Y-94.
X203.Y-102.
X203.Y-109.
X203.5Y-133.
X203.5Y-135.5
X203.5Y-140.5
X203.5Y-145.5
X205.Y-80.
X205.Y-85.
X205.Y-92.5
X205.Y-100.
X205.Y-110.
X205.Y-120.
X205.Y-147.5
X208.5Y-141.25
X210.Y-80.
X210.Y-85.
X210.Y-92.5
X210.Y-125.
X211.45Y-131.
X211.5Y-133.25
X214.5Y-141.25
X215.Y-80.
X215.Y-85.
X215.Y-92.5
X215.Y-100.
X215.Y-110.
X215.Y-120.
X215.Y-125.
X215.Y-130.75
X217.5Y-141.25
X218.25Y-130.5
X219.5Y-114.25
X219.5Y-120.
X219.5Y-125.
X220.Y-80.
X220.Y-85.
X220.Y-92.5
X220.Y-105.
X220.Y-135.4
X220.5Y-140.5
X222.Y-133.
X222.2Y-143.6
X222.75Y-123.25
X222.8Y-135.4
X224.Y-140.5
X225.Y-80.
X225.Y-85.
X225.Y-92.5
X225.Y-100.
X225.Y-114.25
X225.Y-120.
X227.5Y-127.5
X227.5Y-132.5
X227.5Y-136.5
X227.5Y-142.5
X229.Y-93.
X229.Y-101.
X229.Y-106.5
X229.Y-140.5
X229.1Y-80.75
X230.25Y-114.25
X230.25Y-120.
X231.Y-97.5
X231.5Y-84.6
X231.5Y-140.5
X231.5Y-143.5
X232.Y-102.6
X232.Y-136.
X232.5Y-112.
X232.8Y-101.
X233.Y-128.5
X233.55Y-102.6
X233.9Y-79.4
X234.75Y-124.25
X234.75Y-129.4
X235.Y-102.
X235.Y-110.
X235.Y-114.
X235.Y-120.
X235.5Y-140.5
X235.5Y-143.5
X237.Y-97.5
X238.Y-138.
X239.Y-101.6
X239.Y-143.
X240.Y-110.
X240.Y-120.
X240.Y-125.
X240.Y-128.
X240.Y-135.
X241.Y-141.
X242.7Y-101.6
X243.Y-142.5
X244.5Y-98.8
X245.Y-110.
X245.Y-125.
X245.Y-128.
X245.Y-135.
X245.Y-146.
X246.5Y-147.5
X246.85Y-113.9
X248.Y-143.
X249.Y-110.
X249.Y-117.
X249.Y-123.
X249.Y-142.
X249.467Y-126.029
X249.5Y-144.5
X250.75Y-102.75
X251.5Y-142.
X251.5Y-143.
X252.Y-117.
X252.Y-123.
X252.Y-126.05
X252.245Y-110.
X252.5Y-147.5
X254.05Y-113.9
X254.5Y-100.75
X254.5Y-104.5
X254.5Y-120.
X254.75Y-127.5
X255.Y-140.
X255.45Y-85.85
X255.45Y-88.4
X255.45Y-89.65
X255.487Y-99.5
X256.Y-81.
X256.5Y-84.6
X257.275Y-105.
X257.275Y-110.
X257.275Y-115.
X257.275Y-120.
X257.275Y-133.
X257.5Y-138.
X257.5Y-140.
X257.5Y-142.5
X257.5Y-147.5
X257.5Y-83.3
X258.5Y-85.
X258.5Y-94.5
X258.5Y-100.5
T2
X214.5Y-146.3
X216.Y-146.3
X217.5Y-146.3
X230.5Y-146.3
X232.Y-146.3
X233.5Y-146.3
X222.5Y-146.3
X224.Y-146.3
X225.5Y-146.3
X238.5Y-146.3
X240.Y-146.3
X241.5Y-146.3
X208.Y-146.3
X209.5Y-146.3
T3
X187.7Y-95.5
X187.7Y-98.
X187.7Y-104.
X187.7Y-106.5
X187.7Y-139.
X187.7Y-141.5
X187.7Y-122.
X187.7Y-124.5
X187.7Y-78.5
X187.7Y-81.
X187.7Y-130.5
X187.7Y-133.
X187.7Y-113.5
X187.7Y-116.
X187.7Y-87.
X187.7Y-89.5
T4
X236.75Y-104.
X239.29Y-104.
X241.83Y-104.
X244.37Y-104.
X246.91Y-104.
X249.45Y-104.
T4
X195.Y-138.3G85X197.Y-138.3
G05
X195.Y-144.3G85X197.Y-144.3
G05
X200.7Y-142.3G85X200.7Y-140.3
G05
T0
M30
