G04 #@! TF.GenerationSoftware,KiCad,Pcbnew,5.0.2-bee76a0~70~ubuntu18.04.1*
G04 #@! TF.CreationDate,2019-07-19T10:20:09+02:00*
G04 #@! TF.ProjectId,Plant_monitoring_device,506c616e-745f-46d6-9f6e-69746f72696e,rev?*
G04 #@! TF.SameCoordinates,Original*
G04 #@! TF.FileFunction,Profile,NP*
%FSLAX46Y46*%
G04 Gerber Fmt 4.6, Leading zero omitted, Abs format (unit mm)*
G04 Created by KiCad (PCBNEW 5.0.2-bee76a0~70~ubuntu18.04.1) date Fri 19 Jul 2019 10:20:09 CEST*
%MOMM*%
%LPD*%
G01*
G04 APERTURE LIST*
%ADD10C,0.001000*%
G04 APERTURE END LIST*
D10*
X247000000Y-132000000D02*
G75*
G02X248000000Y-131000000I1000000J0D01*
G01*
X254000000Y-131000000D02*
X253000000Y-131000000D01*
X249000000Y-131000000D02*
G75*
G02X249000000Y-133000000I0J-1000000D01*
G01*
X248000000Y-131000000D02*
X249000000Y-131000000D01*
X254000000Y-131000000D02*
G75*
G02X255000000Y-132000000I0J-1000000D01*
G01*
X253000000Y-133000000D02*
G75*
G02X253000000Y-131000000I0J1000000D01*
G01*
X249000000Y-139000000D02*
X249000000Y-133000000D01*
X249000000Y-139000000D02*
G75*
G02X247000000Y-139000000I-1000000J0D01*
G01*
X247000000Y-132000000D02*
X247000000Y-139000000D01*
X255000000Y-139000000D02*
G75*
G02X253000000Y-139000000I-1000000J0D01*
G01*
X255000000Y-139000000D02*
X255000000Y-132000000D01*
X253000000Y-133000000D02*
X253000000Y-139000000D01*
X205000000Y-78500000D02*
X255000000Y-78500000D01*
X203000000Y-76500000D02*
X203000000Y-72500000D01*
X205000000Y-78500000D02*
G75*
G02X203000000Y-76500000I0J2000000D01*
G01*
X201000000Y-70500000D02*
X185000000Y-70500000D01*
X201000000Y-70500000D02*
G75*
G02X203000000Y-72500000I0J-2000000D01*
G01*
X180500000Y-75000000D02*
G75*
G02X185000000Y-70500000I4500000J0D01*
G01*
X255000000Y-78500000D02*
G75*
G02X259500000Y-83000000I0J-4500000D01*
G01*
X259500000Y-145000000D02*
G75*
G02X255000000Y-149500000I-4500000J0D01*
G01*
X185000000Y-149500000D02*
G75*
G02X180500000Y-145000000I0J4500000D01*
G01*
X180500000Y-75000000D02*
X180500000Y-145000000D01*
X259500000Y-145000000D02*
X259500000Y-83000000D01*
X185000000Y-149500000D02*
X255000000Y-149500000D01*
M02*
