G04 #@! TF.GenerationSoftware,KiCad,Pcbnew,5.0.2-bee76a0~70~ubuntu18.04.1*
G04 #@! TF.CreationDate,2019-07-19T10:20:09+02:00*
G04 #@! TF.ProjectId,Plant_monitoring_device,506c616e-745f-46d6-9f6e-69746f72696e,rev?*
G04 #@! TF.SameCoordinates,Original*
G04 #@! TF.FileFunction,Legend,Bot*
G04 #@! TF.FilePolarity,Positive*
%FSLAX46Y46*%
G04 Gerber Fmt 4.6, Leading zero omitted, Abs format (unit mm)*
G04 Created by KiCad (PCBNEW 5.0.2-bee76a0~70~ubuntu18.04.1) date Fri 19 Jul 2019 10:20:09 CEST*
%MOMM*%
%LPD*%
G01*
G04 APERTURE LIST*
%ADD10C,0.150000*%
%ADD11C,0.300000*%
%ADD12C,0.010000*%
G04 APERTURE END LIST*
D10*
X238238095Y-85452380D02*
X238238095Y-84785714D01*
X238238095Y-84976190D02*
X238190476Y-84880952D01*
X238142857Y-84833333D01*
X238047619Y-84785714D01*
X237952380Y-84785714D01*
X237238095Y-85404761D02*
X237333333Y-85452380D01*
X237523809Y-85452380D01*
X237619047Y-85404761D01*
X237666666Y-85309523D01*
X237666666Y-84928571D01*
X237619047Y-84833333D01*
X237523809Y-84785714D01*
X237333333Y-84785714D01*
X237238095Y-84833333D01*
X237190476Y-84928571D01*
X237190476Y-85023809D01*
X237666666Y-85119047D01*
X236857142Y-84785714D02*
X236619047Y-85452380D01*
X236380952Y-84785714D01*
X234714285Y-85452380D02*
X235285714Y-85452380D01*
X235000000Y-85452380D02*
X235000000Y-84452380D01*
X235095238Y-84595238D01*
X235190476Y-84690476D01*
X235285714Y-84738095D01*
D11*
X253190476Y-83404761D02*
X253190476Y-81404761D01*
X252523809Y-82833333D01*
X251857142Y-81404761D01*
X251857142Y-83404761D01*
X250904761Y-83404761D02*
X250904761Y-82071428D01*
X250904761Y-82452380D02*
X250809523Y-82261904D01*
X250714285Y-82166666D01*
X250523809Y-82071428D01*
X250333333Y-82071428D01*
X249666666Y-83214285D02*
X249571428Y-83309523D01*
X249666666Y-83404761D01*
X249761904Y-83309523D01*
X249666666Y-83214285D01*
X249666666Y-83404761D01*
X246142857Y-81500000D02*
X246333333Y-81404761D01*
X246619047Y-81404761D01*
X246904761Y-81500000D01*
X247095238Y-81690476D01*
X247190476Y-81880952D01*
X247285714Y-82261904D01*
X247285714Y-82547619D01*
X247190476Y-82928571D01*
X247095238Y-83119047D01*
X246904761Y-83309523D01*
X246619047Y-83404761D01*
X246428571Y-83404761D01*
X246142857Y-83309523D01*
X246047619Y-83214285D01*
X246047619Y-82547619D01*
X246428571Y-82547619D01*
X244333333Y-83404761D02*
X244333333Y-82357142D01*
X244428571Y-82166666D01*
X244619047Y-82071428D01*
X245000000Y-82071428D01*
X245190476Y-82166666D01*
X244333333Y-83309523D02*
X244523809Y-83404761D01*
X245000000Y-83404761D01*
X245190476Y-83309523D01*
X245285714Y-83119047D01*
X245285714Y-82928571D01*
X245190476Y-82738095D01*
X245000000Y-82642857D01*
X244523809Y-82642857D01*
X244333333Y-82547619D01*
X243380952Y-83404761D02*
X243380952Y-82071428D01*
X243380952Y-82452380D02*
X243285714Y-82261904D01*
X243190476Y-82166666D01*
X243000000Y-82071428D01*
X242809523Y-82071428D01*
X241285714Y-83404761D02*
X241285714Y-81404761D01*
X241285714Y-83309523D02*
X241476190Y-83404761D01*
X241857142Y-83404761D01*
X242047619Y-83309523D01*
X242142857Y-83214285D01*
X242238095Y-83023809D01*
X242238095Y-82452380D01*
X242142857Y-82261904D01*
X242047619Y-82166666D01*
X241857142Y-82071428D01*
X241476190Y-82071428D01*
X241285714Y-82166666D01*
X239571428Y-83309523D02*
X239761904Y-83404761D01*
X240142857Y-83404761D01*
X240333333Y-83309523D01*
X240428571Y-83119047D01*
X240428571Y-82357142D01*
X240333333Y-82166666D01*
X240142857Y-82071428D01*
X239761904Y-82071428D01*
X239571428Y-82166666D01*
X239476190Y-82357142D01*
X239476190Y-82547619D01*
X240428571Y-82738095D01*
X238619047Y-82071428D02*
X238619047Y-83404761D01*
X238619047Y-82261904D02*
X238523809Y-82166666D01*
X238333333Y-82071428D01*
X238047619Y-82071428D01*
X237857142Y-82166666D01*
X237761904Y-82357142D01*
X237761904Y-83404761D01*
X236047619Y-83309523D02*
X236238095Y-83404761D01*
X236619047Y-83404761D01*
X236809523Y-83309523D01*
X236904761Y-83119047D01*
X236904761Y-82357142D01*
X236809523Y-82166666D01*
X236619047Y-82071428D01*
X236238095Y-82071428D01*
X236047619Y-82166666D01*
X235952380Y-82357142D01*
X235952380Y-82547619D01*
X236904761Y-82738095D01*
X235095238Y-83404761D02*
X235095238Y-82071428D01*
X235095238Y-82452380D02*
X235000000Y-82261904D01*
X234904761Y-82166666D01*
X234714285Y-82071428D01*
X234523809Y-82071428D01*
D12*
G04 #@! TO.C,H111*
G36*
X244055707Y-84506865D02*
X243889643Y-84524815D01*
X243755063Y-84557123D01*
X243639087Y-84604072D01*
X243627947Y-84609619D01*
X243405255Y-84758522D01*
X243249870Y-84952559D01*
X243153710Y-85205776D01*
X243110151Y-85509523D01*
X243089850Y-85714197D01*
X243062965Y-85849286D01*
X243032175Y-85901740D01*
X243029563Y-85901973D01*
X242976557Y-85863970D01*
X242889921Y-85766316D01*
X242792443Y-85635776D01*
X242639504Y-85449716D01*
X242478398Y-85310263D01*
X242419418Y-85274754D01*
X242199325Y-85202619D01*
X241941875Y-85177894D01*
X241688711Y-85201086D01*
X241498516Y-85263565D01*
X241381015Y-85337435D01*
X241213166Y-85461339D01*
X241009592Y-85622614D01*
X240784916Y-85808599D01*
X240553762Y-86006633D01*
X240330752Y-86204053D01*
X240130510Y-86388197D01*
X239967660Y-86546405D01*
X239856824Y-86666013D01*
X239819368Y-86717480D01*
X239700998Y-87008381D01*
X239671744Y-87304041D01*
X239684766Y-87435804D01*
X239710441Y-87548803D01*
X239759627Y-87655253D01*
X239846026Y-87776217D01*
X239983345Y-87932760D01*
X240064542Y-88019516D01*
X240216335Y-88181715D01*
X240306983Y-88285460D01*
X240343021Y-88341450D01*
X240330987Y-88360383D01*
X240277417Y-88352957D01*
X240266667Y-88350347D01*
X240015386Y-88296988D01*
X239769082Y-88260527D01*
X239556546Y-88244218D01*
X239406567Y-88251314D01*
X239400583Y-88252473D01*
X239163243Y-88344772D01*
X238943118Y-88508921D01*
X238771943Y-88721103D01*
X238768599Y-88726758D01*
X238719074Y-88821429D01*
X238680611Y-88925645D01*
X238649539Y-89057813D01*
X238622185Y-89236345D01*
X238594879Y-89479649D01*
X238572974Y-89707556D01*
X238533993Y-90168050D01*
X238512069Y-90544403D01*
X238509210Y-90848059D01*
X238527424Y-91090459D01*
X238568719Y-91283048D01*
X238635101Y-91437269D01*
X238728579Y-91564565D01*
X238851159Y-91676379D01*
X238928312Y-91733067D01*
X239029217Y-91799331D01*
X239118808Y-91841702D01*
X239222718Y-91865468D01*
X239366582Y-91875919D01*
X239576034Y-91878346D01*
X239632262Y-91878329D01*
X240126377Y-91877802D01*
X239762104Y-92121177D01*
X239510405Y-92307594D01*
X239338756Y-92484499D01*
X239234866Y-92671296D01*
X239186443Y-92887388D01*
X239178892Y-93041865D01*
X239200152Y-93298218D01*
X239261441Y-93497265D01*
X239263566Y-93501484D01*
X239338479Y-93620772D01*
X239463625Y-93790345D01*
X239626260Y-93995509D01*
X239813640Y-94221567D01*
X240013022Y-94453825D01*
X240211662Y-94677588D01*
X240396817Y-94878159D01*
X240555742Y-95040845D01*
X240675695Y-95150948D01*
X240724469Y-95186118D01*
X240986545Y-95290031D01*
X241264207Y-95326535D01*
X241520993Y-95291024D01*
X241530621Y-95287939D01*
X241665022Y-95218905D01*
X241839146Y-95093349D01*
X242029763Y-94928237D01*
X242051943Y-94907239D01*
X242206154Y-94763241D01*
X242302532Y-94683098D01*
X242350211Y-94660823D01*
X242358329Y-94690431D01*
X242354258Y-94709142D01*
X242274110Y-95084836D01*
X242249779Y-95395688D01*
X242282358Y-95656660D01*
X242372942Y-95882712D01*
X242448482Y-95998380D01*
X242558273Y-96119774D01*
X242694339Y-96215243D01*
X242871133Y-96289630D01*
X243103111Y-96347775D01*
X243404726Y-96394518D01*
X243736945Y-96429852D01*
X244154283Y-96465933D01*
X244488805Y-96488539D01*
X244753560Y-96497357D01*
X244961595Y-96492071D01*
X245125960Y-96472367D01*
X245259702Y-96437928D01*
X245372054Y-96390381D01*
X245556482Y-96263040D01*
X245717400Y-96093430D01*
X245733068Y-96071737D01*
X245799398Y-95970699D01*
X245841814Y-95880879D01*
X245865639Y-95776596D01*
X245876199Y-95632169D01*
X245878818Y-95421917D01*
X245878838Y-95394603D01*
X245504331Y-95394603D01*
X245487819Y-95594622D01*
X245445865Y-95750887D01*
X245378347Y-95873349D01*
X245294054Y-95964273D01*
X245218013Y-96023286D01*
X245133967Y-96066822D01*
X245029210Y-96095534D01*
X244891039Y-96110074D01*
X244706748Y-96111093D01*
X244463633Y-96099246D01*
X244148988Y-96075184D01*
X243777919Y-96042128D01*
X243456852Y-96009790D01*
X243216453Y-95976459D01*
X243040756Y-95936191D01*
X242913793Y-95883047D01*
X242819598Y-95811084D01*
X242742204Y-95714361D01*
X242695696Y-95639425D01*
X242650611Y-95548659D01*
X242632522Y-95457270D01*
X242639441Y-95333134D01*
X242666168Y-95162482D01*
X242713734Y-94948367D01*
X242791949Y-94665368D01*
X242830763Y-94539809D01*
X242419619Y-94539809D01*
X242395429Y-94564000D01*
X242371238Y-94539809D01*
X242395429Y-94515619D01*
X242419619Y-94539809D01*
X242830763Y-94539809D01*
X242894392Y-94333977D01*
X243014636Y-93974687D01*
X243146258Y-93607991D01*
X243189501Y-93493037D01*
X243293303Y-93220359D01*
X243594271Y-93320959D01*
X243744907Y-93364908D01*
X243901988Y-93394525D01*
X244089708Y-93412373D01*
X244332258Y-93421015D01*
X244557269Y-93422983D01*
X245219300Y-93424408D01*
X245318363Y-93957918D01*
X245402416Y-94432486D01*
X245461509Y-94823488D01*
X245495521Y-95140876D01*
X245504331Y-95394603D01*
X245878838Y-95394603D01*
X245878858Y-95368576D01*
X245878858Y-94875203D01*
X246121705Y-95238686D01*
X246308143Y-95490288D01*
X246485220Y-95661800D01*
X246672358Y-95765511D01*
X246888974Y-95813715D01*
X247041866Y-95821108D01*
X247298219Y-95799848D01*
X247497266Y-95738559D01*
X247501485Y-95736434D01*
X247620773Y-95661521D01*
X247790346Y-95536375D01*
X247995510Y-95373740D01*
X248221568Y-95186360D01*
X248453826Y-94986978D01*
X248677589Y-94788338D01*
X248878160Y-94603183D01*
X249040845Y-94444258D01*
X249150949Y-94324305D01*
X249186118Y-94275531D01*
X249290032Y-94013455D01*
X249326536Y-93735793D01*
X249325339Y-93727132D01*
X248951963Y-93727132D01*
X248929063Y-93888622D01*
X248834640Y-94063439D01*
X248665873Y-94262492D01*
X248419944Y-94496687D01*
X248249524Y-94645493D01*
X247954718Y-94895473D01*
X247720321Y-95087587D01*
X247535184Y-95229098D01*
X247388158Y-95327273D01*
X247268095Y-95389376D01*
X247163846Y-95422674D01*
X247064261Y-95434431D01*
X247038230Y-95434857D01*
X246828543Y-95400632D01*
X246712070Y-95337896D01*
X246585549Y-95205618D01*
X246433210Y-94990670D01*
X246260399Y-94701989D01*
X246072463Y-94348511D01*
X245874748Y-93939172D01*
X245873165Y-93935747D01*
X245571670Y-93283304D01*
X245831406Y-93143933D01*
X245986847Y-93047255D01*
X242971731Y-93047255D01*
X242688100Y-93454865D01*
X242371894Y-93897732D01*
X242096501Y-94257994D01*
X241858604Y-94539162D01*
X241654885Y-94744745D01*
X241482028Y-94878252D01*
X241336715Y-94943192D01*
X241273854Y-94951047D01*
X241149441Y-94932248D01*
X241004635Y-94886651D01*
X240996195Y-94883187D01*
X240890373Y-94811680D01*
X240734369Y-94664088D01*
X240526873Y-94439065D01*
X240266575Y-94135264D01*
X240254823Y-94121187D01*
X240067693Y-93894777D01*
X239899627Y-93687572D01*
X239761608Y-93513422D01*
X239664622Y-93386178D01*
X239620503Y-93321371D01*
X239570261Y-93144364D01*
X239574306Y-92943305D01*
X239629425Y-92763846D01*
X239663490Y-92710307D01*
X239786052Y-92593412D01*
X239986374Y-92449780D01*
X240251743Y-92286992D01*
X240569449Y-92112629D01*
X240926779Y-91934275D01*
X241100446Y-91853213D01*
X241714745Y-91572589D01*
X241904731Y-91916641D01*
X242064364Y-92161478D01*
X242276120Y-92425142D01*
X242512083Y-92676492D01*
X242744342Y-92884385D01*
X242828723Y-92947539D01*
X242971731Y-93047255D01*
X245986847Y-93047255D01*
X246134236Y-92955586D01*
X246432005Y-92724583D01*
X246692315Y-92477811D01*
X246832654Y-92313056D01*
X246935304Y-92187014D01*
X247020385Y-92099887D01*
X247064109Y-92072381D01*
X247129177Y-92100678D01*
X247255087Y-92178290D01*
X247426954Y-92294297D01*
X247629892Y-92437780D01*
X247849016Y-92597819D01*
X248069441Y-92763493D01*
X248276281Y-92923884D01*
X248454651Y-93068071D01*
X248589666Y-93185135D01*
X248619722Y-93213558D01*
X248794473Y-93400508D01*
X248906160Y-93568063D01*
X248951963Y-93727132D01*
X249325339Y-93727132D01*
X249291024Y-93479007D01*
X249287940Y-93469379D01*
X249218906Y-93334978D01*
X249093350Y-93160854D01*
X248928238Y-92970237D01*
X248907240Y-92948057D01*
X248763242Y-92793846D01*
X248683098Y-92697468D01*
X248660824Y-92649789D01*
X248690432Y-92641671D01*
X248709143Y-92645742D01*
X249089789Y-92726230D01*
X249405876Y-92749413D01*
X249671417Y-92714461D01*
X249900424Y-92620542D01*
X249925489Y-92604571D01*
X248564000Y-92604571D01*
X248539810Y-92628762D01*
X248515619Y-92604571D01*
X248539810Y-92580381D01*
X248564000Y-92604571D01*
X249925489Y-92604571D01*
X249978957Y-92570503D01*
X250104804Y-92465519D01*
X250203067Y-92339033D01*
X250278949Y-92176202D01*
X250337652Y-91962186D01*
X250384381Y-91682142D01*
X250424339Y-91321228D01*
X250427027Y-91292443D01*
X250466008Y-90831949D01*
X250487932Y-90455596D01*
X250489440Y-90295356D01*
X250111082Y-90295356D01*
X250099088Y-90539391D01*
X250074850Y-90855204D01*
X250042633Y-91216568D01*
X250010247Y-91538159D01*
X249977093Y-91778981D01*
X249937556Y-91954903D01*
X249886020Y-92081796D01*
X249816869Y-92175531D01*
X249724488Y-92251977D01*
X249662038Y-92292224D01*
X249580200Y-92342364D01*
X249518572Y-92371008D01*
X249451582Y-92379265D01*
X249353658Y-92368243D01*
X249199229Y-92339054D01*
X249088352Y-92317111D01*
X248826135Y-92254674D01*
X248494823Y-92158352D01*
X248113459Y-92034193D01*
X247701084Y-91888243D01*
X247494983Y-91811180D01*
X247224251Y-91708152D01*
X247341857Y-91309695D01*
X247394633Y-91117305D01*
X247427246Y-90951893D01*
X247442915Y-90781312D01*
X247444856Y-90573411D01*
X247440676Y-90430091D01*
X246629938Y-90430091D01*
X246597597Y-90856148D01*
X246485296Y-91268786D01*
X246294575Y-91647868D01*
X246292910Y-91650444D01*
X246006680Y-92008465D01*
X245662697Y-92290557D01*
X245266620Y-92492504D01*
X245079399Y-92554298D01*
X244796599Y-92603037D01*
X244466552Y-92612750D01*
X244129670Y-92585376D01*
X243826369Y-92522855D01*
X243725905Y-92489361D01*
X243356641Y-92298942D01*
X243022450Y-92030878D01*
X242740936Y-91702699D01*
X242529705Y-91331933D01*
X242505318Y-91274095D01*
X242454071Y-91127587D01*
X242421535Y-90976567D01*
X242403861Y-90792676D01*
X242397198Y-90547555D01*
X242396805Y-90474662D01*
X242397699Y-90236669D01*
X242405486Y-90067164D01*
X242425640Y-89937885D01*
X242463639Y-89820568D01*
X242524958Y-89686952D01*
X242564762Y-89607781D01*
X242652165Y-89435619D01*
X241737994Y-89435619D01*
X241657187Y-89641238D01*
X241621425Y-89759533D01*
X241597008Y-89912786D01*
X241582260Y-90119100D01*
X241575508Y-90396576D01*
X241574666Y-90533330D01*
X241572953Y-91219803D01*
X241040762Y-91319406D01*
X240620302Y-91394678D01*
X240276819Y-91447888D01*
X239993545Y-91480951D01*
X239753714Y-91495781D01*
X239540558Y-91494293D01*
X239518391Y-91493235D01*
X239341694Y-91479522D01*
X239226548Y-91451593D01*
X239137744Y-91395302D01*
X239046677Y-91303727D01*
X238957554Y-91196709D01*
X238909903Y-91099286D01*
X238891127Y-90973530D01*
X238888429Y-90827282D01*
X238893240Y-90668959D01*
X238906036Y-90440889D01*
X238925062Y-90169592D01*
X238948562Y-89881593D01*
X238957872Y-89777918D01*
X238990210Y-89456851D01*
X239023541Y-89216452D01*
X239063809Y-89040755D01*
X239116953Y-88913792D01*
X239188916Y-88819597D01*
X239285639Y-88742203D01*
X239360575Y-88695695D01*
X239451371Y-88650600D01*
X239542798Y-88632517D01*
X239666995Y-88639454D01*
X239837349Y-88666138D01*
X240051225Y-88711659D01*
X240303186Y-88777297D01*
X240540677Y-88849301D01*
X240552854Y-88853367D01*
X240744560Y-88920815D01*
X240863865Y-88974413D01*
X240931191Y-89027646D01*
X240966958Y-89093998D01*
X240978988Y-89134757D01*
X241056920Y-89294547D01*
X241196994Y-89392309D01*
X241408356Y-89433485D01*
X241484810Y-89435619D01*
X241737994Y-89435619D01*
X242652165Y-89435619D01*
X242734096Y-89274237D01*
X243266286Y-89091432D01*
X243541474Y-88988638D01*
X243855195Y-88858600D01*
X244161334Y-88720950D01*
X244334522Y-88636642D01*
X244870567Y-88364657D01*
X245177176Y-88467947D01*
X245587105Y-88655701D01*
X245944100Y-88922093D01*
X246240640Y-89260317D01*
X246448567Y-89618257D01*
X246580775Y-90010748D01*
X246629938Y-90430091D01*
X247440676Y-90430091D01*
X247438242Y-90346667D01*
X247417021Y-89782097D01*
X247954225Y-89682225D01*
X248392850Y-89606455D01*
X248788938Y-89549482D01*
X249129959Y-89512636D01*
X249403381Y-89497252D01*
X249596675Y-89504660D01*
X249608488Y-89506306D01*
X249789085Y-89560268D01*
X249937213Y-89676239D01*
X249964274Y-89705946D01*
X250023409Y-89782193D01*
X250066996Y-89866518D01*
X250095697Y-89971660D01*
X250110172Y-90110359D01*
X250111082Y-90295356D01*
X250489440Y-90295356D01*
X250490791Y-90151941D01*
X250472577Y-89909540D01*
X250431282Y-89716951D01*
X250364900Y-89562730D01*
X250271422Y-89435434D01*
X250148842Y-89323620D01*
X250071689Y-89266932D01*
X249970784Y-89200668D01*
X249881193Y-89158298D01*
X249777283Y-89134531D01*
X249633419Y-89124080D01*
X249423967Y-89121653D01*
X249367739Y-89121670D01*
X248873624Y-89122197D01*
X249237897Y-88878823D01*
X249489596Y-88692405D01*
X249661245Y-88515500D01*
X249765135Y-88328703D01*
X249813558Y-88112611D01*
X249818742Y-88006540D01*
X249434502Y-88006540D01*
X249387362Y-88205747D01*
X249336511Y-88289693D01*
X249213894Y-88406638D01*
X249013477Y-88550322D01*
X248747938Y-88713182D01*
X248429958Y-88887658D01*
X248072214Y-89066189D01*
X247898485Y-89147275D01*
X247283116Y-89428388D01*
X247114302Y-89105432D01*
X246970079Y-88874201D01*
X246775026Y-88623805D01*
X246605697Y-88438902D01*
X246447346Y-88282727D01*
X246301785Y-88146122D01*
X246190259Y-88048710D01*
X246150802Y-88018734D01*
X246035700Y-87942140D01*
X246315616Y-87539832D01*
X246526097Y-87244842D01*
X245708684Y-87244842D01*
X245654618Y-87326600D01*
X245529061Y-87441065D01*
X245193930Y-87693071D01*
X244787158Y-87952304D01*
X244331793Y-88206076D01*
X243850885Y-88441697D01*
X243367482Y-88646481D01*
X243276084Y-88681295D01*
X242980558Y-88778478D01*
X242640117Y-88869344D01*
X242285277Y-88947468D01*
X241946550Y-89006423D01*
X241654452Y-89039784D01*
X241550581Y-89044664D01*
X241334685Y-89048571D01*
X241572953Y-88806666D01*
X241721006Y-88662246D01*
X241816191Y-88586378D01*
X241868231Y-88573828D01*
X241886851Y-88619358D01*
X241887429Y-88637333D01*
X241889672Y-88677757D01*
X241907989Y-88699375D01*
X241959764Y-88701374D01*
X242062379Y-88682941D01*
X242233217Y-88643262D01*
X242347048Y-88615830D01*
X243054366Y-88401249D01*
X243719962Y-88111088D01*
X244331218Y-87751623D01*
X244798561Y-87396340D01*
X244945409Y-87275047D01*
X245053611Y-87204930D01*
X245156163Y-87172119D01*
X245286058Y-87162744D01*
X245354942Y-87162455D01*
X245563199Y-87169735D01*
X245679662Y-87194876D01*
X245708684Y-87244842D01*
X246526097Y-87244842D01*
X246590966Y-87153928D01*
X246688097Y-87025315D01*
X244645143Y-87025315D01*
X244605819Y-87080409D01*
X244499094Y-87171566D01*
X244341841Y-87287300D01*
X244150932Y-87416123D01*
X243943239Y-87546551D01*
X243735634Y-87667096D01*
X243587036Y-87745663D01*
X243393024Y-87835646D01*
X243159165Y-87933421D01*
X242906580Y-88031371D01*
X242656392Y-88121879D01*
X242429723Y-88197329D01*
X242247694Y-88250105D01*
X242131428Y-88272588D01*
X242125062Y-88272863D01*
X242086484Y-88254583D01*
X242054680Y-88187981D01*
X242025375Y-88058147D01*
X241994291Y-87850170D01*
X241986387Y-87789291D01*
X241924556Y-87304107D01*
X242056513Y-87113693D01*
X242243922Y-86900550D01*
X242507343Y-86683712D01*
X242827759Y-86477734D01*
X243024381Y-86372862D01*
X243274813Y-86257448D01*
X243515449Y-86162662D01*
X243628189Y-86126468D01*
X242652931Y-86126468D01*
X242442922Y-86259329D01*
X242292000Y-86371526D01*
X242121870Y-86523890D01*
X241950913Y-86696662D01*
X241797511Y-86870083D01*
X241680045Y-87024395D01*
X241616899Y-87139840D01*
X241613719Y-87150640D01*
X241605020Y-87256402D01*
X241609670Y-87428171D01*
X241626441Y-87636297D01*
X241637943Y-87736513D01*
X241695278Y-88190463D01*
X241513163Y-88351408D01*
X241404244Y-88444107D01*
X241327115Y-88503183D01*
X241306858Y-88514208D01*
X241261509Y-88487059D01*
X241155406Y-88411648D01*
X241133555Y-88395428D01*
X240484381Y-88395428D01*
X240460191Y-88419619D01*
X240436000Y-88395428D01*
X240460191Y-88371238D01*
X240484381Y-88395428D01*
X241133555Y-88395428D01*
X241004041Y-88299290D01*
X240822906Y-88161301D01*
X240809540Y-88150996D01*
X240497790Y-87899942D01*
X240268293Y-87683743D01*
X240120980Y-87490941D01*
X240055781Y-87310076D01*
X240072626Y-87129691D01*
X240171448Y-86938328D01*
X240352175Y-86724529D01*
X240614740Y-86476835D01*
X240798453Y-86318241D01*
X241082261Y-86079399D01*
X241304658Y-85896799D01*
X241477082Y-85762997D01*
X241610971Y-85670552D01*
X241717765Y-85612021D01*
X241808903Y-85579962D01*
X241895824Y-85566932D01*
X241955987Y-85565142D01*
X242135712Y-85586949D01*
X242285007Y-85662422D01*
X242427436Y-85806644D01*
X242511242Y-85920529D01*
X242652931Y-86126468D01*
X243628189Y-86126468D01*
X243727043Y-86094732D01*
X243890353Y-86059884D01*
X243982524Y-86062811D01*
X244033784Y-86111186D01*
X244122176Y-86221185D01*
X244233617Y-86372354D01*
X244354028Y-86544243D01*
X244469330Y-86716397D01*
X244565441Y-86868365D01*
X244628281Y-86979695D01*
X244645143Y-87025315D01*
X246688097Y-87025315D01*
X246843931Y-86818974D01*
X247068036Y-86542910D01*
X247142667Y-86460190D01*
X246628762Y-86460190D01*
X246604572Y-86484381D01*
X246580381Y-86460190D01*
X246604572Y-86436000D01*
X246628762Y-86460190D01*
X247142667Y-86460190D01*
X247256808Y-86333679D01*
X247403773Y-86199222D01*
X247415617Y-86190414D01*
X247569362Y-86095476D01*
X247712148Y-86049755D01*
X247854441Y-86058277D01*
X248006710Y-86126068D01*
X248179424Y-86258156D01*
X248383048Y-86459568D01*
X248628053Y-86735331D01*
X248681759Y-86798452D01*
X248866150Y-87018322D01*
X249036859Y-87225597D01*
X249180232Y-87403420D01*
X249282618Y-87534940D01*
X249319159Y-87585297D01*
X249411510Y-87789249D01*
X249434502Y-88006540D01*
X249818742Y-88006540D01*
X249821109Y-87958134D01*
X249799808Y-87701560D01*
X249738405Y-87502252D01*
X249736377Y-87498225D01*
X249678717Y-87409109D01*
X249569359Y-87261353D01*
X249419761Y-87069628D01*
X249241379Y-86848605D01*
X249045669Y-86612955D01*
X249037367Y-86603107D01*
X248795057Y-86319966D01*
X248599344Y-86103670D01*
X248437771Y-85944412D01*
X248297883Y-85832385D01*
X248167225Y-85757778D01*
X248033342Y-85710786D01*
X247883779Y-85681599D01*
X247863495Y-85678733D01*
X247651814Y-85673510D01*
X247452170Y-85724798D01*
X247246045Y-85840976D01*
X247014923Y-86030420D01*
X246948400Y-86092760D01*
X246795605Y-86237205D01*
X246700562Y-86320179D01*
X246652144Y-86348173D01*
X246639227Y-86327678D01*
X246650322Y-86266666D01*
X246704102Y-86009697D01*
X246740374Y-85761276D01*
X246755689Y-85553554D01*
X246369058Y-85553554D01*
X246359512Y-85685594D01*
X246338468Y-85816105D01*
X246310349Y-85948196D01*
X246266316Y-86124564D01*
X246212613Y-86323570D01*
X246155485Y-86523580D01*
X246101176Y-86702955D01*
X246055931Y-86840058D01*
X246025995Y-86913253D01*
X246019937Y-86919809D01*
X245974722Y-86903126D01*
X245872552Y-86861631D01*
X245837939Y-86847238D01*
X245683868Y-86806319D01*
X245471188Y-86780737D01*
X245300922Y-86774666D01*
X244937593Y-86774666D01*
X244597249Y-86267391D01*
X244457877Y-86066666D01*
X244327406Y-85891295D01*
X244220140Y-85759714D01*
X244150383Y-85690359D01*
X244148643Y-85689184D01*
X244048965Y-85649710D01*
X243915153Y-85649468D01*
X243726868Y-85690026D01*
X243585512Y-85732598D01*
X243521197Y-85749338D01*
X243489291Y-85733192D01*
X243482774Y-85664299D01*
X243494626Y-85522799D01*
X243498375Y-85486068D01*
X243524271Y-85310538D01*
X243569655Y-85191489D01*
X243652804Y-85088648D01*
X243698534Y-85045047D01*
X243804474Y-84956794D01*
X243901657Y-84909622D01*
X244027838Y-84891062D01*
X244172718Y-84888428D01*
X244331041Y-84893240D01*
X244559111Y-84906036D01*
X244830408Y-84925061D01*
X245118407Y-84948561D01*
X245222082Y-84957871D01*
X245543102Y-84990198D01*
X245783465Y-85023516D01*
X245959147Y-85063782D01*
X246086125Y-85116952D01*
X246180376Y-85188982D01*
X246257877Y-85285829D01*
X246304871Y-85361543D01*
X246351696Y-85457065D01*
X246369058Y-85553554D01*
X246755689Y-85553554D01*
X246755996Y-85549397D01*
X246747825Y-85402056D01*
X246747527Y-85400582D01*
X246655228Y-85163243D01*
X246491079Y-84943118D01*
X246278897Y-84771942D01*
X246273242Y-84768598D01*
X246178571Y-84719073D01*
X246074355Y-84680610D01*
X245942187Y-84649538D01*
X245763655Y-84622185D01*
X245520351Y-84594878D01*
X245292444Y-84572973D01*
X244871625Y-84536327D01*
X244533816Y-84512905D01*
X244266138Y-84502989D01*
X244055707Y-84506865D01*
X244055707Y-84506865D01*
G37*
X244055707Y-84506865D02*
X243889643Y-84524815D01*
X243755063Y-84557123D01*
X243639087Y-84604072D01*
X243627947Y-84609619D01*
X243405255Y-84758522D01*
X243249870Y-84952559D01*
X243153710Y-85205776D01*
X243110151Y-85509523D01*
X243089850Y-85714197D01*
X243062965Y-85849286D01*
X243032175Y-85901740D01*
X243029563Y-85901973D01*
X242976557Y-85863970D01*
X242889921Y-85766316D01*
X242792443Y-85635776D01*
X242639504Y-85449716D01*
X242478398Y-85310263D01*
X242419418Y-85274754D01*
X242199325Y-85202619D01*
X241941875Y-85177894D01*
X241688711Y-85201086D01*
X241498516Y-85263565D01*
X241381015Y-85337435D01*
X241213166Y-85461339D01*
X241009592Y-85622614D01*
X240784916Y-85808599D01*
X240553762Y-86006633D01*
X240330752Y-86204053D01*
X240130510Y-86388197D01*
X239967660Y-86546405D01*
X239856824Y-86666013D01*
X239819368Y-86717480D01*
X239700998Y-87008381D01*
X239671744Y-87304041D01*
X239684766Y-87435804D01*
X239710441Y-87548803D01*
X239759627Y-87655253D01*
X239846026Y-87776217D01*
X239983345Y-87932760D01*
X240064542Y-88019516D01*
X240216335Y-88181715D01*
X240306983Y-88285460D01*
X240343021Y-88341450D01*
X240330987Y-88360383D01*
X240277417Y-88352957D01*
X240266667Y-88350347D01*
X240015386Y-88296988D01*
X239769082Y-88260527D01*
X239556546Y-88244218D01*
X239406567Y-88251314D01*
X239400583Y-88252473D01*
X239163243Y-88344772D01*
X238943118Y-88508921D01*
X238771943Y-88721103D01*
X238768599Y-88726758D01*
X238719074Y-88821429D01*
X238680611Y-88925645D01*
X238649539Y-89057813D01*
X238622185Y-89236345D01*
X238594879Y-89479649D01*
X238572974Y-89707556D01*
X238533993Y-90168050D01*
X238512069Y-90544403D01*
X238509210Y-90848059D01*
X238527424Y-91090459D01*
X238568719Y-91283048D01*
X238635101Y-91437269D01*
X238728579Y-91564565D01*
X238851159Y-91676379D01*
X238928312Y-91733067D01*
X239029217Y-91799331D01*
X239118808Y-91841702D01*
X239222718Y-91865468D01*
X239366582Y-91875919D01*
X239576034Y-91878346D01*
X239632262Y-91878329D01*
X240126377Y-91877802D01*
X239762104Y-92121177D01*
X239510405Y-92307594D01*
X239338756Y-92484499D01*
X239234866Y-92671296D01*
X239186443Y-92887388D01*
X239178892Y-93041865D01*
X239200152Y-93298218D01*
X239261441Y-93497265D01*
X239263566Y-93501484D01*
X239338479Y-93620772D01*
X239463625Y-93790345D01*
X239626260Y-93995509D01*
X239813640Y-94221567D01*
X240013022Y-94453825D01*
X240211662Y-94677588D01*
X240396817Y-94878159D01*
X240555742Y-95040845D01*
X240675695Y-95150948D01*
X240724469Y-95186118D01*
X240986545Y-95290031D01*
X241264207Y-95326535D01*
X241520993Y-95291024D01*
X241530621Y-95287939D01*
X241665022Y-95218905D01*
X241839146Y-95093349D01*
X242029763Y-94928237D01*
X242051943Y-94907239D01*
X242206154Y-94763241D01*
X242302532Y-94683098D01*
X242350211Y-94660823D01*
X242358329Y-94690431D01*
X242354258Y-94709142D01*
X242274110Y-95084836D01*
X242249779Y-95395688D01*
X242282358Y-95656660D01*
X242372942Y-95882712D01*
X242448482Y-95998380D01*
X242558273Y-96119774D01*
X242694339Y-96215243D01*
X242871133Y-96289630D01*
X243103111Y-96347775D01*
X243404726Y-96394518D01*
X243736945Y-96429852D01*
X244154283Y-96465933D01*
X244488805Y-96488539D01*
X244753560Y-96497357D01*
X244961595Y-96492071D01*
X245125960Y-96472367D01*
X245259702Y-96437928D01*
X245372054Y-96390381D01*
X245556482Y-96263040D01*
X245717400Y-96093430D01*
X245733068Y-96071737D01*
X245799398Y-95970699D01*
X245841814Y-95880879D01*
X245865639Y-95776596D01*
X245876199Y-95632169D01*
X245878818Y-95421917D01*
X245878838Y-95394603D01*
X245504331Y-95394603D01*
X245487819Y-95594622D01*
X245445865Y-95750887D01*
X245378347Y-95873349D01*
X245294054Y-95964273D01*
X245218013Y-96023286D01*
X245133967Y-96066822D01*
X245029210Y-96095534D01*
X244891039Y-96110074D01*
X244706748Y-96111093D01*
X244463633Y-96099246D01*
X244148988Y-96075184D01*
X243777919Y-96042128D01*
X243456852Y-96009790D01*
X243216453Y-95976459D01*
X243040756Y-95936191D01*
X242913793Y-95883047D01*
X242819598Y-95811084D01*
X242742204Y-95714361D01*
X242695696Y-95639425D01*
X242650611Y-95548659D01*
X242632522Y-95457270D01*
X242639441Y-95333134D01*
X242666168Y-95162482D01*
X242713734Y-94948367D01*
X242791949Y-94665368D01*
X242830763Y-94539809D01*
X242419619Y-94539809D01*
X242395429Y-94564000D01*
X242371238Y-94539809D01*
X242395429Y-94515619D01*
X242419619Y-94539809D01*
X242830763Y-94539809D01*
X242894392Y-94333977D01*
X243014636Y-93974687D01*
X243146258Y-93607991D01*
X243189501Y-93493037D01*
X243293303Y-93220359D01*
X243594271Y-93320959D01*
X243744907Y-93364908D01*
X243901988Y-93394525D01*
X244089708Y-93412373D01*
X244332258Y-93421015D01*
X244557269Y-93422983D01*
X245219300Y-93424408D01*
X245318363Y-93957918D01*
X245402416Y-94432486D01*
X245461509Y-94823488D01*
X245495521Y-95140876D01*
X245504331Y-95394603D01*
X245878838Y-95394603D01*
X245878858Y-95368576D01*
X245878858Y-94875203D01*
X246121705Y-95238686D01*
X246308143Y-95490288D01*
X246485220Y-95661800D01*
X246672358Y-95765511D01*
X246888974Y-95813715D01*
X247041866Y-95821108D01*
X247298219Y-95799848D01*
X247497266Y-95738559D01*
X247501485Y-95736434D01*
X247620773Y-95661521D01*
X247790346Y-95536375D01*
X247995510Y-95373740D01*
X248221568Y-95186360D01*
X248453826Y-94986978D01*
X248677589Y-94788338D01*
X248878160Y-94603183D01*
X249040845Y-94444258D01*
X249150949Y-94324305D01*
X249186118Y-94275531D01*
X249290032Y-94013455D01*
X249326536Y-93735793D01*
X249325339Y-93727132D01*
X248951963Y-93727132D01*
X248929063Y-93888622D01*
X248834640Y-94063439D01*
X248665873Y-94262492D01*
X248419944Y-94496687D01*
X248249524Y-94645493D01*
X247954718Y-94895473D01*
X247720321Y-95087587D01*
X247535184Y-95229098D01*
X247388158Y-95327273D01*
X247268095Y-95389376D01*
X247163846Y-95422674D01*
X247064261Y-95434431D01*
X247038230Y-95434857D01*
X246828543Y-95400632D01*
X246712070Y-95337896D01*
X246585549Y-95205618D01*
X246433210Y-94990670D01*
X246260399Y-94701989D01*
X246072463Y-94348511D01*
X245874748Y-93939172D01*
X245873165Y-93935747D01*
X245571670Y-93283304D01*
X245831406Y-93143933D01*
X245986847Y-93047255D01*
X242971731Y-93047255D01*
X242688100Y-93454865D01*
X242371894Y-93897732D01*
X242096501Y-94257994D01*
X241858604Y-94539162D01*
X241654885Y-94744745D01*
X241482028Y-94878252D01*
X241336715Y-94943192D01*
X241273854Y-94951047D01*
X241149441Y-94932248D01*
X241004635Y-94886651D01*
X240996195Y-94883187D01*
X240890373Y-94811680D01*
X240734369Y-94664088D01*
X240526873Y-94439065D01*
X240266575Y-94135264D01*
X240254823Y-94121187D01*
X240067693Y-93894777D01*
X239899627Y-93687572D01*
X239761608Y-93513422D01*
X239664622Y-93386178D01*
X239620503Y-93321371D01*
X239570261Y-93144364D01*
X239574306Y-92943305D01*
X239629425Y-92763846D01*
X239663490Y-92710307D01*
X239786052Y-92593412D01*
X239986374Y-92449780D01*
X240251743Y-92286992D01*
X240569449Y-92112629D01*
X240926779Y-91934275D01*
X241100446Y-91853213D01*
X241714745Y-91572589D01*
X241904731Y-91916641D01*
X242064364Y-92161478D01*
X242276120Y-92425142D01*
X242512083Y-92676492D01*
X242744342Y-92884385D01*
X242828723Y-92947539D01*
X242971731Y-93047255D01*
X245986847Y-93047255D01*
X246134236Y-92955586D01*
X246432005Y-92724583D01*
X246692315Y-92477811D01*
X246832654Y-92313056D01*
X246935304Y-92187014D01*
X247020385Y-92099887D01*
X247064109Y-92072381D01*
X247129177Y-92100678D01*
X247255087Y-92178290D01*
X247426954Y-92294297D01*
X247629892Y-92437780D01*
X247849016Y-92597819D01*
X248069441Y-92763493D01*
X248276281Y-92923884D01*
X248454651Y-93068071D01*
X248589666Y-93185135D01*
X248619722Y-93213558D01*
X248794473Y-93400508D01*
X248906160Y-93568063D01*
X248951963Y-93727132D01*
X249325339Y-93727132D01*
X249291024Y-93479007D01*
X249287940Y-93469379D01*
X249218906Y-93334978D01*
X249093350Y-93160854D01*
X248928238Y-92970237D01*
X248907240Y-92948057D01*
X248763242Y-92793846D01*
X248683098Y-92697468D01*
X248660824Y-92649789D01*
X248690432Y-92641671D01*
X248709143Y-92645742D01*
X249089789Y-92726230D01*
X249405876Y-92749413D01*
X249671417Y-92714461D01*
X249900424Y-92620542D01*
X249925489Y-92604571D01*
X248564000Y-92604571D01*
X248539810Y-92628762D01*
X248515619Y-92604571D01*
X248539810Y-92580381D01*
X248564000Y-92604571D01*
X249925489Y-92604571D01*
X249978957Y-92570503D01*
X250104804Y-92465519D01*
X250203067Y-92339033D01*
X250278949Y-92176202D01*
X250337652Y-91962186D01*
X250384381Y-91682142D01*
X250424339Y-91321228D01*
X250427027Y-91292443D01*
X250466008Y-90831949D01*
X250487932Y-90455596D01*
X250489440Y-90295356D01*
X250111082Y-90295356D01*
X250099088Y-90539391D01*
X250074850Y-90855204D01*
X250042633Y-91216568D01*
X250010247Y-91538159D01*
X249977093Y-91778981D01*
X249937556Y-91954903D01*
X249886020Y-92081796D01*
X249816869Y-92175531D01*
X249724488Y-92251977D01*
X249662038Y-92292224D01*
X249580200Y-92342364D01*
X249518572Y-92371008D01*
X249451582Y-92379265D01*
X249353658Y-92368243D01*
X249199229Y-92339054D01*
X249088352Y-92317111D01*
X248826135Y-92254674D01*
X248494823Y-92158352D01*
X248113459Y-92034193D01*
X247701084Y-91888243D01*
X247494983Y-91811180D01*
X247224251Y-91708152D01*
X247341857Y-91309695D01*
X247394633Y-91117305D01*
X247427246Y-90951893D01*
X247442915Y-90781312D01*
X247444856Y-90573411D01*
X247440676Y-90430091D01*
X246629938Y-90430091D01*
X246597597Y-90856148D01*
X246485296Y-91268786D01*
X246294575Y-91647868D01*
X246292910Y-91650444D01*
X246006680Y-92008465D01*
X245662697Y-92290557D01*
X245266620Y-92492504D01*
X245079399Y-92554298D01*
X244796599Y-92603037D01*
X244466552Y-92612750D01*
X244129670Y-92585376D01*
X243826369Y-92522855D01*
X243725905Y-92489361D01*
X243356641Y-92298942D01*
X243022450Y-92030878D01*
X242740936Y-91702699D01*
X242529705Y-91331933D01*
X242505318Y-91274095D01*
X242454071Y-91127587D01*
X242421535Y-90976567D01*
X242403861Y-90792676D01*
X242397198Y-90547555D01*
X242396805Y-90474662D01*
X242397699Y-90236669D01*
X242405486Y-90067164D01*
X242425640Y-89937885D01*
X242463639Y-89820568D01*
X242524958Y-89686952D01*
X242564762Y-89607781D01*
X242652165Y-89435619D01*
X241737994Y-89435619D01*
X241657187Y-89641238D01*
X241621425Y-89759533D01*
X241597008Y-89912786D01*
X241582260Y-90119100D01*
X241575508Y-90396576D01*
X241574666Y-90533330D01*
X241572953Y-91219803D01*
X241040762Y-91319406D01*
X240620302Y-91394678D01*
X240276819Y-91447888D01*
X239993545Y-91480951D01*
X239753714Y-91495781D01*
X239540558Y-91494293D01*
X239518391Y-91493235D01*
X239341694Y-91479522D01*
X239226548Y-91451593D01*
X239137744Y-91395302D01*
X239046677Y-91303727D01*
X238957554Y-91196709D01*
X238909903Y-91099286D01*
X238891127Y-90973530D01*
X238888429Y-90827282D01*
X238893240Y-90668959D01*
X238906036Y-90440889D01*
X238925062Y-90169592D01*
X238948562Y-89881593D01*
X238957872Y-89777918D01*
X238990210Y-89456851D01*
X239023541Y-89216452D01*
X239063809Y-89040755D01*
X239116953Y-88913792D01*
X239188916Y-88819597D01*
X239285639Y-88742203D01*
X239360575Y-88695695D01*
X239451371Y-88650600D01*
X239542798Y-88632517D01*
X239666995Y-88639454D01*
X239837349Y-88666138D01*
X240051225Y-88711659D01*
X240303186Y-88777297D01*
X240540677Y-88849301D01*
X240552854Y-88853367D01*
X240744560Y-88920815D01*
X240863865Y-88974413D01*
X240931191Y-89027646D01*
X240966958Y-89093998D01*
X240978988Y-89134757D01*
X241056920Y-89294547D01*
X241196994Y-89392309D01*
X241408356Y-89433485D01*
X241484810Y-89435619D01*
X241737994Y-89435619D01*
X242652165Y-89435619D01*
X242734096Y-89274237D01*
X243266286Y-89091432D01*
X243541474Y-88988638D01*
X243855195Y-88858600D01*
X244161334Y-88720950D01*
X244334522Y-88636642D01*
X244870567Y-88364657D01*
X245177176Y-88467947D01*
X245587105Y-88655701D01*
X245944100Y-88922093D01*
X246240640Y-89260317D01*
X246448567Y-89618257D01*
X246580775Y-90010748D01*
X246629938Y-90430091D01*
X247440676Y-90430091D01*
X247438242Y-90346667D01*
X247417021Y-89782097D01*
X247954225Y-89682225D01*
X248392850Y-89606455D01*
X248788938Y-89549482D01*
X249129959Y-89512636D01*
X249403381Y-89497252D01*
X249596675Y-89504660D01*
X249608488Y-89506306D01*
X249789085Y-89560268D01*
X249937213Y-89676239D01*
X249964274Y-89705946D01*
X250023409Y-89782193D01*
X250066996Y-89866518D01*
X250095697Y-89971660D01*
X250110172Y-90110359D01*
X250111082Y-90295356D01*
X250489440Y-90295356D01*
X250490791Y-90151941D01*
X250472577Y-89909540D01*
X250431282Y-89716951D01*
X250364900Y-89562730D01*
X250271422Y-89435434D01*
X250148842Y-89323620D01*
X250071689Y-89266932D01*
X249970784Y-89200668D01*
X249881193Y-89158298D01*
X249777283Y-89134531D01*
X249633419Y-89124080D01*
X249423967Y-89121653D01*
X249367739Y-89121670D01*
X248873624Y-89122197D01*
X249237897Y-88878823D01*
X249489596Y-88692405D01*
X249661245Y-88515500D01*
X249765135Y-88328703D01*
X249813558Y-88112611D01*
X249818742Y-88006540D01*
X249434502Y-88006540D01*
X249387362Y-88205747D01*
X249336511Y-88289693D01*
X249213894Y-88406638D01*
X249013477Y-88550322D01*
X248747938Y-88713182D01*
X248429958Y-88887658D01*
X248072214Y-89066189D01*
X247898485Y-89147275D01*
X247283116Y-89428388D01*
X247114302Y-89105432D01*
X246970079Y-88874201D01*
X246775026Y-88623805D01*
X246605697Y-88438902D01*
X246447346Y-88282727D01*
X246301785Y-88146122D01*
X246190259Y-88048710D01*
X246150802Y-88018734D01*
X246035700Y-87942140D01*
X246315616Y-87539832D01*
X246526097Y-87244842D01*
X245708684Y-87244842D01*
X245654618Y-87326600D01*
X245529061Y-87441065D01*
X245193930Y-87693071D01*
X244787158Y-87952304D01*
X244331793Y-88206076D01*
X243850885Y-88441697D01*
X243367482Y-88646481D01*
X243276084Y-88681295D01*
X242980558Y-88778478D01*
X242640117Y-88869344D01*
X242285277Y-88947468D01*
X241946550Y-89006423D01*
X241654452Y-89039784D01*
X241550581Y-89044664D01*
X241334685Y-89048571D01*
X241572953Y-88806666D01*
X241721006Y-88662246D01*
X241816191Y-88586378D01*
X241868231Y-88573828D01*
X241886851Y-88619358D01*
X241887429Y-88637333D01*
X241889672Y-88677757D01*
X241907989Y-88699375D01*
X241959764Y-88701374D01*
X242062379Y-88682941D01*
X242233217Y-88643262D01*
X242347048Y-88615830D01*
X243054366Y-88401249D01*
X243719962Y-88111088D01*
X244331218Y-87751623D01*
X244798561Y-87396340D01*
X244945409Y-87275047D01*
X245053611Y-87204930D01*
X245156163Y-87172119D01*
X245286058Y-87162744D01*
X245354942Y-87162455D01*
X245563199Y-87169735D01*
X245679662Y-87194876D01*
X245708684Y-87244842D01*
X246526097Y-87244842D01*
X246590966Y-87153928D01*
X246688097Y-87025315D01*
X244645143Y-87025315D01*
X244605819Y-87080409D01*
X244499094Y-87171566D01*
X244341841Y-87287300D01*
X244150932Y-87416123D01*
X243943239Y-87546551D01*
X243735634Y-87667096D01*
X243587036Y-87745663D01*
X243393024Y-87835646D01*
X243159165Y-87933421D01*
X242906580Y-88031371D01*
X242656392Y-88121879D01*
X242429723Y-88197329D01*
X242247694Y-88250105D01*
X242131428Y-88272588D01*
X242125062Y-88272863D01*
X242086484Y-88254583D01*
X242054680Y-88187981D01*
X242025375Y-88058147D01*
X241994291Y-87850170D01*
X241986387Y-87789291D01*
X241924556Y-87304107D01*
X242056513Y-87113693D01*
X242243922Y-86900550D01*
X242507343Y-86683712D01*
X242827759Y-86477734D01*
X243024381Y-86372862D01*
X243274813Y-86257448D01*
X243515449Y-86162662D01*
X243628189Y-86126468D01*
X242652931Y-86126468D01*
X242442922Y-86259329D01*
X242292000Y-86371526D01*
X242121870Y-86523890D01*
X241950913Y-86696662D01*
X241797511Y-86870083D01*
X241680045Y-87024395D01*
X241616899Y-87139840D01*
X241613719Y-87150640D01*
X241605020Y-87256402D01*
X241609670Y-87428171D01*
X241626441Y-87636297D01*
X241637943Y-87736513D01*
X241695278Y-88190463D01*
X241513163Y-88351408D01*
X241404244Y-88444107D01*
X241327115Y-88503183D01*
X241306858Y-88514208D01*
X241261509Y-88487059D01*
X241155406Y-88411648D01*
X241133555Y-88395428D01*
X240484381Y-88395428D01*
X240460191Y-88419619D01*
X240436000Y-88395428D01*
X240460191Y-88371238D01*
X240484381Y-88395428D01*
X241133555Y-88395428D01*
X241004041Y-88299290D01*
X240822906Y-88161301D01*
X240809540Y-88150996D01*
X240497790Y-87899942D01*
X240268293Y-87683743D01*
X240120980Y-87490941D01*
X240055781Y-87310076D01*
X240072626Y-87129691D01*
X240171448Y-86938328D01*
X240352175Y-86724529D01*
X240614740Y-86476835D01*
X240798453Y-86318241D01*
X241082261Y-86079399D01*
X241304658Y-85896799D01*
X241477082Y-85762997D01*
X241610971Y-85670552D01*
X241717765Y-85612021D01*
X241808903Y-85579962D01*
X241895824Y-85566932D01*
X241955987Y-85565142D01*
X242135712Y-85586949D01*
X242285007Y-85662422D01*
X242427436Y-85806644D01*
X242511242Y-85920529D01*
X242652931Y-86126468D01*
X243628189Y-86126468D01*
X243727043Y-86094732D01*
X243890353Y-86059884D01*
X243982524Y-86062811D01*
X244033784Y-86111186D01*
X244122176Y-86221185D01*
X244233617Y-86372354D01*
X244354028Y-86544243D01*
X244469330Y-86716397D01*
X244565441Y-86868365D01*
X244628281Y-86979695D01*
X244645143Y-87025315D01*
X246688097Y-87025315D01*
X246843931Y-86818974D01*
X247068036Y-86542910D01*
X247142667Y-86460190D01*
X246628762Y-86460190D01*
X246604572Y-86484381D01*
X246580381Y-86460190D01*
X246604572Y-86436000D01*
X246628762Y-86460190D01*
X247142667Y-86460190D01*
X247256808Y-86333679D01*
X247403773Y-86199222D01*
X247415617Y-86190414D01*
X247569362Y-86095476D01*
X247712148Y-86049755D01*
X247854441Y-86058277D01*
X248006710Y-86126068D01*
X248179424Y-86258156D01*
X248383048Y-86459568D01*
X248628053Y-86735331D01*
X248681759Y-86798452D01*
X248866150Y-87018322D01*
X249036859Y-87225597D01*
X249180232Y-87403420D01*
X249282618Y-87534940D01*
X249319159Y-87585297D01*
X249411510Y-87789249D01*
X249434502Y-88006540D01*
X249818742Y-88006540D01*
X249821109Y-87958134D01*
X249799808Y-87701560D01*
X249738405Y-87502252D01*
X249736377Y-87498225D01*
X249678717Y-87409109D01*
X249569359Y-87261353D01*
X249419761Y-87069628D01*
X249241379Y-86848605D01*
X249045669Y-86612955D01*
X249037367Y-86603107D01*
X248795057Y-86319966D01*
X248599344Y-86103670D01*
X248437771Y-85944412D01*
X248297883Y-85832385D01*
X248167225Y-85757778D01*
X248033342Y-85710786D01*
X247883779Y-85681599D01*
X247863495Y-85678733D01*
X247651814Y-85673510D01*
X247452170Y-85724798D01*
X247246045Y-85840976D01*
X247014923Y-86030420D01*
X246948400Y-86092760D01*
X246795605Y-86237205D01*
X246700562Y-86320179D01*
X246652144Y-86348173D01*
X246639227Y-86327678D01*
X246650322Y-86266666D01*
X246704102Y-86009697D01*
X246740374Y-85761276D01*
X246755689Y-85553554D01*
X246369058Y-85553554D01*
X246359512Y-85685594D01*
X246338468Y-85816105D01*
X246310349Y-85948196D01*
X246266316Y-86124564D01*
X246212613Y-86323570D01*
X246155485Y-86523580D01*
X246101176Y-86702955D01*
X246055931Y-86840058D01*
X246025995Y-86913253D01*
X246019937Y-86919809D01*
X245974722Y-86903126D01*
X245872552Y-86861631D01*
X245837939Y-86847238D01*
X245683868Y-86806319D01*
X245471188Y-86780737D01*
X245300922Y-86774666D01*
X244937593Y-86774666D01*
X244597249Y-86267391D01*
X244457877Y-86066666D01*
X244327406Y-85891295D01*
X244220140Y-85759714D01*
X244150383Y-85690359D01*
X244148643Y-85689184D01*
X244048965Y-85649710D01*
X243915153Y-85649468D01*
X243726868Y-85690026D01*
X243585512Y-85732598D01*
X243521197Y-85749338D01*
X243489291Y-85733192D01*
X243482774Y-85664299D01*
X243494626Y-85522799D01*
X243498375Y-85486068D01*
X243524271Y-85310538D01*
X243569655Y-85191489D01*
X243652804Y-85088648D01*
X243698534Y-85045047D01*
X243804474Y-84956794D01*
X243901657Y-84909622D01*
X244027838Y-84891062D01*
X244172718Y-84888428D01*
X244331041Y-84893240D01*
X244559111Y-84906036D01*
X244830408Y-84925061D01*
X245118407Y-84948561D01*
X245222082Y-84957871D01*
X245543102Y-84990198D01*
X245783465Y-85023516D01*
X245959147Y-85063782D01*
X246086125Y-85116952D01*
X246180376Y-85188982D01*
X246257877Y-85285829D01*
X246304871Y-85361543D01*
X246351696Y-85457065D01*
X246369058Y-85553554D01*
X246755689Y-85553554D01*
X246755996Y-85549397D01*
X246747825Y-85402056D01*
X246747527Y-85400582D01*
X246655228Y-85163243D01*
X246491079Y-84943118D01*
X246278897Y-84771942D01*
X246273242Y-84768598D01*
X246178571Y-84719073D01*
X246074355Y-84680610D01*
X245942187Y-84649538D01*
X245763655Y-84622185D01*
X245520351Y-84594878D01*
X245292444Y-84572973D01*
X244871625Y-84536327D01*
X244533816Y-84512905D01*
X244266138Y-84502989D01*
X244055707Y-84506865D01*
G36*
X244062496Y-90498399D02*
X243719521Y-90570607D01*
X243418836Y-90683737D01*
X243179587Y-90836849D01*
X243101234Y-90913753D01*
X242995177Y-91066355D01*
X242930554Y-91223449D01*
X242915426Y-91357947D01*
X242946581Y-91433361D01*
X243013438Y-91456904D01*
X243137889Y-91438662D01*
X243251515Y-91405718D01*
X243400253Y-91361551D01*
X243489085Y-91349882D01*
X243549190Y-91370557D01*
X243590713Y-91404052D01*
X243673477Y-91455193D01*
X243767123Y-91441201D01*
X243804088Y-91425484D01*
X243915908Y-91392317D01*
X243995155Y-91421919D01*
X243998848Y-91424921D01*
X244077829Y-91457644D01*
X244187328Y-91427199D01*
X244192372Y-91424921D01*
X244303743Y-91392198D01*
X244383107Y-91422642D01*
X244385896Y-91424921D01*
X244464877Y-91457644D01*
X244574376Y-91427199D01*
X244579420Y-91424921D01*
X244690791Y-91392198D01*
X244770155Y-91422642D01*
X244772943Y-91424921D01*
X244855194Y-91457530D01*
X244962392Y-91426778D01*
X245082997Y-91396208D01*
X245173928Y-91428338D01*
X245261302Y-91458057D01*
X245358860Y-91422427D01*
X245386962Y-91404794D01*
X245479057Y-91355791D01*
X245563492Y-91354443D01*
X245680440Y-91396120D01*
X245846753Y-91454279D01*
X245956360Y-91459537D01*
X246033398Y-91412163D01*
X246043930Y-91400182D01*
X246069614Y-91299970D01*
X246034594Y-91160220D01*
X245950824Y-91005298D01*
X245830257Y-90859569D01*
X245741670Y-90784087D01*
X245474410Y-90637585D01*
X245153718Y-90536705D01*
X244798739Y-90480508D01*
X244428617Y-90468052D01*
X244062496Y-90498399D01*
X244062496Y-90498399D01*
G37*
X244062496Y-90498399D02*
X243719521Y-90570607D01*
X243418836Y-90683737D01*
X243179587Y-90836849D01*
X243101234Y-90913753D01*
X242995177Y-91066355D01*
X242930554Y-91223449D01*
X242915426Y-91357947D01*
X242946581Y-91433361D01*
X243013438Y-91456904D01*
X243137889Y-91438662D01*
X243251515Y-91405718D01*
X243400253Y-91361551D01*
X243489085Y-91349882D01*
X243549190Y-91370557D01*
X243590713Y-91404052D01*
X243673477Y-91455193D01*
X243767123Y-91441201D01*
X243804088Y-91425484D01*
X243915908Y-91392317D01*
X243995155Y-91421919D01*
X243998848Y-91424921D01*
X244077829Y-91457644D01*
X244187328Y-91427199D01*
X244192372Y-91424921D01*
X244303743Y-91392198D01*
X244383107Y-91422642D01*
X244385896Y-91424921D01*
X244464877Y-91457644D01*
X244574376Y-91427199D01*
X244579420Y-91424921D01*
X244690791Y-91392198D01*
X244770155Y-91422642D01*
X244772943Y-91424921D01*
X244855194Y-91457530D01*
X244962392Y-91426778D01*
X245082997Y-91396208D01*
X245173928Y-91428338D01*
X245261302Y-91458057D01*
X245358860Y-91422427D01*
X245386962Y-91404794D01*
X245479057Y-91355791D01*
X245563492Y-91354443D01*
X245680440Y-91396120D01*
X245846753Y-91454279D01*
X245956360Y-91459537D01*
X246033398Y-91412163D01*
X246043930Y-91400182D01*
X246069614Y-91299970D01*
X246034594Y-91160220D01*
X245950824Y-91005298D01*
X245830257Y-90859569D01*
X245741670Y-90784087D01*
X245474410Y-90637585D01*
X245153718Y-90536705D01*
X244798739Y-90480508D01*
X244428617Y-90468052D01*
X244062496Y-90498399D01*
G36*
X245078701Y-89148798D02*
X244982752Y-89263440D01*
X244934612Y-89428405D01*
X244934004Y-89435619D01*
X244937672Y-89690547D01*
X244987635Y-89885880D01*
X245077400Y-90013179D01*
X245200475Y-90064008D01*
X245350369Y-90029930D01*
X245379324Y-90014346D01*
X245476942Y-89906449D01*
X245532862Y-89739994D01*
X245544835Y-89544775D01*
X245510614Y-89350588D01*
X245440450Y-89204142D01*
X245328844Y-89109417D01*
X245201163Y-89094213D01*
X245078701Y-89148798D01*
X245078701Y-89148798D01*
G37*
X245078701Y-89148798D02*
X244982752Y-89263440D01*
X244934612Y-89428405D01*
X244934004Y-89435619D01*
X244937672Y-89690547D01*
X244987635Y-89885880D01*
X245077400Y-90013179D01*
X245200475Y-90064008D01*
X245350369Y-90029930D01*
X245379324Y-90014346D01*
X245476942Y-89906449D01*
X245532862Y-89739994D01*
X245544835Y-89544775D01*
X245510614Y-89350588D01*
X245440450Y-89204142D01*
X245328844Y-89109417D01*
X245201163Y-89094213D01*
X245078701Y-89148798D01*
G36*
X243702520Y-89164320D02*
X243628517Y-89256580D01*
X243591823Y-89365145D01*
X243580894Y-89527202D01*
X243580762Y-89556571D01*
X243589168Y-89730025D01*
X243621850Y-89844314D01*
X243690009Y-89936148D01*
X243699516Y-89945818D01*
X243794218Y-90031381D01*
X243868820Y-90055591D01*
X243968167Y-90028827D01*
X244001386Y-90015685D01*
X244098721Y-89929140D01*
X244164332Y-89779181D01*
X244194761Y-89594931D01*
X244186552Y-89405518D01*
X244136247Y-89240066D01*
X244100242Y-89182814D01*
X243974892Y-89084530D01*
X243836104Y-89079618D01*
X243702520Y-89164320D01*
X243702520Y-89164320D01*
G37*
X243702520Y-89164320D02*
X243628517Y-89256580D01*
X243591823Y-89365145D01*
X243580894Y-89527202D01*
X243580762Y-89556571D01*
X243589168Y-89730025D01*
X243621850Y-89844314D01*
X243690009Y-89936148D01*
X243699516Y-89945818D01*
X243794218Y-90031381D01*
X243868820Y-90055591D01*
X243968167Y-90028827D01*
X244001386Y-90015685D01*
X244098721Y-89929140D01*
X244164332Y-89779181D01*
X244194761Y-89594931D01*
X244186552Y-89405518D01*
X244136247Y-89240066D01*
X244100242Y-89182814D01*
X243974892Y-89084530D01*
X243836104Y-89079618D01*
X243702520Y-89164320D01*
G04 #@! TD*
M02*
