G04 #@! TF.GenerationSoftware,KiCad,Pcbnew,5.0.2-bee76a0~70~ubuntu18.04.1*
G04 #@! TF.CreationDate,2019-07-19T10:20:09+02:00*
G04 #@! TF.ProjectId,Plant_monitoring_device,506c616e-745f-46d6-9f6e-69746f72696e,rev?*
G04 #@! TF.SameCoordinates,Original*
G04 #@! TF.FileFunction,Paste,Top*
G04 #@! TF.FilePolarity,Positive*
%FSLAX46Y46*%
G04 Gerber Fmt 4.6, Leading zero omitted, Abs format (unit mm)*
G04 Created by KiCad (PCBNEW 5.0.2-bee76a0~70~ubuntu18.04.1) date Fri 19 Jul 2019 10:20:09 CEST*
%MOMM*%
%LPD*%
G01*
G04 APERTURE LIST*
%ADD10C,0.100000*%
%ADD11R,5.000000X5.000000*%
%ADD12R,2.000000X0.900000*%
%ADD13R,0.900000X2.000000*%
%ADD14C,1.250000*%
%ADD15R,1.450000X1.450000*%
%ADD16R,0.950000X0.875000*%
%ADD17R,1.200000X1.000000*%
%ADD18R,0.875000X0.950000*%
%ADD19C,0.875000*%
%ADD20R,1.500000X0.600000*%
%ADD21R,1.060000X0.650000*%
%ADD22R,0.900000X0.800000*%
%ADD23R,0.250000X0.600000*%
%ADD24R,1.700000X1.000000*%
G04 APERTURE END LIST*
D10*
G04 #@! TO.C,D1*
G36*
X199000000Y-131200000D02*
X197000000Y-131200000D01*
X197000000Y-134800000D01*
X199000000Y-134800000D01*
X199000000Y-131200000D01*
G37*
G36*
X196700000Y-131200000D02*
X194700000Y-131200000D01*
X194700000Y-134800000D01*
X196700000Y-134800000D01*
X196700000Y-131200000D01*
G37*
G04 #@! TD*
D11*
G04 #@! TO.C,U1*
X243930000Y-86980000D03*
D12*
X253445000Y-79495000D03*
X253445000Y-80765000D03*
X253445000Y-82035000D03*
X253445000Y-83305000D03*
X253445000Y-84575000D03*
X253445000Y-85845000D03*
X253445000Y-87115000D03*
X253445000Y-88385000D03*
X253445000Y-89655000D03*
X253445000Y-90925000D03*
X253445000Y-92195000D03*
X253445000Y-93465000D03*
X253445000Y-94735000D03*
X253445000Y-96005000D03*
D13*
X250660000Y-97005000D03*
X249390000Y-97005000D03*
X248120000Y-97005000D03*
X246850000Y-97005000D03*
X245580000Y-97005000D03*
X244310000Y-97005000D03*
X243040000Y-97005000D03*
X241770000Y-97005000D03*
X240500000Y-97005000D03*
X239230000Y-97005000D03*
D12*
X236445000Y-96005000D03*
X236445000Y-94735000D03*
X236445000Y-93465000D03*
X236445000Y-92195000D03*
X236445000Y-90925000D03*
X236445000Y-89655000D03*
X236445000Y-88385000D03*
X236445000Y-87115000D03*
X236445000Y-85845000D03*
X236445000Y-84575000D03*
X236445000Y-83305000D03*
X236445000Y-82035000D03*
X236445000Y-80765000D03*
X236445000Y-79495000D03*
G04 #@! TD*
D10*
G04 #@! TO.C,C31*
G36*
X202699504Y-125876204D02*
X202723773Y-125879804D01*
X202747571Y-125885765D01*
X202770671Y-125894030D01*
X202792849Y-125904520D01*
X202813893Y-125917133D01*
X202833598Y-125931747D01*
X202851777Y-125948223D01*
X202868253Y-125966402D01*
X202882867Y-125986107D01*
X202895480Y-126007151D01*
X202905970Y-126029329D01*
X202914235Y-126052429D01*
X202920196Y-126076227D01*
X202923796Y-126100496D01*
X202925000Y-126125000D01*
X202925000Y-126875000D01*
X202923796Y-126899504D01*
X202920196Y-126923773D01*
X202914235Y-126947571D01*
X202905970Y-126970671D01*
X202895480Y-126992849D01*
X202882867Y-127013893D01*
X202868253Y-127033598D01*
X202851777Y-127051777D01*
X202833598Y-127068253D01*
X202813893Y-127082867D01*
X202792849Y-127095480D01*
X202770671Y-127105970D01*
X202747571Y-127114235D01*
X202723773Y-127120196D01*
X202699504Y-127123796D01*
X202675000Y-127125000D01*
X200525000Y-127125000D01*
X200500496Y-127123796D01*
X200476227Y-127120196D01*
X200452429Y-127114235D01*
X200429329Y-127105970D01*
X200407151Y-127095480D01*
X200386107Y-127082867D01*
X200366402Y-127068253D01*
X200348223Y-127051777D01*
X200331747Y-127033598D01*
X200317133Y-127013893D01*
X200304520Y-126992849D01*
X200294030Y-126970671D01*
X200285765Y-126947571D01*
X200279804Y-126923773D01*
X200276204Y-126899504D01*
X200275000Y-126875000D01*
X200275000Y-126125000D01*
X200276204Y-126100496D01*
X200279804Y-126076227D01*
X200285765Y-126052429D01*
X200294030Y-126029329D01*
X200304520Y-126007151D01*
X200317133Y-125986107D01*
X200331747Y-125966402D01*
X200348223Y-125948223D01*
X200366402Y-125931747D01*
X200386107Y-125917133D01*
X200407151Y-125904520D01*
X200429329Y-125894030D01*
X200452429Y-125885765D01*
X200476227Y-125879804D01*
X200500496Y-125876204D01*
X200525000Y-125875000D01*
X202675000Y-125875000D01*
X202699504Y-125876204D01*
X202699504Y-125876204D01*
G37*
D14*
X201600000Y-126500000D03*
D10*
G36*
X202699504Y-128676204D02*
X202723773Y-128679804D01*
X202747571Y-128685765D01*
X202770671Y-128694030D01*
X202792849Y-128704520D01*
X202813893Y-128717133D01*
X202833598Y-128731747D01*
X202851777Y-128748223D01*
X202868253Y-128766402D01*
X202882867Y-128786107D01*
X202895480Y-128807151D01*
X202905970Y-128829329D01*
X202914235Y-128852429D01*
X202920196Y-128876227D01*
X202923796Y-128900496D01*
X202925000Y-128925000D01*
X202925000Y-129675000D01*
X202923796Y-129699504D01*
X202920196Y-129723773D01*
X202914235Y-129747571D01*
X202905970Y-129770671D01*
X202895480Y-129792849D01*
X202882867Y-129813893D01*
X202868253Y-129833598D01*
X202851777Y-129851777D01*
X202833598Y-129868253D01*
X202813893Y-129882867D01*
X202792849Y-129895480D01*
X202770671Y-129905970D01*
X202747571Y-129914235D01*
X202723773Y-129920196D01*
X202699504Y-129923796D01*
X202675000Y-129925000D01*
X200525000Y-129925000D01*
X200500496Y-129923796D01*
X200476227Y-129920196D01*
X200452429Y-129914235D01*
X200429329Y-129905970D01*
X200407151Y-129895480D01*
X200386107Y-129882867D01*
X200366402Y-129868253D01*
X200348223Y-129851777D01*
X200331747Y-129833598D01*
X200317133Y-129813893D01*
X200304520Y-129792849D01*
X200294030Y-129770671D01*
X200285765Y-129747571D01*
X200279804Y-129723773D01*
X200276204Y-129699504D01*
X200275000Y-129675000D01*
X200275000Y-128925000D01*
X200276204Y-128900496D01*
X200279804Y-128876227D01*
X200285765Y-128852429D01*
X200294030Y-128829329D01*
X200304520Y-128807151D01*
X200317133Y-128786107D01*
X200331747Y-128766402D01*
X200348223Y-128748223D01*
X200366402Y-128731747D01*
X200386107Y-128717133D01*
X200407151Y-128704520D01*
X200429329Y-128694030D01*
X200452429Y-128685765D01*
X200476227Y-128679804D01*
X200500496Y-128676204D01*
X200525000Y-128675000D01*
X202675000Y-128675000D01*
X202699504Y-128676204D01*
X202699504Y-128676204D01*
G37*
D14*
X201600000Y-129300000D03*
G04 #@! TD*
D15*
G04 #@! TO.C,D1*
X200900000Y-134000000D03*
X200900000Y-132000000D03*
G04 #@! TD*
D16*
G04 #@! TO.C,R7*
X196700000Y-81787500D03*
X196700000Y-80212500D03*
G04 #@! TD*
G04 #@! TO.C,R26*
X195200000Y-107287500D03*
X195200000Y-105712500D03*
G04 #@! TD*
G04 #@! TO.C,R25*
X195200000Y-97212500D03*
X195200000Y-98787500D03*
G04 #@! TD*
G04 #@! TO.C,R24*
X195200000Y-90287500D03*
X195200000Y-88712500D03*
G04 #@! TD*
G04 #@! TO.C,R23*
X195200000Y-80212500D03*
X195200000Y-81787500D03*
G04 #@! TD*
G04 #@! TO.C,R22*
X195200000Y-127287500D03*
X195200000Y-125712500D03*
G04 #@! TD*
G04 #@! TO.C,R21*
X195200000Y-122212500D03*
X195200000Y-123787500D03*
G04 #@! TD*
G04 #@! TO.C,R20*
X195200000Y-120337500D03*
X195200000Y-118762500D03*
G04 #@! TD*
G04 #@! TO.C,R19*
X195200000Y-115212500D03*
X195200000Y-116787500D03*
G04 #@! TD*
D17*
G04 #@! TO.C,LD1*
X217750000Y-108400000D03*
X222250000Y-108400000D03*
X217750000Y-110000000D03*
X222250000Y-110000000D03*
X217750000Y-111600000D03*
X222250000Y-111600000D03*
G04 #@! TD*
D18*
G04 #@! TO.C,R113*
X227712500Y-111500000D03*
X229287500Y-111500000D03*
G04 #@! TD*
G04 #@! TO.C,R111*
X229287500Y-108500000D03*
X227712500Y-108500000D03*
G04 #@! TD*
G04 #@! TO.C,R112*
X227712500Y-110000000D03*
X229287500Y-110000000D03*
G04 #@! TD*
D16*
G04 #@! TO.C,R13*
X233800000Y-82337500D03*
X233800000Y-80762500D03*
G04 #@! TD*
G04 #@! TO.C,R17*
X246950000Y-99612500D03*
X246950000Y-101187500D03*
G04 #@! TD*
G04 #@! TO.C,R15*
X248450000Y-99612500D03*
X248450000Y-101187500D03*
G04 #@! TD*
G04 #@! TO.C,R16*
X250675000Y-101187500D03*
X250675000Y-99612500D03*
G04 #@! TD*
D18*
G04 #@! TO.C,R11*
X252737500Y-113900000D03*
X251162500Y-113900000D03*
G04 #@! TD*
G04 #@! TO.C,R12*
X249737500Y-113900000D03*
X248162500Y-113900000D03*
G04 #@! TD*
D10*
G04 #@! TO.C,C22*
G36*
X232277691Y-132101053D02*
X232298926Y-132104203D01*
X232319750Y-132109419D01*
X232339962Y-132116651D01*
X232359368Y-132125830D01*
X232377781Y-132136866D01*
X232395024Y-132149654D01*
X232410930Y-132164070D01*
X232425346Y-132179976D01*
X232438134Y-132197219D01*
X232449170Y-132215632D01*
X232458349Y-132235038D01*
X232465581Y-132255250D01*
X232470797Y-132276074D01*
X232473947Y-132297309D01*
X232475000Y-132318750D01*
X232475000Y-132756250D01*
X232473947Y-132777691D01*
X232470797Y-132798926D01*
X232465581Y-132819750D01*
X232458349Y-132839962D01*
X232449170Y-132859368D01*
X232438134Y-132877781D01*
X232425346Y-132895024D01*
X232410930Y-132910930D01*
X232395024Y-132925346D01*
X232377781Y-132938134D01*
X232359368Y-132949170D01*
X232339962Y-132958349D01*
X232319750Y-132965581D01*
X232298926Y-132970797D01*
X232277691Y-132973947D01*
X232256250Y-132975000D01*
X231743750Y-132975000D01*
X231722309Y-132973947D01*
X231701074Y-132970797D01*
X231680250Y-132965581D01*
X231660038Y-132958349D01*
X231640632Y-132949170D01*
X231622219Y-132938134D01*
X231604976Y-132925346D01*
X231589070Y-132910930D01*
X231574654Y-132895024D01*
X231561866Y-132877781D01*
X231550830Y-132859368D01*
X231541651Y-132839962D01*
X231534419Y-132819750D01*
X231529203Y-132798926D01*
X231526053Y-132777691D01*
X231525000Y-132756250D01*
X231525000Y-132318750D01*
X231526053Y-132297309D01*
X231529203Y-132276074D01*
X231534419Y-132255250D01*
X231541651Y-132235038D01*
X231550830Y-132215632D01*
X231561866Y-132197219D01*
X231574654Y-132179976D01*
X231589070Y-132164070D01*
X231604976Y-132149654D01*
X231622219Y-132136866D01*
X231640632Y-132125830D01*
X231660038Y-132116651D01*
X231680250Y-132109419D01*
X231701074Y-132104203D01*
X231722309Y-132101053D01*
X231743750Y-132100000D01*
X232256250Y-132100000D01*
X232277691Y-132101053D01*
X232277691Y-132101053D01*
G37*
D19*
X232000000Y-132537500D03*
D10*
G36*
X232277691Y-130526053D02*
X232298926Y-130529203D01*
X232319750Y-130534419D01*
X232339962Y-130541651D01*
X232359368Y-130550830D01*
X232377781Y-130561866D01*
X232395024Y-130574654D01*
X232410930Y-130589070D01*
X232425346Y-130604976D01*
X232438134Y-130622219D01*
X232449170Y-130640632D01*
X232458349Y-130660038D01*
X232465581Y-130680250D01*
X232470797Y-130701074D01*
X232473947Y-130722309D01*
X232475000Y-130743750D01*
X232475000Y-131181250D01*
X232473947Y-131202691D01*
X232470797Y-131223926D01*
X232465581Y-131244750D01*
X232458349Y-131264962D01*
X232449170Y-131284368D01*
X232438134Y-131302781D01*
X232425346Y-131320024D01*
X232410930Y-131335930D01*
X232395024Y-131350346D01*
X232377781Y-131363134D01*
X232359368Y-131374170D01*
X232339962Y-131383349D01*
X232319750Y-131390581D01*
X232298926Y-131395797D01*
X232277691Y-131398947D01*
X232256250Y-131400000D01*
X231743750Y-131400000D01*
X231722309Y-131398947D01*
X231701074Y-131395797D01*
X231680250Y-131390581D01*
X231660038Y-131383349D01*
X231640632Y-131374170D01*
X231622219Y-131363134D01*
X231604976Y-131350346D01*
X231589070Y-131335930D01*
X231574654Y-131320024D01*
X231561866Y-131302781D01*
X231550830Y-131284368D01*
X231541651Y-131264962D01*
X231534419Y-131244750D01*
X231529203Y-131223926D01*
X231526053Y-131202691D01*
X231525000Y-131181250D01*
X231525000Y-130743750D01*
X231526053Y-130722309D01*
X231529203Y-130701074D01*
X231534419Y-130680250D01*
X231541651Y-130660038D01*
X231550830Y-130640632D01*
X231561866Y-130622219D01*
X231574654Y-130604976D01*
X231589070Y-130589070D01*
X231604976Y-130574654D01*
X231622219Y-130561866D01*
X231640632Y-130550830D01*
X231660038Y-130541651D01*
X231680250Y-130534419D01*
X231701074Y-130529203D01*
X231722309Y-130526053D01*
X231743750Y-130525000D01*
X232256250Y-130525000D01*
X232277691Y-130526053D01*
X232277691Y-130526053D01*
G37*
D19*
X232000000Y-130962500D03*
G04 #@! TD*
D10*
G04 #@! TO.C,C21*
G36*
X235849504Y-130226204D02*
X235873773Y-130229804D01*
X235897571Y-130235765D01*
X235920671Y-130244030D01*
X235942849Y-130254520D01*
X235963893Y-130267133D01*
X235983598Y-130281747D01*
X236001777Y-130298223D01*
X236018253Y-130316402D01*
X236032867Y-130336107D01*
X236045480Y-130357151D01*
X236055970Y-130379329D01*
X236064235Y-130402429D01*
X236070196Y-130426227D01*
X236073796Y-130450496D01*
X236075000Y-130475000D01*
X236075000Y-131225000D01*
X236073796Y-131249504D01*
X236070196Y-131273773D01*
X236064235Y-131297571D01*
X236055970Y-131320671D01*
X236045480Y-131342849D01*
X236032867Y-131363893D01*
X236018253Y-131383598D01*
X236001777Y-131401777D01*
X235983598Y-131418253D01*
X235963893Y-131432867D01*
X235942849Y-131445480D01*
X235920671Y-131455970D01*
X235897571Y-131464235D01*
X235873773Y-131470196D01*
X235849504Y-131473796D01*
X235825000Y-131475000D01*
X233675000Y-131475000D01*
X233650496Y-131473796D01*
X233626227Y-131470196D01*
X233602429Y-131464235D01*
X233579329Y-131455970D01*
X233557151Y-131445480D01*
X233536107Y-131432867D01*
X233516402Y-131418253D01*
X233498223Y-131401777D01*
X233481747Y-131383598D01*
X233467133Y-131363893D01*
X233454520Y-131342849D01*
X233444030Y-131320671D01*
X233435765Y-131297571D01*
X233429804Y-131273773D01*
X233426204Y-131249504D01*
X233425000Y-131225000D01*
X233425000Y-130475000D01*
X233426204Y-130450496D01*
X233429804Y-130426227D01*
X233435765Y-130402429D01*
X233444030Y-130379329D01*
X233454520Y-130357151D01*
X233467133Y-130336107D01*
X233481747Y-130316402D01*
X233498223Y-130298223D01*
X233516402Y-130281747D01*
X233536107Y-130267133D01*
X233557151Y-130254520D01*
X233579329Y-130244030D01*
X233602429Y-130235765D01*
X233626227Y-130229804D01*
X233650496Y-130226204D01*
X233675000Y-130225000D01*
X235825000Y-130225000D01*
X235849504Y-130226204D01*
X235849504Y-130226204D01*
G37*
D14*
X234750000Y-130850000D03*
D10*
G36*
X235849504Y-133026204D02*
X235873773Y-133029804D01*
X235897571Y-133035765D01*
X235920671Y-133044030D01*
X235942849Y-133054520D01*
X235963893Y-133067133D01*
X235983598Y-133081747D01*
X236001777Y-133098223D01*
X236018253Y-133116402D01*
X236032867Y-133136107D01*
X236045480Y-133157151D01*
X236055970Y-133179329D01*
X236064235Y-133202429D01*
X236070196Y-133226227D01*
X236073796Y-133250496D01*
X236075000Y-133275000D01*
X236075000Y-134025000D01*
X236073796Y-134049504D01*
X236070196Y-134073773D01*
X236064235Y-134097571D01*
X236055970Y-134120671D01*
X236045480Y-134142849D01*
X236032867Y-134163893D01*
X236018253Y-134183598D01*
X236001777Y-134201777D01*
X235983598Y-134218253D01*
X235963893Y-134232867D01*
X235942849Y-134245480D01*
X235920671Y-134255970D01*
X235897571Y-134264235D01*
X235873773Y-134270196D01*
X235849504Y-134273796D01*
X235825000Y-134275000D01*
X233675000Y-134275000D01*
X233650496Y-134273796D01*
X233626227Y-134270196D01*
X233602429Y-134264235D01*
X233579329Y-134255970D01*
X233557151Y-134245480D01*
X233536107Y-134232867D01*
X233516402Y-134218253D01*
X233498223Y-134201777D01*
X233481747Y-134183598D01*
X233467133Y-134163893D01*
X233454520Y-134142849D01*
X233444030Y-134120671D01*
X233435765Y-134097571D01*
X233429804Y-134073773D01*
X233426204Y-134049504D01*
X233425000Y-134025000D01*
X233425000Y-133275000D01*
X233426204Y-133250496D01*
X233429804Y-133226227D01*
X233435765Y-133202429D01*
X233444030Y-133179329D01*
X233454520Y-133157151D01*
X233467133Y-133136107D01*
X233481747Y-133116402D01*
X233498223Y-133098223D01*
X233516402Y-133081747D01*
X233536107Y-133067133D01*
X233557151Y-133054520D01*
X233579329Y-133044030D01*
X233602429Y-133035765D01*
X233626227Y-133029804D01*
X233650496Y-133026204D01*
X233675000Y-133025000D01*
X235825000Y-133025000D01*
X235849504Y-133026204D01*
X235849504Y-133026204D01*
G37*
D14*
X234750000Y-133650000D03*
G04 #@! TD*
D10*
G04 #@! TO.C,C33*
G36*
X214999504Y-135176204D02*
X215023773Y-135179804D01*
X215047571Y-135185765D01*
X215070671Y-135194030D01*
X215092849Y-135204520D01*
X215113893Y-135217133D01*
X215133598Y-135231747D01*
X215151777Y-135248223D01*
X215168253Y-135266402D01*
X215182867Y-135286107D01*
X215195480Y-135307151D01*
X215205970Y-135329329D01*
X215214235Y-135352429D01*
X215220196Y-135376227D01*
X215223796Y-135400496D01*
X215225000Y-135425000D01*
X215225000Y-137575000D01*
X215223796Y-137599504D01*
X215220196Y-137623773D01*
X215214235Y-137647571D01*
X215205970Y-137670671D01*
X215195480Y-137692849D01*
X215182867Y-137713893D01*
X215168253Y-137733598D01*
X215151777Y-137751777D01*
X215133598Y-137768253D01*
X215113893Y-137782867D01*
X215092849Y-137795480D01*
X215070671Y-137805970D01*
X215047571Y-137814235D01*
X215023773Y-137820196D01*
X214999504Y-137823796D01*
X214975000Y-137825000D01*
X214225000Y-137825000D01*
X214200496Y-137823796D01*
X214176227Y-137820196D01*
X214152429Y-137814235D01*
X214129329Y-137805970D01*
X214107151Y-137795480D01*
X214086107Y-137782867D01*
X214066402Y-137768253D01*
X214048223Y-137751777D01*
X214031747Y-137733598D01*
X214017133Y-137713893D01*
X214004520Y-137692849D01*
X213994030Y-137670671D01*
X213985765Y-137647571D01*
X213979804Y-137623773D01*
X213976204Y-137599504D01*
X213975000Y-137575000D01*
X213975000Y-135425000D01*
X213976204Y-135400496D01*
X213979804Y-135376227D01*
X213985765Y-135352429D01*
X213994030Y-135329329D01*
X214004520Y-135307151D01*
X214017133Y-135286107D01*
X214031747Y-135266402D01*
X214048223Y-135248223D01*
X214066402Y-135231747D01*
X214086107Y-135217133D01*
X214107151Y-135204520D01*
X214129329Y-135194030D01*
X214152429Y-135185765D01*
X214176227Y-135179804D01*
X214200496Y-135176204D01*
X214225000Y-135175000D01*
X214975000Y-135175000D01*
X214999504Y-135176204D01*
X214999504Y-135176204D01*
G37*
D14*
X214600000Y-136500000D03*
D10*
G36*
X217799504Y-135176204D02*
X217823773Y-135179804D01*
X217847571Y-135185765D01*
X217870671Y-135194030D01*
X217892849Y-135204520D01*
X217913893Y-135217133D01*
X217933598Y-135231747D01*
X217951777Y-135248223D01*
X217968253Y-135266402D01*
X217982867Y-135286107D01*
X217995480Y-135307151D01*
X218005970Y-135329329D01*
X218014235Y-135352429D01*
X218020196Y-135376227D01*
X218023796Y-135400496D01*
X218025000Y-135425000D01*
X218025000Y-137575000D01*
X218023796Y-137599504D01*
X218020196Y-137623773D01*
X218014235Y-137647571D01*
X218005970Y-137670671D01*
X217995480Y-137692849D01*
X217982867Y-137713893D01*
X217968253Y-137733598D01*
X217951777Y-137751777D01*
X217933598Y-137768253D01*
X217913893Y-137782867D01*
X217892849Y-137795480D01*
X217870671Y-137805970D01*
X217847571Y-137814235D01*
X217823773Y-137820196D01*
X217799504Y-137823796D01*
X217775000Y-137825000D01*
X217025000Y-137825000D01*
X217000496Y-137823796D01*
X216976227Y-137820196D01*
X216952429Y-137814235D01*
X216929329Y-137805970D01*
X216907151Y-137795480D01*
X216886107Y-137782867D01*
X216866402Y-137768253D01*
X216848223Y-137751777D01*
X216831747Y-137733598D01*
X216817133Y-137713893D01*
X216804520Y-137692849D01*
X216794030Y-137670671D01*
X216785765Y-137647571D01*
X216779804Y-137623773D01*
X216776204Y-137599504D01*
X216775000Y-137575000D01*
X216775000Y-135425000D01*
X216776204Y-135400496D01*
X216779804Y-135376227D01*
X216785765Y-135352429D01*
X216794030Y-135329329D01*
X216804520Y-135307151D01*
X216817133Y-135286107D01*
X216831747Y-135266402D01*
X216848223Y-135248223D01*
X216866402Y-135231747D01*
X216886107Y-135217133D01*
X216907151Y-135204520D01*
X216929329Y-135194030D01*
X216952429Y-135185765D01*
X216976227Y-135179804D01*
X217000496Y-135176204D01*
X217025000Y-135175000D01*
X217775000Y-135175000D01*
X217799504Y-135176204D01*
X217799504Y-135176204D01*
G37*
D14*
X217400000Y-136500000D03*
G04 #@! TD*
D10*
G04 #@! TO.C,C35*
G36*
X208452691Y-133526053D02*
X208473926Y-133529203D01*
X208494750Y-133534419D01*
X208514962Y-133541651D01*
X208534368Y-133550830D01*
X208552781Y-133561866D01*
X208570024Y-133574654D01*
X208585930Y-133589070D01*
X208600346Y-133604976D01*
X208613134Y-133622219D01*
X208624170Y-133640632D01*
X208633349Y-133660038D01*
X208640581Y-133680250D01*
X208645797Y-133701074D01*
X208648947Y-133722309D01*
X208650000Y-133743750D01*
X208650000Y-134256250D01*
X208648947Y-134277691D01*
X208645797Y-134298926D01*
X208640581Y-134319750D01*
X208633349Y-134339962D01*
X208624170Y-134359368D01*
X208613134Y-134377781D01*
X208600346Y-134395024D01*
X208585930Y-134410930D01*
X208570024Y-134425346D01*
X208552781Y-134438134D01*
X208534368Y-134449170D01*
X208514962Y-134458349D01*
X208494750Y-134465581D01*
X208473926Y-134470797D01*
X208452691Y-134473947D01*
X208431250Y-134475000D01*
X207993750Y-134475000D01*
X207972309Y-134473947D01*
X207951074Y-134470797D01*
X207930250Y-134465581D01*
X207910038Y-134458349D01*
X207890632Y-134449170D01*
X207872219Y-134438134D01*
X207854976Y-134425346D01*
X207839070Y-134410930D01*
X207824654Y-134395024D01*
X207811866Y-134377781D01*
X207800830Y-134359368D01*
X207791651Y-134339962D01*
X207784419Y-134319750D01*
X207779203Y-134298926D01*
X207776053Y-134277691D01*
X207775000Y-134256250D01*
X207775000Y-133743750D01*
X207776053Y-133722309D01*
X207779203Y-133701074D01*
X207784419Y-133680250D01*
X207791651Y-133660038D01*
X207800830Y-133640632D01*
X207811866Y-133622219D01*
X207824654Y-133604976D01*
X207839070Y-133589070D01*
X207854976Y-133574654D01*
X207872219Y-133561866D01*
X207890632Y-133550830D01*
X207910038Y-133541651D01*
X207930250Y-133534419D01*
X207951074Y-133529203D01*
X207972309Y-133526053D01*
X207993750Y-133525000D01*
X208431250Y-133525000D01*
X208452691Y-133526053D01*
X208452691Y-133526053D01*
G37*
D19*
X208212500Y-134000000D03*
D10*
G36*
X210027691Y-133526053D02*
X210048926Y-133529203D01*
X210069750Y-133534419D01*
X210089962Y-133541651D01*
X210109368Y-133550830D01*
X210127781Y-133561866D01*
X210145024Y-133574654D01*
X210160930Y-133589070D01*
X210175346Y-133604976D01*
X210188134Y-133622219D01*
X210199170Y-133640632D01*
X210208349Y-133660038D01*
X210215581Y-133680250D01*
X210220797Y-133701074D01*
X210223947Y-133722309D01*
X210225000Y-133743750D01*
X210225000Y-134256250D01*
X210223947Y-134277691D01*
X210220797Y-134298926D01*
X210215581Y-134319750D01*
X210208349Y-134339962D01*
X210199170Y-134359368D01*
X210188134Y-134377781D01*
X210175346Y-134395024D01*
X210160930Y-134410930D01*
X210145024Y-134425346D01*
X210127781Y-134438134D01*
X210109368Y-134449170D01*
X210089962Y-134458349D01*
X210069750Y-134465581D01*
X210048926Y-134470797D01*
X210027691Y-134473947D01*
X210006250Y-134475000D01*
X209568750Y-134475000D01*
X209547309Y-134473947D01*
X209526074Y-134470797D01*
X209505250Y-134465581D01*
X209485038Y-134458349D01*
X209465632Y-134449170D01*
X209447219Y-134438134D01*
X209429976Y-134425346D01*
X209414070Y-134410930D01*
X209399654Y-134395024D01*
X209386866Y-134377781D01*
X209375830Y-134359368D01*
X209366651Y-134339962D01*
X209359419Y-134319750D01*
X209354203Y-134298926D01*
X209351053Y-134277691D01*
X209350000Y-134256250D01*
X209350000Y-133743750D01*
X209351053Y-133722309D01*
X209354203Y-133701074D01*
X209359419Y-133680250D01*
X209366651Y-133660038D01*
X209375830Y-133640632D01*
X209386866Y-133622219D01*
X209399654Y-133604976D01*
X209414070Y-133589070D01*
X209429976Y-133574654D01*
X209447219Y-133561866D01*
X209465632Y-133550830D01*
X209485038Y-133541651D01*
X209505250Y-133534419D01*
X209526074Y-133529203D01*
X209547309Y-133526053D01*
X209568750Y-133525000D01*
X210006250Y-133525000D01*
X210027691Y-133526053D01*
X210027691Y-133526053D01*
G37*
D19*
X209787500Y-134000000D03*
G04 #@! TD*
D10*
G04 #@! TO.C,L31*
G36*
X208499504Y-135176204D02*
X208523773Y-135179804D01*
X208547571Y-135185765D01*
X208570671Y-135194030D01*
X208592849Y-135204520D01*
X208613893Y-135217133D01*
X208633598Y-135231747D01*
X208651777Y-135248223D01*
X208668253Y-135266402D01*
X208682867Y-135286107D01*
X208695480Y-135307151D01*
X208705970Y-135329329D01*
X208714235Y-135352429D01*
X208720196Y-135376227D01*
X208723796Y-135400496D01*
X208725000Y-135425000D01*
X208725000Y-137575000D01*
X208723796Y-137599504D01*
X208720196Y-137623773D01*
X208714235Y-137647571D01*
X208705970Y-137670671D01*
X208695480Y-137692849D01*
X208682867Y-137713893D01*
X208668253Y-137733598D01*
X208651777Y-137751777D01*
X208633598Y-137768253D01*
X208613893Y-137782867D01*
X208592849Y-137795480D01*
X208570671Y-137805970D01*
X208547571Y-137814235D01*
X208523773Y-137820196D01*
X208499504Y-137823796D01*
X208475000Y-137825000D01*
X207725000Y-137825000D01*
X207700496Y-137823796D01*
X207676227Y-137820196D01*
X207652429Y-137814235D01*
X207629329Y-137805970D01*
X207607151Y-137795480D01*
X207586107Y-137782867D01*
X207566402Y-137768253D01*
X207548223Y-137751777D01*
X207531747Y-137733598D01*
X207517133Y-137713893D01*
X207504520Y-137692849D01*
X207494030Y-137670671D01*
X207485765Y-137647571D01*
X207479804Y-137623773D01*
X207476204Y-137599504D01*
X207475000Y-137575000D01*
X207475000Y-135425000D01*
X207476204Y-135400496D01*
X207479804Y-135376227D01*
X207485765Y-135352429D01*
X207494030Y-135329329D01*
X207504520Y-135307151D01*
X207517133Y-135286107D01*
X207531747Y-135266402D01*
X207548223Y-135248223D01*
X207566402Y-135231747D01*
X207586107Y-135217133D01*
X207607151Y-135204520D01*
X207629329Y-135194030D01*
X207652429Y-135185765D01*
X207676227Y-135179804D01*
X207700496Y-135176204D01*
X207725000Y-135175000D01*
X208475000Y-135175000D01*
X208499504Y-135176204D01*
X208499504Y-135176204D01*
G37*
D14*
X208100000Y-136500000D03*
D10*
G36*
X211299504Y-135176204D02*
X211323773Y-135179804D01*
X211347571Y-135185765D01*
X211370671Y-135194030D01*
X211392849Y-135204520D01*
X211413893Y-135217133D01*
X211433598Y-135231747D01*
X211451777Y-135248223D01*
X211468253Y-135266402D01*
X211482867Y-135286107D01*
X211495480Y-135307151D01*
X211505970Y-135329329D01*
X211514235Y-135352429D01*
X211520196Y-135376227D01*
X211523796Y-135400496D01*
X211525000Y-135425000D01*
X211525000Y-137575000D01*
X211523796Y-137599504D01*
X211520196Y-137623773D01*
X211514235Y-137647571D01*
X211505970Y-137670671D01*
X211495480Y-137692849D01*
X211482867Y-137713893D01*
X211468253Y-137733598D01*
X211451777Y-137751777D01*
X211433598Y-137768253D01*
X211413893Y-137782867D01*
X211392849Y-137795480D01*
X211370671Y-137805970D01*
X211347571Y-137814235D01*
X211323773Y-137820196D01*
X211299504Y-137823796D01*
X211275000Y-137825000D01*
X210525000Y-137825000D01*
X210500496Y-137823796D01*
X210476227Y-137820196D01*
X210452429Y-137814235D01*
X210429329Y-137805970D01*
X210407151Y-137795480D01*
X210386107Y-137782867D01*
X210366402Y-137768253D01*
X210348223Y-137751777D01*
X210331747Y-137733598D01*
X210317133Y-137713893D01*
X210304520Y-137692849D01*
X210294030Y-137670671D01*
X210285765Y-137647571D01*
X210279804Y-137623773D01*
X210276204Y-137599504D01*
X210275000Y-137575000D01*
X210275000Y-135425000D01*
X210276204Y-135400496D01*
X210279804Y-135376227D01*
X210285765Y-135352429D01*
X210294030Y-135329329D01*
X210304520Y-135307151D01*
X210317133Y-135286107D01*
X210331747Y-135266402D01*
X210348223Y-135248223D01*
X210366402Y-135231747D01*
X210386107Y-135217133D01*
X210407151Y-135204520D01*
X210429329Y-135194030D01*
X210452429Y-135185765D01*
X210476227Y-135179804D01*
X210500496Y-135176204D01*
X210525000Y-135175000D01*
X211275000Y-135175000D01*
X211299504Y-135176204D01*
X211299504Y-135176204D01*
G37*
D14*
X210900000Y-136500000D03*
G04 #@! TD*
D16*
G04 #@! TO.C,R31*
X205500000Y-129712500D03*
X205500000Y-131287500D03*
G04 #@! TD*
G04 #@! TO.C,R32*
X212750000Y-134037500D03*
X212750000Y-132462500D03*
G04 #@! TD*
G04 #@! TO.C,R33*
X212750000Y-129212500D03*
X212750000Y-130787500D03*
G04 #@! TD*
D20*
G04 #@! TO.C,U2*
X229950000Y-137310000D03*
X229950000Y-136040000D03*
X229950000Y-134770000D03*
X229950000Y-133500000D03*
X229950000Y-132230000D03*
X229950000Y-130960000D03*
X229950000Y-129690000D03*
X224550000Y-129690000D03*
X224550000Y-130960000D03*
X224550000Y-132230000D03*
X224550000Y-133500000D03*
X224550000Y-134770000D03*
X224550000Y-136040000D03*
X224550000Y-137310000D03*
G04 #@! TD*
D21*
G04 #@! TO.C,U3*
X210100000Y-131950000D03*
X210100000Y-131000000D03*
X210100000Y-130050000D03*
X207900000Y-130050000D03*
X207900000Y-131950000D03*
X207900000Y-131000000D03*
G04 #@! TD*
D10*
G04 #@! TO.C,C32*
G36*
X204277691Y-129276053D02*
X204298926Y-129279203D01*
X204319750Y-129284419D01*
X204339962Y-129291651D01*
X204359368Y-129300830D01*
X204377781Y-129311866D01*
X204395024Y-129324654D01*
X204410930Y-129339070D01*
X204425346Y-129354976D01*
X204438134Y-129372219D01*
X204449170Y-129390632D01*
X204458349Y-129410038D01*
X204465581Y-129430250D01*
X204470797Y-129451074D01*
X204473947Y-129472309D01*
X204475000Y-129493750D01*
X204475000Y-129931250D01*
X204473947Y-129952691D01*
X204470797Y-129973926D01*
X204465581Y-129994750D01*
X204458349Y-130014962D01*
X204449170Y-130034368D01*
X204438134Y-130052781D01*
X204425346Y-130070024D01*
X204410930Y-130085930D01*
X204395024Y-130100346D01*
X204377781Y-130113134D01*
X204359368Y-130124170D01*
X204339962Y-130133349D01*
X204319750Y-130140581D01*
X204298926Y-130145797D01*
X204277691Y-130148947D01*
X204256250Y-130150000D01*
X203743750Y-130150000D01*
X203722309Y-130148947D01*
X203701074Y-130145797D01*
X203680250Y-130140581D01*
X203660038Y-130133349D01*
X203640632Y-130124170D01*
X203622219Y-130113134D01*
X203604976Y-130100346D01*
X203589070Y-130085930D01*
X203574654Y-130070024D01*
X203561866Y-130052781D01*
X203550830Y-130034368D01*
X203541651Y-130014962D01*
X203534419Y-129994750D01*
X203529203Y-129973926D01*
X203526053Y-129952691D01*
X203525000Y-129931250D01*
X203525000Y-129493750D01*
X203526053Y-129472309D01*
X203529203Y-129451074D01*
X203534419Y-129430250D01*
X203541651Y-129410038D01*
X203550830Y-129390632D01*
X203561866Y-129372219D01*
X203574654Y-129354976D01*
X203589070Y-129339070D01*
X203604976Y-129324654D01*
X203622219Y-129311866D01*
X203640632Y-129300830D01*
X203660038Y-129291651D01*
X203680250Y-129284419D01*
X203701074Y-129279203D01*
X203722309Y-129276053D01*
X203743750Y-129275000D01*
X204256250Y-129275000D01*
X204277691Y-129276053D01*
X204277691Y-129276053D01*
G37*
D19*
X204000000Y-129712500D03*
D10*
G36*
X204277691Y-130851053D02*
X204298926Y-130854203D01*
X204319750Y-130859419D01*
X204339962Y-130866651D01*
X204359368Y-130875830D01*
X204377781Y-130886866D01*
X204395024Y-130899654D01*
X204410930Y-130914070D01*
X204425346Y-130929976D01*
X204438134Y-130947219D01*
X204449170Y-130965632D01*
X204458349Y-130985038D01*
X204465581Y-131005250D01*
X204470797Y-131026074D01*
X204473947Y-131047309D01*
X204475000Y-131068750D01*
X204475000Y-131506250D01*
X204473947Y-131527691D01*
X204470797Y-131548926D01*
X204465581Y-131569750D01*
X204458349Y-131589962D01*
X204449170Y-131609368D01*
X204438134Y-131627781D01*
X204425346Y-131645024D01*
X204410930Y-131660930D01*
X204395024Y-131675346D01*
X204377781Y-131688134D01*
X204359368Y-131699170D01*
X204339962Y-131708349D01*
X204319750Y-131715581D01*
X204298926Y-131720797D01*
X204277691Y-131723947D01*
X204256250Y-131725000D01*
X203743750Y-131725000D01*
X203722309Y-131723947D01*
X203701074Y-131720797D01*
X203680250Y-131715581D01*
X203660038Y-131708349D01*
X203640632Y-131699170D01*
X203622219Y-131688134D01*
X203604976Y-131675346D01*
X203589070Y-131660930D01*
X203574654Y-131645024D01*
X203561866Y-131627781D01*
X203550830Y-131609368D01*
X203541651Y-131589962D01*
X203534419Y-131569750D01*
X203529203Y-131548926D01*
X203526053Y-131527691D01*
X203525000Y-131506250D01*
X203525000Y-131068750D01*
X203526053Y-131047309D01*
X203529203Y-131026074D01*
X203534419Y-131005250D01*
X203541651Y-130985038D01*
X203550830Y-130965632D01*
X203561866Y-130947219D01*
X203574654Y-130929976D01*
X203589070Y-130914070D01*
X203604976Y-130899654D01*
X203622219Y-130886866D01*
X203640632Y-130875830D01*
X203660038Y-130866651D01*
X203680250Y-130859419D01*
X203701074Y-130854203D01*
X203722309Y-130851053D01*
X203743750Y-130850000D01*
X204256250Y-130850000D01*
X204277691Y-130851053D01*
X204277691Y-130851053D01*
G37*
D19*
X204000000Y-131287500D03*
G04 #@! TD*
D10*
G04 #@! TO.C,C12*
G36*
X231077691Y-80326053D02*
X231098926Y-80329203D01*
X231119750Y-80334419D01*
X231139962Y-80341651D01*
X231159368Y-80350830D01*
X231177781Y-80361866D01*
X231195024Y-80374654D01*
X231210930Y-80389070D01*
X231225346Y-80404976D01*
X231238134Y-80422219D01*
X231249170Y-80440632D01*
X231258349Y-80460038D01*
X231265581Y-80480250D01*
X231270797Y-80501074D01*
X231273947Y-80522309D01*
X231275000Y-80543750D01*
X231275000Y-80981250D01*
X231273947Y-81002691D01*
X231270797Y-81023926D01*
X231265581Y-81044750D01*
X231258349Y-81064962D01*
X231249170Y-81084368D01*
X231238134Y-81102781D01*
X231225346Y-81120024D01*
X231210930Y-81135930D01*
X231195024Y-81150346D01*
X231177781Y-81163134D01*
X231159368Y-81174170D01*
X231139962Y-81183349D01*
X231119750Y-81190581D01*
X231098926Y-81195797D01*
X231077691Y-81198947D01*
X231056250Y-81200000D01*
X230543750Y-81200000D01*
X230522309Y-81198947D01*
X230501074Y-81195797D01*
X230480250Y-81190581D01*
X230460038Y-81183349D01*
X230440632Y-81174170D01*
X230422219Y-81163134D01*
X230404976Y-81150346D01*
X230389070Y-81135930D01*
X230374654Y-81120024D01*
X230361866Y-81102781D01*
X230350830Y-81084368D01*
X230341651Y-81064962D01*
X230334419Y-81044750D01*
X230329203Y-81023926D01*
X230326053Y-81002691D01*
X230325000Y-80981250D01*
X230325000Y-80543750D01*
X230326053Y-80522309D01*
X230329203Y-80501074D01*
X230334419Y-80480250D01*
X230341651Y-80460038D01*
X230350830Y-80440632D01*
X230361866Y-80422219D01*
X230374654Y-80404976D01*
X230389070Y-80389070D01*
X230404976Y-80374654D01*
X230422219Y-80361866D01*
X230440632Y-80350830D01*
X230460038Y-80341651D01*
X230480250Y-80334419D01*
X230501074Y-80329203D01*
X230522309Y-80326053D01*
X230543750Y-80325000D01*
X231056250Y-80325000D01*
X231077691Y-80326053D01*
X231077691Y-80326053D01*
G37*
D19*
X230800000Y-80762500D03*
D10*
G36*
X231077691Y-81901053D02*
X231098926Y-81904203D01*
X231119750Y-81909419D01*
X231139962Y-81916651D01*
X231159368Y-81925830D01*
X231177781Y-81936866D01*
X231195024Y-81949654D01*
X231210930Y-81964070D01*
X231225346Y-81979976D01*
X231238134Y-81997219D01*
X231249170Y-82015632D01*
X231258349Y-82035038D01*
X231265581Y-82055250D01*
X231270797Y-82076074D01*
X231273947Y-82097309D01*
X231275000Y-82118750D01*
X231275000Y-82556250D01*
X231273947Y-82577691D01*
X231270797Y-82598926D01*
X231265581Y-82619750D01*
X231258349Y-82639962D01*
X231249170Y-82659368D01*
X231238134Y-82677781D01*
X231225346Y-82695024D01*
X231210930Y-82710930D01*
X231195024Y-82725346D01*
X231177781Y-82738134D01*
X231159368Y-82749170D01*
X231139962Y-82758349D01*
X231119750Y-82765581D01*
X231098926Y-82770797D01*
X231077691Y-82773947D01*
X231056250Y-82775000D01*
X230543750Y-82775000D01*
X230522309Y-82773947D01*
X230501074Y-82770797D01*
X230480250Y-82765581D01*
X230460038Y-82758349D01*
X230440632Y-82749170D01*
X230422219Y-82738134D01*
X230404976Y-82725346D01*
X230389070Y-82710930D01*
X230374654Y-82695024D01*
X230361866Y-82677781D01*
X230350830Y-82659368D01*
X230341651Y-82639962D01*
X230334419Y-82619750D01*
X230329203Y-82598926D01*
X230326053Y-82577691D01*
X230325000Y-82556250D01*
X230325000Y-82118750D01*
X230326053Y-82097309D01*
X230329203Y-82076074D01*
X230334419Y-82055250D01*
X230341651Y-82035038D01*
X230350830Y-82015632D01*
X230361866Y-81997219D01*
X230374654Y-81979976D01*
X230389070Y-81964070D01*
X230404976Y-81949654D01*
X230422219Y-81936866D01*
X230440632Y-81925830D01*
X230460038Y-81916651D01*
X230480250Y-81909419D01*
X230501074Y-81904203D01*
X230522309Y-81901053D01*
X230543750Y-81900000D01*
X231056250Y-81900000D01*
X231077691Y-81901053D01*
X231077691Y-81901053D01*
G37*
D19*
X230800000Y-82337500D03*
G04 #@! TD*
D10*
G04 #@! TO.C,C11*
G36*
X232577691Y-81901053D02*
X232598926Y-81904203D01*
X232619750Y-81909419D01*
X232639962Y-81916651D01*
X232659368Y-81925830D01*
X232677781Y-81936866D01*
X232695024Y-81949654D01*
X232710930Y-81964070D01*
X232725346Y-81979976D01*
X232738134Y-81997219D01*
X232749170Y-82015632D01*
X232758349Y-82035038D01*
X232765581Y-82055250D01*
X232770797Y-82076074D01*
X232773947Y-82097309D01*
X232775000Y-82118750D01*
X232775000Y-82556250D01*
X232773947Y-82577691D01*
X232770797Y-82598926D01*
X232765581Y-82619750D01*
X232758349Y-82639962D01*
X232749170Y-82659368D01*
X232738134Y-82677781D01*
X232725346Y-82695024D01*
X232710930Y-82710930D01*
X232695024Y-82725346D01*
X232677781Y-82738134D01*
X232659368Y-82749170D01*
X232639962Y-82758349D01*
X232619750Y-82765581D01*
X232598926Y-82770797D01*
X232577691Y-82773947D01*
X232556250Y-82775000D01*
X232043750Y-82775000D01*
X232022309Y-82773947D01*
X232001074Y-82770797D01*
X231980250Y-82765581D01*
X231960038Y-82758349D01*
X231940632Y-82749170D01*
X231922219Y-82738134D01*
X231904976Y-82725346D01*
X231889070Y-82710930D01*
X231874654Y-82695024D01*
X231861866Y-82677781D01*
X231850830Y-82659368D01*
X231841651Y-82639962D01*
X231834419Y-82619750D01*
X231829203Y-82598926D01*
X231826053Y-82577691D01*
X231825000Y-82556250D01*
X231825000Y-82118750D01*
X231826053Y-82097309D01*
X231829203Y-82076074D01*
X231834419Y-82055250D01*
X231841651Y-82035038D01*
X231850830Y-82015632D01*
X231861866Y-81997219D01*
X231874654Y-81979976D01*
X231889070Y-81964070D01*
X231904976Y-81949654D01*
X231922219Y-81936866D01*
X231940632Y-81925830D01*
X231960038Y-81916651D01*
X231980250Y-81909419D01*
X232001074Y-81904203D01*
X232022309Y-81901053D01*
X232043750Y-81900000D01*
X232556250Y-81900000D01*
X232577691Y-81901053D01*
X232577691Y-81901053D01*
G37*
D19*
X232300000Y-82337500D03*
D10*
G36*
X232577691Y-80326053D02*
X232598926Y-80329203D01*
X232619750Y-80334419D01*
X232639962Y-80341651D01*
X232659368Y-80350830D01*
X232677781Y-80361866D01*
X232695024Y-80374654D01*
X232710930Y-80389070D01*
X232725346Y-80404976D01*
X232738134Y-80422219D01*
X232749170Y-80440632D01*
X232758349Y-80460038D01*
X232765581Y-80480250D01*
X232770797Y-80501074D01*
X232773947Y-80522309D01*
X232775000Y-80543750D01*
X232775000Y-80981250D01*
X232773947Y-81002691D01*
X232770797Y-81023926D01*
X232765581Y-81044750D01*
X232758349Y-81064962D01*
X232749170Y-81084368D01*
X232738134Y-81102781D01*
X232725346Y-81120024D01*
X232710930Y-81135930D01*
X232695024Y-81150346D01*
X232677781Y-81163134D01*
X232659368Y-81174170D01*
X232639962Y-81183349D01*
X232619750Y-81190581D01*
X232598926Y-81195797D01*
X232577691Y-81198947D01*
X232556250Y-81200000D01*
X232043750Y-81200000D01*
X232022309Y-81198947D01*
X232001074Y-81195797D01*
X231980250Y-81190581D01*
X231960038Y-81183349D01*
X231940632Y-81174170D01*
X231922219Y-81163134D01*
X231904976Y-81150346D01*
X231889070Y-81135930D01*
X231874654Y-81120024D01*
X231861866Y-81102781D01*
X231850830Y-81084368D01*
X231841651Y-81064962D01*
X231834419Y-81044750D01*
X231829203Y-81023926D01*
X231826053Y-81002691D01*
X231825000Y-80981250D01*
X231825000Y-80543750D01*
X231826053Y-80522309D01*
X231829203Y-80501074D01*
X231834419Y-80480250D01*
X231841651Y-80460038D01*
X231850830Y-80440632D01*
X231861866Y-80422219D01*
X231874654Y-80404976D01*
X231889070Y-80389070D01*
X231904976Y-80374654D01*
X231922219Y-80361866D01*
X231940632Y-80350830D01*
X231960038Y-80341651D01*
X231980250Y-80334419D01*
X232001074Y-80329203D01*
X232022309Y-80326053D01*
X232043750Y-80325000D01*
X232556250Y-80325000D01*
X232577691Y-80326053D01*
X232577691Y-80326053D01*
G37*
D19*
X232300000Y-80762500D03*
G04 #@! TD*
D10*
G04 #@! TO.C,C34*
G36*
X213027691Y-135276053D02*
X213048926Y-135279203D01*
X213069750Y-135284419D01*
X213089962Y-135291651D01*
X213109368Y-135300830D01*
X213127781Y-135311866D01*
X213145024Y-135324654D01*
X213160930Y-135339070D01*
X213175346Y-135354976D01*
X213188134Y-135372219D01*
X213199170Y-135390632D01*
X213208349Y-135410038D01*
X213215581Y-135430250D01*
X213220797Y-135451074D01*
X213223947Y-135472309D01*
X213225000Y-135493750D01*
X213225000Y-135931250D01*
X213223947Y-135952691D01*
X213220797Y-135973926D01*
X213215581Y-135994750D01*
X213208349Y-136014962D01*
X213199170Y-136034368D01*
X213188134Y-136052781D01*
X213175346Y-136070024D01*
X213160930Y-136085930D01*
X213145024Y-136100346D01*
X213127781Y-136113134D01*
X213109368Y-136124170D01*
X213089962Y-136133349D01*
X213069750Y-136140581D01*
X213048926Y-136145797D01*
X213027691Y-136148947D01*
X213006250Y-136150000D01*
X212493750Y-136150000D01*
X212472309Y-136148947D01*
X212451074Y-136145797D01*
X212430250Y-136140581D01*
X212410038Y-136133349D01*
X212390632Y-136124170D01*
X212372219Y-136113134D01*
X212354976Y-136100346D01*
X212339070Y-136085930D01*
X212324654Y-136070024D01*
X212311866Y-136052781D01*
X212300830Y-136034368D01*
X212291651Y-136014962D01*
X212284419Y-135994750D01*
X212279203Y-135973926D01*
X212276053Y-135952691D01*
X212275000Y-135931250D01*
X212275000Y-135493750D01*
X212276053Y-135472309D01*
X212279203Y-135451074D01*
X212284419Y-135430250D01*
X212291651Y-135410038D01*
X212300830Y-135390632D01*
X212311866Y-135372219D01*
X212324654Y-135354976D01*
X212339070Y-135339070D01*
X212354976Y-135324654D01*
X212372219Y-135311866D01*
X212390632Y-135300830D01*
X212410038Y-135291651D01*
X212430250Y-135284419D01*
X212451074Y-135279203D01*
X212472309Y-135276053D01*
X212493750Y-135275000D01*
X213006250Y-135275000D01*
X213027691Y-135276053D01*
X213027691Y-135276053D01*
G37*
D19*
X212750000Y-135712500D03*
D10*
G36*
X213027691Y-136851053D02*
X213048926Y-136854203D01*
X213069750Y-136859419D01*
X213089962Y-136866651D01*
X213109368Y-136875830D01*
X213127781Y-136886866D01*
X213145024Y-136899654D01*
X213160930Y-136914070D01*
X213175346Y-136929976D01*
X213188134Y-136947219D01*
X213199170Y-136965632D01*
X213208349Y-136985038D01*
X213215581Y-137005250D01*
X213220797Y-137026074D01*
X213223947Y-137047309D01*
X213225000Y-137068750D01*
X213225000Y-137506250D01*
X213223947Y-137527691D01*
X213220797Y-137548926D01*
X213215581Y-137569750D01*
X213208349Y-137589962D01*
X213199170Y-137609368D01*
X213188134Y-137627781D01*
X213175346Y-137645024D01*
X213160930Y-137660930D01*
X213145024Y-137675346D01*
X213127781Y-137688134D01*
X213109368Y-137699170D01*
X213089962Y-137708349D01*
X213069750Y-137715581D01*
X213048926Y-137720797D01*
X213027691Y-137723947D01*
X213006250Y-137725000D01*
X212493750Y-137725000D01*
X212472309Y-137723947D01*
X212451074Y-137720797D01*
X212430250Y-137715581D01*
X212410038Y-137708349D01*
X212390632Y-137699170D01*
X212372219Y-137688134D01*
X212354976Y-137675346D01*
X212339070Y-137660930D01*
X212324654Y-137645024D01*
X212311866Y-137627781D01*
X212300830Y-137609368D01*
X212291651Y-137589962D01*
X212284419Y-137569750D01*
X212279203Y-137548926D01*
X212276053Y-137527691D01*
X212275000Y-137506250D01*
X212275000Y-137068750D01*
X212276053Y-137047309D01*
X212279203Y-137026074D01*
X212284419Y-137005250D01*
X212291651Y-136985038D01*
X212300830Y-136965632D01*
X212311866Y-136947219D01*
X212324654Y-136929976D01*
X212339070Y-136914070D01*
X212354976Y-136899654D01*
X212372219Y-136886866D01*
X212390632Y-136875830D01*
X212410038Y-136866651D01*
X212430250Y-136859419D01*
X212451074Y-136854203D01*
X212472309Y-136851053D01*
X212493750Y-136850000D01*
X213006250Y-136850000D01*
X213027691Y-136851053D01*
X213027691Y-136851053D01*
G37*
D19*
X212750000Y-137287500D03*
G04 #@! TD*
D10*
G04 #@! TO.C,C41*
G36*
X252049515Y-139428908D02*
X252070750Y-139432058D01*
X252091574Y-139437274D01*
X252111786Y-139444506D01*
X252131192Y-139453685D01*
X252149605Y-139464721D01*
X252166848Y-139477509D01*
X252182754Y-139491925D01*
X252197170Y-139507831D01*
X252209958Y-139525074D01*
X252220994Y-139543487D01*
X252230173Y-139562893D01*
X252237405Y-139583105D01*
X252242621Y-139603929D01*
X252245771Y-139625164D01*
X252246824Y-139646605D01*
X252246824Y-140159105D01*
X252245771Y-140180546D01*
X252242621Y-140201781D01*
X252237405Y-140222605D01*
X252230173Y-140242817D01*
X252220994Y-140262223D01*
X252209958Y-140280636D01*
X252197170Y-140297879D01*
X252182754Y-140313785D01*
X252166848Y-140328201D01*
X252149605Y-140340989D01*
X252131192Y-140352025D01*
X252111786Y-140361204D01*
X252091574Y-140368436D01*
X252070750Y-140373652D01*
X252049515Y-140376802D01*
X252028074Y-140377855D01*
X251590574Y-140377855D01*
X251569133Y-140376802D01*
X251547898Y-140373652D01*
X251527074Y-140368436D01*
X251506862Y-140361204D01*
X251487456Y-140352025D01*
X251469043Y-140340989D01*
X251451800Y-140328201D01*
X251435894Y-140313785D01*
X251421478Y-140297879D01*
X251408690Y-140280636D01*
X251397654Y-140262223D01*
X251388475Y-140242817D01*
X251381243Y-140222605D01*
X251376027Y-140201781D01*
X251372877Y-140180546D01*
X251371824Y-140159105D01*
X251371824Y-139646605D01*
X251372877Y-139625164D01*
X251376027Y-139603929D01*
X251381243Y-139583105D01*
X251388475Y-139562893D01*
X251397654Y-139543487D01*
X251408690Y-139525074D01*
X251421478Y-139507831D01*
X251435894Y-139491925D01*
X251451800Y-139477509D01*
X251469043Y-139464721D01*
X251487456Y-139453685D01*
X251506862Y-139444506D01*
X251527074Y-139437274D01*
X251547898Y-139432058D01*
X251569133Y-139428908D01*
X251590574Y-139427855D01*
X252028074Y-139427855D01*
X252049515Y-139428908D01*
X252049515Y-139428908D01*
G37*
D19*
X251809324Y-139902855D03*
D10*
G36*
X250474515Y-139428908D02*
X250495750Y-139432058D01*
X250516574Y-139437274D01*
X250536786Y-139444506D01*
X250556192Y-139453685D01*
X250574605Y-139464721D01*
X250591848Y-139477509D01*
X250607754Y-139491925D01*
X250622170Y-139507831D01*
X250634958Y-139525074D01*
X250645994Y-139543487D01*
X250655173Y-139562893D01*
X250662405Y-139583105D01*
X250667621Y-139603929D01*
X250670771Y-139625164D01*
X250671824Y-139646605D01*
X250671824Y-140159105D01*
X250670771Y-140180546D01*
X250667621Y-140201781D01*
X250662405Y-140222605D01*
X250655173Y-140242817D01*
X250645994Y-140262223D01*
X250634958Y-140280636D01*
X250622170Y-140297879D01*
X250607754Y-140313785D01*
X250591848Y-140328201D01*
X250574605Y-140340989D01*
X250556192Y-140352025D01*
X250536786Y-140361204D01*
X250516574Y-140368436D01*
X250495750Y-140373652D01*
X250474515Y-140376802D01*
X250453074Y-140377855D01*
X250015574Y-140377855D01*
X249994133Y-140376802D01*
X249972898Y-140373652D01*
X249952074Y-140368436D01*
X249931862Y-140361204D01*
X249912456Y-140352025D01*
X249894043Y-140340989D01*
X249876800Y-140328201D01*
X249860894Y-140313785D01*
X249846478Y-140297879D01*
X249833690Y-140280636D01*
X249822654Y-140262223D01*
X249813475Y-140242817D01*
X249806243Y-140222605D01*
X249801027Y-140201781D01*
X249797877Y-140180546D01*
X249796824Y-140159105D01*
X249796824Y-139646605D01*
X249797877Y-139625164D01*
X249801027Y-139603929D01*
X249806243Y-139583105D01*
X249813475Y-139562893D01*
X249822654Y-139543487D01*
X249833690Y-139525074D01*
X249846478Y-139507831D01*
X249860894Y-139491925D01*
X249876800Y-139477509D01*
X249894043Y-139464721D01*
X249912456Y-139453685D01*
X249931862Y-139444506D01*
X249952074Y-139437274D01*
X249972898Y-139432058D01*
X249994133Y-139428908D01*
X250015574Y-139427855D01*
X250453074Y-139427855D01*
X250474515Y-139428908D01*
X250474515Y-139428908D01*
G37*
D19*
X250234324Y-139902855D03*
G04 #@! TD*
D16*
G04 #@! TO.C,R6*
X196700000Y-125712500D03*
X196700000Y-127287500D03*
G04 #@! TD*
G04 #@! TO.C,R5*
X196700000Y-123787500D03*
X196700000Y-122212500D03*
G04 #@! TD*
G04 #@! TO.C,R4*
X196700000Y-118762500D03*
X196700000Y-120337500D03*
G04 #@! TD*
G04 #@! TO.C,R8*
X196700000Y-88712500D03*
X196700000Y-90287500D03*
G04 #@! TD*
G04 #@! TO.C,R9*
X196700000Y-98787500D03*
X196700000Y-97212500D03*
G04 #@! TD*
G04 #@! TO.C,R10*
X196700000Y-105712500D03*
X196700000Y-107287500D03*
G04 #@! TD*
G04 #@! TO.C,R3*
X196700000Y-115212500D03*
X196700000Y-116787500D03*
G04 #@! TD*
D22*
G04 #@! TO.C,Q3*
X193500000Y-115050000D03*
X193500000Y-116950000D03*
X191500000Y-116000000D03*
G04 #@! TD*
G04 #@! TO.C,Q10*
X191500000Y-106500000D03*
X193500000Y-107450000D03*
X193500000Y-105550000D03*
G04 #@! TD*
G04 #@! TO.C,Q9*
X193500000Y-97050000D03*
X193500000Y-98950000D03*
X191500000Y-98000000D03*
G04 #@! TD*
G04 #@! TO.C,Q8*
X191500000Y-89500000D03*
X193500000Y-90450000D03*
X193500000Y-88550000D03*
G04 #@! TD*
G04 #@! TO.C,Q7*
X193500000Y-80050000D03*
X193500000Y-81950000D03*
X191500000Y-81000000D03*
G04 #@! TD*
G04 #@! TO.C,Q6*
X191500000Y-126500000D03*
X193500000Y-127450000D03*
X193500000Y-125550000D03*
G04 #@! TD*
G04 #@! TO.C,Q5*
X193500000Y-122050000D03*
X193500000Y-123950000D03*
X191500000Y-123000000D03*
G04 #@! TD*
G04 #@! TO.C,Q4*
X191500000Y-119500000D03*
X193500000Y-120450000D03*
X193500000Y-118550000D03*
G04 #@! TD*
D23*
G04 #@! TO.C,U4*
X251771824Y-134802855D03*
X251271824Y-134802855D03*
X250771824Y-134802855D03*
X250271824Y-134802855D03*
X250271824Y-137202855D03*
X250771824Y-137202855D03*
X251271824Y-137202855D03*
X251771824Y-137202855D03*
D24*
X251021824Y-136002855D03*
G04 #@! TD*
M02*
