G04 #@! TF.GenerationSoftware,KiCad,Pcbnew,5.0.2+dfsg1-1*
G04 #@! TF.CreationDate,2019-07-19T17:38:54+02:00*
G04 #@! TF.ProjectId,AutoGardener_Outdoor,4175746f-4761-4726-9465-6e65725f4f75,rev?*
G04 #@! TF.SameCoordinates,Original*
G04 #@! TF.FileFunction,Soldermask,Top*
G04 #@! TF.FilePolarity,Negative*
%FSLAX46Y46*%
G04 Gerber Fmt 4.6, Leading zero omitted, Abs format (unit mm)*
G04 Created by KiCad (PCBNEW 5.0.2+dfsg1-1) date Pá 19. července 2019, 17:38:54 CEST*
%MOMM*%
%LPD*%
G01*
G04 APERTURE LIST*
%ADD10C,0.100000*%
G04 APERTURE END LIST*
D10*
G36*
X200110442Y-147185518D02*
X200176627Y-147192037D01*
X200289853Y-147226384D01*
X200346467Y-147243557D01*
X200485087Y-147317652D01*
X200502991Y-147327222D01*
X200538729Y-147356552D01*
X200640186Y-147439814D01*
X200723448Y-147541271D01*
X200752778Y-147577009D01*
X200752779Y-147577011D01*
X200836443Y-147733533D01*
X200836443Y-147733534D01*
X200887963Y-147903373D01*
X200905359Y-148080000D01*
X200887963Y-148256627D01*
X200880140Y-148282415D01*
X200836443Y-148426467D01*
X200795539Y-148502991D01*
X200752778Y-148582991D01*
X200723448Y-148618729D01*
X200640186Y-148720186D01*
X200538729Y-148803448D01*
X200502991Y-148832778D01*
X200502989Y-148832779D01*
X200346467Y-148916443D01*
X200289853Y-148933616D01*
X200176627Y-148967963D01*
X200110443Y-148974481D01*
X200044260Y-148981000D01*
X199955740Y-148981000D01*
X199889557Y-148974481D01*
X199823373Y-148967963D01*
X199710147Y-148933616D01*
X199653533Y-148916443D01*
X199497011Y-148832779D01*
X199497009Y-148832778D01*
X199461271Y-148803448D01*
X199359814Y-148720186D01*
X199276552Y-148618729D01*
X199247222Y-148582991D01*
X199204461Y-148502991D01*
X199163557Y-148426467D01*
X199119860Y-148282415D01*
X199112037Y-148256627D01*
X199094641Y-148080000D01*
X199112037Y-147903373D01*
X199163557Y-147733534D01*
X199163557Y-147733533D01*
X199247221Y-147577011D01*
X199247222Y-147577009D01*
X199276552Y-147541271D01*
X199359814Y-147439814D01*
X199461271Y-147356552D01*
X199497009Y-147327222D01*
X199514913Y-147317652D01*
X199653533Y-147243557D01*
X199710147Y-147226384D01*
X199823373Y-147192037D01*
X199889558Y-147185518D01*
X199955740Y-147179000D01*
X200044260Y-147179000D01*
X200110442Y-147185518D01*
X200110442Y-147185518D01*
G37*
G36*
X182570442Y-147105518D02*
X182636627Y-147112037D01*
X182749853Y-147146384D01*
X182806467Y-147163557D01*
X182945087Y-147237652D01*
X182962991Y-147247222D01*
X182998729Y-147276552D01*
X183100186Y-147359814D01*
X183165839Y-147439814D01*
X183212778Y-147497009D01*
X183212779Y-147497011D01*
X183296443Y-147653533D01*
X183296443Y-147653534D01*
X183347963Y-147823373D01*
X183365359Y-148000000D01*
X183347963Y-148176627D01*
X183323696Y-148256625D01*
X183296443Y-148346467D01*
X183222348Y-148485087D01*
X183212778Y-148502991D01*
X183183448Y-148538729D01*
X183100186Y-148640186D01*
X183002705Y-148720185D01*
X182962991Y-148752778D01*
X182962989Y-148752779D01*
X182806467Y-148836443D01*
X182749853Y-148853616D01*
X182636627Y-148887963D01*
X182570443Y-148894481D01*
X182504260Y-148901000D01*
X182415740Y-148901000D01*
X182349557Y-148894481D01*
X182283373Y-148887963D01*
X182170147Y-148853616D01*
X182113533Y-148836443D01*
X181957011Y-148752779D01*
X181957009Y-148752778D01*
X181917295Y-148720185D01*
X181819814Y-148640186D01*
X181736552Y-148538729D01*
X181707222Y-148502991D01*
X181697652Y-148485087D01*
X181623557Y-148346467D01*
X181596304Y-148256625D01*
X181572037Y-148176627D01*
X181554641Y-148000000D01*
X181572037Y-147823373D01*
X181623557Y-147653534D01*
X181623557Y-147653533D01*
X181707221Y-147497011D01*
X181707222Y-147497009D01*
X181754161Y-147439814D01*
X181819814Y-147359814D01*
X181921271Y-147276552D01*
X181957009Y-147247222D01*
X181974913Y-147237652D01*
X182113533Y-147163557D01*
X182170147Y-147146384D01*
X182283373Y-147112037D01*
X182349558Y-147105518D01*
X182415740Y-147099000D01*
X182504260Y-147099000D01*
X182570442Y-147105518D01*
X182570442Y-147105518D01*
G37*
G36*
X191400442Y-147105518D02*
X191466627Y-147112037D01*
X191579853Y-147146384D01*
X191636467Y-147163557D01*
X191775087Y-147237652D01*
X191792991Y-147247222D01*
X191828729Y-147276552D01*
X191930186Y-147359814D01*
X191995839Y-147439814D01*
X192042778Y-147497009D01*
X192042779Y-147497011D01*
X192126443Y-147653533D01*
X192126443Y-147653534D01*
X192177963Y-147823373D01*
X192195359Y-148000000D01*
X192177963Y-148176627D01*
X192153696Y-148256625D01*
X192126443Y-148346467D01*
X192052348Y-148485087D01*
X192042778Y-148502991D01*
X192013448Y-148538729D01*
X191930186Y-148640186D01*
X191832705Y-148720185D01*
X191792991Y-148752778D01*
X191792989Y-148752779D01*
X191636467Y-148836443D01*
X191579853Y-148853616D01*
X191466627Y-148887963D01*
X191400443Y-148894481D01*
X191334260Y-148901000D01*
X191245740Y-148901000D01*
X191179557Y-148894481D01*
X191113373Y-148887963D01*
X191000147Y-148853616D01*
X190943533Y-148836443D01*
X190787011Y-148752779D01*
X190787009Y-148752778D01*
X190747295Y-148720185D01*
X190649814Y-148640186D01*
X190566552Y-148538729D01*
X190537222Y-148502991D01*
X190527652Y-148485087D01*
X190453557Y-148346467D01*
X190426304Y-148256625D01*
X190402037Y-148176627D01*
X190384641Y-148000000D01*
X190402037Y-147823373D01*
X190453557Y-147653534D01*
X190453557Y-147653533D01*
X190537221Y-147497011D01*
X190537222Y-147497009D01*
X190584161Y-147439814D01*
X190649814Y-147359814D01*
X190751271Y-147276552D01*
X190787009Y-147247222D01*
X190804913Y-147237652D01*
X190943533Y-147163557D01*
X191000147Y-147146384D01*
X191113373Y-147112037D01*
X191179558Y-147105518D01*
X191245740Y-147099000D01*
X191334260Y-147099000D01*
X191400442Y-147105518D01*
X191400442Y-147105518D01*
G37*
G36*
X185901000Y-148901000D02*
X184099000Y-148901000D01*
X184099000Y-147099000D01*
X185901000Y-147099000D01*
X185901000Y-148901000D01*
X185901000Y-148901000D01*
G37*
G36*
X189651000Y-148901000D02*
X187849000Y-148901000D01*
X187849000Y-147099000D01*
X189651000Y-147099000D01*
X189651000Y-148901000D01*
X189651000Y-148901000D01*
G37*
G36*
X196375256Y-145391298D02*
X196481579Y-145412447D01*
X196782042Y-145536903D01*
X196977416Y-145667448D01*
X197052454Y-145717587D01*
X197282413Y-145947546D01*
X197463098Y-146217960D01*
X197587553Y-146518422D01*
X197651000Y-146837389D01*
X197651000Y-147162611D01*
X197611774Y-147359814D01*
X197587553Y-147481579D01*
X197463097Y-147782042D01*
X197317462Y-148000000D01*
X197282413Y-148052454D01*
X197052454Y-148282413D01*
X197052451Y-148282415D01*
X196782042Y-148463097D01*
X196481579Y-148587553D01*
X196375256Y-148608702D01*
X196162611Y-148651000D01*
X195837389Y-148651000D01*
X195624744Y-148608702D01*
X195518421Y-148587553D01*
X195217958Y-148463097D01*
X194947549Y-148282415D01*
X194947546Y-148282413D01*
X194717587Y-148052454D01*
X194682538Y-148000000D01*
X194536903Y-147782042D01*
X194412447Y-147481579D01*
X194388226Y-147359814D01*
X194349000Y-147162611D01*
X194349000Y-146837389D01*
X194412447Y-146518422D01*
X194536902Y-146217960D01*
X194717587Y-145947546D01*
X194947546Y-145717587D01*
X195022584Y-145667448D01*
X195217958Y-145536903D01*
X195518421Y-145412447D01*
X195624744Y-145391298D01*
X195837389Y-145349000D01*
X196162611Y-145349000D01*
X196375256Y-145391298D01*
X196375256Y-145391298D01*
G37*
G36*
X200110442Y-144645518D02*
X200176627Y-144652037D01*
X200289853Y-144686384D01*
X200346467Y-144703557D01*
X200419495Y-144742592D01*
X200502991Y-144787222D01*
X200513125Y-144795539D01*
X200640186Y-144899814D01*
X200696349Y-144968250D01*
X200752778Y-145037009D01*
X200752779Y-145037011D01*
X200836443Y-145193533D01*
X200836443Y-145193534D01*
X200887963Y-145363373D01*
X200905359Y-145540000D01*
X200887963Y-145716627D01*
X200869952Y-145776000D01*
X200836443Y-145886467D01*
X200762348Y-146025087D01*
X200752778Y-146042991D01*
X200723448Y-146078729D01*
X200640186Y-146180186D01*
X200538729Y-146263448D01*
X200502991Y-146292778D01*
X200502989Y-146292779D01*
X200346467Y-146376443D01*
X200289853Y-146393616D01*
X200176627Y-146427963D01*
X200110442Y-146434482D01*
X200044260Y-146441000D01*
X199955740Y-146441000D01*
X199889558Y-146434482D01*
X199823373Y-146427963D01*
X199710147Y-146393616D01*
X199653533Y-146376443D01*
X199497011Y-146292779D01*
X199497009Y-146292778D01*
X199461271Y-146263448D01*
X199359814Y-146180186D01*
X199276552Y-146078729D01*
X199247222Y-146042991D01*
X199237652Y-146025087D01*
X199163557Y-145886467D01*
X199130048Y-145776000D01*
X199112037Y-145716627D01*
X199094641Y-145540000D01*
X199112037Y-145363373D01*
X199163557Y-145193534D01*
X199163557Y-145193533D01*
X199247221Y-145037011D01*
X199247222Y-145037009D01*
X199303651Y-144968250D01*
X199359814Y-144899814D01*
X199486875Y-144795539D01*
X199497009Y-144787222D01*
X199580505Y-144742592D01*
X199653533Y-144703557D01*
X199710147Y-144686384D01*
X199823373Y-144652037D01*
X199889558Y-144645518D01*
X199955740Y-144639000D01*
X200044260Y-144639000D01*
X200110442Y-144645518D01*
X200110442Y-144645518D01*
G37*
G36*
X184379591Y-144728085D02*
X184413569Y-144738393D01*
X184444887Y-144755133D01*
X184472339Y-144777661D01*
X184494867Y-144805113D01*
X184511607Y-144836431D01*
X184521915Y-144870409D01*
X184526000Y-144911890D01*
X184526000Y-145588110D01*
X184521915Y-145629591D01*
X184511607Y-145663569D01*
X184494867Y-145694887D01*
X184472339Y-145722339D01*
X184444887Y-145744867D01*
X184413569Y-145761607D01*
X184379591Y-145771915D01*
X184338110Y-145776000D01*
X183736890Y-145776000D01*
X183695409Y-145771915D01*
X183661431Y-145761607D01*
X183630113Y-145744867D01*
X183602661Y-145722339D01*
X183580133Y-145694887D01*
X183563393Y-145663569D01*
X183553085Y-145629591D01*
X183549000Y-145588110D01*
X183549000Y-144911890D01*
X183553085Y-144870409D01*
X183563393Y-144836431D01*
X183580133Y-144805113D01*
X183602661Y-144777661D01*
X183630113Y-144755133D01*
X183661431Y-144738393D01*
X183695409Y-144728085D01*
X183736890Y-144724000D01*
X184338110Y-144724000D01*
X184379591Y-144728085D01*
X184379591Y-144728085D01*
G37*
G36*
X182804591Y-144728085D02*
X182838569Y-144738393D01*
X182869887Y-144755133D01*
X182897339Y-144777661D01*
X182919867Y-144805113D01*
X182936607Y-144836431D01*
X182946915Y-144870409D01*
X182951000Y-144911890D01*
X182951000Y-145588110D01*
X182946915Y-145629591D01*
X182936607Y-145663569D01*
X182919867Y-145694887D01*
X182897339Y-145722339D01*
X182869887Y-145744867D01*
X182838569Y-145761607D01*
X182804591Y-145771915D01*
X182763110Y-145776000D01*
X182161890Y-145776000D01*
X182120409Y-145771915D01*
X182086431Y-145761607D01*
X182055113Y-145744867D01*
X182027661Y-145722339D01*
X182005133Y-145694887D01*
X181988393Y-145663569D01*
X181978085Y-145629591D01*
X181974000Y-145588110D01*
X181974000Y-144911890D01*
X181978085Y-144870409D01*
X181988393Y-144836431D01*
X182005133Y-144805113D01*
X182027661Y-144777661D01*
X182055113Y-144755133D01*
X182086431Y-144738393D01*
X182120409Y-144728085D01*
X182161890Y-144724000D01*
X182763110Y-144724000D01*
X182804591Y-144728085D01*
X182804591Y-144728085D01*
G37*
G36*
X189501000Y-145401000D02*
X188499000Y-145401000D01*
X188499000Y-144499000D01*
X189501000Y-144499000D01*
X189501000Y-145401000D01*
X189501000Y-145401000D01*
G37*
G36*
X191501000Y-144451000D02*
X190499000Y-144451000D01*
X190499000Y-143549000D01*
X191501000Y-143549000D01*
X191501000Y-144451000D01*
X191501000Y-144451000D01*
G37*
G36*
X184379591Y-143228085D02*
X184413569Y-143238393D01*
X184444887Y-143255133D01*
X184472339Y-143277661D01*
X184494867Y-143305113D01*
X184511607Y-143336431D01*
X184521915Y-143370409D01*
X184526000Y-143411890D01*
X184526000Y-144088110D01*
X184521915Y-144129591D01*
X184511607Y-144163569D01*
X184494867Y-144194887D01*
X184472339Y-144222339D01*
X184444887Y-144244867D01*
X184413569Y-144261607D01*
X184379591Y-144271915D01*
X184338110Y-144276000D01*
X183736890Y-144276000D01*
X183695409Y-144271915D01*
X183661431Y-144261607D01*
X183630113Y-144244867D01*
X183602661Y-144222339D01*
X183580133Y-144194887D01*
X183563393Y-144163569D01*
X183553085Y-144129591D01*
X183549000Y-144088110D01*
X183549000Y-143411890D01*
X183553085Y-143370409D01*
X183563393Y-143336431D01*
X183580133Y-143305113D01*
X183602661Y-143277661D01*
X183630113Y-143255133D01*
X183661431Y-143238393D01*
X183695409Y-143228085D01*
X183736890Y-143224000D01*
X184338110Y-143224000D01*
X184379591Y-143228085D01*
X184379591Y-143228085D01*
G37*
G36*
X182804591Y-143228085D02*
X182838569Y-143238393D01*
X182869887Y-143255133D01*
X182897339Y-143277661D01*
X182919867Y-143305113D01*
X182936607Y-143336431D01*
X182946915Y-143370409D01*
X182951000Y-143411890D01*
X182951000Y-144088110D01*
X182946915Y-144129591D01*
X182936607Y-144163569D01*
X182919867Y-144194887D01*
X182897339Y-144222339D01*
X182869887Y-144244867D01*
X182838569Y-144261607D01*
X182804591Y-144271915D01*
X182763110Y-144276000D01*
X182161890Y-144276000D01*
X182120409Y-144271915D01*
X182086431Y-144261607D01*
X182055113Y-144244867D01*
X182027661Y-144222339D01*
X182005133Y-144194887D01*
X181988393Y-144163569D01*
X181978085Y-144129591D01*
X181974000Y-144088110D01*
X181974000Y-143411890D01*
X181978085Y-143370409D01*
X181988393Y-143336431D01*
X182005133Y-143305113D01*
X182027661Y-143277661D01*
X182055113Y-143255133D01*
X182086431Y-143238393D01*
X182120409Y-143228085D01*
X182161890Y-143224000D01*
X182763110Y-143224000D01*
X182804591Y-143228085D01*
X182804591Y-143228085D01*
G37*
G36*
X200901000Y-143901000D02*
X199099000Y-143901000D01*
X199099000Y-142099000D01*
X200901000Y-142099000D01*
X200901000Y-143901000D01*
X200901000Y-143901000D01*
G37*
G36*
X193601000Y-143751000D02*
X192349000Y-143751000D01*
X192349000Y-142249000D01*
X193601000Y-142249000D01*
X193601000Y-143751000D01*
X193601000Y-143751000D01*
G37*
G36*
X195651000Y-143751000D02*
X194399000Y-143751000D01*
X194399000Y-142249000D01*
X195651000Y-142249000D01*
X195651000Y-143751000D01*
X195651000Y-143751000D01*
G37*
G36*
X189501000Y-143501000D02*
X188499000Y-143501000D01*
X188499000Y-142599000D01*
X189501000Y-142599000D01*
X189501000Y-143501000D01*
X189501000Y-143501000D01*
G37*
G36*
X183451000Y-142076000D02*
X182049000Y-142076000D01*
X182049000Y-141424000D01*
X183451000Y-141424000D01*
X183451000Y-142076000D01*
X183451000Y-142076000D01*
G37*
G36*
X191276000Y-141526000D02*
X190299000Y-141526000D01*
X190299000Y-140474000D01*
X191276000Y-140474000D01*
X191276000Y-141526000D01*
X191276000Y-141526000D01*
G37*
G36*
X189701000Y-141526000D02*
X188724000Y-141526000D01*
X188724000Y-140474000D01*
X189701000Y-140474000D01*
X189701000Y-141526000D01*
X189701000Y-141526000D01*
G37*
G36*
X186901000Y-141226000D02*
X183599000Y-141226000D01*
X183599000Y-140826000D01*
X183596598Y-140801614D01*
X183589485Y-140778165D01*
X183577934Y-140756554D01*
X183562388Y-140737612D01*
X183543446Y-140722066D01*
X183521835Y-140710515D01*
X183498386Y-140703402D01*
X183474000Y-140701000D01*
X181999000Y-140701000D01*
X181999000Y-139799000D01*
X183474000Y-139799000D01*
X183498386Y-139796598D01*
X183521835Y-139789485D01*
X183543446Y-139777934D01*
X183562388Y-139762388D01*
X183577934Y-139743446D01*
X183589485Y-139721835D01*
X183596598Y-139698386D01*
X183599000Y-139674000D01*
X183599000Y-139274000D01*
X186901000Y-139274000D01*
X186901000Y-141226000D01*
X186901000Y-141226000D01*
G37*
G36*
X195651000Y-139751000D02*
X194399000Y-139751000D01*
X194399000Y-138249000D01*
X195651000Y-138249000D01*
X195651000Y-139751000D01*
X195651000Y-139751000D01*
G37*
G36*
X193601000Y-139751000D02*
X192349000Y-139751000D01*
X192349000Y-138249000D01*
X193601000Y-138249000D01*
X193601000Y-139751000D01*
X193601000Y-139751000D01*
G37*
G36*
X191276000Y-139526000D02*
X190299000Y-139526000D01*
X190299000Y-138474000D01*
X191276000Y-138474000D01*
X191276000Y-139526000D01*
X191276000Y-139526000D01*
G37*
G36*
X189701000Y-139526000D02*
X188724000Y-139526000D01*
X188724000Y-138474000D01*
X189701000Y-138474000D01*
X189701000Y-139526000D01*
X189701000Y-139526000D01*
G37*
G36*
X183451000Y-139076000D02*
X182049000Y-139076000D01*
X182049000Y-138424000D01*
X183451000Y-138424000D01*
X183451000Y-139076000D01*
X183451000Y-139076000D01*
G37*
G36*
X200110443Y-137265519D02*
X200176627Y-137272037D01*
X200289853Y-137306384D01*
X200346467Y-137323557D01*
X200485087Y-137397652D01*
X200502991Y-137407222D01*
X200538729Y-137436552D01*
X200640186Y-137519814D01*
X200723448Y-137621271D01*
X200752778Y-137657009D01*
X200752779Y-137657011D01*
X200836443Y-137813533D01*
X200836443Y-137813534D01*
X200887963Y-137983373D01*
X200905359Y-138160000D01*
X200887963Y-138336627D01*
X200861459Y-138424000D01*
X200836443Y-138506467D01*
X200762348Y-138645087D01*
X200752778Y-138662991D01*
X200723448Y-138698729D01*
X200640186Y-138800186D01*
X200538729Y-138883448D01*
X200502991Y-138912778D01*
X200502989Y-138912779D01*
X200346467Y-138996443D01*
X200289853Y-139013616D01*
X200176627Y-139047963D01*
X200110443Y-139054481D01*
X200044260Y-139061000D01*
X199955740Y-139061000D01*
X199889557Y-139054481D01*
X199823373Y-139047963D01*
X199710147Y-139013616D01*
X199653533Y-138996443D01*
X199497011Y-138912779D01*
X199497009Y-138912778D01*
X199461271Y-138883448D01*
X199359814Y-138800186D01*
X199276552Y-138698729D01*
X199247222Y-138662991D01*
X199237652Y-138645087D01*
X199163557Y-138506467D01*
X199138541Y-138424000D01*
X199112037Y-138336627D01*
X199094641Y-138160000D01*
X199112037Y-137983373D01*
X199163557Y-137813534D01*
X199163557Y-137813533D01*
X199247221Y-137657011D01*
X199247222Y-137657009D01*
X199276552Y-137621271D01*
X199359814Y-137519814D01*
X199461271Y-137436552D01*
X199497009Y-137407222D01*
X199514913Y-137397652D01*
X199653533Y-137323557D01*
X199710147Y-137306384D01*
X199823373Y-137272037D01*
X199889557Y-137265519D01*
X199955740Y-137259000D01*
X200044260Y-137259000D01*
X200110443Y-137265519D01*
X200110443Y-137265519D01*
G37*
G36*
X184379591Y-136228085D02*
X184413569Y-136238393D01*
X184444887Y-136255133D01*
X184472339Y-136277661D01*
X184494867Y-136305113D01*
X184511607Y-136336431D01*
X184521915Y-136370409D01*
X184526000Y-136411890D01*
X184526000Y-137088110D01*
X184521915Y-137129591D01*
X184511607Y-137163569D01*
X184494867Y-137194887D01*
X184472339Y-137222339D01*
X184444887Y-137244867D01*
X184413569Y-137261607D01*
X184379591Y-137271915D01*
X184338110Y-137276000D01*
X183736890Y-137276000D01*
X183695409Y-137271915D01*
X183661431Y-137261607D01*
X183630113Y-137244867D01*
X183602661Y-137222339D01*
X183580133Y-137194887D01*
X183563393Y-137163569D01*
X183553085Y-137129591D01*
X183549000Y-137088110D01*
X183549000Y-136411890D01*
X183553085Y-136370409D01*
X183563393Y-136336431D01*
X183580133Y-136305113D01*
X183602661Y-136277661D01*
X183630113Y-136255133D01*
X183661431Y-136238393D01*
X183695409Y-136228085D01*
X183736890Y-136224000D01*
X184338110Y-136224000D01*
X184379591Y-136228085D01*
X184379591Y-136228085D01*
G37*
G36*
X182804591Y-136228085D02*
X182838569Y-136238393D01*
X182869887Y-136255133D01*
X182897339Y-136277661D01*
X182919867Y-136305113D01*
X182936607Y-136336431D01*
X182946915Y-136370409D01*
X182951000Y-136411890D01*
X182951000Y-137088110D01*
X182946915Y-137129591D01*
X182936607Y-137163569D01*
X182919867Y-137194887D01*
X182897339Y-137222339D01*
X182869887Y-137244867D01*
X182838569Y-137261607D01*
X182804591Y-137271915D01*
X182763110Y-137276000D01*
X182161890Y-137276000D01*
X182120409Y-137271915D01*
X182086431Y-137261607D01*
X182055113Y-137244867D01*
X182027661Y-137222339D01*
X182005133Y-137194887D01*
X181988393Y-137163569D01*
X181978085Y-137129591D01*
X181974000Y-137088110D01*
X181974000Y-136411890D01*
X181978085Y-136370409D01*
X181988393Y-136336431D01*
X182005133Y-136305113D01*
X182027661Y-136277661D01*
X182055113Y-136255133D01*
X182086431Y-136238393D01*
X182120409Y-136228085D01*
X182161890Y-136224000D01*
X182763110Y-136224000D01*
X182804591Y-136228085D01*
X182804591Y-136228085D01*
G37*
G36*
X195379591Y-136303085D02*
X195413569Y-136313393D01*
X195444887Y-136330133D01*
X195472339Y-136352661D01*
X195494867Y-136380113D01*
X195511607Y-136411431D01*
X195521915Y-136445409D01*
X195526000Y-136486890D01*
X195526000Y-137088110D01*
X195521915Y-137129591D01*
X195511607Y-137163569D01*
X195494867Y-137194887D01*
X195472339Y-137222339D01*
X195444887Y-137244867D01*
X195413569Y-137261607D01*
X195379591Y-137271915D01*
X195338110Y-137276000D01*
X194661890Y-137276000D01*
X194620409Y-137271915D01*
X194586431Y-137261607D01*
X194555113Y-137244867D01*
X194527661Y-137222339D01*
X194505133Y-137194887D01*
X194488393Y-137163569D01*
X194478085Y-137129591D01*
X194474000Y-137088110D01*
X194474000Y-136486890D01*
X194478085Y-136445409D01*
X194488393Y-136411431D01*
X194505133Y-136380113D01*
X194527661Y-136352661D01*
X194555113Y-136330133D01*
X194586431Y-136313393D01*
X194620409Y-136303085D01*
X194661890Y-136299000D01*
X195338110Y-136299000D01*
X195379591Y-136303085D01*
X195379591Y-136303085D01*
G37*
G36*
X200095025Y-134724000D02*
X200176627Y-134732037D01*
X200252764Y-134755133D01*
X200346467Y-134783557D01*
X200445386Y-134836431D01*
X200502991Y-134867222D01*
X200506874Y-134870409D01*
X200640186Y-134979814D01*
X200723448Y-135081271D01*
X200752778Y-135117009D01*
X200752779Y-135117011D01*
X200836443Y-135273533D01*
X200836443Y-135273534D01*
X200887963Y-135443373D01*
X200905359Y-135620000D01*
X200887963Y-135796627D01*
X200859276Y-135891194D01*
X200836443Y-135966467D01*
X200832893Y-135973108D01*
X200752778Y-136122991D01*
X200723448Y-136158729D01*
X200640186Y-136260186D01*
X200554954Y-136330133D01*
X200502991Y-136372778D01*
X200489268Y-136380113D01*
X200346467Y-136456443D01*
X200289853Y-136473616D01*
X200176627Y-136507963D01*
X200110443Y-136514481D01*
X200044260Y-136521000D01*
X199955740Y-136521000D01*
X199889557Y-136514481D01*
X199823373Y-136507963D01*
X199710147Y-136473616D01*
X199653533Y-136456443D01*
X199510732Y-136380113D01*
X199497009Y-136372778D01*
X199445046Y-136330133D01*
X199359814Y-136260186D01*
X199276552Y-136158729D01*
X199247222Y-136122991D01*
X199167107Y-135973108D01*
X199163557Y-135966467D01*
X199140724Y-135891194D01*
X199112037Y-135796627D01*
X199094641Y-135620000D01*
X199112037Y-135443373D01*
X199163557Y-135273534D01*
X199163557Y-135273533D01*
X199247221Y-135117011D01*
X199247222Y-135117009D01*
X199276552Y-135081271D01*
X199359814Y-134979814D01*
X199493126Y-134870409D01*
X199497009Y-134867222D01*
X199554614Y-134836431D01*
X199653533Y-134783557D01*
X199747236Y-134755133D01*
X199823373Y-134732037D01*
X199904975Y-134724000D01*
X199955740Y-134719000D01*
X200044260Y-134719000D01*
X200095025Y-134724000D01*
X200095025Y-134724000D01*
G37*
G36*
X187930048Y-134376284D02*
X187946446Y-134381258D01*
X187961552Y-134389333D01*
X187974797Y-134400203D01*
X187985667Y-134413448D01*
X187989760Y-134421105D01*
X188003374Y-134441479D01*
X188020701Y-134458806D01*
X188041075Y-134472420D01*
X188063714Y-134481798D01*
X188087748Y-134486578D01*
X188112252Y-134486578D01*
X188136286Y-134481798D01*
X188158925Y-134472420D01*
X188179299Y-134458806D01*
X188196626Y-134441479D01*
X188210240Y-134421105D01*
X188214333Y-134413448D01*
X188225203Y-134400203D01*
X188238448Y-134389333D01*
X188253554Y-134381258D01*
X188269952Y-134376284D01*
X188293141Y-134374000D01*
X188706859Y-134374000D01*
X188730048Y-134376284D01*
X188746446Y-134381258D01*
X188761552Y-134389333D01*
X188774797Y-134400203D01*
X188785667Y-134413448D01*
X188789760Y-134421105D01*
X188803374Y-134441479D01*
X188820701Y-134458806D01*
X188841075Y-134472420D01*
X188863714Y-134481798D01*
X188887748Y-134486578D01*
X188912252Y-134486578D01*
X188936286Y-134481798D01*
X188958925Y-134472420D01*
X188979299Y-134458806D01*
X188996626Y-134441479D01*
X189010240Y-134421105D01*
X189014333Y-134413448D01*
X189025203Y-134400203D01*
X189038448Y-134389333D01*
X189053554Y-134381258D01*
X189069952Y-134376284D01*
X189093141Y-134374000D01*
X189506859Y-134374000D01*
X189530048Y-134376284D01*
X189546446Y-134381258D01*
X189561552Y-134389333D01*
X189574797Y-134400203D01*
X189585667Y-134413448D01*
X189589760Y-134421105D01*
X189603374Y-134441479D01*
X189620701Y-134458806D01*
X189641075Y-134472420D01*
X189663714Y-134481798D01*
X189687748Y-134486578D01*
X189712252Y-134486578D01*
X189736286Y-134481798D01*
X189758925Y-134472420D01*
X189779299Y-134458806D01*
X189796626Y-134441479D01*
X189810240Y-134421105D01*
X189814333Y-134413448D01*
X189825203Y-134400203D01*
X189838448Y-134389333D01*
X189853554Y-134381258D01*
X189869952Y-134376284D01*
X189893141Y-134374000D01*
X190306859Y-134374000D01*
X190330048Y-134376284D01*
X190346446Y-134381258D01*
X190361552Y-134389333D01*
X190374797Y-134400203D01*
X190385667Y-134413448D01*
X190389760Y-134421105D01*
X190403374Y-134441479D01*
X190420701Y-134458806D01*
X190441075Y-134472420D01*
X190463714Y-134481798D01*
X190487748Y-134486578D01*
X190512252Y-134486578D01*
X190536286Y-134481798D01*
X190558925Y-134472420D01*
X190579299Y-134458806D01*
X190596626Y-134441479D01*
X190610240Y-134421105D01*
X190614333Y-134413448D01*
X190625203Y-134400203D01*
X190638448Y-134389333D01*
X190653554Y-134381258D01*
X190669952Y-134376284D01*
X190693141Y-134374000D01*
X191106859Y-134374000D01*
X191130048Y-134376284D01*
X191146446Y-134381258D01*
X191161552Y-134389333D01*
X191174797Y-134400203D01*
X191185667Y-134413448D01*
X191189760Y-134421105D01*
X191203374Y-134441479D01*
X191220701Y-134458806D01*
X191241075Y-134472420D01*
X191263714Y-134481798D01*
X191287748Y-134486578D01*
X191312252Y-134486578D01*
X191336286Y-134481798D01*
X191358925Y-134472420D01*
X191379299Y-134458806D01*
X191396626Y-134441479D01*
X191410240Y-134421105D01*
X191414333Y-134413448D01*
X191425203Y-134400203D01*
X191438448Y-134389333D01*
X191453554Y-134381258D01*
X191469952Y-134376284D01*
X191493141Y-134374000D01*
X191906859Y-134374000D01*
X191930048Y-134376284D01*
X191946446Y-134381258D01*
X191961552Y-134389333D01*
X191974797Y-134400203D01*
X191985667Y-134413448D01*
X191989760Y-134421105D01*
X192003374Y-134441479D01*
X192020701Y-134458806D01*
X192041075Y-134472420D01*
X192063714Y-134481798D01*
X192087748Y-134486578D01*
X192112252Y-134486578D01*
X192136286Y-134481798D01*
X192158925Y-134472420D01*
X192179299Y-134458806D01*
X192196626Y-134441479D01*
X192210240Y-134421105D01*
X192214333Y-134413448D01*
X192225203Y-134400203D01*
X192238448Y-134389333D01*
X192253554Y-134381258D01*
X192269952Y-134376284D01*
X192293141Y-134374000D01*
X192706859Y-134374000D01*
X192730048Y-134376284D01*
X192746446Y-134381258D01*
X192761552Y-134389333D01*
X192774797Y-134400203D01*
X192785667Y-134413448D01*
X192789760Y-134421105D01*
X192803374Y-134441479D01*
X192820701Y-134458806D01*
X192841075Y-134472420D01*
X192863714Y-134481798D01*
X192887748Y-134486578D01*
X192912252Y-134486578D01*
X192936286Y-134481798D01*
X192958925Y-134472420D01*
X192979299Y-134458806D01*
X192996626Y-134441479D01*
X193010240Y-134421105D01*
X193014333Y-134413448D01*
X193025203Y-134400203D01*
X193038448Y-134389333D01*
X193053554Y-134381258D01*
X193069952Y-134376284D01*
X193093141Y-134374000D01*
X193506859Y-134374000D01*
X193530048Y-134376284D01*
X193546446Y-134381258D01*
X193561552Y-134389333D01*
X193574797Y-134400203D01*
X193585667Y-134413448D01*
X193593742Y-134428554D01*
X193598716Y-134444952D01*
X193601000Y-134468141D01*
X193601000Y-135881859D01*
X193598716Y-135905048D01*
X193593742Y-135921446D01*
X193585667Y-135936552D01*
X193574797Y-135949797D01*
X193561552Y-135960667D01*
X193546446Y-135968742D01*
X193530048Y-135973716D01*
X193506859Y-135976000D01*
X193093141Y-135976000D01*
X193069952Y-135973716D01*
X193053554Y-135968742D01*
X193038448Y-135960667D01*
X193025203Y-135949797D01*
X193014333Y-135936552D01*
X193010240Y-135928895D01*
X192996626Y-135908521D01*
X192979299Y-135891194D01*
X192958925Y-135877580D01*
X192936286Y-135868202D01*
X192912252Y-135863422D01*
X192887748Y-135863422D01*
X192863714Y-135868202D01*
X192841075Y-135877580D01*
X192820701Y-135891194D01*
X192803374Y-135908521D01*
X192789760Y-135928895D01*
X192785667Y-135936552D01*
X192774797Y-135949797D01*
X192761552Y-135960667D01*
X192746446Y-135968742D01*
X192730048Y-135973716D01*
X192706859Y-135976000D01*
X192293141Y-135976000D01*
X192269952Y-135973716D01*
X192253554Y-135968742D01*
X192238448Y-135960667D01*
X192225203Y-135949797D01*
X192214333Y-135936552D01*
X192210240Y-135928895D01*
X192196626Y-135908521D01*
X192179299Y-135891194D01*
X192158925Y-135877580D01*
X192136286Y-135868202D01*
X192112252Y-135863422D01*
X192087748Y-135863422D01*
X192063714Y-135868202D01*
X192041075Y-135877580D01*
X192020701Y-135891194D01*
X192003374Y-135908521D01*
X191989760Y-135928895D01*
X191985667Y-135936552D01*
X191974797Y-135949797D01*
X191961552Y-135960667D01*
X191946446Y-135968742D01*
X191930048Y-135973716D01*
X191906859Y-135976000D01*
X191493141Y-135976000D01*
X191469952Y-135973716D01*
X191453554Y-135968742D01*
X191438448Y-135960667D01*
X191425203Y-135949797D01*
X191414333Y-135936552D01*
X191410240Y-135928895D01*
X191396626Y-135908521D01*
X191379299Y-135891194D01*
X191358925Y-135877580D01*
X191336286Y-135868202D01*
X191312252Y-135863422D01*
X191287748Y-135863422D01*
X191263714Y-135868202D01*
X191241075Y-135877580D01*
X191220701Y-135891194D01*
X191203374Y-135908521D01*
X191189760Y-135928895D01*
X191185667Y-135936552D01*
X191174797Y-135949797D01*
X191161552Y-135960667D01*
X191146446Y-135968742D01*
X191130048Y-135973716D01*
X191106859Y-135976000D01*
X190693141Y-135976000D01*
X190669952Y-135973716D01*
X190653554Y-135968742D01*
X190638448Y-135960667D01*
X190625203Y-135949797D01*
X190614333Y-135936552D01*
X190610240Y-135928895D01*
X190596626Y-135908521D01*
X190579299Y-135891194D01*
X190558925Y-135877580D01*
X190536286Y-135868202D01*
X190512252Y-135863422D01*
X190487748Y-135863422D01*
X190463714Y-135868202D01*
X190441075Y-135877580D01*
X190420701Y-135891194D01*
X190403374Y-135908521D01*
X190389760Y-135928895D01*
X190385667Y-135936552D01*
X190374797Y-135949797D01*
X190361552Y-135960667D01*
X190346446Y-135968742D01*
X190330048Y-135973716D01*
X190306859Y-135976000D01*
X189893141Y-135976000D01*
X189869952Y-135973716D01*
X189853554Y-135968742D01*
X189838448Y-135960667D01*
X189825203Y-135949797D01*
X189814333Y-135936552D01*
X189810240Y-135928895D01*
X189796626Y-135908521D01*
X189779299Y-135891194D01*
X189758925Y-135877580D01*
X189736286Y-135868202D01*
X189712252Y-135863422D01*
X189687748Y-135863422D01*
X189663714Y-135868202D01*
X189641075Y-135877580D01*
X189620701Y-135891194D01*
X189603374Y-135908521D01*
X189589760Y-135928895D01*
X189585667Y-135936552D01*
X189574797Y-135949797D01*
X189561552Y-135960667D01*
X189546446Y-135968742D01*
X189530048Y-135973716D01*
X189506859Y-135976000D01*
X189093141Y-135976000D01*
X189069952Y-135973716D01*
X189053554Y-135968742D01*
X189038448Y-135960667D01*
X189025203Y-135949797D01*
X189014333Y-135936552D01*
X189010240Y-135928895D01*
X188996626Y-135908521D01*
X188979299Y-135891194D01*
X188958925Y-135877580D01*
X188936286Y-135868202D01*
X188912252Y-135863422D01*
X188887748Y-135863422D01*
X188863714Y-135868202D01*
X188841075Y-135877580D01*
X188820701Y-135891194D01*
X188803374Y-135908521D01*
X188789760Y-135928895D01*
X188785667Y-135936552D01*
X188774797Y-135949797D01*
X188761552Y-135960667D01*
X188746446Y-135968742D01*
X188730048Y-135973716D01*
X188706859Y-135976000D01*
X188293141Y-135976000D01*
X188269952Y-135973716D01*
X188253554Y-135968742D01*
X188238448Y-135960667D01*
X188225203Y-135949797D01*
X188214333Y-135936552D01*
X188210240Y-135928895D01*
X188196626Y-135908521D01*
X188179299Y-135891194D01*
X188158925Y-135877580D01*
X188136286Y-135868202D01*
X188112252Y-135863422D01*
X188087748Y-135863422D01*
X188063714Y-135868202D01*
X188041075Y-135877580D01*
X188020701Y-135891194D01*
X188003374Y-135908521D01*
X187989760Y-135928895D01*
X187985667Y-135936552D01*
X187974797Y-135949797D01*
X187961552Y-135960667D01*
X187946446Y-135968742D01*
X187930048Y-135973716D01*
X187906859Y-135976000D01*
X187493141Y-135976000D01*
X187469952Y-135973716D01*
X187453554Y-135968742D01*
X187438448Y-135960667D01*
X187425203Y-135949797D01*
X187414333Y-135936552D01*
X187406258Y-135921446D01*
X187401284Y-135905048D01*
X187399000Y-135881859D01*
X187399000Y-134468141D01*
X187401284Y-134444952D01*
X187406258Y-134428554D01*
X187414333Y-134413448D01*
X187425203Y-134400203D01*
X187438448Y-134389333D01*
X187453554Y-134381258D01*
X187469952Y-134376284D01*
X187493141Y-134374000D01*
X187906859Y-134374000D01*
X187930048Y-134376284D01*
X187930048Y-134376284D01*
G37*
G36*
X182804591Y-134728085D02*
X182838569Y-134738393D01*
X182869887Y-134755133D01*
X182897339Y-134777661D01*
X182919867Y-134805113D01*
X182936607Y-134836431D01*
X182946915Y-134870409D01*
X182951000Y-134911890D01*
X182951000Y-135588110D01*
X182946915Y-135629591D01*
X182936607Y-135663569D01*
X182919867Y-135694887D01*
X182897339Y-135722339D01*
X182869887Y-135744867D01*
X182838569Y-135761607D01*
X182804591Y-135771915D01*
X182763110Y-135776000D01*
X182161890Y-135776000D01*
X182120409Y-135771915D01*
X182086431Y-135761607D01*
X182055113Y-135744867D01*
X182027661Y-135722339D01*
X182005133Y-135694887D01*
X181988393Y-135663569D01*
X181978085Y-135629591D01*
X181974000Y-135588110D01*
X181974000Y-134911890D01*
X181978085Y-134870409D01*
X181988393Y-134836431D01*
X182005133Y-134805113D01*
X182027661Y-134777661D01*
X182055113Y-134755133D01*
X182086431Y-134738393D01*
X182120409Y-134728085D01*
X182161890Y-134724000D01*
X182763110Y-134724000D01*
X182804591Y-134728085D01*
X182804591Y-134728085D01*
G37*
G36*
X184379591Y-134728085D02*
X184413569Y-134738393D01*
X184444887Y-134755133D01*
X184472339Y-134777661D01*
X184494867Y-134805113D01*
X184511607Y-134836431D01*
X184521915Y-134870409D01*
X184526000Y-134911890D01*
X184526000Y-135588110D01*
X184521915Y-135629591D01*
X184511607Y-135663569D01*
X184494867Y-135694887D01*
X184472339Y-135722339D01*
X184444887Y-135744867D01*
X184413569Y-135761607D01*
X184379591Y-135771915D01*
X184338110Y-135776000D01*
X183736890Y-135776000D01*
X183695409Y-135771915D01*
X183661431Y-135761607D01*
X183630113Y-135744867D01*
X183602661Y-135722339D01*
X183580133Y-135694887D01*
X183563393Y-135663569D01*
X183553085Y-135629591D01*
X183549000Y-135588110D01*
X183549000Y-134911890D01*
X183553085Y-134870409D01*
X183563393Y-134836431D01*
X183580133Y-134805113D01*
X183602661Y-134777661D01*
X183630113Y-134755133D01*
X183661431Y-134738393D01*
X183695409Y-134728085D01*
X183736890Y-134724000D01*
X184338110Y-134724000D01*
X184379591Y-134728085D01*
X184379591Y-134728085D01*
G37*
G36*
X195379591Y-134728085D02*
X195413569Y-134738393D01*
X195444887Y-134755133D01*
X195472339Y-134777661D01*
X195494867Y-134805113D01*
X195511607Y-134836431D01*
X195521915Y-134870409D01*
X195526000Y-134911890D01*
X195526000Y-135513110D01*
X195521915Y-135554591D01*
X195511607Y-135588569D01*
X195494867Y-135619887D01*
X195472339Y-135647339D01*
X195444887Y-135669867D01*
X195413569Y-135686607D01*
X195379591Y-135696915D01*
X195338110Y-135701000D01*
X194661890Y-135701000D01*
X194620409Y-135696915D01*
X194586431Y-135686607D01*
X194555113Y-135669867D01*
X194527661Y-135647339D01*
X194505133Y-135619887D01*
X194488393Y-135588569D01*
X194478085Y-135554591D01*
X194474000Y-135513110D01*
X194474000Y-134911890D01*
X194478085Y-134870409D01*
X194488393Y-134836431D01*
X194505133Y-134805113D01*
X194527661Y-134777661D01*
X194555113Y-134755133D01*
X194586431Y-134738393D01*
X194620409Y-134728085D01*
X194661890Y-134724000D01*
X195338110Y-134724000D01*
X195379591Y-134728085D01*
X195379591Y-134728085D01*
G37*
G36*
X195405048Y-127901284D02*
X195421446Y-127906258D01*
X195436552Y-127914333D01*
X195449797Y-127925203D01*
X195460667Y-127938448D01*
X195468742Y-127953554D01*
X195473716Y-127969952D01*
X195476000Y-127993141D01*
X195476000Y-128406859D01*
X195473716Y-128430048D01*
X195468742Y-128446446D01*
X195460667Y-128461552D01*
X195449797Y-128474797D01*
X195436552Y-128485667D01*
X195428895Y-128489760D01*
X195408521Y-128503374D01*
X195391194Y-128520701D01*
X195377580Y-128541075D01*
X195368202Y-128563714D01*
X195363422Y-128587748D01*
X195363422Y-128612252D01*
X195368202Y-128636286D01*
X195377580Y-128658925D01*
X195391194Y-128679299D01*
X195408521Y-128696626D01*
X195428895Y-128710240D01*
X195436552Y-128714333D01*
X195449797Y-128725203D01*
X195460667Y-128738448D01*
X195468742Y-128753554D01*
X195473716Y-128769952D01*
X195476000Y-128793141D01*
X195476000Y-129206859D01*
X195473716Y-129230048D01*
X195468742Y-129246446D01*
X195460667Y-129261552D01*
X195449797Y-129274797D01*
X195436552Y-129285667D01*
X195428895Y-129289760D01*
X195408521Y-129303374D01*
X195391194Y-129320701D01*
X195377580Y-129341075D01*
X195368202Y-129363714D01*
X195363422Y-129387748D01*
X195363422Y-129412252D01*
X195368202Y-129436286D01*
X195377580Y-129458925D01*
X195391194Y-129479299D01*
X195408521Y-129496626D01*
X195428895Y-129510240D01*
X195436552Y-129514333D01*
X195449797Y-129525203D01*
X195460667Y-129538448D01*
X195468742Y-129553554D01*
X195473716Y-129569952D01*
X195476000Y-129593141D01*
X195476000Y-130006859D01*
X195473716Y-130030048D01*
X195468742Y-130046446D01*
X195460667Y-130061552D01*
X195449797Y-130074797D01*
X195436552Y-130085667D01*
X195428895Y-130089760D01*
X195408521Y-130103374D01*
X195391194Y-130120701D01*
X195377580Y-130141075D01*
X195368202Y-130163714D01*
X195363422Y-130187748D01*
X195363422Y-130212252D01*
X195368202Y-130236286D01*
X195377580Y-130258925D01*
X195391194Y-130279299D01*
X195408521Y-130296626D01*
X195428895Y-130310240D01*
X195436552Y-130314333D01*
X195449797Y-130325203D01*
X195460667Y-130338448D01*
X195468742Y-130353554D01*
X195473716Y-130369952D01*
X195476000Y-130393141D01*
X195476000Y-130806859D01*
X195473716Y-130830048D01*
X195468742Y-130846446D01*
X195460667Y-130861552D01*
X195449797Y-130874797D01*
X195436552Y-130885667D01*
X195428895Y-130889760D01*
X195408521Y-130903374D01*
X195391194Y-130920701D01*
X195377580Y-130941075D01*
X195368202Y-130963714D01*
X195363422Y-130987748D01*
X195363422Y-131012252D01*
X195368202Y-131036286D01*
X195377580Y-131058925D01*
X195391194Y-131079299D01*
X195408521Y-131096626D01*
X195428895Y-131110240D01*
X195436552Y-131114333D01*
X195449797Y-131125203D01*
X195460667Y-131138448D01*
X195468742Y-131153554D01*
X195473716Y-131169952D01*
X195476000Y-131193141D01*
X195476000Y-131606859D01*
X195473716Y-131630048D01*
X195468742Y-131646446D01*
X195460667Y-131661552D01*
X195449797Y-131674797D01*
X195436552Y-131685667D01*
X195428895Y-131689760D01*
X195408521Y-131703374D01*
X195391194Y-131720701D01*
X195377580Y-131741075D01*
X195368202Y-131763714D01*
X195363422Y-131787748D01*
X195363422Y-131812252D01*
X195368202Y-131836286D01*
X195377580Y-131858925D01*
X195391194Y-131879299D01*
X195408521Y-131896626D01*
X195428895Y-131910240D01*
X195436552Y-131914333D01*
X195449797Y-131925203D01*
X195460667Y-131938448D01*
X195468742Y-131953554D01*
X195473716Y-131969952D01*
X195476000Y-131993141D01*
X195476000Y-132406859D01*
X195473716Y-132430048D01*
X195468742Y-132446446D01*
X195460667Y-132461552D01*
X195449797Y-132474797D01*
X195436552Y-132485667D01*
X195428895Y-132489760D01*
X195408521Y-132503374D01*
X195391194Y-132520701D01*
X195377580Y-132541075D01*
X195368202Y-132563714D01*
X195363422Y-132587748D01*
X195363422Y-132612252D01*
X195368202Y-132636286D01*
X195377580Y-132658925D01*
X195391194Y-132679299D01*
X195408521Y-132696626D01*
X195428895Y-132710240D01*
X195436552Y-132714333D01*
X195449797Y-132725203D01*
X195460667Y-132738448D01*
X195468742Y-132753554D01*
X195473716Y-132769952D01*
X195476000Y-132793141D01*
X195476000Y-133206859D01*
X195473716Y-133230048D01*
X195468742Y-133246446D01*
X195460667Y-133261552D01*
X195449797Y-133274797D01*
X195436552Y-133285667D01*
X195428895Y-133289760D01*
X195408521Y-133303374D01*
X195391194Y-133320701D01*
X195377580Y-133341075D01*
X195368202Y-133363714D01*
X195363422Y-133387748D01*
X195363422Y-133412252D01*
X195368202Y-133436286D01*
X195377580Y-133458925D01*
X195391194Y-133479299D01*
X195408521Y-133496626D01*
X195428895Y-133510240D01*
X195436552Y-133514333D01*
X195449797Y-133525203D01*
X195460667Y-133538448D01*
X195468742Y-133553554D01*
X195473716Y-133569952D01*
X195476000Y-133593141D01*
X195476000Y-134006859D01*
X195473716Y-134030048D01*
X195468742Y-134046446D01*
X195460667Y-134061552D01*
X195449797Y-134074797D01*
X195436552Y-134085667D01*
X195421446Y-134093742D01*
X195405048Y-134098716D01*
X195381859Y-134101000D01*
X193968141Y-134101000D01*
X193944952Y-134098716D01*
X193928554Y-134093742D01*
X193913448Y-134085667D01*
X193900203Y-134074797D01*
X193889333Y-134061552D01*
X193881258Y-134046446D01*
X193876284Y-134030048D01*
X193874000Y-134006859D01*
X193874000Y-133593141D01*
X193876284Y-133569952D01*
X193881258Y-133553554D01*
X193889333Y-133538448D01*
X193900203Y-133525203D01*
X193913448Y-133514333D01*
X193921105Y-133510240D01*
X193941479Y-133496626D01*
X193958806Y-133479299D01*
X193972420Y-133458925D01*
X193981798Y-133436286D01*
X193986578Y-133412252D01*
X193986578Y-133387748D01*
X193981798Y-133363714D01*
X193972420Y-133341075D01*
X193958806Y-133320701D01*
X193941479Y-133303374D01*
X193921105Y-133289760D01*
X193913448Y-133285667D01*
X193900203Y-133274797D01*
X193889333Y-133261552D01*
X193881258Y-133246446D01*
X193876284Y-133230048D01*
X193874000Y-133206859D01*
X193874000Y-132793141D01*
X193876284Y-132769952D01*
X193881258Y-132753554D01*
X193889333Y-132738448D01*
X193900203Y-132725203D01*
X193913448Y-132714333D01*
X193921105Y-132710240D01*
X193941479Y-132696626D01*
X193958806Y-132679299D01*
X193972420Y-132658925D01*
X193981798Y-132636286D01*
X193986578Y-132612252D01*
X193986578Y-132587748D01*
X193981798Y-132563714D01*
X193972420Y-132541075D01*
X193958806Y-132520701D01*
X193941479Y-132503374D01*
X193921105Y-132489760D01*
X193913448Y-132485667D01*
X193900203Y-132474797D01*
X193889333Y-132461552D01*
X193881258Y-132446446D01*
X193876284Y-132430048D01*
X193874000Y-132406859D01*
X193874000Y-131993141D01*
X193876284Y-131969952D01*
X193881258Y-131953554D01*
X193889333Y-131938448D01*
X193900203Y-131925203D01*
X193913448Y-131914333D01*
X193921105Y-131910240D01*
X193941479Y-131896626D01*
X193958806Y-131879299D01*
X193972420Y-131858925D01*
X193981798Y-131836286D01*
X193986578Y-131812252D01*
X193986578Y-131787748D01*
X193981798Y-131763714D01*
X193972420Y-131741075D01*
X193958806Y-131720701D01*
X193941479Y-131703374D01*
X193921105Y-131689760D01*
X193913448Y-131685667D01*
X193900203Y-131674797D01*
X193889333Y-131661552D01*
X193881258Y-131646446D01*
X193876284Y-131630048D01*
X193874000Y-131606859D01*
X193874000Y-131193141D01*
X193876284Y-131169952D01*
X193881258Y-131153554D01*
X193889333Y-131138448D01*
X193900203Y-131125203D01*
X193913448Y-131114333D01*
X193921105Y-131110240D01*
X193941479Y-131096626D01*
X193958806Y-131079299D01*
X193972420Y-131058925D01*
X193981798Y-131036286D01*
X193986578Y-131012252D01*
X193986578Y-130987748D01*
X193981798Y-130963714D01*
X193972420Y-130941075D01*
X193958806Y-130920701D01*
X193941479Y-130903374D01*
X193921105Y-130889760D01*
X193913448Y-130885667D01*
X193900203Y-130874797D01*
X193889333Y-130861552D01*
X193881258Y-130846446D01*
X193876284Y-130830048D01*
X193874000Y-130806859D01*
X193874000Y-130393141D01*
X193876284Y-130369952D01*
X193881258Y-130353554D01*
X193889333Y-130338448D01*
X193900203Y-130325203D01*
X193913448Y-130314333D01*
X193921105Y-130310240D01*
X193941479Y-130296626D01*
X193958806Y-130279299D01*
X193972420Y-130258925D01*
X193981798Y-130236286D01*
X193986578Y-130212252D01*
X193986578Y-130187748D01*
X193981798Y-130163714D01*
X193972420Y-130141075D01*
X193958806Y-130120701D01*
X193941479Y-130103374D01*
X193921105Y-130089760D01*
X193913448Y-130085667D01*
X193900203Y-130074797D01*
X193889333Y-130061552D01*
X193881258Y-130046446D01*
X193876284Y-130030048D01*
X193874000Y-130006859D01*
X193874000Y-129593141D01*
X193876284Y-129569952D01*
X193881258Y-129553554D01*
X193889333Y-129538448D01*
X193900203Y-129525203D01*
X193913448Y-129514333D01*
X193921105Y-129510240D01*
X193941479Y-129496626D01*
X193958806Y-129479299D01*
X193972420Y-129458925D01*
X193981798Y-129436286D01*
X193986578Y-129412252D01*
X193986578Y-129387748D01*
X193981798Y-129363714D01*
X193972420Y-129341075D01*
X193958806Y-129320701D01*
X193941479Y-129303374D01*
X193921105Y-129289760D01*
X193913448Y-129285667D01*
X193900203Y-129274797D01*
X193889333Y-129261552D01*
X193881258Y-129246446D01*
X193876284Y-129230048D01*
X193874000Y-129206859D01*
X193874000Y-128793141D01*
X193876284Y-128769952D01*
X193881258Y-128753554D01*
X193889333Y-128738448D01*
X193900203Y-128725203D01*
X193913448Y-128714333D01*
X193921105Y-128710240D01*
X193941479Y-128696626D01*
X193958806Y-128679299D01*
X193972420Y-128658925D01*
X193981798Y-128636286D01*
X193986578Y-128612252D01*
X193986578Y-128587748D01*
X193981798Y-128563714D01*
X193972420Y-128541075D01*
X193958806Y-128520701D01*
X193941479Y-128503374D01*
X193921105Y-128489760D01*
X193913448Y-128485667D01*
X193900203Y-128474797D01*
X193889333Y-128461552D01*
X193881258Y-128446446D01*
X193876284Y-128430048D01*
X193874000Y-128406859D01*
X193874000Y-127993141D01*
X193876284Y-127969952D01*
X193881258Y-127953554D01*
X193889333Y-127938448D01*
X193900203Y-127925203D01*
X193913448Y-127914333D01*
X193928554Y-127906258D01*
X193944952Y-127901284D01*
X193968141Y-127899000D01*
X195381859Y-127899000D01*
X195405048Y-127901284D01*
X195405048Y-127901284D01*
G37*
G36*
X187055048Y-127901284D02*
X187071446Y-127906258D01*
X187086552Y-127914333D01*
X187099797Y-127925203D01*
X187110667Y-127938448D01*
X187118742Y-127953554D01*
X187123716Y-127969952D01*
X187126000Y-127993141D01*
X187126000Y-128406859D01*
X187123716Y-128430048D01*
X187118742Y-128446446D01*
X187110667Y-128461552D01*
X187099797Y-128474797D01*
X187086552Y-128485667D01*
X187078895Y-128489760D01*
X187058521Y-128503374D01*
X187041194Y-128520701D01*
X187027580Y-128541075D01*
X187018202Y-128563714D01*
X187013422Y-128587748D01*
X187013422Y-128612252D01*
X187018202Y-128636286D01*
X187027580Y-128658925D01*
X187041194Y-128679299D01*
X187058521Y-128696626D01*
X187078895Y-128710240D01*
X187086552Y-128714333D01*
X187099797Y-128725203D01*
X187110667Y-128738448D01*
X187118742Y-128753554D01*
X187123716Y-128769952D01*
X187126000Y-128793141D01*
X187126000Y-129206859D01*
X187123716Y-129230048D01*
X187118742Y-129246446D01*
X187110667Y-129261552D01*
X187099797Y-129274797D01*
X187086552Y-129285667D01*
X187078895Y-129289760D01*
X187058521Y-129303374D01*
X187041194Y-129320701D01*
X187027580Y-129341075D01*
X187018202Y-129363714D01*
X187013422Y-129387748D01*
X187013422Y-129412252D01*
X187018202Y-129436286D01*
X187027580Y-129458925D01*
X187041194Y-129479299D01*
X187058521Y-129496626D01*
X187078895Y-129510240D01*
X187086552Y-129514333D01*
X187099797Y-129525203D01*
X187110667Y-129538448D01*
X187118742Y-129553554D01*
X187123716Y-129569952D01*
X187126000Y-129593141D01*
X187126000Y-130006859D01*
X187123716Y-130030048D01*
X187118742Y-130046446D01*
X187110667Y-130061552D01*
X187099797Y-130074797D01*
X187086552Y-130085667D01*
X187078895Y-130089760D01*
X187058521Y-130103374D01*
X187041194Y-130120701D01*
X187027580Y-130141075D01*
X187018202Y-130163714D01*
X187013422Y-130187748D01*
X187013422Y-130212252D01*
X187018202Y-130236286D01*
X187027580Y-130258925D01*
X187041194Y-130279299D01*
X187058521Y-130296626D01*
X187078895Y-130310240D01*
X187086552Y-130314333D01*
X187099797Y-130325203D01*
X187110667Y-130338448D01*
X187118742Y-130353554D01*
X187123716Y-130369952D01*
X187126000Y-130393141D01*
X187126000Y-130806859D01*
X187123716Y-130830048D01*
X187118742Y-130846446D01*
X187110667Y-130861552D01*
X187099797Y-130874797D01*
X187086552Y-130885667D01*
X187078895Y-130889760D01*
X187058521Y-130903374D01*
X187041194Y-130920701D01*
X187027580Y-130941075D01*
X187018202Y-130963714D01*
X187013422Y-130987748D01*
X187013422Y-131012252D01*
X187018202Y-131036286D01*
X187027580Y-131058925D01*
X187041194Y-131079299D01*
X187058521Y-131096626D01*
X187078895Y-131110240D01*
X187086552Y-131114333D01*
X187099797Y-131125203D01*
X187110667Y-131138448D01*
X187118742Y-131153554D01*
X187123716Y-131169952D01*
X187126000Y-131193141D01*
X187126000Y-131606859D01*
X187123716Y-131630048D01*
X187118742Y-131646446D01*
X187110667Y-131661552D01*
X187099797Y-131674797D01*
X187086552Y-131685667D01*
X187078895Y-131689760D01*
X187058521Y-131703374D01*
X187041194Y-131720701D01*
X187027580Y-131741075D01*
X187018202Y-131763714D01*
X187013422Y-131787748D01*
X187013422Y-131812252D01*
X187018202Y-131836286D01*
X187027580Y-131858925D01*
X187041194Y-131879299D01*
X187058521Y-131896626D01*
X187078895Y-131910240D01*
X187086552Y-131914333D01*
X187099797Y-131925203D01*
X187110667Y-131938448D01*
X187118742Y-131953554D01*
X187123716Y-131969952D01*
X187126000Y-131993141D01*
X187126000Y-132406859D01*
X187123716Y-132430048D01*
X187118742Y-132446446D01*
X187110667Y-132461552D01*
X187099797Y-132474797D01*
X187086552Y-132485667D01*
X187078895Y-132489760D01*
X187058521Y-132503374D01*
X187041194Y-132520701D01*
X187027580Y-132541075D01*
X187018202Y-132563714D01*
X187013422Y-132587748D01*
X187013422Y-132612252D01*
X187018202Y-132636286D01*
X187027580Y-132658925D01*
X187041194Y-132679299D01*
X187058521Y-132696626D01*
X187078895Y-132710240D01*
X187086552Y-132714333D01*
X187099797Y-132725203D01*
X187110667Y-132738448D01*
X187118742Y-132753554D01*
X187123716Y-132769952D01*
X187126000Y-132793141D01*
X187126000Y-133206859D01*
X187123716Y-133230048D01*
X187118742Y-133246446D01*
X187110667Y-133261552D01*
X187099797Y-133274797D01*
X187086552Y-133285667D01*
X187078895Y-133289760D01*
X187058521Y-133303374D01*
X187041194Y-133320701D01*
X187027580Y-133341075D01*
X187018202Y-133363714D01*
X187013422Y-133387748D01*
X187013422Y-133412252D01*
X187018202Y-133436286D01*
X187027580Y-133458925D01*
X187041194Y-133479299D01*
X187058521Y-133496626D01*
X187078895Y-133510240D01*
X187086552Y-133514333D01*
X187099797Y-133525203D01*
X187110667Y-133538448D01*
X187118742Y-133553554D01*
X187123716Y-133569952D01*
X187126000Y-133593141D01*
X187126000Y-134006859D01*
X187123716Y-134030048D01*
X187118742Y-134046446D01*
X187110667Y-134061552D01*
X187099797Y-134074797D01*
X187086552Y-134085667D01*
X187071446Y-134093742D01*
X187055048Y-134098716D01*
X187031859Y-134101000D01*
X185618141Y-134101000D01*
X185594952Y-134098716D01*
X185578554Y-134093742D01*
X185563448Y-134085667D01*
X185550203Y-134074797D01*
X185539333Y-134061552D01*
X185531258Y-134046446D01*
X185526284Y-134030048D01*
X185524000Y-134006859D01*
X185524000Y-133593141D01*
X185526284Y-133569952D01*
X185531258Y-133553554D01*
X185539333Y-133538448D01*
X185550203Y-133525203D01*
X185563448Y-133514333D01*
X185571105Y-133510240D01*
X185591479Y-133496626D01*
X185608806Y-133479299D01*
X185622420Y-133458925D01*
X185631798Y-133436286D01*
X185636578Y-133412252D01*
X185636578Y-133387748D01*
X185631798Y-133363714D01*
X185622420Y-133341075D01*
X185608806Y-133320701D01*
X185591479Y-133303374D01*
X185571105Y-133289760D01*
X185563448Y-133285667D01*
X185550203Y-133274797D01*
X185539333Y-133261552D01*
X185531258Y-133246446D01*
X185526284Y-133230048D01*
X185524000Y-133206859D01*
X185524000Y-132793141D01*
X185526284Y-132769952D01*
X185531258Y-132753554D01*
X185539333Y-132738448D01*
X185550203Y-132725203D01*
X185563448Y-132714333D01*
X185571105Y-132710240D01*
X185591479Y-132696626D01*
X185608806Y-132679299D01*
X185622420Y-132658925D01*
X185631798Y-132636286D01*
X185636578Y-132612252D01*
X185636578Y-132587748D01*
X185631798Y-132563714D01*
X185622420Y-132541075D01*
X185608806Y-132520701D01*
X185591479Y-132503374D01*
X185571105Y-132489760D01*
X185563448Y-132485667D01*
X185550203Y-132474797D01*
X185539333Y-132461552D01*
X185531258Y-132446446D01*
X185526284Y-132430048D01*
X185524000Y-132406859D01*
X185524000Y-131993141D01*
X185526284Y-131969952D01*
X185531258Y-131953554D01*
X185539333Y-131938448D01*
X185550203Y-131925203D01*
X185563448Y-131914333D01*
X185571105Y-131910240D01*
X185591479Y-131896626D01*
X185608806Y-131879299D01*
X185622420Y-131858925D01*
X185631798Y-131836286D01*
X185636578Y-131812252D01*
X185636578Y-131787748D01*
X185631798Y-131763714D01*
X185622420Y-131741075D01*
X185608806Y-131720701D01*
X185591479Y-131703374D01*
X185571105Y-131689760D01*
X185563448Y-131685667D01*
X185550203Y-131674797D01*
X185539333Y-131661552D01*
X185531258Y-131646446D01*
X185526284Y-131630048D01*
X185524000Y-131606859D01*
X185524000Y-131193141D01*
X185526284Y-131169952D01*
X185531258Y-131153554D01*
X185539333Y-131138448D01*
X185550203Y-131125203D01*
X185563448Y-131114333D01*
X185571105Y-131110240D01*
X185591479Y-131096626D01*
X185608806Y-131079299D01*
X185622420Y-131058925D01*
X185631798Y-131036286D01*
X185636578Y-131012252D01*
X185636578Y-130987748D01*
X185631798Y-130963714D01*
X185622420Y-130941075D01*
X185608806Y-130920701D01*
X185591479Y-130903374D01*
X185571105Y-130889760D01*
X185563448Y-130885667D01*
X185550203Y-130874797D01*
X185539333Y-130861552D01*
X185531258Y-130846446D01*
X185526284Y-130830048D01*
X185524000Y-130806859D01*
X185524000Y-130393141D01*
X185526284Y-130369952D01*
X185531258Y-130353554D01*
X185539333Y-130338448D01*
X185550203Y-130325203D01*
X185563448Y-130314333D01*
X185571105Y-130310240D01*
X185591479Y-130296626D01*
X185608806Y-130279299D01*
X185622420Y-130258925D01*
X185631798Y-130236286D01*
X185636578Y-130212252D01*
X185636578Y-130187748D01*
X185631798Y-130163714D01*
X185622420Y-130141075D01*
X185608806Y-130120701D01*
X185591479Y-130103374D01*
X185571105Y-130089760D01*
X185563448Y-130085667D01*
X185550203Y-130074797D01*
X185539333Y-130061552D01*
X185531258Y-130046446D01*
X185526284Y-130030048D01*
X185524000Y-130006859D01*
X185524000Y-129593141D01*
X185526284Y-129569952D01*
X185531258Y-129553554D01*
X185539333Y-129538448D01*
X185550203Y-129525203D01*
X185563448Y-129514333D01*
X185571105Y-129510240D01*
X185591479Y-129496626D01*
X185608806Y-129479299D01*
X185622420Y-129458925D01*
X185631798Y-129436286D01*
X185636578Y-129412252D01*
X185636578Y-129387748D01*
X185631798Y-129363714D01*
X185622420Y-129341075D01*
X185608806Y-129320701D01*
X185591479Y-129303374D01*
X185571105Y-129289760D01*
X185563448Y-129285667D01*
X185550203Y-129274797D01*
X185539333Y-129261552D01*
X185531258Y-129246446D01*
X185526284Y-129230048D01*
X185524000Y-129206859D01*
X185524000Y-128793141D01*
X185526284Y-128769952D01*
X185531258Y-128753554D01*
X185539333Y-128738448D01*
X185550203Y-128725203D01*
X185563448Y-128714333D01*
X185571105Y-128710240D01*
X185591479Y-128696626D01*
X185608806Y-128679299D01*
X185622420Y-128658925D01*
X185631798Y-128636286D01*
X185636578Y-128612252D01*
X185636578Y-128587748D01*
X185631798Y-128563714D01*
X185622420Y-128541075D01*
X185608806Y-128520701D01*
X185591479Y-128503374D01*
X185571105Y-128489760D01*
X185563448Y-128485667D01*
X185550203Y-128474797D01*
X185539333Y-128461552D01*
X185531258Y-128446446D01*
X185526284Y-128430048D01*
X185524000Y-128406859D01*
X185524000Y-127993141D01*
X185526284Y-127969952D01*
X185531258Y-127953554D01*
X185539333Y-127938448D01*
X185550203Y-127925203D01*
X185563448Y-127914333D01*
X185578554Y-127906258D01*
X185594952Y-127901284D01*
X185618141Y-127899000D01*
X187031859Y-127899000D01*
X187055048Y-127901284D01*
X187055048Y-127901284D01*
G37*
G36*
X200110442Y-132185518D02*
X200176627Y-132192037D01*
X200289853Y-132226384D01*
X200346467Y-132243557D01*
X200485087Y-132317652D01*
X200502991Y-132327222D01*
X200531355Y-132350500D01*
X200640186Y-132439814D01*
X200706567Y-132520701D01*
X200752778Y-132577009D01*
X200752779Y-132577011D01*
X200836443Y-132733533D01*
X200836443Y-132733534D01*
X200887963Y-132903373D01*
X200905359Y-133080000D01*
X200887963Y-133256627D01*
X200873782Y-133303374D01*
X200836443Y-133426467D01*
X200796127Y-133501892D01*
X200752778Y-133582991D01*
X200744448Y-133593141D01*
X200640186Y-133720186D01*
X200538729Y-133803448D01*
X200502991Y-133832778D01*
X200502989Y-133832779D01*
X200346467Y-133916443D01*
X200289853Y-133933616D01*
X200176627Y-133967963D01*
X200110442Y-133974482D01*
X200044260Y-133981000D01*
X199955740Y-133981000D01*
X199889558Y-133974482D01*
X199823373Y-133967963D01*
X199710147Y-133933616D01*
X199653533Y-133916443D01*
X199497011Y-133832779D01*
X199497009Y-133832778D01*
X199461271Y-133803448D01*
X199359814Y-133720186D01*
X199255552Y-133593141D01*
X199247222Y-133582991D01*
X199203873Y-133501892D01*
X199163557Y-133426467D01*
X199126218Y-133303374D01*
X199112037Y-133256627D01*
X199094641Y-133080000D01*
X199112037Y-132903373D01*
X199163557Y-132733534D01*
X199163557Y-132733533D01*
X199247221Y-132577011D01*
X199247222Y-132577009D01*
X199293433Y-132520701D01*
X199359814Y-132439814D01*
X199468645Y-132350500D01*
X199497009Y-132327222D01*
X199514913Y-132317652D01*
X199653533Y-132243557D01*
X199710147Y-132226384D01*
X199823373Y-132192037D01*
X199889558Y-132185518D01*
X199955740Y-132179000D01*
X200044260Y-132179000D01*
X200110442Y-132185518D01*
X200110442Y-132185518D01*
G37*
G36*
X183154591Y-130878085D02*
X183188569Y-130888393D01*
X183219887Y-130905133D01*
X183247339Y-130927661D01*
X183269867Y-130955113D01*
X183286607Y-130986431D01*
X183296915Y-131020409D01*
X183301000Y-131061890D01*
X183301000Y-131738110D01*
X183296915Y-131779591D01*
X183286607Y-131813569D01*
X183269867Y-131844887D01*
X183247339Y-131872339D01*
X183219887Y-131894867D01*
X183188569Y-131911607D01*
X183154591Y-131921915D01*
X183113110Y-131926000D01*
X182511890Y-131926000D01*
X182470409Y-131921915D01*
X182436431Y-131911607D01*
X182405113Y-131894867D01*
X182377661Y-131872339D01*
X182355133Y-131844887D01*
X182338393Y-131813569D01*
X182328085Y-131779591D01*
X182324000Y-131738110D01*
X182324000Y-131061890D01*
X182328085Y-131020409D01*
X182338393Y-130986431D01*
X182355133Y-130955113D01*
X182377661Y-130927661D01*
X182405113Y-130905133D01*
X182436431Y-130888393D01*
X182470409Y-130878085D01*
X182511890Y-130874000D01*
X183113110Y-130874000D01*
X183154591Y-130878085D01*
X183154591Y-130878085D01*
G37*
G36*
X184729591Y-130878085D02*
X184763569Y-130888393D01*
X184794887Y-130905133D01*
X184822339Y-130927661D01*
X184844867Y-130955113D01*
X184861607Y-130986431D01*
X184871915Y-131020409D01*
X184876000Y-131061890D01*
X184876000Y-131738110D01*
X184871915Y-131779591D01*
X184861607Y-131813569D01*
X184844867Y-131844887D01*
X184822339Y-131872339D01*
X184794887Y-131894867D01*
X184763569Y-131911607D01*
X184729591Y-131921915D01*
X184688110Y-131926000D01*
X184086890Y-131926000D01*
X184045409Y-131921915D01*
X184011431Y-131911607D01*
X183980113Y-131894867D01*
X183952661Y-131872339D01*
X183930133Y-131844887D01*
X183913393Y-131813569D01*
X183903085Y-131779591D01*
X183899000Y-131738110D01*
X183899000Y-131061890D01*
X183903085Y-131020409D01*
X183913393Y-130986431D01*
X183930133Y-130955113D01*
X183952661Y-130927661D01*
X183980113Y-130905133D01*
X184011431Y-130888393D01*
X184045409Y-130878085D01*
X184086890Y-130874000D01*
X184688110Y-130874000D01*
X184729591Y-130878085D01*
X184729591Y-130878085D01*
G37*
G36*
X200110442Y-129645518D02*
X200176627Y-129652037D01*
X200289853Y-129686384D01*
X200346467Y-129703557D01*
X200485087Y-129777652D01*
X200502991Y-129787222D01*
X200538729Y-129816552D01*
X200640186Y-129899814D01*
X200705878Y-129979861D01*
X200752778Y-130037009D01*
X200752779Y-130037011D01*
X200836443Y-130193533D01*
X200836443Y-130193534D01*
X200887963Y-130363373D01*
X200905359Y-130540000D01*
X200887963Y-130716627D01*
X200868781Y-130779861D01*
X200836443Y-130886467D01*
X200764848Y-131020409D01*
X200752778Y-131042991D01*
X200723448Y-131078729D01*
X200640186Y-131180186D01*
X200555725Y-131249500D01*
X200502991Y-131292778D01*
X200502989Y-131292779D01*
X200346467Y-131376443D01*
X200289853Y-131393616D01*
X200176627Y-131427963D01*
X200110442Y-131434482D01*
X200044260Y-131441000D01*
X199955740Y-131441000D01*
X199889558Y-131434482D01*
X199823373Y-131427963D01*
X199710147Y-131393616D01*
X199653533Y-131376443D01*
X199497011Y-131292779D01*
X199497009Y-131292778D01*
X199444275Y-131249500D01*
X199359814Y-131180186D01*
X199276552Y-131078729D01*
X199247222Y-131042991D01*
X199235152Y-131020409D01*
X199163557Y-130886467D01*
X199131219Y-130779861D01*
X199112037Y-130716627D01*
X199094641Y-130540000D01*
X199112037Y-130363373D01*
X199163557Y-130193534D01*
X199163557Y-130193533D01*
X199247221Y-130037011D01*
X199247222Y-130037009D01*
X199294122Y-129979861D01*
X199359814Y-129899814D01*
X199461271Y-129816552D01*
X199497009Y-129787222D01*
X199514913Y-129777652D01*
X199653533Y-129703557D01*
X199710147Y-129686384D01*
X199823373Y-129652037D01*
X199889558Y-129645518D01*
X199955740Y-129639000D01*
X200044260Y-129639000D01*
X200110442Y-129645518D01*
X200110442Y-129645518D01*
G37*
G36*
X200901000Y-128901000D02*
X199099000Y-128901000D01*
X199099000Y-127099000D01*
X200901000Y-127099000D01*
X200901000Y-128901000D01*
X200901000Y-128901000D01*
G37*
G36*
X183154591Y-127678085D02*
X183188569Y-127688393D01*
X183219887Y-127705133D01*
X183247339Y-127727661D01*
X183269867Y-127755113D01*
X183286607Y-127786431D01*
X183296915Y-127820409D01*
X183301000Y-127861890D01*
X183301000Y-128538110D01*
X183296915Y-128579591D01*
X183286607Y-128613569D01*
X183269867Y-128644887D01*
X183247339Y-128672339D01*
X183219887Y-128694867D01*
X183188569Y-128711607D01*
X183154591Y-128721915D01*
X183113110Y-128726000D01*
X182511890Y-128726000D01*
X182470409Y-128721915D01*
X182436431Y-128711607D01*
X182405113Y-128694867D01*
X182377661Y-128672339D01*
X182355133Y-128644887D01*
X182338393Y-128613569D01*
X182328085Y-128579591D01*
X182324000Y-128538110D01*
X182324000Y-127861890D01*
X182328085Y-127820409D01*
X182338393Y-127786431D01*
X182355133Y-127755113D01*
X182377661Y-127727661D01*
X182405113Y-127705133D01*
X182436431Y-127688393D01*
X182470409Y-127678085D01*
X182511890Y-127674000D01*
X183113110Y-127674000D01*
X183154591Y-127678085D01*
X183154591Y-127678085D01*
G37*
G36*
X184729591Y-127678085D02*
X184763569Y-127688393D01*
X184794887Y-127705133D01*
X184822339Y-127727661D01*
X184844867Y-127755113D01*
X184861607Y-127786431D01*
X184871915Y-127820409D01*
X184876000Y-127861890D01*
X184876000Y-128538110D01*
X184871915Y-128579591D01*
X184861607Y-128613569D01*
X184844867Y-128644887D01*
X184822339Y-128672339D01*
X184794887Y-128694867D01*
X184763569Y-128711607D01*
X184729591Y-128721915D01*
X184688110Y-128726000D01*
X184086890Y-128726000D01*
X184045409Y-128721915D01*
X184011431Y-128711607D01*
X183980113Y-128694867D01*
X183952661Y-128672339D01*
X183930133Y-128644887D01*
X183913393Y-128613569D01*
X183903085Y-128579591D01*
X183899000Y-128538110D01*
X183899000Y-127861890D01*
X183903085Y-127820409D01*
X183913393Y-127786431D01*
X183930133Y-127755113D01*
X183952661Y-127727661D01*
X183980113Y-127705133D01*
X184011431Y-127688393D01*
X184045409Y-127678085D01*
X184086890Y-127674000D01*
X184688110Y-127674000D01*
X184729591Y-127678085D01*
X184729591Y-127678085D01*
G37*
G36*
X187930048Y-126026284D02*
X187946446Y-126031258D01*
X187961552Y-126039333D01*
X187974797Y-126050203D01*
X187985667Y-126063448D01*
X187989760Y-126071105D01*
X188003374Y-126091479D01*
X188020701Y-126108806D01*
X188041075Y-126122420D01*
X188063714Y-126131798D01*
X188087748Y-126136578D01*
X188112252Y-126136578D01*
X188136286Y-126131798D01*
X188158925Y-126122420D01*
X188179299Y-126108806D01*
X188196626Y-126091479D01*
X188210240Y-126071105D01*
X188214333Y-126063448D01*
X188225203Y-126050203D01*
X188238448Y-126039333D01*
X188253554Y-126031258D01*
X188269952Y-126026284D01*
X188293141Y-126024000D01*
X188706859Y-126024000D01*
X188730048Y-126026284D01*
X188746446Y-126031258D01*
X188761552Y-126039333D01*
X188774797Y-126050203D01*
X188785667Y-126063448D01*
X188789760Y-126071105D01*
X188803374Y-126091479D01*
X188820701Y-126108806D01*
X188841075Y-126122420D01*
X188863714Y-126131798D01*
X188887748Y-126136578D01*
X188912252Y-126136578D01*
X188936286Y-126131798D01*
X188958925Y-126122420D01*
X188979299Y-126108806D01*
X188996626Y-126091479D01*
X189010240Y-126071105D01*
X189014333Y-126063448D01*
X189025203Y-126050203D01*
X189038448Y-126039333D01*
X189053554Y-126031258D01*
X189069952Y-126026284D01*
X189093141Y-126024000D01*
X189506859Y-126024000D01*
X189530048Y-126026284D01*
X189546446Y-126031258D01*
X189561552Y-126039333D01*
X189574797Y-126050203D01*
X189585667Y-126063448D01*
X189589760Y-126071105D01*
X189603374Y-126091479D01*
X189620701Y-126108806D01*
X189641075Y-126122420D01*
X189663714Y-126131798D01*
X189687748Y-126136578D01*
X189712252Y-126136578D01*
X189736286Y-126131798D01*
X189758925Y-126122420D01*
X189779299Y-126108806D01*
X189796626Y-126091479D01*
X189810240Y-126071105D01*
X189814333Y-126063448D01*
X189825203Y-126050203D01*
X189838448Y-126039333D01*
X189853554Y-126031258D01*
X189869952Y-126026284D01*
X189893141Y-126024000D01*
X190306859Y-126024000D01*
X190330048Y-126026284D01*
X190346446Y-126031258D01*
X190361552Y-126039333D01*
X190374797Y-126050203D01*
X190385667Y-126063448D01*
X190389760Y-126071105D01*
X190403374Y-126091479D01*
X190420701Y-126108806D01*
X190441075Y-126122420D01*
X190463714Y-126131798D01*
X190487748Y-126136578D01*
X190512252Y-126136578D01*
X190536286Y-126131798D01*
X190558925Y-126122420D01*
X190579299Y-126108806D01*
X190596626Y-126091479D01*
X190610240Y-126071105D01*
X190614333Y-126063448D01*
X190625203Y-126050203D01*
X190638448Y-126039333D01*
X190653554Y-126031258D01*
X190669952Y-126026284D01*
X190693141Y-126024000D01*
X191106859Y-126024000D01*
X191130048Y-126026284D01*
X191146446Y-126031258D01*
X191161552Y-126039333D01*
X191174797Y-126050203D01*
X191185667Y-126063448D01*
X191189760Y-126071105D01*
X191203374Y-126091479D01*
X191220701Y-126108806D01*
X191241075Y-126122420D01*
X191263714Y-126131798D01*
X191287748Y-126136578D01*
X191312252Y-126136578D01*
X191336286Y-126131798D01*
X191358925Y-126122420D01*
X191379299Y-126108806D01*
X191396626Y-126091479D01*
X191410240Y-126071105D01*
X191414333Y-126063448D01*
X191425203Y-126050203D01*
X191438448Y-126039333D01*
X191453554Y-126031258D01*
X191469952Y-126026284D01*
X191493141Y-126024000D01*
X191906859Y-126024000D01*
X191930048Y-126026284D01*
X191946446Y-126031258D01*
X191961552Y-126039333D01*
X191974797Y-126050203D01*
X191985667Y-126063448D01*
X191989760Y-126071105D01*
X192003374Y-126091479D01*
X192020701Y-126108806D01*
X192041075Y-126122420D01*
X192063714Y-126131798D01*
X192087748Y-126136578D01*
X192112252Y-126136578D01*
X192136286Y-126131798D01*
X192158925Y-126122420D01*
X192179299Y-126108806D01*
X192196626Y-126091479D01*
X192210240Y-126071105D01*
X192214333Y-126063448D01*
X192225203Y-126050203D01*
X192238448Y-126039333D01*
X192253554Y-126031258D01*
X192269952Y-126026284D01*
X192293141Y-126024000D01*
X192706859Y-126024000D01*
X192730048Y-126026284D01*
X192746446Y-126031258D01*
X192761552Y-126039333D01*
X192774797Y-126050203D01*
X192785667Y-126063448D01*
X192789760Y-126071105D01*
X192803374Y-126091479D01*
X192820701Y-126108806D01*
X192841075Y-126122420D01*
X192863714Y-126131798D01*
X192887748Y-126136578D01*
X192912252Y-126136578D01*
X192936286Y-126131798D01*
X192958925Y-126122420D01*
X192979299Y-126108806D01*
X192996626Y-126091479D01*
X193010240Y-126071105D01*
X193014333Y-126063448D01*
X193025203Y-126050203D01*
X193038448Y-126039333D01*
X193053554Y-126031258D01*
X193069952Y-126026284D01*
X193093141Y-126024000D01*
X193506859Y-126024000D01*
X193530048Y-126026284D01*
X193546446Y-126031258D01*
X193561552Y-126039333D01*
X193574797Y-126050203D01*
X193585667Y-126063448D01*
X193593742Y-126078554D01*
X193598716Y-126094952D01*
X193601000Y-126118141D01*
X193601000Y-127531859D01*
X193598716Y-127555048D01*
X193593742Y-127571446D01*
X193585667Y-127586552D01*
X193574797Y-127599797D01*
X193561552Y-127610667D01*
X193546446Y-127618742D01*
X193530048Y-127623716D01*
X193506859Y-127626000D01*
X193093141Y-127626000D01*
X193069952Y-127623716D01*
X193053554Y-127618742D01*
X193038448Y-127610667D01*
X193025203Y-127599797D01*
X193014333Y-127586552D01*
X193010240Y-127578895D01*
X192996626Y-127558521D01*
X192979299Y-127541194D01*
X192958925Y-127527580D01*
X192936286Y-127518202D01*
X192912252Y-127513422D01*
X192887748Y-127513422D01*
X192863714Y-127518202D01*
X192841075Y-127527580D01*
X192820701Y-127541194D01*
X192803374Y-127558521D01*
X192789760Y-127578895D01*
X192785667Y-127586552D01*
X192774797Y-127599797D01*
X192761552Y-127610667D01*
X192746446Y-127618742D01*
X192730048Y-127623716D01*
X192706859Y-127626000D01*
X192293141Y-127626000D01*
X192269952Y-127623716D01*
X192253554Y-127618742D01*
X192238448Y-127610667D01*
X192225203Y-127599797D01*
X192214333Y-127586552D01*
X192210240Y-127578895D01*
X192196626Y-127558521D01*
X192179299Y-127541194D01*
X192158925Y-127527580D01*
X192136286Y-127518202D01*
X192112252Y-127513422D01*
X192087748Y-127513422D01*
X192063714Y-127518202D01*
X192041075Y-127527580D01*
X192020701Y-127541194D01*
X192003374Y-127558521D01*
X191989760Y-127578895D01*
X191985667Y-127586552D01*
X191974797Y-127599797D01*
X191961552Y-127610667D01*
X191946446Y-127618742D01*
X191930048Y-127623716D01*
X191906859Y-127626000D01*
X191493141Y-127626000D01*
X191469952Y-127623716D01*
X191453554Y-127618742D01*
X191438448Y-127610667D01*
X191425203Y-127599797D01*
X191414333Y-127586552D01*
X191410240Y-127578895D01*
X191396626Y-127558521D01*
X191379299Y-127541194D01*
X191358925Y-127527580D01*
X191336286Y-127518202D01*
X191312252Y-127513422D01*
X191287748Y-127513422D01*
X191263714Y-127518202D01*
X191241075Y-127527580D01*
X191220701Y-127541194D01*
X191203374Y-127558521D01*
X191189760Y-127578895D01*
X191185667Y-127586552D01*
X191174797Y-127599797D01*
X191161552Y-127610667D01*
X191146446Y-127618742D01*
X191130048Y-127623716D01*
X191106859Y-127626000D01*
X190693141Y-127626000D01*
X190669952Y-127623716D01*
X190653554Y-127618742D01*
X190638448Y-127610667D01*
X190625203Y-127599797D01*
X190614333Y-127586552D01*
X190610240Y-127578895D01*
X190596626Y-127558521D01*
X190579299Y-127541194D01*
X190558925Y-127527580D01*
X190536286Y-127518202D01*
X190512252Y-127513422D01*
X190487748Y-127513422D01*
X190463714Y-127518202D01*
X190441075Y-127527580D01*
X190420701Y-127541194D01*
X190403374Y-127558521D01*
X190389760Y-127578895D01*
X190385667Y-127586552D01*
X190374797Y-127599797D01*
X190361552Y-127610667D01*
X190346446Y-127618742D01*
X190330048Y-127623716D01*
X190306859Y-127626000D01*
X189893141Y-127626000D01*
X189869952Y-127623716D01*
X189853554Y-127618742D01*
X189838448Y-127610667D01*
X189825203Y-127599797D01*
X189814333Y-127586552D01*
X189810240Y-127578895D01*
X189796626Y-127558521D01*
X189779299Y-127541194D01*
X189758925Y-127527580D01*
X189736286Y-127518202D01*
X189712252Y-127513422D01*
X189687748Y-127513422D01*
X189663714Y-127518202D01*
X189641075Y-127527580D01*
X189620701Y-127541194D01*
X189603374Y-127558521D01*
X189589760Y-127578895D01*
X189585667Y-127586552D01*
X189574797Y-127599797D01*
X189561552Y-127610667D01*
X189546446Y-127618742D01*
X189530048Y-127623716D01*
X189506859Y-127626000D01*
X189093141Y-127626000D01*
X189069952Y-127623716D01*
X189053554Y-127618742D01*
X189038448Y-127610667D01*
X189025203Y-127599797D01*
X189014333Y-127586552D01*
X189010240Y-127578895D01*
X188996626Y-127558521D01*
X188979299Y-127541194D01*
X188958925Y-127527580D01*
X188936286Y-127518202D01*
X188912252Y-127513422D01*
X188887748Y-127513422D01*
X188863714Y-127518202D01*
X188841075Y-127527580D01*
X188820701Y-127541194D01*
X188803374Y-127558521D01*
X188789760Y-127578895D01*
X188785667Y-127586552D01*
X188774797Y-127599797D01*
X188761552Y-127610667D01*
X188746446Y-127618742D01*
X188730048Y-127623716D01*
X188706859Y-127626000D01*
X188293141Y-127626000D01*
X188269952Y-127623716D01*
X188253554Y-127618742D01*
X188238448Y-127610667D01*
X188225203Y-127599797D01*
X188214333Y-127586552D01*
X188210240Y-127578895D01*
X188196626Y-127558521D01*
X188179299Y-127541194D01*
X188158925Y-127527580D01*
X188136286Y-127518202D01*
X188112252Y-127513422D01*
X188087748Y-127513422D01*
X188063714Y-127518202D01*
X188041075Y-127527580D01*
X188020701Y-127541194D01*
X188003374Y-127558521D01*
X187989760Y-127578895D01*
X187985667Y-127586552D01*
X187974797Y-127599797D01*
X187961552Y-127610667D01*
X187946446Y-127618742D01*
X187930048Y-127623716D01*
X187906859Y-127626000D01*
X187493141Y-127626000D01*
X187469952Y-127623716D01*
X187453554Y-127618742D01*
X187438448Y-127610667D01*
X187425203Y-127599797D01*
X187414333Y-127586552D01*
X187406258Y-127571446D01*
X187401284Y-127555048D01*
X187399000Y-127531859D01*
X187399000Y-126118141D01*
X187401284Y-126094952D01*
X187406258Y-126078554D01*
X187414333Y-126063448D01*
X187425203Y-126050203D01*
X187438448Y-126039333D01*
X187453554Y-126031258D01*
X187469952Y-126026284D01*
X187493141Y-126024000D01*
X187906859Y-126024000D01*
X187930048Y-126026284D01*
X187930048Y-126026284D01*
G37*
G36*
X197701000Y-127201000D02*
X196699000Y-127201000D01*
X196699000Y-126299000D01*
X197701000Y-126299000D01*
X197701000Y-127201000D01*
X197701000Y-127201000D01*
G37*
G36*
X195701000Y-126251000D02*
X194699000Y-126251000D01*
X194699000Y-125349000D01*
X195701000Y-125349000D01*
X195701000Y-126251000D01*
X195701000Y-126251000D01*
G37*
G36*
X200976000Y-125626000D02*
X199999000Y-125626000D01*
X199999000Y-124574000D01*
X200976000Y-124574000D01*
X200976000Y-125626000D01*
X200976000Y-125626000D01*
G37*
G36*
X199401000Y-125626000D02*
X198424000Y-125626000D01*
X198424000Y-124574000D01*
X199401000Y-124574000D01*
X199401000Y-125626000D01*
X199401000Y-125626000D01*
G37*
G36*
X197701000Y-125301000D02*
X196699000Y-125301000D01*
X196699000Y-124399000D01*
X197701000Y-124399000D01*
X197701000Y-125301000D01*
X197701000Y-125301000D01*
G37*
G36*
X183375256Y-121391298D02*
X183481579Y-121412447D01*
X183782042Y-121536903D01*
X183956592Y-121653534D01*
X184052454Y-121717587D01*
X184282413Y-121947546D01*
X184282415Y-121947549D01*
X184463097Y-122217958D01*
X184581162Y-122502991D01*
X184587553Y-122518422D01*
X184651000Y-122837389D01*
X184651000Y-123162611D01*
X184587553Y-123481578D01*
X184463098Y-123782040D01*
X184282413Y-124052454D01*
X184052454Y-124282413D01*
X184052451Y-124282415D01*
X183782042Y-124463097D01*
X183481579Y-124587553D01*
X183375256Y-124608702D01*
X183162611Y-124651000D01*
X182837389Y-124651000D01*
X182624744Y-124608702D01*
X182518421Y-124587553D01*
X182217958Y-124463097D01*
X181947549Y-124282415D01*
X181947546Y-124282413D01*
X181717587Y-124052454D01*
X181536902Y-123782040D01*
X181412447Y-123481578D01*
X181349000Y-123162611D01*
X181349000Y-122837389D01*
X181412447Y-122518422D01*
X181418839Y-122502991D01*
X181536903Y-122217958D01*
X181717585Y-121947549D01*
X181717587Y-121947546D01*
X181947546Y-121717587D01*
X182043408Y-121653534D01*
X182217958Y-121536903D01*
X182518421Y-121412447D01*
X182624744Y-121391298D01*
X182837389Y-121349000D01*
X183162611Y-121349000D01*
X183375256Y-121391298D01*
X183375256Y-121391298D01*
G37*
G36*
X188530442Y-121105518D02*
X188596627Y-121112037D01*
X188709853Y-121146384D01*
X188766467Y-121163557D01*
X188905087Y-121237652D01*
X188922991Y-121247222D01*
X188958729Y-121276552D01*
X189060186Y-121359814D01*
X189143448Y-121461271D01*
X189172778Y-121497009D01*
X189172779Y-121497011D01*
X189256443Y-121653533D01*
X189256443Y-121653534D01*
X189307963Y-121823373D01*
X189325359Y-122000000D01*
X189307963Y-122176627D01*
X189273616Y-122289853D01*
X189256443Y-122346467D01*
X189182348Y-122485087D01*
X189172778Y-122502991D01*
X189160114Y-122518422D01*
X189060186Y-122640186D01*
X188958729Y-122723448D01*
X188922991Y-122752778D01*
X188922989Y-122752779D01*
X188766467Y-122836443D01*
X188709853Y-122853616D01*
X188596627Y-122887963D01*
X188530442Y-122894482D01*
X188464260Y-122901000D01*
X188375740Y-122901000D01*
X188309558Y-122894482D01*
X188243373Y-122887963D01*
X188130147Y-122853616D01*
X188073533Y-122836443D01*
X187917011Y-122752779D01*
X187917009Y-122752778D01*
X187881271Y-122723448D01*
X187779814Y-122640186D01*
X187679886Y-122518422D01*
X187667222Y-122502991D01*
X187657652Y-122485087D01*
X187583557Y-122346467D01*
X187566384Y-122289853D01*
X187532037Y-122176627D01*
X187514641Y-122000000D01*
X187532037Y-121823373D01*
X187583557Y-121653534D01*
X187583557Y-121653533D01*
X187667221Y-121497011D01*
X187667222Y-121497009D01*
X187696552Y-121461271D01*
X187779814Y-121359814D01*
X187881271Y-121276552D01*
X187917009Y-121247222D01*
X187934913Y-121237652D01*
X188073533Y-121163557D01*
X188130147Y-121146384D01*
X188243373Y-121112037D01*
X188309558Y-121105518D01*
X188375740Y-121099000D01*
X188464260Y-121099000D01*
X188530442Y-121105518D01*
X188530442Y-121105518D01*
G37*
G36*
X191070442Y-121105518D02*
X191136627Y-121112037D01*
X191249853Y-121146384D01*
X191306467Y-121163557D01*
X191445087Y-121237652D01*
X191462991Y-121247222D01*
X191498729Y-121276552D01*
X191600186Y-121359814D01*
X191683448Y-121461271D01*
X191712778Y-121497009D01*
X191712779Y-121497011D01*
X191796443Y-121653533D01*
X191796443Y-121653534D01*
X191847963Y-121823373D01*
X191865359Y-122000000D01*
X191847963Y-122176627D01*
X191813616Y-122289853D01*
X191796443Y-122346467D01*
X191722348Y-122485087D01*
X191712778Y-122502991D01*
X191700114Y-122518422D01*
X191600186Y-122640186D01*
X191498729Y-122723448D01*
X191462991Y-122752778D01*
X191462989Y-122752779D01*
X191306467Y-122836443D01*
X191249853Y-122853616D01*
X191136627Y-122887963D01*
X191070442Y-122894482D01*
X191004260Y-122901000D01*
X190915740Y-122901000D01*
X190849558Y-122894482D01*
X190783373Y-122887963D01*
X190670147Y-122853616D01*
X190613533Y-122836443D01*
X190457011Y-122752779D01*
X190457009Y-122752778D01*
X190421271Y-122723448D01*
X190319814Y-122640186D01*
X190219886Y-122518422D01*
X190207222Y-122502991D01*
X190197652Y-122485087D01*
X190123557Y-122346467D01*
X190106384Y-122289853D01*
X190072037Y-122176627D01*
X190054641Y-122000000D01*
X190072037Y-121823373D01*
X190123557Y-121653534D01*
X190123557Y-121653533D01*
X190207221Y-121497011D01*
X190207222Y-121497009D01*
X190236552Y-121461271D01*
X190319814Y-121359814D01*
X190421271Y-121276552D01*
X190457009Y-121247222D01*
X190474913Y-121237652D01*
X190613533Y-121163557D01*
X190670147Y-121146384D01*
X190783373Y-121112037D01*
X190849558Y-121105518D01*
X190915740Y-121099000D01*
X191004260Y-121099000D01*
X191070442Y-121105518D01*
X191070442Y-121105518D01*
G37*
G36*
X194401000Y-122901000D02*
X192599000Y-122901000D01*
X192599000Y-121099000D01*
X194401000Y-121099000D01*
X194401000Y-122901000D01*
X194401000Y-122901000D01*
G37*
M02*
