G04 #@! TF.GenerationSoftware,KiCad,Pcbnew,5.0.2+dfsg1-1*
G04 #@! TF.CreationDate,2019-07-19T17:38:54+02:00*
G04 #@! TF.ProjectId,AutoGardener_Outdoor,4175746f-4761-4726-9465-6e65725f4f75,rev?*
G04 #@! TF.SameCoordinates,Original*
G04 #@! TF.FileFunction,Copper,L2,Bot*
G04 #@! TF.FilePolarity,Positive*
%FSLAX46Y46*%
G04 Gerber Fmt 4.6, Leading zero omitted, Abs format (unit mm)*
G04 Created by KiCad (PCBNEW 5.0.2+dfsg1-1) date Pá 19. července 2019, 17:38:54 CEST*
%MOMM*%
%LPD*%
G01*
G04 APERTURE LIST*
G04 #@! TA.AperFunction,ComponentPad*
%ADD10O,1.700000X1.700000*%
G04 #@! TD*
G04 #@! TA.AperFunction,ComponentPad*
%ADD11R,1.700000X1.700000*%
G04 #@! TD*
G04 #@! TA.AperFunction,ViaPad*
%ADD12C,0.800000*%
G04 #@! TD*
G04 #@! TA.AperFunction,Conductor*
%ADD13C,0.300000*%
G04 #@! TD*
G04 #@! TA.AperFunction,Conductor*
%ADD14C,0.500000*%
G04 #@! TD*
G04 #@! TA.AperFunction,Conductor*
%ADD15C,0.254000*%
G04 #@! TD*
G04 APERTURE END LIST*
D10*
G04 #@! TO.P,BAT1,2*
G04 #@! TO.N,GND*
X182460000Y-148000000D03*
D11*
G04 #@! TO.P,BAT1,1*
G04 #@! TO.N,+5V*
X185000000Y-148000000D03*
G04 #@! TD*
G04 #@! TO.P,J4,1*
G04 #@! TO.N,+5V*
X188750000Y-148000000D03*
D10*
G04 #@! TO.P,J4,2*
G04 #@! TO.N,Net-(J4-Pad2)*
X191290000Y-148000000D03*
G04 #@! TD*
G04 #@! TO.P,J2,3*
G04 #@! TO.N,GND*
X200000000Y-148080000D03*
G04 #@! TO.P,J2,2*
G04 #@! TO.N,/UART_TX*
X200000000Y-145540000D03*
D11*
G04 #@! TO.P,J2,1*
G04 #@! TO.N,/UART_RX*
X200000000Y-143000000D03*
G04 #@! TD*
G04 #@! TO.P,J3,1*
G04 #@! TO.N,Net-(J3-Pad1)*
X193500000Y-122000000D03*
D10*
G04 #@! TO.P,J3,2*
G04 #@! TO.N,VCC*
X190960000Y-122000000D03*
G04 #@! TO.P,J3,3*
G04 #@! TO.N,/ADC_SOIL1*
X188420000Y-122000000D03*
G04 #@! TD*
D11*
G04 #@! TO.P,J1,1*
G04 #@! TO.N,VCC*
X200000000Y-128000000D03*
D10*
G04 #@! TO.P,J1,2*
G04 #@! TO.N,/SWCLK*
X200000000Y-130540000D03*
G04 #@! TO.P,J1,3*
G04 #@! TO.N,GND*
X200000000Y-133080000D03*
G04 #@! TO.P,J1,4*
G04 #@! TO.N,/SWDIO*
X200000000Y-135620000D03*
G04 #@! TO.P,J1,5*
G04 #@! TO.N,/NRST*
X200000000Y-138160000D03*
G04 #@! TD*
D12*
G04 #@! TO.N,GND*
X181000000Y-126000000D03*
X181000000Y-132000000D03*
X181000000Y-137000000D03*
X181000000Y-142000000D03*
X181000000Y-147000000D03*
X193000000Y-147000000D03*
X181000000Y-121000000D03*
X185000000Y-121000000D03*
X187000000Y-144000000D03*
X187000000Y-146000000D03*
X195000000Y-124000000D03*
X200000000Y-122000000D03*
X190000000Y-125000000D03*
X196000000Y-122000000D03*
X198000000Y-123000000D03*
X186500000Y-126500000D03*
X183000000Y-126500000D03*
X192500000Y-125000000D03*
X191500000Y-129500000D03*
X190000000Y-131500000D03*
X193000000Y-132000000D03*
X196500000Y-144000000D03*
X195000000Y-141500000D03*
X191000000Y-137000000D03*
X193000000Y-145000000D03*
X186000000Y-137500000D03*
G04 #@! TO.N,/NRST*
X197000000Y-130600000D03*
X193100000Y-130600000D03*
G04 #@! TO.N,VCC*
X184037500Y-133062500D03*
X189100000Y-133100000D03*
X196300004Y-133900000D03*
G04 #@! TO.N,/ADC_SOIL1*
X188600000Y-129100000D03*
G04 #@! TD*
D13*
G04 #@! TO.N,/NRST*
X197000000Y-130600000D02*
X193100000Y-130600000D01*
D14*
G04 #@! TO.N,VCC*
X184075000Y-133100000D02*
X184037500Y-133062500D01*
X189100000Y-133100000D02*
X189100000Y-133100000D01*
X189100000Y-133100000D02*
X184075000Y-133100000D01*
D13*
X196700003Y-133500001D02*
X196300004Y-133900000D01*
X198500000Y-131700004D02*
X196700003Y-133500001D01*
X200000000Y-128000000D02*
X198500000Y-129500000D01*
X198500000Y-129500000D02*
X198500000Y-131700004D01*
G04 #@! TO.N,/ADC_SOIL1*
X188600000Y-122180000D02*
X188600000Y-129100000D01*
X188420000Y-122000000D02*
X188600000Y-122180000D01*
G04 #@! TD*
D15*
G04 #@! TO.N,GND*
G36*
X187355142Y-120935142D02*
X187028697Y-121423703D01*
X186914064Y-122000000D01*
X187028697Y-122576297D01*
X187355142Y-123064858D01*
X187823000Y-123377470D01*
X187823001Y-128424602D01*
X187729352Y-128518251D01*
X187573000Y-128895717D01*
X187573000Y-129304283D01*
X187729352Y-129681749D01*
X188018251Y-129970648D01*
X188395717Y-130127000D01*
X188804283Y-130127000D01*
X189181749Y-129970648D01*
X189470648Y-129681749D01*
X189627000Y-129304283D01*
X189627000Y-128895717D01*
X189470648Y-128518251D01*
X189377000Y-128424603D01*
X189377000Y-123136926D01*
X189484858Y-123064858D01*
X189690000Y-122757840D01*
X189895142Y-123064858D01*
X190383703Y-123391303D01*
X190814529Y-123477000D01*
X191105471Y-123477000D01*
X191536297Y-123391303D01*
X192024858Y-123064858D01*
X192046895Y-123031877D01*
X192059380Y-123094643D01*
X192197959Y-123302041D01*
X192405357Y-123440620D01*
X192650000Y-123489283D01*
X194350000Y-123489283D01*
X194594643Y-123440620D01*
X194802041Y-123302041D01*
X194940620Y-123094643D01*
X194989283Y-122850000D01*
X194989283Y-121150000D01*
X194940620Y-120905357D01*
X194802041Y-120697959D01*
X194696592Y-120627500D01*
X200938196Y-120627500D01*
X201137846Y-120667213D01*
X201254704Y-120745295D01*
X201332788Y-120862155D01*
X201372500Y-121061803D01*
X201372500Y-126803409D01*
X201302041Y-126697959D01*
X201094643Y-126559380D01*
X200850000Y-126510717D01*
X199150000Y-126510717D01*
X198905357Y-126559380D01*
X198697959Y-126697959D01*
X198559380Y-126905357D01*
X198510717Y-127150000D01*
X198510717Y-128390440D01*
X198004695Y-128896462D01*
X197939814Y-128939814D01*
X197768082Y-129196831D01*
X197747155Y-129302041D01*
X197707778Y-129500000D01*
X197723000Y-129576526D01*
X197723000Y-129870603D01*
X197581749Y-129729352D01*
X197204283Y-129573000D01*
X196795717Y-129573000D01*
X196418251Y-129729352D01*
X196324603Y-129823000D01*
X193775397Y-129823000D01*
X193681749Y-129729352D01*
X193304283Y-129573000D01*
X192895717Y-129573000D01*
X192518251Y-129729352D01*
X192229352Y-130018251D01*
X192073000Y-130395717D01*
X192073000Y-130804283D01*
X192229352Y-131181749D01*
X192518251Y-131470648D01*
X192895717Y-131627000D01*
X193304283Y-131627000D01*
X193681749Y-131470648D01*
X193775397Y-131377000D01*
X196324603Y-131377000D01*
X196418251Y-131470648D01*
X196795717Y-131627000D01*
X197204283Y-131627000D01*
X197581749Y-131470648D01*
X197723001Y-131329396D01*
X197723001Y-131378159D01*
X196228161Y-132873000D01*
X196095721Y-132873000D01*
X195718255Y-133029352D01*
X195429356Y-133318251D01*
X195273004Y-133695717D01*
X195273004Y-134104283D01*
X195429356Y-134481749D01*
X195718255Y-134770648D01*
X196095721Y-134927000D01*
X196504287Y-134927000D01*
X196881753Y-134770648D01*
X197170652Y-134481749D01*
X197327004Y-134104283D01*
X197327004Y-133971843D01*
X198564470Y-132734377D01*
X198679845Y-132953000D01*
X199873000Y-132953000D01*
X199873000Y-132933000D01*
X200127000Y-132933000D01*
X200127000Y-132953000D01*
X200147000Y-132953000D01*
X200147000Y-133207000D01*
X200127000Y-133207000D01*
X200127000Y-133227000D01*
X199873000Y-133227000D01*
X199873000Y-133207000D01*
X198679845Y-133207000D01*
X198558524Y-133436890D01*
X198728355Y-133846924D01*
X199118642Y-134275183D01*
X199256934Y-134340128D01*
X198935142Y-134555142D01*
X198608697Y-135043703D01*
X198494064Y-135620000D01*
X198608697Y-136196297D01*
X198935142Y-136684858D01*
X199242160Y-136890000D01*
X198935142Y-137095142D01*
X198608697Y-137583703D01*
X198494064Y-138160000D01*
X198608697Y-138736297D01*
X198935142Y-139224858D01*
X199423703Y-139551303D01*
X199854529Y-139637000D01*
X200145471Y-139637000D01*
X200576297Y-139551303D01*
X201064858Y-139224858D01*
X201372501Y-138764437D01*
X201372501Y-141803409D01*
X201302041Y-141697959D01*
X201094643Y-141559380D01*
X200850000Y-141510717D01*
X199150000Y-141510717D01*
X198905357Y-141559380D01*
X198697959Y-141697959D01*
X198559380Y-141905357D01*
X198510717Y-142150000D01*
X198510717Y-143850000D01*
X198559380Y-144094643D01*
X198697959Y-144302041D01*
X198905357Y-144440620D01*
X198968123Y-144453105D01*
X198935142Y-144475142D01*
X198608697Y-144963703D01*
X198494064Y-145540000D01*
X198608697Y-146116297D01*
X198935142Y-146604858D01*
X199256934Y-146819872D01*
X199118642Y-146884817D01*
X198728355Y-147313076D01*
X198558524Y-147723110D01*
X198679845Y-147953000D01*
X199873000Y-147953000D01*
X199873000Y-147933000D01*
X200127000Y-147933000D01*
X200127000Y-147953000D01*
X200147000Y-147953000D01*
X200147000Y-148207000D01*
X200127000Y-148207000D01*
X200127000Y-148227000D01*
X199873000Y-148227000D01*
X199873000Y-148207000D01*
X198679845Y-148207000D01*
X198558524Y-148436890D01*
X198728355Y-148846924D01*
X199118642Y-149275183D01*
X199325864Y-149372500D01*
X191894438Y-149372500D01*
X192354858Y-149064858D01*
X192681303Y-148576297D01*
X192795936Y-148000000D01*
X192681303Y-147423703D01*
X192354858Y-146935142D01*
X191866297Y-146608697D01*
X191606511Y-146557022D01*
X193773000Y-146557022D01*
X193773000Y-147442978D01*
X194112040Y-148261494D01*
X194738506Y-148887960D01*
X195557022Y-149227000D01*
X196442978Y-149227000D01*
X197261494Y-148887960D01*
X197887960Y-148261494D01*
X198227000Y-147442978D01*
X198227000Y-146557022D01*
X197887960Y-145738506D01*
X197261494Y-145112040D01*
X196442978Y-144773000D01*
X195557022Y-144773000D01*
X194738506Y-145112040D01*
X194112040Y-145738506D01*
X193773000Y-146557022D01*
X191606511Y-146557022D01*
X191435471Y-146523000D01*
X191144529Y-146523000D01*
X190713703Y-146608697D01*
X190225142Y-146935142D01*
X190203105Y-146968123D01*
X190190620Y-146905357D01*
X190052041Y-146697959D01*
X189844643Y-146559380D01*
X189600000Y-146510717D01*
X187900000Y-146510717D01*
X187655357Y-146559380D01*
X187447959Y-146697959D01*
X187309380Y-146905357D01*
X187260717Y-147150000D01*
X187260717Y-148850000D01*
X187309380Y-149094643D01*
X187447959Y-149302041D01*
X187553408Y-149372500D01*
X186196592Y-149372500D01*
X186302041Y-149302041D01*
X186440620Y-149094643D01*
X186489283Y-148850000D01*
X186489283Y-147150000D01*
X186440620Y-146905357D01*
X186302041Y-146697959D01*
X186094643Y-146559380D01*
X185850000Y-146510717D01*
X184150000Y-146510717D01*
X183905357Y-146559380D01*
X183697959Y-146697959D01*
X183559380Y-146905357D01*
X183538167Y-147012001D01*
X183226924Y-146728355D01*
X182816890Y-146558524D01*
X182587000Y-146679845D01*
X182587000Y-147873000D01*
X182607000Y-147873000D01*
X182607000Y-148127000D01*
X182587000Y-148127000D01*
X182587000Y-148147000D01*
X182333000Y-148147000D01*
X182333000Y-148127000D01*
X181139181Y-148127000D01*
X181018514Y-148356892D01*
X181264817Y-148881358D01*
X181693076Y-149271645D01*
X181936577Y-149372500D01*
X181061803Y-149372500D01*
X180862155Y-149332788D01*
X180745295Y-149254704D01*
X180667213Y-149137846D01*
X180627500Y-148938196D01*
X180627500Y-147643108D01*
X181018514Y-147643108D01*
X181139181Y-147873000D01*
X182333000Y-147873000D01*
X182333000Y-146679845D01*
X182103110Y-146558524D01*
X181693076Y-146728355D01*
X181264817Y-147118642D01*
X181018514Y-147643108D01*
X180627500Y-147643108D01*
X180627500Y-132858217D01*
X183010500Y-132858217D01*
X183010500Y-133266783D01*
X183166852Y-133644249D01*
X183455751Y-133933148D01*
X183833217Y-134089500D01*
X184241783Y-134089500D01*
X184513381Y-133977000D01*
X188533586Y-133977000D01*
X188895717Y-134127000D01*
X189304283Y-134127000D01*
X189681749Y-133970648D01*
X189970648Y-133681749D01*
X190127000Y-133304283D01*
X190127000Y-132895717D01*
X189970648Y-132518251D01*
X189681749Y-132229352D01*
X189304283Y-132073000D01*
X188895717Y-132073000D01*
X188533586Y-132223000D01*
X184650397Y-132223000D01*
X184619249Y-132191852D01*
X184241783Y-132035500D01*
X183833217Y-132035500D01*
X183455751Y-132191852D01*
X183166852Y-132480751D01*
X183010500Y-132858217D01*
X180627500Y-132858217D01*
X180627500Y-122557022D01*
X180773000Y-122557022D01*
X180773000Y-123442978D01*
X181112040Y-124261494D01*
X181738506Y-124887960D01*
X182557022Y-125227000D01*
X183442978Y-125227000D01*
X184261494Y-124887960D01*
X184887960Y-124261494D01*
X185227000Y-123442978D01*
X185227000Y-122557022D01*
X184887960Y-121738506D01*
X184261494Y-121112040D01*
X183442978Y-120773000D01*
X182557022Y-120773000D01*
X181738506Y-121112040D01*
X181112040Y-121738506D01*
X180773000Y-122557022D01*
X180627500Y-122557022D01*
X180627500Y-121061804D01*
X180667213Y-120862154D01*
X180745295Y-120745296D01*
X180862155Y-120667212D01*
X181061803Y-120627500D01*
X187815562Y-120627500D01*
X187355142Y-120935142D01*
X187355142Y-120935142D01*
G37*
X187355142Y-120935142D02*
X187028697Y-121423703D01*
X186914064Y-122000000D01*
X187028697Y-122576297D01*
X187355142Y-123064858D01*
X187823000Y-123377470D01*
X187823001Y-128424602D01*
X187729352Y-128518251D01*
X187573000Y-128895717D01*
X187573000Y-129304283D01*
X187729352Y-129681749D01*
X188018251Y-129970648D01*
X188395717Y-130127000D01*
X188804283Y-130127000D01*
X189181749Y-129970648D01*
X189470648Y-129681749D01*
X189627000Y-129304283D01*
X189627000Y-128895717D01*
X189470648Y-128518251D01*
X189377000Y-128424603D01*
X189377000Y-123136926D01*
X189484858Y-123064858D01*
X189690000Y-122757840D01*
X189895142Y-123064858D01*
X190383703Y-123391303D01*
X190814529Y-123477000D01*
X191105471Y-123477000D01*
X191536297Y-123391303D01*
X192024858Y-123064858D01*
X192046895Y-123031877D01*
X192059380Y-123094643D01*
X192197959Y-123302041D01*
X192405357Y-123440620D01*
X192650000Y-123489283D01*
X194350000Y-123489283D01*
X194594643Y-123440620D01*
X194802041Y-123302041D01*
X194940620Y-123094643D01*
X194989283Y-122850000D01*
X194989283Y-121150000D01*
X194940620Y-120905357D01*
X194802041Y-120697959D01*
X194696592Y-120627500D01*
X200938196Y-120627500D01*
X201137846Y-120667213D01*
X201254704Y-120745295D01*
X201332788Y-120862155D01*
X201372500Y-121061803D01*
X201372500Y-126803409D01*
X201302041Y-126697959D01*
X201094643Y-126559380D01*
X200850000Y-126510717D01*
X199150000Y-126510717D01*
X198905357Y-126559380D01*
X198697959Y-126697959D01*
X198559380Y-126905357D01*
X198510717Y-127150000D01*
X198510717Y-128390440D01*
X198004695Y-128896462D01*
X197939814Y-128939814D01*
X197768082Y-129196831D01*
X197747155Y-129302041D01*
X197707778Y-129500000D01*
X197723000Y-129576526D01*
X197723000Y-129870603D01*
X197581749Y-129729352D01*
X197204283Y-129573000D01*
X196795717Y-129573000D01*
X196418251Y-129729352D01*
X196324603Y-129823000D01*
X193775397Y-129823000D01*
X193681749Y-129729352D01*
X193304283Y-129573000D01*
X192895717Y-129573000D01*
X192518251Y-129729352D01*
X192229352Y-130018251D01*
X192073000Y-130395717D01*
X192073000Y-130804283D01*
X192229352Y-131181749D01*
X192518251Y-131470648D01*
X192895717Y-131627000D01*
X193304283Y-131627000D01*
X193681749Y-131470648D01*
X193775397Y-131377000D01*
X196324603Y-131377000D01*
X196418251Y-131470648D01*
X196795717Y-131627000D01*
X197204283Y-131627000D01*
X197581749Y-131470648D01*
X197723001Y-131329396D01*
X197723001Y-131378159D01*
X196228161Y-132873000D01*
X196095721Y-132873000D01*
X195718255Y-133029352D01*
X195429356Y-133318251D01*
X195273004Y-133695717D01*
X195273004Y-134104283D01*
X195429356Y-134481749D01*
X195718255Y-134770648D01*
X196095721Y-134927000D01*
X196504287Y-134927000D01*
X196881753Y-134770648D01*
X197170652Y-134481749D01*
X197327004Y-134104283D01*
X197327004Y-133971843D01*
X198564470Y-132734377D01*
X198679845Y-132953000D01*
X199873000Y-132953000D01*
X199873000Y-132933000D01*
X200127000Y-132933000D01*
X200127000Y-132953000D01*
X200147000Y-132953000D01*
X200147000Y-133207000D01*
X200127000Y-133207000D01*
X200127000Y-133227000D01*
X199873000Y-133227000D01*
X199873000Y-133207000D01*
X198679845Y-133207000D01*
X198558524Y-133436890D01*
X198728355Y-133846924D01*
X199118642Y-134275183D01*
X199256934Y-134340128D01*
X198935142Y-134555142D01*
X198608697Y-135043703D01*
X198494064Y-135620000D01*
X198608697Y-136196297D01*
X198935142Y-136684858D01*
X199242160Y-136890000D01*
X198935142Y-137095142D01*
X198608697Y-137583703D01*
X198494064Y-138160000D01*
X198608697Y-138736297D01*
X198935142Y-139224858D01*
X199423703Y-139551303D01*
X199854529Y-139637000D01*
X200145471Y-139637000D01*
X200576297Y-139551303D01*
X201064858Y-139224858D01*
X201372501Y-138764437D01*
X201372501Y-141803409D01*
X201302041Y-141697959D01*
X201094643Y-141559380D01*
X200850000Y-141510717D01*
X199150000Y-141510717D01*
X198905357Y-141559380D01*
X198697959Y-141697959D01*
X198559380Y-141905357D01*
X198510717Y-142150000D01*
X198510717Y-143850000D01*
X198559380Y-144094643D01*
X198697959Y-144302041D01*
X198905357Y-144440620D01*
X198968123Y-144453105D01*
X198935142Y-144475142D01*
X198608697Y-144963703D01*
X198494064Y-145540000D01*
X198608697Y-146116297D01*
X198935142Y-146604858D01*
X199256934Y-146819872D01*
X199118642Y-146884817D01*
X198728355Y-147313076D01*
X198558524Y-147723110D01*
X198679845Y-147953000D01*
X199873000Y-147953000D01*
X199873000Y-147933000D01*
X200127000Y-147933000D01*
X200127000Y-147953000D01*
X200147000Y-147953000D01*
X200147000Y-148207000D01*
X200127000Y-148207000D01*
X200127000Y-148227000D01*
X199873000Y-148227000D01*
X199873000Y-148207000D01*
X198679845Y-148207000D01*
X198558524Y-148436890D01*
X198728355Y-148846924D01*
X199118642Y-149275183D01*
X199325864Y-149372500D01*
X191894438Y-149372500D01*
X192354858Y-149064858D01*
X192681303Y-148576297D01*
X192795936Y-148000000D01*
X192681303Y-147423703D01*
X192354858Y-146935142D01*
X191866297Y-146608697D01*
X191606511Y-146557022D01*
X193773000Y-146557022D01*
X193773000Y-147442978D01*
X194112040Y-148261494D01*
X194738506Y-148887960D01*
X195557022Y-149227000D01*
X196442978Y-149227000D01*
X197261494Y-148887960D01*
X197887960Y-148261494D01*
X198227000Y-147442978D01*
X198227000Y-146557022D01*
X197887960Y-145738506D01*
X197261494Y-145112040D01*
X196442978Y-144773000D01*
X195557022Y-144773000D01*
X194738506Y-145112040D01*
X194112040Y-145738506D01*
X193773000Y-146557022D01*
X191606511Y-146557022D01*
X191435471Y-146523000D01*
X191144529Y-146523000D01*
X190713703Y-146608697D01*
X190225142Y-146935142D01*
X190203105Y-146968123D01*
X190190620Y-146905357D01*
X190052041Y-146697959D01*
X189844643Y-146559380D01*
X189600000Y-146510717D01*
X187900000Y-146510717D01*
X187655357Y-146559380D01*
X187447959Y-146697959D01*
X187309380Y-146905357D01*
X187260717Y-147150000D01*
X187260717Y-148850000D01*
X187309380Y-149094643D01*
X187447959Y-149302041D01*
X187553408Y-149372500D01*
X186196592Y-149372500D01*
X186302041Y-149302041D01*
X186440620Y-149094643D01*
X186489283Y-148850000D01*
X186489283Y-147150000D01*
X186440620Y-146905357D01*
X186302041Y-146697959D01*
X186094643Y-146559380D01*
X185850000Y-146510717D01*
X184150000Y-146510717D01*
X183905357Y-146559380D01*
X183697959Y-146697959D01*
X183559380Y-146905357D01*
X183538167Y-147012001D01*
X183226924Y-146728355D01*
X182816890Y-146558524D01*
X182587000Y-146679845D01*
X182587000Y-147873000D01*
X182607000Y-147873000D01*
X182607000Y-148127000D01*
X182587000Y-148127000D01*
X182587000Y-148147000D01*
X182333000Y-148147000D01*
X182333000Y-148127000D01*
X181139181Y-148127000D01*
X181018514Y-148356892D01*
X181264817Y-148881358D01*
X181693076Y-149271645D01*
X181936577Y-149372500D01*
X181061803Y-149372500D01*
X180862155Y-149332788D01*
X180745295Y-149254704D01*
X180667213Y-149137846D01*
X180627500Y-148938196D01*
X180627500Y-147643108D01*
X181018514Y-147643108D01*
X181139181Y-147873000D01*
X182333000Y-147873000D01*
X182333000Y-146679845D01*
X182103110Y-146558524D01*
X181693076Y-146728355D01*
X181264817Y-147118642D01*
X181018514Y-147643108D01*
X180627500Y-147643108D01*
X180627500Y-132858217D01*
X183010500Y-132858217D01*
X183010500Y-133266783D01*
X183166852Y-133644249D01*
X183455751Y-133933148D01*
X183833217Y-134089500D01*
X184241783Y-134089500D01*
X184513381Y-133977000D01*
X188533586Y-133977000D01*
X188895717Y-134127000D01*
X189304283Y-134127000D01*
X189681749Y-133970648D01*
X189970648Y-133681749D01*
X190127000Y-133304283D01*
X190127000Y-132895717D01*
X189970648Y-132518251D01*
X189681749Y-132229352D01*
X189304283Y-132073000D01*
X188895717Y-132073000D01*
X188533586Y-132223000D01*
X184650397Y-132223000D01*
X184619249Y-132191852D01*
X184241783Y-132035500D01*
X183833217Y-132035500D01*
X183455751Y-132191852D01*
X183166852Y-132480751D01*
X183010500Y-132858217D01*
X180627500Y-132858217D01*
X180627500Y-122557022D01*
X180773000Y-122557022D01*
X180773000Y-123442978D01*
X181112040Y-124261494D01*
X181738506Y-124887960D01*
X182557022Y-125227000D01*
X183442978Y-125227000D01*
X184261494Y-124887960D01*
X184887960Y-124261494D01*
X185227000Y-123442978D01*
X185227000Y-122557022D01*
X184887960Y-121738506D01*
X184261494Y-121112040D01*
X183442978Y-120773000D01*
X182557022Y-120773000D01*
X181738506Y-121112040D01*
X181112040Y-121738506D01*
X180773000Y-122557022D01*
X180627500Y-122557022D01*
X180627500Y-121061804D01*
X180667213Y-120862154D01*
X180745295Y-120745296D01*
X180862155Y-120667212D01*
X181061803Y-120627500D01*
X187815562Y-120627500D01*
X187355142Y-120935142D01*
G04 #@! TD*
M02*
