M48
;DRILL file {KiCad 5.0.2+dfsg1-1} date Pá 19. července 2019, 17:38:57 CEST
;FORMAT={-:-/ absolute / inch / decimal}
FMAT,2
INCH,TZ
T1C0.0157
T2C0.0394
%
G90
G05
T1
X7.126Y-4.7638
X7.126Y-4.9606
X7.126Y-5.1969
X7.126Y-5.3937
X7.126Y-5.5906
X7.126Y-5.7874
X7.2047Y-4.9803
X7.2456Y-5.2387
X7.2835Y-4.7638
X7.3228Y-5.4134
X7.3425Y-4.9803
X7.3622Y-5.6693
X7.3622Y-5.748
X7.4252Y-5.0827
X7.4449Y-5.2402
X7.4803Y-4.9213
X7.4803Y-5.1772
X7.5197Y-5.3937
X7.5394Y-5.0984
X7.5787Y-4.9213
X7.5984Y-5.1969
X7.5984Y-5.7087
X7.5984Y-5.7874
X7.6024Y-5.1417
X7.6772Y-4.8819
X7.6772Y-5.5709
X7.7165Y-4.8031
X7.7283Y-5.2717
X7.7362Y-5.6693
X7.7559Y-5.1417
X7.7953Y-4.8425
X7.874Y-4.8031
T2
X7.4311Y-5.8268
X7.5311Y-5.8268
X7.1835Y-5.8268
X7.2835Y-5.8268
X7.874Y-5.6299
X7.874Y-5.7299
X7.874Y-5.8299
X7.4181Y-4.8031
X7.5181Y-4.8031
X7.6181Y-4.8031
X7.874Y-5.0394
X7.874Y-5.1394
X7.874Y-5.2394
X7.874Y-5.3394
X7.874Y-5.4394
T0
M30
