G04 #@! TF.GenerationSoftware,KiCad,Pcbnew,5.0.2-bee76a0~70~ubuntu18.04.1*
G04 #@! TF.CreationDate,2019-07-19T10:46:57+02:00*
G04 #@! TF.ProjectId,AutoGardener_Outdoor,4175746f-4761-4726-9465-6e65725f4f75,rev?*
G04 #@! TF.SameCoordinates,Original*
G04 #@! TF.FileFunction,Legend,Top*
G04 #@! TF.FilePolarity,Positive*
%FSLAX46Y46*%
G04 Gerber Fmt 4.6, Leading zero omitted, Abs format (unit mm)*
G04 Created by KiCad (PCBNEW 5.0.2-bee76a0~70~ubuntu18.04.1) date Fri 19 Jul 2019 10:46:57 CEST*
%MOMM*%
%LPD*%
G01*
G04 APERTURE LIST*
%ADD10C,0.300000*%
%ADD11C,0.120000*%
%ADD12C,0.150000*%
%ADD13C,0.500000*%
G04 APERTURE END LIST*
D10*
X181828571Y-146307142D02*
X182971428Y-146307142D01*
X184428571Y-146307142D02*
X185571428Y-146307142D01*
X185000000Y-146878571D02*
X185000000Y-145735714D01*
D11*
G04 #@! TO.C,Q1*
X196900000Y-124220000D02*
X196900000Y-124360000D01*
X195440000Y-124220000D02*
X196900000Y-124220000D01*
X196900000Y-127380000D02*
X196900000Y-127240000D01*
X195440000Y-127380000D02*
X196900000Y-127380000D01*
X195440000Y-127380000D02*
X195440000Y-126450000D01*
X195440000Y-124220000D02*
X195440000Y-125150000D01*
D12*
G04 #@! TO.C,BAT1*
X181100000Y-146700000D02*
X181200000Y-146700000D01*
X181100000Y-149300000D02*
X181100000Y-146700000D01*
X186300000Y-149300000D02*
X181100000Y-149300000D01*
X186300000Y-146700000D02*
X186300000Y-149300000D01*
X181200000Y-146700000D02*
X186300000Y-146700000D01*
G04 #@! TO.C,J4*
X192550000Y-149300000D02*
X187450000Y-149300000D01*
X187450000Y-149300000D02*
X187450000Y-146700000D01*
X187450000Y-146700000D02*
X192650000Y-146700000D01*
X192650000Y-146700000D02*
X192650000Y-149300000D01*
X192650000Y-149300000D02*
X192550000Y-149300000D01*
G04 #@! TO.C,J2*
X201300000Y-149400000D02*
X201300000Y-141700000D01*
X198700000Y-149400000D02*
X201300000Y-149400000D01*
X198700000Y-141700000D02*
X198700000Y-149400000D01*
X201300000Y-141700000D02*
X198700000Y-141700000D01*
G04 #@! TO.C,J3*
X194800000Y-123300000D02*
X194800000Y-120700000D01*
X194800000Y-120700000D02*
X187100000Y-120700000D01*
X187100000Y-120700000D02*
X187100000Y-123300000D01*
X187100000Y-123300000D02*
X194800000Y-123300000D01*
G04 #@! TO.C,J1*
X201300000Y-126700000D02*
X198700000Y-126700000D01*
X198700000Y-126700000D02*
X198700000Y-139500000D01*
X198700000Y-139500000D02*
X201300000Y-139500000D01*
X201300000Y-139500000D02*
X201300000Y-126700000D01*
G04 #@! TO.C,LD3*
X194300000Y-143000000D02*
X193700000Y-143500000D01*
X193700000Y-142500000D02*
X194300000Y-143000000D01*
X193700000Y-143500000D02*
X193700000Y-142500000D01*
X195700000Y-142200000D02*
X195700000Y-143800000D01*
X192300000Y-142200000D02*
X195700000Y-142200000D01*
X192300000Y-143800000D02*
X192300000Y-142200000D01*
X195700000Y-143800000D02*
X192300000Y-143800000D01*
G04 #@! TO.C,LD13*
X195700000Y-139800000D02*
X192300000Y-139800000D01*
X192300000Y-139800000D02*
X192300000Y-138200000D01*
X192300000Y-138200000D02*
X195700000Y-138200000D01*
X195700000Y-138200000D02*
X195700000Y-139800000D01*
X193700000Y-139500000D02*
X193700000Y-138500000D01*
X193700000Y-138500000D02*
X194300000Y-139000000D01*
X194300000Y-139000000D02*
X193700000Y-139500000D01*
G04 #@! TO.C,C1*
X184925000Y-128775000D02*
X182275000Y-128775000D01*
X182275000Y-128775000D02*
X182275000Y-127625000D01*
X182275000Y-127625000D02*
X184925000Y-127625000D01*
X184925000Y-127625000D02*
X184925000Y-128775000D01*
G04 #@! TO.C,C2*
X184925000Y-130825000D02*
X184925000Y-131975000D01*
X182275000Y-130825000D02*
X184925000Y-130825000D01*
X182275000Y-131975000D02*
X182275000Y-130825000D01*
X184925000Y-131975000D02*
X182275000Y-131975000D01*
G04 #@! TO.C,C3*
X195575000Y-134675000D02*
X195575000Y-137325000D01*
X195575000Y-137325000D02*
X194425000Y-137325000D01*
X194425000Y-137325000D02*
X194425000Y-134675000D01*
X194425000Y-134675000D02*
X195575000Y-134675000D01*
G04 #@! TO.C,C4*
X184575000Y-144675000D02*
X184575000Y-145825000D01*
X181925000Y-144675000D02*
X184575000Y-144675000D01*
X181925000Y-145825000D02*
X181925000Y-144675000D01*
X184575000Y-145825000D02*
X181925000Y-145825000D01*
G04 #@! TO.C,C5*
X184575000Y-144325000D02*
X181925000Y-144325000D01*
X181925000Y-144325000D02*
X181925000Y-143175000D01*
X181925000Y-143175000D02*
X184575000Y-143175000D01*
X184575000Y-143175000D02*
X184575000Y-144325000D01*
G04 #@! TO.C,C7*
X184575000Y-136175000D02*
X184575000Y-137325000D01*
X181925000Y-136175000D02*
X184575000Y-136175000D01*
X181925000Y-137325000D02*
X181925000Y-136175000D01*
X184575000Y-137325000D02*
X181925000Y-137325000D01*
G04 #@! TO.C,C6*
X184575000Y-135825000D02*
X181925000Y-135825000D01*
X181925000Y-135825000D02*
X181925000Y-134675000D01*
X181925000Y-134675000D02*
X184575000Y-134675000D01*
X184575000Y-134675000D02*
X184575000Y-135825000D01*
G04 #@! TO.C,R1*
X198350000Y-124500000D02*
X201050000Y-124500000D01*
X198350000Y-125700000D02*
X201050000Y-125700000D01*
X198350000Y-124500000D02*
X198350000Y-125700000D01*
X201050000Y-124500000D02*
X201050000Y-125700000D01*
G04 #@! TO.C,R2*
X191350000Y-138400000D02*
X191350000Y-139600000D01*
X188650000Y-138400000D02*
X188650000Y-139600000D01*
X188650000Y-139600000D02*
X191350000Y-139600000D01*
X188650000Y-138400000D02*
X191350000Y-138400000D01*
G04 #@! TO.C,R3*
X188650000Y-140400000D02*
X191350000Y-140400000D01*
X188650000Y-141600000D02*
X191350000Y-141600000D01*
X188650000Y-140400000D02*
X188650000Y-141600000D01*
X191350000Y-140400000D02*
X191350000Y-141600000D01*
D11*
G04 #@! TO.C,U1*
X193810000Y-134610000D02*
X194110000Y-134610000D01*
X194110000Y-134610000D02*
X194110000Y-134310000D01*
X187190000Y-134610000D02*
X186890000Y-134610000D01*
X186890000Y-134610000D02*
X186890000Y-134310000D01*
X193810000Y-127390000D02*
X194110000Y-127390000D01*
X194110000Y-127390000D02*
X194110000Y-127690000D01*
X187190000Y-127390000D02*
X186890000Y-127390000D01*
X186890000Y-127390000D02*
X186890000Y-127690000D01*
D12*
X186582843Y-127500000D02*
G75*
G03X186582843Y-127500000I-282843J0D01*
G01*
X186441421Y-127500000D02*
G75*
G03X186441421Y-127500000I-141421J0D01*
G01*
D13*
X186400000Y-127500000D02*
G75*
G03X186400000Y-127500000I-100000J0D01*
G01*
D11*
G04 #@! TO.C,Q2*
X190760000Y-145580000D02*
X190760000Y-144650000D01*
X190760000Y-142420000D02*
X190760000Y-143350000D01*
X190760000Y-142420000D02*
X189300000Y-142420000D01*
X189300000Y-142420000D02*
X189300000Y-142560000D01*
X190760000Y-145580000D02*
X189300000Y-145580000D01*
X189300000Y-145580000D02*
X189300000Y-145440000D01*
D12*
G04 #@! TO.C,U2*
X186050000Y-137950000D02*
X183450000Y-137950000D01*
X183450000Y-142550000D02*
X186050000Y-142550000D01*
X186050000Y-137950000D02*
X186050000Y-139150000D01*
X186050000Y-141350000D02*
X186050000Y-142550000D01*
X183450000Y-142550000D02*
X183450000Y-142150000D01*
X183450000Y-138350000D02*
X183450000Y-137950000D01*
G04 #@! TO.C,Q1*
X194316666Y-127033333D02*
X194350000Y-126966666D01*
X194416666Y-126900000D01*
X194516666Y-126800000D01*
X194550000Y-126733333D01*
X194550000Y-126666666D01*
X194383333Y-126700000D02*
X194416666Y-126633333D01*
X194483333Y-126566666D01*
X194616666Y-126533333D01*
X194850000Y-126533333D01*
X194983333Y-126566666D01*
X195050000Y-126633333D01*
X195083333Y-126700000D01*
X195083333Y-126833333D01*
X195050000Y-126900000D01*
X194983333Y-126966666D01*
X194850000Y-127000000D01*
X194616666Y-127000000D01*
X194483333Y-126966666D01*
X194416666Y-126900000D01*
X194383333Y-126833333D01*
X194383333Y-126700000D01*
X194383333Y-127666666D02*
X194383333Y-127266666D01*
X194383333Y-127466666D02*
X195083333Y-127466666D01*
X194983333Y-127400000D01*
X194916666Y-127333333D01*
X194883333Y-127266666D01*
G04 #@! TO.C,BAT1*
X186850000Y-148850000D02*
X186883333Y-148750000D01*
X186916666Y-148716666D01*
X186983333Y-148683333D01*
X187083333Y-148683333D01*
X187150000Y-148716666D01*
X187183333Y-148750000D01*
X187216666Y-148816666D01*
X187216666Y-149083333D01*
X186516666Y-149083333D01*
X186516666Y-148850000D01*
X186550000Y-148783333D01*
X186583333Y-148750000D01*
X186650000Y-148716666D01*
X186716666Y-148716666D01*
X186783333Y-148750000D01*
X186816666Y-148783333D01*
X186850000Y-148850000D01*
X186850000Y-149083333D01*
X187016666Y-148416666D02*
X187016666Y-148083333D01*
X187216666Y-148483333D02*
X186516666Y-148250000D01*
X187216666Y-148016666D01*
X186516666Y-147883333D02*
X186516666Y-147483333D01*
X187216666Y-147683333D02*
X186516666Y-147683333D01*
X187216666Y-146883333D02*
X187216666Y-147283333D01*
X187216666Y-147083333D02*
X186516666Y-147083333D01*
X186616666Y-147150000D01*
X186683333Y-147216666D01*
X186716666Y-147283333D01*
G04 #@! TO.C,J4*
X192816666Y-148233333D02*
X193316666Y-148233333D01*
X193416666Y-148266666D01*
X193483333Y-148333333D01*
X193516666Y-148433333D01*
X193516666Y-148500000D01*
X193050000Y-147600000D02*
X193516666Y-147600000D01*
X192783333Y-147766666D02*
X193283333Y-147933333D01*
X193283333Y-147500000D01*
G04 #@! TO.C,J2*
X199766666Y-140286666D02*
X199766666Y-140786666D01*
X199733333Y-140886666D01*
X199666666Y-140953333D01*
X199566666Y-140986666D01*
X199500000Y-140986666D01*
X200066666Y-140353333D02*
X200100000Y-140320000D01*
X200166666Y-140286666D01*
X200333333Y-140286666D01*
X200400000Y-140320000D01*
X200433333Y-140353333D01*
X200466666Y-140420000D01*
X200466666Y-140486666D01*
X200433333Y-140586666D01*
X200033333Y-140986666D01*
X200466666Y-140986666D01*
G04 #@! TO.C,J3*
X185616666Y-122233333D02*
X186116666Y-122233333D01*
X186216666Y-122266666D01*
X186283333Y-122333333D01*
X186316666Y-122433333D01*
X186316666Y-122500000D01*
X185616666Y-121966666D02*
X185616666Y-121533333D01*
X185883333Y-121766666D01*
X185883333Y-121666666D01*
X185916666Y-121600000D01*
X185950000Y-121566666D01*
X186016666Y-121533333D01*
X186183333Y-121533333D01*
X186250000Y-121566666D01*
X186283333Y-121600000D01*
X186316666Y-121666666D01*
X186316666Y-121866666D01*
X186283333Y-121933333D01*
X186250000Y-121966666D01*
G04 #@! TO.C,J1*
X197616666Y-128233333D02*
X198116666Y-128233333D01*
X198216666Y-128266666D01*
X198283333Y-128333333D01*
X198316666Y-128433333D01*
X198316666Y-128500000D01*
X198316666Y-127533333D02*
X198316666Y-127933333D01*
X198316666Y-127733333D02*
X197616666Y-127733333D01*
X197716666Y-127800000D01*
X197783333Y-127866666D01*
X197816666Y-127933333D01*
G04 #@! TO.C,LD3*
X196233333Y-143316666D02*
X195900000Y-143316666D01*
X195900000Y-142616666D01*
X196466666Y-143316666D02*
X196466666Y-142616666D01*
X196633333Y-142616666D01*
X196733333Y-142650000D01*
X196800000Y-142716666D01*
X196833333Y-142783333D01*
X196866666Y-142916666D01*
X196866666Y-143016666D01*
X196833333Y-143150000D01*
X196800000Y-143216666D01*
X196733333Y-143283333D01*
X196633333Y-143316666D01*
X196466666Y-143316666D01*
X197100000Y-142616666D02*
X197533333Y-142616666D01*
X197300000Y-142883333D01*
X197400000Y-142883333D01*
X197466666Y-142916666D01*
X197500000Y-142950000D01*
X197533333Y-143016666D01*
X197533333Y-143183333D01*
X197500000Y-143250000D01*
X197466666Y-143283333D01*
X197400000Y-143316666D01*
X197200000Y-143316666D01*
X197133333Y-143283333D01*
X197100000Y-143250000D01*
G04 #@! TO.C,LD13*
X196200000Y-139316666D02*
X195866666Y-139316666D01*
X195866666Y-138616666D01*
X196433333Y-139316666D02*
X196433333Y-138616666D01*
X196600000Y-138616666D01*
X196700000Y-138650000D01*
X196766666Y-138716666D01*
X196800000Y-138783333D01*
X196833333Y-138916666D01*
X196833333Y-139016666D01*
X196800000Y-139150000D01*
X196766666Y-139216666D01*
X196700000Y-139283333D01*
X196600000Y-139316666D01*
X196433333Y-139316666D01*
X197500000Y-139316666D02*
X197100000Y-139316666D01*
X197300000Y-139316666D02*
X197300000Y-138616666D01*
X197233333Y-138716666D01*
X197166666Y-138783333D01*
X197100000Y-138816666D01*
X197733333Y-138616666D02*
X198166666Y-138616666D01*
X197933333Y-138883333D01*
X198033333Y-138883333D01*
X198100000Y-138916666D01*
X198133333Y-138950000D01*
X198166666Y-139016666D01*
X198166666Y-139183333D01*
X198133333Y-139250000D01*
X198100000Y-139283333D01*
X198033333Y-139316666D01*
X197833333Y-139316666D01*
X197766666Y-139283333D01*
X197733333Y-139250000D01*
G04 #@! TO.C,C1*
X181383333Y-128450000D02*
X181350000Y-128483333D01*
X181250000Y-128516666D01*
X181183333Y-128516666D01*
X181083333Y-128483333D01*
X181016666Y-128416666D01*
X180983333Y-128350000D01*
X180950000Y-128216666D01*
X180950000Y-128116666D01*
X180983333Y-127983333D01*
X181016666Y-127916666D01*
X181083333Y-127850000D01*
X181183333Y-127816666D01*
X181250000Y-127816666D01*
X181350000Y-127850000D01*
X181383333Y-127883333D01*
X182050000Y-128516666D02*
X181650000Y-128516666D01*
X181850000Y-128516666D02*
X181850000Y-127816666D01*
X181783333Y-127916666D01*
X181716666Y-127983333D01*
X181650000Y-128016666D01*
G04 #@! TO.C,C2*
X181383333Y-131650000D02*
X181350000Y-131683333D01*
X181250000Y-131716666D01*
X181183333Y-131716666D01*
X181083333Y-131683333D01*
X181016666Y-131616666D01*
X180983333Y-131550000D01*
X180950000Y-131416666D01*
X180950000Y-131316666D01*
X180983333Y-131183333D01*
X181016666Y-131116666D01*
X181083333Y-131050000D01*
X181183333Y-131016666D01*
X181250000Y-131016666D01*
X181350000Y-131050000D01*
X181383333Y-131083333D01*
X181650000Y-131083333D02*
X181683333Y-131050000D01*
X181750000Y-131016666D01*
X181916666Y-131016666D01*
X181983333Y-131050000D01*
X182016666Y-131083333D01*
X182050000Y-131150000D01*
X182050000Y-131216666D01*
X182016666Y-131316666D01*
X181616666Y-131716666D01*
X182050000Y-131716666D01*
G04 #@! TO.C,C3*
X196450000Y-136116666D02*
X196483333Y-136150000D01*
X196516666Y-136250000D01*
X196516666Y-136316666D01*
X196483333Y-136416666D01*
X196416666Y-136483333D01*
X196350000Y-136516666D01*
X196216666Y-136550000D01*
X196116666Y-136550000D01*
X195983333Y-136516666D01*
X195916666Y-136483333D01*
X195850000Y-136416666D01*
X195816666Y-136316666D01*
X195816666Y-136250000D01*
X195850000Y-136150000D01*
X195883333Y-136116666D01*
X195816666Y-135883333D02*
X195816666Y-135450000D01*
X196083333Y-135683333D01*
X196083333Y-135583333D01*
X196116666Y-135516666D01*
X196150000Y-135483333D01*
X196216666Y-135450000D01*
X196383333Y-135450000D01*
X196450000Y-135483333D01*
X196483333Y-135516666D01*
X196516666Y-135583333D01*
X196516666Y-135783333D01*
X196483333Y-135850000D01*
X196450000Y-135883333D01*
G04 #@! TO.C,C4*
X185383333Y-145500000D02*
X185350000Y-145533333D01*
X185250000Y-145566666D01*
X185183333Y-145566666D01*
X185083333Y-145533333D01*
X185016666Y-145466666D01*
X184983333Y-145400000D01*
X184950000Y-145266666D01*
X184950000Y-145166666D01*
X184983333Y-145033333D01*
X185016666Y-144966666D01*
X185083333Y-144900000D01*
X185183333Y-144866666D01*
X185250000Y-144866666D01*
X185350000Y-144900000D01*
X185383333Y-144933333D01*
X185983333Y-145100000D02*
X185983333Y-145566666D01*
X185816666Y-144833333D02*
X185650000Y-145333333D01*
X186083333Y-145333333D01*
G04 #@! TO.C,C5*
X185383333Y-144000000D02*
X185350000Y-144033333D01*
X185250000Y-144066666D01*
X185183333Y-144066666D01*
X185083333Y-144033333D01*
X185016666Y-143966666D01*
X184983333Y-143900000D01*
X184950000Y-143766666D01*
X184950000Y-143666666D01*
X184983333Y-143533333D01*
X185016666Y-143466666D01*
X185083333Y-143400000D01*
X185183333Y-143366666D01*
X185250000Y-143366666D01*
X185350000Y-143400000D01*
X185383333Y-143433333D01*
X186016666Y-143366666D02*
X185683333Y-143366666D01*
X185650000Y-143700000D01*
X185683333Y-143666666D01*
X185750000Y-143633333D01*
X185916666Y-143633333D01*
X185983333Y-143666666D01*
X186016666Y-143700000D01*
X186050000Y-143766666D01*
X186050000Y-143933333D01*
X186016666Y-144000000D01*
X185983333Y-144033333D01*
X185916666Y-144066666D01*
X185750000Y-144066666D01*
X185683333Y-144033333D01*
X185650000Y-144000000D01*
G04 #@! TO.C,C7*
X185233333Y-137000000D02*
X185200000Y-137033333D01*
X185100000Y-137066666D01*
X185033333Y-137066666D01*
X184933333Y-137033333D01*
X184866666Y-136966666D01*
X184833333Y-136900000D01*
X184800000Y-136766666D01*
X184800000Y-136666666D01*
X184833333Y-136533333D01*
X184866666Y-136466666D01*
X184933333Y-136400000D01*
X185033333Y-136366666D01*
X185100000Y-136366666D01*
X185200000Y-136400000D01*
X185233333Y-136433333D01*
X185466666Y-136366666D02*
X185933333Y-136366666D01*
X185633333Y-137066666D01*
G04 #@! TO.C,C6*
X185233333Y-135500000D02*
X185200000Y-135533333D01*
X185100000Y-135566666D01*
X185033333Y-135566666D01*
X184933333Y-135533333D01*
X184866666Y-135466666D01*
X184833333Y-135400000D01*
X184800000Y-135266666D01*
X184800000Y-135166666D01*
X184833333Y-135033333D01*
X184866666Y-134966666D01*
X184933333Y-134900000D01*
X185033333Y-134866666D01*
X185100000Y-134866666D01*
X185200000Y-134900000D01*
X185233333Y-134933333D01*
X185833333Y-134866666D02*
X185700000Y-134866666D01*
X185633333Y-134900000D01*
X185600000Y-134933333D01*
X185533333Y-135033333D01*
X185500000Y-135166666D01*
X185500000Y-135433333D01*
X185533333Y-135500000D01*
X185566666Y-135533333D01*
X185633333Y-135566666D01*
X185766666Y-135566666D01*
X185833333Y-135533333D01*
X185866666Y-135500000D01*
X185900000Y-135433333D01*
X185900000Y-135266666D01*
X185866666Y-135200000D01*
X185833333Y-135166666D01*
X185766666Y-135133333D01*
X185633333Y-135133333D01*
X185566666Y-135166666D01*
X185533333Y-135200000D01*
X185500000Y-135266666D01*
G04 #@! TO.C,R1*
X199583333Y-124316666D02*
X199350000Y-123983333D01*
X199183333Y-124316666D02*
X199183333Y-123616666D01*
X199450000Y-123616666D01*
X199516666Y-123650000D01*
X199550000Y-123683333D01*
X199583333Y-123750000D01*
X199583333Y-123850000D01*
X199550000Y-123916666D01*
X199516666Y-123950000D01*
X199450000Y-123983333D01*
X199183333Y-123983333D01*
X200250000Y-124316666D02*
X199850000Y-124316666D01*
X200050000Y-124316666D02*
X200050000Y-123616666D01*
X199983333Y-123716666D01*
X199916666Y-123783333D01*
X199850000Y-123816666D01*
G04 #@! TO.C,R2*
X187783333Y-139316666D02*
X187550000Y-138983333D01*
X187383333Y-139316666D02*
X187383333Y-138616666D01*
X187650000Y-138616666D01*
X187716666Y-138650000D01*
X187750000Y-138683333D01*
X187783333Y-138750000D01*
X187783333Y-138850000D01*
X187750000Y-138916666D01*
X187716666Y-138950000D01*
X187650000Y-138983333D01*
X187383333Y-138983333D01*
X188050000Y-138683333D02*
X188083333Y-138650000D01*
X188150000Y-138616666D01*
X188316666Y-138616666D01*
X188383333Y-138650000D01*
X188416666Y-138683333D01*
X188450000Y-138750000D01*
X188450000Y-138816666D01*
X188416666Y-138916666D01*
X188016666Y-139316666D01*
X188450000Y-139316666D01*
G04 #@! TO.C,R3*
X187783333Y-141316666D02*
X187550000Y-140983333D01*
X187383333Y-141316666D02*
X187383333Y-140616666D01*
X187650000Y-140616666D01*
X187716666Y-140650000D01*
X187750000Y-140683333D01*
X187783333Y-140750000D01*
X187783333Y-140850000D01*
X187750000Y-140916666D01*
X187716666Y-140950000D01*
X187650000Y-140983333D01*
X187383333Y-140983333D01*
X188016666Y-140616666D02*
X188450000Y-140616666D01*
X188216666Y-140883333D01*
X188316666Y-140883333D01*
X188383333Y-140916666D01*
X188416666Y-140950000D01*
X188450000Y-141016666D01*
X188450000Y-141183333D01*
X188416666Y-141250000D01*
X188383333Y-141283333D01*
X188316666Y-141316666D01*
X188116666Y-141316666D01*
X188050000Y-141283333D01*
X188016666Y-141250000D01*
G04 #@! TO.C,U1*
X186966666Y-125116666D02*
X186966666Y-125683333D01*
X187000000Y-125750000D01*
X187033333Y-125783333D01*
X187100000Y-125816666D01*
X187233333Y-125816666D01*
X187300000Y-125783333D01*
X187333333Y-125750000D01*
X187366666Y-125683333D01*
X187366666Y-125116666D01*
X188066666Y-125816666D02*
X187666666Y-125816666D01*
X187866666Y-125816666D02*
X187866666Y-125116666D01*
X187800000Y-125216666D01*
X187733333Y-125283333D01*
X187666666Y-125316666D01*
G04 #@! TO.C,Q2*
X191683333Y-142866666D02*
X191650000Y-142933333D01*
X191583333Y-143000000D01*
X191483333Y-143100000D01*
X191450000Y-143166666D01*
X191450000Y-143233333D01*
X191616666Y-143200000D02*
X191583333Y-143266666D01*
X191516666Y-143333333D01*
X191383333Y-143366666D01*
X191150000Y-143366666D01*
X191016666Y-143333333D01*
X190950000Y-143266666D01*
X190916666Y-143200000D01*
X190916666Y-143066666D01*
X190950000Y-143000000D01*
X191016666Y-142933333D01*
X191150000Y-142900000D01*
X191383333Y-142900000D01*
X191516666Y-142933333D01*
X191583333Y-143000000D01*
X191616666Y-143066666D01*
X191616666Y-143200000D01*
X190983333Y-142633333D02*
X190950000Y-142600000D01*
X190916666Y-142533333D01*
X190916666Y-142366666D01*
X190950000Y-142300000D01*
X190983333Y-142266666D01*
X191050000Y-142233333D01*
X191116666Y-142233333D01*
X191216666Y-142266666D01*
X191616666Y-142666666D01*
X191616666Y-142233333D01*
G04 #@! TO.C,U2*
X186216666Y-139033333D02*
X186783333Y-139033333D01*
X186850000Y-139000000D01*
X186883333Y-138966666D01*
X186916666Y-138900000D01*
X186916666Y-138766666D01*
X186883333Y-138700000D01*
X186850000Y-138666666D01*
X186783333Y-138633333D01*
X186216666Y-138633333D01*
X186283333Y-138333333D02*
X186250000Y-138300000D01*
X186216666Y-138233333D01*
X186216666Y-138066666D01*
X186250000Y-138000000D01*
X186283333Y-137966666D01*
X186350000Y-137933333D01*
X186416666Y-137933333D01*
X186516666Y-137966666D01*
X186916666Y-138366666D01*
X186916666Y-137933333D01*
G04 #@! TD*
M02*
