G04 #@! TF.GenerationSoftware,KiCad,Pcbnew,5.0.2+dfsg1-1*
G04 #@! TF.CreationDate,2019-07-19T17:38:54+02:00*
G04 #@! TF.ProjectId,AutoGardener_Outdoor,4175746f-4761-4726-9465-6e65725f4f75,rev?*
G04 #@! TF.SameCoordinates,Original*
G04 #@! TF.FileFunction,Paste,Top*
G04 #@! TF.FilePolarity,Positive*
%FSLAX46Y46*%
G04 Gerber Fmt 4.6, Leading zero omitted, Abs format (unit mm)*
G04 Created by KiCad (PCBNEW 5.0.2+dfsg1-1) date Pá 19. července 2019, 17:38:54 CEST*
%MOMM*%
%LPD*%
G01*
G04 APERTURE LIST*
%ADD10R,0.900000X0.800000*%
%ADD11R,1.150000X1.400000*%
%ADD12C,0.100000*%
%ADD13C,0.875000*%
%ADD14R,0.875000X0.950000*%
%ADD15C,0.500000*%
%ADD16R,1.300000X0.550000*%
%ADD17R,1.600000X0.800000*%
%ADD18R,3.200000X1.850000*%
G04 APERTURE END LIST*
D10*
G04 #@! TO.C,Q1*
X195200000Y-125800000D03*
X197200000Y-126750000D03*
X197200000Y-124850000D03*
G04 #@! TD*
D11*
G04 #@! TO.C,LD3*
X192975000Y-143000000D03*
X195025000Y-143000000D03*
G04 #@! TD*
G04 #@! TO.C,LD13*
X195025000Y-139000000D03*
X192975000Y-139000000D03*
G04 #@! TD*
D12*
G04 #@! TO.C,C1*
G36*
X184627691Y-127726053D02*
X184648926Y-127729203D01*
X184669750Y-127734419D01*
X184689962Y-127741651D01*
X184709368Y-127750830D01*
X184727781Y-127761866D01*
X184745024Y-127774654D01*
X184760930Y-127789070D01*
X184775346Y-127804976D01*
X184788134Y-127822219D01*
X184799170Y-127840632D01*
X184808349Y-127860038D01*
X184815581Y-127880250D01*
X184820797Y-127901074D01*
X184823947Y-127922309D01*
X184825000Y-127943750D01*
X184825000Y-128456250D01*
X184823947Y-128477691D01*
X184820797Y-128498926D01*
X184815581Y-128519750D01*
X184808349Y-128539962D01*
X184799170Y-128559368D01*
X184788134Y-128577781D01*
X184775346Y-128595024D01*
X184760930Y-128610930D01*
X184745024Y-128625346D01*
X184727781Y-128638134D01*
X184709368Y-128649170D01*
X184689962Y-128658349D01*
X184669750Y-128665581D01*
X184648926Y-128670797D01*
X184627691Y-128673947D01*
X184606250Y-128675000D01*
X184168750Y-128675000D01*
X184147309Y-128673947D01*
X184126074Y-128670797D01*
X184105250Y-128665581D01*
X184085038Y-128658349D01*
X184065632Y-128649170D01*
X184047219Y-128638134D01*
X184029976Y-128625346D01*
X184014070Y-128610930D01*
X183999654Y-128595024D01*
X183986866Y-128577781D01*
X183975830Y-128559368D01*
X183966651Y-128539962D01*
X183959419Y-128519750D01*
X183954203Y-128498926D01*
X183951053Y-128477691D01*
X183950000Y-128456250D01*
X183950000Y-127943750D01*
X183951053Y-127922309D01*
X183954203Y-127901074D01*
X183959419Y-127880250D01*
X183966651Y-127860038D01*
X183975830Y-127840632D01*
X183986866Y-127822219D01*
X183999654Y-127804976D01*
X184014070Y-127789070D01*
X184029976Y-127774654D01*
X184047219Y-127761866D01*
X184065632Y-127750830D01*
X184085038Y-127741651D01*
X184105250Y-127734419D01*
X184126074Y-127729203D01*
X184147309Y-127726053D01*
X184168750Y-127725000D01*
X184606250Y-127725000D01*
X184627691Y-127726053D01*
X184627691Y-127726053D01*
G37*
D13*
X184387500Y-128200000D03*
D12*
G36*
X183052691Y-127726053D02*
X183073926Y-127729203D01*
X183094750Y-127734419D01*
X183114962Y-127741651D01*
X183134368Y-127750830D01*
X183152781Y-127761866D01*
X183170024Y-127774654D01*
X183185930Y-127789070D01*
X183200346Y-127804976D01*
X183213134Y-127822219D01*
X183224170Y-127840632D01*
X183233349Y-127860038D01*
X183240581Y-127880250D01*
X183245797Y-127901074D01*
X183248947Y-127922309D01*
X183250000Y-127943750D01*
X183250000Y-128456250D01*
X183248947Y-128477691D01*
X183245797Y-128498926D01*
X183240581Y-128519750D01*
X183233349Y-128539962D01*
X183224170Y-128559368D01*
X183213134Y-128577781D01*
X183200346Y-128595024D01*
X183185930Y-128610930D01*
X183170024Y-128625346D01*
X183152781Y-128638134D01*
X183134368Y-128649170D01*
X183114962Y-128658349D01*
X183094750Y-128665581D01*
X183073926Y-128670797D01*
X183052691Y-128673947D01*
X183031250Y-128675000D01*
X182593750Y-128675000D01*
X182572309Y-128673947D01*
X182551074Y-128670797D01*
X182530250Y-128665581D01*
X182510038Y-128658349D01*
X182490632Y-128649170D01*
X182472219Y-128638134D01*
X182454976Y-128625346D01*
X182439070Y-128610930D01*
X182424654Y-128595024D01*
X182411866Y-128577781D01*
X182400830Y-128559368D01*
X182391651Y-128539962D01*
X182384419Y-128519750D01*
X182379203Y-128498926D01*
X182376053Y-128477691D01*
X182375000Y-128456250D01*
X182375000Y-127943750D01*
X182376053Y-127922309D01*
X182379203Y-127901074D01*
X182384419Y-127880250D01*
X182391651Y-127860038D01*
X182400830Y-127840632D01*
X182411866Y-127822219D01*
X182424654Y-127804976D01*
X182439070Y-127789070D01*
X182454976Y-127774654D01*
X182472219Y-127761866D01*
X182490632Y-127750830D01*
X182510038Y-127741651D01*
X182530250Y-127734419D01*
X182551074Y-127729203D01*
X182572309Y-127726053D01*
X182593750Y-127725000D01*
X183031250Y-127725000D01*
X183052691Y-127726053D01*
X183052691Y-127726053D01*
G37*
D13*
X182812500Y-128200000D03*
G04 #@! TD*
D12*
G04 #@! TO.C,C2*
G36*
X183052691Y-130926053D02*
X183073926Y-130929203D01*
X183094750Y-130934419D01*
X183114962Y-130941651D01*
X183134368Y-130950830D01*
X183152781Y-130961866D01*
X183170024Y-130974654D01*
X183185930Y-130989070D01*
X183200346Y-131004976D01*
X183213134Y-131022219D01*
X183224170Y-131040632D01*
X183233349Y-131060038D01*
X183240581Y-131080250D01*
X183245797Y-131101074D01*
X183248947Y-131122309D01*
X183250000Y-131143750D01*
X183250000Y-131656250D01*
X183248947Y-131677691D01*
X183245797Y-131698926D01*
X183240581Y-131719750D01*
X183233349Y-131739962D01*
X183224170Y-131759368D01*
X183213134Y-131777781D01*
X183200346Y-131795024D01*
X183185930Y-131810930D01*
X183170024Y-131825346D01*
X183152781Y-131838134D01*
X183134368Y-131849170D01*
X183114962Y-131858349D01*
X183094750Y-131865581D01*
X183073926Y-131870797D01*
X183052691Y-131873947D01*
X183031250Y-131875000D01*
X182593750Y-131875000D01*
X182572309Y-131873947D01*
X182551074Y-131870797D01*
X182530250Y-131865581D01*
X182510038Y-131858349D01*
X182490632Y-131849170D01*
X182472219Y-131838134D01*
X182454976Y-131825346D01*
X182439070Y-131810930D01*
X182424654Y-131795024D01*
X182411866Y-131777781D01*
X182400830Y-131759368D01*
X182391651Y-131739962D01*
X182384419Y-131719750D01*
X182379203Y-131698926D01*
X182376053Y-131677691D01*
X182375000Y-131656250D01*
X182375000Y-131143750D01*
X182376053Y-131122309D01*
X182379203Y-131101074D01*
X182384419Y-131080250D01*
X182391651Y-131060038D01*
X182400830Y-131040632D01*
X182411866Y-131022219D01*
X182424654Y-131004976D01*
X182439070Y-130989070D01*
X182454976Y-130974654D01*
X182472219Y-130961866D01*
X182490632Y-130950830D01*
X182510038Y-130941651D01*
X182530250Y-130934419D01*
X182551074Y-130929203D01*
X182572309Y-130926053D01*
X182593750Y-130925000D01*
X183031250Y-130925000D01*
X183052691Y-130926053D01*
X183052691Y-130926053D01*
G37*
D13*
X182812500Y-131400000D03*
D12*
G36*
X184627691Y-130926053D02*
X184648926Y-130929203D01*
X184669750Y-130934419D01*
X184689962Y-130941651D01*
X184709368Y-130950830D01*
X184727781Y-130961866D01*
X184745024Y-130974654D01*
X184760930Y-130989070D01*
X184775346Y-131004976D01*
X184788134Y-131022219D01*
X184799170Y-131040632D01*
X184808349Y-131060038D01*
X184815581Y-131080250D01*
X184820797Y-131101074D01*
X184823947Y-131122309D01*
X184825000Y-131143750D01*
X184825000Y-131656250D01*
X184823947Y-131677691D01*
X184820797Y-131698926D01*
X184815581Y-131719750D01*
X184808349Y-131739962D01*
X184799170Y-131759368D01*
X184788134Y-131777781D01*
X184775346Y-131795024D01*
X184760930Y-131810930D01*
X184745024Y-131825346D01*
X184727781Y-131838134D01*
X184709368Y-131849170D01*
X184689962Y-131858349D01*
X184669750Y-131865581D01*
X184648926Y-131870797D01*
X184627691Y-131873947D01*
X184606250Y-131875000D01*
X184168750Y-131875000D01*
X184147309Y-131873947D01*
X184126074Y-131870797D01*
X184105250Y-131865581D01*
X184085038Y-131858349D01*
X184065632Y-131849170D01*
X184047219Y-131838134D01*
X184029976Y-131825346D01*
X184014070Y-131810930D01*
X183999654Y-131795024D01*
X183986866Y-131777781D01*
X183975830Y-131759368D01*
X183966651Y-131739962D01*
X183959419Y-131719750D01*
X183954203Y-131698926D01*
X183951053Y-131677691D01*
X183950000Y-131656250D01*
X183950000Y-131143750D01*
X183951053Y-131122309D01*
X183954203Y-131101074D01*
X183959419Y-131080250D01*
X183966651Y-131060038D01*
X183975830Y-131040632D01*
X183986866Y-131022219D01*
X183999654Y-131004976D01*
X184014070Y-130989070D01*
X184029976Y-130974654D01*
X184047219Y-130961866D01*
X184065632Y-130950830D01*
X184085038Y-130941651D01*
X184105250Y-130934419D01*
X184126074Y-130929203D01*
X184147309Y-130926053D01*
X184168750Y-130925000D01*
X184606250Y-130925000D01*
X184627691Y-130926053D01*
X184627691Y-130926053D01*
G37*
D13*
X184387500Y-131400000D03*
G04 #@! TD*
D12*
G04 #@! TO.C,C3*
G36*
X195277691Y-134776053D02*
X195298926Y-134779203D01*
X195319750Y-134784419D01*
X195339962Y-134791651D01*
X195359368Y-134800830D01*
X195377781Y-134811866D01*
X195395024Y-134824654D01*
X195410930Y-134839070D01*
X195425346Y-134854976D01*
X195438134Y-134872219D01*
X195449170Y-134890632D01*
X195458349Y-134910038D01*
X195465581Y-134930250D01*
X195470797Y-134951074D01*
X195473947Y-134972309D01*
X195475000Y-134993750D01*
X195475000Y-135431250D01*
X195473947Y-135452691D01*
X195470797Y-135473926D01*
X195465581Y-135494750D01*
X195458349Y-135514962D01*
X195449170Y-135534368D01*
X195438134Y-135552781D01*
X195425346Y-135570024D01*
X195410930Y-135585930D01*
X195395024Y-135600346D01*
X195377781Y-135613134D01*
X195359368Y-135624170D01*
X195339962Y-135633349D01*
X195319750Y-135640581D01*
X195298926Y-135645797D01*
X195277691Y-135648947D01*
X195256250Y-135650000D01*
X194743750Y-135650000D01*
X194722309Y-135648947D01*
X194701074Y-135645797D01*
X194680250Y-135640581D01*
X194660038Y-135633349D01*
X194640632Y-135624170D01*
X194622219Y-135613134D01*
X194604976Y-135600346D01*
X194589070Y-135585930D01*
X194574654Y-135570024D01*
X194561866Y-135552781D01*
X194550830Y-135534368D01*
X194541651Y-135514962D01*
X194534419Y-135494750D01*
X194529203Y-135473926D01*
X194526053Y-135452691D01*
X194525000Y-135431250D01*
X194525000Y-134993750D01*
X194526053Y-134972309D01*
X194529203Y-134951074D01*
X194534419Y-134930250D01*
X194541651Y-134910038D01*
X194550830Y-134890632D01*
X194561866Y-134872219D01*
X194574654Y-134854976D01*
X194589070Y-134839070D01*
X194604976Y-134824654D01*
X194622219Y-134811866D01*
X194640632Y-134800830D01*
X194660038Y-134791651D01*
X194680250Y-134784419D01*
X194701074Y-134779203D01*
X194722309Y-134776053D01*
X194743750Y-134775000D01*
X195256250Y-134775000D01*
X195277691Y-134776053D01*
X195277691Y-134776053D01*
G37*
D13*
X195000000Y-135212500D03*
D12*
G36*
X195277691Y-136351053D02*
X195298926Y-136354203D01*
X195319750Y-136359419D01*
X195339962Y-136366651D01*
X195359368Y-136375830D01*
X195377781Y-136386866D01*
X195395024Y-136399654D01*
X195410930Y-136414070D01*
X195425346Y-136429976D01*
X195438134Y-136447219D01*
X195449170Y-136465632D01*
X195458349Y-136485038D01*
X195465581Y-136505250D01*
X195470797Y-136526074D01*
X195473947Y-136547309D01*
X195475000Y-136568750D01*
X195475000Y-137006250D01*
X195473947Y-137027691D01*
X195470797Y-137048926D01*
X195465581Y-137069750D01*
X195458349Y-137089962D01*
X195449170Y-137109368D01*
X195438134Y-137127781D01*
X195425346Y-137145024D01*
X195410930Y-137160930D01*
X195395024Y-137175346D01*
X195377781Y-137188134D01*
X195359368Y-137199170D01*
X195339962Y-137208349D01*
X195319750Y-137215581D01*
X195298926Y-137220797D01*
X195277691Y-137223947D01*
X195256250Y-137225000D01*
X194743750Y-137225000D01*
X194722309Y-137223947D01*
X194701074Y-137220797D01*
X194680250Y-137215581D01*
X194660038Y-137208349D01*
X194640632Y-137199170D01*
X194622219Y-137188134D01*
X194604976Y-137175346D01*
X194589070Y-137160930D01*
X194574654Y-137145024D01*
X194561866Y-137127781D01*
X194550830Y-137109368D01*
X194541651Y-137089962D01*
X194534419Y-137069750D01*
X194529203Y-137048926D01*
X194526053Y-137027691D01*
X194525000Y-137006250D01*
X194525000Y-136568750D01*
X194526053Y-136547309D01*
X194529203Y-136526074D01*
X194534419Y-136505250D01*
X194541651Y-136485038D01*
X194550830Y-136465632D01*
X194561866Y-136447219D01*
X194574654Y-136429976D01*
X194589070Y-136414070D01*
X194604976Y-136399654D01*
X194622219Y-136386866D01*
X194640632Y-136375830D01*
X194660038Y-136366651D01*
X194680250Y-136359419D01*
X194701074Y-136354203D01*
X194722309Y-136351053D01*
X194743750Y-136350000D01*
X195256250Y-136350000D01*
X195277691Y-136351053D01*
X195277691Y-136351053D01*
G37*
D13*
X195000000Y-136787500D03*
G04 #@! TD*
D12*
G04 #@! TO.C,C4*
G36*
X182702691Y-144776053D02*
X182723926Y-144779203D01*
X182744750Y-144784419D01*
X182764962Y-144791651D01*
X182784368Y-144800830D01*
X182802781Y-144811866D01*
X182820024Y-144824654D01*
X182835930Y-144839070D01*
X182850346Y-144854976D01*
X182863134Y-144872219D01*
X182874170Y-144890632D01*
X182883349Y-144910038D01*
X182890581Y-144930250D01*
X182895797Y-144951074D01*
X182898947Y-144972309D01*
X182900000Y-144993750D01*
X182900000Y-145506250D01*
X182898947Y-145527691D01*
X182895797Y-145548926D01*
X182890581Y-145569750D01*
X182883349Y-145589962D01*
X182874170Y-145609368D01*
X182863134Y-145627781D01*
X182850346Y-145645024D01*
X182835930Y-145660930D01*
X182820024Y-145675346D01*
X182802781Y-145688134D01*
X182784368Y-145699170D01*
X182764962Y-145708349D01*
X182744750Y-145715581D01*
X182723926Y-145720797D01*
X182702691Y-145723947D01*
X182681250Y-145725000D01*
X182243750Y-145725000D01*
X182222309Y-145723947D01*
X182201074Y-145720797D01*
X182180250Y-145715581D01*
X182160038Y-145708349D01*
X182140632Y-145699170D01*
X182122219Y-145688134D01*
X182104976Y-145675346D01*
X182089070Y-145660930D01*
X182074654Y-145645024D01*
X182061866Y-145627781D01*
X182050830Y-145609368D01*
X182041651Y-145589962D01*
X182034419Y-145569750D01*
X182029203Y-145548926D01*
X182026053Y-145527691D01*
X182025000Y-145506250D01*
X182025000Y-144993750D01*
X182026053Y-144972309D01*
X182029203Y-144951074D01*
X182034419Y-144930250D01*
X182041651Y-144910038D01*
X182050830Y-144890632D01*
X182061866Y-144872219D01*
X182074654Y-144854976D01*
X182089070Y-144839070D01*
X182104976Y-144824654D01*
X182122219Y-144811866D01*
X182140632Y-144800830D01*
X182160038Y-144791651D01*
X182180250Y-144784419D01*
X182201074Y-144779203D01*
X182222309Y-144776053D01*
X182243750Y-144775000D01*
X182681250Y-144775000D01*
X182702691Y-144776053D01*
X182702691Y-144776053D01*
G37*
D13*
X182462500Y-145250000D03*
D12*
G36*
X184277691Y-144776053D02*
X184298926Y-144779203D01*
X184319750Y-144784419D01*
X184339962Y-144791651D01*
X184359368Y-144800830D01*
X184377781Y-144811866D01*
X184395024Y-144824654D01*
X184410930Y-144839070D01*
X184425346Y-144854976D01*
X184438134Y-144872219D01*
X184449170Y-144890632D01*
X184458349Y-144910038D01*
X184465581Y-144930250D01*
X184470797Y-144951074D01*
X184473947Y-144972309D01*
X184475000Y-144993750D01*
X184475000Y-145506250D01*
X184473947Y-145527691D01*
X184470797Y-145548926D01*
X184465581Y-145569750D01*
X184458349Y-145589962D01*
X184449170Y-145609368D01*
X184438134Y-145627781D01*
X184425346Y-145645024D01*
X184410930Y-145660930D01*
X184395024Y-145675346D01*
X184377781Y-145688134D01*
X184359368Y-145699170D01*
X184339962Y-145708349D01*
X184319750Y-145715581D01*
X184298926Y-145720797D01*
X184277691Y-145723947D01*
X184256250Y-145725000D01*
X183818750Y-145725000D01*
X183797309Y-145723947D01*
X183776074Y-145720797D01*
X183755250Y-145715581D01*
X183735038Y-145708349D01*
X183715632Y-145699170D01*
X183697219Y-145688134D01*
X183679976Y-145675346D01*
X183664070Y-145660930D01*
X183649654Y-145645024D01*
X183636866Y-145627781D01*
X183625830Y-145609368D01*
X183616651Y-145589962D01*
X183609419Y-145569750D01*
X183604203Y-145548926D01*
X183601053Y-145527691D01*
X183600000Y-145506250D01*
X183600000Y-144993750D01*
X183601053Y-144972309D01*
X183604203Y-144951074D01*
X183609419Y-144930250D01*
X183616651Y-144910038D01*
X183625830Y-144890632D01*
X183636866Y-144872219D01*
X183649654Y-144854976D01*
X183664070Y-144839070D01*
X183679976Y-144824654D01*
X183697219Y-144811866D01*
X183715632Y-144800830D01*
X183735038Y-144791651D01*
X183755250Y-144784419D01*
X183776074Y-144779203D01*
X183797309Y-144776053D01*
X183818750Y-144775000D01*
X184256250Y-144775000D01*
X184277691Y-144776053D01*
X184277691Y-144776053D01*
G37*
D13*
X184037500Y-145250000D03*
G04 #@! TD*
D12*
G04 #@! TO.C,C5*
G36*
X184277691Y-143276053D02*
X184298926Y-143279203D01*
X184319750Y-143284419D01*
X184339962Y-143291651D01*
X184359368Y-143300830D01*
X184377781Y-143311866D01*
X184395024Y-143324654D01*
X184410930Y-143339070D01*
X184425346Y-143354976D01*
X184438134Y-143372219D01*
X184449170Y-143390632D01*
X184458349Y-143410038D01*
X184465581Y-143430250D01*
X184470797Y-143451074D01*
X184473947Y-143472309D01*
X184475000Y-143493750D01*
X184475000Y-144006250D01*
X184473947Y-144027691D01*
X184470797Y-144048926D01*
X184465581Y-144069750D01*
X184458349Y-144089962D01*
X184449170Y-144109368D01*
X184438134Y-144127781D01*
X184425346Y-144145024D01*
X184410930Y-144160930D01*
X184395024Y-144175346D01*
X184377781Y-144188134D01*
X184359368Y-144199170D01*
X184339962Y-144208349D01*
X184319750Y-144215581D01*
X184298926Y-144220797D01*
X184277691Y-144223947D01*
X184256250Y-144225000D01*
X183818750Y-144225000D01*
X183797309Y-144223947D01*
X183776074Y-144220797D01*
X183755250Y-144215581D01*
X183735038Y-144208349D01*
X183715632Y-144199170D01*
X183697219Y-144188134D01*
X183679976Y-144175346D01*
X183664070Y-144160930D01*
X183649654Y-144145024D01*
X183636866Y-144127781D01*
X183625830Y-144109368D01*
X183616651Y-144089962D01*
X183609419Y-144069750D01*
X183604203Y-144048926D01*
X183601053Y-144027691D01*
X183600000Y-144006250D01*
X183600000Y-143493750D01*
X183601053Y-143472309D01*
X183604203Y-143451074D01*
X183609419Y-143430250D01*
X183616651Y-143410038D01*
X183625830Y-143390632D01*
X183636866Y-143372219D01*
X183649654Y-143354976D01*
X183664070Y-143339070D01*
X183679976Y-143324654D01*
X183697219Y-143311866D01*
X183715632Y-143300830D01*
X183735038Y-143291651D01*
X183755250Y-143284419D01*
X183776074Y-143279203D01*
X183797309Y-143276053D01*
X183818750Y-143275000D01*
X184256250Y-143275000D01*
X184277691Y-143276053D01*
X184277691Y-143276053D01*
G37*
D13*
X184037500Y-143750000D03*
D12*
G36*
X182702691Y-143276053D02*
X182723926Y-143279203D01*
X182744750Y-143284419D01*
X182764962Y-143291651D01*
X182784368Y-143300830D01*
X182802781Y-143311866D01*
X182820024Y-143324654D01*
X182835930Y-143339070D01*
X182850346Y-143354976D01*
X182863134Y-143372219D01*
X182874170Y-143390632D01*
X182883349Y-143410038D01*
X182890581Y-143430250D01*
X182895797Y-143451074D01*
X182898947Y-143472309D01*
X182900000Y-143493750D01*
X182900000Y-144006250D01*
X182898947Y-144027691D01*
X182895797Y-144048926D01*
X182890581Y-144069750D01*
X182883349Y-144089962D01*
X182874170Y-144109368D01*
X182863134Y-144127781D01*
X182850346Y-144145024D01*
X182835930Y-144160930D01*
X182820024Y-144175346D01*
X182802781Y-144188134D01*
X182784368Y-144199170D01*
X182764962Y-144208349D01*
X182744750Y-144215581D01*
X182723926Y-144220797D01*
X182702691Y-144223947D01*
X182681250Y-144225000D01*
X182243750Y-144225000D01*
X182222309Y-144223947D01*
X182201074Y-144220797D01*
X182180250Y-144215581D01*
X182160038Y-144208349D01*
X182140632Y-144199170D01*
X182122219Y-144188134D01*
X182104976Y-144175346D01*
X182089070Y-144160930D01*
X182074654Y-144145024D01*
X182061866Y-144127781D01*
X182050830Y-144109368D01*
X182041651Y-144089962D01*
X182034419Y-144069750D01*
X182029203Y-144048926D01*
X182026053Y-144027691D01*
X182025000Y-144006250D01*
X182025000Y-143493750D01*
X182026053Y-143472309D01*
X182029203Y-143451074D01*
X182034419Y-143430250D01*
X182041651Y-143410038D01*
X182050830Y-143390632D01*
X182061866Y-143372219D01*
X182074654Y-143354976D01*
X182089070Y-143339070D01*
X182104976Y-143324654D01*
X182122219Y-143311866D01*
X182140632Y-143300830D01*
X182160038Y-143291651D01*
X182180250Y-143284419D01*
X182201074Y-143279203D01*
X182222309Y-143276053D01*
X182243750Y-143275000D01*
X182681250Y-143275000D01*
X182702691Y-143276053D01*
X182702691Y-143276053D01*
G37*
D13*
X182462500Y-143750000D03*
G04 #@! TD*
D12*
G04 #@! TO.C,C7*
G36*
X182702691Y-136276053D02*
X182723926Y-136279203D01*
X182744750Y-136284419D01*
X182764962Y-136291651D01*
X182784368Y-136300830D01*
X182802781Y-136311866D01*
X182820024Y-136324654D01*
X182835930Y-136339070D01*
X182850346Y-136354976D01*
X182863134Y-136372219D01*
X182874170Y-136390632D01*
X182883349Y-136410038D01*
X182890581Y-136430250D01*
X182895797Y-136451074D01*
X182898947Y-136472309D01*
X182900000Y-136493750D01*
X182900000Y-137006250D01*
X182898947Y-137027691D01*
X182895797Y-137048926D01*
X182890581Y-137069750D01*
X182883349Y-137089962D01*
X182874170Y-137109368D01*
X182863134Y-137127781D01*
X182850346Y-137145024D01*
X182835930Y-137160930D01*
X182820024Y-137175346D01*
X182802781Y-137188134D01*
X182784368Y-137199170D01*
X182764962Y-137208349D01*
X182744750Y-137215581D01*
X182723926Y-137220797D01*
X182702691Y-137223947D01*
X182681250Y-137225000D01*
X182243750Y-137225000D01*
X182222309Y-137223947D01*
X182201074Y-137220797D01*
X182180250Y-137215581D01*
X182160038Y-137208349D01*
X182140632Y-137199170D01*
X182122219Y-137188134D01*
X182104976Y-137175346D01*
X182089070Y-137160930D01*
X182074654Y-137145024D01*
X182061866Y-137127781D01*
X182050830Y-137109368D01*
X182041651Y-137089962D01*
X182034419Y-137069750D01*
X182029203Y-137048926D01*
X182026053Y-137027691D01*
X182025000Y-137006250D01*
X182025000Y-136493750D01*
X182026053Y-136472309D01*
X182029203Y-136451074D01*
X182034419Y-136430250D01*
X182041651Y-136410038D01*
X182050830Y-136390632D01*
X182061866Y-136372219D01*
X182074654Y-136354976D01*
X182089070Y-136339070D01*
X182104976Y-136324654D01*
X182122219Y-136311866D01*
X182140632Y-136300830D01*
X182160038Y-136291651D01*
X182180250Y-136284419D01*
X182201074Y-136279203D01*
X182222309Y-136276053D01*
X182243750Y-136275000D01*
X182681250Y-136275000D01*
X182702691Y-136276053D01*
X182702691Y-136276053D01*
G37*
D13*
X182462500Y-136750000D03*
D12*
G36*
X184277691Y-136276053D02*
X184298926Y-136279203D01*
X184319750Y-136284419D01*
X184339962Y-136291651D01*
X184359368Y-136300830D01*
X184377781Y-136311866D01*
X184395024Y-136324654D01*
X184410930Y-136339070D01*
X184425346Y-136354976D01*
X184438134Y-136372219D01*
X184449170Y-136390632D01*
X184458349Y-136410038D01*
X184465581Y-136430250D01*
X184470797Y-136451074D01*
X184473947Y-136472309D01*
X184475000Y-136493750D01*
X184475000Y-137006250D01*
X184473947Y-137027691D01*
X184470797Y-137048926D01*
X184465581Y-137069750D01*
X184458349Y-137089962D01*
X184449170Y-137109368D01*
X184438134Y-137127781D01*
X184425346Y-137145024D01*
X184410930Y-137160930D01*
X184395024Y-137175346D01*
X184377781Y-137188134D01*
X184359368Y-137199170D01*
X184339962Y-137208349D01*
X184319750Y-137215581D01*
X184298926Y-137220797D01*
X184277691Y-137223947D01*
X184256250Y-137225000D01*
X183818750Y-137225000D01*
X183797309Y-137223947D01*
X183776074Y-137220797D01*
X183755250Y-137215581D01*
X183735038Y-137208349D01*
X183715632Y-137199170D01*
X183697219Y-137188134D01*
X183679976Y-137175346D01*
X183664070Y-137160930D01*
X183649654Y-137145024D01*
X183636866Y-137127781D01*
X183625830Y-137109368D01*
X183616651Y-137089962D01*
X183609419Y-137069750D01*
X183604203Y-137048926D01*
X183601053Y-137027691D01*
X183600000Y-137006250D01*
X183600000Y-136493750D01*
X183601053Y-136472309D01*
X183604203Y-136451074D01*
X183609419Y-136430250D01*
X183616651Y-136410038D01*
X183625830Y-136390632D01*
X183636866Y-136372219D01*
X183649654Y-136354976D01*
X183664070Y-136339070D01*
X183679976Y-136324654D01*
X183697219Y-136311866D01*
X183715632Y-136300830D01*
X183735038Y-136291651D01*
X183755250Y-136284419D01*
X183776074Y-136279203D01*
X183797309Y-136276053D01*
X183818750Y-136275000D01*
X184256250Y-136275000D01*
X184277691Y-136276053D01*
X184277691Y-136276053D01*
G37*
D13*
X184037500Y-136750000D03*
G04 #@! TD*
D12*
G04 #@! TO.C,C6*
G36*
X184277691Y-134776053D02*
X184298926Y-134779203D01*
X184319750Y-134784419D01*
X184339962Y-134791651D01*
X184359368Y-134800830D01*
X184377781Y-134811866D01*
X184395024Y-134824654D01*
X184410930Y-134839070D01*
X184425346Y-134854976D01*
X184438134Y-134872219D01*
X184449170Y-134890632D01*
X184458349Y-134910038D01*
X184465581Y-134930250D01*
X184470797Y-134951074D01*
X184473947Y-134972309D01*
X184475000Y-134993750D01*
X184475000Y-135506250D01*
X184473947Y-135527691D01*
X184470797Y-135548926D01*
X184465581Y-135569750D01*
X184458349Y-135589962D01*
X184449170Y-135609368D01*
X184438134Y-135627781D01*
X184425346Y-135645024D01*
X184410930Y-135660930D01*
X184395024Y-135675346D01*
X184377781Y-135688134D01*
X184359368Y-135699170D01*
X184339962Y-135708349D01*
X184319750Y-135715581D01*
X184298926Y-135720797D01*
X184277691Y-135723947D01*
X184256250Y-135725000D01*
X183818750Y-135725000D01*
X183797309Y-135723947D01*
X183776074Y-135720797D01*
X183755250Y-135715581D01*
X183735038Y-135708349D01*
X183715632Y-135699170D01*
X183697219Y-135688134D01*
X183679976Y-135675346D01*
X183664070Y-135660930D01*
X183649654Y-135645024D01*
X183636866Y-135627781D01*
X183625830Y-135609368D01*
X183616651Y-135589962D01*
X183609419Y-135569750D01*
X183604203Y-135548926D01*
X183601053Y-135527691D01*
X183600000Y-135506250D01*
X183600000Y-134993750D01*
X183601053Y-134972309D01*
X183604203Y-134951074D01*
X183609419Y-134930250D01*
X183616651Y-134910038D01*
X183625830Y-134890632D01*
X183636866Y-134872219D01*
X183649654Y-134854976D01*
X183664070Y-134839070D01*
X183679976Y-134824654D01*
X183697219Y-134811866D01*
X183715632Y-134800830D01*
X183735038Y-134791651D01*
X183755250Y-134784419D01*
X183776074Y-134779203D01*
X183797309Y-134776053D01*
X183818750Y-134775000D01*
X184256250Y-134775000D01*
X184277691Y-134776053D01*
X184277691Y-134776053D01*
G37*
D13*
X184037500Y-135250000D03*
D12*
G36*
X182702691Y-134776053D02*
X182723926Y-134779203D01*
X182744750Y-134784419D01*
X182764962Y-134791651D01*
X182784368Y-134800830D01*
X182802781Y-134811866D01*
X182820024Y-134824654D01*
X182835930Y-134839070D01*
X182850346Y-134854976D01*
X182863134Y-134872219D01*
X182874170Y-134890632D01*
X182883349Y-134910038D01*
X182890581Y-134930250D01*
X182895797Y-134951074D01*
X182898947Y-134972309D01*
X182900000Y-134993750D01*
X182900000Y-135506250D01*
X182898947Y-135527691D01*
X182895797Y-135548926D01*
X182890581Y-135569750D01*
X182883349Y-135589962D01*
X182874170Y-135609368D01*
X182863134Y-135627781D01*
X182850346Y-135645024D01*
X182835930Y-135660930D01*
X182820024Y-135675346D01*
X182802781Y-135688134D01*
X182784368Y-135699170D01*
X182764962Y-135708349D01*
X182744750Y-135715581D01*
X182723926Y-135720797D01*
X182702691Y-135723947D01*
X182681250Y-135725000D01*
X182243750Y-135725000D01*
X182222309Y-135723947D01*
X182201074Y-135720797D01*
X182180250Y-135715581D01*
X182160038Y-135708349D01*
X182140632Y-135699170D01*
X182122219Y-135688134D01*
X182104976Y-135675346D01*
X182089070Y-135660930D01*
X182074654Y-135645024D01*
X182061866Y-135627781D01*
X182050830Y-135609368D01*
X182041651Y-135589962D01*
X182034419Y-135569750D01*
X182029203Y-135548926D01*
X182026053Y-135527691D01*
X182025000Y-135506250D01*
X182025000Y-134993750D01*
X182026053Y-134972309D01*
X182029203Y-134951074D01*
X182034419Y-134930250D01*
X182041651Y-134910038D01*
X182050830Y-134890632D01*
X182061866Y-134872219D01*
X182074654Y-134854976D01*
X182089070Y-134839070D01*
X182104976Y-134824654D01*
X182122219Y-134811866D01*
X182140632Y-134800830D01*
X182160038Y-134791651D01*
X182180250Y-134784419D01*
X182201074Y-134779203D01*
X182222309Y-134776053D01*
X182243750Y-134775000D01*
X182681250Y-134775000D01*
X182702691Y-134776053D01*
X182702691Y-134776053D01*
G37*
D13*
X182462500Y-135250000D03*
G04 #@! TD*
D14*
G04 #@! TO.C,R1*
X200487500Y-125100000D03*
X198912500Y-125100000D03*
G04 #@! TD*
G04 #@! TO.C,R2*
X189212500Y-139000000D03*
X190787500Y-139000000D03*
G04 #@! TD*
G04 #@! TO.C,R3*
X190787500Y-141000000D03*
X189212500Y-141000000D03*
G04 #@! TD*
D12*
G04 #@! TO.C,U1*
G36*
X186962252Y-127950602D02*
X186974386Y-127952402D01*
X186986286Y-127955382D01*
X186997835Y-127959515D01*
X187008925Y-127964760D01*
X187019446Y-127971066D01*
X187029299Y-127978374D01*
X187038388Y-127986612D01*
X187046626Y-127995701D01*
X187053934Y-128005554D01*
X187060240Y-128016075D01*
X187065485Y-128027165D01*
X187069618Y-128038714D01*
X187072598Y-128050614D01*
X187074398Y-128062748D01*
X187075000Y-128075000D01*
X187075000Y-128325000D01*
X187074398Y-128337252D01*
X187072598Y-128349386D01*
X187069618Y-128361286D01*
X187065485Y-128372835D01*
X187060240Y-128383925D01*
X187053934Y-128394446D01*
X187046626Y-128404299D01*
X187038388Y-128413388D01*
X187029299Y-128421626D01*
X187019446Y-128428934D01*
X187008925Y-128435240D01*
X186997835Y-128440485D01*
X186986286Y-128444618D01*
X186974386Y-128447598D01*
X186962252Y-128449398D01*
X186950000Y-128450000D01*
X185700000Y-128450000D01*
X185687748Y-128449398D01*
X185675614Y-128447598D01*
X185663714Y-128444618D01*
X185652165Y-128440485D01*
X185641075Y-128435240D01*
X185630554Y-128428934D01*
X185620701Y-128421626D01*
X185611612Y-128413388D01*
X185603374Y-128404299D01*
X185596066Y-128394446D01*
X185589760Y-128383925D01*
X185584515Y-128372835D01*
X185580382Y-128361286D01*
X185577402Y-128349386D01*
X185575602Y-128337252D01*
X185575000Y-128325000D01*
X185575000Y-128075000D01*
X185575602Y-128062748D01*
X185577402Y-128050614D01*
X185580382Y-128038714D01*
X185584515Y-128027165D01*
X185589760Y-128016075D01*
X185596066Y-128005554D01*
X185603374Y-127995701D01*
X185611612Y-127986612D01*
X185620701Y-127978374D01*
X185630554Y-127971066D01*
X185641075Y-127964760D01*
X185652165Y-127959515D01*
X185663714Y-127955382D01*
X185675614Y-127952402D01*
X185687748Y-127950602D01*
X185700000Y-127950000D01*
X186950000Y-127950000D01*
X186962252Y-127950602D01*
X186962252Y-127950602D01*
G37*
D15*
X186325000Y-128200000D03*
D12*
G36*
X186962252Y-128750602D02*
X186974386Y-128752402D01*
X186986286Y-128755382D01*
X186997835Y-128759515D01*
X187008925Y-128764760D01*
X187019446Y-128771066D01*
X187029299Y-128778374D01*
X187038388Y-128786612D01*
X187046626Y-128795701D01*
X187053934Y-128805554D01*
X187060240Y-128816075D01*
X187065485Y-128827165D01*
X187069618Y-128838714D01*
X187072598Y-128850614D01*
X187074398Y-128862748D01*
X187075000Y-128875000D01*
X187075000Y-129125000D01*
X187074398Y-129137252D01*
X187072598Y-129149386D01*
X187069618Y-129161286D01*
X187065485Y-129172835D01*
X187060240Y-129183925D01*
X187053934Y-129194446D01*
X187046626Y-129204299D01*
X187038388Y-129213388D01*
X187029299Y-129221626D01*
X187019446Y-129228934D01*
X187008925Y-129235240D01*
X186997835Y-129240485D01*
X186986286Y-129244618D01*
X186974386Y-129247598D01*
X186962252Y-129249398D01*
X186950000Y-129250000D01*
X185700000Y-129250000D01*
X185687748Y-129249398D01*
X185675614Y-129247598D01*
X185663714Y-129244618D01*
X185652165Y-129240485D01*
X185641075Y-129235240D01*
X185630554Y-129228934D01*
X185620701Y-129221626D01*
X185611612Y-129213388D01*
X185603374Y-129204299D01*
X185596066Y-129194446D01*
X185589760Y-129183925D01*
X185584515Y-129172835D01*
X185580382Y-129161286D01*
X185577402Y-129149386D01*
X185575602Y-129137252D01*
X185575000Y-129125000D01*
X185575000Y-128875000D01*
X185575602Y-128862748D01*
X185577402Y-128850614D01*
X185580382Y-128838714D01*
X185584515Y-128827165D01*
X185589760Y-128816075D01*
X185596066Y-128805554D01*
X185603374Y-128795701D01*
X185611612Y-128786612D01*
X185620701Y-128778374D01*
X185630554Y-128771066D01*
X185641075Y-128764760D01*
X185652165Y-128759515D01*
X185663714Y-128755382D01*
X185675614Y-128752402D01*
X185687748Y-128750602D01*
X185700000Y-128750000D01*
X186950000Y-128750000D01*
X186962252Y-128750602D01*
X186962252Y-128750602D01*
G37*
D15*
X186325000Y-129000000D03*
D12*
G36*
X186962252Y-129550602D02*
X186974386Y-129552402D01*
X186986286Y-129555382D01*
X186997835Y-129559515D01*
X187008925Y-129564760D01*
X187019446Y-129571066D01*
X187029299Y-129578374D01*
X187038388Y-129586612D01*
X187046626Y-129595701D01*
X187053934Y-129605554D01*
X187060240Y-129616075D01*
X187065485Y-129627165D01*
X187069618Y-129638714D01*
X187072598Y-129650614D01*
X187074398Y-129662748D01*
X187075000Y-129675000D01*
X187075000Y-129925000D01*
X187074398Y-129937252D01*
X187072598Y-129949386D01*
X187069618Y-129961286D01*
X187065485Y-129972835D01*
X187060240Y-129983925D01*
X187053934Y-129994446D01*
X187046626Y-130004299D01*
X187038388Y-130013388D01*
X187029299Y-130021626D01*
X187019446Y-130028934D01*
X187008925Y-130035240D01*
X186997835Y-130040485D01*
X186986286Y-130044618D01*
X186974386Y-130047598D01*
X186962252Y-130049398D01*
X186950000Y-130050000D01*
X185700000Y-130050000D01*
X185687748Y-130049398D01*
X185675614Y-130047598D01*
X185663714Y-130044618D01*
X185652165Y-130040485D01*
X185641075Y-130035240D01*
X185630554Y-130028934D01*
X185620701Y-130021626D01*
X185611612Y-130013388D01*
X185603374Y-130004299D01*
X185596066Y-129994446D01*
X185589760Y-129983925D01*
X185584515Y-129972835D01*
X185580382Y-129961286D01*
X185577402Y-129949386D01*
X185575602Y-129937252D01*
X185575000Y-129925000D01*
X185575000Y-129675000D01*
X185575602Y-129662748D01*
X185577402Y-129650614D01*
X185580382Y-129638714D01*
X185584515Y-129627165D01*
X185589760Y-129616075D01*
X185596066Y-129605554D01*
X185603374Y-129595701D01*
X185611612Y-129586612D01*
X185620701Y-129578374D01*
X185630554Y-129571066D01*
X185641075Y-129564760D01*
X185652165Y-129559515D01*
X185663714Y-129555382D01*
X185675614Y-129552402D01*
X185687748Y-129550602D01*
X185700000Y-129550000D01*
X186950000Y-129550000D01*
X186962252Y-129550602D01*
X186962252Y-129550602D01*
G37*
D15*
X186325000Y-129800000D03*
D12*
G36*
X186962252Y-130350602D02*
X186974386Y-130352402D01*
X186986286Y-130355382D01*
X186997835Y-130359515D01*
X187008925Y-130364760D01*
X187019446Y-130371066D01*
X187029299Y-130378374D01*
X187038388Y-130386612D01*
X187046626Y-130395701D01*
X187053934Y-130405554D01*
X187060240Y-130416075D01*
X187065485Y-130427165D01*
X187069618Y-130438714D01*
X187072598Y-130450614D01*
X187074398Y-130462748D01*
X187075000Y-130475000D01*
X187075000Y-130725000D01*
X187074398Y-130737252D01*
X187072598Y-130749386D01*
X187069618Y-130761286D01*
X187065485Y-130772835D01*
X187060240Y-130783925D01*
X187053934Y-130794446D01*
X187046626Y-130804299D01*
X187038388Y-130813388D01*
X187029299Y-130821626D01*
X187019446Y-130828934D01*
X187008925Y-130835240D01*
X186997835Y-130840485D01*
X186986286Y-130844618D01*
X186974386Y-130847598D01*
X186962252Y-130849398D01*
X186950000Y-130850000D01*
X185700000Y-130850000D01*
X185687748Y-130849398D01*
X185675614Y-130847598D01*
X185663714Y-130844618D01*
X185652165Y-130840485D01*
X185641075Y-130835240D01*
X185630554Y-130828934D01*
X185620701Y-130821626D01*
X185611612Y-130813388D01*
X185603374Y-130804299D01*
X185596066Y-130794446D01*
X185589760Y-130783925D01*
X185584515Y-130772835D01*
X185580382Y-130761286D01*
X185577402Y-130749386D01*
X185575602Y-130737252D01*
X185575000Y-130725000D01*
X185575000Y-130475000D01*
X185575602Y-130462748D01*
X185577402Y-130450614D01*
X185580382Y-130438714D01*
X185584515Y-130427165D01*
X185589760Y-130416075D01*
X185596066Y-130405554D01*
X185603374Y-130395701D01*
X185611612Y-130386612D01*
X185620701Y-130378374D01*
X185630554Y-130371066D01*
X185641075Y-130364760D01*
X185652165Y-130359515D01*
X185663714Y-130355382D01*
X185675614Y-130352402D01*
X185687748Y-130350602D01*
X185700000Y-130350000D01*
X186950000Y-130350000D01*
X186962252Y-130350602D01*
X186962252Y-130350602D01*
G37*
D15*
X186325000Y-130600000D03*
D12*
G36*
X186962252Y-131150602D02*
X186974386Y-131152402D01*
X186986286Y-131155382D01*
X186997835Y-131159515D01*
X187008925Y-131164760D01*
X187019446Y-131171066D01*
X187029299Y-131178374D01*
X187038388Y-131186612D01*
X187046626Y-131195701D01*
X187053934Y-131205554D01*
X187060240Y-131216075D01*
X187065485Y-131227165D01*
X187069618Y-131238714D01*
X187072598Y-131250614D01*
X187074398Y-131262748D01*
X187075000Y-131275000D01*
X187075000Y-131525000D01*
X187074398Y-131537252D01*
X187072598Y-131549386D01*
X187069618Y-131561286D01*
X187065485Y-131572835D01*
X187060240Y-131583925D01*
X187053934Y-131594446D01*
X187046626Y-131604299D01*
X187038388Y-131613388D01*
X187029299Y-131621626D01*
X187019446Y-131628934D01*
X187008925Y-131635240D01*
X186997835Y-131640485D01*
X186986286Y-131644618D01*
X186974386Y-131647598D01*
X186962252Y-131649398D01*
X186950000Y-131650000D01*
X185700000Y-131650000D01*
X185687748Y-131649398D01*
X185675614Y-131647598D01*
X185663714Y-131644618D01*
X185652165Y-131640485D01*
X185641075Y-131635240D01*
X185630554Y-131628934D01*
X185620701Y-131621626D01*
X185611612Y-131613388D01*
X185603374Y-131604299D01*
X185596066Y-131594446D01*
X185589760Y-131583925D01*
X185584515Y-131572835D01*
X185580382Y-131561286D01*
X185577402Y-131549386D01*
X185575602Y-131537252D01*
X185575000Y-131525000D01*
X185575000Y-131275000D01*
X185575602Y-131262748D01*
X185577402Y-131250614D01*
X185580382Y-131238714D01*
X185584515Y-131227165D01*
X185589760Y-131216075D01*
X185596066Y-131205554D01*
X185603374Y-131195701D01*
X185611612Y-131186612D01*
X185620701Y-131178374D01*
X185630554Y-131171066D01*
X185641075Y-131164760D01*
X185652165Y-131159515D01*
X185663714Y-131155382D01*
X185675614Y-131152402D01*
X185687748Y-131150602D01*
X185700000Y-131150000D01*
X186950000Y-131150000D01*
X186962252Y-131150602D01*
X186962252Y-131150602D01*
G37*
D15*
X186325000Y-131400000D03*
D12*
G36*
X186962252Y-131950602D02*
X186974386Y-131952402D01*
X186986286Y-131955382D01*
X186997835Y-131959515D01*
X187008925Y-131964760D01*
X187019446Y-131971066D01*
X187029299Y-131978374D01*
X187038388Y-131986612D01*
X187046626Y-131995701D01*
X187053934Y-132005554D01*
X187060240Y-132016075D01*
X187065485Y-132027165D01*
X187069618Y-132038714D01*
X187072598Y-132050614D01*
X187074398Y-132062748D01*
X187075000Y-132075000D01*
X187075000Y-132325000D01*
X187074398Y-132337252D01*
X187072598Y-132349386D01*
X187069618Y-132361286D01*
X187065485Y-132372835D01*
X187060240Y-132383925D01*
X187053934Y-132394446D01*
X187046626Y-132404299D01*
X187038388Y-132413388D01*
X187029299Y-132421626D01*
X187019446Y-132428934D01*
X187008925Y-132435240D01*
X186997835Y-132440485D01*
X186986286Y-132444618D01*
X186974386Y-132447598D01*
X186962252Y-132449398D01*
X186950000Y-132450000D01*
X185700000Y-132450000D01*
X185687748Y-132449398D01*
X185675614Y-132447598D01*
X185663714Y-132444618D01*
X185652165Y-132440485D01*
X185641075Y-132435240D01*
X185630554Y-132428934D01*
X185620701Y-132421626D01*
X185611612Y-132413388D01*
X185603374Y-132404299D01*
X185596066Y-132394446D01*
X185589760Y-132383925D01*
X185584515Y-132372835D01*
X185580382Y-132361286D01*
X185577402Y-132349386D01*
X185575602Y-132337252D01*
X185575000Y-132325000D01*
X185575000Y-132075000D01*
X185575602Y-132062748D01*
X185577402Y-132050614D01*
X185580382Y-132038714D01*
X185584515Y-132027165D01*
X185589760Y-132016075D01*
X185596066Y-132005554D01*
X185603374Y-131995701D01*
X185611612Y-131986612D01*
X185620701Y-131978374D01*
X185630554Y-131971066D01*
X185641075Y-131964760D01*
X185652165Y-131959515D01*
X185663714Y-131955382D01*
X185675614Y-131952402D01*
X185687748Y-131950602D01*
X185700000Y-131950000D01*
X186950000Y-131950000D01*
X186962252Y-131950602D01*
X186962252Y-131950602D01*
G37*
D15*
X186325000Y-132200000D03*
D12*
G36*
X186962252Y-132750602D02*
X186974386Y-132752402D01*
X186986286Y-132755382D01*
X186997835Y-132759515D01*
X187008925Y-132764760D01*
X187019446Y-132771066D01*
X187029299Y-132778374D01*
X187038388Y-132786612D01*
X187046626Y-132795701D01*
X187053934Y-132805554D01*
X187060240Y-132816075D01*
X187065485Y-132827165D01*
X187069618Y-132838714D01*
X187072598Y-132850614D01*
X187074398Y-132862748D01*
X187075000Y-132875000D01*
X187075000Y-133125000D01*
X187074398Y-133137252D01*
X187072598Y-133149386D01*
X187069618Y-133161286D01*
X187065485Y-133172835D01*
X187060240Y-133183925D01*
X187053934Y-133194446D01*
X187046626Y-133204299D01*
X187038388Y-133213388D01*
X187029299Y-133221626D01*
X187019446Y-133228934D01*
X187008925Y-133235240D01*
X186997835Y-133240485D01*
X186986286Y-133244618D01*
X186974386Y-133247598D01*
X186962252Y-133249398D01*
X186950000Y-133250000D01*
X185700000Y-133250000D01*
X185687748Y-133249398D01*
X185675614Y-133247598D01*
X185663714Y-133244618D01*
X185652165Y-133240485D01*
X185641075Y-133235240D01*
X185630554Y-133228934D01*
X185620701Y-133221626D01*
X185611612Y-133213388D01*
X185603374Y-133204299D01*
X185596066Y-133194446D01*
X185589760Y-133183925D01*
X185584515Y-133172835D01*
X185580382Y-133161286D01*
X185577402Y-133149386D01*
X185575602Y-133137252D01*
X185575000Y-133125000D01*
X185575000Y-132875000D01*
X185575602Y-132862748D01*
X185577402Y-132850614D01*
X185580382Y-132838714D01*
X185584515Y-132827165D01*
X185589760Y-132816075D01*
X185596066Y-132805554D01*
X185603374Y-132795701D01*
X185611612Y-132786612D01*
X185620701Y-132778374D01*
X185630554Y-132771066D01*
X185641075Y-132764760D01*
X185652165Y-132759515D01*
X185663714Y-132755382D01*
X185675614Y-132752402D01*
X185687748Y-132750602D01*
X185700000Y-132750000D01*
X186950000Y-132750000D01*
X186962252Y-132750602D01*
X186962252Y-132750602D01*
G37*
D15*
X186325000Y-133000000D03*
D12*
G36*
X186962252Y-133550602D02*
X186974386Y-133552402D01*
X186986286Y-133555382D01*
X186997835Y-133559515D01*
X187008925Y-133564760D01*
X187019446Y-133571066D01*
X187029299Y-133578374D01*
X187038388Y-133586612D01*
X187046626Y-133595701D01*
X187053934Y-133605554D01*
X187060240Y-133616075D01*
X187065485Y-133627165D01*
X187069618Y-133638714D01*
X187072598Y-133650614D01*
X187074398Y-133662748D01*
X187075000Y-133675000D01*
X187075000Y-133925000D01*
X187074398Y-133937252D01*
X187072598Y-133949386D01*
X187069618Y-133961286D01*
X187065485Y-133972835D01*
X187060240Y-133983925D01*
X187053934Y-133994446D01*
X187046626Y-134004299D01*
X187038388Y-134013388D01*
X187029299Y-134021626D01*
X187019446Y-134028934D01*
X187008925Y-134035240D01*
X186997835Y-134040485D01*
X186986286Y-134044618D01*
X186974386Y-134047598D01*
X186962252Y-134049398D01*
X186950000Y-134050000D01*
X185700000Y-134050000D01*
X185687748Y-134049398D01*
X185675614Y-134047598D01*
X185663714Y-134044618D01*
X185652165Y-134040485D01*
X185641075Y-134035240D01*
X185630554Y-134028934D01*
X185620701Y-134021626D01*
X185611612Y-134013388D01*
X185603374Y-134004299D01*
X185596066Y-133994446D01*
X185589760Y-133983925D01*
X185584515Y-133972835D01*
X185580382Y-133961286D01*
X185577402Y-133949386D01*
X185575602Y-133937252D01*
X185575000Y-133925000D01*
X185575000Y-133675000D01*
X185575602Y-133662748D01*
X185577402Y-133650614D01*
X185580382Y-133638714D01*
X185584515Y-133627165D01*
X185589760Y-133616075D01*
X185596066Y-133605554D01*
X185603374Y-133595701D01*
X185611612Y-133586612D01*
X185620701Y-133578374D01*
X185630554Y-133571066D01*
X185641075Y-133564760D01*
X185652165Y-133559515D01*
X185663714Y-133555382D01*
X185675614Y-133552402D01*
X185687748Y-133550602D01*
X185700000Y-133550000D01*
X186950000Y-133550000D01*
X186962252Y-133550602D01*
X186962252Y-133550602D01*
G37*
D15*
X186325000Y-133800000D03*
D12*
G36*
X187837252Y-134425602D02*
X187849386Y-134427402D01*
X187861286Y-134430382D01*
X187872835Y-134434515D01*
X187883925Y-134439760D01*
X187894446Y-134446066D01*
X187904299Y-134453374D01*
X187913388Y-134461612D01*
X187921626Y-134470701D01*
X187928934Y-134480554D01*
X187935240Y-134491075D01*
X187940485Y-134502165D01*
X187944618Y-134513714D01*
X187947598Y-134525614D01*
X187949398Y-134537748D01*
X187950000Y-134550000D01*
X187950000Y-135800000D01*
X187949398Y-135812252D01*
X187947598Y-135824386D01*
X187944618Y-135836286D01*
X187940485Y-135847835D01*
X187935240Y-135858925D01*
X187928934Y-135869446D01*
X187921626Y-135879299D01*
X187913388Y-135888388D01*
X187904299Y-135896626D01*
X187894446Y-135903934D01*
X187883925Y-135910240D01*
X187872835Y-135915485D01*
X187861286Y-135919618D01*
X187849386Y-135922598D01*
X187837252Y-135924398D01*
X187825000Y-135925000D01*
X187575000Y-135925000D01*
X187562748Y-135924398D01*
X187550614Y-135922598D01*
X187538714Y-135919618D01*
X187527165Y-135915485D01*
X187516075Y-135910240D01*
X187505554Y-135903934D01*
X187495701Y-135896626D01*
X187486612Y-135888388D01*
X187478374Y-135879299D01*
X187471066Y-135869446D01*
X187464760Y-135858925D01*
X187459515Y-135847835D01*
X187455382Y-135836286D01*
X187452402Y-135824386D01*
X187450602Y-135812252D01*
X187450000Y-135800000D01*
X187450000Y-134550000D01*
X187450602Y-134537748D01*
X187452402Y-134525614D01*
X187455382Y-134513714D01*
X187459515Y-134502165D01*
X187464760Y-134491075D01*
X187471066Y-134480554D01*
X187478374Y-134470701D01*
X187486612Y-134461612D01*
X187495701Y-134453374D01*
X187505554Y-134446066D01*
X187516075Y-134439760D01*
X187527165Y-134434515D01*
X187538714Y-134430382D01*
X187550614Y-134427402D01*
X187562748Y-134425602D01*
X187575000Y-134425000D01*
X187825000Y-134425000D01*
X187837252Y-134425602D01*
X187837252Y-134425602D01*
G37*
D15*
X187700000Y-135175000D03*
D12*
G36*
X188637252Y-134425602D02*
X188649386Y-134427402D01*
X188661286Y-134430382D01*
X188672835Y-134434515D01*
X188683925Y-134439760D01*
X188694446Y-134446066D01*
X188704299Y-134453374D01*
X188713388Y-134461612D01*
X188721626Y-134470701D01*
X188728934Y-134480554D01*
X188735240Y-134491075D01*
X188740485Y-134502165D01*
X188744618Y-134513714D01*
X188747598Y-134525614D01*
X188749398Y-134537748D01*
X188750000Y-134550000D01*
X188750000Y-135800000D01*
X188749398Y-135812252D01*
X188747598Y-135824386D01*
X188744618Y-135836286D01*
X188740485Y-135847835D01*
X188735240Y-135858925D01*
X188728934Y-135869446D01*
X188721626Y-135879299D01*
X188713388Y-135888388D01*
X188704299Y-135896626D01*
X188694446Y-135903934D01*
X188683925Y-135910240D01*
X188672835Y-135915485D01*
X188661286Y-135919618D01*
X188649386Y-135922598D01*
X188637252Y-135924398D01*
X188625000Y-135925000D01*
X188375000Y-135925000D01*
X188362748Y-135924398D01*
X188350614Y-135922598D01*
X188338714Y-135919618D01*
X188327165Y-135915485D01*
X188316075Y-135910240D01*
X188305554Y-135903934D01*
X188295701Y-135896626D01*
X188286612Y-135888388D01*
X188278374Y-135879299D01*
X188271066Y-135869446D01*
X188264760Y-135858925D01*
X188259515Y-135847835D01*
X188255382Y-135836286D01*
X188252402Y-135824386D01*
X188250602Y-135812252D01*
X188250000Y-135800000D01*
X188250000Y-134550000D01*
X188250602Y-134537748D01*
X188252402Y-134525614D01*
X188255382Y-134513714D01*
X188259515Y-134502165D01*
X188264760Y-134491075D01*
X188271066Y-134480554D01*
X188278374Y-134470701D01*
X188286612Y-134461612D01*
X188295701Y-134453374D01*
X188305554Y-134446066D01*
X188316075Y-134439760D01*
X188327165Y-134434515D01*
X188338714Y-134430382D01*
X188350614Y-134427402D01*
X188362748Y-134425602D01*
X188375000Y-134425000D01*
X188625000Y-134425000D01*
X188637252Y-134425602D01*
X188637252Y-134425602D01*
G37*
D15*
X188500000Y-135175000D03*
D12*
G36*
X189437252Y-134425602D02*
X189449386Y-134427402D01*
X189461286Y-134430382D01*
X189472835Y-134434515D01*
X189483925Y-134439760D01*
X189494446Y-134446066D01*
X189504299Y-134453374D01*
X189513388Y-134461612D01*
X189521626Y-134470701D01*
X189528934Y-134480554D01*
X189535240Y-134491075D01*
X189540485Y-134502165D01*
X189544618Y-134513714D01*
X189547598Y-134525614D01*
X189549398Y-134537748D01*
X189550000Y-134550000D01*
X189550000Y-135800000D01*
X189549398Y-135812252D01*
X189547598Y-135824386D01*
X189544618Y-135836286D01*
X189540485Y-135847835D01*
X189535240Y-135858925D01*
X189528934Y-135869446D01*
X189521626Y-135879299D01*
X189513388Y-135888388D01*
X189504299Y-135896626D01*
X189494446Y-135903934D01*
X189483925Y-135910240D01*
X189472835Y-135915485D01*
X189461286Y-135919618D01*
X189449386Y-135922598D01*
X189437252Y-135924398D01*
X189425000Y-135925000D01*
X189175000Y-135925000D01*
X189162748Y-135924398D01*
X189150614Y-135922598D01*
X189138714Y-135919618D01*
X189127165Y-135915485D01*
X189116075Y-135910240D01*
X189105554Y-135903934D01*
X189095701Y-135896626D01*
X189086612Y-135888388D01*
X189078374Y-135879299D01*
X189071066Y-135869446D01*
X189064760Y-135858925D01*
X189059515Y-135847835D01*
X189055382Y-135836286D01*
X189052402Y-135824386D01*
X189050602Y-135812252D01*
X189050000Y-135800000D01*
X189050000Y-134550000D01*
X189050602Y-134537748D01*
X189052402Y-134525614D01*
X189055382Y-134513714D01*
X189059515Y-134502165D01*
X189064760Y-134491075D01*
X189071066Y-134480554D01*
X189078374Y-134470701D01*
X189086612Y-134461612D01*
X189095701Y-134453374D01*
X189105554Y-134446066D01*
X189116075Y-134439760D01*
X189127165Y-134434515D01*
X189138714Y-134430382D01*
X189150614Y-134427402D01*
X189162748Y-134425602D01*
X189175000Y-134425000D01*
X189425000Y-134425000D01*
X189437252Y-134425602D01*
X189437252Y-134425602D01*
G37*
D15*
X189300000Y-135175000D03*
D12*
G36*
X190237252Y-134425602D02*
X190249386Y-134427402D01*
X190261286Y-134430382D01*
X190272835Y-134434515D01*
X190283925Y-134439760D01*
X190294446Y-134446066D01*
X190304299Y-134453374D01*
X190313388Y-134461612D01*
X190321626Y-134470701D01*
X190328934Y-134480554D01*
X190335240Y-134491075D01*
X190340485Y-134502165D01*
X190344618Y-134513714D01*
X190347598Y-134525614D01*
X190349398Y-134537748D01*
X190350000Y-134550000D01*
X190350000Y-135800000D01*
X190349398Y-135812252D01*
X190347598Y-135824386D01*
X190344618Y-135836286D01*
X190340485Y-135847835D01*
X190335240Y-135858925D01*
X190328934Y-135869446D01*
X190321626Y-135879299D01*
X190313388Y-135888388D01*
X190304299Y-135896626D01*
X190294446Y-135903934D01*
X190283925Y-135910240D01*
X190272835Y-135915485D01*
X190261286Y-135919618D01*
X190249386Y-135922598D01*
X190237252Y-135924398D01*
X190225000Y-135925000D01*
X189975000Y-135925000D01*
X189962748Y-135924398D01*
X189950614Y-135922598D01*
X189938714Y-135919618D01*
X189927165Y-135915485D01*
X189916075Y-135910240D01*
X189905554Y-135903934D01*
X189895701Y-135896626D01*
X189886612Y-135888388D01*
X189878374Y-135879299D01*
X189871066Y-135869446D01*
X189864760Y-135858925D01*
X189859515Y-135847835D01*
X189855382Y-135836286D01*
X189852402Y-135824386D01*
X189850602Y-135812252D01*
X189850000Y-135800000D01*
X189850000Y-134550000D01*
X189850602Y-134537748D01*
X189852402Y-134525614D01*
X189855382Y-134513714D01*
X189859515Y-134502165D01*
X189864760Y-134491075D01*
X189871066Y-134480554D01*
X189878374Y-134470701D01*
X189886612Y-134461612D01*
X189895701Y-134453374D01*
X189905554Y-134446066D01*
X189916075Y-134439760D01*
X189927165Y-134434515D01*
X189938714Y-134430382D01*
X189950614Y-134427402D01*
X189962748Y-134425602D01*
X189975000Y-134425000D01*
X190225000Y-134425000D01*
X190237252Y-134425602D01*
X190237252Y-134425602D01*
G37*
D15*
X190100000Y-135175000D03*
D12*
G36*
X191037252Y-134425602D02*
X191049386Y-134427402D01*
X191061286Y-134430382D01*
X191072835Y-134434515D01*
X191083925Y-134439760D01*
X191094446Y-134446066D01*
X191104299Y-134453374D01*
X191113388Y-134461612D01*
X191121626Y-134470701D01*
X191128934Y-134480554D01*
X191135240Y-134491075D01*
X191140485Y-134502165D01*
X191144618Y-134513714D01*
X191147598Y-134525614D01*
X191149398Y-134537748D01*
X191150000Y-134550000D01*
X191150000Y-135800000D01*
X191149398Y-135812252D01*
X191147598Y-135824386D01*
X191144618Y-135836286D01*
X191140485Y-135847835D01*
X191135240Y-135858925D01*
X191128934Y-135869446D01*
X191121626Y-135879299D01*
X191113388Y-135888388D01*
X191104299Y-135896626D01*
X191094446Y-135903934D01*
X191083925Y-135910240D01*
X191072835Y-135915485D01*
X191061286Y-135919618D01*
X191049386Y-135922598D01*
X191037252Y-135924398D01*
X191025000Y-135925000D01*
X190775000Y-135925000D01*
X190762748Y-135924398D01*
X190750614Y-135922598D01*
X190738714Y-135919618D01*
X190727165Y-135915485D01*
X190716075Y-135910240D01*
X190705554Y-135903934D01*
X190695701Y-135896626D01*
X190686612Y-135888388D01*
X190678374Y-135879299D01*
X190671066Y-135869446D01*
X190664760Y-135858925D01*
X190659515Y-135847835D01*
X190655382Y-135836286D01*
X190652402Y-135824386D01*
X190650602Y-135812252D01*
X190650000Y-135800000D01*
X190650000Y-134550000D01*
X190650602Y-134537748D01*
X190652402Y-134525614D01*
X190655382Y-134513714D01*
X190659515Y-134502165D01*
X190664760Y-134491075D01*
X190671066Y-134480554D01*
X190678374Y-134470701D01*
X190686612Y-134461612D01*
X190695701Y-134453374D01*
X190705554Y-134446066D01*
X190716075Y-134439760D01*
X190727165Y-134434515D01*
X190738714Y-134430382D01*
X190750614Y-134427402D01*
X190762748Y-134425602D01*
X190775000Y-134425000D01*
X191025000Y-134425000D01*
X191037252Y-134425602D01*
X191037252Y-134425602D01*
G37*
D15*
X190900000Y-135175000D03*
D12*
G36*
X191837252Y-134425602D02*
X191849386Y-134427402D01*
X191861286Y-134430382D01*
X191872835Y-134434515D01*
X191883925Y-134439760D01*
X191894446Y-134446066D01*
X191904299Y-134453374D01*
X191913388Y-134461612D01*
X191921626Y-134470701D01*
X191928934Y-134480554D01*
X191935240Y-134491075D01*
X191940485Y-134502165D01*
X191944618Y-134513714D01*
X191947598Y-134525614D01*
X191949398Y-134537748D01*
X191950000Y-134550000D01*
X191950000Y-135800000D01*
X191949398Y-135812252D01*
X191947598Y-135824386D01*
X191944618Y-135836286D01*
X191940485Y-135847835D01*
X191935240Y-135858925D01*
X191928934Y-135869446D01*
X191921626Y-135879299D01*
X191913388Y-135888388D01*
X191904299Y-135896626D01*
X191894446Y-135903934D01*
X191883925Y-135910240D01*
X191872835Y-135915485D01*
X191861286Y-135919618D01*
X191849386Y-135922598D01*
X191837252Y-135924398D01*
X191825000Y-135925000D01*
X191575000Y-135925000D01*
X191562748Y-135924398D01*
X191550614Y-135922598D01*
X191538714Y-135919618D01*
X191527165Y-135915485D01*
X191516075Y-135910240D01*
X191505554Y-135903934D01*
X191495701Y-135896626D01*
X191486612Y-135888388D01*
X191478374Y-135879299D01*
X191471066Y-135869446D01*
X191464760Y-135858925D01*
X191459515Y-135847835D01*
X191455382Y-135836286D01*
X191452402Y-135824386D01*
X191450602Y-135812252D01*
X191450000Y-135800000D01*
X191450000Y-134550000D01*
X191450602Y-134537748D01*
X191452402Y-134525614D01*
X191455382Y-134513714D01*
X191459515Y-134502165D01*
X191464760Y-134491075D01*
X191471066Y-134480554D01*
X191478374Y-134470701D01*
X191486612Y-134461612D01*
X191495701Y-134453374D01*
X191505554Y-134446066D01*
X191516075Y-134439760D01*
X191527165Y-134434515D01*
X191538714Y-134430382D01*
X191550614Y-134427402D01*
X191562748Y-134425602D01*
X191575000Y-134425000D01*
X191825000Y-134425000D01*
X191837252Y-134425602D01*
X191837252Y-134425602D01*
G37*
D15*
X191700000Y-135175000D03*
D12*
G36*
X192637252Y-134425602D02*
X192649386Y-134427402D01*
X192661286Y-134430382D01*
X192672835Y-134434515D01*
X192683925Y-134439760D01*
X192694446Y-134446066D01*
X192704299Y-134453374D01*
X192713388Y-134461612D01*
X192721626Y-134470701D01*
X192728934Y-134480554D01*
X192735240Y-134491075D01*
X192740485Y-134502165D01*
X192744618Y-134513714D01*
X192747598Y-134525614D01*
X192749398Y-134537748D01*
X192750000Y-134550000D01*
X192750000Y-135800000D01*
X192749398Y-135812252D01*
X192747598Y-135824386D01*
X192744618Y-135836286D01*
X192740485Y-135847835D01*
X192735240Y-135858925D01*
X192728934Y-135869446D01*
X192721626Y-135879299D01*
X192713388Y-135888388D01*
X192704299Y-135896626D01*
X192694446Y-135903934D01*
X192683925Y-135910240D01*
X192672835Y-135915485D01*
X192661286Y-135919618D01*
X192649386Y-135922598D01*
X192637252Y-135924398D01*
X192625000Y-135925000D01*
X192375000Y-135925000D01*
X192362748Y-135924398D01*
X192350614Y-135922598D01*
X192338714Y-135919618D01*
X192327165Y-135915485D01*
X192316075Y-135910240D01*
X192305554Y-135903934D01*
X192295701Y-135896626D01*
X192286612Y-135888388D01*
X192278374Y-135879299D01*
X192271066Y-135869446D01*
X192264760Y-135858925D01*
X192259515Y-135847835D01*
X192255382Y-135836286D01*
X192252402Y-135824386D01*
X192250602Y-135812252D01*
X192250000Y-135800000D01*
X192250000Y-134550000D01*
X192250602Y-134537748D01*
X192252402Y-134525614D01*
X192255382Y-134513714D01*
X192259515Y-134502165D01*
X192264760Y-134491075D01*
X192271066Y-134480554D01*
X192278374Y-134470701D01*
X192286612Y-134461612D01*
X192295701Y-134453374D01*
X192305554Y-134446066D01*
X192316075Y-134439760D01*
X192327165Y-134434515D01*
X192338714Y-134430382D01*
X192350614Y-134427402D01*
X192362748Y-134425602D01*
X192375000Y-134425000D01*
X192625000Y-134425000D01*
X192637252Y-134425602D01*
X192637252Y-134425602D01*
G37*
D15*
X192500000Y-135175000D03*
D12*
G36*
X193437252Y-134425602D02*
X193449386Y-134427402D01*
X193461286Y-134430382D01*
X193472835Y-134434515D01*
X193483925Y-134439760D01*
X193494446Y-134446066D01*
X193504299Y-134453374D01*
X193513388Y-134461612D01*
X193521626Y-134470701D01*
X193528934Y-134480554D01*
X193535240Y-134491075D01*
X193540485Y-134502165D01*
X193544618Y-134513714D01*
X193547598Y-134525614D01*
X193549398Y-134537748D01*
X193550000Y-134550000D01*
X193550000Y-135800000D01*
X193549398Y-135812252D01*
X193547598Y-135824386D01*
X193544618Y-135836286D01*
X193540485Y-135847835D01*
X193535240Y-135858925D01*
X193528934Y-135869446D01*
X193521626Y-135879299D01*
X193513388Y-135888388D01*
X193504299Y-135896626D01*
X193494446Y-135903934D01*
X193483925Y-135910240D01*
X193472835Y-135915485D01*
X193461286Y-135919618D01*
X193449386Y-135922598D01*
X193437252Y-135924398D01*
X193425000Y-135925000D01*
X193175000Y-135925000D01*
X193162748Y-135924398D01*
X193150614Y-135922598D01*
X193138714Y-135919618D01*
X193127165Y-135915485D01*
X193116075Y-135910240D01*
X193105554Y-135903934D01*
X193095701Y-135896626D01*
X193086612Y-135888388D01*
X193078374Y-135879299D01*
X193071066Y-135869446D01*
X193064760Y-135858925D01*
X193059515Y-135847835D01*
X193055382Y-135836286D01*
X193052402Y-135824386D01*
X193050602Y-135812252D01*
X193050000Y-135800000D01*
X193050000Y-134550000D01*
X193050602Y-134537748D01*
X193052402Y-134525614D01*
X193055382Y-134513714D01*
X193059515Y-134502165D01*
X193064760Y-134491075D01*
X193071066Y-134480554D01*
X193078374Y-134470701D01*
X193086612Y-134461612D01*
X193095701Y-134453374D01*
X193105554Y-134446066D01*
X193116075Y-134439760D01*
X193127165Y-134434515D01*
X193138714Y-134430382D01*
X193150614Y-134427402D01*
X193162748Y-134425602D01*
X193175000Y-134425000D01*
X193425000Y-134425000D01*
X193437252Y-134425602D01*
X193437252Y-134425602D01*
G37*
D15*
X193300000Y-135175000D03*
D12*
G36*
X195312252Y-133550602D02*
X195324386Y-133552402D01*
X195336286Y-133555382D01*
X195347835Y-133559515D01*
X195358925Y-133564760D01*
X195369446Y-133571066D01*
X195379299Y-133578374D01*
X195388388Y-133586612D01*
X195396626Y-133595701D01*
X195403934Y-133605554D01*
X195410240Y-133616075D01*
X195415485Y-133627165D01*
X195419618Y-133638714D01*
X195422598Y-133650614D01*
X195424398Y-133662748D01*
X195425000Y-133675000D01*
X195425000Y-133925000D01*
X195424398Y-133937252D01*
X195422598Y-133949386D01*
X195419618Y-133961286D01*
X195415485Y-133972835D01*
X195410240Y-133983925D01*
X195403934Y-133994446D01*
X195396626Y-134004299D01*
X195388388Y-134013388D01*
X195379299Y-134021626D01*
X195369446Y-134028934D01*
X195358925Y-134035240D01*
X195347835Y-134040485D01*
X195336286Y-134044618D01*
X195324386Y-134047598D01*
X195312252Y-134049398D01*
X195300000Y-134050000D01*
X194050000Y-134050000D01*
X194037748Y-134049398D01*
X194025614Y-134047598D01*
X194013714Y-134044618D01*
X194002165Y-134040485D01*
X193991075Y-134035240D01*
X193980554Y-134028934D01*
X193970701Y-134021626D01*
X193961612Y-134013388D01*
X193953374Y-134004299D01*
X193946066Y-133994446D01*
X193939760Y-133983925D01*
X193934515Y-133972835D01*
X193930382Y-133961286D01*
X193927402Y-133949386D01*
X193925602Y-133937252D01*
X193925000Y-133925000D01*
X193925000Y-133675000D01*
X193925602Y-133662748D01*
X193927402Y-133650614D01*
X193930382Y-133638714D01*
X193934515Y-133627165D01*
X193939760Y-133616075D01*
X193946066Y-133605554D01*
X193953374Y-133595701D01*
X193961612Y-133586612D01*
X193970701Y-133578374D01*
X193980554Y-133571066D01*
X193991075Y-133564760D01*
X194002165Y-133559515D01*
X194013714Y-133555382D01*
X194025614Y-133552402D01*
X194037748Y-133550602D01*
X194050000Y-133550000D01*
X195300000Y-133550000D01*
X195312252Y-133550602D01*
X195312252Y-133550602D01*
G37*
D15*
X194675000Y-133800000D03*
D12*
G36*
X195312252Y-132750602D02*
X195324386Y-132752402D01*
X195336286Y-132755382D01*
X195347835Y-132759515D01*
X195358925Y-132764760D01*
X195369446Y-132771066D01*
X195379299Y-132778374D01*
X195388388Y-132786612D01*
X195396626Y-132795701D01*
X195403934Y-132805554D01*
X195410240Y-132816075D01*
X195415485Y-132827165D01*
X195419618Y-132838714D01*
X195422598Y-132850614D01*
X195424398Y-132862748D01*
X195425000Y-132875000D01*
X195425000Y-133125000D01*
X195424398Y-133137252D01*
X195422598Y-133149386D01*
X195419618Y-133161286D01*
X195415485Y-133172835D01*
X195410240Y-133183925D01*
X195403934Y-133194446D01*
X195396626Y-133204299D01*
X195388388Y-133213388D01*
X195379299Y-133221626D01*
X195369446Y-133228934D01*
X195358925Y-133235240D01*
X195347835Y-133240485D01*
X195336286Y-133244618D01*
X195324386Y-133247598D01*
X195312252Y-133249398D01*
X195300000Y-133250000D01*
X194050000Y-133250000D01*
X194037748Y-133249398D01*
X194025614Y-133247598D01*
X194013714Y-133244618D01*
X194002165Y-133240485D01*
X193991075Y-133235240D01*
X193980554Y-133228934D01*
X193970701Y-133221626D01*
X193961612Y-133213388D01*
X193953374Y-133204299D01*
X193946066Y-133194446D01*
X193939760Y-133183925D01*
X193934515Y-133172835D01*
X193930382Y-133161286D01*
X193927402Y-133149386D01*
X193925602Y-133137252D01*
X193925000Y-133125000D01*
X193925000Y-132875000D01*
X193925602Y-132862748D01*
X193927402Y-132850614D01*
X193930382Y-132838714D01*
X193934515Y-132827165D01*
X193939760Y-132816075D01*
X193946066Y-132805554D01*
X193953374Y-132795701D01*
X193961612Y-132786612D01*
X193970701Y-132778374D01*
X193980554Y-132771066D01*
X193991075Y-132764760D01*
X194002165Y-132759515D01*
X194013714Y-132755382D01*
X194025614Y-132752402D01*
X194037748Y-132750602D01*
X194050000Y-132750000D01*
X195300000Y-132750000D01*
X195312252Y-132750602D01*
X195312252Y-132750602D01*
G37*
D15*
X194675000Y-133000000D03*
D12*
G36*
X195312252Y-131950602D02*
X195324386Y-131952402D01*
X195336286Y-131955382D01*
X195347835Y-131959515D01*
X195358925Y-131964760D01*
X195369446Y-131971066D01*
X195379299Y-131978374D01*
X195388388Y-131986612D01*
X195396626Y-131995701D01*
X195403934Y-132005554D01*
X195410240Y-132016075D01*
X195415485Y-132027165D01*
X195419618Y-132038714D01*
X195422598Y-132050614D01*
X195424398Y-132062748D01*
X195425000Y-132075000D01*
X195425000Y-132325000D01*
X195424398Y-132337252D01*
X195422598Y-132349386D01*
X195419618Y-132361286D01*
X195415485Y-132372835D01*
X195410240Y-132383925D01*
X195403934Y-132394446D01*
X195396626Y-132404299D01*
X195388388Y-132413388D01*
X195379299Y-132421626D01*
X195369446Y-132428934D01*
X195358925Y-132435240D01*
X195347835Y-132440485D01*
X195336286Y-132444618D01*
X195324386Y-132447598D01*
X195312252Y-132449398D01*
X195300000Y-132450000D01*
X194050000Y-132450000D01*
X194037748Y-132449398D01*
X194025614Y-132447598D01*
X194013714Y-132444618D01*
X194002165Y-132440485D01*
X193991075Y-132435240D01*
X193980554Y-132428934D01*
X193970701Y-132421626D01*
X193961612Y-132413388D01*
X193953374Y-132404299D01*
X193946066Y-132394446D01*
X193939760Y-132383925D01*
X193934515Y-132372835D01*
X193930382Y-132361286D01*
X193927402Y-132349386D01*
X193925602Y-132337252D01*
X193925000Y-132325000D01*
X193925000Y-132075000D01*
X193925602Y-132062748D01*
X193927402Y-132050614D01*
X193930382Y-132038714D01*
X193934515Y-132027165D01*
X193939760Y-132016075D01*
X193946066Y-132005554D01*
X193953374Y-131995701D01*
X193961612Y-131986612D01*
X193970701Y-131978374D01*
X193980554Y-131971066D01*
X193991075Y-131964760D01*
X194002165Y-131959515D01*
X194013714Y-131955382D01*
X194025614Y-131952402D01*
X194037748Y-131950602D01*
X194050000Y-131950000D01*
X195300000Y-131950000D01*
X195312252Y-131950602D01*
X195312252Y-131950602D01*
G37*
D15*
X194675000Y-132200000D03*
D12*
G36*
X195312252Y-131150602D02*
X195324386Y-131152402D01*
X195336286Y-131155382D01*
X195347835Y-131159515D01*
X195358925Y-131164760D01*
X195369446Y-131171066D01*
X195379299Y-131178374D01*
X195388388Y-131186612D01*
X195396626Y-131195701D01*
X195403934Y-131205554D01*
X195410240Y-131216075D01*
X195415485Y-131227165D01*
X195419618Y-131238714D01*
X195422598Y-131250614D01*
X195424398Y-131262748D01*
X195425000Y-131275000D01*
X195425000Y-131525000D01*
X195424398Y-131537252D01*
X195422598Y-131549386D01*
X195419618Y-131561286D01*
X195415485Y-131572835D01*
X195410240Y-131583925D01*
X195403934Y-131594446D01*
X195396626Y-131604299D01*
X195388388Y-131613388D01*
X195379299Y-131621626D01*
X195369446Y-131628934D01*
X195358925Y-131635240D01*
X195347835Y-131640485D01*
X195336286Y-131644618D01*
X195324386Y-131647598D01*
X195312252Y-131649398D01*
X195300000Y-131650000D01*
X194050000Y-131650000D01*
X194037748Y-131649398D01*
X194025614Y-131647598D01*
X194013714Y-131644618D01*
X194002165Y-131640485D01*
X193991075Y-131635240D01*
X193980554Y-131628934D01*
X193970701Y-131621626D01*
X193961612Y-131613388D01*
X193953374Y-131604299D01*
X193946066Y-131594446D01*
X193939760Y-131583925D01*
X193934515Y-131572835D01*
X193930382Y-131561286D01*
X193927402Y-131549386D01*
X193925602Y-131537252D01*
X193925000Y-131525000D01*
X193925000Y-131275000D01*
X193925602Y-131262748D01*
X193927402Y-131250614D01*
X193930382Y-131238714D01*
X193934515Y-131227165D01*
X193939760Y-131216075D01*
X193946066Y-131205554D01*
X193953374Y-131195701D01*
X193961612Y-131186612D01*
X193970701Y-131178374D01*
X193980554Y-131171066D01*
X193991075Y-131164760D01*
X194002165Y-131159515D01*
X194013714Y-131155382D01*
X194025614Y-131152402D01*
X194037748Y-131150602D01*
X194050000Y-131150000D01*
X195300000Y-131150000D01*
X195312252Y-131150602D01*
X195312252Y-131150602D01*
G37*
D15*
X194675000Y-131400000D03*
D12*
G36*
X195312252Y-130350602D02*
X195324386Y-130352402D01*
X195336286Y-130355382D01*
X195347835Y-130359515D01*
X195358925Y-130364760D01*
X195369446Y-130371066D01*
X195379299Y-130378374D01*
X195388388Y-130386612D01*
X195396626Y-130395701D01*
X195403934Y-130405554D01*
X195410240Y-130416075D01*
X195415485Y-130427165D01*
X195419618Y-130438714D01*
X195422598Y-130450614D01*
X195424398Y-130462748D01*
X195425000Y-130475000D01*
X195425000Y-130725000D01*
X195424398Y-130737252D01*
X195422598Y-130749386D01*
X195419618Y-130761286D01*
X195415485Y-130772835D01*
X195410240Y-130783925D01*
X195403934Y-130794446D01*
X195396626Y-130804299D01*
X195388388Y-130813388D01*
X195379299Y-130821626D01*
X195369446Y-130828934D01*
X195358925Y-130835240D01*
X195347835Y-130840485D01*
X195336286Y-130844618D01*
X195324386Y-130847598D01*
X195312252Y-130849398D01*
X195300000Y-130850000D01*
X194050000Y-130850000D01*
X194037748Y-130849398D01*
X194025614Y-130847598D01*
X194013714Y-130844618D01*
X194002165Y-130840485D01*
X193991075Y-130835240D01*
X193980554Y-130828934D01*
X193970701Y-130821626D01*
X193961612Y-130813388D01*
X193953374Y-130804299D01*
X193946066Y-130794446D01*
X193939760Y-130783925D01*
X193934515Y-130772835D01*
X193930382Y-130761286D01*
X193927402Y-130749386D01*
X193925602Y-130737252D01*
X193925000Y-130725000D01*
X193925000Y-130475000D01*
X193925602Y-130462748D01*
X193927402Y-130450614D01*
X193930382Y-130438714D01*
X193934515Y-130427165D01*
X193939760Y-130416075D01*
X193946066Y-130405554D01*
X193953374Y-130395701D01*
X193961612Y-130386612D01*
X193970701Y-130378374D01*
X193980554Y-130371066D01*
X193991075Y-130364760D01*
X194002165Y-130359515D01*
X194013714Y-130355382D01*
X194025614Y-130352402D01*
X194037748Y-130350602D01*
X194050000Y-130350000D01*
X195300000Y-130350000D01*
X195312252Y-130350602D01*
X195312252Y-130350602D01*
G37*
D15*
X194675000Y-130600000D03*
D12*
G36*
X195312252Y-129550602D02*
X195324386Y-129552402D01*
X195336286Y-129555382D01*
X195347835Y-129559515D01*
X195358925Y-129564760D01*
X195369446Y-129571066D01*
X195379299Y-129578374D01*
X195388388Y-129586612D01*
X195396626Y-129595701D01*
X195403934Y-129605554D01*
X195410240Y-129616075D01*
X195415485Y-129627165D01*
X195419618Y-129638714D01*
X195422598Y-129650614D01*
X195424398Y-129662748D01*
X195425000Y-129675000D01*
X195425000Y-129925000D01*
X195424398Y-129937252D01*
X195422598Y-129949386D01*
X195419618Y-129961286D01*
X195415485Y-129972835D01*
X195410240Y-129983925D01*
X195403934Y-129994446D01*
X195396626Y-130004299D01*
X195388388Y-130013388D01*
X195379299Y-130021626D01*
X195369446Y-130028934D01*
X195358925Y-130035240D01*
X195347835Y-130040485D01*
X195336286Y-130044618D01*
X195324386Y-130047598D01*
X195312252Y-130049398D01*
X195300000Y-130050000D01*
X194050000Y-130050000D01*
X194037748Y-130049398D01*
X194025614Y-130047598D01*
X194013714Y-130044618D01*
X194002165Y-130040485D01*
X193991075Y-130035240D01*
X193980554Y-130028934D01*
X193970701Y-130021626D01*
X193961612Y-130013388D01*
X193953374Y-130004299D01*
X193946066Y-129994446D01*
X193939760Y-129983925D01*
X193934515Y-129972835D01*
X193930382Y-129961286D01*
X193927402Y-129949386D01*
X193925602Y-129937252D01*
X193925000Y-129925000D01*
X193925000Y-129675000D01*
X193925602Y-129662748D01*
X193927402Y-129650614D01*
X193930382Y-129638714D01*
X193934515Y-129627165D01*
X193939760Y-129616075D01*
X193946066Y-129605554D01*
X193953374Y-129595701D01*
X193961612Y-129586612D01*
X193970701Y-129578374D01*
X193980554Y-129571066D01*
X193991075Y-129564760D01*
X194002165Y-129559515D01*
X194013714Y-129555382D01*
X194025614Y-129552402D01*
X194037748Y-129550602D01*
X194050000Y-129550000D01*
X195300000Y-129550000D01*
X195312252Y-129550602D01*
X195312252Y-129550602D01*
G37*
D15*
X194675000Y-129800000D03*
D12*
G36*
X195312252Y-128750602D02*
X195324386Y-128752402D01*
X195336286Y-128755382D01*
X195347835Y-128759515D01*
X195358925Y-128764760D01*
X195369446Y-128771066D01*
X195379299Y-128778374D01*
X195388388Y-128786612D01*
X195396626Y-128795701D01*
X195403934Y-128805554D01*
X195410240Y-128816075D01*
X195415485Y-128827165D01*
X195419618Y-128838714D01*
X195422598Y-128850614D01*
X195424398Y-128862748D01*
X195425000Y-128875000D01*
X195425000Y-129125000D01*
X195424398Y-129137252D01*
X195422598Y-129149386D01*
X195419618Y-129161286D01*
X195415485Y-129172835D01*
X195410240Y-129183925D01*
X195403934Y-129194446D01*
X195396626Y-129204299D01*
X195388388Y-129213388D01*
X195379299Y-129221626D01*
X195369446Y-129228934D01*
X195358925Y-129235240D01*
X195347835Y-129240485D01*
X195336286Y-129244618D01*
X195324386Y-129247598D01*
X195312252Y-129249398D01*
X195300000Y-129250000D01*
X194050000Y-129250000D01*
X194037748Y-129249398D01*
X194025614Y-129247598D01*
X194013714Y-129244618D01*
X194002165Y-129240485D01*
X193991075Y-129235240D01*
X193980554Y-129228934D01*
X193970701Y-129221626D01*
X193961612Y-129213388D01*
X193953374Y-129204299D01*
X193946066Y-129194446D01*
X193939760Y-129183925D01*
X193934515Y-129172835D01*
X193930382Y-129161286D01*
X193927402Y-129149386D01*
X193925602Y-129137252D01*
X193925000Y-129125000D01*
X193925000Y-128875000D01*
X193925602Y-128862748D01*
X193927402Y-128850614D01*
X193930382Y-128838714D01*
X193934515Y-128827165D01*
X193939760Y-128816075D01*
X193946066Y-128805554D01*
X193953374Y-128795701D01*
X193961612Y-128786612D01*
X193970701Y-128778374D01*
X193980554Y-128771066D01*
X193991075Y-128764760D01*
X194002165Y-128759515D01*
X194013714Y-128755382D01*
X194025614Y-128752402D01*
X194037748Y-128750602D01*
X194050000Y-128750000D01*
X195300000Y-128750000D01*
X195312252Y-128750602D01*
X195312252Y-128750602D01*
G37*
D15*
X194675000Y-129000000D03*
D12*
G36*
X195312252Y-127950602D02*
X195324386Y-127952402D01*
X195336286Y-127955382D01*
X195347835Y-127959515D01*
X195358925Y-127964760D01*
X195369446Y-127971066D01*
X195379299Y-127978374D01*
X195388388Y-127986612D01*
X195396626Y-127995701D01*
X195403934Y-128005554D01*
X195410240Y-128016075D01*
X195415485Y-128027165D01*
X195419618Y-128038714D01*
X195422598Y-128050614D01*
X195424398Y-128062748D01*
X195425000Y-128075000D01*
X195425000Y-128325000D01*
X195424398Y-128337252D01*
X195422598Y-128349386D01*
X195419618Y-128361286D01*
X195415485Y-128372835D01*
X195410240Y-128383925D01*
X195403934Y-128394446D01*
X195396626Y-128404299D01*
X195388388Y-128413388D01*
X195379299Y-128421626D01*
X195369446Y-128428934D01*
X195358925Y-128435240D01*
X195347835Y-128440485D01*
X195336286Y-128444618D01*
X195324386Y-128447598D01*
X195312252Y-128449398D01*
X195300000Y-128450000D01*
X194050000Y-128450000D01*
X194037748Y-128449398D01*
X194025614Y-128447598D01*
X194013714Y-128444618D01*
X194002165Y-128440485D01*
X193991075Y-128435240D01*
X193980554Y-128428934D01*
X193970701Y-128421626D01*
X193961612Y-128413388D01*
X193953374Y-128404299D01*
X193946066Y-128394446D01*
X193939760Y-128383925D01*
X193934515Y-128372835D01*
X193930382Y-128361286D01*
X193927402Y-128349386D01*
X193925602Y-128337252D01*
X193925000Y-128325000D01*
X193925000Y-128075000D01*
X193925602Y-128062748D01*
X193927402Y-128050614D01*
X193930382Y-128038714D01*
X193934515Y-128027165D01*
X193939760Y-128016075D01*
X193946066Y-128005554D01*
X193953374Y-127995701D01*
X193961612Y-127986612D01*
X193970701Y-127978374D01*
X193980554Y-127971066D01*
X193991075Y-127964760D01*
X194002165Y-127959515D01*
X194013714Y-127955382D01*
X194025614Y-127952402D01*
X194037748Y-127950602D01*
X194050000Y-127950000D01*
X195300000Y-127950000D01*
X195312252Y-127950602D01*
X195312252Y-127950602D01*
G37*
D15*
X194675000Y-128200000D03*
D12*
G36*
X193437252Y-126075602D02*
X193449386Y-126077402D01*
X193461286Y-126080382D01*
X193472835Y-126084515D01*
X193483925Y-126089760D01*
X193494446Y-126096066D01*
X193504299Y-126103374D01*
X193513388Y-126111612D01*
X193521626Y-126120701D01*
X193528934Y-126130554D01*
X193535240Y-126141075D01*
X193540485Y-126152165D01*
X193544618Y-126163714D01*
X193547598Y-126175614D01*
X193549398Y-126187748D01*
X193550000Y-126200000D01*
X193550000Y-127450000D01*
X193549398Y-127462252D01*
X193547598Y-127474386D01*
X193544618Y-127486286D01*
X193540485Y-127497835D01*
X193535240Y-127508925D01*
X193528934Y-127519446D01*
X193521626Y-127529299D01*
X193513388Y-127538388D01*
X193504299Y-127546626D01*
X193494446Y-127553934D01*
X193483925Y-127560240D01*
X193472835Y-127565485D01*
X193461286Y-127569618D01*
X193449386Y-127572598D01*
X193437252Y-127574398D01*
X193425000Y-127575000D01*
X193175000Y-127575000D01*
X193162748Y-127574398D01*
X193150614Y-127572598D01*
X193138714Y-127569618D01*
X193127165Y-127565485D01*
X193116075Y-127560240D01*
X193105554Y-127553934D01*
X193095701Y-127546626D01*
X193086612Y-127538388D01*
X193078374Y-127529299D01*
X193071066Y-127519446D01*
X193064760Y-127508925D01*
X193059515Y-127497835D01*
X193055382Y-127486286D01*
X193052402Y-127474386D01*
X193050602Y-127462252D01*
X193050000Y-127450000D01*
X193050000Y-126200000D01*
X193050602Y-126187748D01*
X193052402Y-126175614D01*
X193055382Y-126163714D01*
X193059515Y-126152165D01*
X193064760Y-126141075D01*
X193071066Y-126130554D01*
X193078374Y-126120701D01*
X193086612Y-126111612D01*
X193095701Y-126103374D01*
X193105554Y-126096066D01*
X193116075Y-126089760D01*
X193127165Y-126084515D01*
X193138714Y-126080382D01*
X193150614Y-126077402D01*
X193162748Y-126075602D01*
X193175000Y-126075000D01*
X193425000Y-126075000D01*
X193437252Y-126075602D01*
X193437252Y-126075602D01*
G37*
D15*
X193300000Y-126825000D03*
D12*
G36*
X192637252Y-126075602D02*
X192649386Y-126077402D01*
X192661286Y-126080382D01*
X192672835Y-126084515D01*
X192683925Y-126089760D01*
X192694446Y-126096066D01*
X192704299Y-126103374D01*
X192713388Y-126111612D01*
X192721626Y-126120701D01*
X192728934Y-126130554D01*
X192735240Y-126141075D01*
X192740485Y-126152165D01*
X192744618Y-126163714D01*
X192747598Y-126175614D01*
X192749398Y-126187748D01*
X192750000Y-126200000D01*
X192750000Y-127450000D01*
X192749398Y-127462252D01*
X192747598Y-127474386D01*
X192744618Y-127486286D01*
X192740485Y-127497835D01*
X192735240Y-127508925D01*
X192728934Y-127519446D01*
X192721626Y-127529299D01*
X192713388Y-127538388D01*
X192704299Y-127546626D01*
X192694446Y-127553934D01*
X192683925Y-127560240D01*
X192672835Y-127565485D01*
X192661286Y-127569618D01*
X192649386Y-127572598D01*
X192637252Y-127574398D01*
X192625000Y-127575000D01*
X192375000Y-127575000D01*
X192362748Y-127574398D01*
X192350614Y-127572598D01*
X192338714Y-127569618D01*
X192327165Y-127565485D01*
X192316075Y-127560240D01*
X192305554Y-127553934D01*
X192295701Y-127546626D01*
X192286612Y-127538388D01*
X192278374Y-127529299D01*
X192271066Y-127519446D01*
X192264760Y-127508925D01*
X192259515Y-127497835D01*
X192255382Y-127486286D01*
X192252402Y-127474386D01*
X192250602Y-127462252D01*
X192250000Y-127450000D01*
X192250000Y-126200000D01*
X192250602Y-126187748D01*
X192252402Y-126175614D01*
X192255382Y-126163714D01*
X192259515Y-126152165D01*
X192264760Y-126141075D01*
X192271066Y-126130554D01*
X192278374Y-126120701D01*
X192286612Y-126111612D01*
X192295701Y-126103374D01*
X192305554Y-126096066D01*
X192316075Y-126089760D01*
X192327165Y-126084515D01*
X192338714Y-126080382D01*
X192350614Y-126077402D01*
X192362748Y-126075602D01*
X192375000Y-126075000D01*
X192625000Y-126075000D01*
X192637252Y-126075602D01*
X192637252Y-126075602D01*
G37*
D15*
X192500000Y-126825000D03*
D12*
G36*
X191837252Y-126075602D02*
X191849386Y-126077402D01*
X191861286Y-126080382D01*
X191872835Y-126084515D01*
X191883925Y-126089760D01*
X191894446Y-126096066D01*
X191904299Y-126103374D01*
X191913388Y-126111612D01*
X191921626Y-126120701D01*
X191928934Y-126130554D01*
X191935240Y-126141075D01*
X191940485Y-126152165D01*
X191944618Y-126163714D01*
X191947598Y-126175614D01*
X191949398Y-126187748D01*
X191950000Y-126200000D01*
X191950000Y-127450000D01*
X191949398Y-127462252D01*
X191947598Y-127474386D01*
X191944618Y-127486286D01*
X191940485Y-127497835D01*
X191935240Y-127508925D01*
X191928934Y-127519446D01*
X191921626Y-127529299D01*
X191913388Y-127538388D01*
X191904299Y-127546626D01*
X191894446Y-127553934D01*
X191883925Y-127560240D01*
X191872835Y-127565485D01*
X191861286Y-127569618D01*
X191849386Y-127572598D01*
X191837252Y-127574398D01*
X191825000Y-127575000D01*
X191575000Y-127575000D01*
X191562748Y-127574398D01*
X191550614Y-127572598D01*
X191538714Y-127569618D01*
X191527165Y-127565485D01*
X191516075Y-127560240D01*
X191505554Y-127553934D01*
X191495701Y-127546626D01*
X191486612Y-127538388D01*
X191478374Y-127529299D01*
X191471066Y-127519446D01*
X191464760Y-127508925D01*
X191459515Y-127497835D01*
X191455382Y-127486286D01*
X191452402Y-127474386D01*
X191450602Y-127462252D01*
X191450000Y-127450000D01*
X191450000Y-126200000D01*
X191450602Y-126187748D01*
X191452402Y-126175614D01*
X191455382Y-126163714D01*
X191459515Y-126152165D01*
X191464760Y-126141075D01*
X191471066Y-126130554D01*
X191478374Y-126120701D01*
X191486612Y-126111612D01*
X191495701Y-126103374D01*
X191505554Y-126096066D01*
X191516075Y-126089760D01*
X191527165Y-126084515D01*
X191538714Y-126080382D01*
X191550614Y-126077402D01*
X191562748Y-126075602D01*
X191575000Y-126075000D01*
X191825000Y-126075000D01*
X191837252Y-126075602D01*
X191837252Y-126075602D01*
G37*
D15*
X191700000Y-126825000D03*
D12*
G36*
X191037252Y-126075602D02*
X191049386Y-126077402D01*
X191061286Y-126080382D01*
X191072835Y-126084515D01*
X191083925Y-126089760D01*
X191094446Y-126096066D01*
X191104299Y-126103374D01*
X191113388Y-126111612D01*
X191121626Y-126120701D01*
X191128934Y-126130554D01*
X191135240Y-126141075D01*
X191140485Y-126152165D01*
X191144618Y-126163714D01*
X191147598Y-126175614D01*
X191149398Y-126187748D01*
X191150000Y-126200000D01*
X191150000Y-127450000D01*
X191149398Y-127462252D01*
X191147598Y-127474386D01*
X191144618Y-127486286D01*
X191140485Y-127497835D01*
X191135240Y-127508925D01*
X191128934Y-127519446D01*
X191121626Y-127529299D01*
X191113388Y-127538388D01*
X191104299Y-127546626D01*
X191094446Y-127553934D01*
X191083925Y-127560240D01*
X191072835Y-127565485D01*
X191061286Y-127569618D01*
X191049386Y-127572598D01*
X191037252Y-127574398D01*
X191025000Y-127575000D01*
X190775000Y-127575000D01*
X190762748Y-127574398D01*
X190750614Y-127572598D01*
X190738714Y-127569618D01*
X190727165Y-127565485D01*
X190716075Y-127560240D01*
X190705554Y-127553934D01*
X190695701Y-127546626D01*
X190686612Y-127538388D01*
X190678374Y-127529299D01*
X190671066Y-127519446D01*
X190664760Y-127508925D01*
X190659515Y-127497835D01*
X190655382Y-127486286D01*
X190652402Y-127474386D01*
X190650602Y-127462252D01*
X190650000Y-127450000D01*
X190650000Y-126200000D01*
X190650602Y-126187748D01*
X190652402Y-126175614D01*
X190655382Y-126163714D01*
X190659515Y-126152165D01*
X190664760Y-126141075D01*
X190671066Y-126130554D01*
X190678374Y-126120701D01*
X190686612Y-126111612D01*
X190695701Y-126103374D01*
X190705554Y-126096066D01*
X190716075Y-126089760D01*
X190727165Y-126084515D01*
X190738714Y-126080382D01*
X190750614Y-126077402D01*
X190762748Y-126075602D01*
X190775000Y-126075000D01*
X191025000Y-126075000D01*
X191037252Y-126075602D01*
X191037252Y-126075602D01*
G37*
D15*
X190900000Y-126825000D03*
D12*
G36*
X190237252Y-126075602D02*
X190249386Y-126077402D01*
X190261286Y-126080382D01*
X190272835Y-126084515D01*
X190283925Y-126089760D01*
X190294446Y-126096066D01*
X190304299Y-126103374D01*
X190313388Y-126111612D01*
X190321626Y-126120701D01*
X190328934Y-126130554D01*
X190335240Y-126141075D01*
X190340485Y-126152165D01*
X190344618Y-126163714D01*
X190347598Y-126175614D01*
X190349398Y-126187748D01*
X190350000Y-126200000D01*
X190350000Y-127450000D01*
X190349398Y-127462252D01*
X190347598Y-127474386D01*
X190344618Y-127486286D01*
X190340485Y-127497835D01*
X190335240Y-127508925D01*
X190328934Y-127519446D01*
X190321626Y-127529299D01*
X190313388Y-127538388D01*
X190304299Y-127546626D01*
X190294446Y-127553934D01*
X190283925Y-127560240D01*
X190272835Y-127565485D01*
X190261286Y-127569618D01*
X190249386Y-127572598D01*
X190237252Y-127574398D01*
X190225000Y-127575000D01*
X189975000Y-127575000D01*
X189962748Y-127574398D01*
X189950614Y-127572598D01*
X189938714Y-127569618D01*
X189927165Y-127565485D01*
X189916075Y-127560240D01*
X189905554Y-127553934D01*
X189895701Y-127546626D01*
X189886612Y-127538388D01*
X189878374Y-127529299D01*
X189871066Y-127519446D01*
X189864760Y-127508925D01*
X189859515Y-127497835D01*
X189855382Y-127486286D01*
X189852402Y-127474386D01*
X189850602Y-127462252D01*
X189850000Y-127450000D01*
X189850000Y-126200000D01*
X189850602Y-126187748D01*
X189852402Y-126175614D01*
X189855382Y-126163714D01*
X189859515Y-126152165D01*
X189864760Y-126141075D01*
X189871066Y-126130554D01*
X189878374Y-126120701D01*
X189886612Y-126111612D01*
X189895701Y-126103374D01*
X189905554Y-126096066D01*
X189916075Y-126089760D01*
X189927165Y-126084515D01*
X189938714Y-126080382D01*
X189950614Y-126077402D01*
X189962748Y-126075602D01*
X189975000Y-126075000D01*
X190225000Y-126075000D01*
X190237252Y-126075602D01*
X190237252Y-126075602D01*
G37*
D15*
X190100000Y-126825000D03*
D12*
G36*
X189437252Y-126075602D02*
X189449386Y-126077402D01*
X189461286Y-126080382D01*
X189472835Y-126084515D01*
X189483925Y-126089760D01*
X189494446Y-126096066D01*
X189504299Y-126103374D01*
X189513388Y-126111612D01*
X189521626Y-126120701D01*
X189528934Y-126130554D01*
X189535240Y-126141075D01*
X189540485Y-126152165D01*
X189544618Y-126163714D01*
X189547598Y-126175614D01*
X189549398Y-126187748D01*
X189550000Y-126200000D01*
X189550000Y-127450000D01*
X189549398Y-127462252D01*
X189547598Y-127474386D01*
X189544618Y-127486286D01*
X189540485Y-127497835D01*
X189535240Y-127508925D01*
X189528934Y-127519446D01*
X189521626Y-127529299D01*
X189513388Y-127538388D01*
X189504299Y-127546626D01*
X189494446Y-127553934D01*
X189483925Y-127560240D01*
X189472835Y-127565485D01*
X189461286Y-127569618D01*
X189449386Y-127572598D01*
X189437252Y-127574398D01*
X189425000Y-127575000D01*
X189175000Y-127575000D01*
X189162748Y-127574398D01*
X189150614Y-127572598D01*
X189138714Y-127569618D01*
X189127165Y-127565485D01*
X189116075Y-127560240D01*
X189105554Y-127553934D01*
X189095701Y-127546626D01*
X189086612Y-127538388D01*
X189078374Y-127529299D01*
X189071066Y-127519446D01*
X189064760Y-127508925D01*
X189059515Y-127497835D01*
X189055382Y-127486286D01*
X189052402Y-127474386D01*
X189050602Y-127462252D01*
X189050000Y-127450000D01*
X189050000Y-126200000D01*
X189050602Y-126187748D01*
X189052402Y-126175614D01*
X189055382Y-126163714D01*
X189059515Y-126152165D01*
X189064760Y-126141075D01*
X189071066Y-126130554D01*
X189078374Y-126120701D01*
X189086612Y-126111612D01*
X189095701Y-126103374D01*
X189105554Y-126096066D01*
X189116075Y-126089760D01*
X189127165Y-126084515D01*
X189138714Y-126080382D01*
X189150614Y-126077402D01*
X189162748Y-126075602D01*
X189175000Y-126075000D01*
X189425000Y-126075000D01*
X189437252Y-126075602D01*
X189437252Y-126075602D01*
G37*
D15*
X189300000Y-126825000D03*
D12*
G36*
X188637252Y-126075602D02*
X188649386Y-126077402D01*
X188661286Y-126080382D01*
X188672835Y-126084515D01*
X188683925Y-126089760D01*
X188694446Y-126096066D01*
X188704299Y-126103374D01*
X188713388Y-126111612D01*
X188721626Y-126120701D01*
X188728934Y-126130554D01*
X188735240Y-126141075D01*
X188740485Y-126152165D01*
X188744618Y-126163714D01*
X188747598Y-126175614D01*
X188749398Y-126187748D01*
X188750000Y-126200000D01*
X188750000Y-127450000D01*
X188749398Y-127462252D01*
X188747598Y-127474386D01*
X188744618Y-127486286D01*
X188740485Y-127497835D01*
X188735240Y-127508925D01*
X188728934Y-127519446D01*
X188721626Y-127529299D01*
X188713388Y-127538388D01*
X188704299Y-127546626D01*
X188694446Y-127553934D01*
X188683925Y-127560240D01*
X188672835Y-127565485D01*
X188661286Y-127569618D01*
X188649386Y-127572598D01*
X188637252Y-127574398D01*
X188625000Y-127575000D01*
X188375000Y-127575000D01*
X188362748Y-127574398D01*
X188350614Y-127572598D01*
X188338714Y-127569618D01*
X188327165Y-127565485D01*
X188316075Y-127560240D01*
X188305554Y-127553934D01*
X188295701Y-127546626D01*
X188286612Y-127538388D01*
X188278374Y-127529299D01*
X188271066Y-127519446D01*
X188264760Y-127508925D01*
X188259515Y-127497835D01*
X188255382Y-127486286D01*
X188252402Y-127474386D01*
X188250602Y-127462252D01*
X188250000Y-127450000D01*
X188250000Y-126200000D01*
X188250602Y-126187748D01*
X188252402Y-126175614D01*
X188255382Y-126163714D01*
X188259515Y-126152165D01*
X188264760Y-126141075D01*
X188271066Y-126130554D01*
X188278374Y-126120701D01*
X188286612Y-126111612D01*
X188295701Y-126103374D01*
X188305554Y-126096066D01*
X188316075Y-126089760D01*
X188327165Y-126084515D01*
X188338714Y-126080382D01*
X188350614Y-126077402D01*
X188362748Y-126075602D01*
X188375000Y-126075000D01*
X188625000Y-126075000D01*
X188637252Y-126075602D01*
X188637252Y-126075602D01*
G37*
D15*
X188500000Y-126825000D03*
D12*
G36*
X187837252Y-126075602D02*
X187849386Y-126077402D01*
X187861286Y-126080382D01*
X187872835Y-126084515D01*
X187883925Y-126089760D01*
X187894446Y-126096066D01*
X187904299Y-126103374D01*
X187913388Y-126111612D01*
X187921626Y-126120701D01*
X187928934Y-126130554D01*
X187935240Y-126141075D01*
X187940485Y-126152165D01*
X187944618Y-126163714D01*
X187947598Y-126175614D01*
X187949398Y-126187748D01*
X187950000Y-126200000D01*
X187950000Y-127450000D01*
X187949398Y-127462252D01*
X187947598Y-127474386D01*
X187944618Y-127486286D01*
X187940485Y-127497835D01*
X187935240Y-127508925D01*
X187928934Y-127519446D01*
X187921626Y-127529299D01*
X187913388Y-127538388D01*
X187904299Y-127546626D01*
X187894446Y-127553934D01*
X187883925Y-127560240D01*
X187872835Y-127565485D01*
X187861286Y-127569618D01*
X187849386Y-127572598D01*
X187837252Y-127574398D01*
X187825000Y-127575000D01*
X187575000Y-127575000D01*
X187562748Y-127574398D01*
X187550614Y-127572598D01*
X187538714Y-127569618D01*
X187527165Y-127565485D01*
X187516075Y-127560240D01*
X187505554Y-127553934D01*
X187495701Y-127546626D01*
X187486612Y-127538388D01*
X187478374Y-127529299D01*
X187471066Y-127519446D01*
X187464760Y-127508925D01*
X187459515Y-127497835D01*
X187455382Y-127486286D01*
X187452402Y-127474386D01*
X187450602Y-127462252D01*
X187450000Y-127450000D01*
X187450000Y-126200000D01*
X187450602Y-126187748D01*
X187452402Y-126175614D01*
X187455382Y-126163714D01*
X187459515Y-126152165D01*
X187464760Y-126141075D01*
X187471066Y-126130554D01*
X187478374Y-126120701D01*
X187486612Y-126111612D01*
X187495701Y-126103374D01*
X187505554Y-126096066D01*
X187516075Y-126089760D01*
X187527165Y-126084515D01*
X187538714Y-126080382D01*
X187550614Y-126077402D01*
X187562748Y-126075602D01*
X187575000Y-126075000D01*
X187825000Y-126075000D01*
X187837252Y-126075602D01*
X187837252Y-126075602D01*
G37*
D15*
X187700000Y-126825000D03*
G04 #@! TD*
D10*
G04 #@! TO.C,Q2*
X189000000Y-144950000D03*
X189000000Y-143050000D03*
X191000000Y-144000000D03*
G04 #@! TD*
D16*
G04 #@! TO.C,U2*
X182750000Y-138750000D03*
D17*
X182850000Y-140250000D03*
D16*
X182750000Y-141750000D03*
D18*
X185250000Y-140250000D03*
G04 #@! TD*
M02*
