M48
;DRILL file {KiCad 5.0.2-bee76a0~70~ubuntu18.04.1} date Fri 19 Jul 2019 10:46:58 CEST
;FORMAT={-:-/ absolute / metric / decimal}
FMAT,2
METRIC,TZ
T1C0.500
T2C3.200
%
G90
G05
T1
X180.Y-135.
X202.Y-133.
X202.Y-134.
X202.Y-135.
X202.Y-136.
X202.Y-137.
X189.Y-120.
X190.Y-120.
X191.Y-120.
X192.Y-120.
X193.Y-120.
X189.Y-150.
X190.Y-150.
X191.Y-150.
X192.Y-150.
X193.Y-150.
X180.Y-133.
X180.Y-134.
X180.Y-136.
X180.Y-137.
T2
X196.Y-147.
X183.Y-123.
T0
M30
