G04 #@! TF.GenerationSoftware,KiCad,Pcbnew,5.0.2+dfsg1-1*
G04 #@! TF.CreationDate,2019-07-19T17:38:54+02:00*
G04 #@! TF.ProjectId,AutoGardener_Outdoor,4175746f-4761-4726-9465-6e65725f4f75,rev?*
G04 #@! TF.SameCoordinates,Original*
G04 #@! TF.FileFunction,Legend,Bot*
G04 #@! TF.FilePolarity,Positive*
%FSLAX46Y46*%
G04 Gerber Fmt 4.6, Leading zero omitted, Abs format (unit mm)*
G04 Created by KiCad (PCBNEW 5.0.2+dfsg1-1) date Pá 19. července 2019, 17:38:54 CEST*
%MOMM*%
%LPD*%
G01*
G04 APERTURE LIST*
%ADD10C,0.150000*%
%ADD11C,0.300000*%
%ADD12C,0.010000*%
G04 APERTURE END LIST*
D10*
X184738095Y-136452380D02*
X184738095Y-135785714D01*
X184738095Y-135976190D02*
X184690476Y-135880952D01*
X184642857Y-135833333D01*
X184547619Y-135785714D01*
X184452380Y-135785714D01*
X183738095Y-136404761D02*
X183833333Y-136452380D01*
X184023809Y-136452380D01*
X184119047Y-136404761D01*
X184166666Y-136309523D01*
X184166666Y-135928571D01*
X184119047Y-135833333D01*
X184023809Y-135785714D01*
X183833333Y-135785714D01*
X183738095Y-135833333D01*
X183690476Y-135928571D01*
X183690476Y-136023809D01*
X184166666Y-136119047D01*
X183357142Y-135785714D02*
X183119047Y-136452380D01*
X182880952Y-135785714D01*
X181214285Y-136452380D02*
X181785714Y-136452380D01*
X181500000Y-136452380D02*
X181500000Y-135452380D01*
X181595238Y-135595238D01*
X181690476Y-135690476D01*
X181785714Y-135738095D01*
D11*
X198857142Y-134678571D02*
X198857142Y-133178571D01*
X198357142Y-134250000D01*
X197857142Y-133178571D01*
X197857142Y-134678571D01*
X197142857Y-134678571D02*
X197142857Y-133678571D01*
X197142857Y-133964285D02*
X197071428Y-133821428D01*
X197000000Y-133750000D01*
X196857142Y-133678571D01*
X196714285Y-133678571D01*
X196214285Y-134535714D02*
X196142857Y-134607142D01*
X196214285Y-134678571D01*
X196285714Y-134607142D01*
X196214285Y-134535714D01*
X196214285Y-134678571D01*
X193571428Y-133250000D02*
X193714285Y-133178571D01*
X193928571Y-133178571D01*
X194142857Y-133250000D01*
X194285714Y-133392857D01*
X194357142Y-133535714D01*
X194428571Y-133821428D01*
X194428571Y-134035714D01*
X194357142Y-134321428D01*
X194285714Y-134464285D01*
X194142857Y-134607142D01*
X193928571Y-134678571D01*
X193785714Y-134678571D01*
X193571428Y-134607142D01*
X193500000Y-134535714D01*
X193500000Y-134035714D01*
X193785714Y-134035714D01*
X192214285Y-134678571D02*
X192214285Y-133892857D01*
X192285714Y-133750000D01*
X192428571Y-133678571D01*
X192714285Y-133678571D01*
X192857142Y-133750000D01*
X192214285Y-134607142D02*
X192357142Y-134678571D01*
X192714285Y-134678571D01*
X192857142Y-134607142D01*
X192928571Y-134464285D01*
X192928571Y-134321428D01*
X192857142Y-134178571D01*
X192714285Y-134107142D01*
X192357142Y-134107142D01*
X192214285Y-134035714D01*
X191500000Y-134678571D02*
X191500000Y-133678571D01*
X191500000Y-133964285D02*
X191428571Y-133821428D01*
X191357142Y-133750000D01*
X191214285Y-133678571D01*
X191071428Y-133678571D01*
X189928571Y-134678571D02*
X189928571Y-133178571D01*
X189928571Y-134607142D02*
X190071428Y-134678571D01*
X190357142Y-134678571D01*
X190500000Y-134607142D01*
X190571428Y-134535714D01*
X190642857Y-134392857D01*
X190642857Y-133964285D01*
X190571428Y-133821428D01*
X190500000Y-133750000D01*
X190357142Y-133678571D01*
X190071428Y-133678571D01*
X189928571Y-133750000D01*
X188642857Y-134607142D02*
X188785714Y-134678571D01*
X189071428Y-134678571D01*
X189214285Y-134607142D01*
X189285714Y-134464285D01*
X189285714Y-133892857D01*
X189214285Y-133750000D01*
X189071428Y-133678571D01*
X188785714Y-133678571D01*
X188642857Y-133750000D01*
X188571428Y-133892857D01*
X188571428Y-134035714D01*
X189285714Y-134178571D01*
X187928571Y-133678571D02*
X187928571Y-134678571D01*
X187928571Y-133821428D02*
X187857142Y-133750000D01*
X187714285Y-133678571D01*
X187500000Y-133678571D01*
X187357142Y-133750000D01*
X187285714Y-133892857D01*
X187285714Y-134678571D01*
X186000000Y-134607142D02*
X186142857Y-134678571D01*
X186428571Y-134678571D01*
X186571428Y-134607142D01*
X186642857Y-134464285D01*
X186642857Y-133892857D01*
X186571428Y-133750000D01*
X186428571Y-133678571D01*
X186142857Y-133678571D01*
X186000000Y-133750000D01*
X185928571Y-133892857D01*
X185928571Y-134035714D01*
X186642857Y-134178571D01*
X185285714Y-134678571D02*
X185285714Y-133678571D01*
X185285714Y-133964285D02*
X185214285Y-133821428D01*
X185142857Y-133750000D01*
X185000000Y-133678571D01*
X184857142Y-133678571D01*
X182785714Y-133178571D02*
X182785714Y-134250000D01*
X182857142Y-134464285D01*
X183000000Y-134607142D01*
X183214285Y-134678571D01*
X183357142Y-134678571D01*
X182071428Y-134678571D02*
X182071428Y-133678571D01*
X182071428Y-133964285D02*
X182000000Y-133821428D01*
X181928571Y-133750000D01*
X181785714Y-133678571D01*
X181642857Y-133678571D01*
X181142857Y-134535714D02*
X181071428Y-134607142D01*
X181142857Y-134678571D01*
X181214285Y-134607142D01*
X181142857Y-134535714D01*
X181142857Y-134678571D01*
D10*
X191233333Y-120116666D02*
X191000000Y-120816666D01*
X190766666Y-120116666D01*
X188666666Y-120616666D02*
X188333333Y-120616666D01*
X188733333Y-120816666D02*
X188500000Y-120116666D01*
X188266666Y-120816666D01*
X193316666Y-120150000D02*
X193383333Y-120116666D01*
X193483333Y-120116666D01*
X193583333Y-120150000D01*
X193650000Y-120216666D01*
X193683333Y-120283333D01*
X193716666Y-120416666D01*
X193716666Y-120516666D01*
X193683333Y-120650000D01*
X193650000Y-120716666D01*
X193583333Y-120783333D01*
X193483333Y-120816666D01*
X193416666Y-120816666D01*
X193316666Y-120783333D01*
X193283333Y-120750000D01*
X193283333Y-120516666D01*
X193416666Y-120516666D01*
X194450000Y-123983333D02*
X194350000Y-124016666D01*
X194183333Y-124016666D01*
X194116666Y-123983333D01*
X194083333Y-123950000D01*
X194050000Y-123883333D01*
X194050000Y-123816666D01*
X194083333Y-123750000D01*
X194116666Y-123716666D01*
X194183333Y-123683333D01*
X194316666Y-123650000D01*
X194383333Y-123616666D01*
X194416666Y-123583333D01*
X194450000Y-123516666D01*
X194450000Y-123450000D01*
X194416666Y-123383333D01*
X194383333Y-123350000D01*
X194316666Y-123316666D01*
X194150000Y-123316666D01*
X194050000Y-123350000D01*
X193616666Y-123316666D02*
X193483333Y-123316666D01*
X193416666Y-123350000D01*
X193350000Y-123416666D01*
X193316666Y-123550000D01*
X193316666Y-123783333D01*
X193350000Y-123916666D01*
X193416666Y-123983333D01*
X193483333Y-124016666D01*
X193616666Y-124016666D01*
X193683333Y-123983333D01*
X193750000Y-123916666D01*
X193783333Y-123783333D01*
X193783333Y-123550000D01*
X193750000Y-123416666D01*
X193683333Y-123350000D01*
X193616666Y-123316666D01*
X193016666Y-124016666D02*
X193016666Y-123316666D01*
X192350000Y-124016666D02*
X192683333Y-124016666D01*
X192683333Y-123316666D01*
X191616666Y-123983333D02*
X191516666Y-124016666D01*
X191350000Y-124016666D01*
X191283333Y-123983333D01*
X191250000Y-123950000D01*
X191216666Y-123883333D01*
X191216666Y-123816666D01*
X191250000Y-123750000D01*
X191283333Y-123716666D01*
X191350000Y-123683333D01*
X191483333Y-123650000D01*
X191550000Y-123616666D01*
X191583333Y-123583333D01*
X191616666Y-123516666D01*
X191616666Y-123450000D01*
X191583333Y-123383333D01*
X191550000Y-123350000D01*
X191483333Y-123316666D01*
X191316666Y-123316666D01*
X191216666Y-123350000D01*
X190916666Y-123650000D02*
X190683333Y-123650000D01*
X190583333Y-124016666D02*
X190916666Y-124016666D01*
X190916666Y-123316666D01*
X190583333Y-123316666D01*
X190283333Y-124016666D02*
X190283333Y-123316666D01*
X189883333Y-124016666D01*
X189883333Y-123316666D01*
X189583333Y-123983333D02*
X189483333Y-124016666D01*
X189316666Y-124016666D01*
X189250000Y-123983333D01*
X189216666Y-123950000D01*
X189183333Y-123883333D01*
X189183333Y-123816666D01*
X189216666Y-123750000D01*
X189250000Y-123716666D01*
X189316666Y-123683333D01*
X189450000Y-123650000D01*
X189516666Y-123616666D01*
X189550000Y-123583333D01*
X189583333Y-123516666D01*
X189583333Y-123450000D01*
X189550000Y-123383333D01*
X189516666Y-123350000D01*
X189450000Y-123316666D01*
X189283333Y-123316666D01*
X189183333Y-123350000D01*
X188750000Y-123316666D02*
X188616666Y-123316666D01*
X188550000Y-123350000D01*
X188483333Y-123416666D01*
X188450000Y-123550000D01*
X188450000Y-123783333D01*
X188483333Y-123916666D01*
X188550000Y-123983333D01*
X188616666Y-124016666D01*
X188750000Y-124016666D01*
X188816666Y-123983333D01*
X188883333Y-123916666D01*
X188916666Y-123783333D01*
X188916666Y-123550000D01*
X188883333Y-123416666D01*
X188816666Y-123350000D01*
X188750000Y-123316666D01*
X187750000Y-124016666D02*
X187983333Y-123683333D01*
X188150000Y-124016666D02*
X188150000Y-123316666D01*
X187883333Y-123316666D01*
X187816666Y-123350000D01*
X187783333Y-123383333D01*
X187750000Y-123450000D01*
X187750000Y-123550000D01*
X187783333Y-123616666D01*
X187816666Y-123650000D01*
X187883333Y-123683333D01*
X188150000Y-123683333D01*
X200966666Y-126583333D02*
X200866666Y-126616666D01*
X200700000Y-126616666D01*
X200633333Y-126583333D01*
X200600000Y-126550000D01*
X200566666Y-126483333D01*
X200566666Y-126416666D01*
X200600000Y-126350000D01*
X200633333Y-126316666D01*
X200700000Y-126283333D01*
X200833333Y-126250000D01*
X200900000Y-126216666D01*
X200933333Y-126183333D01*
X200966666Y-126116666D01*
X200966666Y-126050000D01*
X200933333Y-125983333D01*
X200900000Y-125950000D01*
X200833333Y-125916666D01*
X200666666Y-125916666D01*
X200566666Y-125950000D01*
X200333333Y-125916666D02*
X200166666Y-126616666D01*
X200033333Y-126116666D01*
X199900000Y-126616666D01*
X199733333Y-125916666D01*
X199333333Y-125916666D02*
X199200000Y-125916666D01*
X199133333Y-125950000D01*
X199066666Y-126016666D01*
X199033333Y-126150000D01*
X199033333Y-126383333D01*
X199066666Y-126516666D01*
X199133333Y-126583333D01*
X199200000Y-126616666D01*
X199333333Y-126616666D01*
X199400000Y-126583333D01*
X199466666Y-126516666D01*
X199500000Y-126383333D01*
X199500000Y-126150000D01*
X199466666Y-126016666D01*
X199400000Y-125950000D01*
X199333333Y-125916666D01*
X201116666Y-140816666D02*
X201116666Y-141383333D01*
X201083333Y-141450000D01*
X201050000Y-141483333D01*
X200983333Y-141516666D01*
X200850000Y-141516666D01*
X200783333Y-141483333D01*
X200750000Y-141450000D01*
X200716666Y-141383333D01*
X200716666Y-140816666D01*
X200416666Y-141316666D02*
X200083333Y-141316666D01*
X200483333Y-141516666D02*
X200250000Y-140816666D01*
X200016666Y-141516666D01*
X199383333Y-141516666D02*
X199616666Y-141183333D01*
X199783333Y-141516666D02*
X199783333Y-140816666D01*
X199516666Y-140816666D01*
X199450000Y-140850000D01*
X199416666Y-140883333D01*
X199383333Y-140950000D01*
X199383333Y-141050000D01*
X199416666Y-141116666D01*
X199450000Y-141150000D01*
X199516666Y-141183333D01*
X199783333Y-141183333D01*
X199183333Y-140816666D02*
X198783333Y-140816666D01*
X198983333Y-141516666D02*
X198983333Y-140816666D01*
X191433333Y-144816666D02*
X191200000Y-145516666D01*
X190966666Y-144816666D01*
X190766666Y-145316666D02*
X190433333Y-145316666D01*
X190833333Y-145516666D02*
X190600000Y-144816666D01*
X190366666Y-145516666D01*
X189800000Y-145516666D02*
X190133333Y-145516666D01*
X190133333Y-144816666D01*
X189666666Y-144816666D02*
X189433333Y-145516666D01*
X189200000Y-144816666D01*
X188966666Y-145150000D02*
X188733333Y-145150000D01*
X188633333Y-145516666D02*
X188966666Y-145516666D01*
X188966666Y-144816666D01*
X188633333Y-144816666D01*
D11*
X184707142Y-144192857D02*
X184492857Y-144264285D01*
X184421428Y-144335714D01*
X184350000Y-144478571D01*
X184350000Y-144692857D01*
X184421428Y-144835714D01*
X184492857Y-144907142D01*
X184635714Y-144978571D01*
X185207142Y-144978571D01*
X185207142Y-143478571D01*
X184707142Y-143478571D01*
X184564285Y-143550000D01*
X184492857Y-143621428D01*
X184421428Y-143764285D01*
X184421428Y-143907142D01*
X184492857Y-144050000D01*
X184564285Y-144121428D01*
X184707142Y-144192857D01*
X185207142Y-144192857D01*
X183778571Y-144550000D02*
X183064285Y-144550000D01*
X183921428Y-144978571D02*
X183421428Y-143478571D01*
X182921428Y-144978571D01*
X182635714Y-143478571D02*
X181778571Y-143478571D01*
X182207142Y-144978571D02*
X182207142Y-143478571D01*
D10*
X191033333Y-146150000D02*
X191566666Y-146150000D01*
X188533333Y-146150000D02*
X189066666Y-146150000D01*
X188800000Y-145883333D02*
X188800000Y-146416666D01*
X198016666Y-143116666D02*
X198250000Y-142783333D01*
X198416666Y-143116666D02*
X198416666Y-142416666D01*
X198150000Y-142416666D01*
X198083333Y-142450000D01*
X198050000Y-142483333D01*
X198016666Y-142550000D01*
X198016666Y-142650000D01*
X198050000Y-142716666D01*
X198083333Y-142750000D01*
X198150000Y-142783333D01*
X198416666Y-142783333D01*
X197783333Y-142416666D02*
X197316666Y-143116666D01*
X197316666Y-142416666D02*
X197783333Y-143116666D01*
X198433333Y-143616666D02*
X198033333Y-143616666D01*
X198233333Y-144316666D02*
X198233333Y-143616666D01*
X197866666Y-143616666D02*
X197400000Y-144316666D01*
X197400000Y-143616666D02*
X197866666Y-144316666D01*
X198433333Y-144850000D02*
X198500000Y-144816666D01*
X198600000Y-144816666D01*
X198700000Y-144850000D01*
X198766666Y-144916666D01*
X198800000Y-144983333D01*
X198833333Y-145116666D01*
X198833333Y-145216666D01*
X198800000Y-145350000D01*
X198766666Y-145416666D01*
X198700000Y-145483333D01*
X198600000Y-145516666D01*
X198533333Y-145516666D01*
X198433333Y-145483333D01*
X198400000Y-145450000D01*
X198400000Y-145216666D01*
X198533333Y-145216666D01*
X198100000Y-145516666D02*
X198100000Y-144816666D01*
X197700000Y-145516666D01*
X197700000Y-144816666D01*
X197366666Y-145516666D02*
X197366666Y-144816666D01*
X197200000Y-144816666D01*
X197100000Y-144850000D01*
X197033333Y-144916666D01*
X197000000Y-144983333D01*
X196966666Y-145116666D01*
X196966666Y-145216666D01*
X197000000Y-145350000D01*
X197033333Y-145416666D01*
X197100000Y-145483333D01*
X197200000Y-145516666D01*
X197366666Y-145516666D01*
D11*
X183071428Y-146107142D02*
X181928571Y-146107142D01*
X185571428Y-146107142D02*
X184428571Y-146107142D01*
X185000000Y-146678571D02*
X185000000Y-145535714D01*
D12*
G04 #@! TO.C,H111*
G36*
X194704742Y-135017220D02*
X194594383Y-135029149D01*
X194504947Y-135050620D01*
X194427874Y-135081820D01*
X194420471Y-135085506D01*
X194272479Y-135184461D01*
X194169217Y-135313409D01*
X194105313Y-135481687D01*
X194076366Y-135683544D01*
X194062875Y-135819561D01*
X194045008Y-135909336D01*
X194024547Y-135944194D01*
X194022811Y-135944350D01*
X193987585Y-135919095D01*
X193930010Y-135854198D01*
X193865231Y-135767446D01*
X193763594Y-135643799D01*
X193656530Y-135551125D01*
X193617335Y-135527527D01*
X193471071Y-135479589D01*
X193299980Y-135463158D01*
X193131738Y-135478570D01*
X193005343Y-135520091D01*
X192927257Y-135569182D01*
X192815711Y-135651523D01*
X192680425Y-135758700D01*
X192531115Y-135882297D01*
X192377500Y-136013902D01*
X192229297Y-136145098D01*
X192096225Y-136267473D01*
X191988002Y-136372611D01*
X191914345Y-136452098D01*
X191889453Y-136486300D01*
X191810790Y-136679620D01*
X191791348Y-136876103D01*
X191800002Y-136963667D01*
X191817065Y-137038762D01*
X191849752Y-137109504D01*
X191907169Y-137189892D01*
X191998425Y-137293923D01*
X192052385Y-137351577D01*
X192153261Y-137459368D01*
X192213501Y-137528312D01*
X192237451Y-137565520D01*
X192229453Y-137578103D01*
X192193853Y-137573168D01*
X192186709Y-137571433D01*
X192019718Y-137535973D01*
X191856036Y-137511743D01*
X191714793Y-137500904D01*
X191615123Y-137505620D01*
X191611146Y-137506391D01*
X191453421Y-137567728D01*
X191307135Y-137676814D01*
X191193380Y-137817822D01*
X191191157Y-137821580D01*
X191158245Y-137884494D01*
X191132684Y-137953751D01*
X191112035Y-138041585D01*
X191093857Y-138160230D01*
X191075710Y-138321919D01*
X191061154Y-138473376D01*
X191035248Y-138779401D01*
X191020678Y-139029509D01*
X191018779Y-139231305D01*
X191030883Y-139392394D01*
X191058325Y-139520380D01*
X191102440Y-139622869D01*
X191164561Y-139707464D01*
X191246023Y-139781771D01*
X191297296Y-139819443D01*
X191364353Y-139863480D01*
X191423891Y-139891637D01*
X191492945Y-139907431D01*
X191588551Y-139914377D01*
X191727744Y-139915989D01*
X191765110Y-139915978D01*
X192093478Y-139915628D01*
X191851398Y-140077364D01*
X191684130Y-140201249D01*
X191570059Y-140318813D01*
X191501018Y-140442950D01*
X191468838Y-140586556D01*
X191463820Y-140689214D01*
X191477949Y-140859576D01*
X191518679Y-140991853D01*
X191520091Y-140994657D01*
X191569875Y-141073931D01*
X191653042Y-141186622D01*
X191761122Y-141322965D01*
X191885646Y-141473194D01*
X192018147Y-141627542D01*
X192150155Y-141776245D01*
X192273201Y-141909536D01*
X192378816Y-142017650D01*
X192458531Y-142090820D01*
X192490945Y-142114192D01*
X192665108Y-142183249D01*
X192849631Y-142207508D01*
X193020280Y-142183908D01*
X193026678Y-142181859D01*
X193115996Y-142135981D01*
X193231711Y-142052543D01*
X193358386Y-141942816D01*
X193373126Y-141928862D01*
X193475609Y-141833167D01*
X193539657Y-141779907D01*
X193571343Y-141765104D01*
X193576737Y-141784780D01*
X193574032Y-141797215D01*
X193520769Y-142046885D01*
X193504600Y-142253464D01*
X193526251Y-142426895D01*
X193586448Y-142577119D01*
X193636649Y-142653987D01*
X193709612Y-142734660D01*
X193800035Y-142798105D01*
X193917525Y-142847539D01*
X194071687Y-142886180D01*
X194272128Y-142917243D01*
X194492907Y-142940725D01*
X194770251Y-142964702D01*
X194992560Y-142979726D01*
X195168505Y-142985586D01*
X195306756Y-142982073D01*
X195415986Y-142968978D01*
X195504865Y-142946092D01*
X195579530Y-142914494D01*
X195702092Y-142829869D01*
X195809031Y-142717153D01*
X195819443Y-142702737D01*
X195863524Y-142635591D01*
X195891712Y-142575901D01*
X195907545Y-142506599D01*
X195914563Y-142410619D01*
X195916303Y-142270894D01*
X195916316Y-142252743D01*
X195667435Y-142252743D01*
X195656462Y-142385667D01*
X195628581Y-142489514D01*
X195583711Y-142570897D01*
X195527694Y-142631321D01*
X195477160Y-142670538D01*
X195421307Y-142699471D01*
X195351690Y-142718551D01*
X195259868Y-142728214D01*
X195137396Y-142728891D01*
X194975832Y-142721018D01*
X194766732Y-142705027D01*
X194520136Y-142683060D01*
X194306768Y-142661570D01*
X194147010Y-142639419D01*
X194030249Y-142612659D01*
X193945875Y-142577341D01*
X193883277Y-142529518D01*
X193831844Y-142465240D01*
X193800937Y-142415441D01*
X193770975Y-142355122D01*
X193758954Y-142294389D01*
X193763552Y-142211893D01*
X193781314Y-142098485D01*
X193812924Y-141956194D01*
X193864903Y-141768125D01*
X193890697Y-141684683D01*
X193617468Y-141684683D01*
X193601392Y-141700759D01*
X193585317Y-141684683D01*
X193601392Y-141668608D01*
X193617468Y-141684683D01*
X193890697Y-141684683D01*
X193932982Y-141547896D01*
X194012891Y-141309128D01*
X194100361Y-141065437D01*
X194129098Y-140989043D01*
X194198081Y-140807834D01*
X194398091Y-140874688D01*
X194498198Y-140903895D01*
X194602587Y-140923577D01*
X194727337Y-140935438D01*
X194888526Y-140941181D01*
X195038058Y-140942489D01*
X195478015Y-140943436D01*
X195543849Y-141297984D01*
X195599707Y-141613361D01*
X195638977Y-141873204D01*
X195661580Y-142084126D01*
X195667435Y-142252743D01*
X195916316Y-142252743D01*
X195916329Y-142235447D01*
X195916329Y-141907572D01*
X196077715Y-142149127D01*
X196201614Y-142316331D01*
X196319292Y-142430310D01*
X196443655Y-142499232D01*
X196587609Y-142531266D01*
X196689214Y-142536180D01*
X196859576Y-142522051D01*
X196991853Y-142481321D01*
X196994657Y-142479909D01*
X197073931Y-142430125D01*
X197186622Y-142346958D01*
X197322965Y-142238878D01*
X197473194Y-142114354D01*
X197627542Y-141981853D01*
X197776245Y-141849845D01*
X197909536Y-141726799D01*
X198017650Y-141621184D01*
X198090820Y-141541469D01*
X198114192Y-141509055D01*
X198183249Y-141334892D01*
X198207508Y-141150369D01*
X198206712Y-141144613D01*
X197958583Y-141144613D01*
X197943364Y-141251932D01*
X197880615Y-141368109D01*
X197768460Y-141500390D01*
X197605026Y-141656027D01*
X197491772Y-141754916D01*
X197295857Y-141921043D01*
X197140086Y-142048713D01*
X197017052Y-142142755D01*
X196919345Y-142207998D01*
X196839557Y-142249269D01*
X196770277Y-142271398D01*
X196704097Y-142279211D01*
X196686798Y-142279494D01*
X196547449Y-142256750D01*
X196470046Y-142215058D01*
X196385966Y-142127151D01*
X196284728Y-141984306D01*
X196169885Y-141792461D01*
X196044991Y-141557555D01*
X195913598Y-141285526D01*
X195912546Y-141283250D01*
X195712185Y-140849664D01*
X195884795Y-140757044D01*
X195988095Y-140692796D01*
X193984378Y-140692796D01*
X193795889Y-140963677D01*
X193585752Y-141257986D01*
X193402738Y-141497401D01*
X193244642Y-141684254D01*
X193109259Y-141820875D01*
X192994385Y-141909598D01*
X192897817Y-141952755D01*
X192856042Y-141957975D01*
X192773362Y-141945481D01*
X192677131Y-141915180D01*
X192671522Y-141912878D01*
X192601197Y-141865357D01*
X192497524Y-141767274D01*
X192359631Y-141617734D01*
X192186648Y-141415840D01*
X192178838Y-141406485D01*
X192054480Y-141256023D01*
X191942790Y-141118323D01*
X191851068Y-141002590D01*
X191786616Y-140918030D01*
X191757296Y-140874962D01*
X191723908Y-140757330D01*
X191726595Y-140623715D01*
X191763225Y-140504455D01*
X191785864Y-140468875D01*
X191867313Y-140391192D01*
X192000438Y-140295740D01*
X192176791Y-140187558D01*
X192387924Y-140071684D01*
X192625391Y-139953158D01*
X192740802Y-139899287D01*
X193149039Y-139712797D01*
X193275295Y-139941439D01*
X193381381Y-140104147D01*
X193522105Y-140279367D01*
X193678916Y-140446403D01*
X193833265Y-140584560D01*
X193889341Y-140626529D01*
X193984378Y-140692796D01*
X195988095Y-140692796D01*
X196086043Y-140631877D01*
X196283927Y-140478362D01*
X196456918Y-140314369D01*
X196550181Y-140204879D01*
X196618398Y-140121117D01*
X196674939Y-140063216D01*
X196703996Y-140044937D01*
X196747238Y-140063742D01*
X196830912Y-140115320D01*
X196945127Y-140192413D01*
X197079991Y-140287766D01*
X197225612Y-140394120D01*
X197372097Y-140504220D01*
X197509554Y-140610809D01*
X197628091Y-140706630D01*
X197717816Y-140784425D01*
X197737790Y-140803314D01*
X197853922Y-140927553D01*
X197928144Y-141038903D01*
X197958583Y-141144613D01*
X198206712Y-141144613D01*
X198183908Y-140979720D01*
X198181859Y-140973322D01*
X198135981Y-140884004D01*
X198052543Y-140768289D01*
X197942816Y-140641614D01*
X197928862Y-140626874D01*
X197833167Y-140524391D01*
X197779907Y-140460343D01*
X197765104Y-140428657D01*
X197784781Y-140423263D01*
X197797215Y-140425968D01*
X198050176Y-140479457D01*
X198260234Y-140494864D01*
X198436701Y-140471636D01*
X198588889Y-140409221D01*
X198605545Y-140398608D01*
X197700760Y-140398608D01*
X197684684Y-140414683D01*
X197668608Y-140398608D01*
X197684684Y-140382532D01*
X197700760Y-140398608D01*
X198605545Y-140398608D01*
X198641079Y-140375968D01*
X198724711Y-140306200D01*
X198790013Y-140222142D01*
X198840440Y-140113932D01*
X198879452Y-139971706D01*
X198910506Y-139785601D01*
X198937060Y-139545753D01*
X198938847Y-139526624D01*
X198964752Y-139220599D01*
X198979322Y-138970491D01*
X198980324Y-138864003D01*
X198728883Y-138864003D01*
X198720913Y-139026178D01*
X198704805Y-139236054D01*
X198683395Y-139476200D01*
X198661873Y-139689916D01*
X198639840Y-139849956D01*
X198613565Y-139966866D01*
X198579317Y-140051194D01*
X198533362Y-140113486D01*
X198471970Y-140164289D01*
X198430468Y-140191035D01*
X198376082Y-140224356D01*
X198335127Y-140243392D01*
X198290608Y-140248879D01*
X198225532Y-140241554D01*
X198122905Y-140222156D01*
X198049221Y-140207574D01*
X197874963Y-140166081D01*
X197654788Y-140102070D01*
X197401349Y-140019559D01*
X197127303Y-139922567D01*
X196990336Y-139871354D01*
X196810419Y-139802886D01*
X196888576Y-139538089D01*
X196923648Y-139410235D01*
X196945321Y-139300309D01*
X196955734Y-139186948D01*
X196957025Y-139048786D01*
X196954247Y-138953541D01*
X196415465Y-138953541D01*
X196393973Y-139236681D01*
X196319342Y-139510902D01*
X196192597Y-139762824D01*
X196191491Y-139764536D01*
X196001274Y-140002461D01*
X195772678Y-140189927D01*
X195509462Y-140324133D01*
X195385043Y-140365198D01*
X195197107Y-140397588D01*
X194977771Y-140404043D01*
X194753894Y-140385852D01*
X194552334Y-140344303D01*
X194485570Y-140322044D01*
X194240173Y-140195499D01*
X194018084Y-140017356D01*
X193831002Y-139799262D01*
X193690627Y-139552867D01*
X193674420Y-139514430D01*
X193640364Y-139417067D01*
X193618742Y-139316706D01*
X193606996Y-139194500D01*
X193602568Y-139031603D01*
X193602307Y-138983162D01*
X193602901Y-138825002D01*
X193608076Y-138712356D01*
X193621470Y-138626443D01*
X193646722Y-138548479D01*
X193687472Y-138459683D01*
X193713924Y-138407070D01*
X193772008Y-138292658D01*
X193164489Y-138292658D01*
X193110788Y-138429304D01*
X193087023Y-138507918D01*
X193070796Y-138609763D01*
X193060996Y-138746870D01*
X193056508Y-138931269D01*
X193055949Y-139022150D01*
X193054810Y-139478350D01*
X192701139Y-139544542D01*
X192421720Y-139594565D01*
X192193455Y-139629926D01*
X192005204Y-139651898D01*
X191845823Y-139661754D01*
X191704168Y-139660765D01*
X191689437Y-139660061D01*
X191572011Y-139650949D01*
X191495490Y-139632388D01*
X191436475Y-139594979D01*
X191375956Y-139534122D01*
X191316729Y-139463003D01*
X191285062Y-139398260D01*
X191272584Y-139314688D01*
X191270791Y-139217497D01*
X191273989Y-139112283D01*
X191282492Y-138960717D01*
X191295136Y-138780426D01*
X191310753Y-138589033D01*
X191316940Y-138520136D01*
X191338430Y-138306768D01*
X191360581Y-138147010D01*
X191387341Y-138030249D01*
X191422659Y-137945875D01*
X191470482Y-137883277D01*
X191534760Y-137831844D01*
X191584559Y-137800937D01*
X191644899Y-137770968D01*
X191705657Y-137758951D01*
X191788192Y-137763562D01*
X191901403Y-137781294D01*
X192043535Y-137811546D01*
X192210978Y-137855166D01*
X192368804Y-137903017D01*
X192376897Y-137905719D01*
X192504296Y-137950542D01*
X192583581Y-137986161D01*
X192628323Y-138021537D01*
X192652092Y-138065632D01*
X192660086Y-138092718D01*
X192711877Y-138198908D01*
X192804964Y-138263876D01*
X192945426Y-138291240D01*
X192996234Y-138292658D01*
X193164489Y-138292658D01*
X193772008Y-138292658D01*
X193826456Y-138185411D01*
X194180127Y-138063927D01*
X194363005Y-137995614D01*
X194571490Y-137909196D01*
X194774937Y-137817720D01*
X194890030Y-137761693D01*
X195246262Y-137580943D01*
X195450022Y-137649585D01*
X195722443Y-137774358D01*
X195959687Y-137951391D01*
X196156755Y-138176160D01*
X196294933Y-138414032D01*
X196382793Y-138674864D01*
X196415465Y-138953541D01*
X196954247Y-138953541D01*
X196952629Y-138898102D01*
X196938526Y-138522913D01*
X197295529Y-138456542D01*
X197587020Y-138406189D01*
X197850243Y-138368327D01*
X198076871Y-138343841D01*
X198258576Y-138333617D01*
X198387031Y-138338540D01*
X198394881Y-138339634D01*
X198514898Y-138375495D01*
X198613337Y-138452564D01*
X198631321Y-138472306D01*
X198670620Y-138522977D01*
X198699586Y-138579015D01*
X198718659Y-138648888D01*
X198728279Y-138741062D01*
X198728883Y-138864003D01*
X198980324Y-138864003D01*
X198981222Y-138768695D01*
X198969117Y-138607606D01*
X198941675Y-138479619D01*
X198897560Y-138377131D01*
X198835439Y-138292536D01*
X198753977Y-138218229D01*
X198702704Y-138180557D01*
X198635647Y-138136520D01*
X198576109Y-138108362D01*
X198507055Y-138092569D01*
X198411449Y-138085623D01*
X198272256Y-138084010D01*
X198234890Y-138084021D01*
X197906522Y-138084372D01*
X198148602Y-137922636D01*
X198315870Y-137798751D01*
X198429941Y-137681187D01*
X198498982Y-137557050D01*
X198531162Y-137413444D01*
X198534607Y-137342954D01*
X198279258Y-137342954D01*
X198247930Y-137475338D01*
X198214137Y-137531125D01*
X198132651Y-137608842D01*
X197999462Y-137704328D01*
X197822997Y-137812558D01*
X197611681Y-137928507D01*
X197373940Y-138047151D01*
X197258487Y-138101038D01*
X196849539Y-138287853D01*
X196737353Y-138073230D01*
X196641508Y-137919564D01*
X196511884Y-137753162D01*
X196399356Y-137630283D01*
X196294122Y-137526496D01*
X196197389Y-137435714D01*
X196123273Y-137370978D01*
X196097052Y-137351058D01*
X196020560Y-137300157D01*
X196206580Y-137032800D01*
X196346457Y-136836762D01*
X195803239Y-136836762D01*
X195767309Y-136891095D01*
X195683869Y-136967163D01*
X195461156Y-137134636D01*
X195190833Y-137306911D01*
X194888217Y-137475557D01*
X194568626Y-137632141D01*
X194247377Y-137768231D01*
X194186638Y-137791367D01*
X193990244Y-137855951D01*
X193764002Y-137916336D01*
X193528190Y-137968254D01*
X193303087Y-138007433D01*
X193108971Y-138029604D01*
X193039943Y-138032847D01*
X192896468Y-138035443D01*
X193054810Y-137874683D01*
X193153200Y-137778708D01*
X193216456Y-137728289D01*
X193251039Y-137719949D01*
X193263413Y-137750207D01*
X193263798Y-137762152D01*
X193265288Y-137789016D01*
X193277461Y-137803382D01*
X193311868Y-137804711D01*
X193380062Y-137792461D01*
X193493593Y-137766092D01*
X193569241Y-137747862D01*
X194039294Y-137605261D01*
X194481620Y-137412432D01*
X194887834Y-137173547D01*
X195198411Y-136937441D01*
X195295999Y-136856835D01*
X195367906Y-136810239D01*
X195436058Y-136788434D01*
X195522380Y-136782204D01*
X195568158Y-136782011D01*
X195706556Y-136786849D01*
X195783952Y-136803557D01*
X195803239Y-136836762D01*
X196346457Y-136836762D01*
X196389566Y-136776345D01*
X196454115Y-136690874D01*
X195096456Y-136690874D01*
X195070322Y-136727487D01*
X194999398Y-136788066D01*
X194894894Y-136864978D01*
X194768024Y-136950589D01*
X194630000Y-137037265D01*
X194492035Y-137117374D01*
X194393284Y-137169586D01*
X194264351Y-137229385D01*
X194108939Y-137294362D01*
X193941082Y-137359455D01*
X193774817Y-137419603D01*
X193624183Y-137469744D01*
X193503214Y-137504817D01*
X193425949Y-137519758D01*
X193421718Y-137519941D01*
X193396081Y-137507792D01*
X193374946Y-137463532D01*
X193355470Y-137377250D01*
X193334814Y-137239037D01*
X193329561Y-137198580D01*
X193288470Y-136876147D01*
X193376163Y-136749606D01*
X193500708Y-136607961D01*
X193675765Y-136463860D01*
X193888701Y-136326975D01*
X194019367Y-136257282D01*
X194185793Y-136180583D01*
X194345709Y-136117592D01*
X194420630Y-136093539D01*
X193772517Y-136093539D01*
X193632954Y-136181833D01*
X193532658Y-136256394D01*
X193419597Y-136357649D01*
X193305986Y-136472466D01*
X193204042Y-136587714D01*
X193125979Y-136690263D01*
X193084015Y-136766982D01*
X193081901Y-136774159D01*
X193076121Y-136844445D01*
X193079211Y-136958595D01*
X193090356Y-137096907D01*
X193098000Y-137163506D01*
X193136102Y-137465181D01*
X193015076Y-137572138D01*
X192942693Y-137633742D01*
X192891437Y-137673002D01*
X192877975Y-137680329D01*
X192847838Y-137662286D01*
X192777326Y-137612171D01*
X192762805Y-137601392D01*
X192331392Y-137601392D01*
X192315317Y-137617468D01*
X192299241Y-137601392D01*
X192315317Y-137585316D01*
X192331392Y-137601392D01*
X192762805Y-137601392D01*
X192676736Y-137537503D01*
X192556361Y-137445801D01*
X192547479Y-137438953D01*
X192340303Y-137272114D01*
X192187789Y-137128437D01*
X192089891Y-137000309D01*
X192046563Y-136880114D01*
X192057758Y-136760238D01*
X192123430Y-136633066D01*
X192243534Y-136490984D01*
X192418023Y-136326378D01*
X192540111Y-136220983D01*
X192728718Y-136062259D01*
X192876513Y-135940911D01*
X192991098Y-135851992D01*
X193080075Y-135790557D01*
X193151046Y-135751660D01*
X193211612Y-135730354D01*
X193269376Y-135721696D01*
X193309358Y-135720506D01*
X193428796Y-135734998D01*
X193528011Y-135785154D01*
X193622663Y-135880998D01*
X193678357Y-135956681D01*
X193772517Y-136093539D01*
X194420630Y-136093539D01*
X194486326Y-136072448D01*
X194594855Y-136049290D01*
X194656107Y-136051236D01*
X194690173Y-136083383D01*
X194748914Y-136156484D01*
X194822973Y-136256945D01*
X194902993Y-136371174D01*
X194979618Y-136485581D01*
X195043489Y-136586572D01*
X195085250Y-136660557D01*
X195096456Y-136690874D01*
X196454115Y-136690874D01*
X196557675Y-136553749D01*
X196706606Y-136370289D01*
X196756203Y-136315316D01*
X196414684Y-136315316D01*
X196398608Y-136331392D01*
X196382532Y-136315316D01*
X196398608Y-136299240D01*
X196414684Y-136315316D01*
X196756203Y-136315316D01*
X196832056Y-136231243D01*
X196929722Y-136141888D01*
X196937593Y-136136035D01*
X197039766Y-136072943D01*
X197134655Y-136042559D01*
X197229217Y-136048222D01*
X197330409Y-136093273D01*
X197445186Y-136181053D01*
X197580507Y-136314903D01*
X197743326Y-136498163D01*
X197779017Y-136540111D01*
X197901555Y-136686227D01*
X198015001Y-136823973D01*
X198110281Y-136942147D01*
X198178322Y-137029549D01*
X198202605Y-137063014D01*
X198263978Y-137198552D01*
X198279258Y-137342954D01*
X198534607Y-137342954D01*
X198536180Y-137310786D01*
X198522024Y-137140277D01*
X198481218Y-137007826D01*
X198479871Y-137005150D01*
X198441552Y-136945927D01*
X198368878Y-136847735D01*
X198269461Y-136720323D01*
X198150916Y-136573440D01*
X198020856Y-136416838D01*
X198015339Y-136410293D01*
X197854310Y-136222129D01*
X197724247Y-136078389D01*
X197616873Y-135972553D01*
X197523909Y-135898104D01*
X197437080Y-135848524D01*
X197348107Y-135817295D01*
X197248714Y-135797898D01*
X197235234Y-135795994D01*
X197094559Y-135792523D01*
X196961885Y-135826607D01*
X196824903Y-135903813D01*
X196671309Y-136029710D01*
X196627101Y-136071138D01*
X196525560Y-136167130D01*
X196462398Y-136222271D01*
X196430222Y-136240875D01*
X196421638Y-136227255D01*
X196429011Y-136186709D01*
X196464751Y-136015938D01*
X196488856Y-135850848D01*
X196499034Y-135712805D01*
X196242095Y-135712805D01*
X196235752Y-135800553D01*
X196221767Y-135887285D01*
X196203080Y-135975067D01*
X196173817Y-136092274D01*
X196138129Y-136224525D01*
X196100164Y-136357442D01*
X196064072Y-136476647D01*
X196034005Y-136567760D01*
X196014110Y-136616402D01*
X196010084Y-136620759D01*
X195980036Y-136609672D01*
X195912139Y-136582097D01*
X195889136Y-136572532D01*
X195786747Y-136545339D01*
X195645409Y-136528338D01*
X195532258Y-136524304D01*
X195290805Y-136524304D01*
X195064627Y-136187191D01*
X194972006Y-136053797D01*
X194885301Y-135937253D01*
X194814017Y-135849810D01*
X194767659Y-135803720D01*
X194766503Y-135802939D01*
X194700261Y-135776706D01*
X194611336Y-135776545D01*
X194486209Y-135803498D01*
X194392270Y-135831790D01*
X194349530Y-135842915D01*
X194328326Y-135832185D01*
X194323995Y-135786402D01*
X194331871Y-135692366D01*
X194334363Y-135667956D01*
X194351573Y-135551307D01*
X194381733Y-135472192D01*
X194436990Y-135403849D01*
X194467380Y-135374873D01*
X194537783Y-135316224D01*
X194602367Y-135284876D01*
X194686221Y-135272541D01*
X194782503Y-135270791D01*
X194887717Y-135273989D01*
X195039283Y-135282492D01*
X195219574Y-135295136D01*
X195410967Y-135310753D01*
X195479864Y-135316940D01*
X195693201Y-135338423D01*
X195852935Y-135360565D01*
X195969686Y-135387324D01*
X196054070Y-135422658D01*
X196116705Y-135470526D01*
X196168209Y-135534887D01*
X196199439Y-135585203D01*
X196230558Y-135648682D01*
X196242095Y-135712805D01*
X196499034Y-135712805D01*
X196499238Y-135710043D01*
X196493808Y-135612126D01*
X196493609Y-135611146D01*
X196432272Y-135453421D01*
X196323186Y-135307135D01*
X196182178Y-135193379D01*
X196178420Y-135191157D01*
X196115506Y-135158245D01*
X196046249Y-135132684D01*
X195958415Y-135112035D01*
X195839770Y-135093857D01*
X195678081Y-135075710D01*
X195526624Y-135061153D01*
X195246966Y-135036800D01*
X195022473Y-135021234D01*
X194844585Y-135014645D01*
X194704742Y-135017220D01*
X194704742Y-135017220D01*
G37*
X194704742Y-135017220D02*
X194594383Y-135029149D01*
X194504947Y-135050620D01*
X194427874Y-135081820D01*
X194420471Y-135085506D01*
X194272479Y-135184461D01*
X194169217Y-135313409D01*
X194105313Y-135481687D01*
X194076366Y-135683544D01*
X194062875Y-135819561D01*
X194045008Y-135909336D01*
X194024547Y-135944194D01*
X194022811Y-135944350D01*
X193987585Y-135919095D01*
X193930010Y-135854198D01*
X193865231Y-135767446D01*
X193763594Y-135643799D01*
X193656530Y-135551125D01*
X193617335Y-135527527D01*
X193471071Y-135479589D01*
X193299980Y-135463158D01*
X193131738Y-135478570D01*
X193005343Y-135520091D01*
X192927257Y-135569182D01*
X192815711Y-135651523D01*
X192680425Y-135758700D01*
X192531115Y-135882297D01*
X192377500Y-136013902D01*
X192229297Y-136145098D01*
X192096225Y-136267473D01*
X191988002Y-136372611D01*
X191914345Y-136452098D01*
X191889453Y-136486300D01*
X191810790Y-136679620D01*
X191791348Y-136876103D01*
X191800002Y-136963667D01*
X191817065Y-137038762D01*
X191849752Y-137109504D01*
X191907169Y-137189892D01*
X191998425Y-137293923D01*
X192052385Y-137351577D01*
X192153261Y-137459368D01*
X192213501Y-137528312D01*
X192237451Y-137565520D01*
X192229453Y-137578103D01*
X192193853Y-137573168D01*
X192186709Y-137571433D01*
X192019718Y-137535973D01*
X191856036Y-137511743D01*
X191714793Y-137500904D01*
X191615123Y-137505620D01*
X191611146Y-137506391D01*
X191453421Y-137567728D01*
X191307135Y-137676814D01*
X191193380Y-137817822D01*
X191191157Y-137821580D01*
X191158245Y-137884494D01*
X191132684Y-137953751D01*
X191112035Y-138041585D01*
X191093857Y-138160230D01*
X191075710Y-138321919D01*
X191061154Y-138473376D01*
X191035248Y-138779401D01*
X191020678Y-139029509D01*
X191018779Y-139231305D01*
X191030883Y-139392394D01*
X191058325Y-139520380D01*
X191102440Y-139622869D01*
X191164561Y-139707464D01*
X191246023Y-139781771D01*
X191297296Y-139819443D01*
X191364353Y-139863480D01*
X191423891Y-139891637D01*
X191492945Y-139907431D01*
X191588551Y-139914377D01*
X191727744Y-139915989D01*
X191765110Y-139915978D01*
X192093478Y-139915628D01*
X191851398Y-140077364D01*
X191684130Y-140201249D01*
X191570059Y-140318813D01*
X191501018Y-140442950D01*
X191468838Y-140586556D01*
X191463820Y-140689214D01*
X191477949Y-140859576D01*
X191518679Y-140991853D01*
X191520091Y-140994657D01*
X191569875Y-141073931D01*
X191653042Y-141186622D01*
X191761122Y-141322965D01*
X191885646Y-141473194D01*
X192018147Y-141627542D01*
X192150155Y-141776245D01*
X192273201Y-141909536D01*
X192378816Y-142017650D01*
X192458531Y-142090820D01*
X192490945Y-142114192D01*
X192665108Y-142183249D01*
X192849631Y-142207508D01*
X193020280Y-142183908D01*
X193026678Y-142181859D01*
X193115996Y-142135981D01*
X193231711Y-142052543D01*
X193358386Y-141942816D01*
X193373126Y-141928862D01*
X193475609Y-141833167D01*
X193539657Y-141779907D01*
X193571343Y-141765104D01*
X193576737Y-141784780D01*
X193574032Y-141797215D01*
X193520769Y-142046885D01*
X193504600Y-142253464D01*
X193526251Y-142426895D01*
X193586448Y-142577119D01*
X193636649Y-142653987D01*
X193709612Y-142734660D01*
X193800035Y-142798105D01*
X193917525Y-142847539D01*
X194071687Y-142886180D01*
X194272128Y-142917243D01*
X194492907Y-142940725D01*
X194770251Y-142964702D01*
X194992560Y-142979726D01*
X195168505Y-142985586D01*
X195306756Y-142982073D01*
X195415986Y-142968978D01*
X195504865Y-142946092D01*
X195579530Y-142914494D01*
X195702092Y-142829869D01*
X195809031Y-142717153D01*
X195819443Y-142702737D01*
X195863524Y-142635591D01*
X195891712Y-142575901D01*
X195907545Y-142506599D01*
X195914563Y-142410619D01*
X195916303Y-142270894D01*
X195916316Y-142252743D01*
X195667435Y-142252743D01*
X195656462Y-142385667D01*
X195628581Y-142489514D01*
X195583711Y-142570897D01*
X195527694Y-142631321D01*
X195477160Y-142670538D01*
X195421307Y-142699471D01*
X195351690Y-142718551D01*
X195259868Y-142728214D01*
X195137396Y-142728891D01*
X194975832Y-142721018D01*
X194766732Y-142705027D01*
X194520136Y-142683060D01*
X194306768Y-142661570D01*
X194147010Y-142639419D01*
X194030249Y-142612659D01*
X193945875Y-142577341D01*
X193883277Y-142529518D01*
X193831844Y-142465240D01*
X193800937Y-142415441D01*
X193770975Y-142355122D01*
X193758954Y-142294389D01*
X193763552Y-142211893D01*
X193781314Y-142098485D01*
X193812924Y-141956194D01*
X193864903Y-141768125D01*
X193890697Y-141684683D01*
X193617468Y-141684683D01*
X193601392Y-141700759D01*
X193585317Y-141684683D01*
X193601392Y-141668608D01*
X193617468Y-141684683D01*
X193890697Y-141684683D01*
X193932982Y-141547896D01*
X194012891Y-141309128D01*
X194100361Y-141065437D01*
X194129098Y-140989043D01*
X194198081Y-140807834D01*
X194398091Y-140874688D01*
X194498198Y-140903895D01*
X194602587Y-140923577D01*
X194727337Y-140935438D01*
X194888526Y-140941181D01*
X195038058Y-140942489D01*
X195478015Y-140943436D01*
X195543849Y-141297984D01*
X195599707Y-141613361D01*
X195638977Y-141873204D01*
X195661580Y-142084126D01*
X195667435Y-142252743D01*
X195916316Y-142252743D01*
X195916329Y-142235447D01*
X195916329Y-141907572D01*
X196077715Y-142149127D01*
X196201614Y-142316331D01*
X196319292Y-142430310D01*
X196443655Y-142499232D01*
X196587609Y-142531266D01*
X196689214Y-142536180D01*
X196859576Y-142522051D01*
X196991853Y-142481321D01*
X196994657Y-142479909D01*
X197073931Y-142430125D01*
X197186622Y-142346958D01*
X197322965Y-142238878D01*
X197473194Y-142114354D01*
X197627542Y-141981853D01*
X197776245Y-141849845D01*
X197909536Y-141726799D01*
X198017650Y-141621184D01*
X198090820Y-141541469D01*
X198114192Y-141509055D01*
X198183249Y-141334892D01*
X198207508Y-141150369D01*
X198206712Y-141144613D01*
X197958583Y-141144613D01*
X197943364Y-141251932D01*
X197880615Y-141368109D01*
X197768460Y-141500390D01*
X197605026Y-141656027D01*
X197491772Y-141754916D01*
X197295857Y-141921043D01*
X197140086Y-142048713D01*
X197017052Y-142142755D01*
X196919345Y-142207998D01*
X196839557Y-142249269D01*
X196770277Y-142271398D01*
X196704097Y-142279211D01*
X196686798Y-142279494D01*
X196547449Y-142256750D01*
X196470046Y-142215058D01*
X196385966Y-142127151D01*
X196284728Y-141984306D01*
X196169885Y-141792461D01*
X196044991Y-141557555D01*
X195913598Y-141285526D01*
X195912546Y-141283250D01*
X195712185Y-140849664D01*
X195884795Y-140757044D01*
X195988095Y-140692796D01*
X193984378Y-140692796D01*
X193795889Y-140963677D01*
X193585752Y-141257986D01*
X193402738Y-141497401D01*
X193244642Y-141684254D01*
X193109259Y-141820875D01*
X192994385Y-141909598D01*
X192897817Y-141952755D01*
X192856042Y-141957975D01*
X192773362Y-141945481D01*
X192677131Y-141915180D01*
X192671522Y-141912878D01*
X192601197Y-141865357D01*
X192497524Y-141767274D01*
X192359631Y-141617734D01*
X192186648Y-141415840D01*
X192178838Y-141406485D01*
X192054480Y-141256023D01*
X191942790Y-141118323D01*
X191851068Y-141002590D01*
X191786616Y-140918030D01*
X191757296Y-140874962D01*
X191723908Y-140757330D01*
X191726595Y-140623715D01*
X191763225Y-140504455D01*
X191785864Y-140468875D01*
X191867313Y-140391192D01*
X192000438Y-140295740D01*
X192176791Y-140187558D01*
X192387924Y-140071684D01*
X192625391Y-139953158D01*
X192740802Y-139899287D01*
X193149039Y-139712797D01*
X193275295Y-139941439D01*
X193381381Y-140104147D01*
X193522105Y-140279367D01*
X193678916Y-140446403D01*
X193833265Y-140584560D01*
X193889341Y-140626529D01*
X193984378Y-140692796D01*
X195988095Y-140692796D01*
X196086043Y-140631877D01*
X196283927Y-140478362D01*
X196456918Y-140314369D01*
X196550181Y-140204879D01*
X196618398Y-140121117D01*
X196674939Y-140063216D01*
X196703996Y-140044937D01*
X196747238Y-140063742D01*
X196830912Y-140115320D01*
X196945127Y-140192413D01*
X197079991Y-140287766D01*
X197225612Y-140394120D01*
X197372097Y-140504220D01*
X197509554Y-140610809D01*
X197628091Y-140706630D01*
X197717816Y-140784425D01*
X197737790Y-140803314D01*
X197853922Y-140927553D01*
X197928144Y-141038903D01*
X197958583Y-141144613D01*
X198206712Y-141144613D01*
X198183908Y-140979720D01*
X198181859Y-140973322D01*
X198135981Y-140884004D01*
X198052543Y-140768289D01*
X197942816Y-140641614D01*
X197928862Y-140626874D01*
X197833167Y-140524391D01*
X197779907Y-140460343D01*
X197765104Y-140428657D01*
X197784781Y-140423263D01*
X197797215Y-140425968D01*
X198050176Y-140479457D01*
X198260234Y-140494864D01*
X198436701Y-140471636D01*
X198588889Y-140409221D01*
X198605545Y-140398608D01*
X197700760Y-140398608D01*
X197684684Y-140414683D01*
X197668608Y-140398608D01*
X197684684Y-140382532D01*
X197700760Y-140398608D01*
X198605545Y-140398608D01*
X198641079Y-140375968D01*
X198724711Y-140306200D01*
X198790013Y-140222142D01*
X198840440Y-140113932D01*
X198879452Y-139971706D01*
X198910506Y-139785601D01*
X198937060Y-139545753D01*
X198938847Y-139526624D01*
X198964752Y-139220599D01*
X198979322Y-138970491D01*
X198980324Y-138864003D01*
X198728883Y-138864003D01*
X198720913Y-139026178D01*
X198704805Y-139236054D01*
X198683395Y-139476200D01*
X198661873Y-139689916D01*
X198639840Y-139849956D01*
X198613565Y-139966866D01*
X198579317Y-140051194D01*
X198533362Y-140113486D01*
X198471970Y-140164289D01*
X198430468Y-140191035D01*
X198376082Y-140224356D01*
X198335127Y-140243392D01*
X198290608Y-140248879D01*
X198225532Y-140241554D01*
X198122905Y-140222156D01*
X198049221Y-140207574D01*
X197874963Y-140166081D01*
X197654788Y-140102070D01*
X197401349Y-140019559D01*
X197127303Y-139922567D01*
X196990336Y-139871354D01*
X196810419Y-139802886D01*
X196888576Y-139538089D01*
X196923648Y-139410235D01*
X196945321Y-139300309D01*
X196955734Y-139186948D01*
X196957025Y-139048786D01*
X196954247Y-138953541D01*
X196415465Y-138953541D01*
X196393973Y-139236681D01*
X196319342Y-139510902D01*
X196192597Y-139762824D01*
X196191491Y-139764536D01*
X196001274Y-140002461D01*
X195772678Y-140189927D01*
X195509462Y-140324133D01*
X195385043Y-140365198D01*
X195197107Y-140397588D01*
X194977771Y-140404043D01*
X194753894Y-140385852D01*
X194552334Y-140344303D01*
X194485570Y-140322044D01*
X194240173Y-140195499D01*
X194018084Y-140017356D01*
X193831002Y-139799262D01*
X193690627Y-139552867D01*
X193674420Y-139514430D01*
X193640364Y-139417067D01*
X193618742Y-139316706D01*
X193606996Y-139194500D01*
X193602568Y-139031603D01*
X193602307Y-138983162D01*
X193602901Y-138825002D01*
X193608076Y-138712356D01*
X193621470Y-138626443D01*
X193646722Y-138548479D01*
X193687472Y-138459683D01*
X193713924Y-138407070D01*
X193772008Y-138292658D01*
X193164489Y-138292658D01*
X193110788Y-138429304D01*
X193087023Y-138507918D01*
X193070796Y-138609763D01*
X193060996Y-138746870D01*
X193056508Y-138931269D01*
X193055949Y-139022150D01*
X193054810Y-139478350D01*
X192701139Y-139544542D01*
X192421720Y-139594565D01*
X192193455Y-139629926D01*
X192005204Y-139651898D01*
X191845823Y-139661754D01*
X191704168Y-139660765D01*
X191689437Y-139660061D01*
X191572011Y-139650949D01*
X191495490Y-139632388D01*
X191436475Y-139594979D01*
X191375956Y-139534122D01*
X191316729Y-139463003D01*
X191285062Y-139398260D01*
X191272584Y-139314688D01*
X191270791Y-139217497D01*
X191273989Y-139112283D01*
X191282492Y-138960717D01*
X191295136Y-138780426D01*
X191310753Y-138589033D01*
X191316940Y-138520136D01*
X191338430Y-138306768D01*
X191360581Y-138147010D01*
X191387341Y-138030249D01*
X191422659Y-137945875D01*
X191470482Y-137883277D01*
X191534760Y-137831844D01*
X191584559Y-137800937D01*
X191644899Y-137770968D01*
X191705657Y-137758951D01*
X191788192Y-137763562D01*
X191901403Y-137781294D01*
X192043535Y-137811546D01*
X192210978Y-137855166D01*
X192368804Y-137903017D01*
X192376897Y-137905719D01*
X192504296Y-137950542D01*
X192583581Y-137986161D01*
X192628323Y-138021537D01*
X192652092Y-138065632D01*
X192660086Y-138092718D01*
X192711877Y-138198908D01*
X192804964Y-138263876D01*
X192945426Y-138291240D01*
X192996234Y-138292658D01*
X193164489Y-138292658D01*
X193772008Y-138292658D01*
X193826456Y-138185411D01*
X194180127Y-138063927D01*
X194363005Y-137995614D01*
X194571490Y-137909196D01*
X194774937Y-137817720D01*
X194890030Y-137761693D01*
X195246262Y-137580943D01*
X195450022Y-137649585D01*
X195722443Y-137774358D01*
X195959687Y-137951391D01*
X196156755Y-138176160D01*
X196294933Y-138414032D01*
X196382793Y-138674864D01*
X196415465Y-138953541D01*
X196954247Y-138953541D01*
X196952629Y-138898102D01*
X196938526Y-138522913D01*
X197295529Y-138456542D01*
X197587020Y-138406189D01*
X197850243Y-138368327D01*
X198076871Y-138343841D01*
X198258576Y-138333617D01*
X198387031Y-138338540D01*
X198394881Y-138339634D01*
X198514898Y-138375495D01*
X198613337Y-138452564D01*
X198631321Y-138472306D01*
X198670620Y-138522977D01*
X198699586Y-138579015D01*
X198718659Y-138648888D01*
X198728279Y-138741062D01*
X198728883Y-138864003D01*
X198980324Y-138864003D01*
X198981222Y-138768695D01*
X198969117Y-138607606D01*
X198941675Y-138479619D01*
X198897560Y-138377131D01*
X198835439Y-138292536D01*
X198753977Y-138218229D01*
X198702704Y-138180557D01*
X198635647Y-138136520D01*
X198576109Y-138108362D01*
X198507055Y-138092569D01*
X198411449Y-138085623D01*
X198272256Y-138084010D01*
X198234890Y-138084021D01*
X197906522Y-138084372D01*
X198148602Y-137922636D01*
X198315870Y-137798751D01*
X198429941Y-137681187D01*
X198498982Y-137557050D01*
X198531162Y-137413444D01*
X198534607Y-137342954D01*
X198279258Y-137342954D01*
X198247930Y-137475338D01*
X198214137Y-137531125D01*
X198132651Y-137608842D01*
X197999462Y-137704328D01*
X197822997Y-137812558D01*
X197611681Y-137928507D01*
X197373940Y-138047151D01*
X197258487Y-138101038D01*
X196849539Y-138287853D01*
X196737353Y-138073230D01*
X196641508Y-137919564D01*
X196511884Y-137753162D01*
X196399356Y-137630283D01*
X196294122Y-137526496D01*
X196197389Y-137435714D01*
X196123273Y-137370978D01*
X196097052Y-137351058D01*
X196020560Y-137300157D01*
X196206580Y-137032800D01*
X196346457Y-136836762D01*
X195803239Y-136836762D01*
X195767309Y-136891095D01*
X195683869Y-136967163D01*
X195461156Y-137134636D01*
X195190833Y-137306911D01*
X194888217Y-137475557D01*
X194568626Y-137632141D01*
X194247377Y-137768231D01*
X194186638Y-137791367D01*
X193990244Y-137855951D01*
X193764002Y-137916336D01*
X193528190Y-137968254D01*
X193303087Y-138007433D01*
X193108971Y-138029604D01*
X193039943Y-138032847D01*
X192896468Y-138035443D01*
X193054810Y-137874683D01*
X193153200Y-137778708D01*
X193216456Y-137728289D01*
X193251039Y-137719949D01*
X193263413Y-137750207D01*
X193263798Y-137762152D01*
X193265288Y-137789016D01*
X193277461Y-137803382D01*
X193311868Y-137804711D01*
X193380062Y-137792461D01*
X193493593Y-137766092D01*
X193569241Y-137747862D01*
X194039294Y-137605261D01*
X194481620Y-137412432D01*
X194887834Y-137173547D01*
X195198411Y-136937441D01*
X195295999Y-136856835D01*
X195367906Y-136810239D01*
X195436058Y-136788434D01*
X195522380Y-136782204D01*
X195568158Y-136782011D01*
X195706556Y-136786849D01*
X195783952Y-136803557D01*
X195803239Y-136836762D01*
X196346457Y-136836762D01*
X196389566Y-136776345D01*
X196454115Y-136690874D01*
X195096456Y-136690874D01*
X195070322Y-136727487D01*
X194999398Y-136788066D01*
X194894894Y-136864978D01*
X194768024Y-136950589D01*
X194630000Y-137037265D01*
X194492035Y-137117374D01*
X194393284Y-137169586D01*
X194264351Y-137229385D01*
X194108939Y-137294362D01*
X193941082Y-137359455D01*
X193774817Y-137419603D01*
X193624183Y-137469744D01*
X193503214Y-137504817D01*
X193425949Y-137519758D01*
X193421718Y-137519941D01*
X193396081Y-137507792D01*
X193374946Y-137463532D01*
X193355470Y-137377250D01*
X193334814Y-137239037D01*
X193329561Y-137198580D01*
X193288470Y-136876147D01*
X193376163Y-136749606D01*
X193500708Y-136607961D01*
X193675765Y-136463860D01*
X193888701Y-136326975D01*
X194019367Y-136257282D01*
X194185793Y-136180583D01*
X194345709Y-136117592D01*
X194420630Y-136093539D01*
X193772517Y-136093539D01*
X193632954Y-136181833D01*
X193532658Y-136256394D01*
X193419597Y-136357649D01*
X193305986Y-136472466D01*
X193204042Y-136587714D01*
X193125979Y-136690263D01*
X193084015Y-136766982D01*
X193081901Y-136774159D01*
X193076121Y-136844445D01*
X193079211Y-136958595D01*
X193090356Y-137096907D01*
X193098000Y-137163506D01*
X193136102Y-137465181D01*
X193015076Y-137572138D01*
X192942693Y-137633742D01*
X192891437Y-137673002D01*
X192877975Y-137680329D01*
X192847838Y-137662286D01*
X192777326Y-137612171D01*
X192762805Y-137601392D01*
X192331392Y-137601392D01*
X192315317Y-137617468D01*
X192299241Y-137601392D01*
X192315317Y-137585316D01*
X192331392Y-137601392D01*
X192762805Y-137601392D01*
X192676736Y-137537503D01*
X192556361Y-137445801D01*
X192547479Y-137438953D01*
X192340303Y-137272114D01*
X192187789Y-137128437D01*
X192089891Y-137000309D01*
X192046563Y-136880114D01*
X192057758Y-136760238D01*
X192123430Y-136633066D01*
X192243534Y-136490984D01*
X192418023Y-136326378D01*
X192540111Y-136220983D01*
X192728718Y-136062259D01*
X192876513Y-135940911D01*
X192991098Y-135851992D01*
X193080075Y-135790557D01*
X193151046Y-135751660D01*
X193211612Y-135730354D01*
X193269376Y-135721696D01*
X193309358Y-135720506D01*
X193428796Y-135734998D01*
X193528011Y-135785154D01*
X193622663Y-135880998D01*
X193678357Y-135956681D01*
X193772517Y-136093539D01*
X194420630Y-136093539D01*
X194486326Y-136072448D01*
X194594855Y-136049290D01*
X194656107Y-136051236D01*
X194690173Y-136083383D01*
X194748914Y-136156484D01*
X194822973Y-136256945D01*
X194902993Y-136371174D01*
X194979618Y-136485581D01*
X195043489Y-136586572D01*
X195085250Y-136660557D01*
X195096456Y-136690874D01*
X196454115Y-136690874D01*
X196557675Y-136553749D01*
X196706606Y-136370289D01*
X196756203Y-136315316D01*
X196414684Y-136315316D01*
X196398608Y-136331392D01*
X196382532Y-136315316D01*
X196398608Y-136299240D01*
X196414684Y-136315316D01*
X196756203Y-136315316D01*
X196832056Y-136231243D01*
X196929722Y-136141888D01*
X196937593Y-136136035D01*
X197039766Y-136072943D01*
X197134655Y-136042559D01*
X197229217Y-136048222D01*
X197330409Y-136093273D01*
X197445186Y-136181053D01*
X197580507Y-136314903D01*
X197743326Y-136498163D01*
X197779017Y-136540111D01*
X197901555Y-136686227D01*
X198015001Y-136823973D01*
X198110281Y-136942147D01*
X198178322Y-137029549D01*
X198202605Y-137063014D01*
X198263978Y-137198552D01*
X198279258Y-137342954D01*
X198534607Y-137342954D01*
X198536180Y-137310786D01*
X198522024Y-137140277D01*
X198481218Y-137007826D01*
X198479871Y-137005150D01*
X198441552Y-136945927D01*
X198368878Y-136847735D01*
X198269461Y-136720323D01*
X198150916Y-136573440D01*
X198020856Y-136416838D01*
X198015339Y-136410293D01*
X197854310Y-136222129D01*
X197724247Y-136078389D01*
X197616873Y-135972553D01*
X197523909Y-135898104D01*
X197437080Y-135848524D01*
X197348107Y-135817295D01*
X197248714Y-135797898D01*
X197235234Y-135795994D01*
X197094559Y-135792523D01*
X196961885Y-135826607D01*
X196824903Y-135903813D01*
X196671309Y-136029710D01*
X196627101Y-136071138D01*
X196525560Y-136167130D01*
X196462398Y-136222271D01*
X196430222Y-136240875D01*
X196421638Y-136227255D01*
X196429011Y-136186709D01*
X196464751Y-136015938D01*
X196488856Y-135850848D01*
X196499034Y-135712805D01*
X196242095Y-135712805D01*
X196235752Y-135800553D01*
X196221767Y-135887285D01*
X196203080Y-135975067D01*
X196173817Y-136092274D01*
X196138129Y-136224525D01*
X196100164Y-136357442D01*
X196064072Y-136476647D01*
X196034005Y-136567760D01*
X196014110Y-136616402D01*
X196010084Y-136620759D01*
X195980036Y-136609672D01*
X195912139Y-136582097D01*
X195889136Y-136572532D01*
X195786747Y-136545339D01*
X195645409Y-136528338D01*
X195532258Y-136524304D01*
X195290805Y-136524304D01*
X195064627Y-136187191D01*
X194972006Y-136053797D01*
X194885301Y-135937253D01*
X194814017Y-135849810D01*
X194767659Y-135803720D01*
X194766503Y-135802939D01*
X194700261Y-135776706D01*
X194611336Y-135776545D01*
X194486209Y-135803498D01*
X194392270Y-135831790D01*
X194349530Y-135842915D01*
X194328326Y-135832185D01*
X194323995Y-135786402D01*
X194331871Y-135692366D01*
X194334363Y-135667956D01*
X194351573Y-135551307D01*
X194381733Y-135472192D01*
X194436990Y-135403849D01*
X194467380Y-135374873D01*
X194537783Y-135316224D01*
X194602367Y-135284876D01*
X194686221Y-135272541D01*
X194782503Y-135270791D01*
X194887717Y-135273989D01*
X195039283Y-135282492D01*
X195219574Y-135295136D01*
X195410967Y-135310753D01*
X195479864Y-135316940D01*
X195693201Y-135338423D01*
X195852935Y-135360565D01*
X195969686Y-135387324D01*
X196054070Y-135422658D01*
X196116705Y-135470526D01*
X196168209Y-135534887D01*
X196199439Y-135585203D01*
X196230558Y-135648682D01*
X196242095Y-135712805D01*
X196499034Y-135712805D01*
X196499238Y-135710043D01*
X196493808Y-135612126D01*
X196493609Y-135611146D01*
X196432272Y-135453421D01*
X196323186Y-135307135D01*
X196182178Y-135193379D01*
X196178420Y-135191157D01*
X196115506Y-135158245D01*
X196046249Y-135132684D01*
X195958415Y-135112035D01*
X195839770Y-135093857D01*
X195678081Y-135075710D01*
X195526624Y-135061153D01*
X195246966Y-135036800D01*
X195022473Y-135021234D01*
X194844585Y-135014645D01*
X194704742Y-135017220D01*
G36*
X194709253Y-138998936D02*
X194481327Y-139046923D01*
X194281505Y-139122104D01*
X194122510Y-139223855D01*
X194070440Y-139274963D01*
X193999959Y-139376376D01*
X193957013Y-139480773D01*
X193946960Y-139570155D01*
X193967664Y-139620272D01*
X194012094Y-139635918D01*
X194094799Y-139623795D01*
X194170310Y-139601901D01*
X194269155Y-139572550D01*
X194328189Y-139564795D01*
X194368132Y-139578535D01*
X194395727Y-139600794D01*
X194450728Y-139634780D01*
X194512961Y-139625482D01*
X194537527Y-139615037D01*
X194611838Y-139592996D01*
X194664501Y-139612668D01*
X194666956Y-139614663D01*
X194719443Y-139636409D01*
X194792212Y-139616177D01*
X194795563Y-139614663D01*
X194869576Y-139592916D01*
X194922318Y-139613149D01*
X194924171Y-139614663D01*
X194976658Y-139636409D01*
X195049427Y-139616177D01*
X195052779Y-139614663D01*
X195126791Y-139592916D01*
X195179533Y-139613149D01*
X195181386Y-139614663D01*
X195236047Y-139636333D01*
X195307286Y-139615897D01*
X195387435Y-139595581D01*
X195447863Y-139616934D01*
X195505928Y-139636684D01*
X195570761Y-139613005D01*
X195589437Y-139601288D01*
X195650639Y-139568722D01*
X195706751Y-139567826D01*
X195784469Y-139595523D01*
X195894994Y-139634173D01*
X195967834Y-139637667D01*
X196019030Y-139606185D01*
X196026029Y-139598222D01*
X196043098Y-139531626D01*
X196019825Y-139438754D01*
X195964155Y-139335799D01*
X195884031Y-139238954D01*
X195825160Y-139188792D01*
X195647551Y-139091433D01*
X195434433Y-139024393D01*
X195198529Y-138987046D01*
X194952561Y-138978769D01*
X194709253Y-138998936D01*
X194709253Y-138998936D01*
G37*
X194709253Y-138998936D02*
X194481327Y-139046923D01*
X194281505Y-139122104D01*
X194122510Y-139223855D01*
X194070440Y-139274963D01*
X193999959Y-139376376D01*
X193957013Y-139480773D01*
X193946960Y-139570155D01*
X193967664Y-139620272D01*
X194012094Y-139635918D01*
X194094799Y-139623795D01*
X194170310Y-139601901D01*
X194269155Y-139572550D01*
X194328189Y-139564795D01*
X194368132Y-139578535D01*
X194395727Y-139600794D01*
X194450728Y-139634780D01*
X194512961Y-139625482D01*
X194537527Y-139615037D01*
X194611838Y-139592996D01*
X194664501Y-139612668D01*
X194666956Y-139614663D01*
X194719443Y-139636409D01*
X194792212Y-139616177D01*
X194795563Y-139614663D01*
X194869576Y-139592916D01*
X194922318Y-139613149D01*
X194924171Y-139614663D01*
X194976658Y-139636409D01*
X195049427Y-139616177D01*
X195052779Y-139614663D01*
X195126791Y-139592916D01*
X195179533Y-139613149D01*
X195181386Y-139614663D01*
X195236047Y-139636333D01*
X195307286Y-139615897D01*
X195387435Y-139595581D01*
X195447863Y-139616934D01*
X195505928Y-139636684D01*
X195570761Y-139613005D01*
X195589437Y-139601288D01*
X195650639Y-139568722D01*
X195706751Y-139567826D01*
X195784469Y-139595523D01*
X195894994Y-139634173D01*
X195967834Y-139637667D01*
X196019030Y-139606185D01*
X196026029Y-139598222D01*
X196043098Y-139531626D01*
X196019825Y-139438754D01*
X195964155Y-139335799D01*
X195884031Y-139238954D01*
X195825160Y-139188792D01*
X195647551Y-139091433D01*
X195434433Y-139024393D01*
X195198529Y-138987046D01*
X194952561Y-138978769D01*
X194709253Y-138998936D01*
G36*
X195384579Y-138102050D02*
X195320816Y-138178236D01*
X195288824Y-138287864D01*
X195288420Y-138292658D01*
X195290858Y-138462073D01*
X195324061Y-138591882D01*
X195383715Y-138676480D01*
X195465505Y-138710259D01*
X195565118Y-138687612D01*
X195584361Y-138677255D01*
X195649234Y-138605552D01*
X195686395Y-138494933D01*
X195694352Y-138365199D01*
X195671611Y-138236150D01*
X195624982Y-138138829D01*
X195550814Y-138075878D01*
X195465962Y-138065775D01*
X195384579Y-138102050D01*
X195384579Y-138102050D01*
G37*
X195384579Y-138102050D02*
X195320816Y-138178236D01*
X195288824Y-138287864D01*
X195288420Y-138292658D01*
X195290858Y-138462073D01*
X195324061Y-138591882D01*
X195383715Y-138676480D01*
X195465505Y-138710259D01*
X195565118Y-138687612D01*
X195584361Y-138677255D01*
X195649234Y-138605552D01*
X195686395Y-138494933D01*
X195694352Y-138365199D01*
X195671611Y-138236150D01*
X195624982Y-138138829D01*
X195550814Y-138075878D01*
X195465962Y-138065775D01*
X195384579Y-138102050D01*
G36*
X194470029Y-138112365D02*
X194420850Y-138173677D01*
X194396465Y-138245824D01*
X194389201Y-138353520D01*
X194389114Y-138373038D01*
X194394700Y-138488308D01*
X194416419Y-138564260D01*
X194461715Y-138625288D01*
X194468032Y-138631715D01*
X194530967Y-138688576D01*
X194580545Y-138704665D01*
X194646566Y-138686879D01*
X194668642Y-138678145D01*
X194733327Y-138620631D01*
X194776929Y-138520975D01*
X194797151Y-138398531D01*
X194791696Y-138272655D01*
X194758265Y-138162702D01*
X194734338Y-138124655D01*
X194651035Y-138059340D01*
X194558803Y-138056075D01*
X194470029Y-138112365D01*
X194470029Y-138112365D01*
G37*
X194470029Y-138112365D02*
X194420850Y-138173677D01*
X194396465Y-138245824D01*
X194389201Y-138353520D01*
X194389114Y-138373038D01*
X194394700Y-138488308D01*
X194416419Y-138564260D01*
X194461715Y-138625288D01*
X194468032Y-138631715D01*
X194530967Y-138688576D01*
X194580545Y-138704665D01*
X194646566Y-138686879D01*
X194668642Y-138678145D01*
X194733327Y-138620631D01*
X194776929Y-138520975D01*
X194797151Y-138398531D01*
X194791696Y-138272655D01*
X194758265Y-138162702D01*
X194734338Y-138124655D01*
X194651035Y-138059340D01*
X194558803Y-138056075D01*
X194470029Y-138112365D01*
G04 #@! TD*
M02*
