G04 #@! TF.GenerationSoftware,KiCad,Pcbnew,5.0.2+dfsg1-1*
G04 #@! TF.CreationDate,2019-07-19T17:38:54+02:00*
G04 #@! TF.ProjectId,AutoGardener_Outdoor,4175746f-4761-4726-9465-6e65725f4f75,rev?*
G04 #@! TF.SameCoordinates,Original*
G04 #@! TF.FileFunction,Copper,L1,Top*
G04 #@! TF.FilePolarity,Positive*
%FSLAX46Y46*%
G04 Gerber Fmt 4.6, Leading zero omitted, Abs format (unit mm)*
G04 Created by KiCad (PCBNEW 5.0.2+dfsg1-1) date Pá 19. července 2019, 17:38:54 CEST*
%MOMM*%
%LPD*%
G01*
G04 APERTURE LIST*
G04 #@! TA.AperFunction,SMDPad,CuDef*
%ADD10R,0.900000X0.800000*%
G04 #@! TD*
G04 #@! TA.AperFunction,ComponentPad*
%ADD11O,1.700000X1.700000*%
G04 #@! TD*
G04 #@! TA.AperFunction,ComponentPad*
%ADD12R,1.700000X1.700000*%
G04 #@! TD*
G04 #@! TA.AperFunction,SMDPad,CuDef*
%ADD13R,1.150000X1.400000*%
G04 #@! TD*
G04 #@! TA.AperFunction,Conductor*
%ADD14C,0.100000*%
G04 #@! TD*
G04 #@! TA.AperFunction,SMDPad,CuDef*
%ADD15C,0.875000*%
G04 #@! TD*
G04 #@! TA.AperFunction,SMDPad,CuDef*
%ADD16R,0.875000X0.950000*%
G04 #@! TD*
G04 #@! TA.AperFunction,SMDPad,CuDef*
%ADD17C,0.500000*%
G04 #@! TD*
G04 #@! TA.AperFunction,SMDPad,CuDef*
%ADD18R,1.300000X0.550000*%
G04 #@! TD*
G04 #@! TA.AperFunction,SMDPad,CuDef*
%ADD19R,1.600000X0.800000*%
G04 #@! TD*
G04 #@! TA.AperFunction,SMDPad,CuDef*
%ADD20R,3.200000X1.850000*%
G04 #@! TD*
G04 #@! TA.AperFunction,ViaPad*
%ADD21C,0.800000*%
G04 #@! TD*
G04 #@! TA.AperFunction,Conductor*
%ADD22C,0.300000*%
G04 #@! TD*
G04 #@! TA.AperFunction,Conductor*
%ADD23C,0.600000*%
G04 #@! TD*
G04 #@! TA.AperFunction,Conductor*
%ADD24C,0.400000*%
G04 #@! TD*
G04 #@! TA.AperFunction,Conductor*
%ADD25C,0.500000*%
G04 #@! TD*
G04 #@! TA.AperFunction,Conductor*
%ADD26C,0.254000*%
G04 #@! TD*
G04 APERTURE END LIST*
D10*
G04 #@! TO.P,Q1,3*
G04 #@! TO.N,Net-(J3-Pad1)*
X195200000Y-125800000D03*
G04 #@! TO.P,Q1,1*
G04 #@! TO.N,/SENS_ENA*
X197200000Y-126750000D03*
G04 #@! TO.P,Q1,2*
G04 #@! TO.N,GND*
X197200000Y-124850000D03*
G04 #@! TD*
D11*
G04 #@! TO.P,BAT1,2*
G04 #@! TO.N,GND*
X182460000Y-148000000D03*
D12*
G04 #@! TO.P,BAT1,1*
G04 #@! TO.N,+5V*
X185000000Y-148000000D03*
G04 #@! TD*
G04 #@! TO.P,J4,1*
G04 #@! TO.N,+5V*
X188750000Y-148000000D03*
D11*
G04 #@! TO.P,J4,2*
G04 #@! TO.N,Net-(J4-Pad2)*
X191290000Y-148000000D03*
G04 #@! TD*
G04 #@! TO.P,J2,3*
G04 #@! TO.N,GND*
X200000000Y-148080000D03*
G04 #@! TO.P,J2,2*
G04 #@! TO.N,/UART_TX*
X200000000Y-145540000D03*
D12*
G04 #@! TO.P,J2,1*
G04 #@! TO.N,/UART_RX*
X200000000Y-143000000D03*
G04 #@! TD*
G04 #@! TO.P,J3,1*
G04 #@! TO.N,Net-(J3-Pad1)*
X193500000Y-122000000D03*
D11*
G04 #@! TO.P,J3,2*
G04 #@! TO.N,VCC*
X190960000Y-122000000D03*
G04 #@! TO.P,J3,3*
G04 #@! TO.N,/ADC_SOIL1*
X188420000Y-122000000D03*
G04 #@! TD*
D12*
G04 #@! TO.P,J1,1*
G04 #@! TO.N,VCC*
X200000000Y-128000000D03*
D11*
G04 #@! TO.P,J1,2*
G04 #@! TO.N,/SWCLK*
X200000000Y-130540000D03*
G04 #@! TO.P,J1,3*
G04 #@! TO.N,GND*
X200000000Y-133080000D03*
G04 #@! TO.P,J1,4*
G04 #@! TO.N,/SWDIO*
X200000000Y-135620000D03*
G04 #@! TO.P,J1,5*
G04 #@! TO.N,/NRST*
X200000000Y-138160000D03*
G04 #@! TD*
D13*
G04 #@! TO.P,LD3,2*
G04 #@! TO.N,Net-(LD3-Pad2)*
X192975000Y-143000000D03*
G04 #@! TO.P,LD3,1*
G04 #@! TO.N,GND*
X195025000Y-143000000D03*
G04 #@! TD*
G04 #@! TO.P,LD13,1*
G04 #@! TO.N,GND*
X195025000Y-139000000D03*
G04 #@! TO.P,LD13,2*
G04 #@! TO.N,Net-(LD13-Pad2)*
X192975000Y-139000000D03*
G04 #@! TD*
D14*
G04 #@! TO.N,VCC*
G04 #@! TO.C,C1*
G36*
X184627691Y-127726053D02*
X184648926Y-127729203D01*
X184669750Y-127734419D01*
X184689962Y-127741651D01*
X184709368Y-127750830D01*
X184727781Y-127761866D01*
X184745024Y-127774654D01*
X184760930Y-127789070D01*
X184775346Y-127804976D01*
X184788134Y-127822219D01*
X184799170Y-127840632D01*
X184808349Y-127860038D01*
X184815581Y-127880250D01*
X184820797Y-127901074D01*
X184823947Y-127922309D01*
X184825000Y-127943750D01*
X184825000Y-128456250D01*
X184823947Y-128477691D01*
X184820797Y-128498926D01*
X184815581Y-128519750D01*
X184808349Y-128539962D01*
X184799170Y-128559368D01*
X184788134Y-128577781D01*
X184775346Y-128595024D01*
X184760930Y-128610930D01*
X184745024Y-128625346D01*
X184727781Y-128638134D01*
X184709368Y-128649170D01*
X184689962Y-128658349D01*
X184669750Y-128665581D01*
X184648926Y-128670797D01*
X184627691Y-128673947D01*
X184606250Y-128675000D01*
X184168750Y-128675000D01*
X184147309Y-128673947D01*
X184126074Y-128670797D01*
X184105250Y-128665581D01*
X184085038Y-128658349D01*
X184065632Y-128649170D01*
X184047219Y-128638134D01*
X184029976Y-128625346D01*
X184014070Y-128610930D01*
X183999654Y-128595024D01*
X183986866Y-128577781D01*
X183975830Y-128559368D01*
X183966651Y-128539962D01*
X183959419Y-128519750D01*
X183954203Y-128498926D01*
X183951053Y-128477691D01*
X183950000Y-128456250D01*
X183950000Y-127943750D01*
X183951053Y-127922309D01*
X183954203Y-127901074D01*
X183959419Y-127880250D01*
X183966651Y-127860038D01*
X183975830Y-127840632D01*
X183986866Y-127822219D01*
X183999654Y-127804976D01*
X184014070Y-127789070D01*
X184029976Y-127774654D01*
X184047219Y-127761866D01*
X184065632Y-127750830D01*
X184085038Y-127741651D01*
X184105250Y-127734419D01*
X184126074Y-127729203D01*
X184147309Y-127726053D01*
X184168750Y-127725000D01*
X184606250Y-127725000D01*
X184627691Y-127726053D01*
X184627691Y-127726053D01*
G37*
D15*
G04 #@! TD*
G04 #@! TO.P,C1,1*
G04 #@! TO.N,VCC*
X184387500Y-128200000D03*
D14*
G04 #@! TO.N,GND*
G04 #@! TO.C,C1*
G36*
X183052691Y-127726053D02*
X183073926Y-127729203D01*
X183094750Y-127734419D01*
X183114962Y-127741651D01*
X183134368Y-127750830D01*
X183152781Y-127761866D01*
X183170024Y-127774654D01*
X183185930Y-127789070D01*
X183200346Y-127804976D01*
X183213134Y-127822219D01*
X183224170Y-127840632D01*
X183233349Y-127860038D01*
X183240581Y-127880250D01*
X183245797Y-127901074D01*
X183248947Y-127922309D01*
X183250000Y-127943750D01*
X183250000Y-128456250D01*
X183248947Y-128477691D01*
X183245797Y-128498926D01*
X183240581Y-128519750D01*
X183233349Y-128539962D01*
X183224170Y-128559368D01*
X183213134Y-128577781D01*
X183200346Y-128595024D01*
X183185930Y-128610930D01*
X183170024Y-128625346D01*
X183152781Y-128638134D01*
X183134368Y-128649170D01*
X183114962Y-128658349D01*
X183094750Y-128665581D01*
X183073926Y-128670797D01*
X183052691Y-128673947D01*
X183031250Y-128675000D01*
X182593750Y-128675000D01*
X182572309Y-128673947D01*
X182551074Y-128670797D01*
X182530250Y-128665581D01*
X182510038Y-128658349D01*
X182490632Y-128649170D01*
X182472219Y-128638134D01*
X182454976Y-128625346D01*
X182439070Y-128610930D01*
X182424654Y-128595024D01*
X182411866Y-128577781D01*
X182400830Y-128559368D01*
X182391651Y-128539962D01*
X182384419Y-128519750D01*
X182379203Y-128498926D01*
X182376053Y-128477691D01*
X182375000Y-128456250D01*
X182375000Y-127943750D01*
X182376053Y-127922309D01*
X182379203Y-127901074D01*
X182384419Y-127880250D01*
X182391651Y-127860038D01*
X182400830Y-127840632D01*
X182411866Y-127822219D01*
X182424654Y-127804976D01*
X182439070Y-127789070D01*
X182454976Y-127774654D01*
X182472219Y-127761866D01*
X182490632Y-127750830D01*
X182510038Y-127741651D01*
X182530250Y-127734419D01*
X182551074Y-127729203D01*
X182572309Y-127726053D01*
X182593750Y-127725000D01*
X183031250Y-127725000D01*
X183052691Y-127726053D01*
X183052691Y-127726053D01*
G37*
D15*
G04 #@! TD*
G04 #@! TO.P,C1,2*
G04 #@! TO.N,GND*
X182812500Y-128200000D03*
D14*
G04 #@! TO.N,GND*
G04 #@! TO.C,C2*
G36*
X183052691Y-130926053D02*
X183073926Y-130929203D01*
X183094750Y-130934419D01*
X183114962Y-130941651D01*
X183134368Y-130950830D01*
X183152781Y-130961866D01*
X183170024Y-130974654D01*
X183185930Y-130989070D01*
X183200346Y-131004976D01*
X183213134Y-131022219D01*
X183224170Y-131040632D01*
X183233349Y-131060038D01*
X183240581Y-131080250D01*
X183245797Y-131101074D01*
X183248947Y-131122309D01*
X183250000Y-131143750D01*
X183250000Y-131656250D01*
X183248947Y-131677691D01*
X183245797Y-131698926D01*
X183240581Y-131719750D01*
X183233349Y-131739962D01*
X183224170Y-131759368D01*
X183213134Y-131777781D01*
X183200346Y-131795024D01*
X183185930Y-131810930D01*
X183170024Y-131825346D01*
X183152781Y-131838134D01*
X183134368Y-131849170D01*
X183114962Y-131858349D01*
X183094750Y-131865581D01*
X183073926Y-131870797D01*
X183052691Y-131873947D01*
X183031250Y-131875000D01*
X182593750Y-131875000D01*
X182572309Y-131873947D01*
X182551074Y-131870797D01*
X182530250Y-131865581D01*
X182510038Y-131858349D01*
X182490632Y-131849170D01*
X182472219Y-131838134D01*
X182454976Y-131825346D01*
X182439070Y-131810930D01*
X182424654Y-131795024D01*
X182411866Y-131777781D01*
X182400830Y-131759368D01*
X182391651Y-131739962D01*
X182384419Y-131719750D01*
X182379203Y-131698926D01*
X182376053Y-131677691D01*
X182375000Y-131656250D01*
X182375000Y-131143750D01*
X182376053Y-131122309D01*
X182379203Y-131101074D01*
X182384419Y-131080250D01*
X182391651Y-131060038D01*
X182400830Y-131040632D01*
X182411866Y-131022219D01*
X182424654Y-131004976D01*
X182439070Y-130989070D01*
X182454976Y-130974654D01*
X182472219Y-130961866D01*
X182490632Y-130950830D01*
X182510038Y-130941651D01*
X182530250Y-130934419D01*
X182551074Y-130929203D01*
X182572309Y-130926053D01*
X182593750Y-130925000D01*
X183031250Y-130925000D01*
X183052691Y-130926053D01*
X183052691Y-130926053D01*
G37*
D15*
G04 #@! TD*
G04 #@! TO.P,C2,2*
G04 #@! TO.N,GND*
X182812500Y-131400000D03*
D14*
G04 #@! TO.N,VCC*
G04 #@! TO.C,C2*
G36*
X184627691Y-130926053D02*
X184648926Y-130929203D01*
X184669750Y-130934419D01*
X184689962Y-130941651D01*
X184709368Y-130950830D01*
X184727781Y-130961866D01*
X184745024Y-130974654D01*
X184760930Y-130989070D01*
X184775346Y-131004976D01*
X184788134Y-131022219D01*
X184799170Y-131040632D01*
X184808349Y-131060038D01*
X184815581Y-131080250D01*
X184820797Y-131101074D01*
X184823947Y-131122309D01*
X184825000Y-131143750D01*
X184825000Y-131656250D01*
X184823947Y-131677691D01*
X184820797Y-131698926D01*
X184815581Y-131719750D01*
X184808349Y-131739962D01*
X184799170Y-131759368D01*
X184788134Y-131777781D01*
X184775346Y-131795024D01*
X184760930Y-131810930D01*
X184745024Y-131825346D01*
X184727781Y-131838134D01*
X184709368Y-131849170D01*
X184689962Y-131858349D01*
X184669750Y-131865581D01*
X184648926Y-131870797D01*
X184627691Y-131873947D01*
X184606250Y-131875000D01*
X184168750Y-131875000D01*
X184147309Y-131873947D01*
X184126074Y-131870797D01*
X184105250Y-131865581D01*
X184085038Y-131858349D01*
X184065632Y-131849170D01*
X184047219Y-131838134D01*
X184029976Y-131825346D01*
X184014070Y-131810930D01*
X183999654Y-131795024D01*
X183986866Y-131777781D01*
X183975830Y-131759368D01*
X183966651Y-131739962D01*
X183959419Y-131719750D01*
X183954203Y-131698926D01*
X183951053Y-131677691D01*
X183950000Y-131656250D01*
X183950000Y-131143750D01*
X183951053Y-131122309D01*
X183954203Y-131101074D01*
X183959419Y-131080250D01*
X183966651Y-131060038D01*
X183975830Y-131040632D01*
X183986866Y-131022219D01*
X183999654Y-131004976D01*
X184014070Y-130989070D01*
X184029976Y-130974654D01*
X184047219Y-130961866D01*
X184065632Y-130950830D01*
X184085038Y-130941651D01*
X184105250Y-130934419D01*
X184126074Y-130929203D01*
X184147309Y-130926053D01*
X184168750Y-130925000D01*
X184606250Y-130925000D01*
X184627691Y-130926053D01*
X184627691Y-130926053D01*
G37*
D15*
G04 #@! TD*
G04 #@! TO.P,C2,1*
G04 #@! TO.N,VCC*
X184387500Y-131400000D03*
D14*
G04 #@! TO.N,VCC*
G04 #@! TO.C,C3*
G36*
X195277691Y-134776053D02*
X195298926Y-134779203D01*
X195319750Y-134784419D01*
X195339962Y-134791651D01*
X195359368Y-134800830D01*
X195377781Y-134811866D01*
X195395024Y-134824654D01*
X195410930Y-134839070D01*
X195425346Y-134854976D01*
X195438134Y-134872219D01*
X195449170Y-134890632D01*
X195458349Y-134910038D01*
X195465581Y-134930250D01*
X195470797Y-134951074D01*
X195473947Y-134972309D01*
X195475000Y-134993750D01*
X195475000Y-135431250D01*
X195473947Y-135452691D01*
X195470797Y-135473926D01*
X195465581Y-135494750D01*
X195458349Y-135514962D01*
X195449170Y-135534368D01*
X195438134Y-135552781D01*
X195425346Y-135570024D01*
X195410930Y-135585930D01*
X195395024Y-135600346D01*
X195377781Y-135613134D01*
X195359368Y-135624170D01*
X195339962Y-135633349D01*
X195319750Y-135640581D01*
X195298926Y-135645797D01*
X195277691Y-135648947D01*
X195256250Y-135650000D01*
X194743750Y-135650000D01*
X194722309Y-135648947D01*
X194701074Y-135645797D01*
X194680250Y-135640581D01*
X194660038Y-135633349D01*
X194640632Y-135624170D01*
X194622219Y-135613134D01*
X194604976Y-135600346D01*
X194589070Y-135585930D01*
X194574654Y-135570024D01*
X194561866Y-135552781D01*
X194550830Y-135534368D01*
X194541651Y-135514962D01*
X194534419Y-135494750D01*
X194529203Y-135473926D01*
X194526053Y-135452691D01*
X194525000Y-135431250D01*
X194525000Y-134993750D01*
X194526053Y-134972309D01*
X194529203Y-134951074D01*
X194534419Y-134930250D01*
X194541651Y-134910038D01*
X194550830Y-134890632D01*
X194561866Y-134872219D01*
X194574654Y-134854976D01*
X194589070Y-134839070D01*
X194604976Y-134824654D01*
X194622219Y-134811866D01*
X194640632Y-134800830D01*
X194660038Y-134791651D01*
X194680250Y-134784419D01*
X194701074Y-134779203D01*
X194722309Y-134776053D01*
X194743750Y-134775000D01*
X195256250Y-134775000D01*
X195277691Y-134776053D01*
X195277691Y-134776053D01*
G37*
D15*
G04 #@! TD*
G04 #@! TO.P,C3,1*
G04 #@! TO.N,VCC*
X195000000Y-135212500D03*
D14*
G04 #@! TO.N,GND*
G04 #@! TO.C,C3*
G36*
X195277691Y-136351053D02*
X195298926Y-136354203D01*
X195319750Y-136359419D01*
X195339962Y-136366651D01*
X195359368Y-136375830D01*
X195377781Y-136386866D01*
X195395024Y-136399654D01*
X195410930Y-136414070D01*
X195425346Y-136429976D01*
X195438134Y-136447219D01*
X195449170Y-136465632D01*
X195458349Y-136485038D01*
X195465581Y-136505250D01*
X195470797Y-136526074D01*
X195473947Y-136547309D01*
X195475000Y-136568750D01*
X195475000Y-137006250D01*
X195473947Y-137027691D01*
X195470797Y-137048926D01*
X195465581Y-137069750D01*
X195458349Y-137089962D01*
X195449170Y-137109368D01*
X195438134Y-137127781D01*
X195425346Y-137145024D01*
X195410930Y-137160930D01*
X195395024Y-137175346D01*
X195377781Y-137188134D01*
X195359368Y-137199170D01*
X195339962Y-137208349D01*
X195319750Y-137215581D01*
X195298926Y-137220797D01*
X195277691Y-137223947D01*
X195256250Y-137225000D01*
X194743750Y-137225000D01*
X194722309Y-137223947D01*
X194701074Y-137220797D01*
X194680250Y-137215581D01*
X194660038Y-137208349D01*
X194640632Y-137199170D01*
X194622219Y-137188134D01*
X194604976Y-137175346D01*
X194589070Y-137160930D01*
X194574654Y-137145024D01*
X194561866Y-137127781D01*
X194550830Y-137109368D01*
X194541651Y-137089962D01*
X194534419Y-137069750D01*
X194529203Y-137048926D01*
X194526053Y-137027691D01*
X194525000Y-137006250D01*
X194525000Y-136568750D01*
X194526053Y-136547309D01*
X194529203Y-136526074D01*
X194534419Y-136505250D01*
X194541651Y-136485038D01*
X194550830Y-136465632D01*
X194561866Y-136447219D01*
X194574654Y-136429976D01*
X194589070Y-136414070D01*
X194604976Y-136399654D01*
X194622219Y-136386866D01*
X194640632Y-136375830D01*
X194660038Y-136366651D01*
X194680250Y-136359419D01*
X194701074Y-136354203D01*
X194722309Y-136351053D01*
X194743750Y-136350000D01*
X195256250Y-136350000D01*
X195277691Y-136351053D01*
X195277691Y-136351053D01*
G37*
D15*
G04 #@! TD*
G04 #@! TO.P,C3,2*
G04 #@! TO.N,GND*
X195000000Y-136787500D03*
D14*
G04 #@! TO.N,GND*
G04 #@! TO.C,C4*
G36*
X182702691Y-144776053D02*
X182723926Y-144779203D01*
X182744750Y-144784419D01*
X182764962Y-144791651D01*
X182784368Y-144800830D01*
X182802781Y-144811866D01*
X182820024Y-144824654D01*
X182835930Y-144839070D01*
X182850346Y-144854976D01*
X182863134Y-144872219D01*
X182874170Y-144890632D01*
X182883349Y-144910038D01*
X182890581Y-144930250D01*
X182895797Y-144951074D01*
X182898947Y-144972309D01*
X182900000Y-144993750D01*
X182900000Y-145506250D01*
X182898947Y-145527691D01*
X182895797Y-145548926D01*
X182890581Y-145569750D01*
X182883349Y-145589962D01*
X182874170Y-145609368D01*
X182863134Y-145627781D01*
X182850346Y-145645024D01*
X182835930Y-145660930D01*
X182820024Y-145675346D01*
X182802781Y-145688134D01*
X182784368Y-145699170D01*
X182764962Y-145708349D01*
X182744750Y-145715581D01*
X182723926Y-145720797D01*
X182702691Y-145723947D01*
X182681250Y-145725000D01*
X182243750Y-145725000D01*
X182222309Y-145723947D01*
X182201074Y-145720797D01*
X182180250Y-145715581D01*
X182160038Y-145708349D01*
X182140632Y-145699170D01*
X182122219Y-145688134D01*
X182104976Y-145675346D01*
X182089070Y-145660930D01*
X182074654Y-145645024D01*
X182061866Y-145627781D01*
X182050830Y-145609368D01*
X182041651Y-145589962D01*
X182034419Y-145569750D01*
X182029203Y-145548926D01*
X182026053Y-145527691D01*
X182025000Y-145506250D01*
X182025000Y-144993750D01*
X182026053Y-144972309D01*
X182029203Y-144951074D01*
X182034419Y-144930250D01*
X182041651Y-144910038D01*
X182050830Y-144890632D01*
X182061866Y-144872219D01*
X182074654Y-144854976D01*
X182089070Y-144839070D01*
X182104976Y-144824654D01*
X182122219Y-144811866D01*
X182140632Y-144800830D01*
X182160038Y-144791651D01*
X182180250Y-144784419D01*
X182201074Y-144779203D01*
X182222309Y-144776053D01*
X182243750Y-144775000D01*
X182681250Y-144775000D01*
X182702691Y-144776053D01*
X182702691Y-144776053D01*
G37*
D15*
G04 #@! TD*
G04 #@! TO.P,C4,2*
G04 #@! TO.N,GND*
X182462500Y-145250000D03*
D14*
G04 #@! TO.N,+5V*
G04 #@! TO.C,C4*
G36*
X184277691Y-144776053D02*
X184298926Y-144779203D01*
X184319750Y-144784419D01*
X184339962Y-144791651D01*
X184359368Y-144800830D01*
X184377781Y-144811866D01*
X184395024Y-144824654D01*
X184410930Y-144839070D01*
X184425346Y-144854976D01*
X184438134Y-144872219D01*
X184449170Y-144890632D01*
X184458349Y-144910038D01*
X184465581Y-144930250D01*
X184470797Y-144951074D01*
X184473947Y-144972309D01*
X184475000Y-144993750D01*
X184475000Y-145506250D01*
X184473947Y-145527691D01*
X184470797Y-145548926D01*
X184465581Y-145569750D01*
X184458349Y-145589962D01*
X184449170Y-145609368D01*
X184438134Y-145627781D01*
X184425346Y-145645024D01*
X184410930Y-145660930D01*
X184395024Y-145675346D01*
X184377781Y-145688134D01*
X184359368Y-145699170D01*
X184339962Y-145708349D01*
X184319750Y-145715581D01*
X184298926Y-145720797D01*
X184277691Y-145723947D01*
X184256250Y-145725000D01*
X183818750Y-145725000D01*
X183797309Y-145723947D01*
X183776074Y-145720797D01*
X183755250Y-145715581D01*
X183735038Y-145708349D01*
X183715632Y-145699170D01*
X183697219Y-145688134D01*
X183679976Y-145675346D01*
X183664070Y-145660930D01*
X183649654Y-145645024D01*
X183636866Y-145627781D01*
X183625830Y-145609368D01*
X183616651Y-145589962D01*
X183609419Y-145569750D01*
X183604203Y-145548926D01*
X183601053Y-145527691D01*
X183600000Y-145506250D01*
X183600000Y-144993750D01*
X183601053Y-144972309D01*
X183604203Y-144951074D01*
X183609419Y-144930250D01*
X183616651Y-144910038D01*
X183625830Y-144890632D01*
X183636866Y-144872219D01*
X183649654Y-144854976D01*
X183664070Y-144839070D01*
X183679976Y-144824654D01*
X183697219Y-144811866D01*
X183715632Y-144800830D01*
X183735038Y-144791651D01*
X183755250Y-144784419D01*
X183776074Y-144779203D01*
X183797309Y-144776053D01*
X183818750Y-144775000D01*
X184256250Y-144775000D01*
X184277691Y-144776053D01*
X184277691Y-144776053D01*
G37*
D15*
G04 #@! TD*
G04 #@! TO.P,C4,1*
G04 #@! TO.N,+5V*
X184037500Y-145250000D03*
D14*
G04 #@! TO.N,+5V*
G04 #@! TO.C,C5*
G36*
X184277691Y-143276053D02*
X184298926Y-143279203D01*
X184319750Y-143284419D01*
X184339962Y-143291651D01*
X184359368Y-143300830D01*
X184377781Y-143311866D01*
X184395024Y-143324654D01*
X184410930Y-143339070D01*
X184425346Y-143354976D01*
X184438134Y-143372219D01*
X184449170Y-143390632D01*
X184458349Y-143410038D01*
X184465581Y-143430250D01*
X184470797Y-143451074D01*
X184473947Y-143472309D01*
X184475000Y-143493750D01*
X184475000Y-144006250D01*
X184473947Y-144027691D01*
X184470797Y-144048926D01*
X184465581Y-144069750D01*
X184458349Y-144089962D01*
X184449170Y-144109368D01*
X184438134Y-144127781D01*
X184425346Y-144145024D01*
X184410930Y-144160930D01*
X184395024Y-144175346D01*
X184377781Y-144188134D01*
X184359368Y-144199170D01*
X184339962Y-144208349D01*
X184319750Y-144215581D01*
X184298926Y-144220797D01*
X184277691Y-144223947D01*
X184256250Y-144225000D01*
X183818750Y-144225000D01*
X183797309Y-144223947D01*
X183776074Y-144220797D01*
X183755250Y-144215581D01*
X183735038Y-144208349D01*
X183715632Y-144199170D01*
X183697219Y-144188134D01*
X183679976Y-144175346D01*
X183664070Y-144160930D01*
X183649654Y-144145024D01*
X183636866Y-144127781D01*
X183625830Y-144109368D01*
X183616651Y-144089962D01*
X183609419Y-144069750D01*
X183604203Y-144048926D01*
X183601053Y-144027691D01*
X183600000Y-144006250D01*
X183600000Y-143493750D01*
X183601053Y-143472309D01*
X183604203Y-143451074D01*
X183609419Y-143430250D01*
X183616651Y-143410038D01*
X183625830Y-143390632D01*
X183636866Y-143372219D01*
X183649654Y-143354976D01*
X183664070Y-143339070D01*
X183679976Y-143324654D01*
X183697219Y-143311866D01*
X183715632Y-143300830D01*
X183735038Y-143291651D01*
X183755250Y-143284419D01*
X183776074Y-143279203D01*
X183797309Y-143276053D01*
X183818750Y-143275000D01*
X184256250Y-143275000D01*
X184277691Y-143276053D01*
X184277691Y-143276053D01*
G37*
D15*
G04 #@! TD*
G04 #@! TO.P,C5,1*
G04 #@! TO.N,+5V*
X184037500Y-143750000D03*
D14*
G04 #@! TO.N,GND*
G04 #@! TO.C,C5*
G36*
X182702691Y-143276053D02*
X182723926Y-143279203D01*
X182744750Y-143284419D01*
X182764962Y-143291651D01*
X182784368Y-143300830D01*
X182802781Y-143311866D01*
X182820024Y-143324654D01*
X182835930Y-143339070D01*
X182850346Y-143354976D01*
X182863134Y-143372219D01*
X182874170Y-143390632D01*
X182883349Y-143410038D01*
X182890581Y-143430250D01*
X182895797Y-143451074D01*
X182898947Y-143472309D01*
X182900000Y-143493750D01*
X182900000Y-144006250D01*
X182898947Y-144027691D01*
X182895797Y-144048926D01*
X182890581Y-144069750D01*
X182883349Y-144089962D01*
X182874170Y-144109368D01*
X182863134Y-144127781D01*
X182850346Y-144145024D01*
X182835930Y-144160930D01*
X182820024Y-144175346D01*
X182802781Y-144188134D01*
X182784368Y-144199170D01*
X182764962Y-144208349D01*
X182744750Y-144215581D01*
X182723926Y-144220797D01*
X182702691Y-144223947D01*
X182681250Y-144225000D01*
X182243750Y-144225000D01*
X182222309Y-144223947D01*
X182201074Y-144220797D01*
X182180250Y-144215581D01*
X182160038Y-144208349D01*
X182140632Y-144199170D01*
X182122219Y-144188134D01*
X182104976Y-144175346D01*
X182089070Y-144160930D01*
X182074654Y-144145024D01*
X182061866Y-144127781D01*
X182050830Y-144109368D01*
X182041651Y-144089962D01*
X182034419Y-144069750D01*
X182029203Y-144048926D01*
X182026053Y-144027691D01*
X182025000Y-144006250D01*
X182025000Y-143493750D01*
X182026053Y-143472309D01*
X182029203Y-143451074D01*
X182034419Y-143430250D01*
X182041651Y-143410038D01*
X182050830Y-143390632D01*
X182061866Y-143372219D01*
X182074654Y-143354976D01*
X182089070Y-143339070D01*
X182104976Y-143324654D01*
X182122219Y-143311866D01*
X182140632Y-143300830D01*
X182160038Y-143291651D01*
X182180250Y-143284419D01*
X182201074Y-143279203D01*
X182222309Y-143276053D01*
X182243750Y-143275000D01*
X182681250Y-143275000D01*
X182702691Y-143276053D01*
X182702691Y-143276053D01*
G37*
D15*
G04 #@! TD*
G04 #@! TO.P,C5,2*
G04 #@! TO.N,GND*
X182462500Y-143750000D03*
D14*
G04 #@! TO.N,GND*
G04 #@! TO.C,C7*
G36*
X182702691Y-136276053D02*
X182723926Y-136279203D01*
X182744750Y-136284419D01*
X182764962Y-136291651D01*
X182784368Y-136300830D01*
X182802781Y-136311866D01*
X182820024Y-136324654D01*
X182835930Y-136339070D01*
X182850346Y-136354976D01*
X182863134Y-136372219D01*
X182874170Y-136390632D01*
X182883349Y-136410038D01*
X182890581Y-136430250D01*
X182895797Y-136451074D01*
X182898947Y-136472309D01*
X182900000Y-136493750D01*
X182900000Y-137006250D01*
X182898947Y-137027691D01*
X182895797Y-137048926D01*
X182890581Y-137069750D01*
X182883349Y-137089962D01*
X182874170Y-137109368D01*
X182863134Y-137127781D01*
X182850346Y-137145024D01*
X182835930Y-137160930D01*
X182820024Y-137175346D01*
X182802781Y-137188134D01*
X182784368Y-137199170D01*
X182764962Y-137208349D01*
X182744750Y-137215581D01*
X182723926Y-137220797D01*
X182702691Y-137223947D01*
X182681250Y-137225000D01*
X182243750Y-137225000D01*
X182222309Y-137223947D01*
X182201074Y-137220797D01*
X182180250Y-137215581D01*
X182160038Y-137208349D01*
X182140632Y-137199170D01*
X182122219Y-137188134D01*
X182104976Y-137175346D01*
X182089070Y-137160930D01*
X182074654Y-137145024D01*
X182061866Y-137127781D01*
X182050830Y-137109368D01*
X182041651Y-137089962D01*
X182034419Y-137069750D01*
X182029203Y-137048926D01*
X182026053Y-137027691D01*
X182025000Y-137006250D01*
X182025000Y-136493750D01*
X182026053Y-136472309D01*
X182029203Y-136451074D01*
X182034419Y-136430250D01*
X182041651Y-136410038D01*
X182050830Y-136390632D01*
X182061866Y-136372219D01*
X182074654Y-136354976D01*
X182089070Y-136339070D01*
X182104976Y-136324654D01*
X182122219Y-136311866D01*
X182140632Y-136300830D01*
X182160038Y-136291651D01*
X182180250Y-136284419D01*
X182201074Y-136279203D01*
X182222309Y-136276053D01*
X182243750Y-136275000D01*
X182681250Y-136275000D01*
X182702691Y-136276053D01*
X182702691Y-136276053D01*
G37*
D15*
G04 #@! TD*
G04 #@! TO.P,C7,2*
G04 #@! TO.N,GND*
X182462500Y-136750000D03*
D14*
G04 #@! TO.N,VCC*
G04 #@! TO.C,C7*
G36*
X184277691Y-136276053D02*
X184298926Y-136279203D01*
X184319750Y-136284419D01*
X184339962Y-136291651D01*
X184359368Y-136300830D01*
X184377781Y-136311866D01*
X184395024Y-136324654D01*
X184410930Y-136339070D01*
X184425346Y-136354976D01*
X184438134Y-136372219D01*
X184449170Y-136390632D01*
X184458349Y-136410038D01*
X184465581Y-136430250D01*
X184470797Y-136451074D01*
X184473947Y-136472309D01*
X184475000Y-136493750D01*
X184475000Y-137006250D01*
X184473947Y-137027691D01*
X184470797Y-137048926D01*
X184465581Y-137069750D01*
X184458349Y-137089962D01*
X184449170Y-137109368D01*
X184438134Y-137127781D01*
X184425346Y-137145024D01*
X184410930Y-137160930D01*
X184395024Y-137175346D01*
X184377781Y-137188134D01*
X184359368Y-137199170D01*
X184339962Y-137208349D01*
X184319750Y-137215581D01*
X184298926Y-137220797D01*
X184277691Y-137223947D01*
X184256250Y-137225000D01*
X183818750Y-137225000D01*
X183797309Y-137223947D01*
X183776074Y-137220797D01*
X183755250Y-137215581D01*
X183735038Y-137208349D01*
X183715632Y-137199170D01*
X183697219Y-137188134D01*
X183679976Y-137175346D01*
X183664070Y-137160930D01*
X183649654Y-137145024D01*
X183636866Y-137127781D01*
X183625830Y-137109368D01*
X183616651Y-137089962D01*
X183609419Y-137069750D01*
X183604203Y-137048926D01*
X183601053Y-137027691D01*
X183600000Y-137006250D01*
X183600000Y-136493750D01*
X183601053Y-136472309D01*
X183604203Y-136451074D01*
X183609419Y-136430250D01*
X183616651Y-136410038D01*
X183625830Y-136390632D01*
X183636866Y-136372219D01*
X183649654Y-136354976D01*
X183664070Y-136339070D01*
X183679976Y-136324654D01*
X183697219Y-136311866D01*
X183715632Y-136300830D01*
X183735038Y-136291651D01*
X183755250Y-136284419D01*
X183776074Y-136279203D01*
X183797309Y-136276053D01*
X183818750Y-136275000D01*
X184256250Y-136275000D01*
X184277691Y-136276053D01*
X184277691Y-136276053D01*
G37*
D15*
G04 #@! TD*
G04 #@! TO.P,C7,1*
G04 #@! TO.N,VCC*
X184037500Y-136750000D03*
D14*
G04 #@! TO.N,VCC*
G04 #@! TO.C,C6*
G36*
X184277691Y-134776053D02*
X184298926Y-134779203D01*
X184319750Y-134784419D01*
X184339962Y-134791651D01*
X184359368Y-134800830D01*
X184377781Y-134811866D01*
X184395024Y-134824654D01*
X184410930Y-134839070D01*
X184425346Y-134854976D01*
X184438134Y-134872219D01*
X184449170Y-134890632D01*
X184458349Y-134910038D01*
X184465581Y-134930250D01*
X184470797Y-134951074D01*
X184473947Y-134972309D01*
X184475000Y-134993750D01*
X184475000Y-135506250D01*
X184473947Y-135527691D01*
X184470797Y-135548926D01*
X184465581Y-135569750D01*
X184458349Y-135589962D01*
X184449170Y-135609368D01*
X184438134Y-135627781D01*
X184425346Y-135645024D01*
X184410930Y-135660930D01*
X184395024Y-135675346D01*
X184377781Y-135688134D01*
X184359368Y-135699170D01*
X184339962Y-135708349D01*
X184319750Y-135715581D01*
X184298926Y-135720797D01*
X184277691Y-135723947D01*
X184256250Y-135725000D01*
X183818750Y-135725000D01*
X183797309Y-135723947D01*
X183776074Y-135720797D01*
X183755250Y-135715581D01*
X183735038Y-135708349D01*
X183715632Y-135699170D01*
X183697219Y-135688134D01*
X183679976Y-135675346D01*
X183664070Y-135660930D01*
X183649654Y-135645024D01*
X183636866Y-135627781D01*
X183625830Y-135609368D01*
X183616651Y-135589962D01*
X183609419Y-135569750D01*
X183604203Y-135548926D01*
X183601053Y-135527691D01*
X183600000Y-135506250D01*
X183600000Y-134993750D01*
X183601053Y-134972309D01*
X183604203Y-134951074D01*
X183609419Y-134930250D01*
X183616651Y-134910038D01*
X183625830Y-134890632D01*
X183636866Y-134872219D01*
X183649654Y-134854976D01*
X183664070Y-134839070D01*
X183679976Y-134824654D01*
X183697219Y-134811866D01*
X183715632Y-134800830D01*
X183735038Y-134791651D01*
X183755250Y-134784419D01*
X183776074Y-134779203D01*
X183797309Y-134776053D01*
X183818750Y-134775000D01*
X184256250Y-134775000D01*
X184277691Y-134776053D01*
X184277691Y-134776053D01*
G37*
D15*
G04 #@! TD*
G04 #@! TO.P,C6,1*
G04 #@! TO.N,VCC*
X184037500Y-135250000D03*
D14*
G04 #@! TO.N,GND*
G04 #@! TO.C,C6*
G36*
X182702691Y-134776053D02*
X182723926Y-134779203D01*
X182744750Y-134784419D01*
X182764962Y-134791651D01*
X182784368Y-134800830D01*
X182802781Y-134811866D01*
X182820024Y-134824654D01*
X182835930Y-134839070D01*
X182850346Y-134854976D01*
X182863134Y-134872219D01*
X182874170Y-134890632D01*
X182883349Y-134910038D01*
X182890581Y-134930250D01*
X182895797Y-134951074D01*
X182898947Y-134972309D01*
X182900000Y-134993750D01*
X182900000Y-135506250D01*
X182898947Y-135527691D01*
X182895797Y-135548926D01*
X182890581Y-135569750D01*
X182883349Y-135589962D01*
X182874170Y-135609368D01*
X182863134Y-135627781D01*
X182850346Y-135645024D01*
X182835930Y-135660930D01*
X182820024Y-135675346D01*
X182802781Y-135688134D01*
X182784368Y-135699170D01*
X182764962Y-135708349D01*
X182744750Y-135715581D01*
X182723926Y-135720797D01*
X182702691Y-135723947D01*
X182681250Y-135725000D01*
X182243750Y-135725000D01*
X182222309Y-135723947D01*
X182201074Y-135720797D01*
X182180250Y-135715581D01*
X182160038Y-135708349D01*
X182140632Y-135699170D01*
X182122219Y-135688134D01*
X182104976Y-135675346D01*
X182089070Y-135660930D01*
X182074654Y-135645024D01*
X182061866Y-135627781D01*
X182050830Y-135609368D01*
X182041651Y-135589962D01*
X182034419Y-135569750D01*
X182029203Y-135548926D01*
X182026053Y-135527691D01*
X182025000Y-135506250D01*
X182025000Y-134993750D01*
X182026053Y-134972309D01*
X182029203Y-134951074D01*
X182034419Y-134930250D01*
X182041651Y-134910038D01*
X182050830Y-134890632D01*
X182061866Y-134872219D01*
X182074654Y-134854976D01*
X182089070Y-134839070D01*
X182104976Y-134824654D01*
X182122219Y-134811866D01*
X182140632Y-134800830D01*
X182160038Y-134791651D01*
X182180250Y-134784419D01*
X182201074Y-134779203D01*
X182222309Y-134776053D01*
X182243750Y-134775000D01*
X182681250Y-134775000D01*
X182702691Y-134776053D01*
X182702691Y-134776053D01*
G37*
D15*
G04 #@! TD*
G04 #@! TO.P,C6,2*
G04 #@! TO.N,GND*
X182462500Y-135250000D03*
D16*
G04 #@! TO.P,R1,2*
G04 #@! TO.N,GND*
X200487500Y-125100000D03*
G04 #@! TO.P,R1,1*
G04 #@! TO.N,/SENS_ENA*
X198912500Y-125100000D03*
G04 #@! TD*
G04 #@! TO.P,R2,1*
G04 #@! TO.N,/BAT_LO*
X189212500Y-139000000D03*
G04 #@! TO.P,R2,2*
G04 #@! TO.N,Net-(LD13-Pad2)*
X190787500Y-139000000D03*
G04 #@! TD*
G04 #@! TO.P,R3,2*
G04 #@! TO.N,Net-(LD3-Pad2)*
X190787500Y-141000000D03*
G04 #@! TO.P,R3,1*
G04 #@! TO.N,/LED1*
X189212500Y-141000000D03*
G04 #@! TD*
D14*
G04 #@! TO.N,VCC*
G04 #@! TO.C,U1*
G36*
X186962252Y-127950602D02*
X186974386Y-127952402D01*
X186986286Y-127955382D01*
X186997835Y-127959515D01*
X187008925Y-127964760D01*
X187019446Y-127971066D01*
X187029299Y-127978374D01*
X187038388Y-127986612D01*
X187046626Y-127995701D01*
X187053934Y-128005554D01*
X187060240Y-128016075D01*
X187065485Y-128027165D01*
X187069618Y-128038714D01*
X187072598Y-128050614D01*
X187074398Y-128062748D01*
X187075000Y-128075000D01*
X187075000Y-128325000D01*
X187074398Y-128337252D01*
X187072598Y-128349386D01*
X187069618Y-128361286D01*
X187065485Y-128372835D01*
X187060240Y-128383925D01*
X187053934Y-128394446D01*
X187046626Y-128404299D01*
X187038388Y-128413388D01*
X187029299Y-128421626D01*
X187019446Y-128428934D01*
X187008925Y-128435240D01*
X186997835Y-128440485D01*
X186986286Y-128444618D01*
X186974386Y-128447598D01*
X186962252Y-128449398D01*
X186950000Y-128450000D01*
X185700000Y-128450000D01*
X185687748Y-128449398D01*
X185675614Y-128447598D01*
X185663714Y-128444618D01*
X185652165Y-128440485D01*
X185641075Y-128435240D01*
X185630554Y-128428934D01*
X185620701Y-128421626D01*
X185611612Y-128413388D01*
X185603374Y-128404299D01*
X185596066Y-128394446D01*
X185589760Y-128383925D01*
X185584515Y-128372835D01*
X185580382Y-128361286D01*
X185577402Y-128349386D01*
X185575602Y-128337252D01*
X185575000Y-128325000D01*
X185575000Y-128075000D01*
X185575602Y-128062748D01*
X185577402Y-128050614D01*
X185580382Y-128038714D01*
X185584515Y-128027165D01*
X185589760Y-128016075D01*
X185596066Y-128005554D01*
X185603374Y-127995701D01*
X185611612Y-127986612D01*
X185620701Y-127978374D01*
X185630554Y-127971066D01*
X185641075Y-127964760D01*
X185652165Y-127959515D01*
X185663714Y-127955382D01*
X185675614Y-127952402D01*
X185687748Y-127950602D01*
X185700000Y-127950000D01*
X186950000Y-127950000D01*
X186962252Y-127950602D01*
X186962252Y-127950602D01*
G37*
D17*
G04 #@! TD*
G04 #@! TO.P,U1,1*
G04 #@! TO.N,VCC*
X186325000Y-128200000D03*
D14*
G04 #@! TO.N,/PF0*
G04 #@! TO.C,U1*
G36*
X186962252Y-128750602D02*
X186974386Y-128752402D01*
X186986286Y-128755382D01*
X186997835Y-128759515D01*
X187008925Y-128764760D01*
X187019446Y-128771066D01*
X187029299Y-128778374D01*
X187038388Y-128786612D01*
X187046626Y-128795701D01*
X187053934Y-128805554D01*
X187060240Y-128816075D01*
X187065485Y-128827165D01*
X187069618Y-128838714D01*
X187072598Y-128850614D01*
X187074398Y-128862748D01*
X187075000Y-128875000D01*
X187075000Y-129125000D01*
X187074398Y-129137252D01*
X187072598Y-129149386D01*
X187069618Y-129161286D01*
X187065485Y-129172835D01*
X187060240Y-129183925D01*
X187053934Y-129194446D01*
X187046626Y-129204299D01*
X187038388Y-129213388D01*
X187029299Y-129221626D01*
X187019446Y-129228934D01*
X187008925Y-129235240D01*
X186997835Y-129240485D01*
X186986286Y-129244618D01*
X186974386Y-129247598D01*
X186962252Y-129249398D01*
X186950000Y-129250000D01*
X185700000Y-129250000D01*
X185687748Y-129249398D01*
X185675614Y-129247598D01*
X185663714Y-129244618D01*
X185652165Y-129240485D01*
X185641075Y-129235240D01*
X185630554Y-129228934D01*
X185620701Y-129221626D01*
X185611612Y-129213388D01*
X185603374Y-129204299D01*
X185596066Y-129194446D01*
X185589760Y-129183925D01*
X185584515Y-129172835D01*
X185580382Y-129161286D01*
X185577402Y-129149386D01*
X185575602Y-129137252D01*
X185575000Y-129125000D01*
X185575000Y-128875000D01*
X185575602Y-128862748D01*
X185577402Y-128850614D01*
X185580382Y-128838714D01*
X185584515Y-128827165D01*
X185589760Y-128816075D01*
X185596066Y-128805554D01*
X185603374Y-128795701D01*
X185611612Y-128786612D01*
X185620701Y-128778374D01*
X185630554Y-128771066D01*
X185641075Y-128764760D01*
X185652165Y-128759515D01*
X185663714Y-128755382D01*
X185675614Y-128752402D01*
X185687748Y-128750602D01*
X185700000Y-128750000D01*
X186950000Y-128750000D01*
X186962252Y-128750602D01*
X186962252Y-128750602D01*
G37*
D17*
G04 #@! TD*
G04 #@! TO.P,U1,2*
G04 #@! TO.N,/PF0*
X186325000Y-129000000D03*
D14*
G04 #@! TO.N,/PF1*
G04 #@! TO.C,U1*
G36*
X186962252Y-129550602D02*
X186974386Y-129552402D01*
X186986286Y-129555382D01*
X186997835Y-129559515D01*
X187008925Y-129564760D01*
X187019446Y-129571066D01*
X187029299Y-129578374D01*
X187038388Y-129586612D01*
X187046626Y-129595701D01*
X187053934Y-129605554D01*
X187060240Y-129616075D01*
X187065485Y-129627165D01*
X187069618Y-129638714D01*
X187072598Y-129650614D01*
X187074398Y-129662748D01*
X187075000Y-129675000D01*
X187075000Y-129925000D01*
X187074398Y-129937252D01*
X187072598Y-129949386D01*
X187069618Y-129961286D01*
X187065485Y-129972835D01*
X187060240Y-129983925D01*
X187053934Y-129994446D01*
X187046626Y-130004299D01*
X187038388Y-130013388D01*
X187029299Y-130021626D01*
X187019446Y-130028934D01*
X187008925Y-130035240D01*
X186997835Y-130040485D01*
X186986286Y-130044618D01*
X186974386Y-130047598D01*
X186962252Y-130049398D01*
X186950000Y-130050000D01*
X185700000Y-130050000D01*
X185687748Y-130049398D01*
X185675614Y-130047598D01*
X185663714Y-130044618D01*
X185652165Y-130040485D01*
X185641075Y-130035240D01*
X185630554Y-130028934D01*
X185620701Y-130021626D01*
X185611612Y-130013388D01*
X185603374Y-130004299D01*
X185596066Y-129994446D01*
X185589760Y-129983925D01*
X185584515Y-129972835D01*
X185580382Y-129961286D01*
X185577402Y-129949386D01*
X185575602Y-129937252D01*
X185575000Y-129925000D01*
X185575000Y-129675000D01*
X185575602Y-129662748D01*
X185577402Y-129650614D01*
X185580382Y-129638714D01*
X185584515Y-129627165D01*
X185589760Y-129616075D01*
X185596066Y-129605554D01*
X185603374Y-129595701D01*
X185611612Y-129586612D01*
X185620701Y-129578374D01*
X185630554Y-129571066D01*
X185641075Y-129564760D01*
X185652165Y-129559515D01*
X185663714Y-129555382D01*
X185675614Y-129552402D01*
X185687748Y-129550602D01*
X185700000Y-129550000D01*
X186950000Y-129550000D01*
X186962252Y-129550602D01*
X186962252Y-129550602D01*
G37*
D17*
G04 #@! TD*
G04 #@! TO.P,U1,3*
G04 #@! TO.N,/PF1*
X186325000Y-129800000D03*
D14*
G04 #@! TO.N,/NRST*
G04 #@! TO.C,U1*
G36*
X186962252Y-130350602D02*
X186974386Y-130352402D01*
X186986286Y-130355382D01*
X186997835Y-130359515D01*
X187008925Y-130364760D01*
X187019446Y-130371066D01*
X187029299Y-130378374D01*
X187038388Y-130386612D01*
X187046626Y-130395701D01*
X187053934Y-130405554D01*
X187060240Y-130416075D01*
X187065485Y-130427165D01*
X187069618Y-130438714D01*
X187072598Y-130450614D01*
X187074398Y-130462748D01*
X187075000Y-130475000D01*
X187075000Y-130725000D01*
X187074398Y-130737252D01*
X187072598Y-130749386D01*
X187069618Y-130761286D01*
X187065485Y-130772835D01*
X187060240Y-130783925D01*
X187053934Y-130794446D01*
X187046626Y-130804299D01*
X187038388Y-130813388D01*
X187029299Y-130821626D01*
X187019446Y-130828934D01*
X187008925Y-130835240D01*
X186997835Y-130840485D01*
X186986286Y-130844618D01*
X186974386Y-130847598D01*
X186962252Y-130849398D01*
X186950000Y-130850000D01*
X185700000Y-130850000D01*
X185687748Y-130849398D01*
X185675614Y-130847598D01*
X185663714Y-130844618D01*
X185652165Y-130840485D01*
X185641075Y-130835240D01*
X185630554Y-130828934D01*
X185620701Y-130821626D01*
X185611612Y-130813388D01*
X185603374Y-130804299D01*
X185596066Y-130794446D01*
X185589760Y-130783925D01*
X185584515Y-130772835D01*
X185580382Y-130761286D01*
X185577402Y-130749386D01*
X185575602Y-130737252D01*
X185575000Y-130725000D01*
X185575000Y-130475000D01*
X185575602Y-130462748D01*
X185577402Y-130450614D01*
X185580382Y-130438714D01*
X185584515Y-130427165D01*
X185589760Y-130416075D01*
X185596066Y-130405554D01*
X185603374Y-130395701D01*
X185611612Y-130386612D01*
X185620701Y-130378374D01*
X185630554Y-130371066D01*
X185641075Y-130364760D01*
X185652165Y-130359515D01*
X185663714Y-130355382D01*
X185675614Y-130352402D01*
X185687748Y-130350602D01*
X185700000Y-130350000D01*
X186950000Y-130350000D01*
X186962252Y-130350602D01*
X186962252Y-130350602D01*
G37*
D17*
G04 #@! TD*
G04 #@! TO.P,U1,4*
G04 #@! TO.N,/NRST*
X186325000Y-130600000D03*
D14*
G04 #@! TO.N,VCC*
G04 #@! TO.C,U1*
G36*
X186962252Y-131150602D02*
X186974386Y-131152402D01*
X186986286Y-131155382D01*
X186997835Y-131159515D01*
X187008925Y-131164760D01*
X187019446Y-131171066D01*
X187029299Y-131178374D01*
X187038388Y-131186612D01*
X187046626Y-131195701D01*
X187053934Y-131205554D01*
X187060240Y-131216075D01*
X187065485Y-131227165D01*
X187069618Y-131238714D01*
X187072598Y-131250614D01*
X187074398Y-131262748D01*
X187075000Y-131275000D01*
X187075000Y-131525000D01*
X187074398Y-131537252D01*
X187072598Y-131549386D01*
X187069618Y-131561286D01*
X187065485Y-131572835D01*
X187060240Y-131583925D01*
X187053934Y-131594446D01*
X187046626Y-131604299D01*
X187038388Y-131613388D01*
X187029299Y-131621626D01*
X187019446Y-131628934D01*
X187008925Y-131635240D01*
X186997835Y-131640485D01*
X186986286Y-131644618D01*
X186974386Y-131647598D01*
X186962252Y-131649398D01*
X186950000Y-131650000D01*
X185700000Y-131650000D01*
X185687748Y-131649398D01*
X185675614Y-131647598D01*
X185663714Y-131644618D01*
X185652165Y-131640485D01*
X185641075Y-131635240D01*
X185630554Y-131628934D01*
X185620701Y-131621626D01*
X185611612Y-131613388D01*
X185603374Y-131604299D01*
X185596066Y-131594446D01*
X185589760Y-131583925D01*
X185584515Y-131572835D01*
X185580382Y-131561286D01*
X185577402Y-131549386D01*
X185575602Y-131537252D01*
X185575000Y-131525000D01*
X185575000Y-131275000D01*
X185575602Y-131262748D01*
X185577402Y-131250614D01*
X185580382Y-131238714D01*
X185584515Y-131227165D01*
X185589760Y-131216075D01*
X185596066Y-131205554D01*
X185603374Y-131195701D01*
X185611612Y-131186612D01*
X185620701Y-131178374D01*
X185630554Y-131171066D01*
X185641075Y-131164760D01*
X185652165Y-131159515D01*
X185663714Y-131155382D01*
X185675614Y-131152402D01*
X185687748Y-131150602D01*
X185700000Y-131150000D01*
X186950000Y-131150000D01*
X186962252Y-131150602D01*
X186962252Y-131150602D01*
G37*
D17*
G04 #@! TD*
G04 #@! TO.P,U1,5*
G04 #@! TO.N,VCC*
X186325000Y-131400000D03*
D14*
G04 #@! TO.N,VCC*
G04 #@! TO.C,U1*
G36*
X186962252Y-131950602D02*
X186974386Y-131952402D01*
X186986286Y-131955382D01*
X186997835Y-131959515D01*
X187008925Y-131964760D01*
X187019446Y-131971066D01*
X187029299Y-131978374D01*
X187038388Y-131986612D01*
X187046626Y-131995701D01*
X187053934Y-132005554D01*
X187060240Y-132016075D01*
X187065485Y-132027165D01*
X187069618Y-132038714D01*
X187072598Y-132050614D01*
X187074398Y-132062748D01*
X187075000Y-132075000D01*
X187075000Y-132325000D01*
X187074398Y-132337252D01*
X187072598Y-132349386D01*
X187069618Y-132361286D01*
X187065485Y-132372835D01*
X187060240Y-132383925D01*
X187053934Y-132394446D01*
X187046626Y-132404299D01*
X187038388Y-132413388D01*
X187029299Y-132421626D01*
X187019446Y-132428934D01*
X187008925Y-132435240D01*
X186997835Y-132440485D01*
X186986286Y-132444618D01*
X186974386Y-132447598D01*
X186962252Y-132449398D01*
X186950000Y-132450000D01*
X185700000Y-132450000D01*
X185687748Y-132449398D01*
X185675614Y-132447598D01*
X185663714Y-132444618D01*
X185652165Y-132440485D01*
X185641075Y-132435240D01*
X185630554Y-132428934D01*
X185620701Y-132421626D01*
X185611612Y-132413388D01*
X185603374Y-132404299D01*
X185596066Y-132394446D01*
X185589760Y-132383925D01*
X185584515Y-132372835D01*
X185580382Y-132361286D01*
X185577402Y-132349386D01*
X185575602Y-132337252D01*
X185575000Y-132325000D01*
X185575000Y-132075000D01*
X185575602Y-132062748D01*
X185577402Y-132050614D01*
X185580382Y-132038714D01*
X185584515Y-132027165D01*
X185589760Y-132016075D01*
X185596066Y-132005554D01*
X185603374Y-131995701D01*
X185611612Y-131986612D01*
X185620701Y-131978374D01*
X185630554Y-131971066D01*
X185641075Y-131964760D01*
X185652165Y-131959515D01*
X185663714Y-131955382D01*
X185675614Y-131952402D01*
X185687748Y-131950602D01*
X185700000Y-131950000D01*
X186950000Y-131950000D01*
X186962252Y-131950602D01*
X186962252Y-131950602D01*
G37*
D17*
G04 #@! TD*
G04 #@! TO.P,U1,6*
G04 #@! TO.N,VCC*
X186325000Y-132200000D03*
D14*
G04 #@! TO.N,/ADC_SOIL1*
G04 #@! TO.C,U1*
G36*
X186962252Y-132750602D02*
X186974386Y-132752402D01*
X186986286Y-132755382D01*
X186997835Y-132759515D01*
X187008925Y-132764760D01*
X187019446Y-132771066D01*
X187029299Y-132778374D01*
X187038388Y-132786612D01*
X187046626Y-132795701D01*
X187053934Y-132805554D01*
X187060240Y-132816075D01*
X187065485Y-132827165D01*
X187069618Y-132838714D01*
X187072598Y-132850614D01*
X187074398Y-132862748D01*
X187075000Y-132875000D01*
X187075000Y-133125000D01*
X187074398Y-133137252D01*
X187072598Y-133149386D01*
X187069618Y-133161286D01*
X187065485Y-133172835D01*
X187060240Y-133183925D01*
X187053934Y-133194446D01*
X187046626Y-133204299D01*
X187038388Y-133213388D01*
X187029299Y-133221626D01*
X187019446Y-133228934D01*
X187008925Y-133235240D01*
X186997835Y-133240485D01*
X186986286Y-133244618D01*
X186974386Y-133247598D01*
X186962252Y-133249398D01*
X186950000Y-133250000D01*
X185700000Y-133250000D01*
X185687748Y-133249398D01*
X185675614Y-133247598D01*
X185663714Y-133244618D01*
X185652165Y-133240485D01*
X185641075Y-133235240D01*
X185630554Y-133228934D01*
X185620701Y-133221626D01*
X185611612Y-133213388D01*
X185603374Y-133204299D01*
X185596066Y-133194446D01*
X185589760Y-133183925D01*
X185584515Y-133172835D01*
X185580382Y-133161286D01*
X185577402Y-133149386D01*
X185575602Y-133137252D01*
X185575000Y-133125000D01*
X185575000Y-132875000D01*
X185575602Y-132862748D01*
X185577402Y-132850614D01*
X185580382Y-132838714D01*
X185584515Y-132827165D01*
X185589760Y-132816075D01*
X185596066Y-132805554D01*
X185603374Y-132795701D01*
X185611612Y-132786612D01*
X185620701Y-132778374D01*
X185630554Y-132771066D01*
X185641075Y-132764760D01*
X185652165Y-132759515D01*
X185663714Y-132755382D01*
X185675614Y-132752402D01*
X185687748Y-132750602D01*
X185700000Y-132750000D01*
X186950000Y-132750000D01*
X186962252Y-132750602D01*
X186962252Y-132750602D01*
G37*
D17*
G04 #@! TD*
G04 #@! TO.P,U1,7*
G04 #@! TO.N,/ADC_SOIL1*
X186325000Y-133000000D03*
D14*
G04 #@! TO.N,/OUT1*
G04 #@! TO.C,U1*
G36*
X186962252Y-133550602D02*
X186974386Y-133552402D01*
X186986286Y-133555382D01*
X186997835Y-133559515D01*
X187008925Y-133564760D01*
X187019446Y-133571066D01*
X187029299Y-133578374D01*
X187038388Y-133586612D01*
X187046626Y-133595701D01*
X187053934Y-133605554D01*
X187060240Y-133616075D01*
X187065485Y-133627165D01*
X187069618Y-133638714D01*
X187072598Y-133650614D01*
X187074398Y-133662748D01*
X187075000Y-133675000D01*
X187075000Y-133925000D01*
X187074398Y-133937252D01*
X187072598Y-133949386D01*
X187069618Y-133961286D01*
X187065485Y-133972835D01*
X187060240Y-133983925D01*
X187053934Y-133994446D01*
X187046626Y-134004299D01*
X187038388Y-134013388D01*
X187029299Y-134021626D01*
X187019446Y-134028934D01*
X187008925Y-134035240D01*
X186997835Y-134040485D01*
X186986286Y-134044618D01*
X186974386Y-134047598D01*
X186962252Y-134049398D01*
X186950000Y-134050000D01*
X185700000Y-134050000D01*
X185687748Y-134049398D01*
X185675614Y-134047598D01*
X185663714Y-134044618D01*
X185652165Y-134040485D01*
X185641075Y-134035240D01*
X185630554Y-134028934D01*
X185620701Y-134021626D01*
X185611612Y-134013388D01*
X185603374Y-134004299D01*
X185596066Y-133994446D01*
X185589760Y-133983925D01*
X185584515Y-133972835D01*
X185580382Y-133961286D01*
X185577402Y-133949386D01*
X185575602Y-133937252D01*
X185575000Y-133925000D01*
X185575000Y-133675000D01*
X185575602Y-133662748D01*
X185577402Y-133650614D01*
X185580382Y-133638714D01*
X185584515Y-133627165D01*
X185589760Y-133616075D01*
X185596066Y-133605554D01*
X185603374Y-133595701D01*
X185611612Y-133586612D01*
X185620701Y-133578374D01*
X185630554Y-133571066D01*
X185641075Y-133564760D01*
X185652165Y-133559515D01*
X185663714Y-133555382D01*
X185675614Y-133552402D01*
X185687748Y-133550602D01*
X185700000Y-133550000D01*
X186950000Y-133550000D01*
X186962252Y-133550602D01*
X186962252Y-133550602D01*
G37*
D17*
G04 #@! TD*
G04 #@! TO.P,U1,8*
G04 #@! TO.N,/OUT1*
X186325000Y-133800000D03*
D14*
G04 #@! TO.N,/LED1*
G04 #@! TO.C,U1*
G36*
X187837252Y-134425602D02*
X187849386Y-134427402D01*
X187861286Y-134430382D01*
X187872835Y-134434515D01*
X187883925Y-134439760D01*
X187894446Y-134446066D01*
X187904299Y-134453374D01*
X187913388Y-134461612D01*
X187921626Y-134470701D01*
X187928934Y-134480554D01*
X187935240Y-134491075D01*
X187940485Y-134502165D01*
X187944618Y-134513714D01*
X187947598Y-134525614D01*
X187949398Y-134537748D01*
X187950000Y-134550000D01*
X187950000Y-135800000D01*
X187949398Y-135812252D01*
X187947598Y-135824386D01*
X187944618Y-135836286D01*
X187940485Y-135847835D01*
X187935240Y-135858925D01*
X187928934Y-135869446D01*
X187921626Y-135879299D01*
X187913388Y-135888388D01*
X187904299Y-135896626D01*
X187894446Y-135903934D01*
X187883925Y-135910240D01*
X187872835Y-135915485D01*
X187861286Y-135919618D01*
X187849386Y-135922598D01*
X187837252Y-135924398D01*
X187825000Y-135925000D01*
X187575000Y-135925000D01*
X187562748Y-135924398D01*
X187550614Y-135922598D01*
X187538714Y-135919618D01*
X187527165Y-135915485D01*
X187516075Y-135910240D01*
X187505554Y-135903934D01*
X187495701Y-135896626D01*
X187486612Y-135888388D01*
X187478374Y-135879299D01*
X187471066Y-135869446D01*
X187464760Y-135858925D01*
X187459515Y-135847835D01*
X187455382Y-135836286D01*
X187452402Y-135824386D01*
X187450602Y-135812252D01*
X187450000Y-135800000D01*
X187450000Y-134550000D01*
X187450602Y-134537748D01*
X187452402Y-134525614D01*
X187455382Y-134513714D01*
X187459515Y-134502165D01*
X187464760Y-134491075D01*
X187471066Y-134480554D01*
X187478374Y-134470701D01*
X187486612Y-134461612D01*
X187495701Y-134453374D01*
X187505554Y-134446066D01*
X187516075Y-134439760D01*
X187527165Y-134434515D01*
X187538714Y-134430382D01*
X187550614Y-134427402D01*
X187562748Y-134425602D01*
X187575000Y-134425000D01*
X187825000Y-134425000D01*
X187837252Y-134425602D01*
X187837252Y-134425602D01*
G37*
D17*
G04 #@! TD*
G04 #@! TO.P,U1,9*
G04 #@! TO.N,/LED1*
X187700000Y-135175000D03*
D14*
G04 #@! TO.N,/BAT_LO*
G04 #@! TO.C,U1*
G36*
X188637252Y-134425602D02*
X188649386Y-134427402D01*
X188661286Y-134430382D01*
X188672835Y-134434515D01*
X188683925Y-134439760D01*
X188694446Y-134446066D01*
X188704299Y-134453374D01*
X188713388Y-134461612D01*
X188721626Y-134470701D01*
X188728934Y-134480554D01*
X188735240Y-134491075D01*
X188740485Y-134502165D01*
X188744618Y-134513714D01*
X188747598Y-134525614D01*
X188749398Y-134537748D01*
X188750000Y-134550000D01*
X188750000Y-135800000D01*
X188749398Y-135812252D01*
X188747598Y-135824386D01*
X188744618Y-135836286D01*
X188740485Y-135847835D01*
X188735240Y-135858925D01*
X188728934Y-135869446D01*
X188721626Y-135879299D01*
X188713388Y-135888388D01*
X188704299Y-135896626D01*
X188694446Y-135903934D01*
X188683925Y-135910240D01*
X188672835Y-135915485D01*
X188661286Y-135919618D01*
X188649386Y-135922598D01*
X188637252Y-135924398D01*
X188625000Y-135925000D01*
X188375000Y-135925000D01*
X188362748Y-135924398D01*
X188350614Y-135922598D01*
X188338714Y-135919618D01*
X188327165Y-135915485D01*
X188316075Y-135910240D01*
X188305554Y-135903934D01*
X188295701Y-135896626D01*
X188286612Y-135888388D01*
X188278374Y-135879299D01*
X188271066Y-135869446D01*
X188264760Y-135858925D01*
X188259515Y-135847835D01*
X188255382Y-135836286D01*
X188252402Y-135824386D01*
X188250602Y-135812252D01*
X188250000Y-135800000D01*
X188250000Y-134550000D01*
X188250602Y-134537748D01*
X188252402Y-134525614D01*
X188255382Y-134513714D01*
X188259515Y-134502165D01*
X188264760Y-134491075D01*
X188271066Y-134480554D01*
X188278374Y-134470701D01*
X188286612Y-134461612D01*
X188295701Y-134453374D01*
X188305554Y-134446066D01*
X188316075Y-134439760D01*
X188327165Y-134434515D01*
X188338714Y-134430382D01*
X188350614Y-134427402D01*
X188362748Y-134425602D01*
X188375000Y-134425000D01*
X188625000Y-134425000D01*
X188637252Y-134425602D01*
X188637252Y-134425602D01*
G37*
D17*
G04 #@! TD*
G04 #@! TO.P,U1,10*
G04 #@! TO.N,/BAT_LO*
X188500000Y-135175000D03*
D14*
G04 #@! TO.N,Net-(U1-Pad11)*
G04 #@! TO.C,U1*
G36*
X189437252Y-134425602D02*
X189449386Y-134427402D01*
X189461286Y-134430382D01*
X189472835Y-134434515D01*
X189483925Y-134439760D01*
X189494446Y-134446066D01*
X189504299Y-134453374D01*
X189513388Y-134461612D01*
X189521626Y-134470701D01*
X189528934Y-134480554D01*
X189535240Y-134491075D01*
X189540485Y-134502165D01*
X189544618Y-134513714D01*
X189547598Y-134525614D01*
X189549398Y-134537748D01*
X189550000Y-134550000D01*
X189550000Y-135800000D01*
X189549398Y-135812252D01*
X189547598Y-135824386D01*
X189544618Y-135836286D01*
X189540485Y-135847835D01*
X189535240Y-135858925D01*
X189528934Y-135869446D01*
X189521626Y-135879299D01*
X189513388Y-135888388D01*
X189504299Y-135896626D01*
X189494446Y-135903934D01*
X189483925Y-135910240D01*
X189472835Y-135915485D01*
X189461286Y-135919618D01*
X189449386Y-135922598D01*
X189437252Y-135924398D01*
X189425000Y-135925000D01*
X189175000Y-135925000D01*
X189162748Y-135924398D01*
X189150614Y-135922598D01*
X189138714Y-135919618D01*
X189127165Y-135915485D01*
X189116075Y-135910240D01*
X189105554Y-135903934D01*
X189095701Y-135896626D01*
X189086612Y-135888388D01*
X189078374Y-135879299D01*
X189071066Y-135869446D01*
X189064760Y-135858925D01*
X189059515Y-135847835D01*
X189055382Y-135836286D01*
X189052402Y-135824386D01*
X189050602Y-135812252D01*
X189050000Y-135800000D01*
X189050000Y-134550000D01*
X189050602Y-134537748D01*
X189052402Y-134525614D01*
X189055382Y-134513714D01*
X189059515Y-134502165D01*
X189064760Y-134491075D01*
X189071066Y-134480554D01*
X189078374Y-134470701D01*
X189086612Y-134461612D01*
X189095701Y-134453374D01*
X189105554Y-134446066D01*
X189116075Y-134439760D01*
X189127165Y-134434515D01*
X189138714Y-134430382D01*
X189150614Y-134427402D01*
X189162748Y-134425602D01*
X189175000Y-134425000D01*
X189425000Y-134425000D01*
X189437252Y-134425602D01*
X189437252Y-134425602D01*
G37*
D17*
G04 #@! TD*
G04 #@! TO.P,U1,11*
G04 #@! TO.N,Net-(U1-Pad11)*
X189300000Y-135175000D03*
D14*
G04 #@! TO.N,Net-(U1-Pad12)*
G04 #@! TO.C,U1*
G36*
X190237252Y-134425602D02*
X190249386Y-134427402D01*
X190261286Y-134430382D01*
X190272835Y-134434515D01*
X190283925Y-134439760D01*
X190294446Y-134446066D01*
X190304299Y-134453374D01*
X190313388Y-134461612D01*
X190321626Y-134470701D01*
X190328934Y-134480554D01*
X190335240Y-134491075D01*
X190340485Y-134502165D01*
X190344618Y-134513714D01*
X190347598Y-134525614D01*
X190349398Y-134537748D01*
X190350000Y-134550000D01*
X190350000Y-135800000D01*
X190349398Y-135812252D01*
X190347598Y-135824386D01*
X190344618Y-135836286D01*
X190340485Y-135847835D01*
X190335240Y-135858925D01*
X190328934Y-135869446D01*
X190321626Y-135879299D01*
X190313388Y-135888388D01*
X190304299Y-135896626D01*
X190294446Y-135903934D01*
X190283925Y-135910240D01*
X190272835Y-135915485D01*
X190261286Y-135919618D01*
X190249386Y-135922598D01*
X190237252Y-135924398D01*
X190225000Y-135925000D01*
X189975000Y-135925000D01*
X189962748Y-135924398D01*
X189950614Y-135922598D01*
X189938714Y-135919618D01*
X189927165Y-135915485D01*
X189916075Y-135910240D01*
X189905554Y-135903934D01*
X189895701Y-135896626D01*
X189886612Y-135888388D01*
X189878374Y-135879299D01*
X189871066Y-135869446D01*
X189864760Y-135858925D01*
X189859515Y-135847835D01*
X189855382Y-135836286D01*
X189852402Y-135824386D01*
X189850602Y-135812252D01*
X189850000Y-135800000D01*
X189850000Y-134550000D01*
X189850602Y-134537748D01*
X189852402Y-134525614D01*
X189855382Y-134513714D01*
X189859515Y-134502165D01*
X189864760Y-134491075D01*
X189871066Y-134480554D01*
X189878374Y-134470701D01*
X189886612Y-134461612D01*
X189895701Y-134453374D01*
X189905554Y-134446066D01*
X189916075Y-134439760D01*
X189927165Y-134434515D01*
X189938714Y-134430382D01*
X189950614Y-134427402D01*
X189962748Y-134425602D01*
X189975000Y-134425000D01*
X190225000Y-134425000D01*
X190237252Y-134425602D01*
X190237252Y-134425602D01*
G37*
D17*
G04 #@! TD*
G04 #@! TO.P,U1,12*
G04 #@! TO.N,Net-(U1-Pad12)*
X190100000Y-135175000D03*
D14*
G04 #@! TO.N,Net-(U1-Pad13)*
G04 #@! TO.C,U1*
G36*
X191037252Y-134425602D02*
X191049386Y-134427402D01*
X191061286Y-134430382D01*
X191072835Y-134434515D01*
X191083925Y-134439760D01*
X191094446Y-134446066D01*
X191104299Y-134453374D01*
X191113388Y-134461612D01*
X191121626Y-134470701D01*
X191128934Y-134480554D01*
X191135240Y-134491075D01*
X191140485Y-134502165D01*
X191144618Y-134513714D01*
X191147598Y-134525614D01*
X191149398Y-134537748D01*
X191150000Y-134550000D01*
X191150000Y-135800000D01*
X191149398Y-135812252D01*
X191147598Y-135824386D01*
X191144618Y-135836286D01*
X191140485Y-135847835D01*
X191135240Y-135858925D01*
X191128934Y-135869446D01*
X191121626Y-135879299D01*
X191113388Y-135888388D01*
X191104299Y-135896626D01*
X191094446Y-135903934D01*
X191083925Y-135910240D01*
X191072835Y-135915485D01*
X191061286Y-135919618D01*
X191049386Y-135922598D01*
X191037252Y-135924398D01*
X191025000Y-135925000D01*
X190775000Y-135925000D01*
X190762748Y-135924398D01*
X190750614Y-135922598D01*
X190738714Y-135919618D01*
X190727165Y-135915485D01*
X190716075Y-135910240D01*
X190705554Y-135903934D01*
X190695701Y-135896626D01*
X190686612Y-135888388D01*
X190678374Y-135879299D01*
X190671066Y-135869446D01*
X190664760Y-135858925D01*
X190659515Y-135847835D01*
X190655382Y-135836286D01*
X190652402Y-135824386D01*
X190650602Y-135812252D01*
X190650000Y-135800000D01*
X190650000Y-134550000D01*
X190650602Y-134537748D01*
X190652402Y-134525614D01*
X190655382Y-134513714D01*
X190659515Y-134502165D01*
X190664760Y-134491075D01*
X190671066Y-134480554D01*
X190678374Y-134470701D01*
X190686612Y-134461612D01*
X190695701Y-134453374D01*
X190705554Y-134446066D01*
X190716075Y-134439760D01*
X190727165Y-134434515D01*
X190738714Y-134430382D01*
X190750614Y-134427402D01*
X190762748Y-134425602D01*
X190775000Y-134425000D01*
X191025000Y-134425000D01*
X191037252Y-134425602D01*
X191037252Y-134425602D01*
G37*
D17*
G04 #@! TD*
G04 #@! TO.P,U1,13*
G04 #@! TO.N,Net-(U1-Pad13)*
X190900000Y-135175000D03*
D14*
G04 #@! TO.N,Net-(U1-Pad14)*
G04 #@! TO.C,U1*
G36*
X191837252Y-134425602D02*
X191849386Y-134427402D01*
X191861286Y-134430382D01*
X191872835Y-134434515D01*
X191883925Y-134439760D01*
X191894446Y-134446066D01*
X191904299Y-134453374D01*
X191913388Y-134461612D01*
X191921626Y-134470701D01*
X191928934Y-134480554D01*
X191935240Y-134491075D01*
X191940485Y-134502165D01*
X191944618Y-134513714D01*
X191947598Y-134525614D01*
X191949398Y-134537748D01*
X191950000Y-134550000D01*
X191950000Y-135800000D01*
X191949398Y-135812252D01*
X191947598Y-135824386D01*
X191944618Y-135836286D01*
X191940485Y-135847835D01*
X191935240Y-135858925D01*
X191928934Y-135869446D01*
X191921626Y-135879299D01*
X191913388Y-135888388D01*
X191904299Y-135896626D01*
X191894446Y-135903934D01*
X191883925Y-135910240D01*
X191872835Y-135915485D01*
X191861286Y-135919618D01*
X191849386Y-135922598D01*
X191837252Y-135924398D01*
X191825000Y-135925000D01*
X191575000Y-135925000D01*
X191562748Y-135924398D01*
X191550614Y-135922598D01*
X191538714Y-135919618D01*
X191527165Y-135915485D01*
X191516075Y-135910240D01*
X191505554Y-135903934D01*
X191495701Y-135896626D01*
X191486612Y-135888388D01*
X191478374Y-135879299D01*
X191471066Y-135869446D01*
X191464760Y-135858925D01*
X191459515Y-135847835D01*
X191455382Y-135836286D01*
X191452402Y-135824386D01*
X191450602Y-135812252D01*
X191450000Y-135800000D01*
X191450000Y-134550000D01*
X191450602Y-134537748D01*
X191452402Y-134525614D01*
X191455382Y-134513714D01*
X191459515Y-134502165D01*
X191464760Y-134491075D01*
X191471066Y-134480554D01*
X191478374Y-134470701D01*
X191486612Y-134461612D01*
X191495701Y-134453374D01*
X191505554Y-134446066D01*
X191516075Y-134439760D01*
X191527165Y-134434515D01*
X191538714Y-134430382D01*
X191550614Y-134427402D01*
X191562748Y-134425602D01*
X191575000Y-134425000D01*
X191825000Y-134425000D01*
X191837252Y-134425602D01*
X191837252Y-134425602D01*
G37*
D17*
G04 #@! TD*
G04 #@! TO.P,U1,14*
G04 #@! TO.N,Net-(U1-Pad14)*
X191700000Y-135175000D03*
D14*
G04 #@! TO.N,Net-(U1-Pad15)*
G04 #@! TO.C,U1*
G36*
X192637252Y-134425602D02*
X192649386Y-134427402D01*
X192661286Y-134430382D01*
X192672835Y-134434515D01*
X192683925Y-134439760D01*
X192694446Y-134446066D01*
X192704299Y-134453374D01*
X192713388Y-134461612D01*
X192721626Y-134470701D01*
X192728934Y-134480554D01*
X192735240Y-134491075D01*
X192740485Y-134502165D01*
X192744618Y-134513714D01*
X192747598Y-134525614D01*
X192749398Y-134537748D01*
X192750000Y-134550000D01*
X192750000Y-135800000D01*
X192749398Y-135812252D01*
X192747598Y-135824386D01*
X192744618Y-135836286D01*
X192740485Y-135847835D01*
X192735240Y-135858925D01*
X192728934Y-135869446D01*
X192721626Y-135879299D01*
X192713388Y-135888388D01*
X192704299Y-135896626D01*
X192694446Y-135903934D01*
X192683925Y-135910240D01*
X192672835Y-135915485D01*
X192661286Y-135919618D01*
X192649386Y-135922598D01*
X192637252Y-135924398D01*
X192625000Y-135925000D01*
X192375000Y-135925000D01*
X192362748Y-135924398D01*
X192350614Y-135922598D01*
X192338714Y-135919618D01*
X192327165Y-135915485D01*
X192316075Y-135910240D01*
X192305554Y-135903934D01*
X192295701Y-135896626D01*
X192286612Y-135888388D01*
X192278374Y-135879299D01*
X192271066Y-135869446D01*
X192264760Y-135858925D01*
X192259515Y-135847835D01*
X192255382Y-135836286D01*
X192252402Y-135824386D01*
X192250602Y-135812252D01*
X192250000Y-135800000D01*
X192250000Y-134550000D01*
X192250602Y-134537748D01*
X192252402Y-134525614D01*
X192255382Y-134513714D01*
X192259515Y-134502165D01*
X192264760Y-134491075D01*
X192271066Y-134480554D01*
X192278374Y-134470701D01*
X192286612Y-134461612D01*
X192295701Y-134453374D01*
X192305554Y-134446066D01*
X192316075Y-134439760D01*
X192327165Y-134434515D01*
X192338714Y-134430382D01*
X192350614Y-134427402D01*
X192362748Y-134425602D01*
X192375000Y-134425000D01*
X192625000Y-134425000D01*
X192637252Y-134425602D01*
X192637252Y-134425602D01*
G37*
D17*
G04 #@! TD*
G04 #@! TO.P,U1,15*
G04 #@! TO.N,Net-(U1-Pad15)*
X192500000Y-135175000D03*
D14*
G04 #@! TO.N,GND*
G04 #@! TO.C,U1*
G36*
X193437252Y-134425602D02*
X193449386Y-134427402D01*
X193461286Y-134430382D01*
X193472835Y-134434515D01*
X193483925Y-134439760D01*
X193494446Y-134446066D01*
X193504299Y-134453374D01*
X193513388Y-134461612D01*
X193521626Y-134470701D01*
X193528934Y-134480554D01*
X193535240Y-134491075D01*
X193540485Y-134502165D01*
X193544618Y-134513714D01*
X193547598Y-134525614D01*
X193549398Y-134537748D01*
X193550000Y-134550000D01*
X193550000Y-135800000D01*
X193549398Y-135812252D01*
X193547598Y-135824386D01*
X193544618Y-135836286D01*
X193540485Y-135847835D01*
X193535240Y-135858925D01*
X193528934Y-135869446D01*
X193521626Y-135879299D01*
X193513388Y-135888388D01*
X193504299Y-135896626D01*
X193494446Y-135903934D01*
X193483925Y-135910240D01*
X193472835Y-135915485D01*
X193461286Y-135919618D01*
X193449386Y-135922598D01*
X193437252Y-135924398D01*
X193425000Y-135925000D01*
X193175000Y-135925000D01*
X193162748Y-135924398D01*
X193150614Y-135922598D01*
X193138714Y-135919618D01*
X193127165Y-135915485D01*
X193116075Y-135910240D01*
X193105554Y-135903934D01*
X193095701Y-135896626D01*
X193086612Y-135888388D01*
X193078374Y-135879299D01*
X193071066Y-135869446D01*
X193064760Y-135858925D01*
X193059515Y-135847835D01*
X193055382Y-135836286D01*
X193052402Y-135824386D01*
X193050602Y-135812252D01*
X193050000Y-135800000D01*
X193050000Y-134550000D01*
X193050602Y-134537748D01*
X193052402Y-134525614D01*
X193055382Y-134513714D01*
X193059515Y-134502165D01*
X193064760Y-134491075D01*
X193071066Y-134480554D01*
X193078374Y-134470701D01*
X193086612Y-134461612D01*
X193095701Y-134453374D01*
X193105554Y-134446066D01*
X193116075Y-134439760D01*
X193127165Y-134434515D01*
X193138714Y-134430382D01*
X193150614Y-134427402D01*
X193162748Y-134425602D01*
X193175000Y-134425000D01*
X193425000Y-134425000D01*
X193437252Y-134425602D01*
X193437252Y-134425602D01*
G37*
D17*
G04 #@! TD*
G04 #@! TO.P,U1,16*
G04 #@! TO.N,GND*
X193300000Y-135175000D03*
D14*
G04 #@! TO.N,VCC*
G04 #@! TO.C,U1*
G36*
X195312252Y-133550602D02*
X195324386Y-133552402D01*
X195336286Y-133555382D01*
X195347835Y-133559515D01*
X195358925Y-133564760D01*
X195369446Y-133571066D01*
X195379299Y-133578374D01*
X195388388Y-133586612D01*
X195396626Y-133595701D01*
X195403934Y-133605554D01*
X195410240Y-133616075D01*
X195415485Y-133627165D01*
X195419618Y-133638714D01*
X195422598Y-133650614D01*
X195424398Y-133662748D01*
X195425000Y-133675000D01*
X195425000Y-133925000D01*
X195424398Y-133937252D01*
X195422598Y-133949386D01*
X195419618Y-133961286D01*
X195415485Y-133972835D01*
X195410240Y-133983925D01*
X195403934Y-133994446D01*
X195396626Y-134004299D01*
X195388388Y-134013388D01*
X195379299Y-134021626D01*
X195369446Y-134028934D01*
X195358925Y-134035240D01*
X195347835Y-134040485D01*
X195336286Y-134044618D01*
X195324386Y-134047598D01*
X195312252Y-134049398D01*
X195300000Y-134050000D01*
X194050000Y-134050000D01*
X194037748Y-134049398D01*
X194025614Y-134047598D01*
X194013714Y-134044618D01*
X194002165Y-134040485D01*
X193991075Y-134035240D01*
X193980554Y-134028934D01*
X193970701Y-134021626D01*
X193961612Y-134013388D01*
X193953374Y-134004299D01*
X193946066Y-133994446D01*
X193939760Y-133983925D01*
X193934515Y-133972835D01*
X193930382Y-133961286D01*
X193927402Y-133949386D01*
X193925602Y-133937252D01*
X193925000Y-133925000D01*
X193925000Y-133675000D01*
X193925602Y-133662748D01*
X193927402Y-133650614D01*
X193930382Y-133638714D01*
X193934515Y-133627165D01*
X193939760Y-133616075D01*
X193946066Y-133605554D01*
X193953374Y-133595701D01*
X193961612Y-133586612D01*
X193970701Y-133578374D01*
X193980554Y-133571066D01*
X193991075Y-133564760D01*
X194002165Y-133559515D01*
X194013714Y-133555382D01*
X194025614Y-133552402D01*
X194037748Y-133550602D01*
X194050000Y-133550000D01*
X195300000Y-133550000D01*
X195312252Y-133550602D01*
X195312252Y-133550602D01*
G37*
D17*
G04 #@! TD*
G04 #@! TO.P,U1,17*
G04 #@! TO.N,VCC*
X194675000Y-133800000D03*
D14*
G04 #@! TO.N,Net-(U1-Pad18)*
G04 #@! TO.C,U1*
G36*
X195312252Y-132750602D02*
X195324386Y-132752402D01*
X195336286Y-132755382D01*
X195347835Y-132759515D01*
X195358925Y-132764760D01*
X195369446Y-132771066D01*
X195379299Y-132778374D01*
X195388388Y-132786612D01*
X195396626Y-132795701D01*
X195403934Y-132805554D01*
X195410240Y-132816075D01*
X195415485Y-132827165D01*
X195419618Y-132838714D01*
X195422598Y-132850614D01*
X195424398Y-132862748D01*
X195425000Y-132875000D01*
X195425000Y-133125000D01*
X195424398Y-133137252D01*
X195422598Y-133149386D01*
X195419618Y-133161286D01*
X195415485Y-133172835D01*
X195410240Y-133183925D01*
X195403934Y-133194446D01*
X195396626Y-133204299D01*
X195388388Y-133213388D01*
X195379299Y-133221626D01*
X195369446Y-133228934D01*
X195358925Y-133235240D01*
X195347835Y-133240485D01*
X195336286Y-133244618D01*
X195324386Y-133247598D01*
X195312252Y-133249398D01*
X195300000Y-133250000D01*
X194050000Y-133250000D01*
X194037748Y-133249398D01*
X194025614Y-133247598D01*
X194013714Y-133244618D01*
X194002165Y-133240485D01*
X193991075Y-133235240D01*
X193980554Y-133228934D01*
X193970701Y-133221626D01*
X193961612Y-133213388D01*
X193953374Y-133204299D01*
X193946066Y-133194446D01*
X193939760Y-133183925D01*
X193934515Y-133172835D01*
X193930382Y-133161286D01*
X193927402Y-133149386D01*
X193925602Y-133137252D01*
X193925000Y-133125000D01*
X193925000Y-132875000D01*
X193925602Y-132862748D01*
X193927402Y-132850614D01*
X193930382Y-132838714D01*
X193934515Y-132827165D01*
X193939760Y-132816075D01*
X193946066Y-132805554D01*
X193953374Y-132795701D01*
X193961612Y-132786612D01*
X193970701Y-132778374D01*
X193980554Y-132771066D01*
X193991075Y-132764760D01*
X194002165Y-132759515D01*
X194013714Y-132755382D01*
X194025614Y-132752402D01*
X194037748Y-132750602D01*
X194050000Y-132750000D01*
X195300000Y-132750000D01*
X195312252Y-132750602D01*
X195312252Y-132750602D01*
G37*
D17*
G04 #@! TD*
G04 #@! TO.P,U1,18*
G04 #@! TO.N,Net-(U1-Pad18)*
X194675000Y-133000000D03*
D14*
G04 #@! TO.N,/UART_TX*
G04 #@! TO.C,U1*
G36*
X195312252Y-131950602D02*
X195324386Y-131952402D01*
X195336286Y-131955382D01*
X195347835Y-131959515D01*
X195358925Y-131964760D01*
X195369446Y-131971066D01*
X195379299Y-131978374D01*
X195388388Y-131986612D01*
X195396626Y-131995701D01*
X195403934Y-132005554D01*
X195410240Y-132016075D01*
X195415485Y-132027165D01*
X195419618Y-132038714D01*
X195422598Y-132050614D01*
X195424398Y-132062748D01*
X195425000Y-132075000D01*
X195425000Y-132325000D01*
X195424398Y-132337252D01*
X195422598Y-132349386D01*
X195419618Y-132361286D01*
X195415485Y-132372835D01*
X195410240Y-132383925D01*
X195403934Y-132394446D01*
X195396626Y-132404299D01*
X195388388Y-132413388D01*
X195379299Y-132421626D01*
X195369446Y-132428934D01*
X195358925Y-132435240D01*
X195347835Y-132440485D01*
X195336286Y-132444618D01*
X195324386Y-132447598D01*
X195312252Y-132449398D01*
X195300000Y-132450000D01*
X194050000Y-132450000D01*
X194037748Y-132449398D01*
X194025614Y-132447598D01*
X194013714Y-132444618D01*
X194002165Y-132440485D01*
X193991075Y-132435240D01*
X193980554Y-132428934D01*
X193970701Y-132421626D01*
X193961612Y-132413388D01*
X193953374Y-132404299D01*
X193946066Y-132394446D01*
X193939760Y-132383925D01*
X193934515Y-132372835D01*
X193930382Y-132361286D01*
X193927402Y-132349386D01*
X193925602Y-132337252D01*
X193925000Y-132325000D01*
X193925000Y-132075000D01*
X193925602Y-132062748D01*
X193927402Y-132050614D01*
X193930382Y-132038714D01*
X193934515Y-132027165D01*
X193939760Y-132016075D01*
X193946066Y-132005554D01*
X193953374Y-131995701D01*
X193961612Y-131986612D01*
X193970701Y-131978374D01*
X193980554Y-131971066D01*
X193991075Y-131964760D01*
X194002165Y-131959515D01*
X194013714Y-131955382D01*
X194025614Y-131952402D01*
X194037748Y-131950602D01*
X194050000Y-131950000D01*
X195300000Y-131950000D01*
X195312252Y-131950602D01*
X195312252Y-131950602D01*
G37*
D17*
G04 #@! TD*
G04 #@! TO.P,U1,19*
G04 #@! TO.N,/UART_TX*
X194675000Y-132200000D03*
D14*
G04 #@! TO.N,/UART_RX*
G04 #@! TO.C,U1*
G36*
X195312252Y-131150602D02*
X195324386Y-131152402D01*
X195336286Y-131155382D01*
X195347835Y-131159515D01*
X195358925Y-131164760D01*
X195369446Y-131171066D01*
X195379299Y-131178374D01*
X195388388Y-131186612D01*
X195396626Y-131195701D01*
X195403934Y-131205554D01*
X195410240Y-131216075D01*
X195415485Y-131227165D01*
X195419618Y-131238714D01*
X195422598Y-131250614D01*
X195424398Y-131262748D01*
X195425000Y-131275000D01*
X195425000Y-131525000D01*
X195424398Y-131537252D01*
X195422598Y-131549386D01*
X195419618Y-131561286D01*
X195415485Y-131572835D01*
X195410240Y-131583925D01*
X195403934Y-131594446D01*
X195396626Y-131604299D01*
X195388388Y-131613388D01*
X195379299Y-131621626D01*
X195369446Y-131628934D01*
X195358925Y-131635240D01*
X195347835Y-131640485D01*
X195336286Y-131644618D01*
X195324386Y-131647598D01*
X195312252Y-131649398D01*
X195300000Y-131650000D01*
X194050000Y-131650000D01*
X194037748Y-131649398D01*
X194025614Y-131647598D01*
X194013714Y-131644618D01*
X194002165Y-131640485D01*
X193991075Y-131635240D01*
X193980554Y-131628934D01*
X193970701Y-131621626D01*
X193961612Y-131613388D01*
X193953374Y-131604299D01*
X193946066Y-131594446D01*
X193939760Y-131583925D01*
X193934515Y-131572835D01*
X193930382Y-131561286D01*
X193927402Y-131549386D01*
X193925602Y-131537252D01*
X193925000Y-131525000D01*
X193925000Y-131275000D01*
X193925602Y-131262748D01*
X193927402Y-131250614D01*
X193930382Y-131238714D01*
X193934515Y-131227165D01*
X193939760Y-131216075D01*
X193946066Y-131205554D01*
X193953374Y-131195701D01*
X193961612Y-131186612D01*
X193970701Y-131178374D01*
X193980554Y-131171066D01*
X193991075Y-131164760D01*
X194002165Y-131159515D01*
X194013714Y-131155382D01*
X194025614Y-131152402D01*
X194037748Y-131150602D01*
X194050000Y-131150000D01*
X195300000Y-131150000D01*
X195312252Y-131150602D01*
X195312252Y-131150602D01*
G37*
D17*
G04 #@! TD*
G04 #@! TO.P,U1,20*
G04 #@! TO.N,/UART_RX*
X194675000Y-131400000D03*
D14*
G04 #@! TO.N,/PA11*
G04 #@! TO.C,U1*
G36*
X195312252Y-130350602D02*
X195324386Y-130352402D01*
X195336286Y-130355382D01*
X195347835Y-130359515D01*
X195358925Y-130364760D01*
X195369446Y-130371066D01*
X195379299Y-130378374D01*
X195388388Y-130386612D01*
X195396626Y-130395701D01*
X195403934Y-130405554D01*
X195410240Y-130416075D01*
X195415485Y-130427165D01*
X195419618Y-130438714D01*
X195422598Y-130450614D01*
X195424398Y-130462748D01*
X195425000Y-130475000D01*
X195425000Y-130725000D01*
X195424398Y-130737252D01*
X195422598Y-130749386D01*
X195419618Y-130761286D01*
X195415485Y-130772835D01*
X195410240Y-130783925D01*
X195403934Y-130794446D01*
X195396626Y-130804299D01*
X195388388Y-130813388D01*
X195379299Y-130821626D01*
X195369446Y-130828934D01*
X195358925Y-130835240D01*
X195347835Y-130840485D01*
X195336286Y-130844618D01*
X195324386Y-130847598D01*
X195312252Y-130849398D01*
X195300000Y-130850000D01*
X194050000Y-130850000D01*
X194037748Y-130849398D01*
X194025614Y-130847598D01*
X194013714Y-130844618D01*
X194002165Y-130840485D01*
X193991075Y-130835240D01*
X193980554Y-130828934D01*
X193970701Y-130821626D01*
X193961612Y-130813388D01*
X193953374Y-130804299D01*
X193946066Y-130794446D01*
X193939760Y-130783925D01*
X193934515Y-130772835D01*
X193930382Y-130761286D01*
X193927402Y-130749386D01*
X193925602Y-130737252D01*
X193925000Y-130725000D01*
X193925000Y-130475000D01*
X193925602Y-130462748D01*
X193927402Y-130450614D01*
X193930382Y-130438714D01*
X193934515Y-130427165D01*
X193939760Y-130416075D01*
X193946066Y-130405554D01*
X193953374Y-130395701D01*
X193961612Y-130386612D01*
X193970701Y-130378374D01*
X193980554Y-130371066D01*
X193991075Y-130364760D01*
X194002165Y-130359515D01*
X194013714Y-130355382D01*
X194025614Y-130352402D01*
X194037748Y-130350602D01*
X194050000Y-130350000D01*
X195300000Y-130350000D01*
X195312252Y-130350602D01*
X195312252Y-130350602D01*
G37*
D17*
G04 #@! TD*
G04 #@! TO.P,U1,21*
G04 #@! TO.N,/PA11*
X194675000Y-130600000D03*
D14*
G04 #@! TO.N,Net-(U1-Pad22)*
G04 #@! TO.C,U1*
G36*
X195312252Y-129550602D02*
X195324386Y-129552402D01*
X195336286Y-129555382D01*
X195347835Y-129559515D01*
X195358925Y-129564760D01*
X195369446Y-129571066D01*
X195379299Y-129578374D01*
X195388388Y-129586612D01*
X195396626Y-129595701D01*
X195403934Y-129605554D01*
X195410240Y-129616075D01*
X195415485Y-129627165D01*
X195419618Y-129638714D01*
X195422598Y-129650614D01*
X195424398Y-129662748D01*
X195425000Y-129675000D01*
X195425000Y-129925000D01*
X195424398Y-129937252D01*
X195422598Y-129949386D01*
X195419618Y-129961286D01*
X195415485Y-129972835D01*
X195410240Y-129983925D01*
X195403934Y-129994446D01*
X195396626Y-130004299D01*
X195388388Y-130013388D01*
X195379299Y-130021626D01*
X195369446Y-130028934D01*
X195358925Y-130035240D01*
X195347835Y-130040485D01*
X195336286Y-130044618D01*
X195324386Y-130047598D01*
X195312252Y-130049398D01*
X195300000Y-130050000D01*
X194050000Y-130050000D01*
X194037748Y-130049398D01*
X194025614Y-130047598D01*
X194013714Y-130044618D01*
X194002165Y-130040485D01*
X193991075Y-130035240D01*
X193980554Y-130028934D01*
X193970701Y-130021626D01*
X193961612Y-130013388D01*
X193953374Y-130004299D01*
X193946066Y-129994446D01*
X193939760Y-129983925D01*
X193934515Y-129972835D01*
X193930382Y-129961286D01*
X193927402Y-129949386D01*
X193925602Y-129937252D01*
X193925000Y-129925000D01*
X193925000Y-129675000D01*
X193925602Y-129662748D01*
X193927402Y-129650614D01*
X193930382Y-129638714D01*
X193934515Y-129627165D01*
X193939760Y-129616075D01*
X193946066Y-129605554D01*
X193953374Y-129595701D01*
X193961612Y-129586612D01*
X193970701Y-129578374D01*
X193980554Y-129571066D01*
X193991075Y-129564760D01*
X194002165Y-129559515D01*
X194013714Y-129555382D01*
X194025614Y-129552402D01*
X194037748Y-129550602D01*
X194050000Y-129550000D01*
X195300000Y-129550000D01*
X195312252Y-129550602D01*
X195312252Y-129550602D01*
G37*
D17*
G04 #@! TD*
G04 #@! TO.P,U1,22*
G04 #@! TO.N,Net-(U1-Pad22)*
X194675000Y-129800000D03*
D14*
G04 #@! TO.N,/SWDIO*
G04 #@! TO.C,U1*
G36*
X195312252Y-128750602D02*
X195324386Y-128752402D01*
X195336286Y-128755382D01*
X195347835Y-128759515D01*
X195358925Y-128764760D01*
X195369446Y-128771066D01*
X195379299Y-128778374D01*
X195388388Y-128786612D01*
X195396626Y-128795701D01*
X195403934Y-128805554D01*
X195410240Y-128816075D01*
X195415485Y-128827165D01*
X195419618Y-128838714D01*
X195422598Y-128850614D01*
X195424398Y-128862748D01*
X195425000Y-128875000D01*
X195425000Y-129125000D01*
X195424398Y-129137252D01*
X195422598Y-129149386D01*
X195419618Y-129161286D01*
X195415485Y-129172835D01*
X195410240Y-129183925D01*
X195403934Y-129194446D01*
X195396626Y-129204299D01*
X195388388Y-129213388D01*
X195379299Y-129221626D01*
X195369446Y-129228934D01*
X195358925Y-129235240D01*
X195347835Y-129240485D01*
X195336286Y-129244618D01*
X195324386Y-129247598D01*
X195312252Y-129249398D01*
X195300000Y-129250000D01*
X194050000Y-129250000D01*
X194037748Y-129249398D01*
X194025614Y-129247598D01*
X194013714Y-129244618D01*
X194002165Y-129240485D01*
X193991075Y-129235240D01*
X193980554Y-129228934D01*
X193970701Y-129221626D01*
X193961612Y-129213388D01*
X193953374Y-129204299D01*
X193946066Y-129194446D01*
X193939760Y-129183925D01*
X193934515Y-129172835D01*
X193930382Y-129161286D01*
X193927402Y-129149386D01*
X193925602Y-129137252D01*
X193925000Y-129125000D01*
X193925000Y-128875000D01*
X193925602Y-128862748D01*
X193927402Y-128850614D01*
X193930382Y-128838714D01*
X193934515Y-128827165D01*
X193939760Y-128816075D01*
X193946066Y-128805554D01*
X193953374Y-128795701D01*
X193961612Y-128786612D01*
X193970701Y-128778374D01*
X193980554Y-128771066D01*
X193991075Y-128764760D01*
X194002165Y-128759515D01*
X194013714Y-128755382D01*
X194025614Y-128752402D01*
X194037748Y-128750602D01*
X194050000Y-128750000D01*
X195300000Y-128750000D01*
X195312252Y-128750602D01*
X195312252Y-128750602D01*
G37*
D17*
G04 #@! TD*
G04 #@! TO.P,U1,23*
G04 #@! TO.N,/SWDIO*
X194675000Y-129000000D03*
D14*
G04 #@! TO.N,/SWCLK*
G04 #@! TO.C,U1*
G36*
X195312252Y-127950602D02*
X195324386Y-127952402D01*
X195336286Y-127955382D01*
X195347835Y-127959515D01*
X195358925Y-127964760D01*
X195369446Y-127971066D01*
X195379299Y-127978374D01*
X195388388Y-127986612D01*
X195396626Y-127995701D01*
X195403934Y-128005554D01*
X195410240Y-128016075D01*
X195415485Y-128027165D01*
X195419618Y-128038714D01*
X195422598Y-128050614D01*
X195424398Y-128062748D01*
X195425000Y-128075000D01*
X195425000Y-128325000D01*
X195424398Y-128337252D01*
X195422598Y-128349386D01*
X195419618Y-128361286D01*
X195415485Y-128372835D01*
X195410240Y-128383925D01*
X195403934Y-128394446D01*
X195396626Y-128404299D01*
X195388388Y-128413388D01*
X195379299Y-128421626D01*
X195369446Y-128428934D01*
X195358925Y-128435240D01*
X195347835Y-128440485D01*
X195336286Y-128444618D01*
X195324386Y-128447598D01*
X195312252Y-128449398D01*
X195300000Y-128450000D01*
X194050000Y-128450000D01*
X194037748Y-128449398D01*
X194025614Y-128447598D01*
X194013714Y-128444618D01*
X194002165Y-128440485D01*
X193991075Y-128435240D01*
X193980554Y-128428934D01*
X193970701Y-128421626D01*
X193961612Y-128413388D01*
X193953374Y-128404299D01*
X193946066Y-128394446D01*
X193939760Y-128383925D01*
X193934515Y-128372835D01*
X193930382Y-128361286D01*
X193927402Y-128349386D01*
X193925602Y-128337252D01*
X193925000Y-128325000D01*
X193925000Y-128075000D01*
X193925602Y-128062748D01*
X193927402Y-128050614D01*
X193930382Y-128038714D01*
X193934515Y-128027165D01*
X193939760Y-128016075D01*
X193946066Y-128005554D01*
X193953374Y-127995701D01*
X193961612Y-127986612D01*
X193970701Y-127978374D01*
X193980554Y-127971066D01*
X193991075Y-127964760D01*
X194002165Y-127959515D01*
X194013714Y-127955382D01*
X194025614Y-127952402D01*
X194037748Y-127950602D01*
X194050000Y-127950000D01*
X195300000Y-127950000D01*
X195312252Y-127950602D01*
X195312252Y-127950602D01*
G37*
D17*
G04 #@! TD*
G04 #@! TO.P,U1,24*
G04 #@! TO.N,/SWCLK*
X194675000Y-128200000D03*
D14*
G04 #@! TO.N,/SENS_ENA*
G04 #@! TO.C,U1*
G36*
X193437252Y-126075602D02*
X193449386Y-126077402D01*
X193461286Y-126080382D01*
X193472835Y-126084515D01*
X193483925Y-126089760D01*
X193494446Y-126096066D01*
X193504299Y-126103374D01*
X193513388Y-126111612D01*
X193521626Y-126120701D01*
X193528934Y-126130554D01*
X193535240Y-126141075D01*
X193540485Y-126152165D01*
X193544618Y-126163714D01*
X193547598Y-126175614D01*
X193549398Y-126187748D01*
X193550000Y-126200000D01*
X193550000Y-127450000D01*
X193549398Y-127462252D01*
X193547598Y-127474386D01*
X193544618Y-127486286D01*
X193540485Y-127497835D01*
X193535240Y-127508925D01*
X193528934Y-127519446D01*
X193521626Y-127529299D01*
X193513388Y-127538388D01*
X193504299Y-127546626D01*
X193494446Y-127553934D01*
X193483925Y-127560240D01*
X193472835Y-127565485D01*
X193461286Y-127569618D01*
X193449386Y-127572598D01*
X193437252Y-127574398D01*
X193425000Y-127575000D01*
X193175000Y-127575000D01*
X193162748Y-127574398D01*
X193150614Y-127572598D01*
X193138714Y-127569618D01*
X193127165Y-127565485D01*
X193116075Y-127560240D01*
X193105554Y-127553934D01*
X193095701Y-127546626D01*
X193086612Y-127538388D01*
X193078374Y-127529299D01*
X193071066Y-127519446D01*
X193064760Y-127508925D01*
X193059515Y-127497835D01*
X193055382Y-127486286D01*
X193052402Y-127474386D01*
X193050602Y-127462252D01*
X193050000Y-127450000D01*
X193050000Y-126200000D01*
X193050602Y-126187748D01*
X193052402Y-126175614D01*
X193055382Y-126163714D01*
X193059515Y-126152165D01*
X193064760Y-126141075D01*
X193071066Y-126130554D01*
X193078374Y-126120701D01*
X193086612Y-126111612D01*
X193095701Y-126103374D01*
X193105554Y-126096066D01*
X193116075Y-126089760D01*
X193127165Y-126084515D01*
X193138714Y-126080382D01*
X193150614Y-126077402D01*
X193162748Y-126075602D01*
X193175000Y-126075000D01*
X193425000Y-126075000D01*
X193437252Y-126075602D01*
X193437252Y-126075602D01*
G37*
D17*
G04 #@! TD*
G04 #@! TO.P,U1,25*
G04 #@! TO.N,/SENS_ENA*
X193300000Y-126825000D03*
D14*
G04 #@! TO.N,Net-(U1-Pad26)*
G04 #@! TO.C,U1*
G36*
X192637252Y-126075602D02*
X192649386Y-126077402D01*
X192661286Y-126080382D01*
X192672835Y-126084515D01*
X192683925Y-126089760D01*
X192694446Y-126096066D01*
X192704299Y-126103374D01*
X192713388Y-126111612D01*
X192721626Y-126120701D01*
X192728934Y-126130554D01*
X192735240Y-126141075D01*
X192740485Y-126152165D01*
X192744618Y-126163714D01*
X192747598Y-126175614D01*
X192749398Y-126187748D01*
X192750000Y-126200000D01*
X192750000Y-127450000D01*
X192749398Y-127462252D01*
X192747598Y-127474386D01*
X192744618Y-127486286D01*
X192740485Y-127497835D01*
X192735240Y-127508925D01*
X192728934Y-127519446D01*
X192721626Y-127529299D01*
X192713388Y-127538388D01*
X192704299Y-127546626D01*
X192694446Y-127553934D01*
X192683925Y-127560240D01*
X192672835Y-127565485D01*
X192661286Y-127569618D01*
X192649386Y-127572598D01*
X192637252Y-127574398D01*
X192625000Y-127575000D01*
X192375000Y-127575000D01*
X192362748Y-127574398D01*
X192350614Y-127572598D01*
X192338714Y-127569618D01*
X192327165Y-127565485D01*
X192316075Y-127560240D01*
X192305554Y-127553934D01*
X192295701Y-127546626D01*
X192286612Y-127538388D01*
X192278374Y-127529299D01*
X192271066Y-127519446D01*
X192264760Y-127508925D01*
X192259515Y-127497835D01*
X192255382Y-127486286D01*
X192252402Y-127474386D01*
X192250602Y-127462252D01*
X192250000Y-127450000D01*
X192250000Y-126200000D01*
X192250602Y-126187748D01*
X192252402Y-126175614D01*
X192255382Y-126163714D01*
X192259515Y-126152165D01*
X192264760Y-126141075D01*
X192271066Y-126130554D01*
X192278374Y-126120701D01*
X192286612Y-126111612D01*
X192295701Y-126103374D01*
X192305554Y-126096066D01*
X192316075Y-126089760D01*
X192327165Y-126084515D01*
X192338714Y-126080382D01*
X192350614Y-126077402D01*
X192362748Y-126075602D01*
X192375000Y-126075000D01*
X192625000Y-126075000D01*
X192637252Y-126075602D01*
X192637252Y-126075602D01*
G37*
D17*
G04 #@! TD*
G04 #@! TO.P,U1,26*
G04 #@! TO.N,Net-(U1-Pad26)*
X192500000Y-126825000D03*
D14*
G04 #@! TO.N,Net-(U1-Pad27)*
G04 #@! TO.C,U1*
G36*
X191837252Y-126075602D02*
X191849386Y-126077402D01*
X191861286Y-126080382D01*
X191872835Y-126084515D01*
X191883925Y-126089760D01*
X191894446Y-126096066D01*
X191904299Y-126103374D01*
X191913388Y-126111612D01*
X191921626Y-126120701D01*
X191928934Y-126130554D01*
X191935240Y-126141075D01*
X191940485Y-126152165D01*
X191944618Y-126163714D01*
X191947598Y-126175614D01*
X191949398Y-126187748D01*
X191950000Y-126200000D01*
X191950000Y-127450000D01*
X191949398Y-127462252D01*
X191947598Y-127474386D01*
X191944618Y-127486286D01*
X191940485Y-127497835D01*
X191935240Y-127508925D01*
X191928934Y-127519446D01*
X191921626Y-127529299D01*
X191913388Y-127538388D01*
X191904299Y-127546626D01*
X191894446Y-127553934D01*
X191883925Y-127560240D01*
X191872835Y-127565485D01*
X191861286Y-127569618D01*
X191849386Y-127572598D01*
X191837252Y-127574398D01*
X191825000Y-127575000D01*
X191575000Y-127575000D01*
X191562748Y-127574398D01*
X191550614Y-127572598D01*
X191538714Y-127569618D01*
X191527165Y-127565485D01*
X191516075Y-127560240D01*
X191505554Y-127553934D01*
X191495701Y-127546626D01*
X191486612Y-127538388D01*
X191478374Y-127529299D01*
X191471066Y-127519446D01*
X191464760Y-127508925D01*
X191459515Y-127497835D01*
X191455382Y-127486286D01*
X191452402Y-127474386D01*
X191450602Y-127462252D01*
X191450000Y-127450000D01*
X191450000Y-126200000D01*
X191450602Y-126187748D01*
X191452402Y-126175614D01*
X191455382Y-126163714D01*
X191459515Y-126152165D01*
X191464760Y-126141075D01*
X191471066Y-126130554D01*
X191478374Y-126120701D01*
X191486612Y-126111612D01*
X191495701Y-126103374D01*
X191505554Y-126096066D01*
X191516075Y-126089760D01*
X191527165Y-126084515D01*
X191538714Y-126080382D01*
X191550614Y-126077402D01*
X191562748Y-126075602D01*
X191575000Y-126075000D01*
X191825000Y-126075000D01*
X191837252Y-126075602D01*
X191837252Y-126075602D01*
G37*
D17*
G04 #@! TD*
G04 #@! TO.P,U1,27*
G04 #@! TO.N,Net-(U1-Pad27)*
X191700000Y-126825000D03*
D14*
G04 #@! TO.N,Net-(U1-Pad28)*
G04 #@! TO.C,U1*
G36*
X191037252Y-126075602D02*
X191049386Y-126077402D01*
X191061286Y-126080382D01*
X191072835Y-126084515D01*
X191083925Y-126089760D01*
X191094446Y-126096066D01*
X191104299Y-126103374D01*
X191113388Y-126111612D01*
X191121626Y-126120701D01*
X191128934Y-126130554D01*
X191135240Y-126141075D01*
X191140485Y-126152165D01*
X191144618Y-126163714D01*
X191147598Y-126175614D01*
X191149398Y-126187748D01*
X191150000Y-126200000D01*
X191150000Y-127450000D01*
X191149398Y-127462252D01*
X191147598Y-127474386D01*
X191144618Y-127486286D01*
X191140485Y-127497835D01*
X191135240Y-127508925D01*
X191128934Y-127519446D01*
X191121626Y-127529299D01*
X191113388Y-127538388D01*
X191104299Y-127546626D01*
X191094446Y-127553934D01*
X191083925Y-127560240D01*
X191072835Y-127565485D01*
X191061286Y-127569618D01*
X191049386Y-127572598D01*
X191037252Y-127574398D01*
X191025000Y-127575000D01*
X190775000Y-127575000D01*
X190762748Y-127574398D01*
X190750614Y-127572598D01*
X190738714Y-127569618D01*
X190727165Y-127565485D01*
X190716075Y-127560240D01*
X190705554Y-127553934D01*
X190695701Y-127546626D01*
X190686612Y-127538388D01*
X190678374Y-127529299D01*
X190671066Y-127519446D01*
X190664760Y-127508925D01*
X190659515Y-127497835D01*
X190655382Y-127486286D01*
X190652402Y-127474386D01*
X190650602Y-127462252D01*
X190650000Y-127450000D01*
X190650000Y-126200000D01*
X190650602Y-126187748D01*
X190652402Y-126175614D01*
X190655382Y-126163714D01*
X190659515Y-126152165D01*
X190664760Y-126141075D01*
X190671066Y-126130554D01*
X190678374Y-126120701D01*
X190686612Y-126111612D01*
X190695701Y-126103374D01*
X190705554Y-126096066D01*
X190716075Y-126089760D01*
X190727165Y-126084515D01*
X190738714Y-126080382D01*
X190750614Y-126077402D01*
X190762748Y-126075602D01*
X190775000Y-126075000D01*
X191025000Y-126075000D01*
X191037252Y-126075602D01*
X191037252Y-126075602D01*
G37*
D17*
G04 #@! TD*
G04 #@! TO.P,U1,28*
G04 #@! TO.N,Net-(U1-Pad28)*
X190900000Y-126825000D03*
D14*
G04 #@! TO.N,Net-(U1-Pad29)*
G04 #@! TO.C,U1*
G36*
X190237252Y-126075602D02*
X190249386Y-126077402D01*
X190261286Y-126080382D01*
X190272835Y-126084515D01*
X190283925Y-126089760D01*
X190294446Y-126096066D01*
X190304299Y-126103374D01*
X190313388Y-126111612D01*
X190321626Y-126120701D01*
X190328934Y-126130554D01*
X190335240Y-126141075D01*
X190340485Y-126152165D01*
X190344618Y-126163714D01*
X190347598Y-126175614D01*
X190349398Y-126187748D01*
X190350000Y-126200000D01*
X190350000Y-127450000D01*
X190349398Y-127462252D01*
X190347598Y-127474386D01*
X190344618Y-127486286D01*
X190340485Y-127497835D01*
X190335240Y-127508925D01*
X190328934Y-127519446D01*
X190321626Y-127529299D01*
X190313388Y-127538388D01*
X190304299Y-127546626D01*
X190294446Y-127553934D01*
X190283925Y-127560240D01*
X190272835Y-127565485D01*
X190261286Y-127569618D01*
X190249386Y-127572598D01*
X190237252Y-127574398D01*
X190225000Y-127575000D01*
X189975000Y-127575000D01*
X189962748Y-127574398D01*
X189950614Y-127572598D01*
X189938714Y-127569618D01*
X189927165Y-127565485D01*
X189916075Y-127560240D01*
X189905554Y-127553934D01*
X189895701Y-127546626D01*
X189886612Y-127538388D01*
X189878374Y-127529299D01*
X189871066Y-127519446D01*
X189864760Y-127508925D01*
X189859515Y-127497835D01*
X189855382Y-127486286D01*
X189852402Y-127474386D01*
X189850602Y-127462252D01*
X189850000Y-127450000D01*
X189850000Y-126200000D01*
X189850602Y-126187748D01*
X189852402Y-126175614D01*
X189855382Y-126163714D01*
X189859515Y-126152165D01*
X189864760Y-126141075D01*
X189871066Y-126130554D01*
X189878374Y-126120701D01*
X189886612Y-126111612D01*
X189895701Y-126103374D01*
X189905554Y-126096066D01*
X189916075Y-126089760D01*
X189927165Y-126084515D01*
X189938714Y-126080382D01*
X189950614Y-126077402D01*
X189962748Y-126075602D01*
X189975000Y-126075000D01*
X190225000Y-126075000D01*
X190237252Y-126075602D01*
X190237252Y-126075602D01*
G37*
D17*
G04 #@! TD*
G04 #@! TO.P,U1,29*
G04 #@! TO.N,Net-(U1-Pad29)*
X190100000Y-126825000D03*
D14*
G04 #@! TO.N,Net-(U1-Pad30)*
G04 #@! TO.C,U1*
G36*
X189437252Y-126075602D02*
X189449386Y-126077402D01*
X189461286Y-126080382D01*
X189472835Y-126084515D01*
X189483925Y-126089760D01*
X189494446Y-126096066D01*
X189504299Y-126103374D01*
X189513388Y-126111612D01*
X189521626Y-126120701D01*
X189528934Y-126130554D01*
X189535240Y-126141075D01*
X189540485Y-126152165D01*
X189544618Y-126163714D01*
X189547598Y-126175614D01*
X189549398Y-126187748D01*
X189550000Y-126200000D01*
X189550000Y-127450000D01*
X189549398Y-127462252D01*
X189547598Y-127474386D01*
X189544618Y-127486286D01*
X189540485Y-127497835D01*
X189535240Y-127508925D01*
X189528934Y-127519446D01*
X189521626Y-127529299D01*
X189513388Y-127538388D01*
X189504299Y-127546626D01*
X189494446Y-127553934D01*
X189483925Y-127560240D01*
X189472835Y-127565485D01*
X189461286Y-127569618D01*
X189449386Y-127572598D01*
X189437252Y-127574398D01*
X189425000Y-127575000D01*
X189175000Y-127575000D01*
X189162748Y-127574398D01*
X189150614Y-127572598D01*
X189138714Y-127569618D01*
X189127165Y-127565485D01*
X189116075Y-127560240D01*
X189105554Y-127553934D01*
X189095701Y-127546626D01*
X189086612Y-127538388D01*
X189078374Y-127529299D01*
X189071066Y-127519446D01*
X189064760Y-127508925D01*
X189059515Y-127497835D01*
X189055382Y-127486286D01*
X189052402Y-127474386D01*
X189050602Y-127462252D01*
X189050000Y-127450000D01*
X189050000Y-126200000D01*
X189050602Y-126187748D01*
X189052402Y-126175614D01*
X189055382Y-126163714D01*
X189059515Y-126152165D01*
X189064760Y-126141075D01*
X189071066Y-126130554D01*
X189078374Y-126120701D01*
X189086612Y-126111612D01*
X189095701Y-126103374D01*
X189105554Y-126096066D01*
X189116075Y-126089760D01*
X189127165Y-126084515D01*
X189138714Y-126080382D01*
X189150614Y-126077402D01*
X189162748Y-126075602D01*
X189175000Y-126075000D01*
X189425000Y-126075000D01*
X189437252Y-126075602D01*
X189437252Y-126075602D01*
G37*
D17*
G04 #@! TD*
G04 #@! TO.P,U1,30*
G04 #@! TO.N,Net-(U1-Pad30)*
X189300000Y-126825000D03*
D14*
G04 #@! TO.N,GND*
G04 #@! TO.C,U1*
G36*
X188637252Y-126075602D02*
X188649386Y-126077402D01*
X188661286Y-126080382D01*
X188672835Y-126084515D01*
X188683925Y-126089760D01*
X188694446Y-126096066D01*
X188704299Y-126103374D01*
X188713388Y-126111612D01*
X188721626Y-126120701D01*
X188728934Y-126130554D01*
X188735240Y-126141075D01*
X188740485Y-126152165D01*
X188744618Y-126163714D01*
X188747598Y-126175614D01*
X188749398Y-126187748D01*
X188750000Y-126200000D01*
X188750000Y-127450000D01*
X188749398Y-127462252D01*
X188747598Y-127474386D01*
X188744618Y-127486286D01*
X188740485Y-127497835D01*
X188735240Y-127508925D01*
X188728934Y-127519446D01*
X188721626Y-127529299D01*
X188713388Y-127538388D01*
X188704299Y-127546626D01*
X188694446Y-127553934D01*
X188683925Y-127560240D01*
X188672835Y-127565485D01*
X188661286Y-127569618D01*
X188649386Y-127572598D01*
X188637252Y-127574398D01*
X188625000Y-127575000D01*
X188375000Y-127575000D01*
X188362748Y-127574398D01*
X188350614Y-127572598D01*
X188338714Y-127569618D01*
X188327165Y-127565485D01*
X188316075Y-127560240D01*
X188305554Y-127553934D01*
X188295701Y-127546626D01*
X188286612Y-127538388D01*
X188278374Y-127529299D01*
X188271066Y-127519446D01*
X188264760Y-127508925D01*
X188259515Y-127497835D01*
X188255382Y-127486286D01*
X188252402Y-127474386D01*
X188250602Y-127462252D01*
X188250000Y-127450000D01*
X188250000Y-126200000D01*
X188250602Y-126187748D01*
X188252402Y-126175614D01*
X188255382Y-126163714D01*
X188259515Y-126152165D01*
X188264760Y-126141075D01*
X188271066Y-126130554D01*
X188278374Y-126120701D01*
X188286612Y-126111612D01*
X188295701Y-126103374D01*
X188305554Y-126096066D01*
X188316075Y-126089760D01*
X188327165Y-126084515D01*
X188338714Y-126080382D01*
X188350614Y-126077402D01*
X188362748Y-126075602D01*
X188375000Y-126075000D01*
X188625000Y-126075000D01*
X188637252Y-126075602D01*
X188637252Y-126075602D01*
G37*
D17*
G04 #@! TD*
G04 #@! TO.P,U1,31*
G04 #@! TO.N,GND*
X188500000Y-126825000D03*
D14*
G04 #@! TO.N,GND*
G04 #@! TO.C,U1*
G36*
X187837252Y-126075602D02*
X187849386Y-126077402D01*
X187861286Y-126080382D01*
X187872835Y-126084515D01*
X187883925Y-126089760D01*
X187894446Y-126096066D01*
X187904299Y-126103374D01*
X187913388Y-126111612D01*
X187921626Y-126120701D01*
X187928934Y-126130554D01*
X187935240Y-126141075D01*
X187940485Y-126152165D01*
X187944618Y-126163714D01*
X187947598Y-126175614D01*
X187949398Y-126187748D01*
X187950000Y-126200000D01*
X187950000Y-127450000D01*
X187949398Y-127462252D01*
X187947598Y-127474386D01*
X187944618Y-127486286D01*
X187940485Y-127497835D01*
X187935240Y-127508925D01*
X187928934Y-127519446D01*
X187921626Y-127529299D01*
X187913388Y-127538388D01*
X187904299Y-127546626D01*
X187894446Y-127553934D01*
X187883925Y-127560240D01*
X187872835Y-127565485D01*
X187861286Y-127569618D01*
X187849386Y-127572598D01*
X187837252Y-127574398D01*
X187825000Y-127575000D01*
X187575000Y-127575000D01*
X187562748Y-127574398D01*
X187550614Y-127572598D01*
X187538714Y-127569618D01*
X187527165Y-127565485D01*
X187516075Y-127560240D01*
X187505554Y-127553934D01*
X187495701Y-127546626D01*
X187486612Y-127538388D01*
X187478374Y-127529299D01*
X187471066Y-127519446D01*
X187464760Y-127508925D01*
X187459515Y-127497835D01*
X187455382Y-127486286D01*
X187452402Y-127474386D01*
X187450602Y-127462252D01*
X187450000Y-127450000D01*
X187450000Y-126200000D01*
X187450602Y-126187748D01*
X187452402Y-126175614D01*
X187455382Y-126163714D01*
X187459515Y-126152165D01*
X187464760Y-126141075D01*
X187471066Y-126130554D01*
X187478374Y-126120701D01*
X187486612Y-126111612D01*
X187495701Y-126103374D01*
X187505554Y-126096066D01*
X187516075Y-126089760D01*
X187527165Y-126084515D01*
X187538714Y-126080382D01*
X187550614Y-126077402D01*
X187562748Y-126075602D01*
X187575000Y-126075000D01*
X187825000Y-126075000D01*
X187837252Y-126075602D01*
X187837252Y-126075602D01*
G37*
D17*
G04 #@! TD*
G04 #@! TO.P,U1,32*
G04 #@! TO.N,GND*
X187700000Y-126825000D03*
D10*
G04 #@! TO.P,Q2,2*
G04 #@! TO.N,GND*
X189000000Y-144950000D03*
G04 #@! TO.P,Q2,1*
G04 #@! TO.N,/OUT1*
X189000000Y-143050000D03*
G04 #@! TO.P,Q2,3*
G04 #@! TO.N,Net-(J4-Pad2)*
X191000000Y-144000000D03*
G04 #@! TD*
D18*
G04 #@! TO.P,U2,1*
G04 #@! TO.N,VCC*
X182750000Y-138750000D03*
D19*
G04 #@! TO.P,U2,2*
G04 #@! TO.N,GND*
X182850000Y-140250000D03*
D18*
G04 #@! TO.P,U2,3*
G04 #@! TO.N,+5V*
X182750000Y-141750000D03*
D20*
G04 #@! TO.P,U2,2*
G04 #@! TO.N,GND*
X185250000Y-140250000D03*
G04 #@! TD*
D21*
G04 #@! TO.N,GND*
X181000000Y-126000000D03*
X181000000Y-132000000D03*
X181000000Y-137000000D03*
X181000000Y-142000000D03*
X181000000Y-147000000D03*
X193000000Y-147000000D03*
X181000000Y-121000000D03*
X185000000Y-121000000D03*
X187000000Y-144000000D03*
X187000000Y-146000000D03*
X195000000Y-124000000D03*
X200000000Y-122000000D03*
X190000000Y-125000000D03*
X196000000Y-122000000D03*
X198000000Y-123000000D03*
X186500000Y-126500000D03*
X183000000Y-126500000D03*
X192500000Y-125000000D03*
X191500000Y-129500000D03*
X190000000Y-131500000D03*
X193000000Y-132000000D03*
X196500000Y-144000000D03*
X195000000Y-141500000D03*
X191000000Y-137000000D03*
X193000000Y-145000000D03*
X186000000Y-137500000D03*
G04 #@! TO.N,/NRST*
X197000000Y-130600000D03*
X193100000Y-130600000D03*
G04 #@! TO.N,VCC*
X184037500Y-133062500D03*
X189100000Y-133100000D03*
X196300004Y-133900000D03*
G04 #@! TO.N,/ADC_SOIL1*
X188600000Y-129100000D03*
G04 #@! TD*
D22*
G04 #@! TO.N,GND*
X188500000Y-126825000D02*
X188500000Y-125500000D01*
X185500000Y-140250000D02*
X186500000Y-139250000D01*
X185250000Y-140250000D02*
X185500000Y-140250000D01*
X186500000Y-138000000D02*
X186000000Y-137500000D01*
D23*
X186500000Y-139250000D02*
X186500000Y-138000000D01*
D22*
X185500000Y-140250000D02*
X186500000Y-141250000D01*
D23*
X186500000Y-141250000D02*
X186500000Y-143000000D01*
D22*
G04 #@! TO.N,/NRST*
X187175000Y-130600000D02*
X187800000Y-129975000D01*
X186325000Y-130600000D02*
X187175000Y-130600000D01*
X187800000Y-129975000D02*
X187800000Y-128700000D01*
X187800000Y-128700000D02*
X188400000Y-128100000D01*
X188400000Y-128100000D02*
X192500000Y-128100000D01*
X193100000Y-128700000D02*
X193100000Y-130600000D01*
X192500000Y-128100000D02*
X193100000Y-128700000D01*
X198150022Y-131750022D02*
X197399999Y-130999999D01*
X198150022Y-136310022D02*
X198150022Y-131750022D01*
X200000000Y-138160000D02*
X198150022Y-136310022D01*
X197399999Y-130999999D02*
X197000000Y-130600000D01*
D24*
G04 #@! TO.N,VCC*
X195000000Y-133800000D02*
X194675000Y-133800000D01*
X195000000Y-135212500D02*
X195000000Y-133800000D01*
D25*
X184037500Y-136750000D02*
X184037500Y-135250000D01*
D22*
X187500000Y-131400000D02*
X186325000Y-131400000D01*
X187700000Y-131600000D02*
X187500000Y-131400000D01*
X187700000Y-132000000D02*
X187700000Y-131600000D01*
X186325000Y-132200000D02*
X187500000Y-132200000D01*
X187500000Y-132200000D02*
X187700000Y-132000000D01*
D24*
X184387500Y-128200000D02*
X186325000Y-128200000D01*
X184387500Y-131400000D02*
X186325000Y-131400000D01*
D25*
X184037500Y-135250000D02*
X184037500Y-133062500D01*
X184387500Y-132712500D02*
X184387500Y-131400000D01*
X184037500Y-133062500D02*
X184387500Y-132712500D01*
X184387500Y-131400000D02*
X184387500Y-128200000D01*
X192600000Y-133100000D02*
X189100000Y-133100000D01*
X194675000Y-133800000D02*
X193300000Y-133800000D01*
X193300000Y-133800000D02*
X192600000Y-133100000D01*
D22*
X196200004Y-133800000D02*
X196300004Y-133900000D01*
X194675000Y-133800000D02*
X196200004Y-133800000D01*
X184387500Y-126612500D02*
X184387500Y-128200000D01*
X187600000Y-123400000D02*
X184387500Y-126612500D01*
X189560000Y-123400000D02*
X187600000Y-123400000D01*
X190960000Y-122000000D02*
X189560000Y-123400000D01*
D25*
X183750000Y-138750000D02*
X184037500Y-138462500D01*
X182750000Y-138750000D02*
X183750000Y-138750000D01*
X184037500Y-138462500D02*
X184037500Y-136750000D01*
D22*
G04 #@! TO.N,/SENS_ENA*
X197125000Y-126825000D02*
X197200000Y-126750000D01*
X193300000Y-126825000D02*
X197125000Y-126825000D01*
X198850000Y-125100000D02*
X197200000Y-126750000D01*
X198912500Y-125100000D02*
X198850000Y-125100000D01*
D23*
G04 #@! TO.N,Net-(J4-Pad2)*
X191000000Y-147710000D02*
X191000000Y-144000000D01*
X191290000Y-148000000D02*
X191000000Y-147710000D01*
D22*
G04 #@! TO.N,/BAT_LO*
X189212500Y-138225000D02*
X189212500Y-139000000D01*
X189212500Y-137212500D02*
X189212500Y-138225000D01*
X188500000Y-135175000D02*
X188500000Y-136500000D01*
X188500000Y-136500000D02*
X189212500Y-137212500D01*
G04 #@! TO.N,/UART_TX*
X197150002Y-142690002D02*
X199150001Y-144690001D01*
X197150002Y-132650002D02*
X197150002Y-142690002D01*
X199150001Y-144690001D02*
X200000000Y-145540000D01*
X194675000Y-132200000D02*
X196700000Y-132200000D01*
X196700000Y-132200000D02*
X197150002Y-132650002D01*
G04 #@! TO.N,/UART_RX*
X197650013Y-140650013D02*
X200000000Y-143000000D01*
X197650013Y-132250013D02*
X197650013Y-140650013D01*
X194675000Y-131400000D02*
X196800000Y-131400000D01*
X196800000Y-131400000D02*
X197650013Y-132250013D01*
G04 #@! TO.N,Net-(LD13-Pad2)*
X190787500Y-139000000D02*
X192975000Y-139000000D01*
G04 #@! TO.N,/OUT1*
X189000000Y-142350000D02*
X189000000Y-143050000D01*
X187750000Y-141100000D02*
X189000000Y-142350000D01*
X187750000Y-137500000D02*
X187750000Y-141100000D01*
X186325000Y-133800000D02*
X186325000Y-136075000D01*
X186325000Y-136075000D02*
X187750000Y-137500000D01*
G04 #@! TO.N,Net-(LD3-Pad2)*
X190787500Y-141000000D02*
X192000000Y-141000000D01*
X192975000Y-141975000D02*
X192975000Y-143000000D01*
X192000000Y-141000000D02*
X192975000Y-141975000D01*
G04 #@! TO.N,/SWDIO*
X199150001Y-134770001D02*
X200000000Y-135620000D01*
X194675000Y-129000000D02*
X197000000Y-129000000D01*
X197000000Y-129000000D02*
X198650033Y-130650033D01*
X198650033Y-134270032D02*
X199150001Y-134770001D01*
X198650033Y-130650033D02*
X198650033Y-134270032D01*
G04 #@! TO.N,/SWCLK*
X197660000Y-128200000D02*
X200000000Y-130540000D01*
X194675000Y-128200000D02*
X197660000Y-128200000D01*
G04 #@! TO.N,/ADC_SOIL1*
X188000000Y-133000000D02*
X188600000Y-132400000D01*
X188600000Y-132400000D02*
X188600000Y-129665685D01*
X186325000Y-133000000D02*
X188000000Y-133000000D01*
X188600000Y-129665685D02*
X188600000Y-129100000D01*
D25*
G04 #@! TO.N,+5V*
X185000000Y-146212500D02*
X184037500Y-145250000D01*
X185000000Y-148000000D02*
X185000000Y-146212500D01*
X184037500Y-145250000D02*
X184037500Y-143750000D01*
X183700000Y-141750000D02*
X182750000Y-141750000D01*
X184037500Y-143750000D02*
X184037500Y-142087500D01*
X184037500Y-142087500D02*
X183700000Y-141750000D01*
D23*
X188750000Y-148000000D02*
X185000000Y-148000000D01*
D22*
G04 #@! TO.N,Net-(J3-Pad1)*
X193500000Y-124150000D02*
X195150000Y-125800000D01*
X195150000Y-125800000D02*
X195200000Y-125800000D01*
X193500000Y-122000000D02*
X193500000Y-124150000D01*
G04 #@! TO.N,/LED1*
X189000000Y-141212500D02*
X189212500Y-141000000D01*
X188250000Y-140000000D02*
X189212500Y-140962500D01*
X189212500Y-140962500D02*
X189212500Y-141000000D01*
X188250000Y-137250000D02*
X188250000Y-140000000D01*
X187700000Y-135175000D02*
X187700000Y-136700000D01*
X187700000Y-136700000D02*
X188250000Y-137250000D01*
G04 #@! TD*
D26*
G04 #@! TO.N,GND*
G36*
X196373003Y-142613472D02*
X196357780Y-142690002D01*
X196411629Y-142960717D01*
X196418085Y-142993172D01*
X196589817Y-143250188D01*
X196654695Y-143293538D01*
X198561605Y-145200449D01*
X198494064Y-145540000D01*
X198608697Y-146116297D01*
X198935142Y-146604858D01*
X199256934Y-146819872D01*
X199118642Y-146884817D01*
X198728355Y-147313076D01*
X198558524Y-147723110D01*
X198679845Y-147953000D01*
X199873000Y-147953000D01*
X199873000Y-147933000D01*
X200127000Y-147933000D01*
X200127000Y-147953000D01*
X200147000Y-147953000D01*
X200147000Y-148207000D01*
X200127000Y-148207000D01*
X200127000Y-148227000D01*
X199873000Y-148227000D01*
X199873000Y-148207000D01*
X198679845Y-148207000D01*
X198558524Y-148436890D01*
X198728355Y-148846924D01*
X199118642Y-149275183D01*
X199325864Y-149372500D01*
X191894438Y-149372500D01*
X192354858Y-149064858D01*
X192681303Y-148576297D01*
X192795936Y-148000000D01*
X192681303Y-147423703D01*
X192354858Y-146935142D01*
X191927000Y-146649257D01*
X191927000Y-146557022D01*
X193773000Y-146557022D01*
X193773000Y-147442978D01*
X194112040Y-148261494D01*
X194738506Y-148887960D01*
X195557022Y-149227000D01*
X196442978Y-149227000D01*
X197261494Y-148887960D01*
X197887960Y-148261494D01*
X198227000Y-147442978D01*
X198227000Y-146557022D01*
X197887960Y-145738506D01*
X197261494Y-145112040D01*
X196442978Y-144773000D01*
X195557022Y-144773000D01*
X194738506Y-145112040D01*
X194112040Y-145738506D01*
X193773000Y-146557022D01*
X191927000Y-146557022D01*
X191927000Y-144814687D01*
X192040620Y-144644643D01*
X192089283Y-144400000D01*
X192089283Y-144246471D01*
X192155357Y-144290620D01*
X192400000Y-144339283D01*
X193550000Y-144339283D01*
X193794643Y-144290620D01*
X194002041Y-144152041D01*
X194002832Y-144150857D01*
X194090302Y-144238327D01*
X194323691Y-144335000D01*
X194739250Y-144335000D01*
X194898000Y-144176250D01*
X194898000Y-143127000D01*
X195152000Y-143127000D01*
X195152000Y-144176250D01*
X195310750Y-144335000D01*
X195726309Y-144335000D01*
X195959698Y-144238327D01*
X196138327Y-144059699D01*
X196235000Y-143826310D01*
X196235000Y-143285750D01*
X196076250Y-143127000D01*
X195152000Y-143127000D01*
X194898000Y-143127000D01*
X194878000Y-143127000D01*
X194878000Y-142873000D01*
X194898000Y-142873000D01*
X194898000Y-141823750D01*
X195152000Y-141823750D01*
X195152000Y-142873000D01*
X196076250Y-142873000D01*
X196235000Y-142714250D01*
X196235000Y-142173690D01*
X196138327Y-141940301D01*
X195959698Y-141761673D01*
X195726309Y-141665000D01*
X195310750Y-141665000D01*
X195152000Y-141823750D01*
X194898000Y-141823750D01*
X194739250Y-141665000D01*
X194323691Y-141665000D01*
X194090302Y-141761673D01*
X194002832Y-141849143D01*
X194002041Y-141847959D01*
X193794643Y-141709380D01*
X193711081Y-141692758D01*
X193706918Y-141671830D01*
X193535186Y-141414814D01*
X193470308Y-141371464D01*
X192603538Y-140504695D01*
X192560186Y-140439814D01*
X192409730Y-140339283D01*
X193550000Y-140339283D01*
X193794643Y-140290620D01*
X194002041Y-140152041D01*
X194002832Y-140150857D01*
X194090302Y-140238327D01*
X194323691Y-140335000D01*
X194739250Y-140335000D01*
X194898000Y-140176250D01*
X194898000Y-139127000D01*
X195152000Y-139127000D01*
X195152000Y-140176250D01*
X195310750Y-140335000D01*
X195726309Y-140335000D01*
X195959698Y-140238327D01*
X196138327Y-140059699D01*
X196235000Y-139826310D01*
X196235000Y-139285750D01*
X196076250Y-139127000D01*
X195152000Y-139127000D01*
X194898000Y-139127000D01*
X194878000Y-139127000D01*
X194878000Y-138873000D01*
X194898000Y-138873000D01*
X194898000Y-137823750D01*
X194824250Y-137750000D01*
X194873000Y-137701250D01*
X194873000Y-136914500D01*
X195127000Y-136914500D01*
X195127000Y-137701250D01*
X195200750Y-137775000D01*
X195152000Y-137823750D01*
X195152000Y-138873000D01*
X196076250Y-138873000D01*
X196235000Y-138714250D01*
X196235000Y-138173690D01*
X196138327Y-137940301D01*
X195959698Y-137761673D01*
X195872480Y-137725546D01*
X196013327Y-137584698D01*
X196110000Y-137351309D01*
X196110000Y-137073250D01*
X195951250Y-136914500D01*
X195127000Y-136914500D01*
X194873000Y-136914500D01*
X194048750Y-136914500D01*
X193890000Y-137073250D01*
X193890000Y-137351309D01*
X193986673Y-137584698D01*
X194142165Y-137740191D01*
X194090302Y-137761673D01*
X194002832Y-137849143D01*
X194002041Y-137847959D01*
X193794643Y-137709380D01*
X193550000Y-137660717D01*
X192400000Y-137660717D01*
X192155357Y-137709380D01*
X191947959Y-137847959D01*
X191809380Y-138055357D01*
X191776323Y-138221545D01*
X191677041Y-138072959D01*
X191469643Y-137934380D01*
X191225000Y-137885717D01*
X190350000Y-137885717D01*
X190105357Y-137934380D01*
X190000000Y-138004777D01*
X189989500Y-137997761D01*
X189989500Y-137289024D01*
X190004722Y-137212499D01*
X189980790Y-137092187D01*
X189944418Y-136909330D01*
X189772686Y-136652314D01*
X189707808Y-136608964D01*
X189623619Y-136524775D01*
X189700000Y-136509582D01*
X189975000Y-136564283D01*
X190225000Y-136564283D01*
X190500000Y-136509582D01*
X190775000Y-136564283D01*
X191025000Y-136564283D01*
X191300000Y-136509582D01*
X191575000Y-136564283D01*
X191825000Y-136564283D01*
X192100000Y-136509582D01*
X192375000Y-136564283D01*
X192625000Y-136564283D01*
X192833774Y-136522755D01*
X192923691Y-136560000D01*
X193016250Y-136560000D01*
X193175000Y-136401250D01*
X193175000Y-136326107D01*
X193331105Y-136092478D01*
X193389283Y-135800000D01*
X193389283Y-135028000D01*
X193425000Y-135028000D01*
X193425000Y-135048000D01*
X193447000Y-135048000D01*
X193447000Y-135302000D01*
X193425000Y-135302000D01*
X193425000Y-136401250D01*
X193583750Y-136560000D01*
X193676309Y-136560000D01*
X193890000Y-136471486D01*
X193890000Y-136501750D01*
X194048750Y-136660500D01*
X194873000Y-136660500D01*
X194873000Y-136640500D01*
X195127000Y-136640500D01*
X195127000Y-136660500D01*
X195951250Y-136660500D01*
X196110000Y-136501750D01*
X196110000Y-136223691D01*
X196013327Y-135990302D01*
X195942289Y-135919263D01*
X196048969Y-135759605D01*
X196114283Y-135431250D01*
X196114283Y-134993750D01*
X196101006Y-134927000D01*
X196373002Y-134927000D01*
X196373003Y-142613472D01*
X196373003Y-142613472D01*
G37*
X196373003Y-142613472D02*
X196357780Y-142690002D01*
X196411629Y-142960717D01*
X196418085Y-142993172D01*
X196589817Y-143250188D01*
X196654695Y-143293538D01*
X198561605Y-145200449D01*
X198494064Y-145540000D01*
X198608697Y-146116297D01*
X198935142Y-146604858D01*
X199256934Y-146819872D01*
X199118642Y-146884817D01*
X198728355Y-147313076D01*
X198558524Y-147723110D01*
X198679845Y-147953000D01*
X199873000Y-147953000D01*
X199873000Y-147933000D01*
X200127000Y-147933000D01*
X200127000Y-147953000D01*
X200147000Y-147953000D01*
X200147000Y-148207000D01*
X200127000Y-148207000D01*
X200127000Y-148227000D01*
X199873000Y-148227000D01*
X199873000Y-148207000D01*
X198679845Y-148207000D01*
X198558524Y-148436890D01*
X198728355Y-148846924D01*
X199118642Y-149275183D01*
X199325864Y-149372500D01*
X191894438Y-149372500D01*
X192354858Y-149064858D01*
X192681303Y-148576297D01*
X192795936Y-148000000D01*
X192681303Y-147423703D01*
X192354858Y-146935142D01*
X191927000Y-146649257D01*
X191927000Y-146557022D01*
X193773000Y-146557022D01*
X193773000Y-147442978D01*
X194112040Y-148261494D01*
X194738506Y-148887960D01*
X195557022Y-149227000D01*
X196442978Y-149227000D01*
X197261494Y-148887960D01*
X197887960Y-148261494D01*
X198227000Y-147442978D01*
X198227000Y-146557022D01*
X197887960Y-145738506D01*
X197261494Y-145112040D01*
X196442978Y-144773000D01*
X195557022Y-144773000D01*
X194738506Y-145112040D01*
X194112040Y-145738506D01*
X193773000Y-146557022D01*
X191927000Y-146557022D01*
X191927000Y-144814687D01*
X192040620Y-144644643D01*
X192089283Y-144400000D01*
X192089283Y-144246471D01*
X192155357Y-144290620D01*
X192400000Y-144339283D01*
X193550000Y-144339283D01*
X193794643Y-144290620D01*
X194002041Y-144152041D01*
X194002832Y-144150857D01*
X194090302Y-144238327D01*
X194323691Y-144335000D01*
X194739250Y-144335000D01*
X194898000Y-144176250D01*
X194898000Y-143127000D01*
X195152000Y-143127000D01*
X195152000Y-144176250D01*
X195310750Y-144335000D01*
X195726309Y-144335000D01*
X195959698Y-144238327D01*
X196138327Y-144059699D01*
X196235000Y-143826310D01*
X196235000Y-143285750D01*
X196076250Y-143127000D01*
X195152000Y-143127000D01*
X194898000Y-143127000D01*
X194878000Y-143127000D01*
X194878000Y-142873000D01*
X194898000Y-142873000D01*
X194898000Y-141823750D01*
X195152000Y-141823750D01*
X195152000Y-142873000D01*
X196076250Y-142873000D01*
X196235000Y-142714250D01*
X196235000Y-142173690D01*
X196138327Y-141940301D01*
X195959698Y-141761673D01*
X195726309Y-141665000D01*
X195310750Y-141665000D01*
X195152000Y-141823750D01*
X194898000Y-141823750D01*
X194739250Y-141665000D01*
X194323691Y-141665000D01*
X194090302Y-141761673D01*
X194002832Y-141849143D01*
X194002041Y-141847959D01*
X193794643Y-141709380D01*
X193711081Y-141692758D01*
X193706918Y-141671830D01*
X193535186Y-141414814D01*
X193470308Y-141371464D01*
X192603538Y-140504695D01*
X192560186Y-140439814D01*
X192409730Y-140339283D01*
X193550000Y-140339283D01*
X193794643Y-140290620D01*
X194002041Y-140152041D01*
X194002832Y-140150857D01*
X194090302Y-140238327D01*
X194323691Y-140335000D01*
X194739250Y-140335000D01*
X194898000Y-140176250D01*
X194898000Y-139127000D01*
X195152000Y-139127000D01*
X195152000Y-140176250D01*
X195310750Y-140335000D01*
X195726309Y-140335000D01*
X195959698Y-140238327D01*
X196138327Y-140059699D01*
X196235000Y-139826310D01*
X196235000Y-139285750D01*
X196076250Y-139127000D01*
X195152000Y-139127000D01*
X194898000Y-139127000D01*
X194878000Y-139127000D01*
X194878000Y-138873000D01*
X194898000Y-138873000D01*
X194898000Y-137823750D01*
X194824250Y-137750000D01*
X194873000Y-137701250D01*
X194873000Y-136914500D01*
X195127000Y-136914500D01*
X195127000Y-137701250D01*
X195200750Y-137775000D01*
X195152000Y-137823750D01*
X195152000Y-138873000D01*
X196076250Y-138873000D01*
X196235000Y-138714250D01*
X196235000Y-138173690D01*
X196138327Y-137940301D01*
X195959698Y-137761673D01*
X195872480Y-137725546D01*
X196013327Y-137584698D01*
X196110000Y-137351309D01*
X196110000Y-137073250D01*
X195951250Y-136914500D01*
X195127000Y-136914500D01*
X194873000Y-136914500D01*
X194048750Y-136914500D01*
X193890000Y-137073250D01*
X193890000Y-137351309D01*
X193986673Y-137584698D01*
X194142165Y-137740191D01*
X194090302Y-137761673D01*
X194002832Y-137849143D01*
X194002041Y-137847959D01*
X193794643Y-137709380D01*
X193550000Y-137660717D01*
X192400000Y-137660717D01*
X192155357Y-137709380D01*
X191947959Y-137847959D01*
X191809380Y-138055357D01*
X191776323Y-138221545D01*
X191677041Y-138072959D01*
X191469643Y-137934380D01*
X191225000Y-137885717D01*
X190350000Y-137885717D01*
X190105357Y-137934380D01*
X190000000Y-138004777D01*
X189989500Y-137997761D01*
X189989500Y-137289024D01*
X190004722Y-137212499D01*
X189980790Y-137092187D01*
X189944418Y-136909330D01*
X189772686Y-136652314D01*
X189707808Y-136608964D01*
X189623619Y-136524775D01*
X189700000Y-136509582D01*
X189975000Y-136564283D01*
X190225000Y-136564283D01*
X190500000Y-136509582D01*
X190775000Y-136564283D01*
X191025000Y-136564283D01*
X191300000Y-136509582D01*
X191575000Y-136564283D01*
X191825000Y-136564283D01*
X192100000Y-136509582D01*
X192375000Y-136564283D01*
X192625000Y-136564283D01*
X192833774Y-136522755D01*
X192923691Y-136560000D01*
X193016250Y-136560000D01*
X193175000Y-136401250D01*
X193175000Y-136326107D01*
X193331105Y-136092478D01*
X193389283Y-135800000D01*
X193389283Y-135028000D01*
X193425000Y-135028000D01*
X193425000Y-135048000D01*
X193447000Y-135048000D01*
X193447000Y-135302000D01*
X193425000Y-135302000D01*
X193425000Y-136401250D01*
X193583750Y-136560000D01*
X193676309Y-136560000D01*
X193890000Y-136471486D01*
X193890000Y-136501750D01*
X194048750Y-136660500D01*
X194873000Y-136660500D01*
X194873000Y-136640500D01*
X195127000Y-136640500D01*
X195127000Y-136660500D01*
X195951250Y-136660500D01*
X196110000Y-136501750D01*
X196110000Y-136223691D01*
X196013327Y-135990302D01*
X195942289Y-135919263D01*
X196048969Y-135759605D01*
X196114283Y-135431250D01*
X196114283Y-134993750D01*
X196101006Y-134927000D01*
X196373002Y-134927000D01*
X196373003Y-142613472D01*
G36*
X187355142Y-120935142D02*
X187028697Y-121423703D01*
X186914064Y-122000000D01*
X187028697Y-122576297D01*
X187153857Y-122763613D01*
X187039814Y-122839814D01*
X186996462Y-122904695D01*
X183892195Y-126008962D01*
X183827314Y-126052314D01*
X183655582Y-126309331D01*
X183628667Y-126444643D01*
X183595278Y-126612500D01*
X183610500Y-126689026D01*
X183610500Y-127187475D01*
X183609698Y-127186673D01*
X183376309Y-127090000D01*
X183098250Y-127090000D01*
X182939500Y-127248750D01*
X182939500Y-128073000D01*
X182959500Y-128073000D01*
X182959500Y-128327000D01*
X182939500Y-128327000D01*
X182939500Y-129151250D01*
X183098250Y-129310000D01*
X183376309Y-129310000D01*
X183510501Y-129254416D01*
X183510500Y-130345584D01*
X183376309Y-130290000D01*
X183098250Y-130290000D01*
X182939500Y-130448750D01*
X182939500Y-131273000D01*
X182959500Y-131273000D01*
X182959500Y-131527000D01*
X182939500Y-131527000D01*
X182939500Y-132351250D01*
X183098250Y-132510000D01*
X183154737Y-132510000D01*
X183010500Y-132858217D01*
X183010500Y-133266783D01*
X183160501Y-133628916D01*
X183160500Y-134195584D01*
X183026309Y-134140000D01*
X182748250Y-134140000D01*
X182589500Y-134298750D01*
X182589500Y-135123000D01*
X182609500Y-135123000D01*
X182609500Y-135377000D01*
X182589500Y-135377000D01*
X182589500Y-136623000D01*
X182609500Y-136623000D01*
X182609500Y-136877000D01*
X182589500Y-136877000D01*
X182589500Y-136897000D01*
X182335500Y-136897000D01*
X182335500Y-136877000D01*
X181548750Y-136877000D01*
X181390000Y-137035750D01*
X181390000Y-137351310D01*
X181486673Y-137584699D01*
X181665302Y-137763327D01*
X181898691Y-137860000D01*
X181977922Y-137860000D01*
X181855357Y-137884380D01*
X181647959Y-138022959D01*
X181509380Y-138230357D01*
X181460717Y-138475000D01*
X181460717Y-139025000D01*
X181509380Y-139269643D01*
X181598682Y-139403293D01*
X181511673Y-139490302D01*
X181415000Y-139723691D01*
X181415000Y-139964250D01*
X181573750Y-140123000D01*
X182723000Y-140123000D01*
X182723000Y-140103000D01*
X182977000Y-140103000D01*
X182977000Y-140123000D01*
X185123000Y-140123000D01*
X185123000Y-138848750D01*
X184964250Y-138690000D01*
X184886429Y-138690000D01*
X184914500Y-138548875D01*
X184914500Y-138548871D01*
X184931680Y-138462501D01*
X184914500Y-138376131D01*
X184914500Y-137535852D01*
X185048969Y-137334605D01*
X185114283Y-137006250D01*
X185114283Y-136493750D01*
X185048969Y-136165395D01*
X184938456Y-136000000D01*
X185048969Y-135834605D01*
X185114283Y-135506250D01*
X185114283Y-134993750D01*
X185048969Y-134665395D01*
X184914500Y-134464148D01*
X184914500Y-133628914D01*
X184972956Y-133487790D01*
X184935717Y-133675000D01*
X184935717Y-133925000D01*
X184993895Y-134217478D01*
X185159570Y-134465430D01*
X185407522Y-134631105D01*
X185548000Y-134659048D01*
X185548001Y-135998470D01*
X185532778Y-136075000D01*
X185585576Y-136340430D01*
X185593083Y-136378170D01*
X185764815Y-136635186D01*
X185829693Y-136678536D01*
X186973000Y-137821844D01*
X186973000Y-138690000D01*
X185535750Y-138690000D01*
X185377000Y-138848750D01*
X185377000Y-140123000D01*
X185397000Y-140123000D01*
X185397000Y-140377000D01*
X185377000Y-140377000D01*
X185377000Y-141651250D01*
X185535750Y-141810000D01*
X186976310Y-141810000D01*
X187209699Y-141713327D01*
X187233590Y-141689436D01*
X187254693Y-141703536D01*
X187958904Y-142407748D01*
X187910717Y-142650000D01*
X187910717Y-143450000D01*
X187959380Y-143694643D01*
X188097959Y-143902041D01*
X188234584Y-143993331D01*
X188190302Y-144011673D01*
X188011673Y-144190301D01*
X187915000Y-144423690D01*
X187915000Y-144664250D01*
X188073750Y-144823000D01*
X188873000Y-144823000D01*
X188873000Y-144803000D01*
X189127000Y-144803000D01*
X189127000Y-144823000D01*
X189147000Y-144823000D01*
X189147000Y-145077000D01*
X189127000Y-145077000D01*
X189127000Y-145826250D01*
X189285750Y-145985000D01*
X189576309Y-145985000D01*
X189809698Y-145888327D01*
X189988327Y-145709699D01*
X190073001Y-145505279D01*
X190073000Y-146729327D01*
X190052041Y-146697959D01*
X189844643Y-146559380D01*
X189600000Y-146510717D01*
X187900000Y-146510717D01*
X187655357Y-146559380D01*
X187447959Y-146697959D01*
X187309380Y-146905357D01*
X187276033Y-147073000D01*
X186473967Y-147073000D01*
X186440620Y-146905357D01*
X186302041Y-146697959D01*
X186094643Y-146559380D01*
X185877000Y-146516088D01*
X185877000Y-146298870D01*
X185894180Y-146212500D01*
X185877000Y-146126130D01*
X185877000Y-146126125D01*
X185826116Y-145870312D01*
X185632281Y-145580219D01*
X185559057Y-145531292D01*
X185263515Y-145235750D01*
X187915000Y-145235750D01*
X187915000Y-145476310D01*
X188011673Y-145709699D01*
X188190302Y-145888327D01*
X188423691Y-145985000D01*
X188714250Y-145985000D01*
X188873000Y-145826250D01*
X188873000Y-145077000D01*
X188073750Y-145077000D01*
X187915000Y-145235750D01*
X185263515Y-145235750D01*
X185114283Y-145086519D01*
X185114283Y-144993750D01*
X185048969Y-144665395D01*
X184938456Y-144500000D01*
X185048969Y-144334605D01*
X185114283Y-144006250D01*
X185114283Y-143493750D01*
X185048969Y-143165395D01*
X184914500Y-142964148D01*
X184914500Y-142173869D01*
X184931680Y-142087499D01*
X184914500Y-142001129D01*
X184914500Y-142001125D01*
X184876483Y-141810000D01*
X184964250Y-141810000D01*
X185123000Y-141651250D01*
X185123000Y-140377000D01*
X182977000Y-140377000D01*
X182977000Y-140397000D01*
X182723000Y-140397000D01*
X182723000Y-140377000D01*
X181573750Y-140377000D01*
X181415000Y-140535750D01*
X181415000Y-140776309D01*
X181511673Y-141009698D01*
X181598682Y-141096707D01*
X181509380Y-141230357D01*
X181460717Y-141475000D01*
X181460717Y-142025000D01*
X181509380Y-142269643D01*
X181647959Y-142477041D01*
X181855357Y-142615620D01*
X181977922Y-142640000D01*
X181898691Y-142640000D01*
X181665302Y-142736673D01*
X181486673Y-142915301D01*
X181390000Y-143148690D01*
X181390000Y-143464250D01*
X181548750Y-143623000D01*
X182335500Y-143623000D01*
X182335500Y-143603000D01*
X182589500Y-143603000D01*
X182589500Y-143623000D01*
X182609500Y-143623000D01*
X182609500Y-143877000D01*
X182589500Y-143877000D01*
X182589500Y-145123000D01*
X182609500Y-145123000D01*
X182609500Y-145377000D01*
X182589500Y-145377000D01*
X182589500Y-146201250D01*
X182748250Y-146360000D01*
X183026309Y-146360000D01*
X183259698Y-146263327D01*
X183330737Y-146192289D01*
X183490395Y-146298969D01*
X183818750Y-146364283D01*
X183911518Y-146364283D01*
X184073224Y-146525989D01*
X183905357Y-146559380D01*
X183697959Y-146697959D01*
X183559380Y-146905357D01*
X183538167Y-147012001D01*
X183226924Y-146728355D01*
X182816890Y-146558524D01*
X182587000Y-146679845D01*
X182587000Y-147873000D01*
X182607000Y-147873000D01*
X182607000Y-148127000D01*
X182587000Y-148127000D01*
X182587000Y-148147000D01*
X182333000Y-148147000D01*
X182333000Y-148127000D01*
X181139181Y-148127000D01*
X181018514Y-148356892D01*
X181264817Y-148881358D01*
X181693076Y-149271645D01*
X181936577Y-149372500D01*
X181061803Y-149372500D01*
X180862155Y-149332788D01*
X180745295Y-149254704D01*
X180667213Y-149137846D01*
X180627500Y-148938196D01*
X180627500Y-147643108D01*
X181018514Y-147643108D01*
X181139181Y-147873000D01*
X182333000Y-147873000D01*
X182333000Y-146679845D01*
X182103110Y-146558524D01*
X181693076Y-146728355D01*
X181264817Y-147118642D01*
X181018514Y-147643108D01*
X180627500Y-147643108D01*
X180627500Y-145535750D01*
X181390000Y-145535750D01*
X181390000Y-145851310D01*
X181486673Y-146084699D01*
X181665302Y-146263327D01*
X181898691Y-146360000D01*
X182176750Y-146360000D01*
X182335500Y-146201250D01*
X182335500Y-145377000D01*
X181548750Y-145377000D01*
X181390000Y-145535750D01*
X180627500Y-145535750D01*
X180627500Y-144035750D01*
X181390000Y-144035750D01*
X181390000Y-144351310D01*
X181451589Y-144500000D01*
X181390000Y-144648690D01*
X181390000Y-144964250D01*
X181548750Y-145123000D01*
X182335500Y-145123000D01*
X182335500Y-143877000D01*
X181548750Y-143877000D01*
X181390000Y-144035750D01*
X180627500Y-144035750D01*
X180627500Y-135535750D01*
X181390000Y-135535750D01*
X181390000Y-135851310D01*
X181451589Y-136000000D01*
X181390000Y-136148690D01*
X181390000Y-136464250D01*
X181548750Y-136623000D01*
X182335500Y-136623000D01*
X182335500Y-135377000D01*
X181548750Y-135377000D01*
X181390000Y-135535750D01*
X180627500Y-135535750D01*
X180627500Y-134648690D01*
X181390000Y-134648690D01*
X181390000Y-134964250D01*
X181548750Y-135123000D01*
X182335500Y-135123000D01*
X182335500Y-134298750D01*
X182176750Y-134140000D01*
X181898691Y-134140000D01*
X181665302Y-134236673D01*
X181486673Y-134415301D01*
X181390000Y-134648690D01*
X180627500Y-134648690D01*
X180627500Y-131685750D01*
X181740000Y-131685750D01*
X181740000Y-132001310D01*
X181836673Y-132234699D01*
X182015302Y-132413327D01*
X182248691Y-132510000D01*
X182526750Y-132510000D01*
X182685500Y-132351250D01*
X182685500Y-131527000D01*
X181898750Y-131527000D01*
X181740000Y-131685750D01*
X180627500Y-131685750D01*
X180627500Y-130798690D01*
X181740000Y-130798690D01*
X181740000Y-131114250D01*
X181898750Y-131273000D01*
X182685500Y-131273000D01*
X182685500Y-130448750D01*
X182526750Y-130290000D01*
X182248691Y-130290000D01*
X182015302Y-130386673D01*
X181836673Y-130565301D01*
X181740000Y-130798690D01*
X180627500Y-130798690D01*
X180627500Y-128485750D01*
X181740000Y-128485750D01*
X181740000Y-128801310D01*
X181836673Y-129034699D01*
X182015302Y-129213327D01*
X182248691Y-129310000D01*
X182526750Y-129310000D01*
X182685500Y-129151250D01*
X182685500Y-128327000D01*
X181898750Y-128327000D01*
X181740000Y-128485750D01*
X180627500Y-128485750D01*
X180627500Y-127598690D01*
X181740000Y-127598690D01*
X181740000Y-127914250D01*
X181898750Y-128073000D01*
X182685500Y-128073000D01*
X182685500Y-127248750D01*
X182526750Y-127090000D01*
X182248691Y-127090000D01*
X182015302Y-127186673D01*
X181836673Y-127365301D01*
X181740000Y-127598690D01*
X180627500Y-127598690D01*
X180627500Y-122557022D01*
X180773000Y-122557022D01*
X180773000Y-123442978D01*
X181112040Y-124261494D01*
X181738506Y-124887960D01*
X182557022Y-125227000D01*
X183442978Y-125227000D01*
X184261494Y-124887960D01*
X184887960Y-124261494D01*
X185227000Y-123442978D01*
X185227000Y-122557022D01*
X184887960Y-121738506D01*
X184261494Y-121112040D01*
X183442978Y-120773000D01*
X182557022Y-120773000D01*
X181738506Y-121112040D01*
X181112040Y-121738506D01*
X180773000Y-122557022D01*
X180627500Y-122557022D01*
X180627500Y-121061804D01*
X180667213Y-120862154D01*
X180745295Y-120745296D01*
X180862155Y-120667212D01*
X181061803Y-120627500D01*
X187815562Y-120627500D01*
X187355142Y-120935142D01*
X187355142Y-120935142D01*
G37*
X187355142Y-120935142D02*
X187028697Y-121423703D01*
X186914064Y-122000000D01*
X187028697Y-122576297D01*
X187153857Y-122763613D01*
X187039814Y-122839814D01*
X186996462Y-122904695D01*
X183892195Y-126008962D01*
X183827314Y-126052314D01*
X183655582Y-126309331D01*
X183628667Y-126444643D01*
X183595278Y-126612500D01*
X183610500Y-126689026D01*
X183610500Y-127187475D01*
X183609698Y-127186673D01*
X183376309Y-127090000D01*
X183098250Y-127090000D01*
X182939500Y-127248750D01*
X182939500Y-128073000D01*
X182959500Y-128073000D01*
X182959500Y-128327000D01*
X182939500Y-128327000D01*
X182939500Y-129151250D01*
X183098250Y-129310000D01*
X183376309Y-129310000D01*
X183510501Y-129254416D01*
X183510500Y-130345584D01*
X183376309Y-130290000D01*
X183098250Y-130290000D01*
X182939500Y-130448750D01*
X182939500Y-131273000D01*
X182959500Y-131273000D01*
X182959500Y-131527000D01*
X182939500Y-131527000D01*
X182939500Y-132351250D01*
X183098250Y-132510000D01*
X183154737Y-132510000D01*
X183010500Y-132858217D01*
X183010500Y-133266783D01*
X183160501Y-133628916D01*
X183160500Y-134195584D01*
X183026309Y-134140000D01*
X182748250Y-134140000D01*
X182589500Y-134298750D01*
X182589500Y-135123000D01*
X182609500Y-135123000D01*
X182609500Y-135377000D01*
X182589500Y-135377000D01*
X182589500Y-136623000D01*
X182609500Y-136623000D01*
X182609500Y-136877000D01*
X182589500Y-136877000D01*
X182589500Y-136897000D01*
X182335500Y-136897000D01*
X182335500Y-136877000D01*
X181548750Y-136877000D01*
X181390000Y-137035750D01*
X181390000Y-137351310D01*
X181486673Y-137584699D01*
X181665302Y-137763327D01*
X181898691Y-137860000D01*
X181977922Y-137860000D01*
X181855357Y-137884380D01*
X181647959Y-138022959D01*
X181509380Y-138230357D01*
X181460717Y-138475000D01*
X181460717Y-139025000D01*
X181509380Y-139269643D01*
X181598682Y-139403293D01*
X181511673Y-139490302D01*
X181415000Y-139723691D01*
X181415000Y-139964250D01*
X181573750Y-140123000D01*
X182723000Y-140123000D01*
X182723000Y-140103000D01*
X182977000Y-140103000D01*
X182977000Y-140123000D01*
X185123000Y-140123000D01*
X185123000Y-138848750D01*
X184964250Y-138690000D01*
X184886429Y-138690000D01*
X184914500Y-138548875D01*
X184914500Y-138548871D01*
X184931680Y-138462501D01*
X184914500Y-138376131D01*
X184914500Y-137535852D01*
X185048969Y-137334605D01*
X185114283Y-137006250D01*
X185114283Y-136493750D01*
X185048969Y-136165395D01*
X184938456Y-136000000D01*
X185048969Y-135834605D01*
X185114283Y-135506250D01*
X185114283Y-134993750D01*
X185048969Y-134665395D01*
X184914500Y-134464148D01*
X184914500Y-133628914D01*
X184972956Y-133487790D01*
X184935717Y-133675000D01*
X184935717Y-133925000D01*
X184993895Y-134217478D01*
X185159570Y-134465430D01*
X185407522Y-134631105D01*
X185548000Y-134659048D01*
X185548001Y-135998470D01*
X185532778Y-136075000D01*
X185585576Y-136340430D01*
X185593083Y-136378170D01*
X185764815Y-136635186D01*
X185829693Y-136678536D01*
X186973000Y-137821844D01*
X186973000Y-138690000D01*
X185535750Y-138690000D01*
X185377000Y-138848750D01*
X185377000Y-140123000D01*
X185397000Y-140123000D01*
X185397000Y-140377000D01*
X185377000Y-140377000D01*
X185377000Y-141651250D01*
X185535750Y-141810000D01*
X186976310Y-141810000D01*
X187209699Y-141713327D01*
X187233590Y-141689436D01*
X187254693Y-141703536D01*
X187958904Y-142407748D01*
X187910717Y-142650000D01*
X187910717Y-143450000D01*
X187959380Y-143694643D01*
X188097959Y-143902041D01*
X188234584Y-143993331D01*
X188190302Y-144011673D01*
X188011673Y-144190301D01*
X187915000Y-144423690D01*
X187915000Y-144664250D01*
X188073750Y-144823000D01*
X188873000Y-144823000D01*
X188873000Y-144803000D01*
X189127000Y-144803000D01*
X189127000Y-144823000D01*
X189147000Y-144823000D01*
X189147000Y-145077000D01*
X189127000Y-145077000D01*
X189127000Y-145826250D01*
X189285750Y-145985000D01*
X189576309Y-145985000D01*
X189809698Y-145888327D01*
X189988327Y-145709699D01*
X190073001Y-145505279D01*
X190073000Y-146729327D01*
X190052041Y-146697959D01*
X189844643Y-146559380D01*
X189600000Y-146510717D01*
X187900000Y-146510717D01*
X187655357Y-146559380D01*
X187447959Y-146697959D01*
X187309380Y-146905357D01*
X187276033Y-147073000D01*
X186473967Y-147073000D01*
X186440620Y-146905357D01*
X186302041Y-146697959D01*
X186094643Y-146559380D01*
X185877000Y-146516088D01*
X185877000Y-146298870D01*
X185894180Y-146212500D01*
X185877000Y-146126130D01*
X185877000Y-146126125D01*
X185826116Y-145870312D01*
X185632281Y-145580219D01*
X185559057Y-145531292D01*
X185263515Y-145235750D01*
X187915000Y-145235750D01*
X187915000Y-145476310D01*
X188011673Y-145709699D01*
X188190302Y-145888327D01*
X188423691Y-145985000D01*
X188714250Y-145985000D01*
X188873000Y-145826250D01*
X188873000Y-145077000D01*
X188073750Y-145077000D01*
X187915000Y-145235750D01*
X185263515Y-145235750D01*
X185114283Y-145086519D01*
X185114283Y-144993750D01*
X185048969Y-144665395D01*
X184938456Y-144500000D01*
X185048969Y-144334605D01*
X185114283Y-144006250D01*
X185114283Y-143493750D01*
X185048969Y-143165395D01*
X184914500Y-142964148D01*
X184914500Y-142173869D01*
X184931680Y-142087499D01*
X184914500Y-142001129D01*
X184914500Y-142001125D01*
X184876483Y-141810000D01*
X184964250Y-141810000D01*
X185123000Y-141651250D01*
X185123000Y-140377000D01*
X182977000Y-140377000D01*
X182977000Y-140397000D01*
X182723000Y-140397000D01*
X182723000Y-140377000D01*
X181573750Y-140377000D01*
X181415000Y-140535750D01*
X181415000Y-140776309D01*
X181511673Y-141009698D01*
X181598682Y-141096707D01*
X181509380Y-141230357D01*
X181460717Y-141475000D01*
X181460717Y-142025000D01*
X181509380Y-142269643D01*
X181647959Y-142477041D01*
X181855357Y-142615620D01*
X181977922Y-142640000D01*
X181898691Y-142640000D01*
X181665302Y-142736673D01*
X181486673Y-142915301D01*
X181390000Y-143148690D01*
X181390000Y-143464250D01*
X181548750Y-143623000D01*
X182335500Y-143623000D01*
X182335500Y-143603000D01*
X182589500Y-143603000D01*
X182589500Y-143623000D01*
X182609500Y-143623000D01*
X182609500Y-143877000D01*
X182589500Y-143877000D01*
X182589500Y-145123000D01*
X182609500Y-145123000D01*
X182609500Y-145377000D01*
X182589500Y-145377000D01*
X182589500Y-146201250D01*
X182748250Y-146360000D01*
X183026309Y-146360000D01*
X183259698Y-146263327D01*
X183330737Y-146192289D01*
X183490395Y-146298969D01*
X183818750Y-146364283D01*
X183911518Y-146364283D01*
X184073224Y-146525989D01*
X183905357Y-146559380D01*
X183697959Y-146697959D01*
X183559380Y-146905357D01*
X183538167Y-147012001D01*
X183226924Y-146728355D01*
X182816890Y-146558524D01*
X182587000Y-146679845D01*
X182587000Y-147873000D01*
X182607000Y-147873000D01*
X182607000Y-148127000D01*
X182587000Y-148127000D01*
X182587000Y-148147000D01*
X182333000Y-148147000D01*
X182333000Y-148127000D01*
X181139181Y-148127000D01*
X181018514Y-148356892D01*
X181264817Y-148881358D01*
X181693076Y-149271645D01*
X181936577Y-149372500D01*
X181061803Y-149372500D01*
X180862155Y-149332788D01*
X180745295Y-149254704D01*
X180667213Y-149137846D01*
X180627500Y-148938196D01*
X180627500Y-147643108D01*
X181018514Y-147643108D01*
X181139181Y-147873000D01*
X182333000Y-147873000D01*
X182333000Y-146679845D01*
X182103110Y-146558524D01*
X181693076Y-146728355D01*
X181264817Y-147118642D01*
X181018514Y-147643108D01*
X180627500Y-147643108D01*
X180627500Y-145535750D01*
X181390000Y-145535750D01*
X181390000Y-145851310D01*
X181486673Y-146084699D01*
X181665302Y-146263327D01*
X181898691Y-146360000D01*
X182176750Y-146360000D01*
X182335500Y-146201250D01*
X182335500Y-145377000D01*
X181548750Y-145377000D01*
X181390000Y-145535750D01*
X180627500Y-145535750D01*
X180627500Y-144035750D01*
X181390000Y-144035750D01*
X181390000Y-144351310D01*
X181451589Y-144500000D01*
X181390000Y-144648690D01*
X181390000Y-144964250D01*
X181548750Y-145123000D01*
X182335500Y-145123000D01*
X182335500Y-143877000D01*
X181548750Y-143877000D01*
X181390000Y-144035750D01*
X180627500Y-144035750D01*
X180627500Y-135535750D01*
X181390000Y-135535750D01*
X181390000Y-135851310D01*
X181451589Y-136000000D01*
X181390000Y-136148690D01*
X181390000Y-136464250D01*
X181548750Y-136623000D01*
X182335500Y-136623000D01*
X182335500Y-135377000D01*
X181548750Y-135377000D01*
X181390000Y-135535750D01*
X180627500Y-135535750D01*
X180627500Y-134648690D01*
X181390000Y-134648690D01*
X181390000Y-134964250D01*
X181548750Y-135123000D01*
X182335500Y-135123000D01*
X182335500Y-134298750D01*
X182176750Y-134140000D01*
X181898691Y-134140000D01*
X181665302Y-134236673D01*
X181486673Y-134415301D01*
X181390000Y-134648690D01*
X180627500Y-134648690D01*
X180627500Y-131685750D01*
X181740000Y-131685750D01*
X181740000Y-132001310D01*
X181836673Y-132234699D01*
X182015302Y-132413327D01*
X182248691Y-132510000D01*
X182526750Y-132510000D01*
X182685500Y-132351250D01*
X182685500Y-131527000D01*
X181898750Y-131527000D01*
X181740000Y-131685750D01*
X180627500Y-131685750D01*
X180627500Y-130798690D01*
X181740000Y-130798690D01*
X181740000Y-131114250D01*
X181898750Y-131273000D01*
X182685500Y-131273000D01*
X182685500Y-130448750D01*
X182526750Y-130290000D01*
X182248691Y-130290000D01*
X182015302Y-130386673D01*
X181836673Y-130565301D01*
X181740000Y-130798690D01*
X180627500Y-130798690D01*
X180627500Y-128485750D01*
X181740000Y-128485750D01*
X181740000Y-128801310D01*
X181836673Y-129034699D01*
X182015302Y-129213327D01*
X182248691Y-129310000D01*
X182526750Y-129310000D01*
X182685500Y-129151250D01*
X182685500Y-128327000D01*
X181898750Y-128327000D01*
X181740000Y-128485750D01*
X180627500Y-128485750D01*
X180627500Y-127598690D01*
X181740000Y-127598690D01*
X181740000Y-127914250D01*
X181898750Y-128073000D01*
X182685500Y-128073000D01*
X182685500Y-127248750D01*
X182526750Y-127090000D01*
X182248691Y-127090000D01*
X182015302Y-127186673D01*
X181836673Y-127365301D01*
X181740000Y-127598690D01*
X180627500Y-127598690D01*
X180627500Y-122557022D01*
X180773000Y-122557022D01*
X180773000Y-123442978D01*
X181112040Y-124261494D01*
X181738506Y-124887960D01*
X182557022Y-125227000D01*
X183442978Y-125227000D01*
X184261494Y-124887960D01*
X184887960Y-124261494D01*
X185227000Y-123442978D01*
X185227000Y-122557022D01*
X184887960Y-121738506D01*
X184261494Y-121112040D01*
X183442978Y-120773000D01*
X182557022Y-120773000D01*
X181738506Y-121112040D01*
X181112040Y-121738506D01*
X180773000Y-122557022D01*
X180627500Y-122557022D01*
X180627500Y-121061804D01*
X180667213Y-120862154D01*
X180745295Y-120745296D01*
X180862155Y-120667212D01*
X181061803Y-120627500D01*
X187815562Y-120627500D01*
X187355142Y-120935142D01*
G36*
X200127000Y-132953000D02*
X200147000Y-132953000D01*
X200147000Y-133207000D01*
X200127000Y-133207000D01*
X200127000Y-133227000D01*
X199873000Y-133227000D01*
X199873000Y-133207000D01*
X199853000Y-133207000D01*
X199853000Y-132953000D01*
X199873000Y-132953000D01*
X199873000Y-132933000D01*
X200127000Y-132933000D01*
X200127000Y-132953000D01*
X200127000Y-132953000D01*
G37*
X200127000Y-132953000D02*
X200147000Y-132953000D01*
X200147000Y-133207000D01*
X200127000Y-133207000D01*
X200127000Y-133227000D01*
X199873000Y-133227000D01*
X199873000Y-133207000D01*
X199853000Y-133207000D01*
X199853000Y-132953000D01*
X199873000Y-132953000D01*
X199873000Y-132933000D01*
X200127000Y-132933000D01*
X200127000Y-132953000D01*
G36*
X192323000Y-129021844D02*
X192323001Y-129924602D01*
X192229352Y-130018251D01*
X192073000Y-130395717D01*
X192073000Y-130804283D01*
X192229352Y-131181749D01*
X192518251Y-131470648D01*
X192895717Y-131627000D01*
X193304283Y-131627000D01*
X193305875Y-131626341D01*
X193340418Y-131800000D01*
X193285717Y-132075000D01*
X193285717Y-132325000D01*
X193340418Y-132600000D01*
X193340393Y-132600129D01*
X193281210Y-132540946D01*
X193232281Y-132467719D01*
X192942188Y-132273884D01*
X192686375Y-132223000D01*
X192686370Y-132223000D01*
X192600000Y-132205820D01*
X192513630Y-132223000D01*
X189666414Y-132223000D01*
X189377000Y-132103120D01*
X189377000Y-129775397D01*
X189470648Y-129681749D01*
X189627000Y-129304283D01*
X189627000Y-128895717D01*
X189619247Y-128877000D01*
X192178157Y-128877000D01*
X192323000Y-129021844D01*
X192323000Y-129021844D01*
G37*
X192323000Y-129021844D02*
X192323001Y-129924602D01*
X192229352Y-130018251D01*
X192073000Y-130395717D01*
X192073000Y-130804283D01*
X192229352Y-131181749D01*
X192518251Y-131470648D01*
X192895717Y-131627000D01*
X193304283Y-131627000D01*
X193305875Y-131626341D01*
X193340418Y-131800000D01*
X193285717Y-132075000D01*
X193285717Y-132325000D01*
X193340418Y-132600000D01*
X193340393Y-132600129D01*
X193281210Y-132540946D01*
X193232281Y-132467719D01*
X192942188Y-132273884D01*
X192686375Y-132223000D01*
X192686370Y-132223000D01*
X192600000Y-132205820D01*
X192513630Y-132223000D01*
X189666414Y-132223000D01*
X189377000Y-132103120D01*
X189377000Y-129775397D01*
X189470648Y-129681749D01*
X189627000Y-129304283D01*
X189627000Y-128895717D01*
X189619247Y-128877000D01*
X192178157Y-128877000D01*
X192323000Y-129021844D01*
G36*
X201137846Y-120667213D02*
X201254704Y-120745295D01*
X201332788Y-120862155D01*
X201372500Y-121061803D01*
X201372500Y-124174475D01*
X201284698Y-124086673D01*
X201051309Y-123990000D01*
X200773250Y-123990000D01*
X200614500Y-124148750D01*
X200614500Y-124973000D01*
X200634500Y-124973000D01*
X200634500Y-125227000D01*
X200614500Y-125227000D01*
X200614500Y-126051250D01*
X200773250Y-126210000D01*
X201051309Y-126210000D01*
X201284698Y-126113327D01*
X201372500Y-126025525D01*
X201372500Y-126803409D01*
X201302041Y-126697959D01*
X201094643Y-126559380D01*
X200850000Y-126510717D01*
X199150000Y-126510717D01*
X198905357Y-126559380D01*
X198697959Y-126697959D01*
X198559380Y-126905357D01*
X198510717Y-127150000D01*
X198510717Y-127951874D01*
X198263538Y-127704695D01*
X198220186Y-127639814D01*
X198121058Y-127573579D01*
X198240620Y-127394643D01*
X198289283Y-127150000D01*
X198289283Y-126759560D01*
X198834561Y-126214283D01*
X199350000Y-126214283D01*
X199594643Y-126165620D01*
X199683334Y-126106359D01*
X199690302Y-126113327D01*
X199923691Y-126210000D01*
X200201750Y-126210000D01*
X200360500Y-126051250D01*
X200360500Y-125227000D01*
X200340500Y-125227000D01*
X200340500Y-124973000D01*
X200360500Y-124973000D01*
X200360500Y-124148750D01*
X200201750Y-123990000D01*
X199923691Y-123990000D01*
X199690302Y-124086673D01*
X199683334Y-124093641D01*
X199594643Y-124034380D01*
X199350000Y-123985717D01*
X198475000Y-123985717D01*
X198230357Y-124034380D01*
X198171640Y-124073614D01*
X198009698Y-123911673D01*
X197776309Y-123815000D01*
X197485750Y-123815000D01*
X197327000Y-123973750D01*
X197327000Y-124723000D01*
X197347000Y-124723000D01*
X197347000Y-124977000D01*
X197327000Y-124977000D01*
X197327000Y-124997000D01*
X197073000Y-124997000D01*
X197073000Y-124977000D01*
X196273750Y-124977000D01*
X196182450Y-125068300D01*
X196102041Y-124947959D01*
X195894643Y-124809380D01*
X195650000Y-124760717D01*
X195209561Y-124760717D01*
X194772534Y-124323690D01*
X196115000Y-124323690D01*
X196115000Y-124564250D01*
X196273750Y-124723000D01*
X197073000Y-124723000D01*
X197073000Y-123973750D01*
X196914250Y-123815000D01*
X196623691Y-123815000D01*
X196390302Y-123911673D01*
X196211673Y-124090301D01*
X196115000Y-124323690D01*
X194772534Y-124323690D01*
X194277000Y-123828157D01*
X194277000Y-123489283D01*
X194350000Y-123489283D01*
X194594643Y-123440620D01*
X194802041Y-123302041D01*
X194940620Y-123094643D01*
X194989283Y-122850000D01*
X194989283Y-121150000D01*
X194940620Y-120905357D01*
X194802041Y-120697959D01*
X194696592Y-120627500D01*
X200938196Y-120627500D01*
X201137846Y-120667213D01*
X201137846Y-120667213D01*
G37*
X201137846Y-120667213D02*
X201254704Y-120745295D01*
X201332788Y-120862155D01*
X201372500Y-121061803D01*
X201372500Y-124174475D01*
X201284698Y-124086673D01*
X201051309Y-123990000D01*
X200773250Y-123990000D01*
X200614500Y-124148750D01*
X200614500Y-124973000D01*
X200634500Y-124973000D01*
X200634500Y-125227000D01*
X200614500Y-125227000D01*
X200614500Y-126051250D01*
X200773250Y-126210000D01*
X201051309Y-126210000D01*
X201284698Y-126113327D01*
X201372500Y-126025525D01*
X201372500Y-126803409D01*
X201302041Y-126697959D01*
X201094643Y-126559380D01*
X200850000Y-126510717D01*
X199150000Y-126510717D01*
X198905357Y-126559380D01*
X198697959Y-126697959D01*
X198559380Y-126905357D01*
X198510717Y-127150000D01*
X198510717Y-127951874D01*
X198263538Y-127704695D01*
X198220186Y-127639814D01*
X198121058Y-127573579D01*
X198240620Y-127394643D01*
X198289283Y-127150000D01*
X198289283Y-126759560D01*
X198834561Y-126214283D01*
X199350000Y-126214283D01*
X199594643Y-126165620D01*
X199683334Y-126106359D01*
X199690302Y-126113327D01*
X199923691Y-126210000D01*
X200201750Y-126210000D01*
X200360500Y-126051250D01*
X200360500Y-125227000D01*
X200340500Y-125227000D01*
X200340500Y-124973000D01*
X200360500Y-124973000D01*
X200360500Y-124148750D01*
X200201750Y-123990000D01*
X199923691Y-123990000D01*
X199690302Y-124086673D01*
X199683334Y-124093641D01*
X199594643Y-124034380D01*
X199350000Y-123985717D01*
X198475000Y-123985717D01*
X198230357Y-124034380D01*
X198171640Y-124073614D01*
X198009698Y-123911673D01*
X197776309Y-123815000D01*
X197485750Y-123815000D01*
X197327000Y-123973750D01*
X197327000Y-124723000D01*
X197347000Y-124723000D01*
X197347000Y-124977000D01*
X197327000Y-124977000D01*
X197327000Y-124997000D01*
X197073000Y-124997000D01*
X197073000Y-124977000D01*
X196273750Y-124977000D01*
X196182450Y-125068300D01*
X196102041Y-124947959D01*
X195894643Y-124809380D01*
X195650000Y-124760717D01*
X195209561Y-124760717D01*
X194772534Y-124323690D01*
X196115000Y-124323690D01*
X196115000Y-124564250D01*
X196273750Y-124723000D01*
X197073000Y-124723000D01*
X197073000Y-123973750D01*
X196914250Y-123815000D01*
X196623691Y-123815000D01*
X196390302Y-123911673D01*
X196211673Y-124090301D01*
X196115000Y-124323690D01*
X194772534Y-124323690D01*
X194277000Y-123828157D01*
X194277000Y-123489283D01*
X194350000Y-123489283D01*
X194594643Y-123440620D01*
X194802041Y-123302041D01*
X194940620Y-123094643D01*
X194989283Y-122850000D01*
X194989283Y-121150000D01*
X194940620Y-120905357D01*
X194802041Y-120697959D01*
X194696592Y-120627500D01*
X200938196Y-120627500D01*
X201137846Y-120667213D01*
G36*
X192059380Y-123094643D02*
X192197959Y-123302041D01*
X192405357Y-123440620D01*
X192650000Y-123489283D01*
X192723001Y-123489283D01*
X192723001Y-124073470D01*
X192707778Y-124150000D01*
X192768083Y-124453170D01*
X192939815Y-124710186D01*
X193004693Y-124753536D01*
X193800574Y-125549418D01*
X193717478Y-125493895D01*
X193425000Y-125435717D01*
X193175000Y-125435717D01*
X192900000Y-125490418D01*
X192625000Y-125435717D01*
X192375000Y-125435717D01*
X192100000Y-125490418D01*
X191825000Y-125435717D01*
X191575000Y-125435717D01*
X191300000Y-125490418D01*
X191025000Y-125435717D01*
X190775000Y-125435717D01*
X190500000Y-125490418D01*
X190225000Y-125435717D01*
X189975000Y-125435717D01*
X189700000Y-125490418D01*
X189425000Y-125435717D01*
X189175000Y-125435717D01*
X188966226Y-125477245D01*
X188876309Y-125440000D01*
X188783750Y-125440000D01*
X188625000Y-125598750D01*
X188625000Y-125673893D01*
X188530042Y-125816009D01*
X188488327Y-125715301D01*
X188375000Y-125601975D01*
X188375000Y-125598750D01*
X188216250Y-125440000D01*
X188123691Y-125440000D01*
X188100000Y-125449813D01*
X188076309Y-125440000D01*
X187983750Y-125440000D01*
X187825000Y-125598750D01*
X187825000Y-125601975D01*
X187711673Y-125715301D01*
X187615000Y-125948690D01*
X187615000Y-126539250D01*
X187773750Y-126698000D01*
X187847000Y-126698000D01*
X187847000Y-126952000D01*
X187773750Y-126952000D01*
X187753750Y-126972000D01*
X187575000Y-126972000D01*
X187575000Y-126952000D01*
X186973750Y-126952000D01*
X186815000Y-127110750D01*
X186815000Y-127310717D01*
X185700000Y-127310717D01*
X185407522Y-127368895D01*
X185401378Y-127373000D01*
X185237006Y-127373000D01*
X185212971Y-127337029D01*
X185164500Y-127304642D01*
X185164500Y-126934343D01*
X186150153Y-125948690D01*
X186815000Y-125948690D01*
X186815000Y-126539250D01*
X186973750Y-126698000D01*
X187575000Y-126698000D01*
X187575000Y-125598750D01*
X187416250Y-125440000D01*
X187323691Y-125440000D01*
X187090302Y-125536673D01*
X186911673Y-125715301D01*
X186815000Y-125948690D01*
X186150153Y-125948690D01*
X187921843Y-124177000D01*
X189483475Y-124177000D01*
X189560000Y-124192222D01*
X189636525Y-124177000D01*
X189636526Y-124177000D01*
X189863170Y-124131918D01*
X190120186Y-123960186D01*
X190163538Y-123895305D01*
X190620449Y-123438395D01*
X190814529Y-123477000D01*
X191105471Y-123477000D01*
X191536297Y-123391303D01*
X192024858Y-123064858D01*
X192046895Y-123031877D01*
X192059380Y-123094643D01*
X192059380Y-123094643D01*
G37*
X192059380Y-123094643D02*
X192197959Y-123302041D01*
X192405357Y-123440620D01*
X192650000Y-123489283D01*
X192723001Y-123489283D01*
X192723001Y-124073470D01*
X192707778Y-124150000D01*
X192768083Y-124453170D01*
X192939815Y-124710186D01*
X193004693Y-124753536D01*
X193800574Y-125549418D01*
X193717478Y-125493895D01*
X193425000Y-125435717D01*
X193175000Y-125435717D01*
X192900000Y-125490418D01*
X192625000Y-125435717D01*
X192375000Y-125435717D01*
X192100000Y-125490418D01*
X191825000Y-125435717D01*
X191575000Y-125435717D01*
X191300000Y-125490418D01*
X191025000Y-125435717D01*
X190775000Y-125435717D01*
X190500000Y-125490418D01*
X190225000Y-125435717D01*
X189975000Y-125435717D01*
X189700000Y-125490418D01*
X189425000Y-125435717D01*
X189175000Y-125435717D01*
X188966226Y-125477245D01*
X188876309Y-125440000D01*
X188783750Y-125440000D01*
X188625000Y-125598750D01*
X188625000Y-125673893D01*
X188530042Y-125816009D01*
X188488327Y-125715301D01*
X188375000Y-125601975D01*
X188375000Y-125598750D01*
X188216250Y-125440000D01*
X188123691Y-125440000D01*
X188100000Y-125449813D01*
X188076309Y-125440000D01*
X187983750Y-125440000D01*
X187825000Y-125598750D01*
X187825000Y-125601975D01*
X187711673Y-125715301D01*
X187615000Y-125948690D01*
X187615000Y-126539250D01*
X187773750Y-126698000D01*
X187847000Y-126698000D01*
X187847000Y-126952000D01*
X187773750Y-126952000D01*
X187753750Y-126972000D01*
X187575000Y-126972000D01*
X187575000Y-126952000D01*
X186973750Y-126952000D01*
X186815000Y-127110750D01*
X186815000Y-127310717D01*
X185700000Y-127310717D01*
X185407522Y-127368895D01*
X185401378Y-127373000D01*
X185237006Y-127373000D01*
X185212971Y-127337029D01*
X185164500Y-127304642D01*
X185164500Y-126934343D01*
X186150153Y-125948690D01*
X186815000Y-125948690D01*
X186815000Y-126539250D01*
X186973750Y-126698000D01*
X187575000Y-126698000D01*
X187575000Y-125598750D01*
X187416250Y-125440000D01*
X187323691Y-125440000D01*
X187090302Y-125536673D01*
X186911673Y-125715301D01*
X186815000Y-125948690D01*
X186150153Y-125948690D01*
X187921843Y-124177000D01*
X189483475Y-124177000D01*
X189560000Y-124192222D01*
X189636525Y-124177000D01*
X189636526Y-124177000D01*
X189863170Y-124131918D01*
X190120186Y-123960186D01*
X190163538Y-123895305D01*
X190620449Y-123438395D01*
X190814529Y-123477000D01*
X191105471Y-123477000D01*
X191536297Y-123391303D01*
X192024858Y-123064858D01*
X192046895Y-123031877D01*
X192059380Y-123094643D01*
G04 #@! TD*
M02*
