G04 #@! TF.GenerationSoftware,KiCad,Pcbnew,5.0.2+dfsg1-1*
G04 #@! TF.CreationDate,2019-07-19T17:38:54+02:00*
G04 #@! TF.ProjectId,AutoGardener_Outdoor,4175746f-4761-4726-9465-6e65725f4f75,rev?*
G04 #@! TF.SameCoordinates,Original*
G04 #@! TF.FileFunction,Soldermask,Bot*
G04 #@! TF.FilePolarity,Negative*
%FSLAX46Y46*%
G04 Gerber Fmt 4.6, Leading zero omitted, Abs format (unit mm)*
G04 Created by KiCad (PCBNEW 5.0.2+dfsg1-1) date Pá 19. července 2019, 17:38:54 CEST*
%MOMM*%
%LPD*%
G01*
G04 APERTURE LIST*
%ADD10C,0.100000*%
G04 APERTURE END LIST*
D10*
G36*
X200110442Y-147185518D02*
X200176627Y-147192037D01*
X200289853Y-147226384D01*
X200346467Y-147243557D01*
X200485087Y-147317652D01*
X200502991Y-147327222D01*
X200538729Y-147356552D01*
X200640186Y-147439814D01*
X200723448Y-147541271D01*
X200752778Y-147577009D01*
X200752779Y-147577011D01*
X200836443Y-147733533D01*
X200836443Y-147733534D01*
X200887963Y-147903373D01*
X200905359Y-148080000D01*
X200887963Y-148256627D01*
X200880140Y-148282415D01*
X200836443Y-148426467D01*
X200795539Y-148502991D01*
X200752778Y-148582991D01*
X200723448Y-148618729D01*
X200640186Y-148720186D01*
X200538729Y-148803448D01*
X200502991Y-148832778D01*
X200502989Y-148832779D01*
X200346467Y-148916443D01*
X200289853Y-148933616D01*
X200176627Y-148967963D01*
X200110443Y-148974481D01*
X200044260Y-148981000D01*
X199955740Y-148981000D01*
X199889557Y-148974481D01*
X199823373Y-148967963D01*
X199710147Y-148933616D01*
X199653533Y-148916443D01*
X199497011Y-148832779D01*
X199497009Y-148832778D01*
X199461271Y-148803448D01*
X199359814Y-148720186D01*
X199276552Y-148618729D01*
X199247222Y-148582991D01*
X199204461Y-148502991D01*
X199163557Y-148426467D01*
X199119860Y-148282415D01*
X199112037Y-148256627D01*
X199094641Y-148080000D01*
X199112037Y-147903373D01*
X199163557Y-147733534D01*
X199163557Y-147733533D01*
X199247221Y-147577011D01*
X199247222Y-147577009D01*
X199276552Y-147541271D01*
X199359814Y-147439814D01*
X199461271Y-147356552D01*
X199497009Y-147327222D01*
X199514913Y-147317652D01*
X199653533Y-147243557D01*
X199710147Y-147226384D01*
X199823373Y-147192037D01*
X199889558Y-147185518D01*
X199955740Y-147179000D01*
X200044260Y-147179000D01*
X200110442Y-147185518D01*
X200110442Y-147185518D01*
G37*
G36*
X191400442Y-147105518D02*
X191466627Y-147112037D01*
X191579853Y-147146384D01*
X191636467Y-147163557D01*
X191775087Y-147237652D01*
X191792991Y-147247222D01*
X191828729Y-147276552D01*
X191930186Y-147359814D01*
X191995839Y-147439814D01*
X192042778Y-147497009D01*
X192042779Y-147497011D01*
X192126443Y-147653533D01*
X192126443Y-147653534D01*
X192177963Y-147823373D01*
X192195359Y-148000000D01*
X192177963Y-148176627D01*
X192153696Y-148256625D01*
X192126443Y-148346467D01*
X192052348Y-148485087D01*
X192042778Y-148502991D01*
X192013448Y-148538729D01*
X191930186Y-148640186D01*
X191832705Y-148720185D01*
X191792991Y-148752778D01*
X191792989Y-148752779D01*
X191636467Y-148836443D01*
X191579853Y-148853616D01*
X191466627Y-148887963D01*
X191400443Y-148894481D01*
X191334260Y-148901000D01*
X191245740Y-148901000D01*
X191179557Y-148894481D01*
X191113373Y-148887963D01*
X191000147Y-148853616D01*
X190943533Y-148836443D01*
X190787011Y-148752779D01*
X190787009Y-148752778D01*
X190747295Y-148720185D01*
X190649814Y-148640186D01*
X190566552Y-148538729D01*
X190537222Y-148502991D01*
X190527652Y-148485087D01*
X190453557Y-148346467D01*
X190426304Y-148256625D01*
X190402037Y-148176627D01*
X190384641Y-148000000D01*
X190402037Y-147823373D01*
X190453557Y-147653534D01*
X190453557Y-147653533D01*
X190537221Y-147497011D01*
X190537222Y-147497009D01*
X190584161Y-147439814D01*
X190649814Y-147359814D01*
X190751271Y-147276552D01*
X190787009Y-147247222D01*
X190804913Y-147237652D01*
X190943533Y-147163557D01*
X191000147Y-147146384D01*
X191113373Y-147112037D01*
X191179558Y-147105518D01*
X191245740Y-147099000D01*
X191334260Y-147099000D01*
X191400442Y-147105518D01*
X191400442Y-147105518D01*
G37*
G36*
X189651000Y-148901000D02*
X187849000Y-148901000D01*
X187849000Y-147099000D01*
X189651000Y-147099000D01*
X189651000Y-148901000D01*
X189651000Y-148901000D01*
G37*
G36*
X185901000Y-148901000D02*
X184099000Y-148901000D01*
X184099000Y-147099000D01*
X185901000Y-147099000D01*
X185901000Y-148901000D01*
X185901000Y-148901000D01*
G37*
G36*
X182570442Y-147105518D02*
X182636627Y-147112037D01*
X182749853Y-147146384D01*
X182806467Y-147163557D01*
X182945087Y-147237652D01*
X182962991Y-147247222D01*
X182998729Y-147276552D01*
X183100186Y-147359814D01*
X183165839Y-147439814D01*
X183212778Y-147497009D01*
X183212779Y-147497011D01*
X183296443Y-147653533D01*
X183296443Y-147653534D01*
X183347963Y-147823373D01*
X183365359Y-148000000D01*
X183347963Y-148176627D01*
X183323696Y-148256625D01*
X183296443Y-148346467D01*
X183222348Y-148485087D01*
X183212778Y-148502991D01*
X183183448Y-148538729D01*
X183100186Y-148640186D01*
X183002705Y-148720185D01*
X182962991Y-148752778D01*
X182962989Y-148752779D01*
X182806467Y-148836443D01*
X182749853Y-148853616D01*
X182636627Y-148887963D01*
X182570443Y-148894481D01*
X182504260Y-148901000D01*
X182415740Y-148901000D01*
X182349557Y-148894481D01*
X182283373Y-148887963D01*
X182170147Y-148853616D01*
X182113533Y-148836443D01*
X181957011Y-148752779D01*
X181957009Y-148752778D01*
X181917295Y-148720185D01*
X181819814Y-148640186D01*
X181736552Y-148538729D01*
X181707222Y-148502991D01*
X181697652Y-148485087D01*
X181623557Y-148346467D01*
X181596304Y-148256625D01*
X181572037Y-148176627D01*
X181554641Y-148000000D01*
X181572037Y-147823373D01*
X181623557Y-147653534D01*
X181623557Y-147653533D01*
X181707221Y-147497011D01*
X181707222Y-147497009D01*
X181754161Y-147439814D01*
X181819814Y-147359814D01*
X181921271Y-147276552D01*
X181957009Y-147247222D01*
X181974913Y-147237652D01*
X182113533Y-147163557D01*
X182170147Y-147146384D01*
X182283373Y-147112037D01*
X182349558Y-147105518D01*
X182415740Y-147099000D01*
X182504260Y-147099000D01*
X182570442Y-147105518D01*
X182570442Y-147105518D01*
G37*
G36*
X196375256Y-145391298D02*
X196481579Y-145412447D01*
X196782042Y-145536903D01*
X197048852Y-145715180D01*
X197052454Y-145717587D01*
X197282413Y-145947546D01*
X197463098Y-146217960D01*
X197587553Y-146518422D01*
X197651000Y-146837389D01*
X197651000Y-147162611D01*
X197611774Y-147359814D01*
X197587553Y-147481579D01*
X197463097Y-147782042D01*
X197317462Y-148000000D01*
X197282413Y-148052454D01*
X197052454Y-148282413D01*
X197052451Y-148282415D01*
X196782042Y-148463097D01*
X196481579Y-148587553D01*
X196375256Y-148608702D01*
X196162611Y-148651000D01*
X195837389Y-148651000D01*
X195624744Y-148608702D01*
X195518421Y-148587553D01*
X195217958Y-148463097D01*
X194947549Y-148282415D01*
X194947546Y-148282413D01*
X194717587Y-148052454D01*
X194682538Y-148000000D01*
X194536903Y-147782042D01*
X194412447Y-147481579D01*
X194388226Y-147359814D01*
X194349000Y-147162611D01*
X194349000Y-146837389D01*
X194412447Y-146518422D01*
X194536902Y-146217960D01*
X194717587Y-145947546D01*
X194947546Y-145717587D01*
X194951148Y-145715180D01*
X195217958Y-145536903D01*
X195518421Y-145412447D01*
X195624744Y-145391298D01*
X195837389Y-145349000D01*
X196162611Y-145349000D01*
X196375256Y-145391298D01*
X196375256Y-145391298D01*
G37*
G36*
X200110442Y-144645518D02*
X200176627Y-144652037D01*
X200289853Y-144686384D01*
X200346467Y-144703557D01*
X200485087Y-144777652D01*
X200502991Y-144787222D01*
X200538729Y-144816552D01*
X200640186Y-144899814D01*
X200723448Y-145001271D01*
X200752778Y-145037009D01*
X200752779Y-145037011D01*
X200836443Y-145193533D01*
X200836443Y-145193534D01*
X200887963Y-145363373D01*
X200905359Y-145540000D01*
X200887963Y-145716627D01*
X200853616Y-145829853D01*
X200836443Y-145886467D01*
X200762348Y-146025087D01*
X200752778Y-146042991D01*
X200723448Y-146078729D01*
X200640186Y-146180186D01*
X200538729Y-146263448D01*
X200502991Y-146292778D01*
X200502989Y-146292779D01*
X200346467Y-146376443D01*
X200289853Y-146393616D01*
X200176627Y-146427963D01*
X200110442Y-146434482D01*
X200044260Y-146441000D01*
X199955740Y-146441000D01*
X199889558Y-146434482D01*
X199823373Y-146427963D01*
X199710147Y-146393616D01*
X199653533Y-146376443D01*
X199497011Y-146292779D01*
X199497009Y-146292778D01*
X199461271Y-146263448D01*
X199359814Y-146180186D01*
X199276552Y-146078729D01*
X199247222Y-146042991D01*
X199237652Y-146025087D01*
X199163557Y-145886467D01*
X199146384Y-145829853D01*
X199112037Y-145716627D01*
X199094641Y-145540000D01*
X199112037Y-145363373D01*
X199163557Y-145193534D01*
X199163557Y-145193533D01*
X199247221Y-145037011D01*
X199247222Y-145037009D01*
X199276552Y-145001271D01*
X199359814Y-144899814D01*
X199461271Y-144816552D01*
X199497009Y-144787222D01*
X199514913Y-144777652D01*
X199653533Y-144703557D01*
X199710147Y-144686384D01*
X199823373Y-144652037D01*
X199889558Y-144645518D01*
X199955740Y-144639000D01*
X200044260Y-144639000D01*
X200110442Y-144645518D01*
X200110442Y-144645518D01*
G37*
G36*
X200901000Y-143901000D02*
X199099000Y-143901000D01*
X199099000Y-142099000D01*
X200901000Y-142099000D01*
X200901000Y-143901000D01*
X200901000Y-143901000D01*
G37*
G36*
X200110443Y-137265519D02*
X200176627Y-137272037D01*
X200289853Y-137306384D01*
X200346467Y-137323557D01*
X200485087Y-137397652D01*
X200502991Y-137407222D01*
X200538729Y-137436552D01*
X200640186Y-137519814D01*
X200723448Y-137621271D01*
X200752778Y-137657009D01*
X200752779Y-137657011D01*
X200836443Y-137813533D01*
X200836443Y-137813534D01*
X200887963Y-137983373D01*
X200905359Y-138160000D01*
X200887963Y-138336627D01*
X200853616Y-138449853D01*
X200836443Y-138506467D01*
X200762348Y-138645087D01*
X200752778Y-138662991D01*
X200723448Y-138698729D01*
X200640186Y-138800186D01*
X200538729Y-138883448D01*
X200502991Y-138912778D01*
X200502989Y-138912779D01*
X200346467Y-138996443D01*
X200289853Y-139013616D01*
X200176627Y-139047963D01*
X200110443Y-139054481D01*
X200044260Y-139061000D01*
X199955740Y-139061000D01*
X199889557Y-139054481D01*
X199823373Y-139047963D01*
X199710147Y-139013616D01*
X199653533Y-138996443D01*
X199497011Y-138912779D01*
X199497009Y-138912778D01*
X199461271Y-138883448D01*
X199359814Y-138800186D01*
X199276552Y-138698729D01*
X199247222Y-138662991D01*
X199237652Y-138645087D01*
X199163557Y-138506467D01*
X199146384Y-138449853D01*
X199112037Y-138336627D01*
X199094641Y-138160000D01*
X199112037Y-137983373D01*
X199163557Y-137813534D01*
X199163557Y-137813533D01*
X199247221Y-137657011D01*
X199247222Y-137657009D01*
X199276552Y-137621271D01*
X199359814Y-137519814D01*
X199461271Y-137436552D01*
X199497009Y-137407222D01*
X199514913Y-137397652D01*
X199653533Y-137323557D01*
X199710147Y-137306384D01*
X199823373Y-137272037D01*
X199889557Y-137265519D01*
X199955740Y-137259000D01*
X200044260Y-137259000D01*
X200110443Y-137265519D01*
X200110443Y-137265519D01*
G37*
G36*
X200110442Y-134725518D02*
X200176627Y-134732037D01*
X200289853Y-134766384D01*
X200346467Y-134783557D01*
X200485087Y-134857652D01*
X200502991Y-134867222D01*
X200538729Y-134896552D01*
X200640186Y-134979814D01*
X200723448Y-135081271D01*
X200752778Y-135117009D01*
X200752779Y-135117011D01*
X200836443Y-135273533D01*
X200836443Y-135273534D01*
X200887963Y-135443373D01*
X200905359Y-135620000D01*
X200887963Y-135796627D01*
X200853616Y-135909853D01*
X200836443Y-135966467D01*
X200762348Y-136105087D01*
X200752778Y-136122991D01*
X200723448Y-136158729D01*
X200640186Y-136260186D01*
X200538729Y-136343448D01*
X200502991Y-136372778D01*
X200502989Y-136372779D01*
X200346467Y-136456443D01*
X200289853Y-136473616D01*
X200176627Y-136507963D01*
X200110443Y-136514481D01*
X200044260Y-136521000D01*
X199955740Y-136521000D01*
X199889557Y-136514481D01*
X199823373Y-136507963D01*
X199710147Y-136473616D01*
X199653533Y-136456443D01*
X199497011Y-136372779D01*
X199497009Y-136372778D01*
X199461271Y-136343448D01*
X199359814Y-136260186D01*
X199276552Y-136158729D01*
X199247222Y-136122991D01*
X199237652Y-136105087D01*
X199163557Y-135966467D01*
X199146384Y-135909853D01*
X199112037Y-135796627D01*
X199094641Y-135620000D01*
X199112037Y-135443373D01*
X199163557Y-135273534D01*
X199163557Y-135273533D01*
X199247221Y-135117011D01*
X199247222Y-135117009D01*
X199276552Y-135081271D01*
X199359814Y-134979814D01*
X199461271Y-134896552D01*
X199497009Y-134867222D01*
X199514913Y-134857652D01*
X199653533Y-134783557D01*
X199710147Y-134766384D01*
X199823373Y-134732037D01*
X199889558Y-134725518D01*
X199955740Y-134719000D01*
X200044260Y-134719000D01*
X200110442Y-134725518D01*
X200110442Y-134725518D01*
G37*
G36*
X200110442Y-132185518D02*
X200176627Y-132192037D01*
X200289853Y-132226384D01*
X200346467Y-132243557D01*
X200485087Y-132317652D01*
X200502991Y-132327222D01*
X200538729Y-132356552D01*
X200640186Y-132439814D01*
X200723448Y-132541271D01*
X200752778Y-132577009D01*
X200752779Y-132577011D01*
X200836443Y-132733533D01*
X200836443Y-132733534D01*
X200887963Y-132903373D01*
X200905359Y-133080000D01*
X200887963Y-133256627D01*
X200853616Y-133369853D01*
X200836443Y-133426467D01*
X200762348Y-133565087D01*
X200752778Y-133582991D01*
X200723448Y-133618729D01*
X200640186Y-133720186D01*
X200538729Y-133803448D01*
X200502991Y-133832778D01*
X200502989Y-133832779D01*
X200346467Y-133916443D01*
X200289853Y-133933616D01*
X200176627Y-133967963D01*
X200110442Y-133974482D01*
X200044260Y-133981000D01*
X199955740Y-133981000D01*
X199889558Y-133974482D01*
X199823373Y-133967963D01*
X199710147Y-133933616D01*
X199653533Y-133916443D01*
X199497011Y-133832779D01*
X199497009Y-133832778D01*
X199461271Y-133803448D01*
X199359814Y-133720186D01*
X199276552Y-133618729D01*
X199247222Y-133582991D01*
X199237652Y-133565087D01*
X199163557Y-133426467D01*
X199146384Y-133369853D01*
X199112037Y-133256627D01*
X199094641Y-133080000D01*
X199112037Y-132903373D01*
X199163557Y-132733534D01*
X199163557Y-132733533D01*
X199247221Y-132577011D01*
X199247222Y-132577009D01*
X199276552Y-132541271D01*
X199359814Y-132439814D01*
X199461271Y-132356552D01*
X199497009Y-132327222D01*
X199514913Y-132317652D01*
X199653533Y-132243557D01*
X199710147Y-132226384D01*
X199823373Y-132192037D01*
X199889558Y-132185518D01*
X199955740Y-132179000D01*
X200044260Y-132179000D01*
X200110442Y-132185518D01*
X200110442Y-132185518D01*
G37*
G36*
X200110442Y-129645518D02*
X200176627Y-129652037D01*
X200289853Y-129686384D01*
X200346467Y-129703557D01*
X200485087Y-129777652D01*
X200502991Y-129787222D01*
X200538729Y-129816552D01*
X200640186Y-129899814D01*
X200723448Y-130001271D01*
X200752778Y-130037009D01*
X200752779Y-130037011D01*
X200836443Y-130193533D01*
X200836443Y-130193534D01*
X200887963Y-130363373D01*
X200905359Y-130540000D01*
X200887963Y-130716627D01*
X200853616Y-130829853D01*
X200836443Y-130886467D01*
X200762348Y-131025087D01*
X200752778Y-131042991D01*
X200723448Y-131078729D01*
X200640186Y-131180186D01*
X200538729Y-131263448D01*
X200502991Y-131292778D01*
X200502989Y-131292779D01*
X200346467Y-131376443D01*
X200289853Y-131393616D01*
X200176627Y-131427963D01*
X200110442Y-131434482D01*
X200044260Y-131441000D01*
X199955740Y-131441000D01*
X199889558Y-131434482D01*
X199823373Y-131427963D01*
X199710147Y-131393616D01*
X199653533Y-131376443D01*
X199497011Y-131292779D01*
X199497009Y-131292778D01*
X199461271Y-131263448D01*
X199359814Y-131180186D01*
X199276552Y-131078729D01*
X199247222Y-131042991D01*
X199237652Y-131025087D01*
X199163557Y-130886467D01*
X199146384Y-130829853D01*
X199112037Y-130716627D01*
X199094641Y-130540000D01*
X199112037Y-130363373D01*
X199163557Y-130193534D01*
X199163557Y-130193533D01*
X199247221Y-130037011D01*
X199247222Y-130037009D01*
X199276552Y-130001271D01*
X199359814Y-129899814D01*
X199461271Y-129816552D01*
X199497009Y-129787222D01*
X199514913Y-129777652D01*
X199653533Y-129703557D01*
X199710147Y-129686384D01*
X199823373Y-129652037D01*
X199889558Y-129645518D01*
X199955740Y-129639000D01*
X200044260Y-129639000D01*
X200110442Y-129645518D01*
X200110442Y-129645518D01*
G37*
G36*
X200901000Y-128901000D02*
X199099000Y-128901000D01*
X199099000Y-127099000D01*
X200901000Y-127099000D01*
X200901000Y-128901000D01*
X200901000Y-128901000D01*
G37*
G36*
X183375256Y-121391298D02*
X183481579Y-121412447D01*
X183782042Y-121536903D01*
X183956592Y-121653534D01*
X184052454Y-121717587D01*
X184282413Y-121947546D01*
X184282415Y-121947549D01*
X184463097Y-122217958D01*
X184581162Y-122502991D01*
X184587553Y-122518422D01*
X184651000Y-122837389D01*
X184651000Y-123162611D01*
X184587553Y-123481578D01*
X184463098Y-123782040D01*
X184282413Y-124052454D01*
X184052454Y-124282413D01*
X184052451Y-124282415D01*
X183782042Y-124463097D01*
X183481579Y-124587553D01*
X183375256Y-124608702D01*
X183162611Y-124651000D01*
X182837389Y-124651000D01*
X182624744Y-124608702D01*
X182518421Y-124587553D01*
X182217958Y-124463097D01*
X181947549Y-124282415D01*
X181947546Y-124282413D01*
X181717587Y-124052454D01*
X181536902Y-123782040D01*
X181412447Y-123481578D01*
X181349000Y-123162611D01*
X181349000Y-122837389D01*
X181412447Y-122518422D01*
X181418839Y-122502991D01*
X181536903Y-122217958D01*
X181717585Y-121947549D01*
X181717587Y-121947546D01*
X181947546Y-121717587D01*
X182043408Y-121653534D01*
X182217958Y-121536903D01*
X182518421Y-121412447D01*
X182624744Y-121391298D01*
X182837389Y-121349000D01*
X183162611Y-121349000D01*
X183375256Y-121391298D01*
X183375256Y-121391298D01*
G37*
G36*
X191070442Y-121105518D02*
X191136627Y-121112037D01*
X191249853Y-121146384D01*
X191306467Y-121163557D01*
X191445087Y-121237652D01*
X191462991Y-121247222D01*
X191498729Y-121276552D01*
X191600186Y-121359814D01*
X191683448Y-121461271D01*
X191712778Y-121497009D01*
X191712779Y-121497011D01*
X191796443Y-121653533D01*
X191796443Y-121653534D01*
X191847963Y-121823373D01*
X191865359Y-122000000D01*
X191847963Y-122176627D01*
X191813616Y-122289853D01*
X191796443Y-122346467D01*
X191722348Y-122485087D01*
X191712778Y-122502991D01*
X191700114Y-122518422D01*
X191600186Y-122640186D01*
X191498729Y-122723448D01*
X191462991Y-122752778D01*
X191462989Y-122752779D01*
X191306467Y-122836443D01*
X191249853Y-122853616D01*
X191136627Y-122887963D01*
X191070442Y-122894482D01*
X191004260Y-122901000D01*
X190915740Y-122901000D01*
X190849558Y-122894482D01*
X190783373Y-122887963D01*
X190670147Y-122853616D01*
X190613533Y-122836443D01*
X190457011Y-122752779D01*
X190457009Y-122752778D01*
X190421271Y-122723448D01*
X190319814Y-122640186D01*
X190219886Y-122518422D01*
X190207222Y-122502991D01*
X190197652Y-122485087D01*
X190123557Y-122346467D01*
X190106384Y-122289853D01*
X190072037Y-122176627D01*
X190054641Y-122000000D01*
X190072037Y-121823373D01*
X190123557Y-121653534D01*
X190123557Y-121653533D01*
X190207221Y-121497011D01*
X190207222Y-121497009D01*
X190236552Y-121461271D01*
X190319814Y-121359814D01*
X190421271Y-121276552D01*
X190457009Y-121247222D01*
X190474913Y-121237652D01*
X190613533Y-121163557D01*
X190670147Y-121146384D01*
X190783373Y-121112037D01*
X190849558Y-121105518D01*
X190915740Y-121099000D01*
X191004260Y-121099000D01*
X191070442Y-121105518D01*
X191070442Y-121105518D01*
G37*
G36*
X188530442Y-121105518D02*
X188596627Y-121112037D01*
X188709853Y-121146384D01*
X188766467Y-121163557D01*
X188905087Y-121237652D01*
X188922991Y-121247222D01*
X188958729Y-121276552D01*
X189060186Y-121359814D01*
X189143448Y-121461271D01*
X189172778Y-121497009D01*
X189172779Y-121497011D01*
X189256443Y-121653533D01*
X189256443Y-121653534D01*
X189307963Y-121823373D01*
X189325359Y-122000000D01*
X189307963Y-122176627D01*
X189273616Y-122289853D01*
X189256443Y-122346467D01*
X189182348Y-122485087D01*
X189172778Y-122502991D01*
X189160114Y-122518422D01*
X189060186Y-122640186D01*
X188958729Y-122723448D01*
X188922991Y-122752778D01*
X188922989Y-122752779D01*
X188766467Y-122836443D01*
X188709853Y-122853616D01*
X188596627Y-122887963D01*
X188530442Y-122894482D01*
X188464260Y-122901000D01*
X188375740Y-122901000D01*
X188309558Y-122894482D01*
X188243373Y-122887963D01*
X188130147Y-122853616D01*
X188073533Y-122836443D01*
X187917011Y-122752779D01*
X187917009Y-122752778D01*
X187881271Y-122723448D01*
X187779814Y-122640186D01*
X187679886Y-122518422D01*
X187667222Y-122502991D01*
X187657652Y-122485087D01*
X187583557Y-122346467D01*
X187566384Y-122289853D01*
X187532037Y-122176627D01*
X187514641Y-122000000D01*
X187532037Y-121823373D01*
X187583557Y-121653534D01*
X187583557Y-121653533D01*
X187667221Y-121497011D01*
X187667222Y-121497009D01*
X187696552Y-121461271D01*
X187779814Y-121359814D01*
X187881271Y-121276552D01*
X187917009Y-121247222D01*
X187934913Y-121237652D01*
X188073533Y-121163557D01*
X188130147Y-121146384D01*
X188243373Y-121112037D01*
X188309558Y-121105518D01*
X188375740Y-121099000D01*
X188464260Y-121099000D01*
X188530442Y-121105518D01*
X188530442Y-121105518D01*
G37*
G36*
X194401000Y-122901000D02*
X192599000Y-122901000D01*
X192599000Y-121099000D01*
X194401000Y-121099000D01*
X194401000Y-122901000D01*
X194401000Y-122901000D01*
G37*
M02*
