M48
;DRILL file {KiCad 5.0.2-bee76a0~70~ubuntu18.04.1} date Fri 19 Jul 2019 10:46:58 CEST
;FORMAT={-:-/ absolute / metric / decimal}
FMAT,2
METRIC,TZ
T1C0.400
T2C1.000
%
G90
G05
T1
X181.Y-121.
X181.Y-126.
X181.Y-132.
X181.Y-137.
X181.Y-142.
X181.Y-147.
X183.Y-126.5
X184.037Y-133.062
X185.Y-121.
X186.Y-137.5
X186.5Y-126.5
X187.Y-144.
X187.Y-146.
X188.6Y-129.1
X189.1Y-133.1
X190.Y-125.
X190.Y-131.5
X191.Y-137.
X191.5Y-129.5
X192.5Y-125.
X193.Y-132.
X193.Y-145.
X193.Y-147.
X193.1Y-130.6
X195.Y-124.
X195.Y-141.5
X196.Y-122.
X196.3Y-133.9
X196.5Y-144.
X197.Y-130.6
X198.Y-123.
X200.Y-122.
T2
X200.Y-143.
X200.Y-145.54
X200.Y-148.08
X200.Y-128.
X200.Y-130.54
X200.Y-133.08
X200.Y-135.62
X200.Y-138.16
X188.75Y-148.
X191.29Y-148.
X188.42Y-122.
X190.96Y-122.
X193.5Y-122.
X182.46Y-148.
X185.Y-148.
T0
M30
