G04 #@! TF.GenerationSoftware,KiCad,Pcbnew,5.0.2-bee76a0~70~ubuntu18.04.1*
G04 #@! TF.CreationDate,2019-04-11T12:32:57+02:00*
G04 #@! TF.ProjectId,Plant_monitoring_device,506c616e-745f-46d6-9f6e-69746f72696e,rev?*
G04 #@! TF.SameCoordinates,Original*
G04 #@! TF.FileFunction,Copper,L2,Bot*
G04 #@! TF.FilePolarity,Positive*
%FSLAX46Y46*%
G04 Gerber Fmt 4.6, Leading zero omitted, Abs format (unit mm)*
G04 Created by KiCad (PCBNEW 5.0.2-bee76a0~70~ubuntu18.04.1) date Čt 11. dubna 2019, 12:32:57 CEST*
%MOMM*%
%LPD*%
G01*
G04 APERTURE LIST*
G04 #@! TA.AperFunction,ComponentPad*
%ADD10C,2.000000*%
G04 #@! TD*
G04 #@! TA.AperFunction,ComponentPad*
%ADD11R,2.000000X2.000000*%
G04 #@! TD*
G04 #@! TA.AperFunction,ComponentPad*
%ADD12C,1.524000*%
G04 #@! TD*
G04 #@! TA.AperFunction,ComponentPad*
%ADD13C,1.600000*%
G04 #@! TD*
G04 #@! TA.AperFunction,ComponentPad*
%ADD14O,1.700000X1.700000*%
G04 #@! TD*
G04 #@! TA.AperFunction,ComponentPad*
%ADD15R,1.700000X1.700000*%
G04 #@! TD*
G04 #@! TA.AperFunction,Conductor*
%ADD16C,0.100000*%
G04 #@! TD*
G04 #@! TA.AperFunction,ComponentPad*
%ADD17C,3.500000*%
G04 #@! TD*
G04 #@! TA.AperFunction,ComponentPad*
%ADD18C,3.000000*%
G04 #@! TD*
G04 #@! TA.AperFunction,ComponentPad*
%ADD19R,3.500000X3.500000*%
G04 #@! TD*
G04 #@! TA.AperFunction,ComponentPad*
%ADD20C,1.400000*%
G04 #@! TD*
G04 #@! TA.AperFunction,ViaPad*
%ADD21C,0.800000*%
G04 #@! TD*
G04 #@! TA.AperFunction,Conductor*
%ADD22C,0.300000*%
G04 #@! TD*
G04 #@! TA.AperFunction,Conductor*
%ADD23C,0.800000*%
G04 #@! TD*
G04 #@! TA.AperFunction,Conductor*
%ADD24C,0.250000*%
G04 #@! TD*
G04 APERTURE END LIST*
D10*
G04 #@! TO.P,BAT1,2*
G04 #@! TO.N,GND*
X199300000Y-148500000D03*
D11*
G04 #@! TO.P,BAT1,1*
G04 #@! TO.N,VCC*
X212000000Y-148500000D03*
G04 #@! TD*
D12*
G04 #@! TO.P,J12,3*
G04 #@! TO.N,GND*
X237500000Y-147500000D03*
D13*
G04 #@! TO.P,J12,2*
G04 #@! TO.N,/ADC_SOIL2*
X239500000Y-147500000D03*
G04 #@! TO.P,J12,1*
G04 #@! TO.N,VDDA*
X241500000Y-147500000D03*
G04 #@! TD*
D14*
G04 #@! TO.P,J2,5*
G04 #@! TO.N,/NRST*
X203250000Y-144410000D03*
G04 #@! TO.P,J2,4*
G04 #@! TO.N,/SWDIO*
X203250000Y-141870000D03*
G04 #@! TO.P,J2,3*
G04 #@! TO.N,GND*
X203250000Y-139330000D03*
G04 #@! TO.P,J2,2*
G04 #@! TO.N,/SWCLK*
X203250000Y-136790000D03*
D15*
G04 #@! TO.P,J2,1*
G04 #@! TO.N,VCC*
X203250000Y-134250000D03*
G04 #@! TD*
D12*
G04 #@! TO.P,J13,3*
G04 #@! TO.N,GND*
X246500000Y-147500000D03*
D13*
G04 #@! TO.P,J13,2*
G04 #@! TO.N,/ADC_SOIL3*
X248500000Y-147500000D03*
G04 #@! TO.P,J13,1*
G04 #@! TO.N,VDDA*
X250500000Y-147500000D03*
G04 #@! TD*
D12*
G04 #@! TO.P,J11,3*
G04 #@! TO.N,GND*
X228500000Y-147500000D03*
D13*
G04 #@! TO.P,J11,2*
G04 #@! TO.N,/ADC_SOIL1*
X230500000Y-147500000D03*
G04 #@! TO.P,J11,1*
G04 #@! TO.N,VDDA*
X232500000Y-147500000D03*
G04 #@! TD*
D12*
G04 #@! TO.P,J14,3*
G04 #@! TO.N,GND*
X255460000Y-147500000D03*
D13*
G04 #@! TO.P,J14,2*
G04 #@! TO.N,/ADC_SOIL4*
X257460000Y-147500000D03*
G04 #@! TO.P,J14,1*
G04 #@! TO.N,VDDA*
X259460000Y-147500000D03*
G04 #@! TD*
G04 #@! TO.P,J3,2*
G04 #@! TO.N,Net-(J3-Pad2)*
X215000000Y-116500000D03*
G04 #@! TO.P,J3,1*
G04 #@! TO.N,+12V*
X213000000Y-116500000D03*
G04 #@! TD*
G04 #@! TO.P,J4,2*
G04 #@! TO.N,Net-(J4-Pad2)*
X222000000Y-116500000D03*
G04 #@! TO.P,J4,1*
G04 #@! TO.N,+12V*
X220000000Y-116500000D03*
G04 #@! TD*
G04 #@! TO.P,J5,2*
G04 #@! TO.N,Net-(J5-Pad2)*
X229000000Y-116500000D03*
G04 #@! TO.P,J5,1*
G04 #@! TO.N,+12V*
X227000000Y-116500000D03*
G04 #@! TD*
G04 #@! TO.P,J6,2*
G04 #@! TO.N,Net-(J6-Pad2)*
X236000000Y-116500000D03*
G04 #@! TO.P,J6,1*
G04 #@! TO.N,+12V*
X234000000Y-116500000D03*
G04 #@! TD*
G04 #@! TO.P,J8,2*
G04 #@! TO.N,Net-(J8-Pad2)*
X222000000Y-110500000D03*
G04 #@! TO.P,J8,1*
G04 #@! TO.N,+12V*
X220000000Y-110500000D03*
G04 #@! TD*
G04 #@! TO.P,J9,2*
G04 #@! TO.N,Net-(J9-Pad2)*
X229000000Y-110500000D03*
G04 #@! TO.P,J9,1*
G04 #@! TO.N,+12V*
X227000000Y-110500000D03*
G04 #@! TD*
G04 #@! TO.P,J10,2*
G04 #@! TO.N,Net-(J10-Pad2)*
X236000000Y-110500000D03*
G04 #@! TO.P,J10,1*
G04 #@! TO.N,+12V*
X234000000Y-110500000D03*
G04 #@! TD*
G04 #@! TO.P,J7,2*
G04 #@! TO.N,Net-(J7-Pad2)*
X215000000Y-110500000D03*
G04 #@! TO.P,J7,1*
G04 #@! TO.N,+12V*
X213000000Y-110500000D03*
G04 #@! TD*
D16*
G04 #@! TO.N,N/C*
G04 #@! TO.C,J1*
G36*
X203960765Y-116454213D02*
X204045704Y-116466813D01*
X204128999Y-116487677D01*
X204209848Y-116516605D01*
X204287472Y-116553319D01*
X204361124Y-116597464D01*
X204430094Y-116648616D01*
X204493718Y-116706282D01*
X204551384Y-116769906D01*
X204602536Y-116838876D01*
X204646681Y-116912528D01*
X204683395Y-116990152D01*
X204712323Y-117071001D01*
X204733187Y-117154296D01*
X204745787Y-117239235D01*
X204750000Y-117325000D01*
X204750000Y-119075000D01*
X204745787Y-119160765D01*
X204733187Y-119245704D01*
X204712323Y-119328999D01*
X204683395Y-119409848D01*
X204646681Y-119487472D01*
X204602536Y-119561124D01*
X204551384Y-119630094D01*
X204493718Y-119693718D01*
X204430094Y-119751384D01*
X204361124Y-119802536D01*
X204287472Y-119846681D01*
X204209848Y-119883395D01*
X204128999Y-119912323D01*
X204045704Y-119933187D01*
X203960765Y-119945787D01*
X203875000Y-119950000D01*
X202125000Y-119950000D01*
X202039235Y-119945787D01*
X201954296Y-119933187D01*
X201871001Y-119912323D01*
X201790152Y-119883395D01*
X201712528Y-119846681D01*
X201638876Y-119802536D01*
X201569906Y-119751384D01*
X201506282Y-119693718D01*
X201448616Y-119630094D01*
X201397464Y-119561124D01*
X201353319Y-119487472D01*
X201316605Y-119409848D01*
X201287677Y-119328999D01*
X201266813Y-119245704D01*
X201254213Y-119160765D01*
X201250000Y-119075000D01*
X201250000Y-117325000D01*
X201254213Y-117239235D01*
X201266813Y-117154296D01*
X201287677Y-117071001D01*
X201316605Y-116990152D01*
X201353319Y-116912528D01*
X201397464Y-116838876D01*
X201448616Y-116769906D01*
X201506282Y-116706282D01*
X201569906Y-116648616D01*
X201638876Y-116597464D01*
X201712528Y-116553319D01*
X201790152Y-116516605D01*
X201871001Y-116487677D01*
X201954296Y-116466813D01*
X202039235Y-116454213D01*
X202125000Y-116450000D01*
X203875000Y-116450000D01*
X203960765Y-116454213D01*
X203960765Y-116454213D01*
G37*
D17*
G04 #@! TD*
G04 #@! TO.P,J1,3*
G04 #@! TO.N,N/C*
X203000000Y-118200000D03*
D16*
G04 #@! TO.N,GND*
G04 #@! TO.C,J1*
G36*
X200823513Y-111753611D02*
X200896318Y-111764411D01*
X200967714Y-111782295D01*
X201037013Y-111807090D01*
X201103548Y-111838559D01*
X201166678Y-111876398D01*
X201225795Y-111920242D01*
X201280330Y-111969670D01*
X201329758Y-112024205D01*
X201373602Y-112083322D01*
X201411441Y-112146452D01*
X201442910Y-112212987D01*
X201467705Y-112282286D01*
X201485589Y-112353682D01*
X201496389Y-112426487D01*
X201500000Y-112500000D01*
X201500000Y-114500000D01*
X201496389Y-114573513D01*
X201485589Y-114646318D01*
X201467705Y-114717714D01*
X201442910Y-114787013D01*
X201411441Y-114853548D01*
X201373602Y-114916678D01*
X201329758Y-114975795D01*
X201280330Y-115030330D01*
X201225795Y-115079758D01*
X201166678Y-115123602D01*
X201103548Y-115161441D01*
X201037013Y-115192910D01*
X200967714Y-115217705D01*
X200896318Y-115235589D01*
X200823513Y-115246389D01*
X200750000Y-115250000D01*
X199250000Y-115250000D01*
X199176487Y-115246389D01*
X199103682Y-115235589D01*
X199032286Y-115217705D01*
X198962987Y-115192910D01*
X198896452Y-115161441D01*
X198833322Y-115123602D01*
X198774205Y-115079758D01*
X198719670Y-115030330D01*
X198670242Y-114975795D01*
X198626398Y-114916678D01*
X198588559Y-114853548D01*
X198557090Y-114787013D01*
X198532295Y-114717714D01*
X198514411Y-114646318D01*
X198503611Y-114573513D01*
X198500000Y-114500000D01*
X198500000Y-112500000D01*
X198503611Y-112426487D01*
X198514411Y-112353682D01*
X198532295Y-112282286D01*
X198557090Y-112212987D01*
X198588559Y-112146452D01*
X198626398Y-112083322D01*
X198670242Y-112024205D01*
X198719670Y-111969670D01*
X198774205Y-111920242D01*
X198833322Y-111876398D01*
X198896452Y-111838559D01*
X198962987Y-111807090D01*
X199032286Y-111782295D01*
X199103682Y-111764411D01*
X199176487Y-111753611D01*
X199250000Y-111750000D01*
X200750000Y-111750000D01*
X200823513Y-111753611D01*
X200823513Y-111753611D01*
G37*
D18*
G04 #@! TD*
G04 #@! TO.P,J1,2*
G04 #@! TO.N,GND*
X200000000Y-113500000D03*
D19*
G04 #@! TO.P,J1,1*
G04 #@! TO.N,+12V*
X206000000Y-113500000D03*
G04 #@! TD*
D20*
G04 #@! TO.P,A1,1*
G04 #@! TO.N,Net-(A1-Pad1)*
X254390000Y-98570000D03*
G04 #@! TD*
D21*
G04 #@! TO.N,GND*
X197000000Y-150750000D03*
X217440000Y-122540000D03*
X224450000Y-122550000D03*
X231440000Y-122540000D03*
X219690000Y-104430000D03*
X226690000Y-104430000D03*
X220650000Y-142960000D03*
X233690000Y-104430000D03*
X217110000Y-130500000D03*
X213990000Y-105510000D03*
X221295000Y-132649998D03*
X210000000Y-120500000D03*
X225000000Y-120500000D03*
X217500000Y-120500000D03*
X232500000Y-120500000D03*
X205000000Y-105000000D03*
X264000000Y-108000000D03*
X264000000Y-105000000D03*
X264000000Y-102000000D03*
X264000000Y-100000000D03*
X256000000Y-98000000D03*
X256000000Y-99000000D03*
X257000000Y-98500000D03*
X257000000Y-99500000D03*
X253000000Y-98000000D03*
X253000000Y-99000000D03*
X252000000Y-98500000D03*
X252000000Y-99500000D03*
X253000000Y-100000000D03*
X256000000Y-100000000D03*
X242770000Y-137274990D03*
X207000000Y-150750000D03*
X202000000Y-150750000D03*
X217000000Y-150750000D03*
X222000000Y-150750000D03*
X212500000Y-140500000D03*
X211499984Y-143000000D03*
X237100000Y-121500000D03*
X237600000Y-124600000D03*
X242000000Y-106000000D03*
X242000000Y-113000000D03*
X242000000Y-116000000D03*
X242000000Y-119000000D03*
X242000000Y-122000000D03*
X242000000Y-125500000D03*
X242000000Y-103000000D03*
X242000000Y-99500000D03*
X198000000Y-102000000D03*
X203000000Y-102000000D03*
X208000000Y-102000000D03*
X213000000Y-102000000D03*
X253000000Y-137000000D03*
X253000000Y-142000000D03*
X258000000Y-142000000D03*
X263000000Y-142000000D03*
X263000000Y-137000000D03*
X263000000Y-147000000D03*
X236000000Y-135000000D03*
X238000000Y-142000000D03*
X241000000Y-139000000D03*
X241000000Y-135500000D03*
X198000000Y-139500000D03*
X198000000Y-134500000D03*
X198000000Y-129500000D03*
X198000000Y-124500000D03*
X198000000Y-109500000D03*
X218000000Y-99500000D03*
X223000000Y-99500000D03*
X228000000Y-99500000D03*
X233000000Y-99500000D03*
X238000000Y-99500000D03*
X245500000Y-99500000D03*
X250500000Y-99500000D03*
X248000000Y-99500000D03*
X258000000Y-99500000D03*
X260500000Y-99500000D03*
X263000000Y-99500000D03*
X264000000Y-115000000D03*
X264000000Y-118000000D03*
X264000000Y-132000000D03*
X261000000Y-134000000D03*
X258000000Y-134000000D03*
X254000000Y-134000000D03*
X251000000Y-134000000D03*
X235000000Y-150000000D03*
X244000000Y-150000000D03*
X253000000Y-150000000D03*
X262000000Y-150000000D03*
X226000000Y-150000000D03*
X222000000Y-148000000D03*
X235000000Y-147000000D03*
X226000000Y-147000000D03*
X244000000Y-147000000D03*
X253000000Y-147000000D03*
X217000000Y-148000000D03*
X207000000Y-148000000D03*
X202000000Y-148000000D03*
X210000000Y-105000000D03*
X201000000Y-106000000D03*
X251000000Y-136000000D03*
X195500000Y-114500000D03*
X234000000Y-137000000D03*
X234000000Y-133500000D03*
X217459990Y-125492459D03*
X241090000Y-128010000D03*
X246000000Y-128609990D03*
X254000000Y-128609990D03*
X258000000Y-128609990D03*
X261000000Y-128609990D03*
X250000000Y-128609990D03*
X213000000Y-128000000D03*
X222250000Y-128600000D03*
X219000000Y-128600000D03*
X219750000Y-101750000D03*
X226750000Y-102000000D03*
X233500000Y-102500000D03*
X233500000Y-106750000D03*
X226750000Y-106750000D03*
X219750000Y-106750000D03*
X208000000Y-133000000D03*
X210000000Y-130000000D03*
X210000000Y-127500000D03*
X212500000Y-130000000D03*
G04 #@! TO.N,/NRST*
X214678556Y-139272253D03*
G04 #@! TO.N,/I2C_SDA*
X225910000Y-142860000D03*
X217500000Y-138200000D03*
G04 #@! TO.N,/I2C_SCL*
X227470000Y-143820000D03*
X215360000Y-137400000D03*
G04 #@! TO.N,VDDA*
X238140000Y-139580000D03*
X238150000Y-134940000D03*
X236750000Y-143250000D03*
X234250000Y-141500000D03*
X241500000Y-143250000D03*
X250500000Y-143250000D03*
G04 #@! TO.N,/COMM_ENA*
X225035536Y-136999381D03*
X216835465Y-136909102D03*
G04 #@! TO.N,VCC*
X227200000Y-134900000D03*
X230000000Y-134900000D03*
X230000000Y-138900000D03*
X228540000Y-140180000D03*
X221188050Y-130509209D03*
X210500000Y-144500000D03*
X210500000Y-145500000D03*
X211500000Y-145500000D03*
X211500000Y-144500000D03*
X212500000Y-144500000D03*
X212500000Y-145500000D03*
X213500000Y-145500000D03*
X213500000Y-144500000D03*
X215000000Y-144399996D03*
X216800000Y-144400000D03*
X229000000Y-133000000D03*
X225000000Y-139000000D03*
X222000000Y-145000000D03*
G04 #@! TO.N,/SENS_ENA*
X225520000Y-141750000D03*
X219500000Y-138000000D03*
G04 #@! TO.N,/BAT_LO*
X208020000Y-130350000D03*
X219130000Y-133879990D03*
G04 #@! TO.N,/UART_TX*
X218350000Y-134980000D03*
X226000004Y-133000000D03*
G04 #@! TO.N,/UART_RX*
X217660000Y-135930000D03*
X225040021Y-135500168D03*
G04 #@! TO.N,/SWDIO*
X215750000Y-135500000D03*
G04 #@! TO.N,/SWCLK*
X214750000Y-134750000D03*
G04 #@! TD*
D22*
G04 #@! TO.N,/NRST*
X207825000Y-136200000D02*
X205400000Y-138625000D01*
X214678556Y-139272253D02*
X211606303Y-136200000D01*
X211606303Y-136200000D02*
X207825000Y-136200000D01*
X205400000Y-142260000D02*
X203250000Y-144410000D01*
X205400000Y-138625000D02*
X205400000Y-142260000D01*
G04 #@! TO.N,/I2C_SDA*
X225344315Y-142860000D02*
X225910000Y-142860000D01*
X221484315Y-139000000D02*
X225344315Y-142860000D01*
X217500000Y-138200000D02*
X218300000Y-139000000D01*
X218300000Y-139000000D02*
X221484315Y-139000000D01*
G04 #@! TO.N,/I2C_SCL*
X225320000Y-143820000D02*
X227470000Y-143820000D01*
X221000000Y-139500000D02*
X225320000Y-143820000D01*
X215360000Y-137400000D02*
X217460000Y-139500000D01*
X217460000Y-139500000D02*
X221000000Y-139500000D01*
G04 #@! TO.N,VDDA*
X238140000Y-134950000D02*
X238150000Y-134940000D01*
X238140000Y-139580000D02*
X238140000Y-134950000D01*
D23*
X241500000Y-147500000D02*
X241500000Y-143250000D01*
X250500000Y-147500000D02*
X250500000Y-143250000D01*
X232500000Y-147500000D02*
X236750000Y-143250000D01*
X235000000Y-141500000D02*
X234250000Y-141500000D01*
X236750000Y-143250000D02*
X235000000Y-141500000D01*
D22*
G04 #@! TO.N,/COMM_ENA*
X225035536Y-136999381D02*
X216925744Y-136999381D01*
X216925744Y-136999381D02*
X216835465Y-136909102D01*
G04 #@! TO.N,/SENS_ENA*
X221770000Y-138000000D02*
X220065685Y-138000000D01*
X225520000Y-141750000D02*
X221770000Y-138000000D01*
X220065685Y-138000000D02*
X219500000Y-138000000D01*
G04 #@! TO.N,/BAT_LO*
X208020000Y-130350000D02*
X211549990Y-133879990D01*
X218564315Y-133879990D02*
X219130000Y-133879990D01*
X211549990Y-133879990D02*
X218564315Y-133879990D01*
G04 #@! TO.N,/UART_TX*
X224020004Y-134980000D02*
X225600005Y-133399999D01*
X218350000Y-134980000D02*
X224020004Y-134980000D01*
X225600005Y-133399999D02*
X226000004Y-133000000D01*
G04 #@! TO.N,/UART_RX*
X224640022Y-135900167D02*
X225040021Y-135500168D01*
X224610189Y-135930000D02*
X224640022Y-135900167D01*
X217660000Y-135930000D02*
X224610189Y-135930000D01*
G04 #@! TO.N,/SWDIO*
X207500000Y-135500000D02*
X215750000Y-135500000D01*
X204800000Y-138200000D02*
X207500000Y-135500000D01*
X203250000Y-141870000D02*
X204800000Y-140320000D01*
X204800000Y-140320000D02*
X204800000Y-138200000D01*
G04 #@! TO.N,/SWCLK*
X205210000Y-136790000D02*
X203250000Y-136790000D01*
X214750000Y-134750000D02*
X207250000Y-134750000D01*
X207250000Y-134750000D02*
X205210000Y-136790000D01*
G04 #@! TD*
D24*
G04 #@! TO.N,VCC*
G36*
X231875000Y-145875000D02*
X210125000Y-145875000D01*
X210125000Y-144125000D01*
X224000000Y-144125000D01*
X224047835Y-144115485D01*
X224088388Y-144088388D01*
X224115485Y-144047835D01*
X224125000Y-144000000D01*
X224125000Y-143721016D01*
X224718019Y-144314035D01*
X224761256Y-144378744D01*
X224825965Y-144421981D01*
X225017610Y-144550034D01*
X225320000Y-144610183D01*
X225396330Y-144595000D01*
X226795431Y-144595000D01*
X226889384Y-144688953D01*
X227266115Y-144845000D01*
X227673885Y-144845000D01*
X228050616Y-144688953D01*
X228338953Y-144400616D01*
X228495000Y-144023885D01*
X228495000Y-143616115D01*
X228338953Y-143239384D01*
X228050616Y-142951047D01*
X227673885Y-142795000D01*
X227266115Y-142795000D01*
X226935000Y-142932152D01*
X226935000Y-142656115D01*
X226778953Y-142279384D01*
X226518187Y-142018618D01*
X226545000Y-141953885D01*
X226545000Y-141546115D01*
X226388953Y-141169384D01*
X226100616Y-140881047D01*
X225723885Y-140725000D01*
X225591016Y-140725000D01*
X224125000Y-139258984D01*
X224125000Y-137774381D01*
X224360967Y-137774381D01*
X224454920Y-137868334D01*
X224831651Y-138024381D01*
X225239421Y-138024381D01*
X225616152Y-137868334D01*
X225904489Y-137579997D01*
X226060536Y-137203266D01*
X226060536Y-136795496D01*
X225904489Y-136418765D01*
X225737741Y-136252017D01*
X225908974Y-136080784D01*
X226065021Y-135704053D01*
X226065021Y-135296283D01*
X225908974Y-134919552D01*
X225620637Y-134631215D01*
X225510447Y-134585573D01*
X226071020Y-134025000D01*
X226203889Y-134025000D01*
X226580620Y-133868953D01*
X226868957Y-133580616D01*
X227025004Y-133203885D01*
X227025004Y-132796115D01*
X226868957Y-132419384D01*
X226580620Y-132131047D01*
X226203889Y-131975000D01*
X225796119Y-131975000D01*
X225419388Y-132131047D01*
X225131051Y-132419384D01*
X224975004Y-132796115D01*
X224975004Y-132928984D01*
X224125000Y-133778989D01*
X224125000Y-131500000D01*
X224115485Y-131452165D01*
X224088388Y-131411612D01*
X224047835Y-131384515D01*
X224000000Y-131375000D01*
X220625000Y-131375000D01*
X220625000Y-129625000D01*
X231875000Y-129625000D01*
X231875000Y-145875000D01*
X231875000Y-145875000D01*
G37*
X231875000Y-145875000D02*
X210125000Y-145875000D01*
X210125000Y-144125000D01*
X224000000Y-144125000D01*
X224047835Y-144115485D01*
X224088388Y-144088388D01*
X224115485Y-144047835D01*
X224125000Y-144000000D01*
X224125000Y-143721016D01*
X224718019Y-144314035D01*
X224761256Y-144378744D01*
X224825965Y-144421981D01*
X225017610Y-144550034D01*
X225320000Y-144610183D01*
X225396330Y-144595000D01*
X226795431Y-144595000D01*
X226889384Y-144688953D01*
X227266115Y-144845000D01*
X227673885Y-144845000D01*
X228050616Y-144688953D01*
X228338953Y-144400616D01*
X228495000Y-144023885D01*
X228495000Y-143616115D01*
X228338953Y-143239384D01*
X228050616Y-142951047D01*
X227673885Y-142795000D01*
X227266115Y-142795000D01*
X226935000Y-142932152D01*
X226935000Y-142656115D01*
X226778953Y-142279384D01*
X226518187Y-142018618D01*
X226545000Y-141953885D01*
X226545000Y-141546115D01*
X226388953Y-141169384D01*
X226100616Y-140881047D01*
X225723885Y-140725000D01*
X225591016Y-140725000D01*
X224125000Y-139258984D01*
X224125000Y-137774381D01*
X224360967Y-137774381D01*
X224454920Y-137868334D01*
X224831651Y-138024381D01*
X225239421Y-138024381D01*
X225616152Y-137868334D01*
X225904489Y-137579997D01*
X226060536Y-137203266D01*
X226060536Y-136795496D01*
X225904489Y-136418765D01*
X225737741Y-136252017D01*
X225908974Y-136080784D01*
X226065021Y-135704053D01*
X226065021Y-135296283D01*
X225908974Y-134919552D01*
X225620637Y-134631215D01*
X225510447Y-134585573D01*
X226071020Y-134025000D01*
X226203889Y-134025000D01*
X226580620Y-133868953D01*
X226868957Y-133580616D01*
X227025004Y-133203885D01*
X227025004Y-132796115D01*
X226868957Y-132419384D01*
X226580620Y-132131047D01*
X226203889Y-131975000D01*
X225796119Y-131975000D01*
X225419388Y-132131047D01*
X225131051Y-132419384D01*
X224975004Y-132796115D01*
X224975004Y-132928984D01*
X224125000Y-133778989D01*
X224125000Y-131500000D01*
X224115485Y-131452165D01*
X224088388Y-131411612D01*
X224047835Y-131384515D01*
X224000000Y-131375000D01*
X220625000Y-131375000D01*
X220625000Y-129625000D01*
X231875000Y-129625000D01*
X231875000Y-145875000D01*
G04 #@! TO.N,GND*
G36*
X253781062Y-97658659D02*
X253478659Y-97961062D01*
X253315000Y-98356169D01*
X253315000Y-98783831D01*
X253478659Y-99178938D01*
X253781062Y-99481341D01*
X254176169Y-99645000D01*
X254603831Y-99645000D01*
X254998938Y-99481341D01*
X255301341Y-99178938D01*
X255465000Y-98783831D01*
X255465000Y-98356169D01*
X255301341Y-97961062D01*
X254998938Y-97658659D01*
X254917678Y-97625000D01*
X266375000Y-97625000D01*
X266375000Y-151375000D01*
X192625000Y-151375000D01*
X192625000Y-149509184D01*
X198467592Y-149509184D01*
X198580371Y-149703147D01*
X199095574Y-149886953D01*
X199641899Y-149859608D01*
X200019629Y-149703147D01*
X200132408Y-149509184D01*
X199300000Y-148676777D01*
X198467592Y-149509184D01*
X192625000Y-149509184D01*
X192625000Y-148295574D01*
X197913047Y-148295574D01*
X197940392Y-148841899D01*
X198096853Y-149219629D01*
X198290816Y-149332408D01*
X199123223Y-148500000D01*
X199476777Y-148500000D01*
X200309184Y-149332408D01*
X200503147Y-149219629D01*
X200686953Y-148704426D01*
X200659608Y-148158101D01*
X200503147Y-147780371D01*
X200309184Y-147667592D01*
X199476777Y-148500000D01*
X199123223Y-148500000D01*
X198290816Y-147667592D01*
X198096853Y-147780371D01*
X197913047Y-148295574D01*
X192625000Y-148295574D01*
X192625000Y-147490816D01*
X198467592Y-147490816D01*
X199300000Y-148323223D01*
X200123223Y-147500000D01*
X210617654Y-147500000D01*
X210617654Y-149500000D01*
X210646758Y-149646317D01*
X210729641Y-149770359D01*
X210853683Y-149853242D01*
X211000000Y-149882346D01*
X213000000Y-149882346D01*
X213146317Y-149853242D01*
X213270359Y-149770359D01*
X213353242Y-149646317D01*
X213382346Y-149500000D01*
X213382346Y-148336626D01*
X227840151Y-148336626D01*
X227923695Y-148505878D01*
X228352497Y-148649852D01*
X228803754Y-148618772D01*
X229076305Y-148505878D01*
X229159849Y-148336626D01*
X228500000Y-147676777D01*
X227840151Y-148336626D01*
X213382346Y-148336626D01*
X213382346Y-147500000D01*
X213353242Y-147353683D01*
X213352450Y-147352497D01*
X227350148Y-147352497D01*
X227381228Y-147803754D01*
X227494122Y-148076305D01*
X227663374Y-148159849D01*
X228323223Y-147500000D01*
X227663374Y-146840151D01*
X227494122Y-146923695D01*
X227350148Y-147352497D01*
X213352450Y-147352497D01*
X213270359Y-147229641D01*
X213146317Y-147146758D01*
X213000000Y-147117654D01*
X211000000Y-147117654D01*
X210853683Y-147146758D01*
X210729641Y-147229641D01*
X210646758Y-147353683D01*
X210617654Y-147500000D01*
X200123223Y-147500000D01*
X200132408Y-147490816D01*
X200019629Y-147296853D01*
X199504426Y-147113047D01*
X198958101Y-147140392D01*
X198580371Y-147296853D01*
X198467592Y-147490816D01*
X192625000Y-147490816D01*
X192625000Y-143607148D01*
X195025000Y-143607148D01*
X195025000Y-144392852D01*
X195325675Y-145118748D01*
X195881252Y-145674325D01*
X196607148Y-145975000D01*
X197392852Y-145975000D01*
X198118748Y-145674325D01*
X198674325Y-145118748D01*
X198975000Y-144392852D01*
X198975000Y-143607148D01*
X198674325Y-142881252D01*
X198118748Y-142325675D01*
X197392852Y-142025000D01*
X196607148Y-142025000D01*
X195881252Y-142325675D01*
X195325675Y-142881252D01*
X195025000Y-143607148D01*
X192625000Y-143607148D01*
X192625000Y-139644093D01*
X202065951Y-139644093D01*
X202190645Y-139945157D01*
X202506694Y-140303729D01*
X202935905Y-140514059D01*
X203125000Y-140454867D01*
X203125000Y-139455000D01*
X202125677Y-139455000D01*
X202065951Y-139644093D01*
X192625000Y-139644093D01*
X192625000Y-139015907D01*
X202065951Y-139015907D01*
X202125677Y-139205000D01*
X203125000Y-139205000D01*
X203125000Y-138205133D01*
X202935905Y-138145941D01*
X202506694Y-138356271D01*
X202190645Y-138714843D01*
X202065951Y-139015907D01*
X192625000Y-139015907D01*
X192625000Y-136790000D01*
X202001001Y-136790000D01*
X202096075Y-137267971D01*
X202366824Y-137673176D01*
X202772029Y-137943925D01*
X203129348Y-138015000D01*
X203370652Y-138015000D01*
X203727971Y-137943925D01*
X204133176Y-137673176D01*
X204372501Y-137315000D01*
X204942539Y-137315000D01*
X204465334Y-137792205D01*
X204421497Y-137821496D01*
X204339693Y-137943925D01*
X204305461Y-137995156D01*
X204264715Y-138200000D01*
X204275001Y-138251711D01*
X204275001Y-138675867D01*
X203993306Y-138356271D01*
X203564095Y-138145941D01*
X203375000Y-138205133D01*
X203375000Y-139205000D01*
X203395000Y-139205000D01*
X203395000Y-139455000D01*
X203375000Y-139455000D01*
X203375000Y-140454867D01*
X203564095Y-140514059D01*
X203993306Y-140303729D01*
X204275000Y-139984134D01*
X204275000Y-140102538D01*
X203672498Y-140705041D01*
X203370652Y-140645000D01*
X203129348Y-140645000D01*
X202772029Y-140716075D01*
X202366824Y-140986824D01*
X202096075Y-141392029D01*
X202001001Y-141870000D01*
X202096075Y-142347971D01*
X202366824Y-142753176D01*
X202772029Y-143023925D01*
X203129348Y-143095000D01*
X203370652Y-143095000D01*
X203727971Y-143023925D01*
X204133176Y-142753176D01*
X204403925Y-142347971D01*
X204498999Y-141870000D01*
X204414959Y-141447502D01*
X204875001Y-140987461D01*
X204875001Y-142042537D01*
X203672498Y-143245041D01*
X203370652Y-143185000D01*
X203129348Y-143185000D01*
X202772029Y-143256075D01*
X202366824Y-143526824D01*
X202096075Y-143932029D01*
X202001001Y-144410000D01*
X202096075Y-144887971D01*
X202366824Y-145293176D01*
X202772029Y-145563925D01*
X203129348Y-145635000D01*
X203370652Y-145635000D01*
X203727971Y-145563925D01*
X204133176Y-145293176D01*
X204403925Y-144887971D01*
X204498999Y-144410000D01*
X204414959Y-143987502D01*
X205734667Y-142667795D01*
X205778504Y-142638504D01*
X205894539Y-142464845D01*
X205920367Y-142335000D01*
X205935285Y-142260001D01*
X205925000Y-142208295D01*
X205925000Y-140338071D01*
X206219706Y-141049554D01*
X206810446Y-141640294D01*
X207582284Y-141960000D01*
X208417716Y-141960000D01*
X209189554Y-141640294D01*
X209780294Y-141049554D01*
X210100000Y-140277716D01*
X210100000Y-139442284D01*
X209780294Y-138670446D01*
X209189554Y-138079706D01*
X208417716Y-137760000D01*
X207582284Y-137760000D01*
X206810446Y-138079706D01*
X206219706Y-138670446D01*
X205925000Y-139381929D01*
X205925000Y-138842461D01*
X208042462Y-136725000D01*
X211388842Y-136725000D01*
X213903556Y-139239715D01*
X213903556Y-139426410D01*
X214021543Y-139711255D01*
X214239554Y-139929266D01*
X214524399Y-140047253D01*
X214832713Y-140047253D01*
X215117558Y-139929266D01*
X215335569Y-139711255D01*
X215453556Y-139426410D01*
X215453556Y-139118096D01*
X215335569Y-138833251D01*
X215117558Y-138615240D01*
X214832713Y-138497253D01*
X214646018Y-138497253D01*
X212173764Y-136025000D01*
X215178985Y-136025000D01*
X215310998Y-136157013D01*
X215595843Y-136275000D01*
X215904157Y-136275000D01*
X216189002Y-136157013D01*
X216407013Y-135939002D01*
X216525000Y-135654157D01*
X216525000Y-135345843D01*
X216407013Y-135060998D01*
X216189002Y-134842987D01*
X215904157Y-134725000D01*
X215595843Y-134725000D01*
X215525000Y-134754344D01*
X215525000Y-134595843D01*
X215445946Y-134404990D01*
X217828995Y-134404990D01*
X217692987Y-134540998D01*
X217575000Y-134825843D01*
X217575000Y-135134157D01*
X217583633Y-135155000D01*
X217505843Y-135155000D01*
X217220998Y-135272987D01*
X217002987Y-135490998D01*
X216885000Y-135775843D01*
X216885000Y-136084157D01*
X216905688Y-136134102D01*
X216681308Y-136134102D01*
X216396463Y-136252089D01*
X216178452Y-136470100D01*
X216060465Y-136754945D01*
X216060465Y-137063259D01*
X216178452Y-137348104D01*
X216396463Y-137566115D01*
X216681308Y-137684102D01*
X216919883Y-137684102D01*
X216842987Y-137760998D01*
X216731826Y-138029364D01*
X216135000Y-137432539D01*
X216135000Y-137245843D01*
X216017013Y-136960998D01*
X215799002Y-136742987D01*
X215514157Y-136625000D01*
X215205843Y-136625000D01*
X214920998Y-136742987D01*
X214702987Y-136960998D01*
X214585000Y-137245843D01*
X214585000Y-137554157D01*
X214702987Y-137839002D01*
X214920998Y-138057013D01*
X215205843Y-138175000D01*
X215392539Y-138175000D01*
X217052205Y-139834667D01*
X217081496Y-139878504D01*
X217255155Y-139994539D01*
X217408294Y-140025000D01*
X217459999Y-140035285D01*
X217511704Y-140025000D01*
X220782539Y-140025000D01*
X223375000Y-142617462D01*
X223375000Y-143375000D01*
X209500000Y-143375000D01*
X209452165Y-143384515D01*
X209411612Y-143411612D01*
X209384515Y-143452165D01*
X209375000Y-143500000D01*
X209375000Y-146500000D01*
X209384515Y-146547835D01*
X209411612Y-146588388D01*
X209452165Y-146615485D01*
X209500000Y-146625000D01*
X227859093Y-146625000D01*
X227840151Y-146663374D01*
X228500000Y-147323223D01*
X229159849Y-146663374D01*
X229140907Y-146625000D01*
X229713299Y-146625000D01*
X229503883Y-146834416D01*
X229473519Y-146907722D01*
X229336626Y-146840151D01*
X228676777Y-147500000D01*
X229336626Y-148159849D01*
X229473519Y-148092278D01*
X229503883Y-148165584D01*
X229834416Y-148496117D01*
X230266278Y-148675000D01*
X230733722Y-148675000D01*
X231165584Y-148496117D01*
X231496117Y-148165584D01*
X231500000Y-148156210D01*
X231503883Y-148165584D01*
X231834416Y-148496117D01*
X232266278Y-148675000D01*
X232733722Y-148675000D01*
X233165584Y-148496117D01*
X233325075Y-148336626D01*
X236840151Y-148336626D01*
X236923695Y-148505878D01*
X237352497Y-148649852D01*
X237803754Y-148618772D01*
X238076305Y-148505878D01*
X238159849Y-148336626D01*
X237500000Y-147676777D01*
X236840151Y-148336626D01*
X233325075Y-148336626D01*
X233496117Y-148165584D01*
X233675000Y-147733722D01*
X233675000Y-147421015D01*
X233743518Y-147352497D01*
X236350148Y-147352497D01*
X236381228Y-147803754D01*
X236494122Y-148076305D01*
X236663374Y-148159849D01*
X237323223Y-147500000D01*
X237676777Y-147500000D01*
X238336626Y-148159849D01*
X238473519Y-148092278D01*
X238503883Y-148165584D01*
X238834416Y-148496117D01*
X239266278Y-148675000D01*
X239733722Y-148675000D01*
X240165584Y-148496117D01*
X240496117Y-148165584D01*
X240500000Y-148156210D01*
X240503883Y-148165584D01*
X240834416Y-148496117D01*
X241266278Y-148675000D01*
X241733722Y-148675000D01*
X242165584Y-148496117D01*
X242325075Y-148336626D01*
X245840151Y-148336626D01*
X245923695Y-148505878D01*
X246352497Y-148649852D01*
X246803754Y-148618772D01*
X247076305Y-148505878D01*
X247159849Y-148336626D01*
X246500000Y-147676777D01*
X245840151Y-148336626D01*
X242325075Y-148336626D01*
X242496117Y-148165584D01*
X242675000Y-147733722D01*
X242675000Y-147352497D01*
X245350148Y-147352497D01*
X245381228Y-147803754D01*
X245494122Y-148076305D01*
X245663374Y-148159849D01*
X246323223Y-147500000D01*
X246676777Y-147500000D01*
X247336626Y-148159849D01*
X247473519Y-148092278D01*
X247503883Y-148165584D01*
X247834416Y-148496117D01*
X248266278Y-148675000D01*
X248733722Y-148675000D01*
X249165584Y-148496117D01*
X249496117Y-148165584D01*
X249500000Y-148156210D01*
X249503883Y-148165584D01*
X249834416Y-148496117D01*
X250266278Y-148675000D01*
X250733722Y-148675000D01*
X251165584Y-148496117D01*
X251325075Y-148336626D01*
X254800151Y-148336626D01*
X254883695Y-148505878D01*
X255312497Y-148649852D01*
X255763754Y-148618772D01*
X256036305Y-148505878D01*
X256119849Y-148336626D01*
X255460000Y-147676777D01*
X254800151Y-148336626D01*
X251325075Y-148336626D01*
X251496117Y-148165584D01*
X251675000Y-147733722D01*
X251675000Y-147352497D01*
X254310148Y-147352497D01*
X254341228Y-147803754D01*
X254454122Y-148076305D01*
X254623374Y-148159849D01*
X255283223Y-147500000D01*
X255636777Y-147500000D01*
X256296626Y-148159849D01*
X256433519Y-148092278D01*
X256463883Y-148165584D01*
X256794416Y-148496117D01*
X257226278Y-148675000D01*
X257693722Y-148675000D01*
X258125584Y-148496117D01*
X258456117Y-148165584D01*
X258460000Y-148156210D01*
X258463883Y-148165584D01*
X258794416Y-148496117D01*
X259226278Y-148675000D01*
X259693722Y-148675000D01*
X260125584Y-148496117D01*
X260456117Y-148165584D01*
X260635000Y-147733722D01*
X260635000Y-147266278D01*
X260456117Y-146834416D01*
X260125584Y-146503883D01*
X259693722Y-146325000D01*
X259226278Y-146325000D01*
X258794416Y-146503883D01*
X258463883Y-146834416D01*
X258460000Y-146843790D01*
X258456117Y-146834416D01*
X258125584Y-146503883D01*
X257693722Y-146325000D01*
X257226278Y-146325000D01*
X256794416Y-146503883D01*
X256463883Y-146834416D01*
X256433519Y-146907722D01*
X256296626Y-146840151D01*
X255636777Y-147500000D01*
X255283223Y-147500000D01*
X254623374Y-146840151D01*
X254454122Y-146923695D01*
X254310148Y-147352497D01*
X251675000Y-147352497D01*
X251675000Y-147266278D01*
X251496117Y-146834416D01*
X251325075Y-146663374D01*
X254800151Y-146663374D01*
X255460000Y-147323223D01*
X256119849Y-146663374D01*
X256036305Y-146494122D01*
X255607503Y-146350148D01*
X255156246Y-146381228D01*
X254883695Y-146494122D01*
X254800151Y-146663374D01*
X251325075Y-146663374D01*
X251275000Y-146613299D01*
X251275000Y-143095843D01*
X251245217Y-143023941D01*
X251230034Y-142947610D01*
X251186795Y-142882899D01*
X251157013Y-142810998D01*
X251101983Y-142755968D01*
X251058744Y-142691256D01*
X250994032Y-142648017D01*
X250939002Y-142592987D01*
X250867101Y-142563205D01*
X250802390Y-142519966D01*
X250726059Y-142504783D01*
X250654157Y-142475000D01*
X250576330Y-142475000D01*
X250500000Y-142459817D01*
X250423670Y-142475000D01*
X250345843Y-142475000D01*
X250273940Y-142504783D01*
X250197611Y-142519966D01*
X250132901Y-142563204D01*
X250060998Y-142592987D01*
X250005966Y-142648019D01*
X249941257Y-142691256D01*
X249898020Y-142755965D01*
X249842987Y-142810998D01*
X249813203Y-142882903D01*
X249769967Y-142947610D01*
X249754785Y-143023936D01*
X249725000Y-143095843D01*
X249725000Y-143404157D01*
X249725001Y-143404159D01*
X249725000Y-146613299D01*
X249503883Y-146834416D01*
X249500000Y-146843790D01*
X249496117Y-146834416D01*
X249165584Y-146503883D01*
X248733722Y-146325000D01*
X248266278Y-146325000D01*
X247834416Y-146503883D01*
X247503883Y-146834416D01*
X247473519Y-146907722D01*
X247336626Y-146840151D01*
X246676777Y-147500000D01*
X246323223Y-147500000D01*
X245663374Y-146840151D01*
X245494122Y-146923695D01*
X245350148Y-147352497D01*
X242675000Y-147352497D01*
X242675000Y-147266278D01*
X242496117Y-146834416D01*
X242325075Y-146663374D01*
X245840151Y-146663374D01*
X246500000Y-147323223D01*
X247159849Y-146663374D01*
X247076305Y-146494122D01*
X246647503Y-146350148D01*
X246196246Y-146381228D01*
X245923695Y-146494122D01*
X245840151Y-146663374D01*
X242325075Y-146663374D01*
X242275000Y-146613299D01*
X242275000Y-143095843D01*
X242245217Y-143023941D01*
X242230034Y-142947610D01*
X242186795Y-142882899D01*
X242157013Y-142810998D01*
X242101983Y-142755968D01*
X242058744Y-142691256D01*
X241994032Y-142648017D01*
X241939002Y-142592987D01*
X241867101Y-142563205D01*
X241802390Y-142519966D01*
X241726059Y-142504783D01*
X241654157Y-142475000D01*
X241576330Y-142475000D01*
X241500000Y-142459817D01*
X241423670Y-142475000D01*
X241345843Y-142475000D01*
X241273940Y-142504783D01*
X241197611Y-142519966D01*
X241132901Y-142563204D01*
X241060998Y-142592987D01*
X241005966Y-142648019D01*
X240941257Y-142691256D01*
X240898020Y-142755965D01*
X240842987Y-142810998D01*
X240813203Y-142882903D01*
X240769967Y-142947610D01*
X240754785Y-143023936D01*
X240725000Y-143095843D01*
X240725000Y-143404157D01*
X240725001Y-143404159D01*
X240725000Y-146613299D01*
X240503883Y-146834416D01*
X240500000Y-146843790D01*
X240496117Y-146834416D01*
X240165584Y-146503883D01*
X239733722Y-146325000D01*
X239266278Y-146325000D01*
X238834416Y-146503883D01*
X238503883Y-146834416D01*
X238473519Y-146907722D01*
X238336626Y-146840151D01*
X237676777Y-147500000D01*
X237323223Y-147500000D01*
X236663374Y-146840151D01*
X236494122Y-146923695D01*
X236350148Y-147352497D01*
X233743518Y-147352497D01*
X234432641Y-146663374D01*
X236840151Y-146663374D01*
X237500000Y-147323223D01*
X238159849Y-146663374D01*
X238076305Y-146494122D01*
X237647503Y-146350148D01*
X237196246Y-146381228D01*
X236923695Y-146494122D01*
X236840151Y-146663374D01*
X234432641Y-146663374D01*
X237244038Y-143851978D01*
X237308743Y-143808743D01*
X237351978Y-143744038D01*
X237351981Y-143744035D01*
X237351983Y-143744032D01*
X237407013Y-143689002D01*
X237436795Y-143617101D01*
X237480034Y-143552390D01*
X237495217Y-143476059D01*
X237525000Y-143404157D01*
X237525000Y-143326330D01*
X237540183Y-143250000D01*
X237525000Y-143173670D01*
X237525000Y-143095843D01*
X237495217Y-143023941D01*
X237480034Y-142947610D01*
X237436795Y-142882899D01*
X237407013Y-142810998D01*
X237351983Y-142755968D01*
X237308744Y-142691256D01*
X237244035Y-142648019D01*
X235601983Y-141005968D01*
X235558744Y-140941256D01*
X235302390Y-140769966D01*
X235076330Y-140725000D01*
X235000000Y-140709817D01*
X234923670Y-140725000D01*
X234095843Y-140725000D01*
X234023941Y-140754783D01*
X233947610Y-140769966D01*
X233882899Y-140813205D01*
X233810998Y-140842987D01*
X233755968Y-140898017D01*
X233691256Y-140941256D01*
X233648017Y-141005968D01*
X233592987Y-141060998D01*
X233563205Y-141132899D01*
X233519966Y-141197610D01*
X233504783Y-141273941D01*
X233475000Y-141345843D01*
X233475000Y-141423670D01*
X233459817Y-141500000D01*
X233475000Y-141576330D01*
X233475000Y-141654157D01*
X233504783Y-141726059D01*
X233519966Y-141802390D01*
X233563205Y-141867101D01*
X233592987Y-141939002D01*
X233648017Y-141994032D01*
X233691256Y-142058744D01*
X233755968Y-142101983D01*
X233810998Y-142157013D01*
X233882899Y-142186795D01*
X233947610Y-142230034D01*
X234023941Y-142245217D01*
X234095843Y-142275000D01*
X234678985Y-142275000D01*
X235653984Y-143250000D01*
X232625000Y-146278985D01*
X232625000Y-140426742D01*
X240631715Y-140426742D01*
X240631715Y-140573256D01*
X240707835Y-140955939D01*
X240763903Y-141091300D01*
X240763905Y-141091302D01*
X240980675Y-141415721D01*
X240980676Y-141415724D01*
X241084276Y-141519324D01*
X241084279Y-141519325D01*
X241408700Y-141736097D01*
X241544061Y-141792165D01*
X241926744Y-141868285D01*
X241926746Y-141868285D01*
X241963019Y-141875500D01*
X249036981Y-141875500D01*
X249073254Y-141868285D01*
X249073256Y-141868285D01*
X249455939Y-141792165D01*
X249591300Y-141736097D01*
X249591302Y-141736095D01*
X249915721Y-141519325D01*
X249915724Y-141519324D01*
X250019324Y-141415724D01*
X250019325Y-141415721D01*
X250236097Y-141091300D01*
X250292165Y-140955939D01*
X250368285Y-140573256D01*
X250368285Y-140426742D01*
X250292165Y-140044061D01*
X250236097Y-139908700D01*
X250019324Y-139584277D01*
X250019324Y-139584276D01*
X249915724Y-139480676D01*
X249915721Y-139480675D01*
X249591302Y-139263905D01*
X249591300Y-139263903D01*
X249455939Y-139207835D01*
X249073256Y-139131715D01*
X249073254Y-139131715D01*
X249036981Y-139124500D01*
X241963019Y-139124500D01*
X241926746Y-139131715D01*
X241926744Y-139131715D01*
X241544061Y-139207835D01*
X241408700Y-139263903D01*
X241084279Y-139480675D01*
X241084276Y-139480676D01*
X240980676Y-139584276D01*
X240980676Y-139584277D01*
X240763905Y-139908698D01*
X240763903Y-139908700D01*
X240707835Y-140044061D01*
X240631715Y-140426742D01*
X232625000Y-140426742D01*
X232625000Y-139425843D01*
X237365000Y-139425843D01*
X237365000Y-139734157D01*
X237482987Y-140019002D01*
X237700998Y-140237013D01*
X237985843Y-140355000D01*
X238294157Y-140355000D01*
X238579002Y-140237013D01*
X238797013Y-140019002D01*
X238915000Y-139734157D01*
X238915000Y-139425843D01*
X238797013Y-139140998D01*
X238665000Y-139008985D01*
X238665000Y-137607148D01*
X258025000Y-137607148D01*
X258025000Y-138392852D01*
X258325675Y-139118748D01*
X258881252Y-139674325D01*
X259607148Y-139975000D01*
X260392852Y-139975000D01*
X261118748Y-139674325D01*
X261674325Y-139118748D01*
X261975000Y-138392852D01*
X261975000Y-137607148D01*
X261674325Y-136881252D01*
X261118748Y-136325675D01*
X260392852Y-136025000D01*
X259607148Y-136025000D01*
X258881252Y-136325675D01*
X258325675Y-136881252D01*
X258025000Y-137607148D01*
X238665000Y-137607148D01*
X238665000Y-135521015D01*
X238807013Y-135379002D01*
X238925000Y-135094157D01*
X238925000Y-134785843D01*
X238807013Y-134500998D01*
X238589002Y-134282987D01*
X238304157Y-134165000D01*
X237995843Y-134165000D01*
X237710998Y-134282987D01*
X237492987Y-134500998D01*
X237375000Y-134785843D01*
X237375000Y-135094157D01*
X237492987Y-135379002D01*
X237615001Y-135501016D01*
X237615000Y-139008985D01*
X237482987Y-139140998D01*
X237365000Y-139425843D01*
X232625000Y-139425843D01*
X232625000Y-133926742D01*
X240631715Y-133926742D01*
X240631715Y-134073256D01*
X240707835Y-134455939D01*
X240763903Y-134591300D01*
X240763905Y-134591302D01*
X240980675Y-134915721D01*
X240980676Y-134915724D01*
X241084276Y-135019324D01*
X241084279Y-135019325D01*
X241408700Y-135236097D01*
X241544061Y-135292165D01*
X241926744Y-135368285D01*
X241926746Y-135368285D01*
X241963019Y-135375500D01*
X249036981Y-135375500D01*
X249073254Y-135368285D01*
X249073256Y-135368285D01*
X249455939Y-135292165D01*
X249591300Y-135236097D01*
X249591302Y-135236095D01*
X249915721Y-135019325D01*
X249915724Y-135019324D01*
X250019324Y-134915724D01*
X250019325Y-134915721D01*
X250236097Y-134591300D01*
X250292165Y-134455939D01*
X250368285Y-134073256D01*
X250368285Y-133926742D01*
X250292165Y-133544061D01*
X250236097Y-133408700D01*
X250019324Y-133084277D01*
X250019324Y-133084276D01*
X249915724Y-132980676D01*
X249915721Y-132980675D01*
X249591302Y-132763905D01*
X249591300Y-132763903D01*
X249455939Y-132707835D01*
X249073256Y-132631715D01*
X249073254Y-132631715D01*
X249036981Y-132624500D01*
X241963019Y-132624500D01*
X241926746Y-132631715D01*
X241926744Y-132631715D01*
X241544061Y-132707835D01*
X241408700Y-132763903D01*
X241084279Y-132980675D01*
X241084276Y-132980676D01*
X240980676Y-133084276D01*
X240980676Y-133084277D01*
X240763905Y-133408698D01*
X240763903Y-133408700D01*
X240707835Y-133544061D01*
X240631715Y-133926742D01*
X232625000Y-133926742D01*
X232625000Y-129000000D01*
X232615485Y-128952165D01*
X232588388Y-128911612D01*
X232547835Y-128884515D01*
X232500000Y-128875000D01*
X220000000Y-128875000D01*
X219952165Y-128884515D01*
X219911612Y-128911612D01*
X219884515Y-128952165D01*
X219875000Y-129000000D01*
X219875000Y-132000000D01*
X219884515Y-132047835D01*
X219911612Y-132088388D01*
X219952165Y-132115485D01*
X220000000Y-132125000D01*
X223375000Y-132125000D01*
X223375000Y-134455000D01*
X219651005Y-134455000D01*
X219787013Y-134318992D01*
X219905000Y-134034147D01*
X219905000Y-133725833D01*
X219787013Y-133440988D01*
X219569002Y-133222977D01*
X219284157Y-133104990D01*
X218975843Y-133104990D01*
X218690998Y-133222977D01*
X218558985Y-133354990D01*
X211767452Y-133354990D01*
X208795000Y-130382539D01*
X208795000Y-130195843D01*
X208677013Y-129910998D01*
X208459002Y-129692987D01*
X208174157Y-129575000D01*
X207865843Y-129575000D01*
X207580998Y-129692987D01*
X207362987Y-129910998D01*
X207245000Y-130195843D01*
X207245000Y-130504157D01*
X207362987Y-130789002D01*
X207580998Y-131007013D01*
X207865843Y-131125000D01*
X208052539Y-131125000D01*
X211142195Y-134214657D01*
X211149106Y-134225000D01*
X207301706Y-134225000D01*
X207250000Y-134214715D01*
X207045155Y-134255461D01*
X206871496Y-134371496D01*
X206842205Y-134415333D01*
X204992539Y-136265000D01*
X204372501Y-136265000D01*
X204133176Y-135906824D01*
X203727971Y-135636075D01*
X203370652Y-135565000D01*
X203129348Y-135565000D01*
X202772029Y-135636075D01*
X202366824Y-135906824D01*
X202096075Y-136312029D01*
X202001001Y-136790000D01*
X192625000Y-136790000D01*
X192625000Y-133400000D01*
X202017654Y-133400000D01*
X202017654Y-135100000D01*
X202046758Y-135246317D01*
X202129641Y-135370359D01*
X202253683Y-135453242D01*
X202400000Y-135482346D01*
X204100000Y-135482346D01*
X204246317Y-135453242D01*
X204370359Y-135370359D01*
X204453242Y-135246317D01*
X204482346Y-135100000D01*
X204482346Y-133400000D01*
X204453242Y-133253683D01*
X204370359Y-133129641D01*
X204246317Y-133046758D01*
X204100000Y-133017654D01*
X202400000Y-133017654D01*
X202253683Y-133046758D01*
X202129641Y-133129641D01*
X202046758Y-133253683D01*
X202017654Y-133400000D01*
X192625000Y-133400000D01*
X192625000Y-117325000D01*
X200867654Y-117325000D01*
X200867654Y-119075000D01*
X200963364Y-119556165D01*
X201235922Y-119964078D01*
X201643835Y-120236636D01*
X202125000Y-120332346D01*
X203875000Y-120332346D01*
X204356165Y-120236636D01*
X204764078Y-119964078D01*
X205036636Y-119556165D01*
X205132346Y-119075000D01*
X205132346Y-117325000D01*
X205036636Y-116843835D01*
X204764078Y-116435922D01*
X204510188Y-116266278D01*
X211825000Y-116266278D01*
X211825000Y-116733722D01*
X212003883Y-117165584D01*
X212334416Y-117496117D01*
X212766278Y-117675000D01*
X213233722Y-117675000D01*
X213665584Y-117496117D01*
X213996117Y-117165584D01*
X214000000Y-117156210D01*
X214003883Y-117165584D01*
X214334416Y-117496117D01*
X214766278Y-117675000D01*
X215233722Y-117675000D01*
X215665584Y-117496117D01*
X215996117Y-117165584D01*
X216175000Y-116733722D01*
X216175000Y-116266278D01*
X218825000Y-116266278D01*
X218825000Y-116733722D01*
X219003883Y-117165584D01*
X219334416Y-117496117D01*
X219766278Y-117675000D01*
X220233722Y-117675000D01*
X220665584Y-117496117D01*
X220996117Y-117165584D01*
X221000000Y-117156210D01*
X221003883Y-117165584D01*
X221334416Y-117496117D01*
X221766278Y-117675000D01*
X222233722Y-117675000D01*
X222665584Y-117496117D01*
X222996117Y-117165584D01*
X223175000Y-116733722D01*
X223175000Y-116266278D01*
X225825000Y-116266278D01*
X225825000Y-116733722D01*
X226003883Y-117165584D01*
X226334416Y-117496117D01*
X226766278Y-117675000D01*
X227233722Y-117675000D01*
X227665584Y-117496117D01*
X227996117Y-117165584D01*
X228000000Y-117156210D01*
X228003883Y-117165584D01*
X228334416Y-117496117D01*
X228766278Y-117675000D01*
X229233722Y-117675000D01*
X229665584Y-117496117D01*
X229996117Y-117165584D01*
X230175000Y-116733722D01*
X230175000Y-116266278D01*
X232825000Y-116266278D01*
X232825000Y-116733722D01*
X233003883Y-117165584D01*
X233334416Y-117496117D01*
X233766278Y-117675000D01*
X234233722Y-117675000D01*
X234665584Y-117496117D01*
X234996117Y-117165584D01*
X235000000Y-117156210D01*
X235003883Y-117165584D01*
X235334416Y-117496117D01*
X235766278Y-117675000D01*
X236233722Y-117675000D01*
X236665584Y-117496117D01*
X236996117Y-117165584D01*
X237175000Y-116733722D01*
X237175000Y-116266278D01*
X236996117Y-115834416D01*
X236665584Y-115503883D01*
X236233722Y-115325000D01*
X235766278Y-115325000D01*
X235334416Y-115503883D01*
X235003883Y-115834416D01*
X235000000Y-115843790D01*
X234996117Y-115834416D01*
X234665584Y-115503883D01*
X234233722Y-115325000D01*
X233766278Y-115325000D01*
X233334416Y-115503883D01*
X233003883Y-115834416D01*
X232825000Y-116266278D01*
X230175000Y-116266278D01*
X229996117Y-115834416D01*
X229665584Y-115503883D01*
X229233722Y-115325000D01*
X228766278Y-115325000D01*
X228334416Y-115503883D01*
X228003883Y-115834416D01*
X228000000Y-115843790D01*
X227996117Y-115834416D01*
X227665584Y-115503883D01*
X227233722Y-115325000D01*
X226766278Y-115325000D01*
X226334416Y-115503883D01*
X226003883Y-115834416D01*
X225825000Y-116266278D01*
X223175000Y-116266278D01*
X222996117Y-115834416D01*
X222665584Y-115503883D01*
X222233722Y-115325000D01*
X221766278Y-115325000D01*
X221334416Y-115503883D01*
X221003883Y-115834416D01*
X221000000Y-115843790D01*
X220996117Y-115834416D01*
X220665584Y-115503883D01*
X220233722Y-115325000D01*
X219766278Y-115325000D01*
X219334416Y-115503883D01*
X219003883Y-115834416D01*
X218825000Y-116266278D01*
X216175000Y-116266278D01*
X215996117Y-115834416D01*
X215665584Y-115503883D01*
X215233722Y-115325000D01*
X214766278Y-115325000D01*
X214334416Y-115503883D01*
X214003883Y-115834416D01*
X214000000Y-115843790D01*
X213996117Y-115834416D01*
X213665584Y-115503883D01*
X213233722Y-115325000D01*
X212766278Y-115325000D01*
X212334416Y-115503883D01*
X212003883Y-115834416D01*
X211825000Y-116266278D01*
X204510188Y-116266278D01*
X204356165Y-116163364D01*
X203875000Y-116067654D01*
X202125000Y-116067654D01*
X201643835Y-116163364D01*
X201235922Y-116435922D01*
X200963364Y-116843835D01*
X200867654Y-117325000D01*
X192625000Y-117325000D01*
X192625000Y-113718750D01*
X198125000Y-113718750D01*
X198125000Y-115324592D01*
X198182090Y-115462421D01*
X198287580Y-115567910D01*
X198425408Y-115625000D01*
X199781250Y-115625000D01*
X199875000Y-115531250D01*
X199875000Y-113625000D01*
X200125000Y-113625000D01*
X200125000Y-115531250D01*
X200218750Y-115625000D01*
X201574592Y-115625000D01*
X201712420Y-115567910D01*
X201817910Y-115462421D01*
X201875000Y-115324592D01*
X201875000Y-113718750D01*
X201781250Y-113625000D01*
X200125000Y-113625000D01*
X199875000Y-113625000D01*
X198218750Y-113625000D01*
X198125000Y-113718750D01*
X192625000Y-113718750D01*
X192625000Y-111675408D01*
X198125000Y-111675408D01*
X198125000Y-113281250D01*
X198218750Y-113375000D01*
X199875000Y-113375000D01*
X199875000Y-111468750D01*
X200125000Y-111468750D01*
X200125000Y-113375000D01*
X201781250Y-113375000D01*
X201875000Y-113281250D01*
X201875000Y-111675408D01*
X201817910Y-111537579D01*
X201712420Y-111432090D01*
X201574592Y-111375000D01*
X200218750Y-111375000D01*
X200125000Y-111468750D01*
X199875000Y-111468750D01*
X199781250Y-111375000D01*
X198425408Y-111375000D01*
X198287580Y-111432090D01*
X198182090Y-111537579D01*
X198125000Y-111675408D01*
X192625000Y-111675408D01*
X192625000Y-109472284D01*
X201200000Y-109472284D01*
X201200000Y-110307716D01*
X201519706Y-111079554D01*
X202110446Y-111670294D01*
X202882284Y-111990000D01*
X203717716Y-111990000D01*
X203867654Y-111927894D01*
X203867654Y-115250000D01*
X203896758Y-115396317D01*
X203979641Y-115520359D01*
X204103683Y-115603242D01*
X204250000Y-115632346D01*
X207750000Y-115632346D01*
X207896317Y-115603242D01*
X208020359Y-115520359D01*
X208103242Y-115396317D01*
X208132346Y-115250000D01*
X208132346Y-111750000D01*
X208103242Y-111603683D01*
X208020359Y-111479641D01*
X207896317Y-111396758D01*
X207750000Y-111367654D01*
X204792194Y-111367654D01*
X205080294Y-111079554D01*
X205400000Y-110307716D01*
X205400000Y-110266278D01*
X211825000Y-110266278D01*
X211825000Y-110733722D01*
X212003883Y-111165584D01*
X212334416Y-111496117D01*
X212766278Y-111675000D01*
X213233722Y-111675000D01*
X213665584Y-111496117D01*
X213996117Y-111165584D01*
X214000000Y-111156210D01*
X214003883Y-111165584D01*
X214334416Y-111496117D01*
X214766278Y-111675000D01*
X215233722Y-111675000D01*
X215665584Y-111496117D01*
X215996117Y-111165584D01*
X216175000Y-110733722D01*
X216175000Y-110266278D01*
X218825000Y-110266278D01*
X218825000Y-110733722D01*
X219003883Y-111165584D01*
X219334416Y-111496117D01*
X219766278Y-111675000D01*
X220233722Y-111675000D01*
X220665584Y-111496117D01*
X220996117Y-111165584D01*
X221000000Y-111156210D01*
X221003883Y-111165584D01*
X221334416Y-111496117D01*
X221766278Y-111675000D01*
X222233722Y-111675000D01*
X222665584Y-111496117D01*
X222996117Y-111165584D01*
X223175000Y-110733722D01*
X223175000Y-110266278D01*
X225825000Y-110266278D01*
X225825000Y-110733722D01*
X226003883Y-111165584D01*
X226334416Y-111496117D01*
X226766278Y-111675000D01*
X227233722Y-111675000D01*
X227665584Y-111496117D01*
X227996117Y-111165584D01*
X228000000Y-111156210D01*
X228003883Y-111165584D01*
X228334416Y-111496117D01*
X228766278Y-111675000D01*
X229233722Y-111675000D01*
X229665584Y-111496117D01*
X229996117Y-111165584D01*
X230175000Y-110733722D01*
X230175000Y-110266278D01*
X232825000Y-110266278D01*
X232825000Y-110733722D01*
X233003883Y-111165584D01*
X233334416Y-111496117D01*
X233766278Y-111675000D01*
X234233722Y-111675000D01*
X234665584Y-111496117D01*
X234996117Y-111165584D01*
X235000000Y-111156210D01*
X235003883Y-111165584D01*
X235334416Y-111496117D01*
X235766278Y-111675000D01*
X236233722Y-111675000D01*
X236665584Y-111496117D01*
X236996117Y-111165584D01*
X237175000Y-110733722D01*
X237175000Y-110266278D01*
X236996117Y-109834416D01*
X236665584Y-109503883D01*
X236233722Y-109325000D01*
X235766278Y-109325000D01*
X235334416Y-109503883D01*
X235003883Y-109834416D01*
X235000000Y-109843790D01*
X234996117Y-109834416D01*
X234665584Y-109503883D01*
X234233722Y-109325000D01*
X233766278Y-109325000D01*
X233334416Y-109503883D01*
X233003883Y-109834416D01*
X232825000Y-110266278D01*
X230175000Y-110266278D01*
X229996117Y-109834416D01*
X229665584Y-109503883D01*
X229233722Y-109325000D01*
X228766278Y-109325000D01*
X228334416Y-109503883D01*
X228003883Y-109834416D01*
X228000000Y-109843790D01*
X227996117Y-109834416D01*
X227665584Y-109503883D01*
X227233722Y-109325000D01*
X226766278Y-109325000D01*
X226334416Y-109503883D01*
X226003883Y-109834416D01*
X225825000Y-110266278D01*
X223175000Y-110266278D01*
X222996117Y-109834416D01*
X222665584Y-109503883D01*
X222233722Y-109325000D01*
X221766278Y-109325000D01*
X221334416Y-109503883D01*
X221003883Y-109834416D01*
X221000000Y-109843790D01*
X220996117Y-109834416D01*
X220665584Y-109503883D01*
X220233722Y-109325000D01*
X219766278Y-109325000D01*
X219334416Y-109503883D01*
X219003883Y-109834416D01*
X218825000Y-110266278D01*
X216175000Y-110266278D01*
X215996117Y-109834416D01*
X215665584Y-109503883D01*
X215233722Y-109325000D01*
X214766278Y-109325000D01*
X214334416Y-109503883D01*
X214003883Y-109834416D01*
X214000000Y-109843790D01*
X213996117Y-109834416D01*
X213665584Y-109503883D01*
X213233722Y-109325000D01*
X212766278Y-109325000D01*
X212334416Y-109503883D01*
X212003883Y-109834416D01*
X211825000Y-110266278D01*
X205400000Y-110266278D01*
X205400000Y-109472284D01*
X205080294Y-108700446D01*
X204489554Y-108109706D01*
X203717716Y-107790000D01*
X202882284Y-107790000D01*
X202110446Y-108109706D01*
X201519706Y-108700446D01*
X201200000Y-109472284D01*
X192625000Y-109472284D01*
X192625000Y-104607148D01*
X195025000Y-104607148D01*
X195025000Y-105392852D01*
X195325675Y-106118748D01*
X195881252Y-106674325D01*
X196607148Y-106975000D01*
X197392852Y-106975000D01*
X198118748Y-106674325D01*
X198674325Y-106118748D01*
X198975000Y-105392852D01*
X198975000Y-104607148D01*
X198674325Y-103881252D01*
X198118748Y-103325675D01*
X197392852Y-103025000D01*
X196607148Y-103025000D01*
X195881252Y-103325675D01*
X195325675Y-103881252D01*
X195025000Y-104607148D01*
X192625000Y-104607148D01*
X192625000Y-97625000D01*
X253862322Y-97625000D01*
X253781062Y-97658659D01*
X253781062Y-97658659D01*
G37*
X253781062Y-97658659D02*
X253478659Y-97961062D01*
X253315000Y-98356169D01*
X253315000Y-98783831D01*
X253478659Y-99178938D01*
X253781062Y-99481341D01*
X254176169Y-99645000D01*
X254603831Y-99645000D01*
X254998938Y-99481341D01*
X255301341Y-99178938D01*
X255465000Y-98783831D01*
X255465000Y-98356169D01*
X255301341Y-97961062D01*
X254998938Y-97658659D01*
X254917678Y-97625000D01*
X266375000Y-97625000D01*
X266375000Y-151375000D01*
X192625000Y-151375000D01*
X192625000Y-149509184D01*
X198467592Y-149509184D01*
X198580371Y-149703147D01*
X199095574Y-149886953D01*
X199641899Y-149859608D01*
X200019629Y-149703147D01*
X200132408Y-149509184D01*
X199300000Y-148676777D01*
X198467592Y-149509184D01*
X192625000Y-149509184D01*
X192625000Y-148295574D01*
X197913047Y-148295574D01*
X197940392Y-148841899D01*
X198096853Y-149219629D01*
X198290816Y-149332408D01*
X199123223Y-148500000D01*
X199476777Y-148500000D01*
X200309184Y-149332408D01*
X200503147Y-149219629D01*
X200686953Y-148704426D01*
X200659608Y-148158101D01*
X200503147Y-147780371D01*
X200309184Y-147667592D01*
X199476777Y-148500000D01*
X199123223Y-148500000D01*
X198290816Y-147667592D01*
X198096853Y-147780371D01*
X197913047Y-148295574D01*
X192625000Y-148295574D01*
X192625000Y-147490816D01*
X198467592Y-147490816D01*
X199300000Y-148323223D01*
X200123223Y-147500000D01*
X210617654Y-147500000D01*
X210617654Y-149500000D01*
X210646758Y-149646317D01*
X210729641Y-149770359D01*
X210853683Y-149853242D01*
X211000000Y-149882346D01*
X213000000Y-149882346D01*
X213146317Y-149853242D01*
X213270359Y-149770359D01*
X213353242Y-149646317D01*
X213382346Y-149500000D01*
X213382346Y-148336626D01*
X227840151Y-148336626D01*
X227923695Y-148505878D01*
X228352497Y-148649852D01*
X228803754Y-148618772D01*
X229076305Y-148505878D01*
X229159849Y-148336626D01*
X228500000Y-147676777D01*
X227840151Y-148336626D01*
X213382346Y-148336626D01*
X213382346Y-147500000D01*
X213353242Y-147353683D01*
X213352450Y-147352497D01*
X227350148Y-147352497D01*
X227381228Y-147803754D01*
X227494122Y-148076305D01*
X227663374Y-148159849D01*
X228323223Y-147500000D01*
X227663374Y-146840151D01*
X227494122Y-146923695D01*
X227350148Y-147352497D01*
X213352450Y-147352497D01*
X213270359Y-147229641D01*
X213146317Y-147146758D01*
X213000000Y-147117654D01*
X211000000Y-147117654D01*
X210853683Y-147146758D01*
X210729641Y-147229641D01*
X210646758Y-147353683D01*
X210617654Y-147500000D01*
X200123223Y-147500000D01*
X200132408Y-147490816D01*
X200019629Y-147296853D01*
X199504426Y-147113047D01*
X198958101Y-147140392D01*
X198580371Y-147296853D01*
X198467592Y-147490816D01*
X192625000Y-147490816D01*
X192625000Y-143607148D01*
X195025000Y-143607148D01*
X195025000Y-144392852D01*
X195325675Y-145118748D01*
X195881252Y-145674325D01*
X196607148Y-145975000D01*
X197392852Y-145975000D01*
X198118748Y-145674325D01*
X198674325Y-145118748D01*
X198975000Y-144392852D01*
X198975000Y-143607148D01*
X198674325Y-142881252D01*
X198118748Y-142325675D01*
X197392852Y-142025000D01*
X196607148Y-142025000D01*
X195881252Y-142325675D01*
X195325675Y-142881252D01*
X195025000Y-143607148D01*
X192625000Y-143607148D01*
X192625000Y-139644093D01*
X202065951Y-139644093D01*
X202190645Y-139945157D01*
X202506694Y-140303729D01*
X202935905Y-140514059D01*
X203125000Y-140454867D01*
X203125000Y-139455000D01*
X202125677Y-139455000D01*
X202065951Y-139644093D01*
X192625000Y-139644093D01*
X192625000Y-139015907D01*
X202065951Y-139015907D01*
X202125677Y-139205000D01*
X203125000Y-139205000D01*
X203125000Y-138205133D01*
X202935905Y-138145941D01*
X202506694Y-138356271D01*
X202190645Y-138714843D01*
X202065951Y-139015907D01*
X192625000Y-139015907D01*
X192625000Y-136790000D01*
X202001001Y-136790000D01*
X202096075Y-137267971D01*
X202366824Y-137673176D01*
X202772029Y-137943925D01*
X203129348Y-138015000D01*
X203370652Y-138015000D01*
X203727971Y-137943925D01*
X204133176Y-137673176D01*
X204372501Y-137315000D01*
X204942539Y-137315000D01*
X204465334Y-137792205D01*
X204421497Y-137821496D01*
X204339693Y-137943925D01*
X204305461Y-137995156D01*
X204264715Y-138200000D01*
X204275001Y-138251711D01*
X204275001Y-138675867D01*
X203993306Y-138356271D01*
X203564095Y-138145941D01*
X203375000Y-138205133D01*
X203375000Y-139205000D01*
X203395000Y-139205000D01*
X203395000Y-139455000D01*
X203375000Y-139455000D01*
X203375000Y-140454867D01*
X203564095Y-140514059D01*
X203993306Y-140303729D01*
X204275000Y-139984134D01*
X204275000Y-140102538D01*
X203672498Y-140705041D01*
X203370652Y-140645000D01*
X203129348Y-140645000D01*
X202772029Y-140716075D01*
X202366824Y-140986824D01*
X202096075Y-141392029D01*
X202001001Y-141870000D01*
X202096075Y-142347971D01*
X202366824Y-142753176D01*
X202772029Y-143023925D01*
X203129348Y-143095000D01*
X203370652Y-143095000D01*
X203727971Y-143023925D01*
X204133176Y-142753176D01*
X204403925Y-142347971D01*
X204498999Y-141870000D01*
X204414959Y-141447502D01*
X204875001Y-140987461D01*
X204875001Y-142042537D01*
X203672498Y-143245041D01*
X203370652Y-143185000D01*
X203129348Y-143185000D01*
X202772029Y-143256075D01*
X202366824Y-143526824D01*
X202096075Y-143932029D01*
X202001001Y-144410000D01*
X202096075Y-144887971D01*
X202366824Y-145293176D01*
X202772029Y-145563925D01*
X203129348Y-145635000D01*
X203370652Y-145635000D01*
X203727971Y-145563925D01*
X204133176Y-145293176D01*
X204403925Y-144887971D01*
X204498999Y-144410000D01*
X204414959Y-143987502D01*
X205734667Y-142667795D01*
X205778504Y-142638504D01*
X205894539Y-142464845D01*
X205920367Y-142335000D01*
X205935285Y-142260001D01*
X205925000Y-142208295D01*
X205925000Y-140338071D01*
X206219706Y-141049554D01*
X206810446Y-141640294D01*
X207582284Y-141960000D01*
X208417716Y-141960000D01*
X209189554Y-141640294D01*
X209780294Y-141049554D01*
X210100000Y-140277716D01*
X210100000Y-139442284D01*
X209780294Y-138670446D01*
X209189554Y-138079706D01*
X208417716Y-137760000D01*
X207582284Y-137760000D01*
X206810446Y-138079706D01*
X206219706Y-138670446D01*
X205925000Y-139381929D01*
X205925000Y-138842461D01*
X208042462Y-136725000D01*
X211388842Y-136725000D01*
X213903556Y-139239715D01*
X213903556Y-139426410D01*
X214021543Y-139711255D01*
X214239554Y-139929266D01*
X214524399Y-140047253D01*
X214832713Y-140047253D01*
X215117558Y-139929266D01*
X215335569Y-139711255D01*
X215453556Y-139426410D01*
X215453556Y-139118096D01*
X215335569Y-138833251D01*
X215117558Y-138615240D01*
X214832713Y-138497253D01*
X214646018Y-138497253D01*
X212173764Y-136025000D01*
X215178985Y-136025000D01*
X215310998Y-136157013D01*
X215595843Y-136275000D01*
X215904157Y-136275000D01*
X216189002Y-136157013D01*
X216407013Y-135939002D01*
X216525000Y-135654157D01*
X216525000Y-135345843D01*
X216407013Y-135060998D01*
X216189002Y-134842987D01*
X215904157Y-134725000D01*
X215595843Y-134725000D01*
X215525000Y-134754344D01*
X215525000Y-134595843D01*
X215445946Y-134404990D01*
X217828995Y-134404990D01*
X217692987Y-134540998D01*
X217575000Y-134825843D01*
X217575000Y-135134157D01*
X217583633Y-135155000D01*
X217505843Y-135155000D01*
X217220998Y-135272987D01*
X217002987Y-135490998D01*
X216885000Y-135775843D01*
X216885000Y-136084157D01*
X216905688Y-136134102D01*
X216681308Y-136134102D01*
X216396463Y-136252089D01*
X216178452Y-136470100D01*
X216060465Y-136754945D01*
X216060465Y-137063259D01*
X216178452Y-137348104D01*
X216396463Y-137566115D01*
X216681308Y-137684102D01*
X216919883Y-137684102D01*
X216842987Y-137760998D01*
X216731826Y-138029364D01*
X216135000Y-137432539D01*
X216135000Y-137245843D01*
X216017013Y-136960998D01*
X215799002Y-136742987D01*
X215514157Y-136625000D01*
X215205843Y-136625000D01*
X214920998Y-136742987D01*
X214702987Y-136960998D01*
X214585000Y-137245843D01*
X214585000Y-137554157D01*
X214702987Y-137839002D01*
X214920998Y-138057013D01*
X215205843Y-138175000D01*
X215392539Y-138175000D01*
X217052205Y-139834667D01*
X217081496Y-139878504D01*
X217255155Y-139994539D01*
X217408294Y-140025000D01*
X217459999Y-140035285D01*
X217511704Y-140025000D01*
X220782539Y-140025000D01*
X223375000Y-142617462D01*
X223375000Y-143375000D01*
X209500000Y-143375000D01*
X209452165Y-143384515D01*
X209411612Y-143411612D01*
X209384515Y-143452165D01*
X209375000Y-143500000D01*
X209375000Y-146500000D01*
X209384515Y-146547835D01*
X209411612Y-146588388D01*
X209452165Y-146615485D01*
X209500000Y-146625000D01*
X227859093Y-146625000D01*
X227840151Y-146663374D01*
X228500000Y-147323223D01*
X229159849Y-146663374D01*
X229140907Y-146625000D01*
X229713299Y-146625000D01*
X229503883Y-146834416D01*
X229473519Y-146907722D01*
X229336626Y-146840151D01*
X228676777Y-147500000D01*
X229336626Y-148159849D01*
X229473519Y-148092278D01*
X229503883Y-148165584D01*
X229834416Y-148496117D01*
X230266278Y-148675000D01*
X230733722Y-148675000D01*
X231165584Y-148496117D01*
X231496117Y-148165584D01*
X231500000Y-148156210D01*
X231503883Y-148165584D01*
X231834416Y-148496117D01*
X232266278Y-148675000D01*
X232733722Y-148675000D01*
X233165584Y-148496117D01*
X233325075Y-148336626D01*
X236840151Y-148336626D01*
X236923695Y-148505878D01*
X237352497Y-148649852D01*
X237803754Y-148618772D01*
X238076305Y-148505878D01*
X238159849Y-148336626D01*
X237500000Y-147676777D01*
X236840151Y-148336626D01*
X233325075Y-148336626D01*
X233496117Y-148165584D01*
X233675000Y-147733722D01*
X233675000Y-147421015D01*
X233743518Y-147352497D01*
X236350148Y-147352497D01*
X236381228Y-147803754D01*
X236494122Y-148076305D01*
X236663374Y-148159849D01*
X237323223Y-147500000D01*
X237676777Y-147500000D01*
X238336626Y-148159849D01*
X238473519Y-148092278D01*
X238503883Y-148165584D01*
X238834416Y-148496117D01*
X239266278Y-148675000D01*
X239733722Y-148675000D01*
X240165584Y-148496117D01*
X240496117Y-148165584D01*
X240500000Y-148156210D01*
X240503883Y-148165584D01*
X240834416Y-148496117D01*
X241266278Y-148675000D01*
X241733722Y-148675000D01*
X242165584Y-148496117D01*
X242325075Y-148336626D01*
X245840151Y-148336626D01*
X245923695Y-148505878D01*
X246352497Y-148649852D01*
X246803754Y-148618772D01*
X247076305Y-148505878D01*
X247159849Y-148336626D01*
X246500000Y-147676777D01*
X245840151Y-148336626D01*
X242325075Y-148336626D01*
X242496117Y-148165584D01*
X242675000Y-147733722D01*
X242675000Y-147352497D01*
X245350148Y-147352497D01*
X245381228Y-147803754D01*
X245494122Y-148076305D01*
X245663374Y-148159849D01*
X246323223Y-147500000D01*
X246676777Y-147500000D01*
X247336626Y-148159849D01*
X247473519Y-148092278D01*
X247503883Y-148165584D01*
X247834416Y-148496117D01*
X248266278Y-148675000D01*
X248733722Y-148675000D01*
X249165584Y-148496117D01*
X249496117Y-148165584D01*
X249500000Y-148156210D01*
X249503883Y-148165584D01*
X249834416Y-148496117D01*
X250266278Y-148675000D01*
X250733722Y-148675000D01*
X251165584Y-148496117D01*
X251325075Y-148336626D01*
X254800151Y-148336626D01*
X254883695Y-148505878D01*
X255312497Y-148649852D01*
X255763754Y-148618772D01*
X256036305Y-148505878D01*
X256119849Y-148336626D01*
X255460000Y-147676777D01*
X254800151Y-148336626D01*
X251325075Y-148336626D01*
X251496117Y-148165584D01*
X251675000Y-147733722D01*
X251675000Y-147352497D01*
X254310148Y-147352497D01*
X254341228Y-147803754D01*
X254454122Y-148076305D01*
X254623374Y-148159849D01*
X255283223Y-147500000D01*
X255636777Y-147500000D01*
X256296626Y-148159849D01*
X256433519Y-148092278D01*
X256463883Y-148165584D01*
X256794416Y-148496117D01*
X257226278Y-148675000D01*
X257693722Y-148675000D01*
X258125584Y-148496117D01*
X258456117Y-148165584D01*
X258460000Y-148156210D01*
X258463883Y-148165584D01*
X258794416Y-148496117D01*
X259226278Y-148675000D01*
X259693722Y-148675000D01*
X260125584Y-148496117D01*
X260456117Y-148165584D01*
X260635000Y-147733722D01*
X260635000Y-147266278D01*
X260456117Y-146834416D01*
X260125584Y-146503883D01*
X259693722Y-146325000D01*
X259226278Y-146325000D01*
X258794416Y-146503883D01*
X258463883Y-146834416D01*
X258460000Y-146843790D01*
X258456117Y-146834416D01*
X258125584Y-146503883D01*
X257693722Y-146325000D01*
X257226278Y-146325000D01*
X256794416Y-146503883D01*
X256463883Y-146834416D01*
X256433519Y-146907722D01*
X256296626Y-146840151D01*
X255636777Y-147500000D01*
X255283223Y-147500000D01*
X254623374Y-146840151D01*
X254454122Y-146923695D01*
X254310148Y-147352497D01*
X251675000Y-147352497D01*
X251675000Y-147266278D01*
X251496117Y-146834416D01*
X251325075Y-146663374D01*
X254800151Y-146663374D01*
X255460000Y-147323223D01*
X256119849Y-146663374D01*
X256036305Y-146494122D01*
X255607503Y-146350148D01*
X255156246Y-146381228D01*
X254883695Y-146494122D01*
X254800151Y-146663374D01*
X251325075Y-146663374D01*
X251275000Y-146613299D01*
X251275000Y-143095843D01*
X251245217Y-143023941D01*
X251230034Y-142947610D01*
X251186795Y-142882899D01*
X251157013Y-142810998D01*
X251101983Y-142755968D01*
X251058744Y-142691256D01*
X250994032Y-142648017D01*
X250939002Y-142592987D01*
X250867101Y-142563205D01*
X250802390Y-142519966D01*
X250726059Y-142504783D01*
X250654157Y-142475000D01*
X250576330Y-142475000D01*
X250500000Y-142459817D01*
X250423670Y-142475000D01*
X250345843Y-142475000D01*
X250273940Y-142504783D01*
X250197611Y-142519966D01*
X250132901Y-142563204D01*
X250060998Y-142592987D01*
X250005966Y-142648019D01*
X249941257Y-142691256D01*
X249898020Y-142755965D01*
X249842987Y-142810998D01*
X249813203Y-142882903D01*
X249769967Y-142947610D01*
X249754785Y-143023936D01*
X249725000Y-143095843D01*
X249725000Y-143404157D01*
X249725001Y-143404159D01*
X249725000Y-146613299D01*
X249503883Y-146834416D01*
X249500000Y-146843790D01*
X249496117Y-146834416D01*
X249165584Y-146503883D01*
X248733722Y-146325000D01*
X248266278Y-146325000D01*
X247834416Y-146503883D01*
X247503883Y-146834416D01*
X247473519Y-146907722D01*
X247336626Y-146840151D01*
X246676777Y-147500000D01*
X246323223Y-147500000D01*
X245663374Y-146840151D01*
X245494122Y-146923695D01*
X245350148Y-147352497D01*
X242675000Y-147352497D01*
X242675000Y-147266278D01*
X242496117Y-146834416D01*
X242325075Y-146663374D01*
X245840151Y-146663374D01*
X246500000Y-147323223D01*
X247159849Y-146663374D01*
X247076305Y-146494122D01*
X246647503Y-146350148D01*
X246196246Y-146381228D01*
X245923695Y-146494122D01*
X245840151Y-146663374D01*
X242325075Y-146663374D01*
X242275000Y-146613299D01*
X242275000Y-143095843D01*
X242245217Y-143023941D01*
X242230034Y-142947610D01*
X242186795Y-142882899D01*
X242157013Y-142810998D01*
X242101983Y-142755968D01*
X242058744Y-142691256D01*
X241994032Y-142648017D01*
X241939002Y-142592987D01*
X241867101Y-142563205D01*
X241802390Y-142519966D01*
X241726059Y-142504783D01*
X241654157Y-142475000D01*
X241576330Y-142475000D01*
X241500000Y-142459817D01*
X241423670Y-142475000D01*
X241345843Y-142475000D01*
X241273940Y-142504783D01*
X241197611Y-142519966D01*
X241132901Y-142563204D01*
X241060998Y-142592987D01*
X241005966Y-142648019D01*
X240941257Y-142691256D01*
X240898020Y-142755965D01*
X240842987Y-142810998D01*
X240813203Y-142882903D01*
X240769967Y-142947610D01*
X240754785Y-143023936D01*
X240725000Y-143095843D01*
X240725000Y-143404157D01*
X240725001Y-143404159D01*
X240725000Y-146613299D01*
X240503883Y-146834416D01*
X240500000Y-146843790D01*
X240496117Y-146834416D01*
X240165584Y-146503883D01*
X239733722Y-146325000D01*
X239266278Y-146325000D01*
X238834416Y-146503883D01*
X238503883Y-146834416D01*
X238473519Y-146907722D01*
X238336626Y-146840151D01*
X237676777Y-147500000D01*
X237323223Y-147500000D01*
X236663374Y-146840151D01*
X236494122Y-146923695D01*
X236350148Y-147352497D01*
X233743518Y-147352497D01*
X234432641Y-146663374D01*
X236840151Y-146663374D01*
X237500000Y-147323223D01*
X238159849Y-146663374D01*
X238076305Y-146494122D01*
X237647503Y-146350148D01*
X237196246Y-146381228D01*
X236923695Y-146494122D01*
X236840151Y-146663374D01*
X234432641Y-146663374D01*
X237244038Y-143851978D01*
X237308743Y-143808743D01*
X237351978Y-143744038D01*
X237351981Y-143744035D01*
X237351983Y-143744032D01*
X237407013Y-143689002D01*
X237436795Y-143617101D01*
X237480034Y-143552390D01*
X237495217Y-143476059D01*
X237525000Y-143404157D01*
X237525000Y-143326330D01*
X237540183Y-143250000D01*
X237525000Y-143173670D01*
X237525000Y-143095843D01*
X237495217Y-143023941D01*
X237480034Y-142947610D01*
X237436795Y-142882899D01*
X237407013Y-142810998D01*
X237351983Y-142755968D01*
X237308744Y-142691256D01*
X237244035Y-142648019D01*
X235601983Y-141005968D01*
X235558744Y-140941256D01*
X235302390Y-140769966D01*
X235076330Y-140725000D01*
X235000000Y-140709817D01*
X234923670Y-140725000D01*
X234095843Y-140725000D01*
X234023941Y-140754783D01*
X233947610Y-140769966D01*
X233882899Y-140813205D01*
X233810998Y-140842987D01*
X233755968Y-140898017D01*
X233691256Y-140941256D01*
X233648017Y-141005968D01*
X233592987Y-141060998D01*
X233563205Y-141132899D01*
X233519966Y-141197610D01*
X233504783Y-141273941D01*
X233475000Y-141345843D01*
X233475000Y-141423670D01*
X233459817Y-141500000D01*
X233475000Y-141576330D01*
X233475000Y-141654157D01*
X233504783Y-141726059D01*
X233519966Y-141802390D01*
X233563205Y-141867101D01*
X233592987Y-141939002D01*
X233648017Y-141994032D01*
X233691256Y-142058744D01*
X233755968Y-142101983D01*
X233810998Y-142157013D01*
X233882899Y-142186795D01*
X233947610Y-142230034D01*
X234023941Y-142245217D01*
X234095843Y-142275000D01*
X234678985Y-142275000D01*
X235653984Y-143250000D01*
X232625000Y-146278985D01*
X232625000Y-140426742D01*
X240631715Y-140426742D01*
X240631715Y-140573256D01*
X240707835Y-140955939D01*
X240763903Y-141091300D01*
X240763905Y-141091302D01*
X240980675Y-141415721D01*
X240980676Y-141415724D01*
X241084276Y-141519324D01*
X241084279Y-141519325D01*
X241408700Y-141736097D01*
X241544061Y-141792165D01*
X241926744Y-141868285D01*
X241926746Y-141868285D01*
X241963019Y-141875500D01*
X249036981Y-141875500D01*
X249073254Y-141868285D01*
X249073256Y-141868285D01*
X249455939Y-141792165D01*
X249591300Y-141736097D01*
X249591302Y-141736095D01*
X249915721Y-141519325D01*
X249915724Y-141519324D01*
X250019324Y-141415724D01*
X250019325Y-141415721D01*
X250236097Y-141091300D01*
X250292165Y-140955939D01*
X250368285Y-140573256D01*
X250368285Y-140426742D01*
X250292165Y-140044061D01*
X250236097Y-139908700D01*
X250019324Y-139584277D01*
X250019324Y-139584276D01*
X249915724Y-139480676D01*
X249915721Y-139480675D01*
X249591302Y-139263905D01*
X249591300Y-139263903D01*
X249455939Y-139207835D01*
X249073256Y-139131715D01*
X249073254Y-139131715D01*
X249036981Y-139124500D01*
X241963019Y-139124500D01*
X241926746Y-139131715D01*
X241926744Y-139131715D01*
X241544061Y-139207835D01*
X241408700Y-139263903D01*
X241084279Y-139480675D01*
X241084276Y-139480676D01*
X240980676Y-139584276D01*
X240980676Y-139584277D01*
X240763905Y-139908698D01*
X240763903Y-139908700D01*
X240707835Y-140044061D01*
X240631715Y-140426742D01*
X232625000Y-140426742D01*
X232625000Y-139425843D01*
X237365000Y-139425843D01*
X237365000Y-139734157D01*
X237482987Y-140019002D01*
X237700998Y-140237013D01*
X237985843Y-140355000D01*
X238294157Y-140355000D01*
X238579002Y-140237013D01*
X238797013Y-140019002D01*
X238915000Y-139734157D01*
X238915000Y-139425843D01*
X238797013Y-139140998D01*
X238665000Y-139008985D01*
X238665000Y-137607148D01*
X258025000Y-137607148D01*
X258025000Y-138392852D01*
X258325675Y-139118748D01*
X258881252Y-139674325D01*
X259607148Y-139975000D01*
X260392852Y-139975000D01*
X261118748Y-139674325D01*
X261674325Y-139118748D01*
X261975000Y-138392852D01*
X261975000Y-137607148D01*
X261674325Y-136881252D01*
X261118748Y-136325675D01*
X260392852Y-136025000D01*
X259607148Y-136025000D01*
X258881252Y-136325675D01*
X258325675Y-136881252D01*
X258025000Y-137607148D01*
X238665000Y-137607148D01*
X238665000Y-135521015D01*
X238807013Y-135379002D01*
X238925000Y-135094157D01*
X238925000Y-134785843D01*
X238807013Y-134500998D01*
X238589002Y-134282987D01*
X238304157Y-134165000D01*
X237995843Y-134165000D01*
X237710998Y-134282987D01*
X237492987Y-134500998D01*
X237375000Y-134785843D01*
X237375000Y-135094157D01*
X237492987Y-135379002D01*
X237615001Y-135501016D01*
X237615000Y-139008985D01*
X237482987Y-139140998D01*
X237365000Y-139425843D01*
X232625000Y-139425843D01*
X232625000Y-133926742D01*
X240631715Y-133926742D01*
X240631715Y-134073256D01*
X240707835Y-134455939D01*
X240763903Y-134591300D01*
X240763905Y-134591302D01*
X240980675Y-134915721D01*
X240980676Y-134915724D01*
X241084276Y-135019324D01*
X241084279Y-135019325D01*
X241408700Y-135236097D01*
X241544061Y-135292165D01*
X241926744Y-135368285D01*
X241926746Y-135368285D01*
X241963019Y-135375500D01*
X249036981Y-135375500D01*
X249073254Y-135368285D01*
X249073256Y-135368285D01*
X249455939Y-135292165D01*
X249591300Y-135236097D01*
X249591302Y-135236095D01*
X249915721Y-135019325D01*
X249915724Y-135019324D01*
X250019324Y-134915724D01*
X250019325Y-134915721D01*
X250236097Y-134591300D01*
X250292165Y-134455939D01*
X250368285Y-134073256D01*
X250368285Y-133926742D01*
X250292165Y-133544061D01*
X250236097Y-133408700D01*
X250019324Y-133084277D01*
X250019324Y-133084276D01*
X249915724Y-132980676D01*
X249915721Y-132980675D01*
X249591302Y-132763905D01*
X249591300Y-132763903D01*
X249455939Y-132707835D01*
X249073256Y-132631715D01*
X249073254Y-132631715D01*
X249036981Y-132624500D01*
X241963019Y-132624500D01*
X241926746Y-132631715D01*
X241926744Y-132631715D01*
X241544061Y-132707835D01*
X241408700Y-132763903D01*
X241084279Y-132980675D01*
X241084276Y-132980676D01*
X240980676Y-133084276D01*
X240980676Y-133084277D01*
X240763905Y-133408698D01*
X240763903Y-133408700D01*
X240707835Y-133544061D01*
X240631715Y-133926742D01*
X232625000Y-133926742D01*
X232625000Y-129000000D01*
X232615485Y-128952165D01*
X232588388Y-128911612D01*
X232547835Y-128884515D01*
X232500000Y-128875000D01*
X220000000Y-128875000D01*
X219952165Y-128884515D01*
X219911612Y-128911612D01*
X219884515Y-128952165D01*
X219875000Y-129000000D01*
X219875000Y-132000000D01*
X219884515Y-132047835D01*
X219911612Y-132088388D01*
X219952165Y-132115485D01*
X220000000Y-132125000D01*
X223375000Y-132125000D01*
X223375000Y-134455000D01*
X219651005Y-134455000D01*
X219787013Y-134318992D01*
X219905000Y-134034147D01*
X219905000Y-133725833D01*
X219787013Y-133440988D01*
X219569002Y-133222977D01*
X219284157Y-133104990D01*
X218975843Y-133104990D01*
X218690998Y-133222977D01*
X218558985Y-133354990D01*
X211767452Y-133354990D01*
X208795000Y-130382539D01*
X208795000Y-130195843D01*
X208677013Y-129910998D01*
X208459002Y-129692987D01*
X208174157Y-129575000D01*
X207865843Y-129575000D01*
X207580998Y-129692987D01*
X207362987Y-129910998D01*
X207245000Y-130195843D01*
X207245000Y-130504157D01*
X207362987Y-130789002D01*
X207580998Y-131007013D01*
X207865843Y-131125000D01*
X208052539Y-131125000D01*
X211142195Y-134214657D01*
X211149106Y-134225000D01*
X207301706Y-134225000D01*
X207250000Y-134214715D01*
X207045155Y-134255461D01*
X206871496Y-134371496D01*
X206842205Y-134415333D01*
X204992539Y-136265000D01*
X204372501Y-136265000D01*
X204133176Y-135906824D01*
X203727971Y-135636075D01*
X203370652Y-135565000D01*
X203129348Y-135565000D01*
X202772029Y-135636075D01*
X202366824Y-135906824D01*
X202096075Y-136312029D01*
X202001001Y-136790000D01*
X192625000Y-136790000D01*
X192625000Y-133400000D01*
X202017654Y-133400000D01*
X202017654Y-135100000D01*
X202046758Y-135246317D01*
X202129641Y-135370359D01*
X202253683Y-135453242D01*
X202400000Y-135482346D01*
X204100000Y-135482346D01*
X204246317Y-135453242D01*
X204370359Y-135370359D01*
X204453242Y-135246317D01*
X204482346Y-135100000D01*
X204482346Y-133400000D01*
X204453242Y-133253683D01*
X204370359Y-133129641D01*
X204246317Y-133046758D01*
X204100000Y-133017654D01*
X202400000Y-133017654D01*
X202253683Y-133046758D01*
X202129641Y-133129641D01*
X202046758Y-133253683D01*
X202017654Y-133400000D01*
X192625000Y-133400000D01*
X192625000Y-117325000D01*
X200867654Y-117325000D01*
X200867654Y-119075000D01*
X200963364Y-119556165D01*
X201235922Y-119964078D01*
X201643835Y-120236636D01*
X202125000Y-120332346D01*
X203875000Y-120332346D01*
X204356165Y-120236636D01*
X204764078Y-119964078D01*
X205036636Y-119556165D01*
X205132346Y-119075000D01*
X205132346Y-117325000D01*
X205036636Y-116843835D01*
X204764078Y-116435922D01*
X204510188Y-116266278D01*
X211825000Y-116266278D01*
X211825000Y-116733722D01*
X212003883Y-117165584D01*
X212334416Y-117496117D01*
X212766278Y-117675000D01*
X213233722Y-117675000D01*
X213665584Y-117496117D01*
X213996117Y-117165584D01*
X214000000Y-117156210D01*
X214003883Y-117165584D01*
X214334416Y-117496117D01*
X214766278Y-117675000D01*
X215233722Y-117675000D01*
X215665584Y-117496117D01*
X215996117Y-117165584D01*
X216175000Y-116733722D01*
X216175000Y-116266278D01*
X218825000Y-116266278D01*
X218825000Y-116733722D01*
X219003883Y-117165584D01*
X219334416Y-117496117D01*
X219766278Y-117675000D01*
X220233722Y-117675000D01*
X220665584Y-117496117D01*
X220996117Y-117165584D01*
X221000000Y-117156210D01*
X221003883Y-117165584D01*
X221334416Y-117496117D01*
X221766278Y-117675000D01*
X222233722Y-117675000D01*
X222665584Y-117496117D01*
X222996117Y-117165584D01*
X223175000Y-116733722D01*
X223175000Y-116266278D01*
X225825000Y-116266278D01*
X225825000Y-116733722D01*
X226003883Y-117165584D01*
X226334416Y-117496117D01*
X226766278Y-117675000D01*
X227233722Y-117675000D01*
X227665584Y-117496117D01*
X227996117Y-117165584D01*
X228000000Y-117156210D01*
X228003883Y-117165584D01*
X228334416Y-117496117D01*
X228766278Y-117675000D01*
X229233722Y-117675000D01*
X229665584Y-117496117D01*
X229996117Y-117165584D01*
X230175000Y-116733722D01*
X230175000Y-116266278D01*
X232825000Y-116266278D01*
X232825000Y-116733722D01*
X233003883Y-117165584D01*
X233334416Y-117496117D01*
X233766278Y-117675000D01*
X234233722Y-117675000D01*
X234665584Y-117496117D01*
X234996117Y-117165584D01*
X235000000Y-117156210D01*
X235003883Y-117165584D01*
X235334416Y-117496117D01*
X235766278Y-117675000D01*
X236233722Y-117675000D01*
X236665584Y-117496117D01*
X236996117Y-117165584D01*
X237175000Y-116733722D01*
X237175000Y-116266278D01*
X236996117Y-115834416D01*
X236665584Y-115503883D01*
X236233722Y-115325000D01*
X235766278Y-115325000D01*
X235334416Y-115503883D01*
X235003883Y-115834416D01*
X235000000Y-115843790D01*
X234996117Y-115834416D01*
X234665584Y-115503883D01*
X234233722Y-115325000D01*
X233766278Y-115325000D01*
X233334416Y-115503883D01*
X233003883Y-115834416D01*
X232825000Y-116266278D01*
X230175000Y-116266278D01*
X229996117Y-115834416D01*
X229665584Y-115503883D01*
X229233722Y-115325000D01*
X228766278Y-115325000D01*
X228334416Y-115503883D01*
X228003883Y-115834416D01*
X228000000Y-115843790D01*
X227996117Y-115834416D01*
X227665584Y-115503883D01*
X227233722Y-115325000D01*
X226766278Y-115325000D01*
X226334416Y-115503883D01*
X226003883Y-115834416D01*
X225825000Y-116266278D01*
X223175000Y-116266278D01*
X222996117Y-115834416D01*
X222665584Y-115503883D01*
X222233722Y-115325000D01*
X221766278Y-115325000D01*
X221334416Y-115503883D01*
X221003883Y-115834416D01*
X221000000Y-115843790D01*
X220996117Y-115834416D01*
X220665584Y-115503883D01*
X220233722Y-115325000D01*
X219766278Y-115325000D01*
X219334416Y-115503883D01*
X219003883Y-115834416D01*
X218825000Y-116266278D01*
X216175000Y-116266278D01*
X215996117Y-115834416D01*
X215665584Y-115503883D01*
X215233722Y-115325000D01*
X214766278Y-115325000D01*
X214334416Y-115503883D01*
X214003883Y-115834416D01*
X214000000Y-115843790D01*
X213996117Y-115834416D01*
X213665584Y-115503883D01*
X213233722Y-115325000D01*
X212766278Y-115325000D01*
X212334416Y-115503883D01*
X212003883Y-115834416D01*
X211825000Y-116266278D01*
X204510188Y-116266278D01*
X204356165Y-116163364D01*
X203875000Y-116067654D01*
X202125000Y-116067654D01*
X201643835Y-116163364D01*
X201235922Y-116435922D01*
X200963364Y-116843835D01*
X200867654Y-117325000D01*
X192625000Y-117325000D01*
X192625000Y-113718750D01*
X198125000Y-113718750D01*
X198125000Y-115324592D01*
X198182090Y-115462421D01*
X198287580Y-115567910D01*
X198425408Y-115625000D01*
X199781250Y-115625000D01*
X199875000Y-115531250D01*
X199875000Y-113625000D01*
X200125000Y-113625000D01*
X200125000Y-115531250D01*
X200218750Y-115625000D01*
X201574592Y-115625000D01*
X201712420Y-115567910D01*
X201817910Y-115462421D01*
X201875000Y-115324592D01*
X201875000Y-113718750D01*
X201781250Y-113625000D01*
X200125000Y-113625000D01*
X199875000Y-113625000D01*
X198218750Y-113625000D01*
X198125000Y-113718750D01*
X192625000Y-113718750D01*
X192625000Y-111675408D01*
X198125000Y-111675408D01*
X198125000Y-113281250D01*
X198218750Y-113375000D01*
X199875000Y-113375000D01*
X199875000Y-111468750D01*
X200125000Y-111468750D01*
X200125000Y-113375000D01*
X201781250Y-113375000D01*
X201875000Y-113281250D01*
X201875000Y-111675408D01*
X201817910Y-111537579D01*
X201712420Y-111432090D01*
X201574592Y-111375000D01*
X200218750Y-111375000D01*
X200125000Y-111468750D01*
X199875000Y-111468750D01*
X199781250Y-111375000D01*
X198425408Y-111375000D01*
X198287580Y-111432090D01*
X198182090Y-111537579D01*
X198125000Y-111675408D01*
X192625000Y-111675408D01*
X192625000Y-109472284D01*
X201200000Y-109472284D01*
X201200000Y-110307716D01*
X201519706Y-111079554D01*
X202110446Y-111670294D01*
X202882284Y-111990000D01*
X203717716Y-111990000D01*
X203867654Y-111927894D01*
X203867654Y-115250000D01*
X203896758Y-115396317D01*
X203979641Y-115520359D01*
X204103683Y-115603242D01*
X204250000Y-115632346D01*
X207750000Y-115632346D01*
X207896317Y-115603242D01*
X208020359Y-115520359D01*
X208103242Y-115396317D01*
X208132346Y-115250000D01*
X208132346Y-111750000D01*
X208103242Y-111603683D01*
X208020359Y-111479641D01*
X207896317Y-111396758D01*
X207750000Y-111367654D01*
X204792194Y-111367654D01*
X205080294Y-111079554D01*
X205400000Y-110307716D01*
X205400000Y-110266278D01*
X211825000Y-110266278D01*
X211825000Y-110733722D01*
X212003883Y-111165584D01*
X212334416Y-111496117D01*
X212766278Y-111675000D01*
X213233722Y-111675000D01*
X213665584Y-111496117D01*
X213996117Y-111165584D01*
X214000000Y-111156210D01*
X214003883Y-111165584D01*
X214334416Y-111496117D01*
X214766278Y-111675000D01*
X215233722Y-111675000D01*
X215665584Y-111496117D01*
X215996117Y-111165584D01*
X216175000Y-110733722D01*
X216175000Y-110266278D01*
X218825000Y-110266278D01*
X218825000Y-110733722D01*
X219003883Y-111165584D01*
X219334416Y-111496117D01*
X219766278Y-111675000D01*
X220233722Y-111675000D01*
X220665584Y-111496117D01*
X220996117Y-111165584D01*
X221000000Y-111156210D01*
X221003883Y-111165584D01*
X221334416Y-111496117D01*
X221766278Y-111675000D01*
X222233722Y-111675000D01*
X222665584Y-111496117D01*
X222996117Y-111165584D01*
X223175000Y-110733722D01*
X223175000Y-110266278D01*
X225825000Y-110266278D01*
X225825000Y-110733722D01*
X226003883Y-111165584D01*
X226334416Y-111496117D01*
X226766278Y-111675000D01*
X227233722Y-111675000D01*
X227665584Y-111496117D01*
X227996117Y-111165584D01*
X228000000Y-111156210D01*
X228003883Y-111165584D01*
X228334416Y-111496117D01*
X228766278Y-111675000D01*
X229233722Y-111675000D01*
X229665584Y-111496117D01*
X229996117Y-111165584D01*
X230175000Y-110733722D01*
X230175000Y-110266278D01*
X232825000Y-110266278D01*
X232825000Y-110733722D01*
X233003883Y-111165584D01*
X233334416Y-111496117D01*
X233766278Y-111675000D01*
X234233722Y-111675000D01*
X234665584Y-111496117D01*
X234996117Y-111165584D01*
X235000000Y-111156210D01*
X235003883Y-111165584D01*
X235334416Y-111496117D01*
X235766278Y-111675000D01*
X236233722Y-111675000D01*
X236665584Y-111496117D01*
X236996117Y-111165584D01*
X237175000Y-110733722D01*
X237175000Y-110266278D01*
X236996117Y-109834416D01*
X236665584Y-109503883D01*
X236233722Y-109325000D01*
X235766278Y-109325000D01*
X235334416Y-109503883D01*
X235003883Y-109834416D01*
X235000000Y-109843790D01*
X234996117Y-109834416D01*
X234665584Y-109503883D01*
X234233722Y-109325000D01*
X233766278Y-109325000D01*
X233334416Y-109503883D01*
X233003883Y-109834416D01*
X232825000Y-110266278D01*
X230175000Y-110266278D01*
X229996117Y-109834416D01*
X229665584Y-109503883D01*
X229233722Y-109325000D01*
X228766278Y-109325000D01*
X228334416Y-109503883D01*
X228003883Y-109834416D01*
X228000000Y-109843790D01*
X227996117Y-109834416D01*
X227665584Y-109503883D01*
X227233722Y-109325000D01*
X226766278Y-109325000D01*
X226334416Y-109503883D01*
X226003883Y-109834416D01*
X225825000Y-110266278D01*
X223175000Y-110266278D01*
X222996117Y-109834416D01*
X222665584Y-109503883D01*
X222233722Y-109325000D01*
X221766278Y-109325000D01*
X221334416Y-109503883D01*
X221003883Y-109834416D01*
X221000000Y-109843790D01*
X220996117Y-109834416D01*
X220665584Y-109503883D01*
X220233722Y-109325000D01*
X219766278Y-109325000D01*
X219334416Y-109503883D01*
X219003883Y-109834416D01*
X218825000Y-110266278D01*
X216175000Y-110266278D01*
X215996117Y-109834416D01*
X215665584Y-109503883D01*
X215233722Y-109325000D01*
X214766278Y-109325000D01*
X214334416Y-109503883D01*
X214003883Y-109834416D01*
X214000000Y-109843790D01*
X213996117Y-109834416D01*
X213665584Y-109503883D01*
X213233722Y-109325000D01*
X212766278Y-109325000D01*
X212334416Y-109503883D01*
X212003883Y-109834416D01*
X211825000Y-110266278D01*
X205400000Y-110266278D01*
X205400000Y-109472284D01*
X205080294Y-108700446D01*
X204489554Y-108109706D01*
X203717716Y-107790000D01*
X202882284Y-107790000D01*
X202110446Y-108109706D01*
X201519706Y-108700446D01*
X201200000Y-109472284D01*
X192625000Y-109472284D01*
X192625000Y-104607148D01*
X195025000Y-104607148D01*
X195025000Y-105392852D01*
X195325675Y-106118748D01*
X195881252Y-106674325D01*
X196607148Y-106975000D01*
X197392852Y-106975000D01*
X198118748Y-106674325D01*
X198674325Y-106118748D01*
X198975000Y-105392852D01*
X198975000Y-104607148D01*
X198674325Y-103881252D01*
X198118748Y-103325675D01*
X197392852Y-103025000D01*
X196607148Y-103025000D01*
X195881252Y-103325675D01*
X195325675Y-103881252D01*
X195025000Y-104607148D01*
X192625000Y-104607148D01*
X192625000Y-97625000D01*
X253862322Y-97625000D01*
X253781062Y-97658659D01*
G04 #@! TD*
M02*
