G04 #@! TF.GenerationSoftware,KiCad,Pcbnew,5.0.2-bee76a0~70~ubuntu18.04.1*
G04 #@! TF.CreationDate,2019-07-19T10:53:47+02:00*
G04 #@! TF.ProjectId,AutoGardener_Outdoor_panel,4175746f-4761-4726-9465-6e65725f4f75,rev?*
G04 #@! TF.SameCoordinates,Original*
G04 #@! TF.FileFunction,Legend,Bot*
G04 #@! TF.FilePolarity,Positive*
%FSLAX46Y46*%
G04 Gerber Fmt 4.6, Leading zero omitted, Abs format (unit mm)*
G04 Created by KiCad (PCBNEW 5.0.2-bee76a0~70~ubuntu18.04.1) date Fri 19 Jul 2019 10:53:47 CEST*
%MOMM*%
%LPD*%
G01*
G04 APERTURE LIST*
%ADD10C,0.150000*%
%ADD11C,0.300000*%
G04 APERTURE END LIST*
D10*
X215033333Y-82150000D02*
X215566666Y-82150000D01*
X184738095Y-72452380D02*
X184738095Y-71785714D01*
X184738095Y-71976190D02*
X184690476Y-71880952D01*
X184642857Y-71833333D01*
X184547619Y-71785714D01*
X184452380Y-71785714D01*
X183738095Y-72404761D02*
X183833333Y-72452380D01*
X184023809Y-72452380D01*
X184119047Y-72404761D01*
X184166666Y-72309523D01*
X184166666Y-71928571D01*
X184119047Y-71833333D01*
X184023809Y-71785714D01*
X183833333Y-71785714D01*
X183738095Y-71833333D01*
X183690476Y-71928571D01*
X183690476Y-72023809D01*
X184166666Y-72119047D01*
X183357142Y-71785714D02*
X183119047Y-72452380D01*
X182880952Y-71785714D01*
X181214285Y-72452380D02*
X181785714Y-72452380D01*
X181500000Y-72452380D02*
X181500000Y-71452380D01*
X181595238Y-71595238D01*
X181690476Y-71690476D01*
X181785714Y-71738095D01*
X215233333Y-56116666D02*
X215000000Y-56816666D01*
X214766666Y-56116666D01*
X212666666Y-56616666D02*
X212333333Y-56616666D01*
X212733333Y-56816666D02*
X212500000Y-56116666D01*
X212266666Y-56816666D01*
X188533333Y-82150000D02*
X189066666Y-82150000D01*
X188800000Y-81883333D02*
X188800000Y-82416666D01*
X225116666Y-76816666D02*
X225116666Y-77383333D01*
X225083333Y-77450000D01*
X225050000Y-77483333D01*
X224983333Y-77516666D01*
X224850000Y-77516666D01*
X224783333Y-77483333D01*
X224750000Y-77450000D01*
X224716666Y-77383333D01*
X224716666Y-76816666D01*
X224416666Y-77316666D02*
X224083333Y-77316666D01*
X224483333Y-77516666D02*
X224250000Y-76816666D01*
X224016666Y-77516666D01*
X223383333Y-77516666D02*
X223616666Y-77183333D01*
X223783333Y-77516666D02*
X223783333Y-76816666D01*
X223516666Y-76816666D01*
X223450000Y-76850000D01*
X223416666Y-76883333D01*
X223383333Y-76950000D01*
X223383333Y-77050000D01*
X223416666Y-77116666D01*
X223450000Y-77150000D01*
X223516666Y-77183333D01*
X223783333Y-77183333D01*
X223183333Y-76816666D02*
X222783333Y-76816666D01*
X222983333Y-77516666D02*
X222983333Y-76816666D01*
X191233333Y-56116666D02*
X191000000Y-56816666D01*
X190766666Y-56116666D01*
D11*
X185571428Y-82107142D02*
X184428571Y-82107142D01*
X185000000Y-82678571D02*
X185000000Y-81535714D01*
D10*
X201116666Y-76816666D02*
X201116666Y-77383333D01*
X201083333Y-77450000D01*
X201050000Y-77483333D01*
X200983333Y-77516666D01*
X200850000Y-77516666D01*
X200783333Y-77483333D01*
X200750000Y-77450000D01*
X200716666Y-77383333D01*
X200716666Y-76816666D01*
X200416666Y-77316666D02*
X200083333Y-77316666D01*
X200483333Y-77516666D02*
X200250000Y-76816666D01*
X200016666Y-77516666D01*
X199383333Y-77516666D02*
X199616666Y-77183333D01*
X199783333Y-77516666D02*
X199783333Y-76816666D01*
X199516666Y-76816666D01*
X199450000Y-76850000D01*
X199416666Y-76883333D01*
X199383333Y-76950000D01*
X199383333Y-77050000D01*
X199416666Y-77116666D01*
X199450000Y-77150000D01*
X199516666Y-77183333D01*
X199783333Y-77183333D01*
X199183333Y-76816666D02*
X198783333Y-76816666D01*
X198983333Y-77516666D02*
X198983333Y-76816666D01*
D11*
X209571428Y-82107142D02*
X208428571Y-82107142D01*
X209000000Y-82678571D02*
X209000000Y-81535714D01*
D10*
X218450000Y-59983333D02*
X218350000Y-60016666D01*
X218183333Y-60016666D01*
X218116666Y-59983333D01*
X218083333Y-59950000D01*
X218050000Y-59883333D01*
X218050000Y-59816666D01*
X218083333Y-59750000D01*
X218116666Y-59716666D01*
X218183333Y-59683333D01*
X218316666Y-59650000D01*
X218383333Y-59616666D01*
X218416666Y-59583333D01*
X218450000Y-59516666D01*
X218450000Y-59450000D01*
X218416666Y-59383333D01*
X218383333Y-59350000D01*
X218316666Y-59316666D01*
X218150000Y-59316666D01*
X218050000Y-59350000D01*
X217616666Y-59316666D02*
X217483333Y-59316666D01*
X217416666Y-59350000D01*
X217350000Y-59416666D01*
X217316666Y-59550000D01*
X217316666Y-59783333D01*
X217350000Y-59916666D01*
X217416666Y-59983333D01*
X217483333Y-60016666D01*
X217616666Y-60016666D01*
X217683333Y-59983333D01*
X217750000Y-59916666D01*
X217783333Y-59783333D01*
X217783333Y-59550000D01*
X217750000Y-59416666D01*
X217683333Y-59350000D01*
X217616666Y-59316666D01*
X217016666Y-60016666D02*
X217016666Y-59316666D01*
X216350000Y-60016666D02*
X216683333Y-60016666D01*
X216683333Y-59316666D01*
X215616666Y-59983333D02*
X215516666Y-60016666D01*
X215350000Y-60016666D01*
X215283333Y-59983333D01*
X215250000Y-59950000D01*
X215216666Y-59883333D01*
X215216666Y-59816666D01*
X215250000Y-59750000D01*
X215283333Y-59716666D01*
X215350000Y-59683333D01*
X215483333Y-59650000D01*
X215550000Y-59616666D01*
X215583333Y-59583333D01*
X215616666Y-59516666D01*
X215616666Y-59450000D01*
X215583333Y-59383333D01*
X215550000Y-59350000D01*
X215483333Y-59316666D01*
X215316666Y-59316666D01*
X215216666Y-59350000D01*
X214916666Y-59650000D02*
X214683333Y-59650000D01*
X214583333Y-60016666D02*
X214916666Y-60016666D01*
X214916666Y-59316666D01*
X214583333Y-59316666D01*
X214283333Y-60016666D02*
X214283333Y-59316666D01*
X213883333Y-60016666D01*
X213883333Y-59316666D01*
X213583333Y-59983333D02*
X213483333Y-60016666D01*
X213316666Y-60016666D01*
X213250000Y-59983333D01*
X213216666Y-59950000D01*
X213183333Y-59883333D01*
X213183333Y-59816666D01*
X213216666Y-59750000D01*
X213250000Y-59716666D01*
X213316666Y-59683333D01*
X213450000Y-59650000D01*
X213516666Y-59616666D01*
X213550000Y-59583333D01*
X213583333Y-59516666D01*
X213583333Y-59450000D01*
X213550000Y-59383333D01*
X213516666Y-59350000D01*
X213450000Y-59316666D01*
X213283333Y-59316666D01*
X213183333Y-59350000D01*
X212750000Y-59316666D02*
X212616666Y-59316666D01*
X212550000Y-59350000D01*
X212483333Y-59416666D01*
X212450000Y-59550000D01*
X212450000Y-59783333D01*
X212483333Y-59916666D01*
X212550000Y-59983333D01*
X212616666Y-60016666D01*
X212750000Y-60016666D01*
X212816666Y-59983333D01*
X212883333Y-59916666D01*
X212916666Y-59783333D01*
X212916666Y-59550000D01*
X212883333Y-59416666D01*
X212816666Y-59350000D01*
X212750000Y-59316666D01*
X211750000Y-60016666D02*
X211983333Y-59683333D01*
X212150000Y-60016666D02*
X212150000Y-59316666D01*
X211883333Y-59316666D01*
X211816666Y-59350000D01*
X211783333Y-59383333D01*
X211750000Y-59450000D01*
X211750000Y-59550000D01*
X211783333Y-59616666D01*
X211816666Y-59650000D01*
X211883333Y-59683333D01*
X212150000Y-59683333D01*
X224966666Y-62583333D02*
X224866666Y-62616666D01*
X224700000Y-62616666D01*
X224633333Y-62583333D01*
X224600000Y-62550000D01*
X224566666Y-62483333D01*
X224566666Y-62416666D01*
X224600000Y-62350000D01*
X224633333Y-62316666D01*
X224700000Y-62283333D01*
X224833333Y-62250000D01*
X224900000Y-62216666D01*
X224933333Y-62183333D01*
X224966666Y-62116666D01*
X224966666Y-62050000D01*
X224933333Y-61983333D01*
X224900000Y-61950000D01*
X224833333Y-61916666D01*
X224666666Y-61916666D01*
X224566666Y-61950000D01*
X224333333Y-61916666D02*
X224166666Y-62616666D01*
X224033333Y-62116666D01*
X223900000Y-62616666D01*
X223733333Y-61916666D01*
X223333333Y-61916666D02*
X223200000Y-61916666D01*
X223133333Y-61950000D01*
X223066666Y-62016666D01*
X223033333Y-62150000D01*
X223033333Y-62383333D01*
X223066666Y-62516666D01*
X223133333Y-62583333D01*
X223200000Y-62616666D01*
X223333333Y-62616666D01*
X223400000Y-62583333D01*
X223466666Y-62516666D01*
X223500000Y-62383333D01*
X223500000Y-62150000D01*
X223466666Y-62016666D01*
X223400000Y-61950000D01*
X223333333Y-61916666D01*
D11*
X183071428Y-82107142D02*
X181928571Y-82107142D01*
D10*
X198016666Y-79116666D02*
X198250000Y-78783333D01*
X198416666Y-79116666D02*
X198416666Y-78416666D01*
X198150000Y-78416666D01*
X198083333Y-78450000D01*
X198050000Y-78483333D01*
X198016666Y-78550000D01*
X198016666Y-78650000D01*
X198050000Y-78716666D01*
X198083333Y-78750000D01*
X198150000Y-78783333D01*
X198416666Y-78783333D01*
X197783333Y-78416666D02*
X197316666Y-79116666D01*
X197316666Y-78416666D02*
X197783333Y-79116666D01*
X198433333Y-79616666D02*
X198033333Y-79616666D01*
X198233333Y-80316666D02*
X198233333Y-79616666D01*
X197866666Y-79616666D02*
X197400000Y-80316666D01*
X197400000Y-79616666D02*
X197866666Y-80316666D01*
X198433333Y-80850000D02*
X198500000Y-80816666D01*
X198600000Y-80816666D01*
X198700000Y-80850000D01*
X198766666Y-80916666D01*
X198800000Y-80983333D01*
X198833333Y-81116666D01*
X198833333Y-81216666D01*
X198800000Y-81350000D01*
X198766666Y-81416666D01*
X198700000Y-81483333D01*
X198600000Y-81516666D01*
X198533333Y-81516666D01*
X198433333Y-81483333D01*
X198400000Y-81450000D01*
X198400000Y-81216666D01*
X198533333Y-81216666D01*
X198100000Y-81516666D02*
X198100000Y-80816666D01*
X197700000Y-81516666D01*
X197700000Y-80816666D01*
X197366666Y-81516666D02*
X197366666Y-80816666D01*
X197200000Y-80816666D01*
X197100000Y-80850000D01*
X197033333Y-80916666D01*
X197000000Y-80983333D01*
X196966666Y-81116666D01*
X196966666Y-81216666D01*
X197000000Y-81350000D01*
X197033333Y-81416666D01*
X197100000Y-81483333D01*
X197200000Y-81516666D01*
X197366666Y-81516666D01*
X191033333Y-82150000D02*
X191566666Y-82150000D01*
X222016666Y-79116666D02*
X222250000Y-78783333D01*
X222416666Y-79116666D02*
X222416666Y-78416666D01*
X222150000Y-78416666D01*
X222083333Y-78450000D01*
X222050000Y-78483333D01*
X222016666Y-78550000D01*
X222016666Y-78650000D01*
X222050000Y-78716666D01*
X222083333Y-78750000D01*
X222150000Y-78783333D01*
X222416666Y-78783333D01*
X221783333Y-78416666D02*
X221316666Y-79116666D01*
X221316666Y-78416666D02*
X221783333Y-79116666D01*
X222433333Y-79616666D02*
X222033333Y-79616666D01*
X222233333Y-80316666D02*
X222233333Y-79616666D01*
X221866666Y-79616666D02*
X221400000Y-80316666D01*
X221400000Y-79616666D02*
X221866666Y-80316666D01*
X222433333Y-80850000D02*
X222500000Y-80816666D01*
X222600000Y-80816666D01*
X222700000Y-80850000D01*
X222766666Y-80916666D01*
X222800000Y-80983333D01*
X222833333Y-81116666D01*
X222833333Y-81216666D01*
X222800000Y-81350000D01*
X222766666Y-81416666D01*
X222700000Y-81483333D01*
X222600000Y-81516666D01*
X222533333Y-81516666D01*
X222433333Y-81483333D01*
X222400000Y-81450000D01*
X222400000Y-81216666D01*
X222533333Y-81216666D01*
X222100000Y-81516666D02*
X222100000Y-80816666D01*
X221700000Y-81516666D01*
X221700000Y-80816666D01*
X221366666Y-81516666D02*
X221366666Y-80816666D01*
X221200000Y-80816666D01*
X221100000Y-80850000D01*
X221033333Y-80916666D01*
X221000000Y-80983333D01*
X220966666Y-81116666D01*
X220966666Y-81216666D01*
X221000000Y-81350000D01*
X221033333Y-81416666D01*
X221100000Y-81483333D01*
X221200000Y-81516666D01*
X221366666Y-81516666D01*
D11*
X222857142Y-70678571D02*
X222857142Y-69178571D01*
X222357142Y-70250000D01*
X221857142Y-69178571D01*
X221857142Y-70678571D01*
X221142857Y-70678571D02*
X221142857Y-69678571D01*
X221142857Y-69964285D02*
X221071428Y-69821428D01*
X221000000Y-69750000D01*
X220857142Y-69678571D01*
X220714285Y-69678571D01*
X220214285Y-70535714D02*
X220142857Y-70607142D01*
X220214285Y-70678571D01*
X220285714Y-70607142D01*
X220214285Y-70535714D01*
X220214285Y-70678571D01*
X217571428Y-69250000D02*
X217714285Y-69178571D01*
X217928571Y-69178571D01*
X218142857Y-69250000D01*
X218285714Y-69392857D01*
X218357142Y-69535714D01*
X218428571Y-69821428D01*
X218428571Y-70035714D01*
X218357142Y-70321428D01*
X218285714Y-70464285D01*
X218142857Y-70607142D01*
X217928571Y-70678571D01*
X217785714Y-70678571D01*
X217571428Y-70607142D01*
X217500000Y-70535714D01*
X217500000Y-70035714D01*
X217785714Y-70035714D01*
X216214285Y-70678571D02*
X216214285Y-69892857D01*
X216285714Y-69750000D01*
X216428571Y-69678571D01*
X216714285Y-69678571D01*
X216857142Y-69750000D01*
X216214285Y-70607142D02*
X216357142Y-70678571D01*
X216714285Y-70678571D01*
X216857142Y-70607142D01*
X216928571Y-70464285D01*
X216928571Y-70321428D01*
X216857142Y-70178571D01*
X216714285Y-70107142D01*
X216357142Y-70107142D01*
X216214285Y-70035714D01*
X215500000Y-70678571D02*
X215500000Y-69678571D01*
X215500000Y-69964285D02*
X215428571Y-69821428D01*
X215357142Y-69750000D01*
X215214285Y-69678571D01*
X215071428Y-69678571D01*
X213928571Y-70678571D02*
X213928571Y-69178571D01*
X213928571Y-70607142D02*
X214071428Y-70678571D01*
X214357142Y-70678571D01*
X214500000Y-70607142D01*
X214571428Y-70535714D01*
X214642857Y-70392857D01*
X214642857Y-69964285D01*
X214571428Y-69821428D01*
X214500000Y-69750000D01*
X214357142Y-69678571D01*
X214071428Y-69678571D01*
X213928571Y-69750000D01*
X212642857Y-70607142D02*
X212785714Y-70678571D01*
X213071428Y-70678571D01*
X213214285Y-70607142D01*
X213285714Y-70464285D01*
X213285714Y-69892857D01*
X213214285Y-69750000D01*
X213071428Y-69678571D01*
X212785714Y-69678571D01*
X212642857Y-69750000D01*
X212571428Y-69892857D01*
X212571428Y-70035714D01*
X213285714Y-70178571D01*
X211928571Y-69678571D02*
X211928571Y-70678571D01*
X211928571Y-69821428D02*
X211857142Y-69750000D01*
X211714285Y-69678571D01*
X211500000Y-69678571D01*
X211357142Y-69750000D01*
X211285714Y-69892857D01*
X211285714Y-70678571D01*
X210000000Y-70607142D02*
X210142857Y-70678571D01*
X210428571Y-70678571D01*
X210571428Y-70607142D01*
X210642857Y-70464285D01*
X210642857Y-69892857D01*
X210571428Y-69750000D01*
X210428571Y-69678571D01*
X210142857Y-69678571D01*
X210000000Y-69750000D01*
X209928571Y-69892857D01*
X209928571Y-70035714D01*
X210642857Y-70178571D01*
X209285714Y-70678571D02*
X209285714Y-69678571D01*
X209285714Y-69964285D02*
X209214285Y-69821428D01*
X209142857Y-69750000D01*
X209000000Y-69678571D01*
X208857142Y-69678571D01*
X206785714Y-69178571D02*
X206785714Y-70250000D01*
X206857142Y-70464285D01*
X207000000Y-70607142D01*
X207214285Y-70678571D01*
X207357142Y-70678571D01*
X206071428Y-70678571D02*
X206071428Y-69678571D01*
X206071428Y-69964285D02*
X206000000Y-69821428D01*
X205928571Y-69750000D01*
X205785714Y-69678571D01*
X205642857Y-69678571D01*
X205142857Y-70535714D02*
X205071428Y-70607142D01*
X205142857Y-70678571D01*
X205214285Y-70607142D01*
X205142857Y-70535714D01*
X205142857Y-70678571D01*
X184707142Y-80192857D02*
X184492857Y-80264285D01*
X184421428Y-80335714D01*
X184350000Y-80478571D01*
X184350000Y-80692857D01*
X184421428Y-80835714D01*
X184492857Y-80907142D01*
X184635714Y-80978571D01*
X185207142Y-80978571D01*
X185207142Y-79478571D01*
X184707142Y-79478571D01*
X184564285Y-79550000D01*
X184492857Y-79621428D01*
X184421428Y-79764285D01*
X184421428Y-79907142D01*
X184492857Y-80050000D01*
X184564285Y-80121428D01*
X184707142Y-80192857D01*
X185207142Y-80192857D01*
X183778571Y-80550000D02*
X183064285Y-80550000D01*
X183921428Y-80978571D02*
X183421428Y-79478571D01*
X182921428Y-80978571D01*
X182635714Y-79478571D02*
X181778571Y-79478571D01*
X182207142Y-80978571D02*
X182207142Y-79478571D01*
D10*
X217316666Y-56150000D02*
X217383333Y-56116666D01*
X217483333Y-56116666D01*
X217583333Y-56150000D01*
X217650000Y-56216666D01*
X217683333Y-56283333D01*
X217716666Y-56416666D01*
X217716666Y-56516666D01*
X217683333Y-56650000D01*
X217650000Y-56716666D01*
X217583333Y-56783333D01*
X217483333Y-56816666D01*
X217416666Y-56816666D01*
X217316666Y-56783333D01*
X217283333Y-56750000D01*
X217283333Y-56516666D01*
X217416666Y-56516666D01*
X193316666Y-56150000D02*
X193383333Y-56116666D01*
X193483333Y-56116666D01*
X193583333Y-56150000D01*
X193650000Y-56216666D01*
X193683333Y-56283333D01*
X193716666Y-56416666D01*
X193716666Y-56516666D01*
X193683333Y-56650000D01*
X193650000Y-56716666D01*
X193583333Y-56783333D01*
X193483333Y-56816666D01*
X193416666Y-56816666D01*
X193316666Y-56783333D01*
X193283333Y-56750000D01*
X193283333Y-56516666D01*
X193416666Y-56516666D01*
X215433333Y-80816666D02*
X215200000Y-81516666D01*
X214966666Y-80816666D01*
X214766666Y-81316666D02*
X214433333Y-81316666D01*
X214833333Y-81516666D02*
X214600000Y-80816666D01*
X214366666Y-81516666D01*
X213800000Y-81516666D02*
X214133333Y-81516666D01*
X214133333Y-80816666D01*
X213666666Y-80816666D02*
X213433333Y-81516666D01*
X213200000Y-80816666D01*
X212966666Y-81150000D02*
X212733333Y-81150000D01*
X212633333Y-81516666D02*
X212966666Y-81516666D01*
X212966666Y-80816666D01*
X212633333Y-80816666D01*
X212533333Y-82150000D02*
X213066666Y-82150000D01*
X212800000Y-81883333D02*
X212800000Y-82416666D01*
X188666666Y-56616666D02*
X188333333Y-56616666D01*
X188733333Y-56816666D02*
X188500000Y-56116666D01*
X188266666Y-56816666D01*
D11*
X208707142Y-80192857D02*
X208492857Y-80264285D01*
X208421428Y-80335714D01*
X208350000Y-80478571D01*
X208350000Y-80692857D01*
X208421428Y-80835714D01*
X208492857Y-80907142D01*
X208635714Y-80978571D01*
X209207142Y-80978571D01*
X209207142Y-79478571D01*
X208707142Y-79478571D01*
X208564285Y-79550000D01*
X208492857Y-79621428D01*
X208421428Y-79764285D01*
X208421428Y-79907142D01*
X208492857Y-80050000D01*
X208564285Y-80121428D01*
X208707142Y-80192857D01*
X209207142Y-80192857D01*
X207778571Y-80550000D02*
X207064285Y-80550000D01*
X207921428Y-80978571D02*
X207421428Y-79478571D01*
X206921428Y-80978571D01*
X206635714Y-79478571D02*
X205778571Y-79478571D01*
X206207142Y-80978571D02*
X206207142Y-79478571D01*
D10*
X208738095Y-72452380D02*
X208738095Y-71785714D01*
X208738095Y-71976190D02*
X208690476Y-71880952D01*
X208642857Y-71833333D01*
X208547619Y-71785714D01*
X208452380Y-71785714D01*
X207738095Y-72404761D02*
X207833333Y-72452380D01*
X208023809Y-72452380D01*
X208119047Y-72404761D01*
X208166666Y-72309523D01*
X208166666Y-71928571D01*
X208119047Y-71833333D01*
X208023809Y-71785714D01*
X207833333Y-71785714D01*
X207738095Y-71833333D01*
X207690476Y-71928571D01*
X207690476Y-72023809D01*
X208166666Y-72119047D01*
X207357142Y-71785714D02*
X207119047Y-72452380D01*
X206880952Y-71785714D01*
X205214285Y-72452380D02*
X205785714Y-72452380D01*
X205500000Y-72452380D02*
X205500000Y-71452380D01*
X205595238Y-71595238D01*
X205690476Y-71690476D01*
X205785714Y-71738095D01*
D11*
X207071428Y-82107142D02*
X205928571Y-82107142D01*
D10*
X191433333Y-80816666D02*
X191200000Y-81516666D01*
X190966666Y-80816666D01*
X190766666Y-81316666D02*
X190433333Y-81316666D01*
X190833333Y-81516666D02*
X190600000Y-80816666D01*
X190366666Y-81516666D01*
X189800000Y-81516666D02*
X190133333Y-81516666D01*
X190133333Y-80816666D01*
X189666666Y-80816666D02*
X189433333Y-81516666D01*
X189200000Y-80816666D01*
X188966666Y-81150000D02*
X188733333Y-81150000D01*
X188633333Y-81516666D02*
X188966666Y-81516666D01*
X188966666Y-80816666D01*
X188633333Y-80816666D01*
D11*
X198857142Y-70678571D02*
X198857142Y-69178571D01*
X198357142Y-70250000D01*
X197857142Y-69178571D01*
X197857142Y-70678571D01*
X197142857Y-70678571D02*
X197142857Y-69678571D01*
X197142857Y-69964285D02*
X197071428Y-69821428D01*
X197000000Y-69750000D01*
X196857142Y-69678571D01*
X196714285Y-69678571D01*
X196214285Y-70535714D02*
X196142857Y-70607142D01*
X196214285Y-70678571D01*
X196285714Y-70607142D01*
X196214285Y-70535714D01*
X196214285Y-70678571D01*
X193571428Y-69250000D02*
X193714285Y-69178571D01*
X193928571Y-69178571D01*
X194142857Y-69250000D01*
X194285714Y-69392857D01*
X194357142Y-69535714D01*
X194428571Y-69821428D01*
X194428571Y-70035714D01*
X194357142Y-70321428D01*
X194285714Y-70464285D01*
X194142857Y-70607142D01*
X193928571Y-70678571D01*
X193785714Y-70678571D01*
X193571428Y-70607142D01*
X193500000Y-70535714D01*
X193500000Y-70035714D01*
X193785714Y-70035714D01*
X192214285Y-70678571D02*
X192214285Y-69892857D01*
X192285714Y-69750000D01*
X192428571Y-69678571D01*
X192714285Y-69678571D01*
X192857142Y-69750000D01*
X192214285Y-70607142D02*
X192357142Y-70678571D01*
X192714285Y-70678571D01*
X192857142Y-70607142D01*
X192928571Y-70464285D01*
X192928571Y-70321428D01*
X192857142Y-70178571D01*
X192714285Y-70107142D01*
X192357142Y-70107142D01*
X192214285Y-70035714D01*
X191500000Y-70678571D02*
X191500000Y-69678571D01*
X191500000Y-69964285D02*
X191428571Y-69821428D01*
X191357142Y-69750000D01*
X191214285Y-69678571D01*
X191071428Y-69678571D01*
X189928571Y-70678571D02*
X189928571Y-69178571D01*
X189928571Y-70607142D02*
X190071428Y-70678571D01*
X190357142Y-70678571D01*
X190500000Y-70607142D01*
X190571428Y-70535714D01*
X190642857Y-70392857D01*
X190642857Y-69964285D01*
X190571428Y-69821428D01*
X190500000Y-69750000D01*
X190357142Y-69678571D01*
X190071428Y-69678571D01*
X189928571Y-69750000D01*
X188642857Y-70607142D02*
X188785714Y-70678571D01*
X189071428Y-70678571D01*
X189214285Y-70607142D01*
X189285714Y-70464285D01*
X189285714Y-69892857D01*
X189214285Y-69750000D01*
X189071428Y-69678571D01*
X188785714Y-69678571D01*
X188642857Y-69750000D01*
X188571428Y-69892857D01*
X188571428Y-70035714D01*
X189285714Y-70178571D01*
X187928571Y-69678571D02*
X187928571Y-70678571D01*
X187928571Y-69821428D02*
X187857142Y-69750000D01*
X187714285Y-69678571D01*
X187500000Y-69678571D01*
X187357142Y-69750000D01*
X187285714Y-69892857D01*
X187285714Y-70678571D01*
X186000000Y-70607142D02*
X186142857Y-70678571D01*
X186428571Y-70678571D01*
X186571428Y-70607142D01*
X186642857Y-70464285D01*
X186642857Y-69892857D01*
X186571428Y-69750000D01*
X186428571Y-69678571D01*
X186142857Y-69678571D01*
X186000000Y-69750000D01*
X185928571Y-69892857D01*
X185928571Y-70035714D01*
X186642857Y-70178571D01*
X185285714Y-70678571D02*
X185285714Y-69678571D01*
X185285714Y-69964285D02*
X185214285Y-69821428D01*
X185142857Y-69750000D01*
X185000000Y-69678571D01*
X184857142Y-69678571D01*
X182785714Y-69178571D02*
X182785714Y-70250000D01*
X182857142Y-70464285D01*
X183000000Y-70607142D01*
X183214285Y-70678571D01*
X183357142Y-70678571D01*
X182071428Y-70678571D02*
X182071428Y-69678571D01*
X182071428Y-69964285D02*
X182000000Y-69821428D01*
X181928571Y-69750000D01*
X181785714Y-69678571D01*
X181642857Y-69678571D01*
X181142857Y-70535714D02*
X181071428Y-70607142D01*
X181142857Y-70678571D01*
X181214285Y-70607142D01*
X181142857Y-70535714D01*
X181142857Y-70678571D01*
D10*
X200966666Y-62583333D02*
X200866666Y-62616666D01*
X200700000Y-62616666D01*
X200633333Y-62583333D01*
X200600000Y-62550000D01*
X200566666Y-62483333D01*
X200566666Y-62416666D01*
X200600000Y-62350000D01*
X200633333Y-62316666D01*
X200700000Y-62283333D01*
X200833333Y-62250000D01*
X200900000Y-62216666D01*
X200933333Y-62183333D01*
X200966666Y-62116666D01*
X200966666Y-62050000D01*
X200933333Y-61983333D01*
X200900000Y-61950000D01*
X200833333Y-61916666D01*
X200666666Y-61916666D01*
X200566666Y-61950000D01*
X200333333Y-61916666D02*
X200166666Y-62616666D01*
X200033333Y-62116666D01*
X199900000Y-62616666D01*
X199733333Y-61916666D01*
X199333333Y-61916666D02*
X199200000Y-61916666D01*
X199133333Y-61950000D01*
X199066666Y-62016666D01*
X199033333Y-62150000D01*
X199033333Y-62383333D01*
X199066666Y-62516666D01*
X199133333Y-62583333D01*
X199200000Y-62616666D01*
X199333333Y-62616666D01*
X199400000Y-62583333D01*
X199466666Y-62516666D01*
X199500000Y-62383333D01*
X199500000Y-62150000D01*
X199466666Y-62016666D01*
X199400000Y-61950000D01*
X199333333Y-61916666D01*
X194450000Y-59983333D02*
X194350000Y-60016666D01*
X194183333Y-60016666D01*
X194116666Y-59983333D01*
X194083333Y-59950000D01*
X194050000Y-59883333D01*
X194050000Y-59816666D01*
X194083333Y-59750000D01*
X194116666Y-59716666D01*
X194183333Y-59683333D01*
X194316666Y-59650000D01*
X194383333Y-59616666D01*
X194416666Y-59583333D01*
X194450000Y-59516666D01*
X194450000Y-59450000D01*
X194416666Y-59383333D01*
X194383333Y-59350000D01*
X194316666Y-59316666D01*
X194150000Y-59316666D01*
X194050000Y-59350000D01*
X193616666Y-59316666D02*
X193483333Y-59316666D01*
X193416666Y-59350000D01*
X193350000Y-59416666D01*
X193316666Y-59550000D01*
X193316666Y-59783333D01*
X193350000Y-59916666D01*
X193416666Y-59983333D01*
X193483333Y-60016666D01*
X193616666Y-60016666D01*
X193683333Y-59983333D01*
X193750000Y-59916666D01*
X193783333Y-59783333D01*
X193783333Y-59550000D01*
X193750000Y-59416666D01*
X193683333Y-59350000D01*
X193616666Y-59316666D01*
X193016666Y-60016666D02*
X193016666Y-59316666D01*
X192350000Y-60016666D02*
X192683333Y-60016666D01*
X192683333Y-59316666D01*
X191616666Y-59983333D02*
X191516666Y-60016666D01*
X191350000Y-60016666D01*
X191283333Y-59983333D01*
X191250000Y-59950000D01*
X191216666Y-59883333D01*
X191216666Y-59816666D01*
X191250000Y-59750000D01*
X191283333Y-59716666D01*
X191350000Y-59683333D01*
X191483333Y-59650000D01*
X191550000Y-59616666D01*
X191583333Y-59583333D01*
X191616666Y-59516666D01*
X191616666Y-59450000D01*
X191583333Y-59383333D01*
X191550000Y-59350000D01*
X191483333Y-59316666D01*
X191316666Y-59316666D01*
X191216666Y-59350000D01*
X190916666Y-59650000D02*
X190683333Y-59650000D01*
X190583333Y-60016666D02*
X190916666Y-60016666D01*
X190916666Y-59316666D01*
X190583333Y-59316666D01*
X190283333Y-60016666D02*
X190283333Y-59316666D01*
X189883333Y-60016666D01*
X189883333Y-59316666D01*
X189583333Y-59983333D02*
X189483333Y-60016666D01*
X189316666Y-60016666D01*
X189250000Y-59983333D01*
X189216666Y-59950000D01*
X189183333Y-59883333D01*
X189183333Y-59816666D01*
X189216666Y-59750000D01*
X189250000Y-59716666D01*
X189316666Y-59683333D01*
X189450000Y-59650000D01*
X189516666Y-59616666D01*
X189550000Y-59583333D01*
X189583333Y-59516666D01*
X189583333Y-59450000D01*
X189550000Y-59383333D01*
X189516666Y-59350000D01*
X189450000Y-59316666D01*
X189283333Y-59316666D01*
X189183333Y-59350000D01*
X188750000Y-59316666D02*
X188616666Y-59316666D01*
X188550000Y-59350000D01*
X188483333Y-59416666D01*
X188450000Y-59550000D01*
X188450000Y-59783333D01*
X188483333Y-59916666D01*
X188550000Y-59983333D01*
X188616666Y-60016666D01*
X188750000Y-60016666D01*
X188816666Y-59983333D01*
X188883333Y-59916666D01*
X188916666Y-59783333D01*
X188916666Y-59550000D01*
X188883333Y-59416666D01*
X188816666Y-59350000D01*
X188750000Y-59316666D01*
X187750000Y-60016666D02*
X187983333Y-59683333D01*
X188150000Y-60016666D02*
X188150000Y-59316666D01*
X187883333Y-59316666D01*
X187816666Y-59350000D01*
X187783333Y-59383333D01*
X187750000Y-59450000D01*
X187750000Y-59550000D01*
X187783333Y-59616666D01*
X187816666Y-59650000D01*
X187883333Y-59683333D01*
X188150000Y-59683333D01*
X215033333Y-114150000D02*
X215566666Y-114150000D01*
X184738095Y-104452380D02*
X184738095Y-103785714D01*
X184738095Y-103976190D02*
X184690476Y-103880952D01*
X184642857Y-103833333D01*
X184547619Y-103785714D01*
X184452380Y-103785714D01*
X183738095Y-104404761D02*
X183833333Y-104452380D01*
X184023809Y-104452380D01*
X184119047Y-104404761D01*
X184166666Y-104309523D01*
X184166666Y-103928571D01*
X184119047Y-103833333D01*
X184023809Y-103785714D01*
X183833333Y-103785714D01*
X183738095Y-103833333D01*
X183690476Y-103928571D01*
X183690476Y-104023809D01*
X184166666Y-104119047D01*
X183357142Y-103785714D02*
X183119047Y-104452380D01*
X182880952Y-103785714D01*
X181214285Y-104452380D02*
X181785714Y-104452380D01*
X181500000Y-104452380D02*
X181500000Y-103452380D01*
X181595238Y-103595238D01*
X181690476Y-103690476D01*
X181785714Y-103738095D01*
X215233333Y-88116666D02*
X215000000Y-88816666D01*
X214766666Y-88116666D01*
X212666666Y-88616666D02*
X212333333Y-88616666D01*
X212733333Y-88816666D02*
X212500000Y-88116666D01*
X212266666Y-88816666D01*
X188533333Y-114150000D02*
X189066666Y-114150000D01*
X188800000Y-113883333D02*
X188800000Y-114416666D01*
X225116666Y-108816666D02*
X225116666Y-109383333D01*
X225083333Y-109450000D01*
X225050000Y-109483333D01*
X224983333Y-109516666D01*
X224850000Y-109516666D01*
X224783333Y-109483333D01*
X224750000Y-109450000D01*
X224716666Y-109383333D01*
X224716666Y-108816666D01*
X224416666Y-109316666D02*
X224083333Y-109316666D01*
X224483333Y-109516666D02*
X224250000Y-108816666D01*
X224016666Y-109516666D01*
X223383333Y-109516666D02*
X223616666Y-109183333D01*
X223783333Y-109516666D02*
X223783333Y-108816666D01*
X223516666Y-108816666D01*
X223450000Y-108850000D01*
X223416666Y-108883333D01*
X223383333Y-108950000D01*
X223383333Y-109050000D01*
X223416666Y-109116666D01*
X223450000Y-109150000D01*
X223516666Y-109183333D01*
X223783333Y-109183333D01*
X223183333Y-108816666D02*
X222783333Y-108816666D01*
X222983333Y-109516666D02*
X222983333Y-108816666D01*
X191233333Y-88116666D02*
X191000000Y-88816666D01*
X190766666Y-88116666D01*
D11*
X185571428Y-114107142D02*
X184428571Y-114107142D01*
X185000000Y-114678571D02*
X185000000Y-113535714D01*
D10*
X201116666Y-108816666D02*
X201116666Y-109383333D01*
X201083333Y-109450000D01*
X201050000Y-109483333D01*
X200983333Y-109516666D01*
X200850000Y-109516666D01*
X200783333Y-109483333D01*
X200750000Y-109450000D01*
X200716666Y-109383333D01*
X200716666Y-108816666D01*
X200416666Y-109316666D02*
X200083333Y-109316666D01*
X200483333Y-109516666D02*
X200250000Y-108816666D01*
X200016666Y-109516666D01*
X199383333Y-109516666D02*
X199616666Y-109183333D01*
X199783333Y-109516666D02*
X199783333Y-108816666D01*
X199516666Y-108816666D01*
X199450000Y-108850000D01*
X199416666Y-108883333D01*
X199383333Y-108950000D01*
X199383333Y-109050000D01*
X199416666Y-109116666D01*
X199450000Y-109150000D01*
X199516666Y-109183333D01*
X199783333Y-109183333D01*
X199183333Y-108816666D02*
X198783333Y-108816666D01*
X198983333Y-109516666D02*
X198983333Y-108816666D01*
D11*
X209571428Y-114107142D02*
X208428571Y-114107142D01*
X209000000Y-114678571D02*
X209000000Y-113535714D01*
D10*
X218450000Y-91983333D02*
X218350000Y-92016666D01*
X218183333Y-92016666D01*
X218116666Y-91983333D01*
X218083333Y-91950000D01*
X218050000Y-91883333D01*
X218050000Y-91816666D01*
X218083333Y-91750000D01*
X218116666Y-91716666D01*
X218183333Y-91683333D01*
X218316666Y-91650000D01*
X218383333Y-91616666D01*
X218416666Y-91583333D01*
X218450000Y-91516666D01*
X218450000Y-91450000D01*
X218416666Y-91383333D01*
X218383333Y-91350000D01*
X218316666Y-91316666D01*
X218150000Y-91316666D01*
X218050000Y-91350000D01*
X217616666Y-91316666D02*
X217483333Y-91316666D01*
X217416666Y-91350000D01*
X217350000Y-91416666D01*
X217316666Y-91550000D01*
X217316666Y-91783333D01*
X217350000Y-91916666D01*
X217416666Y-91983333D01*
X217483333Y-92016666D01*
X217616666Y-92016666D01*
X217683333Y-91983333D01*
X217750000Y-91916666D01*
X217783333Y-91783333D01*
X217783333Y-91550000D01*
X217750000Y-91416666D01*
X217683333Y-91350000D01*
X217616666Y-91316666D01*
X217016666Y-92016666D02*
X217016666Y-91316666D01*
X216350000Y-92016666D02*
X216683333Y-92016666D01*
X216683333Y-91316666D01*
X215616666Y-91983333D02*
X215516666Y-92016666D01*
X215350000Y-92016666D01*
X215283333Y-91983333D01*
X215250000Y-91950000D01*
X215216666Y-91883333D01*
X215216666Y-91816666D01*
X215250000Y-91750000D01*
X215283333Y-91716666D01*
X215350000Y-91683333D01*
X215483333Y-91650000D01*
X215550000Y-91616666D01*
X215583333Y-91583333D01*
X215616666Y-91516666D01*
X215616666Y-91450000D01*
X215583333Y-91383333D01*
X215550000Y-91350000D01*
X215483333Y-91316666D01*
X215316666Y-91316666D01*
X215216666Y-91350000D01*
X214916666Y-91650000D02*
X214683333Y-91650000D01*
X214583333Y-92016666D02*
X214916666Y-92016666D01*
X214916666Y-91316666D01*
X214583333Y-91316666D01*
X214283333Y-92016666D02*
X214283333Y-91316666D01*
X213883333Y-92016666D01*
X213883333Y-91316666D01*
X213583333Y-91983333D02*
X213483333Y-92016666D01*
X213316666Y-92016666D01*
X213250000Y-91983333D01*
X213216666Y-91950000D01*
X213183333Y-91883333D01*
X213183333Y-91816666D01*
X213216666Y-91750000D01*
X213250000Y-91716666D01*
X213316666Y-91683333D01*
X213450000Y-91650000D01*
X213516666Y-91616666D01*
X213550000Y-91583333D01*
X213583333Y-91516666D01*
X213583333Y-91450000D01*
X213550000Y-91383333D01*
X213516666Y-91350000D01*
X213450000Y-91316666D01*
X213283333Y-91316666D01*
X213183333Y-91350000D01*
X212750000Y-91316666D02*
X212616666Y-91316666D01*
X212550000Y-91350000D01*
X212483333Y-91416666D01*
X212450000Y-91550000D01*
X212450000Y-91783333D01*
X212483333Y-91916666D01*
X212550000Y-91983333D01*
X212616666Y-92016666D01*
X212750000Y-92016666D01*
X212816666Y-91983333D01*
X212883333Y-91916666D01*
X212916666Y-91783333D01*
X212916666Y-91550000D01*
X212883333Y-91416666D01*
X212816666Y-91350000D01*
X212750000Y-91316666D01*
X211750000Y-92016666D02*
X211983333Y-91683333D01*
X212150000Y-92016666D02*
X212150000Y-91316666D01*
X211883333Y-91316666D01*
X211816666Y-91350000D01*
X211783333Y-91383333D01*
X211750000Y-91450000D01*
X211750000Y-91550000D01*
X211783333Y-91616666D01*
X211816666Y-91650000D01*
X211883333Y-91683333D01*
X212150000Y-91683333D01*
X224966666Y-94583333D02*
X224866666Y-94616666D01*
X224700000Y-94616666D01*
X224633333Y-94583333D01*
X224600000Y-94550000D01*
X224566666Y-94483333D01*
X224566666Y-94416666D01*
X224600000Y-94350000D01*
X224633333Y-94316666D01*
X224700000Y-94283333D01*
X224833333Y-94250000D01*
X224900000Y-94216666D01*
X224933333Y-94183333D01*
X224966666Y-94116666D01*
X224966666Y-94050000D01*
X224933333Y-93983333D01*
X224900000Y-93950000D01*
X224833333Y-93916666D01*
X224666666Y-93916666D01*
X224566666Y-93950000D01*
X224333333Y-93916666D02*
X224166666Y-94616666D01*
X224033333Y-94116666D01*
X223900000Y-94616666D01*
X223733333Y-93916666D01*
X223333333Y-93916666D02*
X223200000Y-93916666D01*
X223133333Y-93950000D01*
X223066666Y-94016666D01*
X223033333Y-94150000D01*
X223033333Y-94383333D01*
X223066666Y-94516666D01*
X223133333Y-94583333D01*
X223200000Y-94616666D01*
X223333333Y-94616666D01*
X223400000Y-94583333D01*
X223466666Y-94516666D01*
X223500000Y-94383333D01*
X223500000Y-94150000D01*
X223466666Y-94016666D01*
X223400000Y-93950000D01*
X223333333Y-93916666D01*
D11*
X183071428Y-114107142D02*
X181928571Y-114107142D01*
D10*
X198016666Y-111116666D02*
X198250000Y-110783333D01*
X198416666Y-111116666D02*
X198416666Y-110416666D01*
X198150000Y-110416666D01*
X198083333Y-110450000D01*
X198050000Y-110483333D01*
X198016666Y-110550000D01*
X198016666Y-110650000D01*
X198050000Y-110716666D01*
X198083333Y-110750000D01*
X198150000Y-110783333D01*
X198416666Y-110783333D01*
X197783333Y-110416666D02*
X197316666Y-111116666D01*
X197316666Y-110416666D02*
X197783333Y-111116666D01*
X198433333Y-111616666D02*
X198033333Y-111616666D01*
X198233333Y-112316666D02*
X198233333Y-111616666D01*
X197866666Y-111616666D02*
X197400000Y-112316666D01*
X197400000Y-111616666D02*
X197866666Y-112316666D01*
X198433333Y-112850000D02*
X198500000Y-112816666D01*
X198600000Y-112816666D01*
X198700000Y-112850000D01*
X198766666Y-112916666D01*
X198800000Y-112983333D01*
X198833333Y-113116666D01*
X198833333Y-113216666D01*
X198800000Y-113350000D01*
X198766666Y-113416666D01*
X198700000Y-113483333D01*
X198600000Y-113516666D01*
X198533333Y-113516666D01*
X198433333Y-113483333D01*
X198400000Y-113450000D01*
X198400000Y-113216666D01*
X198533333Y-113216666D01*
X198100000Y-113516666D02*
X198100000Y-112816666D01*
X197700000Y-113516666D01*
X197700000Y-112816666D01*
X197366666Y-113516666D02*
X197366666Y-112816666D01*
X197200000Y-112816666D01*
X197100000Y-112850000D01*
X197033333Y-112916666D01*
X197000000Y-112983333D01*
X196966666Y-113116666D01*
X196966666Y-113216666D01*
X197000000Y-113350000D01*
X197033333Y-113416666D01*
X197100000Y-113483333D01*
X197200000Y-113516666D01*
X197366666Y-113516666D01*
X191033333Y-114150000D02*
X191566666Y-114150000D01*
X222016666Y-111116666D02*
X222250000Y-110783333D01*
X222416666Y-111116666D02*
X222416666Y-110416666D01*
X222150000Y-110416666D01*
X222083333Y-110450000D01*
X222050000Y-110483333D01*
X222016666Y-110550000D01*
X222016666Y-110650000D01*
X222050000Y-110716666D01*
X222083333Y-110750000D01*
X222150000Y-110783333D01*
X222416666Y-110783333D01*
X221783333Y-110416666D02*
X221316666Y-111116666D01*
X221316666Y-110416666D02*
X221783333Y-111116666D01*
X222433333Y-111616666D02*
X222033333Y-111616666D01*
X222233333Y-112316666D02*
X222233333Y-111616666D01*
X221866666Y-111616666D02*
X221400000Y-112316666D01*
X221400000Y-111616666D02*
X221866666Y-112316666D01*
X222433333Y-112850000D02*
X222500000Y-112816666D01*
X222600000Y-112816666D01*
X222700000Y-112850000D01*
X222766666Y-112916666D01*
X222800000Y-112983333D01*
X222833333Y-113116666D01*
X222833333Y-113216666D01*
X222800000Y-113350000D01*
X222766666Y-113416666D01*
X222700000Y-113483333D01*
X222600000Y-113516666D01*
X222533333Y-113516666D01*
X222433333Y-113483333D01*
X222400000Y-113450000D01*
X222400000Y-113216666D01*
X222533333Y-113216666D01*
X222100000Y-113516666D02*
X222100000Y-112816666D01*
X221700000Y-113516666D01*
X221700000Y-112816666D01*
X221366666Y-113516666D02*
X221366666Y-112816666D01*
X221200000Y-112816666D01*
X221100000Y-112850000D01*
X221033333Y-112916666D01*
X221000000Y-112983333D01*
X220966666Y-113116666D01*
X220966666Y-113216666D01*
X221000000Y-113350000D01*
X221033333Y-113416666D01*
X221100000Y-113483333D01*
X221200000Y-113516666D01*
X221366666Y-113516666D01*
D11*
X222857142Y-102678571D02*
X222857142Y-101178571D01*
X222357142Y-102250000D01*
X221857142Y-101178571D01*
X221857142Y-102678571D01*
X221142857Y-102678571D02*
X221142857Y-101678571D01*
X221142857Y-101964285D02*
X221071428Y-101821428D01*
X221000000Y-101750000D01*
X220857142Y-101678571D01*
X220714285Y-101678571D01*
X220214285Y-102535714D02*
X220142857Y-102607142D01*
X220214285Y-102678571D01*
X220285714Y-102607142D01*
X220214285Y-102535714D01*
X220214285Y-102678571D01*
X217571428Y-101250000D02*
X217714285Y-101178571D01*
X217928571Y-101178571D01*
X218142857Y-101250000D01*
X218285714Y-101392857D01*
X218357142Y-101535714D01*
X218428571Y-101821428D01*
X218428571Y-102035714D01*
X218357142Y-102321428D01*
X218285714Y-102464285D01*
X218142857Y-102607142D01*
X217928571Y-102678571D01*
X217785714Y-102678571D01*
X217571428Y-102607142D01*
X217500000Y-102535714D01*
X217500000Y-102035714D01*
X217785714Y-102035714D01*
X216214285Y-102678571D02*
X216214285Y-101892857D01*
X216285714Y-101750000D01*
X216428571Y-101678571D01*
X216714285Y-101678571D01*
X216857142Y-101750000D01*
X216214285Y-102607142D02*
X216357142Y-102678571D01*
X216714285Y-102678571D01*
X216857142Y-102607142D01*
X216928571Y-102464285D01*
X216928571Y-102321428D01*
X216857142Y-102178571D01*
X216714285Y-102107142D01*
X216357142Y-102107142D01*
X216214285Y-102035714D01*
X215500000Y-102678571D02*
X215500000Y-101678571D01*
X215500000Y-101964285D02*
X215428571Y-101821428D01*
X215357142Y-101750000D01*
X215214285Y-101678571D01*
X215071428Y-101678571D01*
X213928571Y-102678571D02*
X213928571Y-101178571D01*
X213928571Y-102607142D02*
X214071428Y-102678571D01*
X214357142Y-102678571D01*
X214500000Y-102607142D01*
X214571428Y-102535714D01*
X214642857Y-102392857D01*
X214642857Y-101964285D01*
X214571428Y-101821428D01*
X214500000Y-101750000D01*
X214357142Y-101678571D01*
X214071428Y-101678571D01*
X213928571Y-101750000D01*
X212642857Y-102607142D02*
X212785714Y-102678571D01*
X213071428Y-102678571D01*
X213214285Y-102607142D01*
X213285714Y-102464285D01*
X213285714Y-101892857D01*
X213214285Y-101750000D01*
X213071428Y-101678571D01*
X212785714Y-101678571D01*
X212642857Y-101750000D01*
X212571428Y-101892857D01*
X212571428Y-102035714D01*
X213285714Y-102178571D01*
X211928571Y-101678571D02*
X211928571Y-102678571D01*
X211928571Y-101821428D02*
X211857142Y-101750000D01*
X211714285Y-101678571D01*
X211500000Y-101678571D01*
X211357142Y-101750000D01*
X211285714Y-101892857D01*
X211285714Y-102678571D01*
X210000000Y-102607142D02*
X210142857Y-102678571D01*
X210428571Y-102678571D01*
X210571428Y-102607142D01*
X210642857Y-102464285D01*
X210642857Y-101892857D01*
X210571428Y-101750000D01*
X210428571Y-101678571D01*
X210142857Y-101678571D01*
X210000000Y-101750000D01*
X209928571Y-101892857D01*
X209928571Y-102035714D01*
X210642857Y-102178571D01*
X209285714Y-102678571D02*
X209285714Y-101678571D01*
X209285714Y-101964285D02*
X209214285Y-101821428D01*
X209142857Y-101750000D01*
X209000000Y-101678571D01*
X208857142Y-101678571D01*
X206785714Y-101178571D02*
X206785714Y-102250000D01*
X206857142Y-102464285D01*
X207000000Y-102607142D01*
X207214285Y-102678571D01*
X207357142Y-102678571D01*
X206071428Y-102678571D02*
X206071428Y-101678571D01*
X206071428Y-101964285D02*
X206000000Y-101821428D01*
X205928571Y-101750000D01*
X205785714Y-101678571D01*
X205642857Y-101678571D01*
X205142857Y-102535714D02*
X205071428Y-102607142D01*
X205142857Y-102678571D01*
X205214285Y-102607142D01*
X205142857Y-102535714D01*
X205142857Y-102678571D01*
X184707142Y-112192857D02*
X184492857Y-112264285D01*
X184421428Y-112335714D01*
X184350000Y-112478571D01*
X184350000Y-112692857D01*
X184421428Y-112835714D01*
X184492857Y-112907142D01*
X184635714Y-112978571D01*
X185207142Y-112978571D01*
X185207142Y-111478571D01*
X184707142Y-111478571D01*
X184564285Y-111550000D01*
X184492857Y-111621428D01*
X184421428Y-111764285D01*
X184421428Y-111907142D01*
X184492857Y-112050000D01*
X184564285Y-112121428D01*
X184707142Y-112192857D01*
X185207142Y-112192857D01*
X183778571Y-112550000D02*
X183064285Y-112550000D01*
X183921428Y-112978571D02*
X183421428Y-111478571D01*
X182921428Y-112978571D01*
X182635714Y-111478571D02*
X181778571Y-111478571D01*
X182207142Y-112978571D02*
X182207142Y-111478571D01*
D10*
X217316666Y-88150000D02*
X217383333Y-88116666D01*
X217483333Y-88116666D01*
X217583333Y-88150000D01*
X217650000Y-88216666D01*
X217683333Y-88283333D01*
X217716666Y-88416666D01*
X217716666Y-88516666D01*
X217683333Y-88650000D01*
X217650000Y-88716666D01*
X217583333Y-88783333D01*
X217483333Y-88816666D01*
X217416666Y-88816666D01*
X217316666Y-88783333D01*
X217283333Y-88750000D01*
X217283333Y-88516666D01*
X217416666Y-88516666D01*
X193316666Y-88150000D02*
X193383333Y-88116666D01*
X193483333Y-88116666D01*
X193583333Y-88150000D01*
X193650000Y-88216666D01*
X193683333Y-88283333D01*
X193716666Y-88416666D01*
X193716666Y-88516666D01*
X193683333Y-88650000D01*
X193650000Y-88716666D01*
X193583333Y-88783333D01*
X193483333Y-88816666D01*
X193416666Y-88816666D01*
X193316666Y-88783333D01*
X193283333Y-88750000D01*
X193283333Y-88516666D01*
X193416666Y-88516666D01*
X215433333Y-112816666D02*
X215200000Y-113516666D01*
X214966666Y-112816666D01*
X214766666Y-113316666D02*
X214433333Y-113316666D01*
X214833333Y-113516666D02*
X214600000Y-112816666D01*
X214366666Y-113516666D01*
X213800000Y-113516666D02*
X214133333Y-113516666D01*
X214133333Y-112816666D01*
X213666666Y-112816666D02*
X213433333Y-113516666D01*
X213200000Y-112816666D01*
X212966666Y-113150000D02*
X212733333Y-113150000D01*
X212633333Y-113516666D02*
X212966666Y-113516666D01*
X212966666Y-112816666D01*
X212633333Y-112816666D01*
X212533333Y-114150000D02*
X213066666Y-114150000D01*
X212800000Y-113883333D02*
X212800000Y-114416666D01*
X188666666Y-88616666D02*
X188333333Y-88616666D01*
X188733333Y-88816666D02*
X188500000Y-88116666D01*
X188266666Y-88816666D01*
D11*
X208707142Y-112192857D02*
X208492857Y-112264285D01*
X208421428Y-112335714D01*
X208350000Y-112478571D01*
X208350000Y-112692857D01*
X208421428Y-112835714D01*
X208492857Y-112907142D01*
X208635714Y-112978571D01*
X209207142Y-112978571D01*
X209207142Y-111478571D01*
X208707142Y-111478571D01*
X208564285Y-111550000D01*
X208492857Y-111621428D01*
X208421428Y-111764285D01*
X208421428Y-111907142D01*
X208492857Y-112050000D01*
X208564285Y-112121428D01*
X208707142Y-112192857D01*
X209207142Y-112192857D01*
X207778571Y-112550000D02*
X207064285Y-112550000D01*
X207921428Y-112978571D02*
X207421428Y-111478571D01*
X206921428Y-112978571D01*
X206635714Y-111478571D02*
X205778571Y-111478571D01*
X206207142Y-112978571D02*
X206207142Y-111478571D01*
D10*
X208738095Y-104452380D02*
X208738095Y-103785714D01*
X208738095Y-103976190D02*
X208690476Y-103880952D01*
X208642857Y-103833333D01*
X208547619Y-103785714D01*
X208452380Y-103785714D01*
X207738095Y-104404761D02*
X207833333Y-104452380D01*
X208023809Y-104452380D01*
X208119047Y-104404761D01*
X208166666Y-104309523D01*
X208166666Y-103928571D01*
X208119047Y-103833333D01*
X208023809Y-103785714D01*
X207833333Y-103785714D01*
X207738095Y-103833333D01*
X207690476Y-103928571D01*
X207690476Y-104023809D01*
X208166666Y-104119047D01*
X207357142Y-103785714D02*
X207119047Y-104452380D01*
X206880952Y-103785714D01*
X205214285Y-104452380D02*
X205785714Y-104452380D01*
X205500000Y-104452380D02*
X205500000Y-103452380D01*
X205595238Y-103595238D01*
X205690476Y-103690476D01*
X205785714Y-103738095D01*
D11*
X207071428Y-114107142D02*
X205928571Y-114107142D01*
D10*
X191433333Y-112816666D02*
X191200000Y-113516666D01*
X190966666Y-112816666D01*
X190766666Y-113316666D02*
X190433333Y-113316666D01*
X190833333Y-113516666D02*
X190600000Y-112816666D01*
X190366666Y-113516666D01*
X189800000Y-113516666D02*
X190133333Y-113516666D01*
X190133333Y-112816666D01*
X189666666Y-112816666D02*
X189433333Y-113516666D01*
X189200000Y-112816666D01*
X188966666Y-113150000D02*
X188733333Y-113150000D01*
X188633333Y-113516666D02*
X188966666Y-113516666D01*
X188966666Y-112816666D01*
X188633333Y-112816666D01*
D11*
X198857142Y-102678571D02*
X198857142Y-101178571D01*
X198357142Y-102250000D01*
X197857142Y-101178571D01*
X197857142Y-102678571D01*
X197142857Y-102678571D02*
X197142857Y-101678571D01*
X197142857Y-101964285D02*
X197071428Y-101821428D01*
X197000000Y-101750000D01*
X196857142Y-101678571D01*
X196714285Y-101678571D01*
X196214285Y-102535714D02*
X196142857Y-102607142D01*
X196214285Y-102678571D01*
X196285714Y-102607142D01*
X196214285Y-102535714D01*
X196214285Y-102678571D01*
X193571428Y-101250000D02*
X193714285Y-101178571D01*
X193928571Y-101178571D01*
X194142857Y-101250000D01*
X194285714Y-101392857D01*
X194357142Y-101535714D01*
X194428571Y-101821428D01*
X194428571Y-102035714D01*
X194357142Y-102321428D01*
X194285714Y-102464285D01*
X194142857Y-102607142D01*
X193928571Y-102678571D01*
X193785714Y-102678571D01*
X193571428Y-102607142D01*
X193500000Y-102535714D01*
X193500000Y-102035714D01*
X193785714Y-102035714D01*
X192214285Y-102678571D02*
X192214285Y-101892857D01*
X192285714Y-101750000D01*
X192428571Y-101678571D01*
X192714285Y-101678571D01*
X192857142Y-101750000D01*
X192214285Y-102607142D02*
X192357142Y-102678571D01*
X192714285Y-102678571D01*
X192857142Y-102607142D01*
X192928571Y-102464285D01*
X192928571Y-102321428D01*
X192857142Y-102178571D01*
X192714285Y-102107142D01*
X192357142Y-102107142D01*
X192214285Y-102035714D01*
X191500000Y-102678571D02*
X191500000Y-101678571D01*
X191500000Y-101964285D02*
X191428571Y-101821428D01*
X191357142Y-101750000D01*
X191214285Y-101678571D01*
X191071428Y-101678571D01*
X189928571Y-102678571D02*
X189928571Y-101178571D01*
X189928571Y-102607142D02*
X190071428Y-102678571D01*
X190357142Y-102678571D01*
X190500000Y-102607142D01*
X190571428Y-102535714D01*
X190642857Y-102392857D01*
X190642857Y-101964285D01*
X190571428Y-101821428D01*
X190500000Y-101750000D01*
X190357142Y-101678571D01*
X190071428Y-101678571D01*
X189928571Y-101750000D01*
X188642857Y-102607142D02*
X188785714Y-102678571D01*
X189071428Y-102678571D01*
X189214285Y-102607142D01*
X189285714Y-102464285D01*
X189285714Y-101892857D01*
X189214285Y-101750000D01*
X189071428Y-101678571D01*
X188785714Y-101678571D01*
X188642857Y-101750000D01*
X188571428Y-101892857D01*
X188571428Y-102035714D01*
X189285714Y-102178571D01*
X187928571Y-101678571D02*
X187928571Y-102678571D01*
X187928571Y-101821428D02*
X187857142Y-101750000D01*
X187714285Y-101678571D01*
X187500000Y-101678571D01*
X187357142Y-101750000D01*
X187285714Y-101892857D01*
X187285714Y-102678571D01*
X186000000Y-102607142D02*
X186142857Y-102678571D01*
X186428571Y-102678571D01*
X186571428Y-102607142D01*
X186642857Y-102464285D01*
X186642857Y-101892857D01*
X186571428Y-101750000D01*
X186428571Y-101678571D01*
X186142857Y-101678571D01*
X186000000Y-101750000D01*
X185928571Y-101892857D01*
X185928571Y-102035714D01*
X186642857Y-102178571D01*
X185285714Y-102678571D02*
X185285714Y-101678571D01*
X185285714Y-101964285D02*
X185214285Y-101821428D01*
X185142857Y-101750000D01*
X185000000Y-101678571D01*
X184857142Y-101678571D01*
X182785714Y-101178571D02*
X182785714Y-102250000D01*
X182857142Y-102464285D01*
X183000000Y-102607142D01*
X183214285Y-102678571D01*
X183357142Y-102678571D01*
X182071428Y-102678571D02*
X182071428Y-101678571D01*
X182071428Y-101964285D02*
X182000000Y-101821428D01*
X181928571Y-101750000D01*
X181785714Y-101678571D01*
X181642857Y-101678571D01*
X181142857Y-102535714D02*
X181071428Y-102607142D01*
X181142857Y-102678571D01*
X181214285Y-102607142D01*
X181142857Y-102535714D01*
X181142857Y-102678571D01*
D10*
X200966666Y-94583333D02*
X200866666Y-94616666D01*
X200700000Y-94616666D01*
X200633333Y-94583333D01*
X200600000Y-94550000D01*
X200566666Y-94483333D01*
X200566666Y-94416666D01*
X200600000Y-94350000D01*
X200633333Y-94316666D01*
X200700000Y-94283333D01*
X200833333Y-94250000D01*
X200900000Y-94216666D01*
X200933333Y-94183333D01*
X200966666Y-94116666D01*
X200966666Y-94050000D01*
X200933333Y-93983333D01*
X200900000Y-93950000D01*
X200833333Y-93916666D01*
X200666666Y-93916666D01*
X200566666Y-93950000D01*
X200333333Y-93916666D02*
X200166666Y-94616666D01*
X200033333Y-94116666D01*
X199900000Y-94616666D01*
X199733333Y-93916666D01*
X199333333Y-93916666D02*
X199200000Y-93916666D01*
X199133333Y-93950000D01*
X199066666Y-94016666D01*
X199033333Y-94150000D01*
X199033333Y-94383333D01*
X199066666Y-94516666D01*
X199133333Y-94583333D01*
X199200000Y-94616666D01*
X199333333Y-94616666D01*
X199400000Y-94583333D01*
X199466666Y-94516666D01*
X199500000Y-94383333D01*
X199500000Y-94150000D01*
X199466666Y-94016666D01*
X199400000Y-93950000D01*
X199333333Y-93916666D01*
X194450000Y-91983333D02*
X194350000Y-92016666D01*
X194183333Y-92016666D01*
X194116666Y-91983333D01*
X194083333Y-91950000D01*
X194050000Y-91883333D01*
X194050000Y-91816666D01*
X194083333Y-91750000D01*
X194116666Y-91716666D01*
X194183333Y-91683333D01*
X194316666Y-91650000D01*
X194383333Y-91616666D01*
X194416666Y-91583333D01*
X194450000Y-91516666D01*
X194450000Y-91450000D01*
X194416666Y-91383333D01*
X194383333Y-91350000D01*
X194316666Y-91316666D01*
X194150000Y-91316666D01*
X194050000Y-91350000D01*
X193616666Y-91316666D02*
X193483333Y-91316666D01*
X193416666Y-91350000D01*
X193350000Y-91416666D01*
X193316666Y-91550000D01*
X193316666Y-91783333D01*
X193350000Y-91916666D01*
X193416666Y-91983333D01*
X193483333Y-92016666D01*
X193616666Y-92016666D01*
X193683333Y-91983333D01*
X193750000Y-91916666D01*
X193783333Y-91783333D01*
X193783333Y-91550000D01*
X193750000Y-91416666D01*
X193683333Y-91350000D01*
X193616666Y-91316666D01*
X193016666Y-92016666D02*
X193016666Y-91316666D01*
X192350000Y-92016666D02*
X192683333Y-92016666D01*
X192683333Y-91316666D01*
X191616666Y-91983333D02*
X191516666Y-92016666D01*
X191350000Y-92016666D01*
X191283333Y-91983333D01*
X191250000Y-91950000D01*
X191216666Y-91883333D01*
X191216666Y-91816666D01*
X191250000Y-91750000D01*
X191283333Y-91716666D01*
X191350000Y-91683333D01*
X191483333Y-91650000D01*
X191550000Y-91616666D01*
X191583333Y-91583333D01*
X191616666Y-91516666D01*
X191616666Y-91450000D01*
X191583333Y-91383333D01*
X191550000Y-91350000D01*
X191483333Y-91316666D01*
X191316666Y-91316666D01*
X191216666Y-91350000D01*
X190916666Y-91650000D02*
X190683333Y-91650000D01*
X190583333Y-92016666D02*
X190916666Y-92016666D01*
X190916666Y-91316666D01*
X190583333Y-91316666D01*
X190283333Y-92016666D02*
X190283333Y-91316666D01*
X189883333Y-92016666D01*
X189883333Y-91316666D01*
X189583333Y-91983333D02*
X189483333Y-92016666D01*
X189316666Y-92016666D01*
X189250000Y-91983333D01*
X189216666Y-91950000D01*
X189183333Y-91883333D01*
X189183333Y-91816666D01*
X189216666Y-91750000D01*
X189250000Y-91716666D01*
X189316666Y-91683333D01*
X189450000Y-91650000D01*
X189516666Y-91616666D01*
X189550000Y-91583333D01*
X189583333Y-91516666D01*
X189583333Y-91450000D01*
X189550000Y-91383333D01*
X189516666Y-91350000D01*
X189450000Y-91316666D01*
X189283333Y-91316666D01*
X189183333Y-91350000D01*
X188750000Y-91316666D02*
X188616666Y-91316666D01*
X188550000Y-91350000D01*
X188483333Y-91416666D01*
X188450000Y-91550000D01*
X188450000Y-91783333D01*
X188483333Y-91916666D01*
X188550000Y-91983333D01*
X188616666Y-92016666D01*
X188750000Y-92016666D01*
X188816666Y-91983333D01*
X188883333Y-91916666D01*
X188916666Y-91783333D01*
X188916666Y-91550000D01*
X188883333Y-91416666D01*
X188816666Y-91350000D01*
X188750000Y-91316666D01*
X187750000Y-92016666D02*
X187983333Y-91683333D01*
X188150000Y-92016666D02*
X188150000Y-91316666D01*
X187883333Y-91316666D01*
X187816666Y-91350000D01*
X187783333Y-91383333D01*
X187750000Y-91450000D01*
X187750000Y-91550000D01*
X187783333Y-91616666D01*
X187816666Y-91650000D01*
X187883333Y-91683333D01*
X188150000Y-91683333D01*
M02*
