G04 #@! TF.GenerationSoftware,KiCad,Pcbnew,5.0.2-bee76a0~70~ubuntu18.04.1*
G04 #@! TF.CreationDate,2019-07-19T10:53:47+02:00*
G04 #@! TF.ProjectId,AutoGardener_Outdoor_panel,4175746f-4761-4726-9465-6e65725f4f75,rev?*
G04 #@! TF.SameCoordinates,Original*
G04 #@! TF.FileFunction,Legend,Top*
G04 #@! TF.FilePolarity,Positive*
%FSLAX46Y46*%
G04 Gerber Fmt 4.6, Leading zero omitted, Abs format (unit mm)*
G04 Created by KiCad (PCBNEW 5.0.2-bee76a0~70~ubuntu18.04.1) date Fri 19 Jul 2019 10:53:47 CEST*
%MOMM*%
%LPD*%
G01*
G04 APERTURE LIST*
%ADD10C,0.300000*%
%ADD11C,0.150000*%
%ADD12C,0.120000*%
%ADD13C,0.500000*%
G04 APERTURE END LIST*
D10*
X208428571Y-82307142D02*
X209571428Y-82307142D01*
X209000000Y-82878571D02*
X209000000Y-81735714D01*
X205828571Y-82307142D02*
X206971428Y-82307142D01*
X181828571Y-82307142D02*
X182971428Y-82307142D01*
X184428571Y-82307142D02*
X185571428Y-82307142D01*
X185000000Y-82878571D02*
X185000000Y-81735714D01*
X208428571Y-114307142D02*
X209571428Y-114307142D01*
X209000000Y-114878571D02*
X209000000Y-113735714D01*
X205828571Y-114307142D02*
X206971428Y-114307142D01*
X181828571Y-114307142D02*
X182971428Y-114307142D01*
X184428571Y-114307142D02*
X185571428Y-114307142D01*
X185000000Y-114878571D02*
X185000000Y-113735714D01*
D11*
G04 #@! TO.C,C2*
X184925000Y-67975000D02*
X182275000Y-67975000D01*
X182275000Y-67975000D02*
X182275000Y-66825000D01*
X182275000Y-66825000D02*
X184925000Y-66825000D01*
X184925000Y-66825000D02*
X184925000Y-67975000D01*
G04 #@! TO.C,J2*
X201300000Y-77700000D02*
X198700000Y-77700000D01*
X198700000Y-77700000D02*
X198700000Y-85400000D01*
X198700000Y-85400000D02*
X201300000Y-85400000D01*
X201300000Y-85400000D02*
X201300000Y-77700000D01*
G04 #@! TO.C,LD3*
X195700000Y-79800000D02*
X192300000Y-79800000D01*
X192300000Y-79800000D02*
X192300000Y-78200000D01*
X192300000Y-78200000D02*
X195700000Y-78200000D01*
X195700000Y-78200000D02*
X195700000Y-79800000D01*
X193700000Y-79500000D02*
X193700000Y-78500000D01*
X193700000Y-78500000D02*
X194300000Y-79000000D01*
X194300000Y-79000000D02*
X193700000Y-79500000D01*
X218300000Y-79000000D02*
X217700000Y-79500000D01*
X217700000Y-78500000D02*
X218300000Y-79000000D01*
X217700000Y-79500000D02*
X217700000Y-78500000D01*
X219700000Y-78200000D02*
X219700000Y-79800000D01*
X216300000Y-78200000D02*
X219700000Y-78200000D01*
X216300000Y-79800000D02*
X216300000Y-78200000D01*
X219700000Y-79800000D02*
X216300000Y-79800000D01*
G04 #@! TO.C,BAT1*
X205100000Y-82700000D02*
X205200000Y-82700000D01*
X205100000Y-85300000D02*
X205100000Y-82700000D01*
X210300000Y-85300000D02*
X205100000Y-85300000D01*
X210300000Y-82700000D02*
X210300000Y-85300000D01*
X205200000Y-82700000D02*
X210300000Y-82700000D01*
G04 #@! TO.C,R1*
X222350000Y-60500000D02*
X225050000Y-60500000D01*
X222350000Y-61700000D02*
X225050000Y-61700000D01*
X222350000Y-60500000D02*
X222350000Y-61700000D01*
X225050000Y-60500000D02*
X225050000Y-61700000D01*
G04 #@! TO.C,C4*
X184575000Y-81825000D02*
X181925000Y-81825000D01*
X181925000Y-81825000D02*
X181925000Y-80675000D01*
X181925000Y-80675000D02*
X184575000Y-80675000D01*
X184575000Y-80675000D02*
X184575000Y-81825000D01*
G04 #@! TO.C,BAT1*
X181200000Y-82700000D02*
X186300000Y-82700000D01*
X186300000Y-82700000D02*
X186300000Y-85300000D01*
X186300000Y-85300000D02*
X181100000Y-85300000D01*
X181100000Y-85300000D02*
X181100000Y-82700000D01*
X181100000Y-82700000D02*
X181200000Y-82700000D01*
G04 #@! TO.C,C1*
X208925000Y-64775000D02*
X206275000Y-64775000D01*
X206275000Y-64775000D02*
X206275000Y-63625000D01*
X206275000Y-63625000D02*
X208925000Y-63625000D01*
X208925000Y-63625000D02*
X208925000Y-64775000D01*
G04 #@! TO.C,LD13*
X194300000Y-75000000D02*
X193700000Y-75500000D01*
X193700000Y-74500000D02*
X194300000Y-75000000D01*
X193700000Y-75500000D02*
X193700000Y-74500000D01*
X195700000Y-74200000D02*
X195700000Y-75800000D01*
X192300000Y-74200000D02*
X195700000Y-74200000D01*
X192300000Y-75800000D02*
X192300000Y-74200000D01*
X195700000Y-75800000D02*
X192300000Y-75800000D01*
D12*
G04 #@! TO.C,Q2*
X189300000Y-81580000D02*
X189300000Y-81440000D01*
X190760000Y-81580000D02*
X189300000Y-81580000D01*
X189300000Y-78420000D02*
X189300000Y-78560000D01*
X190760000Y-78420000D02*
X189300000Y-78420000D01*
X190760000Y-78420000D02*
X190760000Y-79350000D01*
X190760000Y-81580000D02*
X190760000Y-80650000D01*
D11*
G04 #@! TO.C,J1*
X201300000Y-75500000D02*
X201300000Y-62700000D01*
X198700000Y-75500000D02*
X201300000Y-75500000D01*
X198700000Y-62700000D02*
X198700000Y-75500000D01*
X201300000Y-62700000D02*
X198700000Y-62700000D01*
G04 #@! TO.C,J4*
X216550000Y-85300000D02*
X211450000Y-85300000D01*
X211450000Y-85300000D02*
X211450000Y-82700000D01*
X211450000Y-82700000D02*
X216650000Y-82700000D01*
X216650000Y-82700000D02*
X216650000Y-85300000D01*
X216650000Y-85300000D02*
X216550000Y-85300000D01*
G04 #@! TO.C,C5*
X208575000Y-80325000D02*
X205925000Y-80325000D01*
X205925000Y-80325000D02*
X205925000Y-79175000D01*
X205925000Y-79175000D02*
X208575000Y-79175000D01*
X208575000Y-79175000D02*
X208575000Y-80325000D01*
D12*
G04 #@! TO.C,U1*
X217810000Y-70610000D02*
X218110000Y-70610000D01*
X218110000Y-70610000D02*
X218110000Y-70310000D01*
X211190000Y-70610000D02*
X210890000Y-70610000D01*
X210890000Y-70610000D02*
X210890000Y-70310000D01*
X217810000Y-63390000D02*
X218110000Y-63390000D01*
X218110000Y-63390000D02*
X218110000Y-63690000D01*
X211190000Y-63390000D02*
X210890000Y-63390000D01*
X210890000Y-63390000D02*
X210890000Y-63690000D01*
D11*
X210582843Y-63500000D02*
G75*
G03X210582843Y-63500000I-282843J0D01*
G01*
X210441421Y-63500000D02*
G75*
G03X210441421Y-63500000I-141421J0D01*
G01*
D13*
X210400000Y-63500000D02*
G75*
G03X210400000Y-63500000I-100000J0D01*
G01*
D12*
G04 #@! TO.C,Q2*
X214760000Y-81580000D02*
X214760000Y-80650000D01*
X214760000Y-78420000D02*
X214760000Y-79350000D01*
X214760000Y-78420000D02*
X213300000Y-78420000D01*
X213300000Y-78420000D02*
X213300000Y-78560000D01*
X214760000Y-81580000D02*
X213300000Y-81580000D01*
X213300000Y-81580000D02*
X213300000Y-81440000D01*
D11*
G04 #@! TO.C,J2*
X225300000Y-85400000D02*
X225300000Y-77700000D01*
X222700000Y-85400000D02*
X225300000Y-85400000D01*
X222700000Y-77700000D02*
X222700000Y-85400000D01*
X225300000Y-77700000D02*
X222700000Y-77700000D01*
D12*
G04 #@! TO.C,Q1*
X220900000Y-60220000D02*
X220900000Y-60360000D01*
X219440000Y-60220000D02*
X220900000Y-60220000D01*
X220900000Y-63380000D02*
X220900000Y-63240000D01*
X219440000Y-63380000D02*
X220900000Y-63380000D01*
X219440000Y-63380000D02*
X219440000Y-62450000D01*
X219440000Y-60220000D02*
X219440000Y-61150000D01*
X195440000Y-60220000D02*
X195440000Y-61150000D01*
X195440000Y-63380000D02*
X195440000Y-62450000D01*
X195440000Y-63380000D02*
X196900000Y-63380000D01*
X196900000Y-63380000D02*
X196900000Y-63240000D01*
X195440000Y-60220000D02*
X196900000Y-60220000D01*
X196900000Y-60220000D02*
X196900000Y-60360000D01*
D11*
G04 #@! TO.C,U2*
X183450000Y-74350000D02*
X183450000Y-73950000D01*
X183450000Y-78550000D02*
X183450000Y-78150000D01*
X186050000Y-77350000D02*
X186050000Y-78550000D01*
X186050000Y-73950000D02*
X186050000Y-75150000D01*
X183450000Y-78550000D02*
X186050000Y-78550000D01*
X186050000Y-73950000D02*
X183450000Y-73950000D01*
G04 #@! TO.C,C2*
X208925000Y-66825000D02*
X208925000Y-67975000D01*
X206275000Y-66825000D02*
X208925000Y-66825000D01*
X206275000Y-67975000D02*
X206275000Y-66825000D01*
X208925000Y-67975000D02*
X206275000Y-67975000D01*
G04 #@! TO.C,C6*
X208575000Y-71825000D02*
X205925000Y-71825000D01*
X205925000Y-71825000D02*
X205925000Y-70675000D01*
X205925000Y-70675000D02*
X208575000Y-70675000D01*
X208575000Y-70675000D02*
X208575000Y-71825000D01*
G04 #@! TO.C,R3*
X212650000Y-76400000D02*
X215350000Y-76400000D01*
X212650000Y-77600000D02*
X215350000Y-77600000D01*
X212650000Y-76400000D02*
X212650000Y-77600000D01*
X215350000Y-76400000D02*
X215350000Y-77600000D01*
G04 #@! TO.C,C7*
X184575000Y-73325000D02*
X181925000Y-73325000D01*
X181925000Y-73325000D02*
X181925000Y-72175000D01*
X181925000Y-72175000D02*
X184575000Y-72175000D01*
X184575000Y-72175000D02*
X184575000Y-73325000D01*
G04 #@! TO.C,C6*
X184575000Y-70675000D02*
X184575000Y-71825000D01*
X181925000Y-70675000D02*
X184575000Y-70675000D01*
X181925000Y-71825000D02*
X181925000Y-70675000D01*
X184575000Y-71825000D02*
X181925000Y-71825000D01*
G04 #@! TO.C,C5*
X184575000Y-79175000D02*
X184575000Y-80325000D01*
X181925000Y-79175000D02*
X184575000Y-79175000D01*
X181925000Y-80325000D02*
X181925000Y-79175000D01*
X184575000Y-80325000D02*
X181925000Y-80325000D01*
D13*
G04 #@! TO.C,U1*
X186400000Y-63500000D02*
G75*
G03X186400000Y-63500000I-100000J0D01*
G01*
D11*
X186441421Y-63500000D02*
G75*
G03X186441421Y-63500000I-141421J0D01*
G01*
X186582843Y-63500000D02*
G75*
G03X186582843Y-63500000I-282843J0D01*
G01*
D12*
X186890000Y-63390000D02*
X186890000Y-63690000D01*
X187190000Y-63390000D02*
X186890000Y-63390000D01*
X194110000Y-63390000D02*
X194110000Y-63690000D01*
X193810000Y-63390000D02*
X194110000Y-63390000D01*
X186890000Y-70610000D02*
X186890000Y-70310000D01*
X187190000Y-70610000D02*
X186890000Y-70610000D01*
X194110000Y-70610000D02*
X194110000Y-70310000D01*
X193810000Y-70610000D02*
X194110000Y-70610000D01*
D11*
G04 #@! TO.C,J3*
X187100000Y-59300000D02*
X194800000Y-59300000D01*
X187100000Y-56700000D02*
X187100000Y-59300000D01*
X194800000Y-56700000D02*
X187100000Y-56700000D01*
X194800000Y-59300000D02*
X194800000Y-56700000D01*
G04 #@! TO.C,C1*
X184925000Y-63625000D02*
X184925000Y-64775000D01*
X182275000Y-63625000D02*
X184925000Y-63625000D01*
X182275000Y-64775000D02*
X182275000Y-63625000D01*
X184925000Y-64775000D02*
X182275000Y-64775000D01*
G04 #@! TO.C,R3*
X191350000Y-76400000D02*
X191350000Y-77600000D01*
X188650000Y-76400000D02*
X188650000Y-77600000D01*
X188650000Y-77600000D02*
X191350000Y-77600000D01*
X188650000Y-76400000D02*
X191350000Y-76400000D01*
G04 #@! TO.C,U2*
X210050000Y-73950000D02*
X207450000Y-73950000D01*
X207450000Y-78550000D02*
X210050000Y-78550000D01*
X210050000Y-73950000D02*
X210050000Y-75150000D01*
X210050000Y-77350000D02*
X210050000Y-78550000D01*
X207450000Y-78550000D02*
X207450000Y-78150000D01*
X207450000Y-74350000D02*
X207450000Y-73950000D01*
G04 #@! TO.C,J3*
X218800000Y-59300000D02*
X218800000Y-56700000D01*
X218800000Y-56700000D02*
X211100000Y-56700000D01*
X211100000Y-56700000D02*
X211100000Y-59300000D01*
X211100000Y-59300000D02*
X218800000Y-59300000D01*
G04 #@! TO.C,C3*
X219575000Y-70675000D02*
X219575000Y-73325000D01*
X219575000Y-73325000D02*
X218425000Y-73325000D01*
X218425000Y-73325000D02*
X218425000Y-70675000D01*
X218425000Y-70675000D02*
X219575000Y-70675000D01*
G04 #@! TO.C,C7*
X208575000Y-72175000D02*
X208575000Y-73325000D01*
X205925000Y-72175000D02*
X208575000Y-72175000D01*
X205925000Y-73325000D02*
X205925000Y-72175000D01*
X208575000Y-73325000D02*
X205925000Y-73325000D01*
G04 #@! TO.C,J1*
X225300000Y-62700000D02*
X222700000Y-62700000D01*
X222700000Y-62700000D02*
X222700000Y-75500000D01*
X222700000Y-75500000D02*
X225300000Y-75500000D01*
X225300000Y-75500000D02*
X225300000Y-62700000D01*
G04 #@! TO.C,J4*
X192650000Y-85300000D02*
X192550000Y-85300000D01*
X192650000Y-82700000D02*
X192650000Y-85300000D01*
X187450000Y-82700000D02*
X192650000Y-82700000D01*
X187450000Y-85300000D02*
X187450000Y-82700000D01*
X192550000Y-85300000D02*
X187450000Y-85300000D01*
G04 #@! TO.C,R1*
X201050000Y-60500000D02*
X201050000Y-61700000D01*
X198350000Y-60500000D02*
X198350000Y-61700000D01*
X198350000Y-61700000D02*
X201050000Y-61700000D01*
X198350000Y-60500000D02*
X201050000Y-60500000D01*
G04 #@! TO.C,R2*
X215350000Y-74400000D02*
X215350000Y-75600000D01*
X212650000Y-74400000D02*
X212650000Y-75600000D01*
X212650000Y-75600000D02*
X215350000Y-75600000D01*
X212650000Y-74400000D02*
X215350000Y-74400000D01*
X188650000Y-74400000D02*
X191350000Y-74400000D01*
X188650000Y-75600000D02*
X191350000Y-75600000D01*
X188650000Y-74400000D02*
X188650000Y-75600000D01*
X191350000Y-74400000D02*
X191350000Y-75600000D01*
G04 #@! TO.C,C4*
X208575000Y-80675000D02*
X208575000Y-81825000D01*
X205925000Y-80675000D02*
X208575000Y-80675000D01*
X205925000Y-81825000D02*
X205925000Y-80675000D01*
X208575000Y-81825000D02*
X205925000Y-81825000D01*
G04 #@! TO.C,C3*
X194425000Y-70675000D02*
X195575000Y-70675000D01*
X194425000Y-73325000D02*
X194425000Y-70675000D01*
X195575000Y-73325000D02*
X194425000Y-73325000D01*
X195575000Y-70675000D02*
X195575000Y-73325000D01*
G04 #@! TO.C,LD13*
X219700000Y-75800000D02*
X216300000Y-75800000D01*
X216300000Y-75800000D02*
X216300000Y-74200000D01*
X216300000Y-74200000D02*
X219700000Y-74200000D01*
X219700000Y-74200000D02*
X219700000Y-75800000D01*
X217700000Y-75500000D02*
X217700000Y-74500000D01*
X217700000Y-74500000D02*
X218300000Y-75000000D01*
X218300000Y-75000000D02*
X217700000Y-75500000D01*
G04 #@! TO.C,C2*
X184925000Y-99975000D02*
X182275000Y-99975000D01*
X182275000Y-99975000D02*
X182275000Y-98825000D01*
X182275000Y-98825000D02*
X184925000Y-98825000D01*
X184925000Y-98825000D02*
X184925000Y-99975000D01*
G04 #@! TO.C,J2*
X201300000Y-109700000D02*
X198700000Y-109700000D01*
X198700000Y-109700000D02*
X198700000Y-117400000D01*
X198700000Y-117400000D02*
X201300000Y-117400000D01*
X201300000Y-117400000D02*
X201300000Y-109700000D01*
G04 #@! TO.C,LD3*
X195700000Y-111800000D02*
X192300000Y-111800000D01*
X192300000Y-111800000D02*
X192300000Y-110200000D01*
X192300000Y-110200000D02*
X195700000Y-110200000D01*
X195700000Y-110200000D02*
X195700000Y-111800000D01*
X193700000Y-111500000D02*
X193700000Y-110500000D01*
X193700000Y-110500000D02*
X194300000Y-111000000D01*
X194300000Y-111000000D02*
X193700000Y-111500000D01*
X218300000Y-111000000D02*
X217700000Y-111500000D01*
X217700000Y-110500000D02*
X218300000Y-111000000D01*
X217700000Y-111500000D02*
X217700000Y-110500000D01*
X219700000Y-110200000D02*
X219700000Y-111800000D01*
X216300000Y-110200000D02*
X219700000Y-110200000D01*
X216300000Y-111800000D02*
X216300000Y-110200000D01*
X219700000Y-111800000D02*
X216300000Y-111800000D01*
G04 #@! TO.C,BAT1*
X205100000Y-114700000D02*
X205200000Y-114700000D01*
X205100000Y-117300000D02*
X205100000Y-114700000D01*
X210300000Y-117300000D02*
X205100000Y-117300000D01*
X210300000Y-114700000D02*
X210300000Y-117300000D01*
X205200000Y-114700000D02*
X210300000Y-114700000D01*
G04 #@! TO.C,R1*
X222350000Y-92500000D02*
X225050000Y-92500000D01*
X222350000Y-93700000D02*
X225050000Y-93700000D01*
X222350000Y-92500000D02*
X222350000Y-93700000D01*
X225050000Y-92500000D02*
X225050000Y-93700000D01*
G04 #@! TO.C,C4*
X184575000Y-113825000D02*
X181925000Y-113825000D01*
X181925000Y-113825000D02*
X181925000Y-112675000D01*
X181925000Y-112675000D02*
X184575000Y-112675000D01*
X184575000Y-112675000D02*
X184575000Y-113825000D01*
G04 #@! TO.C,BAT1*
X181200000Y-114700000D02*
X186300000Y-114700000D01*
X186300000Y-114700000D02*
X186300000Y-117300000D01*
X186300000Y-117300000D02*
X181100000Y-117300000D01*
X181100000Y-117300000D02*
X181100000Y-114700000D01*
X181100000Y-114700000D02*
X181200000Y-114700000D01*
G04 #@! TO.C,C1*
X208925000Y-96775000D02*
X206275000Y-96775000D01*
X206275000Y-96775000D02*
X206275000Y-95625000D01*
X206275000Y-95625000D02*
X208925000Y-95625000D01*
X208925000Y-95625000D02*
X208925000Y-96775000D01*
G04 #@! TO.C,LD13*
X194300000Y-107000000D02*
X193700000Y-107500000D01*
X193700000Y-106500000D02*
X194300000Y-107000000D01*
X193700000Y-107500000D02*
X193700000Y-106500000D01*
X195700000Y-106200000D02*
X195700000Y-107800000D01*
X192300000Y-106200000D02*
X195700000Y-106200000D01*
X192300000Y-107800000D02*
X192300000Y-106200000D01*
X195700000Y-107800000D02*
X192300000Y-107800000D01*
D12*
G04 #@! TO.C,Q2*
X189300000Y-113580000D02*
X189300000Y-113440000D01*
X190760000Y-113580000D02*
X189300000Y-113580000D01*
X189300000Y-110420000D02*
X189300000Y-110560000D01*
X190760000Y-110420000D02*
X189300000Y-110420000D01*
X190760000Y-110420000D02*
X190760000Y-111350000D01*
X190760000Y-113580000D02*
X190760000Y-112650000D01*
D11*
G04 #@! TO.C,J1*
X201300000Y-107500000D02*
X201300000Y-94700000D01*
X198700000Y-107500000D02*
X201300000Y-107500000D01*
X198700000Y-94700000D02*
X198700000Y-107500000D01*
X201300000Y-94700000D02*
X198700000Y-94700000D01*
G04 #@! TO.C,J4*
X216550000Y-117300000D02*
X211450000Y-117300000D01*
X211450000Y-117300000D02*
X211450000Y-114700000D01*
X211450000Y-114700000D02*
X216650000Y-114700000D01*
X216650000Y-114700000D02*
X216650000Y-117300000D01*
X216650000Y-117300000D02*
X216550000Y-117300000D01*
G04 #@! TO.C,C5*
X208575000Y-112325000D02*
X205925000Y-112325000D01*
X205925000Y-112325000D02*
X205925000Y-111175000D01*
X205925000Y-111175000D02*
X208575000Y-111175000D01*
X208575000Y-111175000D02*
X208575000Y-112325000D01*
D12*
G04 #@! TO.C,U1*
X217810000Y-102610000D02*
X218110000Y-102610000D01*
X218110000Y-102610000D02*
X218110000Y-102310000D01*
X211190000Y-102610000D02*
X210890000Y-102610000D01*
X210890000Y-102610000D02*
X210890000Y-102310000D01*
X217810000Y-95390000D02*
X218110000Y-95390000D01*
X218110000Y-95390000D02*
X218110000Y-95690000D01*
X211190000Y-95390000D02*
X210890000Y-95390000D01*
X210890000Y-95390000D02*
X210890000Y-95690000D01*
D11*
X210582843Y-95500000D02*
G75*
G03X210582843Y-95500000I-282843J0D01*
G01*
X210441421Y-95500000D02*
G75*
G03X210441421Y-95500000I-141421J0D01*
G01*
D13*
X210400000Y-95500000D02*
G75*
G03X210400000Y-95500000I-100000J0D01*
G01*
D12*
G04 #@! TO.C,Q2*
X214760000Y-113580000D02*
X214760000Y-112650000D01*
X214760000Y-110420000D02*
X214760000Y-111350000D01*
X214760000Y-110420000D02*
X213300000Y-110420000D01*
X213300000Y-110420000D02*
X213300000Y-110560000D01*
X214760000Y-113580000D02*
X213300000Y-113580000D01*
X213300000Y-113580000D02*
X213300000Y-113440000D01*
D11*
G04 #@! TO.C,J2*
X225300000Y-117400000D02*
X225300000Y-109700000D01*
X222700000Y-117400000D02*
X225300000Y-117400000D01*
X222700000Y-109700000D02*
X222700000Y-117400000D01*
X225300000Y-109700000D02*
X222700000Y-109700000D01*
D12*
G04 #@! TO.C,Q1*
X220900000Y-92220000D02*
X220900000Y-92360000D01*
X219440000Y-92220000D02*
X220900000Y-92220000D01*
X220900000Y-95380000D02*
X220900000Y-95240000D01*
X219440000Y-95380000D02*
X220900000Y-95380000D01*
X219440000Y-95380000D02*
X219440000Y-94450000D01*
X219440000Y-92220000D02*
X219440000Y-93150000D01*
X195440000Y-92220000D02*
X195440000Y-93150000D01*
X195440000Y-95380000D02*
X195440000Y-94450000D01*
X195440000Y-95380000D02*
X196900000Y-95380000D01*
X196900000Y-95380000D02*
X196900000Y-95240000D01*
X195440000Y-92220000D02*
X196900000Y-92220000D01*
X196900000Y-92220000D02*
X196900000Y-92360000D01*
D11*
G04 #@! TO.C,U2*
X183450000Y-106350000D02*
X183450000Y-105950000D01*
X183450000Y-110550000D02*
X183450000Y-110150000D01*
X186050000Y-109350000D02*
X186050000Y-110550000D01*
X186050000Y-105950000D02*
X186050000Y-107150000D01*
X183450000Y-110550000D02*
X186050000Y-110550000D01*
X186050000Y-105950000D02*
X183450000Y-105950000D01*
G04 #@! TO.C,C2*
X208925000Y-98825000D02*
X208925000Y-99975000D01*
X206275000Y-98825000D02*
X208925000Y-98825000D01*
X206275000Y-99975000D02*
X206275000Y-98825000D01*
X208925000Y-99975000D02*
X206275000Y-99975000D01*
G04 #@! TO.C,C6*
X208575000Y-103825000D02*
X205925000Y-103825000D01*
X205925000Y-103825000D02*
X205925000Y-102675000D01*
X205925000Y-102675000D02*
X208575000Y-102675000D01*
X208575000Y-102675000D02*
X208575000Y-103825000D01*
G04 #@! TO.C,R3*
X212650000Y-108400000D02*
X215350000Y-108400000D01*
X212650000Y-109600000D02*
X215350000Y-109600000D01*
X212650000Y-108400000D02*
X212650000Y-109600000D01*
X215350000Y-108400000D02*
X215350000Y-109600000D01*
G04 #@! TO.C,C7*
X184575000Y-105325000D02*
X181925000Y-105325000D01*
X181925000Y-105325000D02*
X181925000Y-104175000D01*
X181925000Y-104175000D02*
X184575000Y-104175000D01*
X184575000Y-104175000D02*
X184575000Y-105325000D01*
G04 #@! TO.C,C6*
X184575000Y-102675000D02*
X184575000Y-103825000D01*
X181925000Y-102675000D02*
X184575000Y-102675000D01*
X181925000Y-103825000D02*
X181925000Y-102675000D01*
X184575000Y-103825000D02*
X181925000Y-103825000D01*
G04 #@! TO.C,C5*
X184575000Y-111175000D02*
X184575000Y-112325000D01*
X181925000Y-111175000D02*
X184575000Y-111175000D01*
X181925000Y-112325000D02*
X181925000Y-111175000D01*
X184575000Y-112325000D02*
X181925000Y-112325000D01*
D13*
G04 #@! TO.C,U1*
X186400000Y-95500000D02*
G75*
G03X186400000Y-95500000I-100000J0D01*
G01*
D11*
X186441421Y-95500000D02*
G75*
G03X186441421Y-95500000I-141421J0D01*
G01*
X186582843Y-95500000D02*
G75*
G03X186582843Y-95500000I-282843J0D01*
G01*
D12*
X186890000Y-95390000D02*
X186890000Y-95690000D01*
X187190000Y-95390000D02*
X186890000Y-95390000D01*
X194110000Y-95390000D02*
X194110000Y-95690000D01*
X193810000Y-95390000D02*
X194110000Y-95390000D01*
X186890000Y-102610000D02*
X186890000Y-102310000D01*
X187190000Y-102610000D02*
X186890000Y-102610000D01*
X194110000Y-102610000D02*
X194110000Y-102310000D01*
X193810000Y-102610000D02*
X194110000Y-102610000D01*
D11*
G04 #@! TO.C,J3*
X187100000Y-91300000D02*
X194800000Y-91300000D01*
X187100000Y-88700000D02*
X187100000Y-91300000D01*
X194800000Y-88700000D02*
X187100000Y-88700000D01*
X194800000Y-91300000D02*
X194800000Y-88700000D01*
G04 #@! TO.C,C1*
X184925000Y-95625000D02*
X184925000Y-96775000D01*
X182275000Y-95625000D02*
X184925000Y-95625000D01*
X182275000Y-96775000D02*
X182275000Y-95625000D01*
X184925000Y-96775000D02*
X182275000Y-96775000D01*
G04 #@! TO.C,R3*
X191350000Y-108400000D02*
X191350000Y-109600000D01*
X188650000Y-108400000D02*
X188650000Y-109600000D01*
X188650000Y-109600000D02*
X191350000Y-109600000D01*
X188650000Y-108400000D02*
X191350000Y-108400000D01*
G04 #@! TO.C,U2*
X210050000Y-105950000D02*
X207450000Y-105950000D01*
X207450000Y-110550000D02*
X210050000Y-110550000D01*
X210050000Y-105950000D02*
X210050000Y-107150000D01*
X210050000Y-109350000D02*
X210050000Y-110550000D01*
X207450000Y-110550000D02*
X207450000Y-110150000D01*
X207450000Y-106350000D02*
X207450000Y-105950000D01*
G04 #@! TO.C,J3*
X218800000Y-91300000D02*
X218800000Y-88700000D01*
X218800000Y-88700000D02*
X211100000Y-88700000D01*
X211100000Y-88700000D02*
X211100000Y-91300000D01*
X211100000Y-91300000D02*
X218800000Y-91300000D01*
G04 #@! TO.C,C3*
X219575000Y-102675000D02*
X219575000Y-105325000D01*
X219575000Y-105325000D02*
X218425000Y-105325000D01*
X218425000Y-105325000D02*
X218425000Y-102675000D01*
X218425000Y-102675000D02*
X219575000Y-102675000D01*
G04 #@! TO.C,C7*
X208575000Y-104175000D02*
X208575000Y-105325000D01*
X205925000Y-104175000D02*
X208575000Y-104175000D01*
X205925000Y-105325000D02*
X205925000Y-104175000D01*
X208575000Y-105325000D02*
X205925000Y-105325000D01*
G04 #@! TO.C,J1*
X225300000Y-94700000D02*
X222700000Y-94700000D01*
X222700000Y-94700000D02*
X222700000Y-107500000D01*
X222700000Y-107500000D02*
X225300000Y-107500000D01*
X225300000Y-107500000D02*
X225300000Y-94700000D01*
G04 #@! TO.C,J4*
X192650000Y-117300000D02*
X192550000Y-117300000D01*
X192650000Y-114700000D02*
X192650000Y-117300000D01*
X187450000Y-114700000D02*
X192650000Y-114700000D01*
X187450000Y-117300000D02*
X187450000Y-114700000D01*
X192550000Y-117300000D02*
X187450000Y-117300000D01*
G04 #@! TO.C,R1*
X201050000Y-92500000D02*
X201050000Y-93700000D01*
X198350000Y-92500000D02*
X198350000Y-93700000D01*
X198350000Y-93700000D02*
X201050000Y-93700000D01*
X198350000Y-92500000D02*
X201050000Y-92500000D01*
G04 #@! TO.C,R2*
X215350000Y-106400000D02*
X215350000Y-107600000D01*
X212650000Y-106400000D02*
X212650000Y-107600000D01*
X212650000Y-107600000D02*
X215350000Y-107600000D01*
X212650000Y-106400000D02*
X215350000Y-106400000D01*
X188650000Y-106400000D02*
X191350000Y-106400000D01*
X188650000Y-107600000D02*
X191350000Y-107600000D01*
X188650000Y-106400000D02*
X188650000Y-107600000D01*
X191350000Y-106400000D02*
X191350000Y-107600000D01*
G04 #@! TO.C,C4*
X208575000Y-112675000D02*
X208575000Y-113825000D01*
X205925000Y-112675000D02*
X208575000Y-112675000D01*
X205925000Y-113825000D02*
X205925000Y-112675000D01*
X208575000Y-113825000D02*
X205925000Y-113825000D01*
G04 #@! TO.C,C3*
X194425000Y-102675000D02*
X195575000Y-102675000D01*
X194425000Y-105325000D02*
X194425000Y-102675000D01*
X195575000Y-105325000D02*
X194425000Y-105325000D01*
X195575000Y-102675000D02*
X195575000Y-105325000D01*
G04 #@! TO.C,LD13*
X219700000Y-107800000D02*
X216300000Y-107800000D01*
X216300000Y-107800000D02*
X216300000Y-106200000D01*
X216300000Y-106200000D02*
X219700000Y-106200000D01*
X219700000Y-106200000D02*
X219700000Y-107800000D01*
X217700000Y-107500000D02*
X217700000Y-106500000D01*
X217700000Y-106500000D02*
X218300000Y-107000000D01*
X218300000Y-107000000D02*
X217700000Y-107500000D01*
G04 #@! TO.C,C2*
X181383333Y-67650000D02*
X181350000Y-67683333D01*
X181250000Y-67716666D01*
X181183333Y-67716666D01*
X181083333Y-67683333D01*
X181016666Y-67616666D01*
X180983333Y-67550000D01*
X180950000Y-67416666D01*
X180950000Y-67316666D01*
X180983333Y-67183333D01*
X181016666Y-67116666D01*
X181083333Y-67050000D01*
X181183333Y-67016666D01*
X181250000Y-67016666D01*
X181350000Y-67050000D01*
X181383333Y-67083333D01*
X181650000Y-67083333D02*
X181683333Y-67050000D01*
X181750000Y-67016666D01*
X181916666Y-67016666D01*
X181983333Y-67050000D01*
X182016666Y-67083333D01*
X182050000Y-67150000D01*
X182050000Y-67216666D01*
X182016666Y-67316666D01*
X181616666Y-67716666D01*
X182050000Y-67716666D01*
G04 #@! TO.C,J2*
X199766666Y-76286666D02*
X199766666Y-76786666D01*
X199733333Y-76886666D01*
X199666666Y-76953333D01*
X199566666Y-76986666D01*
X199500000Y-76986666D01*
X200066666Y-76353333D02*
X200100000Y-76320000D01*
X200166666Y-76286666D01*
X200333333Y-76286666D01*
X200400000Y-76320000D01*
X200433333Y-76353333D01*
X200466666Y-76420000D01*
X200466666Y-76486666D01*
X200433333Y-76586666D01*
X200033333Y-76986666D01*
X200466666Y-76986666D01*
G04 #@! TO.C,LD3*
X196233333Y-79316666D02*
X195900000Y-79316666D01*
X195900000Y-78616666D01*
X196466666Y-79316666D02*
X196466666Y-78616666D01*
X196633333Y-78616666D01*
X196733333Y-78650000D01*
X196800000Y-78716666D01*
X196833333Y-78783333D01*
X196866666Y-78916666D01*
X196866666Y-79016666D01*
X196833333Y-79150000D01*
X196800000Y-79216666D01*
X196733333Y-79283333D01*
X196633333Y-79316666D01*
X196466666Y-79316666D01*
X197100000Y-78616666D02*
X197533333Y-78616666D01*
X197300000Y-78883333D01*
X197400000Y-78883333D01*
X197466666Y-78916666D01*
X197500000Y-78950000D01*
X197533333Y-79016666D01*
X197533333Y-79183333D01*
X197500000Y-79250000D01*
X197466666Y-79283333D01*
X197400000Y-79316666D01*
X197200000Y-79316666D01*
X197133333Y-79283333D01*
X197100000Y-79250000D01*
X220233333Y-79316666D02*
X219900000Y-79316666D01*
X219900000Y-78616666D01*
X220466666Y-79316666D02*
X220466666Y-78616666D01*
X220633333Y-78616666D01*
X220733333Y-78650000D01*
X220800000Y-78716666D01*
X220833333Y-78783333D01*
X220866666Y-78916666D01*
X220866666Y-79016666D01*
X220833333Y-79150000D01*
X220800000Y-79216666D01*
X220733333Y-79283333D01*
X220633333Y-79316666D01*
X220466666Y-79316666D01*
X221100000Y-78616666D02*
X221533333Y-78616666D01*
X221300000Y-78883333D01*
X221400000Y-78883333D01*
X221466666Y-78916666D01*
X221500000Y-78950000D01*
X221533333Y-79016666D01*
X221533333Y-79183333D01*
X221500000Y-79250000D01*
X221466666Y-79283333D01*
X221400000Y-79316666D01*
X221200000Y-79316666D01*
X221133333Y-79283333D01*
X221100000Y-79250000D01*
G04 #@! TO.C,BAT1*
X210850000Y-84850000D02*
X210883333Y-84750000D01*
X210916666Y-84716666D01*
X210983333Y-84683333D01*
X211083333Y-84683333D01*
X211150000Y-84716666D01*
X211183333Y-84750000D01*
X211216666Y-84816666D01*
X211216666Y-85083333D01*
X210516666Y-85083333D01*
X210516666Y-84850000D01*
X210550000Y-84783333D01*
X210583333Y-84750000D01*
X210650000Y-84716666D01*
X210716666Y-84716666D01*
X210783333Y-84750000D01*
X210816666Y-84783333D01*
X210850000Y-84850000D01*
X210850000Y-85083333D01*
X211016666Y-84416666D02*
X211016666Y-84083333D01*
X211216666Y-84483333D02*
X210516666Y-84250000D01*
X211216666Y-84016666D01*
X210516666Y-83883333D02*
X210516666Y-83483333D01*
X211216666Y-83683333D02*
X210516666Y-83683333D01*
X211216666Y-82883333D02*
X211216666Y-83283333D01*
X211216666Y-83083333D02*
X210516666Y-83083333D01*
X210616666Y-83150000D01*
X210683333Y-83216666D01*
X210716666Y-83283333D01*
G04 #@! TO.C,R1*
X223583333Y-60316666D02*
X223350000Y-59983333D01*
X223183333Y-60316666D02*
X223183333Y-59616666D01*
X223450000Y-59616666D01*
X223516666Y-59650000D01*
X223550000Y-59683333D01*
X223583333Y-59750000D01*
X223583333Y-59850000D01*
X223550000Y-59916666D01*
X223516666Y-59950000D01*
X223450000Y-59983333D01*
X223183333Y-59983333D01*
X224250000Y-60316666D02*
X223850000Y-60316666D01*
X224050000Y-60316666D02*
X224050000Y-59616666D01*
X223983333Y-59716666D01*
X223916666Y-59783333D01*
X223850000Y-59816666D01*
G04 #@! TO.C,C4*
X185383333Y-81500000D02*
X185350000Y-81533333D01*
X185250000Y-81566666D01*
X185183333Y-81566666D01*
X185083333Y-81533333D01*
X185016666Y-81466666D01*
X184983333Y-81400000D01*
X184950000Y-81266666D01*
X184950000Y-81166666D01*
X184983333Y-81033333D01*
X185016666Y-80966666D01*
X185083333Y-80900000D01*
X185183333Y-80866666D01*
X185250000Y-80866666D01*
X185350000Y-80900000D01*
X185383333Y-80933333D01*
X185983333Y-81100000D02*
X185983333Y-81566666D01*
X185816666Y-80833333D02*
X185650000Y-81333333D01*
X186083333Y-81333333D01*
G04 #@! TO.C,BAT1*
X186850000Y-84850000D02*
X186883333Y-84750000D01*
X186916666Y-84716666D01*
X186983333Y-84683333D01*
X187083333Y-84683333D01*
X187150000Y-84716666D01*
X187183333Y-84750000D01*
X187216666Y-84816666D01*
X187216666Y-85083333D01*
X186516666Y-85083333D01*
X186516666Y-84850000D01*
X186550000Y-84783333D01*
X186583333Y-84750000D01*
X186650000Y-84716666D01*
X186716666Y-84716666D01*
X186783333Y-84750000D01*
X186816666Y-84783333D01*
X186850000Y-84850000D01*
X186850000Y-85083333D01*
X187016666Y-84416666D02*
X187016666Y-84083333D01*
X187216666Y-84483333D02*
X186516666Y-84250000D01*
X187216666Y-84016666D01*
X186516666Y-83883333D02*
X186516666Y-83483333D01*
X187216666Y-83683333D02*
X186516666Y-83683333D01*
X187216666Y-82883333D02*
X187216666Y-83283333D01*
X187216666Y-83083333D02*
X186516666Y-83083333D01*
X186616666Y-83150000D01*
X186683333Y-83216666D01*
X186716666Y-83283333D01*
G04 #@! TO.C,C1*
X205383333Y-64450000D02*
X205350000Y-64483333D01*
X205250000Y-64516666D01*
X205183333Y-64516666D01*
X205083333Y-64483333D01*
X205016666Y-64416666D01*
X204983333Y-64350000D01*
X204950000Y-64216666D01*
X204950000Y-64116666D01*
X204983333Y-63983333D01*
X205016666Y-63916666D01*
X205083333Y-63850000D01*
X205183333Y-63816666D01*
X205250000Y-63816666D01*
X205350000Y-63850000D01*
X205383333Y-63883333D01*
X206050000Y-64516666D02*
X205650000Y-64516666D01*
X205850000Y-64516666D02*
X205850000Y-63816666D01*
X205783333Y-63916666D01*
X205716666Y-63983333D01*
X205650000Y-64016666D01*
G04 #@! TO.C,LD13*
X196200000Y-75316666D02*
X195866666Y-75316666D01*
X195866666Y-74616666D01*
X196433333Y-75316666D02*
X196433333Y-74616666D01*
X196600000Y-74616666D01*
X196700000Y-74650000D01*
X196766666Y-74716666D01*
X196800000Y-74783333D01*
X196833333Y-74916666D01*
X196833333Y-75016666D01*
X196800000Y-75150000D01*
X196766666Y-75216666D01*
X196700000Y-75283333D01*
X196600000Y-75316666D01*
X196433333Y-75316666D01*
X197500000Y-75316666D02*
X197100000Y-75316666D01*
X197300000Y-75316666D02*
X197300000Y-74616666D01*
X197233333Y-74716666D01*
X197166666Y-74783333D01*
X197100000Y-74816666D01*
X197733333Y-74616666D02*
X198166666Y-74616666D01*
X197933333Y-74883333D01*
X198033333Y-74883333D01*
X198100000Y-74916666D01*
X198133333Y-74950000D01*
X198166666Y-75016666D01*
X198166666Y-75183333D01*
X198133333Y-75250000D01*
X198100000Y-75283333D01*
X198033333Y-75316666D01*
X197833333Y-75316666D01*
X197766666Y-75283333D01*
X197733333Y-75250000D01*
G04 #@! TO.C,Q2*
X191683333Y-78866666D02*
X191650000Y-78933333D01*
X191583333Y-79000000D01*
X191483333Y-79100000D01*
X191450000Y-79166666D01*
X191450000Y-79233333D01*
X191616666Y-79200000D02*
X191583333Y-79266666D01*
X191516666Y-79333333D01*
X191383333Y-79366666D01*
X191150000Y-79366666D01*
X191016666Y-79333333D01*
X190950000Y-79266666D01*
X190916666Y-79200000D01*
X190916666Y-79066666D01*
X190950000Y-79000000D01*
X191016666Y-78933333D01*
X191150000Y-78900000D01*
X191383333Y-78900000D01*
X191516666Y-78933333D01*
X191583333Y-79000000D01*
X191616666Y-79066666D01*
X191616666Y-79200000D01*
X190983333Y-78633333D02*
X190950000Y-78600000D01*
X190916666Y-78533333D01*
X190916666Y-78366666D01*
X190950000Y-78300000D01*
X190983333Y-78266666D01*
X191050000Y-78233333D01*
X191116666Y-78233333D01*
X191216666Y-78266666D01*
X191616666Y-78666666D01*
X191616666Y-78233333D01*
G04 #@! TO.C,J1*
X197616666Y-64233333D02*
X198116666Y-64233333D01*
X198216666Y-64266666D01*
X198283333Y-64333333D01*
X198316666Y-64433333D01*
X198316666Y-64500000D01*
X198316666Y-63533333D02*
X198316666Y-63933333D01*
X198316666Y-63733333D02*
X197616666Y-63733333D01*
X197716666Y-63800000D01*
X197783333Y-63866666D01*
X197816666Y-63933333D01*
G04 #@! TO.C,J4*
X216816666Y-84233333D02*
X217316666Y-84233333D01*
X217416666Y-84266666D01*
X217483333Y-84333333D01*
X217516666Y-84433333D01*
X217516666Y-84500000D01*
X217050000Y-83600000D02*
X217516666Y-83600000D01*
X216783333Y-83766666D02*
X217283333Y-83933333D01*
X217283333Y-83500000D01*
G04 #@! TO.C,C5*
X209383333Y-80000000D02*
X209350000Y-80033333D01*
X209250000Y-80066666D01*
X209183333Y-80066666D01*
X209083333Y-80033333D01*
X209016666Y-79966666D01*
X208983333Y-79900000D01*
X208950000Y-79766666D01*
X208950000Y-79666666D01*
X208983333Y-79533333D01*
X209016666Y-79466666D01*
X209083333Y-79400000D01*
X209183333Y-79366666D01*
X209250000Y-79366666D01*
X209350000Y-79400000D01*
X209383333Y-79433333D01*
X210016666Y-79366666D02*
X209683333Y-79366666D01*
X209650000Y-79700000D01*
X209683333Y-79666666D01*
X209750000Y-79633333D01*
X209916666Y-79633333D01*
X209983333Y-79666666D01*
X210016666Y-79700000D01*
X210050000Y-79766666D01*
X210050000Y-79933333D01*
X210016666Y-80000000D01*
X209983333Y-80033333D01*
X209916666Y-80066666D01*
X209750000Y-80066666D01*
X209683333Y-80033333D01*
X209650000Y-80000000D01*
G04 #@! TO.C,U1*
X210966666Y-61116666D02*
X210966666Y-61683333D01*
X211000000Y-61750000D01*
X211033333Y-61783333D01*
X211100000Y-61816666D01*
X211233333Y-61816666D01*
X211300000Y-61783333D01*
X211333333Y-61750000D01*
X211366666Y-61683333D01*
X211366666Y-61116666D01*
X212066666Y-61816666D02*
X211666666Y-61816666D01*
X211866666Y-61816666D02*
X211866666Y-61116666D01*
X211800000Y-61216666D01*
X211733333Y-61283333D01*
X211666666Y-61316666D01*
G04 #@! TO.C,Q2*
X215683333Y-78866666D02*
X215650000Y-78933333D01*
X215583333Y-79000000D01*
X215483333Y-79100000D01*
X215450000Y-79166666D01*
X215450000Y-79233333D01*
X215616666Y-79200000D02*
X215583333Y-79266666D01*
X215516666Y-79333333D01*
X215383333Y-79366666D01*
X215150000Y-79366666D01*
X215016666Y-79333333D01*
X214950000Y-79266666D01*
X214916666Y-79200000D01*
X214916666Y-79066666D01*
X214950000Y-79000000D01*
X215016666Y-78933333D01*
X215150000Y-78900000D01*
X215383333Y-78900000D01*
X215516666Y-78933333D01*
X215583333Y-79000000D01*
X215616666Y-79066666D01*
X215616666Y-79200000D01*
X214983333Y-78633333D02*
X214950000Y-78600000D01*
X214916666Y-78533333D01*
X214916666Y-78366666D01*
X214950000Y-78300000D01*
X214983333Y-78266666D01*
X215050000Y-78233333D01*
X215116666Y-78233333D01*
X215216666Y-78266666D01*
X215616666Y-78666666D01*
X215616666Y-78233333D01*
G04 #@! TO.C,J2*
X223766666Y-76286666D02*
X223766666Y-76786666D01*
X223733333Y-76886666D01*
X223666666Y-76953333D01*
X223566666Y-76986666D01*
X223500000Y-76986666D01*
X224066666Y-76353333D02*
X224100000Y-76320000D01*
X224166666Y-76286666D01*
X224333333Y-76286666D01*
X224400000Y-76320000D01*
X224433333Y-76353333D01*
X224466666Y-76420000D01*
X224466666Y-76486666D01*
X224433333Y-76586666D01*
X224033333Y-76986666D01*
X224466666Y-76986666D01*
G04 #@! TO.C,Q1*
X218316666Y-63033333D02*
X218350000Y-62966666D01*
X218416666Y-62900000D01*
X218516666Y-62800000D01*
X218550000Y-62733333D01*
X218550000Y-62666666D01*
X218383333Y-62700000D02*
X218416666Y-62633333D01*
X218483333Y-62566666D01*
X218616666Y-62533333D01*
X218850000Y-62533333D01*
X218983333Y-62566666D01*
X219050000Y-62633333D01*
X219083333Y-62700000D01*
X219083333Y-62833333D01*
X219050000Y-62900000D01*
X218983333Y-62966666D01*
X218850000Y-63000000D01*
X218616666Y-63000000D01*
X218483333Y-62966666D01*
X218416666Y-62900000D01*
X218383333Y-62833333D01*
X218383333Y-62700000D01*
X218383333Y-63666666D02*
X218383333Y-63266666D01*
X218383333Y-63466666D02*
X219083333Y-63466666D01*
X218983333Y-63400000D01*
X218916666Y-63333333D01*
X218883333Y-63266666D01*
X194316666Y-63033333D02*
X194350000Y-62966666D01*
X194416666Y-62900000D01*
X194516666Y-62800000D01*
X194550000Y-62733333D01*
X194550000Y-62666666D01*
X194383333Y-62700000D02*
X194416666Y-62633333D01*
X194483333Y-62566666D01*
X194616666Y-62533333D01*
X194850000Y-62533333D01*
X194983333Y-62566666D01*
X195050000Y-62633333D01*
X195083333Y-62700000D01*
X195083333Y-62833333D01*
X195050000Y-62900000D01*
X194983333Y-62966666D01*
X194850000Y-63000000D01*
X194616666Y-63000000D01*
X194483333Y-62966666D01*
X194416666Y-62900000D01*
X194383333Y-62833333D01*
X194383333Y-62700000D01*
X194383333Y-63666666D02*
X194383333Y-63266666D01*
X194383333Y-63466666D02*
X195083333Y-63466666D01*
X194983333Y-63400000D01*
X194916666Y-63333333D01*
X194883333Y-63266666D01*
G04 #@! TO.C,U2*
X186216666Y-75033333D02*
X186783333Y-75033333D01*
X186850000Y-75000000D01*
X186883333Y-74966666D01*
X186916666Y-74900000D01*
X186916666Y-74766666D01*
X186883333Y-74700000D01*
X186850000Y-74666666D01*
X186783333Y-74633333D01*
X186216666Y-74633333D01*
X186283333Y-74333333D02*
X186250000Y-74300000D01*
X186216666Y-74233333D01*
X186216666Y-74066666D01*
X186250000Y-74000000D01*
X186283333Y-73966666D01*
X186350000Y-73933333D01*
X186416666Y-73933333D01*
X186516666Y-73966666D01*
X186916666Y-74366666D01*
X186916666Y-73933333D01*
G04 #@! TO.C,C2*
X205383333Y-67650000D02*
X205350000Y-67683333D01*
X205250000Y-67716666D01*
X205183333Y-67716666D01*
X205083333Y-67683333D01*
X205016666Y-67616666D01*
X204983333Y-67550000D01*
X204950000Y-67416666D01*
X204950000Y-67316666D01*
X204983333Y-67183333D01*
X205016666Y-67116666D01*
X205083333Y-67050000D01*
X205183333Y-67016666D01*
X205250000Y-67016666D01*
X205350000Y-67050000D01*
X205383333Y-67083333D01*
X205650000Y-67083333D02*
X205683333Y-67050000D01*
X205750000Y-67016666D01*
X205916666Y-67016666D01*
X205983333Y-67050000D01*
X206016666Y-67083333D01*
X206050000Y-67150000D01*
X206050000Y-67216666D01*
X206016666Y-67316666D01*
X205616666Y-67716666D01*
X206050000Y-67716666D01*
G04 #@! TO.C,C6*
X209233333Y-71500000D02*
X209200000Y-71533333D01*
X209100000Y-71566666D01*
X209033333Y-71566666D01*
X208933333Y-71533333D01*
X208866666Y-71466666D01*
X208833333Y-71400000D01*
X208800000Y-71266666D01*
X208800000Y-71166666D01*
X208833333Y-71033333D01*
X208866666Y-70966666D01*
X208933333Y-70900000D01*
X209033333Y-70866666D01*
X209100000Y-70866666D01*
X209200000Y-70900000D01*
X209233333Y-70933333D01*
X209833333Y-70866666D02*
X209700000Y-70866666D01*
X209633333Y-70900000D01*
X209600000Y-70933333D01*
X209533333Y-71033333D01*
X209500000Y-71166666D01*
X209500000Y-71433333D01*
X209533333Y-71500000D01*
X209566666Y-71533333D01*
X209633333Y-71566666D01*
X209766666Y-71566666D01*
X209833333Y-71533333D01*
X209866666Y-71500000D01*
X209900000Y-71433333D01*
X209900000Y-71266666D01*
X209866666Y-71200000D01*
X209833333Y-71166666D01*
X209766666Y-71133333D01*
X209633333Y-71133333D01*
X209566666Y-71166666D01*
X209533333Y-71200000D01*
X209500000Y-71266666D01*
G04 #@! TO.C,R3*
X211783333Y-77316666D02*
X211550000Y-76983333D01*
X211383333Y-77316666D02*
X211383333Y-76616666D01*
X211650000Y-76616666D01*
X211716666Y-76650000D01*
X211750000Y-76683333D01*
X211783333Y-76750000D01*
X211783333Y-76850000D01*
X211750000Y-76916666D01*
X211716666Y-76950000D01*
X211650000Y-76983333D01*
X211383333Y-76983333D01*
X212016666Y-76616666D02*
X212450000Y-76616666D01*
X212216666Y-76883333D01*
X212316666Y-76883333D01*
X212383333Y-76916666D01*
X212416666Y-76950000D01*
X212450000Y-77016666D01*
X212450000Y-77183333D01*
X212416666Y-77250000D01*
X212383333Y-77283333D01*
X212316666Y-77316666D01*
X212116666Y-77316666D01*
X212050000Y-77283333D01*
X212016666Y-77250000D01*
G04 #@! TO.C,C7*
X185233333Y-73000000D02*
X185200000Y-73033333D01*
X185100000Y-73066666D01*
X185033333Y-73066666D01*
X184933333Y-73033333D01*
X184866666Y-72966666D01*
X184833333Y-72900000D01*
X184800000Y-72766666D01*
X184800000Y-72666666D01*
X184833333Y-72533333D01*
X184866666Y-72466666D01*
X184933333Y-72400000D01*
X185033333Y-72366666D01*
X185100000Y-72366666D01*
X185200000Y-72400000D01*
X185233333Y-72433333D01*
X185466666Y-72366666D02*
X185933333Y-72366666D01*
X185633333Y-73066666D01*
G04 #@! TO.C,C6*
X185233333Y-71500000D02*
X185200000Y-71533333D01*
X185100000Y-71566666D01*
X185033333Y-71566666D01*
X184933333Y-71533333D01*
X184866666Y-71466666D01*
X184833333Y-71400000D01*
X184800000Y-71266666D01*
X184800000Y-71166666D01*
X184833333Y-71033333D01*
X184866666Y-70966666D01*
X184933333Y-70900000D01*
X185033333Y-70866666D01*
X185100000Y-70866666D01*
X185200000Y-70900000D01*
X185233333Y-70933333D01*
X185833333Y-70866666D02*
X185700000Y-70866666D01*
X185633333Y-70900000D01*
X185600000Y-70933333D01*
X185533333Y-71033333D01*
X185500000Y-71166666D01*
X185500000Y-71433333D01*
X185533333Y-71500000D01*
X185566666Y-71533333D01*
X185633333Y-71566666D01*
X185766666Y-71566666D01*
X185833333Y-71533333D01*
X185866666Y-71500000D01*
X185900000Y-71433333D01*
X185900000Y-71266666D01*
X185866666Y-71200000D01*
X185833333Y-71166666D01*
X185766666Y-71133333D01*
X185633333Y-71133333D01*
X185566666Y-71166666D01*
X185533333Y-71200000D01*
X185500000Y-71266666D01*
G04 #@! TO.C,C5*
X185383333Y-80000000D02*
X185350000Y-80033333D01*
X185250000Y-80066666D01*
X185183333Y-80066666D01*
X185083333Y-80033333D01*
X185016666Y-79966666D01*
X184983333Y-79900000D01*
X184950000Y-79766666D01*
X184950000Y-79666666D01*
X184983333Y-79533333D01*
X185016666Y-79466666D01*
X185083333Y-79400000D01*
X185183333Y-79366666D01*
X185250000Y-79366666D01*
X185350000Y-79400000D01*
X185383333Y-79433333D01*
X186016666Y-79366666D02*
X185683333Y-79366666D01*
X185650000Y-79700000D01*
X185683333Y-79666666D01*
X185750000Y-79633333D01*
X185916666Y-79633333D01*
X185983333Y-79666666D01*
X186016666Y-79700000D01*
X186050000Y-79766666D01*
X186050000Y-79933333D01*
X186016666Y-80000000D01*
X185983333Y-80033333D01*
X185916666Y-80066666D01*
X185750000Y-80066666D01*
X185683333Y-80033333D01*
X185650000Y-80000000D01*
G04 #@! TO.C,U1*
X186966666Y-61116666D02*
X186966666Y-61683333D01*
X187000000Y-61750000D01*
X187033333Y-61783333D01*
X187100000Y-61816666D01*
X187233333Y-61816666D01*
X187300000Y-61783333D01*
X187333333Y-61750000D01*
X187366666Y-61683333D01*
X187366666Y-61116666D01*
X188066666Y-61816666D02*
X187666666Y-61816666D01*
X187866666Y-61816666D02*
X187866666Y-61116666D01*
X187800000Y-61216666D01*
X187733333Y-61283333D01*
X187666666Y-61316666D01*
G04 #@! TO.C,J3*
X185616666Y-58233333D02*
X186116666Y-58233333D01*
X186216666Y-58266666D01*
X186283333Y-58333333D01*
X186316666Y-58433333D01*
X186316666Y-58500000D01*
X185616666Y-57966666D02*
X185616666Y-57533333D01*
X185883333Y-57766666D01*
X185883333Y-57666666D01*
X185916666Y-57600000D01*
X185950000Y-57566666D01*
X186016666Y-57533333D01*
X186183333Y-57533333D01*
X186250000Y-57566666D01*
X186283333Y-57600000D01*
X186316666Y-57666666D01*
X186316666Y-57866666D01*
X186283333Y-57933333D01*
X186250000Y-57966666D01*
G04 #@! TO.C,C1*
X181383333Y-64450000D02*
X181350000Y-64483333D01*
X181250000Y-64516666D01*
X181183333Y-64516666D01*
X181083333Y-64483333D01*
X181016666Y-64416666D01*
X180983333Y-64350000D01*
X180950000Y-64216666D01*
X180950000Y-64116666D01*
X180983333Y-63983333D01*
X181016666Y-63916666D01*
X181083333Y-63850000D01*
X181183333Y-63816666D01*
X181250000Y-63816666D01*
X181350000Y-63850000D01*
X181383333Y-63883333D01*
X182050000Y-64516666D02*
X181650000Y-64516666D01*
X181850000Y-64516666D02*
X181850000Y-63816666D01*
X181783333Y-63916666D01*
X181716666Y-63983333D01*
X181650000Y-64016666D01*
G04 #@! TO.C,R3*
X187783333Y-77316666D02*
X187550000Y-76983333D01*
X187383333Y-77316666D02*
X187383333Y-76616666D01*
X187650000Y-76616666D01*
X187716666Y-76650000D01*
X187750000Y-76683333D01*
X187783333Y-76750000D01*
X187783333Y-76850000D01*
X187750000Y-76916666D01*
X187716666Y-76950000D01*
X187650000Y-76983333D01*
X187383333Y-76983333D01*
X188016666Y-76616666D02*
X188450000Y-76616666D01*
X188216666Y-76883333D01*
X188316666Y-76883333D01*
X188383333Y-76916666D01*
X188416666Y-76950000D01*
X188450000Y-77016666D01*
X188450000Y-77183333D01*
X188416666Y-77250000D01*
X188383333Y-77283333D01*
X188316666Y-77316666D01*
X188116666Y-77316666D01*
X188050000Y-77283333D01*
X188016666Y-77250000D01*
G04 #@! TO.C,U2*
X210216666Y-75033333D02*
X210783333Y-75033333D01*
X210850000Y-75000000D01*
X210883333Y-74966666D01*
X210916666Y-74900000D01*
X210916666Y-74766666D01*
X210883333Y-74700000D01*
X210850000Y-74666666D01*
X210783333Y-74633333D01*
X210216666Y-74633333D01*
X210283333Y-74333333D02*
X210250000Y-74300000D01*
X210216666Y-74233333D01*
X210216666Y-74066666D01*
X210250000Y-74000000D01*
X210283333Y-73966666D01*
X210350000Y-73933333D01*
X210416666Y-73933333D01*
X210516666Y-73966666D01*
X210916666Y-74366666D01*
X210916666Y-73933333D01*
G04 #@! TO.C,J3*
X209616666Y-58233333D02*
X210116666Y-58233333D01*
X210216666Y-58266666D01*
X210283333Y-58333333D01*
X210316666Y-58433333D01*
X210316666Y-58500000D01*
X209616666Y-57966666D02*
X209616666Y-57533333D01*
X209883333Y-57766666D01*
X209883333Y-57666666D01*
X209916666Y-57600000D01*
X209950000Y-57566666D01*
X210016666Y-57533333D01*
X210183333Y-57533333D01*
X210250000Y-57566666D01*
X210283333Y-57600000D01*
X210316666Y-57666666D01*
X210316666Y-57866666D01*
X210283333Y-57933333D01*
X210250000Y-57966666D01*
G04 #@! TO.C,C3*
X220450000Y-72116666D02*
X220483333Y-72150000D01*
X220516666Y-72250000D01*
X220516666Y-72316666D01*
X220483333Y-72416666D01*
X220416666Y-72483333D01*
X220350000Y-72516666D01*
X220216666Y-72550000D01*
X220116666Y-72550000D01*
X219983333Y-72516666D01*
X219916666Y-72483333D01*
X219850000Y-72416666D01*
X219816666Y-72316666D01*
X219816666Y-72250000D01*
X219850000Y-72150000D01*
X219883333Y-72116666D01*
X219816666Y-71883333D02*
X219816666Y-71450000D01*
X220083333Y-71683333D01*
X220083333Y-71583333D01*
X220116666Y-71516666D01*
X220150000Y-71483333D01*
X220216666Y-71450000D01*
X220383333Y-71450000D01*
X220450000Y-71483333D01*
X220483333Y-71516666D01*
X220516666Y-71583333D01*
X220516666Y-71783333D01*
X220483333Y-71850000D01*
X220450000Y-71883333D01*
G04 #@! TO.C,C7*
X209233333Y-73000000D02*
X209200000Y-73033333D01*
X209100000Y-73066666D01*
X209033333Y-73066666D01*
X208933333Y-73033333D01*
X208866666Y-72966666D01*
X208833333Y-72900000D01*
X208800000Y-72766666D01*
X208800000Y-72666666D01*
X208833333Y-72533333D01*
X208866666Y-72466666D01*
X208933333Y-72400000D01*
X209033333Y-72366666D01*
X209100000Y-72366666D01*
X209200000Y-72400000D01*
X209233333Y-72433333D01*
X209466666Y-72366666D02*
X209933333Y-72366666D01*
X209633333Y-73066666D01*
G04 #@! TO.C,J1*
X221616666Y-64233333D02*
X222116666Y-64233333D01*
X222216666Y-64266666D01*
X222283333Y-64333333D01*
X222316666Y-64433333D01*
X222316666Y-64500000D01*
X222316666Y-63533333D02*
X222316666Y-63933333D01*
X222316666Y-63733333D02*
X221616666Y-63733333D01*
X221716666Y-63800000D01*
X221783333Y-63866666D01*
X221816666Y-63933333D01*
G04 #@! TO.C,J4*
X192816666Y-84233333D02*
X193316666Y-84233333D01*
X193416666Y-84266666D01*
X193483333Y-84333333D01*
X193516666Y-84433333D01*
X193516666Y-84500000D01*
X193050000Y-83600000D02*
X193516666Y-83600000D01*
X192783333Y-83766666D02*
X193283333Y-83933333D01*
X193283333Y-83500000D01*
G04 #@! TO.C,R1*
X199583333Y-60316666D02*
X199350000Y-59983333D01*
X199183333Y-60316666D02*
X199183333Y-59616666D01*
X199450000Y-59616666D01*
X199516666Y-59650000D01*
X199550000Y-59683333D01*
X199583333Y-59750000D01*
X199583333Y-59850000D01*
X199550000Y-59916666D01*
X199516666Y-59950000D01*
X199450000Y-59983333D01*
X199183333Y-59983333D01*
X200250000Y-60316666D02*
X199850000Y-60316666D01*
X200050000Y-60316666D02*
X200050000Y-59616666D01*
X199983333Y-59716666D01*
X199916666Y-59783333D01*
X199850000Y-59816666D01*
G04 #@! TO.C,R2*
X211783333Y-75316666D02*
X211550000Y-74983333D01*
X211383333Y-75316666D02*
X211383333Y-74616666D01*
X211650000Y-74616666D01*
X211716666Y-74650000D01*
X211750000Y-74683333D01*
X211783333Y-74750000D01*
X211783333Y-74850000D01*
X211750000Y-74916666D01*
X211716666Y-74950000D01*
X211650000Y-74983333D01*
X211383333Y-74983333D01*
X212050000Y-74683333D02*
X212083333Y-74650000D01*
X212150000Y-74616666D01*
X212316666Y-74616666D01*
X212383333Y-74650000D01*
X212416666Y-74683333D01*
X212450000Y-74750000D01*
X212450000Y-74816666D01*
X212416666Y-74916666D01*
X212016666Y-75316666D01*
X212450000Y-75316666D01*
X187783333Y-75316666D02*
X187550000Y-74983333D01*
X187383333Y-75316666D02*
X187383333Y-74616666D01*
X187650000Y-74616666D01*
X187716666Y-74650000D01*
X187750000Y-74683333D01*
X187783333Y-74750000D01*
X187783333Y-74850000D01*
X187750000Y-74916666D01*
X187716666Y-74950000D01*
X187650000Y-74983333D01*
X187383333Y-74983333D01*
X188050000Y-74683333D02*
X188083333Y-74650000D01*
X188150000Y-74616666D01*
X188316666Y-74616666D01*
X188383333Y-74650000D01*
X188416666Y-74683333D01*
X188450000Y-74750000D01*
X188450000Y-74816666D01*
X188416666Y-74916666D01*
X188016666Y-75316666D01*
X188450000Y-75316666D01*
G04 #@! TO.C,C4*
X209383333Y-81500000D02*
X209350000Y-81533333D01*
X209250000Y-81566666D01*
X209183333Y-81566666D01*
X209083333Y-81533333D01*
X209016666Y-81466666D01*
X208983333Y-81400000D01*
X208950000Y-81266666D01*
X208950000Y-81166666D01*
X208983333Y-81033333D01*
X209016666Y-80966666D01*
X209083333Y-80900000D01*
X209183333Y-80866666D01*
X209250000Y-80866666D01*
X209350000Y-80900000D01*
X209383333Y-80933333D01*
X209983333Y-81100000D02*
X209983333Y-81566666D01*
X209816666Y-80833333D02*
X209650000Y-81333333D01*
X210083333Y-81333333D01*
G04 #@! TO.C,C3*
X196450000Y-72116666D02*
X196483333Y-72150000D01*
X196516666Y-72250000D01*
X196516666Y-72316666D01*
X196483333Y-72416666D01*
X196416666Y-72483333D01*
X196350000Y-72516666D01*
X196216666Y-72550000D01*
X196116666Y-72550000D01*
X195983333Y-72516666D01*
X195916666Y-72483333D01*
X195850000Y-72416666D01*
X195816666Y-72316666D01*
X195816666Y-72250000D01*
X195850000Y-72150000D01*
X195883333Y-72116666D01*
X195816666Y-71883333D02*
X195816666Y-71450000D01*
X196083333Y-71683333D01*
X196083333Y-71583333D01*
X196116666Y-71516666D01*
X196150000Y-71483333D01*
X196216666Y-71450000D01*
X196383333Y-71450000D01*
X196450000Y-71483333D01*
X196483333Y-71516666D01*
X196516666Y-71583333D01*
X196516666Y-71783333D01*
X196483333Y-71850000D01*
X196450000Y-71883333D01*
G04 #@! TO.C,LD13*
X220200000Y-75316666D02*
X219866666Y-75316666D01*
X219866666Y-74616666D01*
X220433333Y-75316666D02*
X220433333Y-74616666D01*
X220600000Y-74616666D01*
X220700000Y-74650000D01*
X220766666Y-74716666D01*
X220800000Y-74783333D01*
X220833333Y-74916666D01*
X220833333Y-75016666D01*
X220800000Y-75150000D01*
X220766666Y-75216666D01*
X220700000Y-75283333D01*
X220600000Y-75316666D01*
X220433333Y-75316666D01*
X221500000Y-75316666D02*
X221100000Y-75316666D01*
X221300000Y-75316666D02*
X221300000Y-74616666D01*
X221233333Y-74716666D01*
X221166666Y-74783333D01*
X221100000Y-74816666D01*
X221733333Y-74616666D02*
X222166666Y-74616666D01*
X221933333Y-74883333D01*
X222033333Y-74883333D01*
X222100000Y-74916666D01*
X222133333Y-74950000D01*
X222166666Y-75016666D01*
X222166666Y-75183333D01*
X222133333Y-75250000D01*
X222100000Y-75283333D01*
X222033333Y-75316666D01*
X221833333Y-75316666D01*
X221766666Y-75283333D01*
X221733333Y-75250000D01*
G04 #@! TO.C,C2*
X181383333Y-99650000D02*
X181350000Y-99683333D01*
X181250000Y-99716666D01*
X181183333Y-99716666D01*
X181083333Y-99683333D01*
X181016666Y-99616666D01*
X180983333Y-99550000D01*
X180950000Y-99416666D01*
X180950000Y-99316666D01*
X180983333Y-99183333D01*
X181016666Y-99116666D01*
X181083333Y-99050000D01*
X181183333Y-99016666D01*
X181250000Y-99016666D01*
X181350000Y-99050000D01*
X181383333Y-99083333D01*
X181650000Y-99083333D02*
X181683333Y-99050000D01*
X181750000Y-99016666D01*
X181916666Y-99016666D01*
X181983333Y-99050000D01*
X182016666Y-99083333D01*
X182050000Y-99150000D01*
X182050000Y-99216666D01*
X182016666Y-99316666D01*
X181616666Y-99716666D01*
X182050000Y-99716666D01*
G04 #@! TO.C,J2*
X199766666Y-108286666D02*
X199766666Y-108786666D01*
X199733333Y-108886666D01*
X199666666Y-108953333D01*
X199566666Y-108986666D01*
X199500000Y-108986666D01*
X200066666Y-108353333D02*
X200100000Y-108320000D01*
X200166666Y-108286666D01*
X200333333Y-108286666D01*
X200400000Y-108320000D01*
X200433333Y-108353333D01*
X200466666Y-108420000D01*
X200466666Y-108486666D01*
X200433333Y-108586666D01*
X200033333Y-108986666D01*
X200466666Y-108986666D01*
G04 #@! TO.C,LD3*
X196233333Y-111316666D02*
X195900000Y-111316666D01*
X195900000Y-110616666D01*
X196466666Y-111316666D02*
X196466666Y-110616666D01*
X196633333Y-110616666D01*
X196733333Y-110650000D01*
X196800000Y-110716666D01*
X196833333Y-110783333D01*
X196866666Y-110916666D01*
X196866666Y-111016666D01*
X196833333Y-111150000D01*
X196800000Y-111216666D01*
X196733333Y-111283333D01*
X196633333Y-111316666D01*
X196466666Y-111316666D01*
X197100000Y-110616666D02*
X197533333Y-110616666D01*
X197300000Y-110883333D01*
X197400000Y-110883333D01*
X197466666Y-110916666D01*
X197500000Y-110950000D01*
X197533333Y-111016666D01*
X197533333Y-111183333D01*
X197500000Y-111250000D01*
X197466666Y-111283333D01*
X197400000Y-111316666D01*
X197200000Y-111316666D01*
X197133333Y-111283333D01*
X197100000Y-111250000D01*
X220233333Y-111316666D02*
X219900000Y-111316666D01*
X219900000Y-110616666D01*
X220466666Y-111316666D02*
X220466666Y-110616666D01*
X220633333Y-110616666D01*
X220733333Y-110650000D01*
X220800000Y-110716666D01*
X220833333Y-110783333D01*
X220866666Y-110916666D01*
X220866666Y-111016666D01*
X220833333Y-111150000D01*
X220800000Y-111216666D01*
X220733333Y-111283333D01*
X220633333Y-111316666D01*
X220466666Y-111316666D01*
X221100000Y-110616666D02*
X221533333Y-110616666D01*
X221300000Y-110883333D01*
X221400000Y-110883333D01*
X221466666Y-110916666D01*
X221500000Y-110950000D01*
X221533333Y-111016666D01*
X221533333Y-111183333D01*
X221500000Y-111250000D01*
X221466666Y-111283333D01*
X221400000Y-111316666D01*
X221200000Y-111316666D01*
X221133333Y-111283333D01*
X221100000Y-111250000D01*
G04 #@! TO.C,BAT1*
X210850000Y-116850000D02*
X210883333Y-116750000D01*
X210916666Y-116716666D01*
X210983333Y-116683333D01*
X211083333Y-116683333D01*
X211150000Y-116716666D01*
X211183333Y-116750000D01*
X211216666Y-116816666D01*
X211216666Y-117083333D01*
X210516666Y-117083333D01*
X210516666Y-116850000D01*
X210550000Y-116783333D01*
X210583333Y-116750000D01*
X210650000Y-116716666D01*
X210716666Y-116716666D01*
X210783333Y-116750000D01*
X210816666Y-116783333D01*
X210850000Y-116850000D01*
X210850000Y-117083333D01*
X211016666Y-116416666D02*
X211016666Y-116083333D01*
X211216666Y-116483333D02*
X210516666Y-116250000D01*
X211216666Y-116016666D01*
X210516666Y-115883333D02*
X210516666Y-115483333D01*
X211216666Y-115683333D02*
X210516666Y-115683333D01*
X211216666Y-114883333D02*
X211216666Y-115283333D01*
X211216666Y-115083333D02*
X210516666Y-115083333D01*
X210616666Y-115150000D01*
X210683333Y-115216666D01*
X210716666Y-115283333D01*
G04 #@! TO.C,R1*
X223583333Y-92316666D02*
X223350000Y-91983333D01*
X223183333Y-92316666D02*
X223183333Y-91616666D01*
X223450000Y-91616666D01*
X223516666Y-91650000D01*
X223550000Y-91683333D01*
X223583333Y-91750000D01*
X223583333Y-91850000D01*
X223550000Y-91916666D01*
X223516666Y-91950000D01*
X223450000Y-91983333D01*
X223183333Y-91983333D01*
X224250000Y-92316666D02*
X223850000Y-92316666D01*
X224050000Y-92316666D02*
X224050000Y-91616666D01*
X223983333Y-91716666D01*
X223916666Y-91783333D01*
X223850000Y-91816666D01*
G04 #@! TO.C,C4*
X185383333Y-113500000D02*
X185350000Y-113533333D01*
X185250000Y-113566666D01*
X185183333Y-113566666D01*
X185083333Y-113533333D01*
X185016666Y-113466666D01*
X184983333Y-113400000D01*
X184950000Y-113266666D01*
X184950000Y-113166666D01*
X184983333Y-113033333D01*
X185016666Y-112966666D01*
X185083333Y-112900000D01*
X185183333Y-112866666D01*
X185250000Y-112866666D01*
X185350000Y-112900000D01*
X185383333Y-112933333D01*
X185983333Y-113100000D02*
X185983333Y-113566666D01*
X185816666Y-112833333D02*
X185650000Y-113333333D01*
X186083333Y-113333333D01*
G04 #@! TO.C,BAT1*
X186850000Y-116850000D02*
X186883333Y-116750000D01*
X186916666Y-116716666D01*
X186983333Y-116683333D01*
X187083333Y-116683333D01*
X187150000Y-116716666D01*
X187183333Y-116750000D01*
X187216666Y-116816666D01*
X187216666Y-117083333D01*
X186516666Y-117083333D01*
X186516666Y-116850000D01*
X186550000Y-116783333D01*
X186583333Y-116750000D01*
X186650000Y-116716666D01*
X186716666Y-116716666D01*
X186783333Y-116750000D01*
X186816666Y-116783333D01*
X186850000Y-116850000D01*
X186850000Y-117083333D01*
X187016666Y-116416666D02*
X187016666Y-116083333D01*
X187216666Y-116483333D02*
X186516666Y-116250000D01*
X187216666Y-116016666D01*
X186516666Y-115883333D02*
X186516666Y-115483333D01*
X187216666Y-115683333D02*
X186516666Y-115683333D01*
X187216666Y-114883333D02*
X187216666Y-115283333D01*
X187216666Y-115083333D02*
X186516666Y-115083333D01*
X186616666Y-115150000D01*
X186683333Y-115216666D01*
X186716666Y-115283333D01*
G04 #@! TO.C,C1*
X205383333Y-96450000D02*
X205350000Y-96483333D01*
X205250000Y-96516666D01*
X205183333Y-96516666D01*
X205083333Y-96483333D01*
X205016666Y-96416666D01*
X204983333Y-96350000D01*
X204950000Y-96216666D01*
X204950000Y-96116666D01*
X204983333Y-95983333D01*
X205016666Y-95916666D01*
X205083333Y-95850000D01*
X205183333Y-95816666D01*
X205250000Y-95816666D01*
X205350000Y-95850000D01*
X205383333Y-95883333D01*
X206050000Y-96516666D02*
X205650000Y-96516666D01*
X205850000Y-96516666D02*
X205850000Y-95816666D01*
X205783333Y-95916666D01*
X205716666Y-95983333D01*
X205650000Y-96016666D01*
G04 #@! TO.C,LD13*
X196200000Y-107316666D02*
X195866666Y-107316666D01*
X195866666Y-106616666D01*
X196433333Y-107316666D02*
X196433333Y-106616666D01*
X196600000Y-106616666D01*
X196700000Y-106650000D01*
X196766666Y-106716666D01*
X196800000Y-106783333D01*
X196833333Y-106916666D01*
X196833333Y-107016666D01*
X196800000Y-107150000D01*
X196766666Y-107216666D01*
X196700000Y-107283333D01*
X196600000Y-107316666D01*
X196433333Y-107316666D01*
X197500000Y-107316666D02*
X197100000Y-107316666D01*
X197300000Y-107316666D02*
X197300000Y-106616666D01*
X197233333Y-106716666D01*
X197166666Y-106783333D01*
X197100000Y-106816666D01*
X197733333Y-106616666D02*
X198166666Y-106616666D01*
X197933333Y-106883333D01*
X198033333Y-106883333D01*
X198100000Y-106916666D01*
X198133333Y-106950000D01*
X198166666Y-107016666D01*
X198166666Y-107183333D01*
X198133333Y-107250000D01*
X198100000Y-107283333D01*
X198033333Y-107316666D01*
X197833333Y-107316666D01*
X197766666Y-107283333D01*
X197733333Y-107250000D01*
G04 #@! TO.C,Q2*
X191683333Y-110866666D02*
X191650000Y-110933333D01*
X191583333Y-111000000D01*
X191483333Y-111100000D01*
X191450000Y-111166666D01*
X191450000Y-111233333D01*
X191616666Y-111200000D02*
X191583333Y-111266666D01*
X191516666Y-111333333D01*
X191383333Y-111366666D01*
X191150000Y-111366666D01*
X191016666Y-111333333D01*
X190950000Y-111266666D01*
X190916666Y-111200000D01*
X190916666Y-111066666D01*
X190950000Y-111000000D01*
X191016666Y-110933333D01*
X191150000Y-110900000D01*
X191383333Y-110900000D01*
X191516666Y-110933333D01*
X191583333Y-111000000D01*
X191616666Y-111066666D01*
X191616666Y-111200000D01*
X190983333Y-110633333D02*
X190950000Y-110600000D01*
X190916666Y-110533333D01*
X190916666Y-110366666D01*
X190950000Y-110300000D01*
X190983333Y-110266666D01*
X191050000Y-110233333D01*
X191116666Y-110233333D01*
X191216666Y-110266666D01*
X191616666Y-110666666D01*
X191616666Y-110233333D01*
G04 #@! TO.C,J1*
X197616666Y-96233333D02*
X198116666Y-96233333D01*
X198216666Y-96266666D01*
X198283333Y-96333333D01*
X198316666Y-96433333D01*
X198316666Y-96500000D01*
X198316666Y-95533333D02*
X198316666Y-95933333D01*
X198316666Y-95733333D02*
X197616666Y-95733333D01*
X197716666Y-95800000D01*
X197783333Y-95866666D01*
X197816666Y-95933333D01*
G04 #@! TO.C,J4*
X216816666Y-116233333D02*
X217316666Y-116233333D01*
X217416666Y-116266666D01*
X217483333Y-116333333D01*
X217516666Y-116433333D01*
X217516666Y-116500000D01*
X217050000Y-115600000D02*
X217516666Y-115600000D01*
X216783333Y-115766666D02*
X217283333Y-115933333D01*
X217283333Y-115500000D01*
G04 #@! TO.C,C5*
X209383333Y-112000000D02*
X209350000Y-112033333D01*
X209250000Y-112066666D01*
X209183333Y-112066666D01*
X209083333Y-112033333D01*
X209016666Y-111966666D01*
X208983333Y-111900000D01*
X208950000Y-111766666D01*
X208950000Y-111666666D01*
X208983333Y-111533333D01*
X209016666Y-111466666D01*
X209083333Y-111400000D01*
X209183333Y-111366666D01*
X209250000Y-111366666D01*
X209350000Y-111400000D01*
X209383333Y-111433333D01*
X210016666Y-111366666D02*
X209683333Y-111366666D01*
X209650000Y-111700000D01*
X209683333Y-111666666D01*
X209750000Y-111633333D01*
X209916666Y-111633333D01*
X209983333Y-111666666D01*
X210016666Y-111700000D01*
X210050000Y-111766666D01*
X210050000Y-111933333D01*
X210016666Y-112000000D01*
X209983333Y-112033333D01*
X209916666Y-112066666D01*
X209750000Y-112066666D01*
X209683333Y-112033333D01*
X209650000Y-112000000D01*
G04 #@! TO.C,U1*
X210966666Y-93116666D02*
X210966666Y-93683333D01*
X211000000Y-93750000D01*
X211033333Y-93783333D01*
X211100000Y-93816666D01*
X211233333Y-93816666D01*
X211300000Y-93783333D01*
X211333333Y-93750000D01*
X211366666Y-93683333D01*
X211366666Y-93116666D01*
X212066666Y-93816666D02*
X211666666Y-93816666D01*
X211866666Y-93816666D02*
X211866666Y-93116666D01*
X211800000Y-93216666D01*
X211733333Y-93283333D01*
X211666666Y-93316666D01*
G04 #@! TO.C,Q2*
X215683333Y-110866666D02*
X215650000Y-110933333D01*
X215583333Y-111000000D01*
X215483333Y-111100000D01*
X215450000Y-111166666D01*
X215450000Y-111233333D01*
X215616666Y-111200000D02*
X215583333Y-111266666D01*
X215516666Y-111333333D01*
X215383333Y-111366666D01*
X215150000Y-111366666D01*
X215016666Y-111333333D01*
X214950000Y-111266666D01*
X214916666Y-111200000D01*
X214916666Y-111066666D01*
X214950000Y-111000000D01*
X215016666Y-110933333D01*
X215150000Y-110900000D01*
X215383333Y-110900000D01*
X215516666Y-110933333D01*
X215583333Y-111000000D01*
X215616666Y-111066666D01*
X215616666Y-111200000D01*
X214983333Y-110633333D02*
X214950000Y-110600000D01*
X214916666Y-110533333D01*
X214916666Y-110366666D01*
X214950000Y-110300000D01*
X214983333Y-110266666D01*
X215050000Y-110233333D01*
X215116666Y-110233333D01*
X215216666Y-110266666D01*
X215616666Y-110666666D01*
X215616666Y-110233333D01*
G04 #@! TO.C,J2*
X223766666Y-108286666D02*
X223766666Y-108786666D01*
X223733333Y-108886666D01*
X223666666Y-108953333D01*
X223566666Y-108986666D01*
X223500000Y-108986666D01*
X224066666Y-108353333D02*
X224100000Y-108320000D01*
X224166666Y-108286666D01*
X224333333Y-108286666D01*
X224400000Y-108320000D01*
X224433333Y-108353333D01*
X224466666Y-108420000D01*
X224466666Y-108486666D01*
X224433333Y-108586666D01*
X224033333Y-108986666D01*
X224466666Y-108986666D01*
G04 #@! TO.C,Q1*
X218316666Y-95033333D02*
X218350000Y-94966666D01*
X218416666Y-94900000D01*
X218516666Y-94800000D01*
X218550000Y-94733333D01*
X218550000Y-94666666D01*
X218383333Y-94700000D02*
X218416666Y-94633333D01*
X218483333Y-94566666D01*
X218616666Y-94533333D01*
X218850000Y-94533333D01*
X218983333Y-94566666D01*
X219050000Y-94633333D01*
X219083333Y-94700000D01*
X219083333Y-94833333D01*
X219050000Y-94900000D01*
X218983333Y-94966666D01*
X218850000Y-95000000D01*
X218616666Y-95000000D01*
X218483333Y-94966666D01*
X218416666Y-94900000D01*
X218383333Y-94833333D01*
X218383333Y-94700000D01*
X218383333Y-95666666D02*
X218383333Y-95266666D01*
X218383333Y-95466666D02*
X219083333Y-95466666D01*
X218983333Y-95400000D01*
X218916666Y-95333333D01*
X218883333Y-95266666D01*
X194316666Y-95033333D02*
X194350000Y-94966666D01*
X194416666Y-94900000D01*
X194516666Y-94800000D01*
X194550000Y-94733333D01*
X194550000Y-94666666D01*
X194383333Y-94700000D02*
X194416666Y-94633333D01*
X194483333Y-94566666D01*
X194616666Y-94533333D01*
X194850000Y-94533333D01*
X194983333Y-94566666D01*
X195050000Y-94633333D01*
X195083333Y-94700000D01*
X195083333Y-94833333D01*
X195050000Y-94900000D01*
X194983333Y-94966666D01*
X194850000Y-95000000D01*
X194616666Y-95000000D01*
X194483333Y-94966666D01*
X194416666Y-94900000D01*
X194383333Y-94833333D01*
X194383333Y-94700000D01*
X194383333Y-95666666D02*
X194383333Y-95266666D01*
X194383333Y-95466666D02*
X195083333Y-95466666D01*
X194983333Y-95400000D01*
X194916666Y-95333333D01*
X194883333Y-95266666D01*
G04 #@! TO.C,U2*
X186216666Y-107033333D02*
X186783333Y-107033333D01*
X186850000Y-107000000D01*
X186883333Y-106966666D01*
X186916666Y-106900000D01*
X186916666Y-106766666D01*
X186883333Y-106700000D01*
X186850000Y-106666666D01*
X186783333Y-106633333D01*
X186216666Y-106633333D01*
X186283333Y-106333333D02*
X186250000Y-106300000D01*
X186216666Y-106233333D01*
X186216666Y-106066666D01*
X186250000Y-106000000D01*
X186283333Y-105966666D01*
X186350000Y-105933333D01*
X186416666Y-105933333D01*
X186516666Y-105966666D01*
X186916666Y-106366666D01*
X186916666Y-105933333D01*
G04 #@! TO.C,C2*
X205383333Y-99650000D02*
X205350000Y-99683333D01*
X205250000Y-99716666D01*
X205183333Y-99716666D01*
X205083333Y-99683333D01*
X205016666Y-99616666D01*
X204983333Y-99550000D01*
X204950000Y-99416666D01*
X204950000Y-99316666D01*
X204983333Y-99183333D01*
X205016666Y-99116666D01*
X205083333Y-99050000D01*
X205183333Y-99016666D01*
X205250000Y-99016666D01*
X205350000Y-99050000D01*
X205383333Y-99083333D01*
X205650000Y-99083333D02*
X205683333Y-99050000D01*
X205750000Y-99016666D01*
X205916666Y-99016666D01*
X205983333Y-99050000D01*
X206016666Y-99083333D01*
X206050000Y-99150000D01*
X206050000Y-99216666D01*
X206016666Y-99316666D01*
X205616666Y-99716666D01*
X206050000Y-99716666D01*
G04 #@! TO.C,C6*
X209233333Y-103500000D02*
X209200000Y-103533333D01*
X209100000Y-103566666D01*
X209033333Y-103566666D01*
X208933333Y-103533333D01*
X208866666Y-103466666D01*
X208833333Y-103400000D01*
X208800000Y-103266666D01*
X208800000Y-103166666D01*
X208833333Y-103033333D01*
X208866666Y-102966666D01*
X208933333Y-102900000D01*
X209033333Y-102866666D01*
X209100000Y-102866666D01*
X209200000Y-102900000D01*
X209233333Y-102933333D01*
X209833333Y-102866666D02*
X209700000Y-102866666D01*
X209633333Y-102900000D01*
X209600000Y-102933333D01*
X209533333Y-103033333D01*
X209500000Y-103166666D01*
X209500000Y-103433333D01*
X209533333Y-103500000D01*
X209566666Y-103533333D01*
X209633333Y-103566666D01*
X209766666Y-103566666D01*
X209833333Y-103533333D01*
X209866666Y-103500000D01*
X209900000Y-103433333D01*
X209900000Y-103266666D01*
X209866666Y-103200000D01*
X209833333Y-103166666D01*
X209766666Y-103133333D01*
X209633333Y-103133333D01*
X209566666Y-103166666D01*
X209533333Y-103200000D01*
X209500000Y-103266666D01*
G04 #@! TO.C,R3*
X211783333Y-109316666D02*
X211550000Y-108983333D01*
X211383333Y-109316666D02*
X211383333Y-108616666D01*
X211650000Y-108616666D01*
X211716666Y-108650000D01*
X211750000Y-108683333D01*
X211783333Y-108750000D01*
X211783333Y-108850000D01*
X211750000Y-108916666D01*
X211716666Y-108950000D01*
X211650000Y-108983333D01*
X211383333Y-108983333D01*
X212016666Y-108616666D02*
X212450000Y-108616666D01*
X212216666Y-108883333D01*
X212316666Y-108883333D01*
X212383333Y-108916666D01*
X212416666Y-108950000D01*
X212450000Y-109016666D01*
X212450000Y-109183333D01*
X212416666Y-109250000D01*
X212383333Y-109283333D01*
X212316666Y-109316666D01*
X212116666Y-109316666D01*
X212050000Y-109283333D01*
X212016666Y-109250000D01*
G04 #@! TO.C,C7*
X185233333Y-105000000D02*
X185200000Y-105033333D01*
X185100000Y-105066666D01*
X185033333Y-105066666D01*
X184933333Y-105033333D01*
X184866666Y-104966666D01*
X184833333Y-104900000D01*
X184800000Y-104766666D01*
X184800000Y-104666666D01*
X184833333Y-104533333D01*
X184866666Y-104466666D01*
X184933333Y-104400000D01*
X185033333Y-104366666D01*
X185100000Y-104366666D01*
X185200000Y-104400000D01*
X185233333Y-104433333D01*
X185466666Y-104366666D02*
X185933333Y-104366666D01*
X185633333Y-105066666D01*
G04 #@! TO.C,C6*
X185233333Y-103500000D02*
X185200000Y-103533333D01*
X185100000Y-103566666D01*
X185033333Y-103566666D01*
X184933333Y-103533333D01*
X184866666Y-103466666D01*
X184833333Y-103400000D01*
X184800000Y-103266666D01*
X184800000Y-103166666D01*
X184833333Y-103033333D01*
X184866666Y-102966666D01*
X184933333Y-102900000D01*
X185033333Y-102866666D01*
X185100000Y-102866666D01*
X185200000Y-102900000D01*
X185233333Y-102933333D01*
X185833333Y-102866666D02*
X185700000Y-102866666D01*
X185633333Y-102900000D01*
X185600000Y-102933333D01*
X185533333Y-103033333D01*
X185500000Y-103166666D01*
X185500000Y-103433333D01*
X185533333Y-103500000D01*
X185566666Y-103533333D01*
X185633333Y-103566666D01*
X185766666Y-103566666D01*
X185833333Y-103533333D01*
X185866666Y-103500000D01*
X185900000Y-103433333D01*
X185900000Y-103266666D01*
X185866666Y-103200000D01*
X185833333Y-103166666D01*
X185766666Y-103133333D01*
X185633333Y-103133333D01*
X185566666Y-103166666D01*
X185533333Y-103200000D01*
X185500000Y-103266666D01*
G04 #@! TO.C,C5*
X185383333Y-112000000D02*
X185350000Y-112033333D01*
X185250000Y-112066666D01*
X185183333Y-112066666D01*
X185083333Y-112033333D01*
X185016666Y-111966666D01*
X184983333Y-111900000D01*
X184950000Y-111766666D01*
X184950000Y-111666666D01*
X184983333Y-111533333D01*
X185016666Y-111466666D01*
X185083333Y-111400000D01*
X185183333Y-111366666D01*
X185250000Y-111366666D01*
X185350000Y-111400000D01*
X185383333Y-111433333D01*
X186016666Y-111366666D02*
X185683333Y-111366666D01*
X185650000Y-111700000D01*
X185683333Y-111666666D01*
X185750000Y-111633333D01*
X185916666Y-111633333D01*
X185983333Y-111666666D01*
X186016666Y-111700000D01*
X186050000Y-111766666D01*
X186050000Y-111933333D01*
X186016666Y-112000000D01*
X185983333Y-112033333D01*
X185916666Y-112066666D01*
X185750000Y-112066666D01*
X185683333Y-112033333D01*
X185650000Y-112000000D01*
G04 #@! TO.C,U1*
X186966666Y-93116666D02*
X186966666Y-93683333D01*
X187000000Y-93750000D01*
X187033333Y-93783333D01*
X187100000Y-93816666D01*
X187233333Y-93816666D01*
X187300000Y-93783333D01*
X187333333Y-93750000D01*
X187366666Y-93683333D01*
X187366666Y-93116666D01*
X188066666Y-93816666D02*
X187666666Y-93816666D01*
X187866666Y-93816666D02*
X187866666Y-93116666D01*
X187800000Y-93216666D01*
X187733333Y-93283333D01*
X187666666Y-93316666D01*
G04 #@! TO.C,J3*
X185616666Y-90233333D02*
X186116666Y-90233333D01*
X186216666Y-90266666D01*
X186283333Y-90333333D01*
X186316666Y-90433333D01*
X186316666Y-90500000D01*
X185616666Y-89966666D02*
X185616666Y-89533333D01*
X185883333Y-89766666D01*
X185883333Y-89666666D01*
X185916666Y-89600000D01*
X185950000Y-89566666D01*
X186016666Y-89533333D01*
X186183333Y-89533333D01*
X186250000Y-89566666D01*
X186283333Y-89600000D01*
X186316666Y-89666666D01*
X186316666Y-89866666D01*
X186283333Y-89933333D01*
X186250000Y-89966666D01*
G04 #@! TO.C,C1*
X181383333Y-96450000D02*
X181350000Y-96483333D01*
X181250000Y-96516666D01*
X181183333Y-96516666D01*
X181083333Y-96483333D01*
X181016666Y-96416666D01*
X180983333Y-96350000D01*
X180950000Y-96216666D01*
X180950000Y-96116666D01*
X180983333Y-95983333D01*
X181016666Y-95916666D01*
X181083333Y-95850000D01*
X181183333Y-95816666D01*
X181250000Y-95816666D01*
X181350000Y-95850000D01*
X181383333Y-95883333D01*
X182050000Y-96516666D02*
X181650000Y-96516666D01*
X181850000Y-96516666D02*
X181850000Y-95816666D01*
X181783333Y-95916666D01*
X181716666Y-95983333D01*
X181650000Y-96016666D01*
G04 #@! TO.C,R3*
X187783333Y-109316666D02*
X187550000Y-108983333D01*
X187383333Y-109316666D02*
X187383333Y-108616666D01*
X187650000Y-108616666D01*
X187716666Y-108650000D01*
X187750000Y-108683333D01*
X187783333Y-108750000D01*
X187783333Y-108850000D01*
X187750000Y-108916666D01*
X187716666Y-108950000D01*
X187650000Y-108983333D01*
X187383333Y-108983333D01*
X188016666Y-108616666D02*
X188450000Y-108616666D01*
X188216666Y-108883333D01*
X188316666Y-108883333D01*
X188383333Y-108916666D01*
X188416666Y-108950000D01*
X188450000Y-109016666D01*
X188450000Y-109183333D01*
X188416666Y-109250000D01*
X188383333Y-109283333D01*
X188316666Y-109316666D01*
X188116666Y-109316666D01*
X188050000Y-109283333D01*
X188016666Y-109250000D01*
G04 #@! TO.C,U2*
X210216666Y-107033333D02*
X210783333Y-107033333D01*
X210850000Y-107000000D01*
X210883333Y-106966666D01*
X210916666Y-106900000D01*
X210916666Y-106766666D01*
X210883333Y-106700000D01*
X210850000Y-106666666D01*
X210783333Y-106633333D01*
X210216666Y-106633333D01*
X210283333Y-106333333D02*
X210250000Y-106300000D01*
X210216666Y-106233333D01*
X210216666Y-106066666D01*
X210250000Y-106000000D01*
X210283333Y-105966666D01*
X210350000Y-105933333D01*
X210416666Y-105933333D01*
X210516666Y-105966666D01*
X210916666Y-106366666D01*
X210916666Y-105933333D01*
G04 #@! TO.C,J3*
X209616666Y-90233333D02*
X210116666Y-90233333D01*
X210216666Y-90266666D01*
X210283333Y-90333333D01*
X210316666Y-90433333D01*
X210316666Y-90500000D01*
X209616666Y-89966666D02*
X209616666Y-89533333D01*
X209883333Y-89766666D01*
X209883333Y-89666666D01*
X209916666Y-89600000D01*
X209950000Y-89566666D01*
X210016666Y-89533333D01*
X210183333Y-89533333D01*
X210250000Y-89566666D01*
X210283333Y-89600000D01*
X210316666Y-89666666D01*
X210316666Y-89866666D01*
X210283333Y-89933333D01*
X210250000Y-89966666D01*
G04 #@! TO.C,C3*
X220450000Y-104116666D02*
X220483333Y-104150000D01*
X220516666Y-104250000D01*
X220516666Y-104316666D01*
X220483333Y-104416666D01*
X220416666Y-104483333D01*
X220350000Y-104516666D01*
X220216666Y-104550000D01*
X220116666Y-104550000D01*
X219983333Y-104516666D01*
X219916666Y-104483333D01*
X219850000Y-104416666D01*
X219816666Y-104316666D01*
X219816666Y-104250000D01*
X219850000Y-104150000D01*
X219883333Y-104116666D01*
X219816666Y-103883333D02*
X219816666Y-103450000D01*
X220083333Y-103683333D01*
X220083333Y-103583333D01*
X220116666Y-103516666D01*
X220150000Y-103483333D01*
X220216666Y-103450000D01*
X220383333Y-103450000D01*
X220450000Y-103483333D01*
X220483333Y-103516666D01*
X220516666Y-103583333D01*
X220516666Y-103783333D01*
X220483333Y-103850000D01*
X220450000Y-103883333D01*
G04 #@! TO.C,C7*
X209233333Y-105000000D02*
X209200000Y-105033333D01*
X209100000Y-105066666D01*
X209033333Y-105066666D01*
X208933333Y-105033333D01*
X208866666Y-104966666D01*
X208833333Y-104900000D01*
X208800000Y-104766666D01*
X208800000Y-104666666D01*
X208833333Y-104533333D01*
X208866666Y-104466666D01*
X208933333Y-104400000D01*
X209033333Y-104366666D01*
X209100000Y-104366666D01*
X209200000Y-104400000D01*
X209233333Y-104433333D01*
X209466666Y-104366666D02*
X209933333Y-104366666D01*
X209633333Y-105066666D01*
G04 #@! TO.C,J1*
X221616666Y-96233333D02*
X222116666Y-96233333D01*
X222216666Y-96266666D01*
X222283333Y-96333333D01*
X222316666Y-96433333D01*
X222316666Y-96500000D01*
X222316666Y-95533333D02*
X222316666Y-95933333D01*
X222316666Y-95733333D02*
X221616666Y-95733333D01*
X221716666Y-95800000D01*
X221783333Y-95866666D01*
X221816666Y-95933333D01*
G04 #@! TO.C,J4*
X192816666Y-116233333D02*
X193316666Y-116233333D01*
X193416666Y-116266666D01*
X193483333Y-116333333D01*
X193516666Y-116433333D01*
X193516666Y-116500000D01*
X193050000Y-115600000D02*
X193516666Y-115600000D01*
X192783333Y-115766666D02*
X193283333Y-115933333D01*
X193283333Y-115500000D01*
G04 #@! TO.C,R1*
X199583333Y-92316666D02*
X199350000Y-91983333D01*
X199183333Y-92316666D02*
X199183333Y-91616666D01*
X199450000Y-91616666D01*
X199516666Y-91650000D01*
X199550000Y-91683333D01*
X199583333Y-91750000D01*
X199583333Y-91850000D01*
X199550000Y-91916666D01*
X199516666Y-91950000D01*
X199450000Y-91983333D01*
X199183333Y-91983333D01*
X200250000Y-92316666D02*
X199850000Y-92316666D01*
X200050000Y-92316666D02*
X200050000Y-91616666D01*
X199983333Y-91716666D01*
X199916666Y-91783333D01*
X199850000Y-91816666D01*
G04 #@! TO.C,R2*
X211783333Y-107316666D02*
X211550000Y-106983333D01*
X211383333Y-107316666D02*
X211383333Y-106616666D01*
X211650000Y-106616666D01*
X211716666Y-106650000D01*
X211750000Y-106683333D01*
X211783333Y-106750000D01*
X211783333Y-106850000D01*
X211750000Y-106916666D01*
X211716666Y-106950000D01*
X211650000Y-106983333D01*
X211383333Y-106983333D01*
X212050000Y-106683333D02*
X212083333Y-106650000D01*
X212150000Y-106616666D01*
X212316666Y-106616666D01*
X212383333Y-106650000D01*
X212416666Y-106683333D01*
X212450000Y-106750000D01*
X212450000Y-106816666D01*
X212416666Y-106916666D01*
X212016666Y-107316666D01*
X212450000Y-107316666D01*
X187783333Y-107316666D02*
X187550000Y-106983333D01*
X187383333Y-107316666D02*
X187383333Y-106616666D01*
X187650000Y-106616666D01*
X187716666Y-106650000D01*
X187750000Y-106683333D01*
X187783333Y-106750000D01*
X187783333Y-106850000D01*
X187750000Y-106916666D01*
X187716666Y-106950000D01*
X187650000Y-106983333D01*
X187383333Y-106983333D01*
X188050000Y-106683333D02*
X188083333Y-106650000D01*
X188150000Y-106616666D01*
X188316666Y-106616666D01*
X188383333Y-106650000D01*
X188416666Y-106683333D01*
X188450000Y-106750000D01*
X188450000Y-106816666D01*
X188416666Y-106916666D01*
X188016666Y-107316666D01*
X188450000Y-107316666D01*
G04 #@! TO.C,C4*
X209383333Y-113500000D02*
X209350000Y-113533333D01*
X209250000Y-113566666D01*
X209183333Y-113566666D01*
X209083333Y-113533333D01*
X209016666Y-113466666D01*
X208983333Y-113400000D01*
X208950000Y-113266666D01*
X208950000Y-113166666D01*
X208983333Y-113033333D01*
X209016666Y-112966666D01*
X209083333Y-112900000D01*
X209183333Y-112866666D01*
X209250000Y-112866666D01*
X209350000Y-112900000D01*
X209383333Y-112933333D01*
X209983333Y-113100000D02*
X209983333Y-113566666D01*
X209816666Y-112833333D02*
X209650000Y-113333333D01*
X210083333Y-113333333D01*
G04 #@! TO.C,C3*
X196450000Y-104116666D02*
X196483333Y-104150000D01*
X196516666Y-104250000D01*
X196516666Y-104316666D01*
X196483333Y-104416666D01*
X196416666Y-104483333D01*
X196350000Y-104516666D01*
X196216666Y-104550000D01*
X196116666Y-104550000D01*
X195983333Y-104516666D01*
X195916666Y-104483333D01*
X195850000Y-104416666D01*
X195816666Y-104316666D01*
X195816666Y-104250000D01*
X195850000Y-104150000D01*
X195883333Y-104116666D01*
X195816666Y-103883333D02*
X195816666Y-103450000D01*
X196083333Y-103683333D01*
X196083333Y-103583333D01*
X196116666Y-103516666D01*
X196150000Y-103483333D01*
X196216666Y-103450000D01*
X196383333Y-103450000D01*
X196450000Y-103483333D01*
X196483333Y-103516666D01*
X196516666Y-103583333D01*
X196516666Y-103783333D01*
X196483333Y-103850000D01*
X196450000Y-103883333D01*
G04 #@! TO.C,LD13*
X220200000Y-107316666D02*
X219866666Y-107316666D01*
X219866666Y-106616666D01*
X220433333Y-107316666D02*
X220433333Y-106616666D01*
X220600000Y-106616666D01*
X220700000Y-106650000D01*
X220766666Y-106716666D01*
X220800000Y-106783333D01*
X220833333Y-106916666D01*
X220833333Y-107016666D01*
X220800000Y-107150000D01*
X220766666Y-107216666D01*
X220700000Y-107283333D01*
X220600000Y-107316666D01*
X220433333Y-107316666D01*
X221500000Y-107316666D02*
X221100000Y-107316666D01*
X221300000Y-107316666D02*
X221300000Y-106616666D01*
X221233333Y-106716666D01*
X221166666Y-106783333D01*
X221100000Y-106816666D01*
X221733333Y-106616666D02*
X222166666Y-106616666D01*
X221933333Y-106883333D01*
X222033333Y-106883333D01*
X222100000Y-106916666D01*
X222133333Y-106950000D01*
X222166666Y-107016666D01*
X222166666Y-107183333D01*
X222133333Y-107250000D01*
X222100000Y-107283333D01*
X222033333Y-107316666D01*
X221833333Y-107316666D01*
X221766666Y-107283333D01*
X221733333Y-107250000D01*
G04 #@! TD*
M02*
