G04 #@! TF.GenerationSoftware,KiCad,Pcbnew,5.0.2-bee76a0~70~ubuntu18.04.1*
G04 #@! TF.CreationDate,2019-07-19T10:53:47+02:00*
G04 #@! TF.ProjectId,AutoGardener_Outdoor_panel,4175746f-4761-4726-9465-6e65725f4f75,rev?*
G04 #@! TF.SameCoordinates,Original*
G04 #@! TF.FileFunction,Soldermask,Bot*
G04 #@! TF.FilePolarity,Negative*
%FSLAX46Y46*%
G04 Gerber Fmt 4.6, Leading zero omitted, Abs format (unit mm)*
G04 Created by KiCad (PCBNEW 5.0.2-bee76a0~70~ubuntu18.04.1) date Fri 19 Jul 2019 10:53:47 CEST*
%MOMM*%
%LPD*%
G01*
G04 APERTURE LIST*
%ADD10C,0.100000*%
G04 APERTURE END LIST*
D10*
G36*
X224110442Y-115185518D02*
X224176627Y-115192037D01*
X224289853Y-115226384D01*
X224346467Y-115243557D01*
X224485087Y-115317652D01*
X224502991Y-115327222D01*
X224538729Y-115356552D01*
X224640186Y-115439814D01*
X224723448Y-115541271D01*
X224752778Y-115577009D01*
X224752779Y-115577011D01*
X224836443Y-115733533D01*
X224836443Y-115733534D01*
X224887963Y-115903373D01*
X224905359Y-116080000D01*
X224887963Y-116256627D01*
X224880140Y-116282415D01*
X224836443Y-116426467D01*
X224795539Y-116502991D01*
X224752778Y-116582991D01*
X224723448Y-116618729D01*
X224640186Y-116720186D01*
X224538729Y-116803448D01*
X224502991Y-116832778D01*
X224502989Y-116832779D01*
X224346467Y-116916443D01*
X224289853Y-116933616D01*
X224176627Y-116967963D01*
X224110443Y-116974481D01*
X224044260Y-116981000D01*
X223955740Y-116981000D01*
X223889557Y-116974481D01*
X223823373Y-116967963D01*
X223710147Y-116933616D01*
X223653533Y-116916443D01*
X223497011Y-116832779D01*
X223497009Y-116832778D01*
X223461271Y-116803448D01*
X223359814Y-116720186D01*
X223276552Y-116618729D01*
X223247222Y-116582991D01*
X223204461Y-116502991D01*
X223163557Y-116426467D01*
X223119860Y-116282415D01*
X223112037Y-116256627D01*
X223094641Y-116080000D01*
X223112037Y-115903373D01*
X223163557Y-115733534D01*
X223163557Y-115733533D01*
X223247221Y-115577011D01*
X223247222Y-115577009D01*
X223276552Y-115541271D01*
X223359814Y-115439814D01*
X223461271Y-115356552D01*
X223497009Y-115327222D01*
X223514913Y-115317652D01*
X223653533Y-115243557D01*
X223710147Y-115226384D01*
X223823373Y-115192037D01*
X223889558Y-115185518D01*
X223955740Y-115179000D01*
X224044260Y-115179000D01*
X224110442Y-115185518D01*
X224110442Y-115185518D01*
G37*
G36*
X200110442Y-115185518D02*
X200176627Y-115192037D01*
X200289853Y-115226384D01*
X200346467Y-115243557D01*
X200485087Y-115317652D01*
X200502991Y-115327222D01*
X200538729Y-115356552D01*
X200640186Y-115439814D01*
X200723448Y-115541271D01*
X200752778Y-115577009D01*
X200752779Y-115577011D01*
X200836443Y-115733533D01*
X200836443Y-115733534D01*
X200887963Y-115903373D01*
X200905359Y-116080000D01*
X200887963Y-116256627D01*
X200880140Y-116282415D01*
X200836443Y-116426467D01*
X200795539Y-116502991D01*
X200752778Y-116582991D01*
X200723448Y-116618729D01*
X200640186Y-116720186D01*
X200538729Y-116803448D01*
X200502991Y-116832778D01*
X200502989Y-116832779D01*
X200346467Y-116916443D01*
X200289853Y-116933616D01*
X200176627Y-116967963D01*
X200110443Y-116974481D01*
X200044260Y-116981000D01*
X199955740Y-116981000D01*
X199889557Y-116974481D01*
X199823373Y-116967963D01*
X199710147Y-116933616D01*
X199653533Y-116916443D01*
X199497011Y-116832779D01*
X199497009Y-116832778D01*
X199461271Y-116803448D01*
X199359814Y-116720186D01*
X199276552Y-116618729D01*
X199247222Y-116582991D01*
X199204461Y-116502991D01*
X199163557Y-116426467D01*
X199119860Y-116282415D01*
X199112037Y-116256627D01*
X199094641Y-116080000D01*
X199112037Y-115903373D01*
X199163557Y-115733534D01*
X199163557Y-115733533D01*
X199247221Y-115577011D01*
X199247222Y-115577009D01*
X199276552Y-115541271D01*
X199359814Y-115439814D01*
X199461271Y-115356552D01*
X199497009Y-115327222D01*
X199514913Y-115317652D01*
X199653533Y-115243557D01*
X199710147Y-115226384D01*
X199823373Y-115192037D01*
X199889558Y-115185518D01*
X199955740Y-115179000D01*
X200044260Y-115179000D01*
X200110442Y-115185518D01*
X200110442Y-115185518D01*
G37*
G36*
X189651000Y-116901000D02*
X187849000Y-116901000D01*
X187849000Y-115099000D01*
X189651000Y-115099000D01*
X189651000Y-116901000D01*
X189651000Y-116901000D01*
G37*
G36*
X191400442Y-115105518D02*
X191466627Y-115112037D01*
X191579853Y-115146384D01*
X191636467Y-115163557D01*
X191775087Y-115237652D01*
X191792991Y-115247222D01*
X191828729Y-115276552D01*
X191930186Y-115359814D01*
X191995839Y-115439814D01*
X192042778Y-115497009D01*
X192042779Y-115497011D01*
X192126443Y-115653533D01*
X192126443Y-115653534D01*
X192177963Y-115823373D01*
X192195359Y-116000000D01*
X192177963Y-116176627D01*
X192153696Y-116256625D01*
X192126443Y-116346467D01*
X192052348Y-116485087D01*
X192042778Y-116502991D01*
X192013448Y-116538729D01*
X191930186Y-116640186D01*
X191832705Y-116720185D01*
X191792991Y-116752778D01*
X191792989Y-116752779D01*
X191636467Y-116836443D01*
X191579853Y-116853616D01*
X191466627Y-116887963D01*
X191400442Y-116894482D01*
X191334260Y-116901000D01*
X191245740Y-116901000D01*
X191179558Y-116894482D01*
X191113373Y-116887963D01*
X191000147Y-116853616D01*
X190943533Y-116836443D01*
X190787011Y-116752779D01*
X190787009Y-116752778D01*
X190747295Y-116720185D01*
X190649814Y-116640186D01*
X190566552Y-116538729D01*
X190537222Y-116502991D01*
X190527652Y-116485087D01*
X190453557Y-116346467D01*
X190426304Y-116256625D01*
X190402037Y-116176627D01*
X190384641Y-116000000D01*
X190402037Y-115823373D01*
X190453557Y-115653534D01*
X190453557Y-115653533D01*
X190537221Y-115497011D01*
X190537222Y-115497009D01*
X190584161Y-115439814D01*
X190649814Y-115359814D01*
X190751271Y-115276552D01*
X190787009Y-115247222D01*
X190804913Y-115237652D01*
X190943533Y-115163557D01*
X191000147Y-115146384D01*
X191113373Y-115112037D01*
X191179558Y-115105518D01*
X191245740Y-115099000D01*
X191334260Y-115099000D01*
X191400442Y-115105518D01*
X191400442Y-115105518D01*
G37*
G36*
X215400442Y-115105518D02*
X215466627Y-115112037D01*
X215579853Y-115146384D01*
X215636467Y-115163557D01*
X215775087Y-115237652D01*
X215792991Y-115247222D01*
X215828729Y-115276552D01*
X215930186Y-115359814D01*
X215995839Y-115439814D01*
X216042778Y-115497009D01*
X216042779Y-115497011D01*
X216126443Y-115653533D01*
X216126443Y-115653534D01*
X216177963Y-115823373D01*
X216195359Y-116000000D01*
X216177963Y-116176627D01*
X216153696Y-116256625D01*
X216126443Y-116346467D01*
X216052348Y-116485087D01*
X216042778Y-116502991D01*
X216013448Y-116538729D01*
X215930186Y-116640186D01*
X215832705Y-116720185D01*
X215792991Y-116752778D01*
X215792989Y-116752779D01*
X215636467Y-116836443D01*
X215579853Y-116853616D01*
X215466627Y-116887963D01*
X215400442Y-116894482D01*
X215334260Y-116901000D01*
X215245740Y-116901000D01*
X215179558Y-116894482D01*
X215113373Y-116887963D01*
X215000147Y-116853616D01*
X214943533Y-116836443D01*
X214787011Y-116752779D01*
X214787009Y-116752778D01*
X214747295Y-116720185D01*
X214649814Y-116640186D01*
X214566552Y-116538729D01*
X214537222Y-116502991D01*
X214527652Y-116485087D01*
X214453557Y-116346467D01*
X214426304Y-116256625D01*
X214402037Y-116176627D01*
X214384641Y-116000000D01*
X214402037Y-115823373D01*
X214453557Y-115653534D01*
X214453557Y-115653533D01*
X214537221Y-115497011D01*
X214537222Y-115497009D01*
X214584161Y-115439814D01*
X214649814Y-115359814D01*
X214751271Y-115276552D01*
X214787009Y-115247222D01*
X214804913Y-115237652D01*
X214943533Y-115163557D01*
X215000147Y-115146384D01*
X215113373Y-115112037D01*
X215179558Y-115105518D01*
X215245740Y-115099000D01*
X215334260Y-115099000D01*
X215400442Y-115105518D01*
X215400442Y-115105518D01*
G37*
G36*
X213651000Y-116901000D02*
X211849000Y-116901000D01*
X211849000Y-115099000D01*
X213651000Y-115099000D01*
X213651000Y-116901000D01*
X213651000Y-116901000D01*
G37*
G36*
X182570442Y-115105518D02*
X182636627Y-115112037D01*
X182749853Y-115146384D01*
X182806467Y-115163557D01*
X182945087Y-115237652D01*
X182962991Y-115247222D01*
X182998729Y-115276552D01*
X183100186Y-115359814D01*
X183165839Y-115439814D01*
X183212778Y-115497009D01*
X183212779Y-115497011D01*
X183296443Y-115653533D01*
X183296443Y-115653534D01*
X183347963Y-115823373D01*
X183365359Y-116000000D01*
X183347963Y-116176627D01*
X183323696Y-116256625D01*
X183296443Y-116346467D01*
X183222348Y-116485087D01*
X183212778Y-116502991D01*
X183183448Y-116538729D01*
X183100186Y-116640186D01*
X183002705Y-116720185D01*
X182962991Y-116752778D01*
X182962989Y-116752779D01*
X182806467Y-116836443D01*
X182749853Y-116853616D01*
X182636627Y-116887963D01*
X182570442Y-116894482D01*
X182504260Y-116901000D01*
X182415740Y-116901000D01*
X182349558Y-116894482D01*
X182283373Y-116887963D01*
X182170147Y-116853616D01*
X182113533Y-116836443D01*
X181957011Y-116752779D01*
X181957009Y-116752778D01*
X181917295Y-116720185D01*
X181819814Y-116640186D01*
X181736552Y-116538729D01*
X181707222Y-116502991D01*
X181697652Y-116485087D01*
X181623557Y-116346467D01*
X181596304Y-116256625D01*
X181572037Y-116176627D01*
X181554641Y-116000000D01*
X181572037Y-115823373D01*
X181623557Y-115653534D01*
X181623557Y-115653533D01*
X181707221Y-115497011D01*
X181707222Y-115497009D01*
X181754161Y-115439814D01*
X181819814Y-115359814D01*
X181921271Y-115276552D01*
X181957009Y-115247222D01*
X181974913Y-115237652D01*
X182113533Y-115163557D01*
X182170147Y-115146384D01*
X182283373Y-115112037D01*
X182349558Y-115105518D01*
X182415740Y-115099000D01*
X182504260Y-115099000D01*
X182570442Y-115105518D01*
X182570442Y-115105518D01*
G37*
G36*
X185901000Y-116901000D02*
X184099000Y-116901000D01*
X184099000Y-115099000D01*
X185901000Y-115099000D01*
X185901000Y-116901000D01*
X185901000Y-116901000D01*
G37*
G36*
X209901000Y-116901000D02*
X208099000Y-116901000D01*
X208099000Y-115099000D01*
X209901000Y-115099000D01*
X209901000Y-116901000D01*
X209901000Y-116901000D01*
G37*
G36*
X206570442Y-115105518D02*
X206636627Y-115112037D01*
X206749853Y-115146384D01*
X206806467Y-115163557D01*
X206945087Y-115237652D01*
X206962991Y-115247222D01*
X206998729Y-115276552D01*
X207100186Y-115359814D01*
X207165839Y-115439814D01*
X207212778Y-115497009D01*
X207212779Y-115497011D01*
X207296443Y-115653533D01*
X207296443Y-115653534D01*
X207347963Y-115823373D01*
X207365359Y-116000000D01*
X207347963Y-116176627D01*
X207323696Y-116256625D01*
X207296443Y-116346467D01*
X207222348Y-116485087D01*
X207212778Y-116502991D01*
X207183448Y-116538729D01*
X207100186Y-116640186D01*
X207002705Y-116720185D01*
X206962991Y-116752778D01*
X206962989Y-116752779D01*
X206806467Y-116836443D01*
X206749853Y-116853616D01*
X206636627Y-116887963D01*
X206570442Y-116894482D01*
X206504260Y-116901000D01*
X206415740Y-116901000D01*
X206349558Y-116894482D01*
X206283373Y-116887963D01*
X206170147Y-116853616D01*
X206113533Y-116836443D01*
X205957011Y-116752779D01*
X205957009Y-116752778D01*
X205917295Y-116720185D01*
X205819814Y-116640186D01*
X205736552Y-116538729D01*
X205707222Y-116502991D01*
X205697652Y-116485087D01*
X205623557Y-116346467D01*
X205596304Y-116256625D01*
X205572037Y-116176627D01*
X205554641Y-116000000D01*
X205572037Y-115823373D01*
X205623557Y-115653534D01*
X205623557Y-115653533D01*
X205707221Y-115497011D01*
X205707222Y-115497009D01*
X205754161Y-115439814D01*
X205819814Y-115359814D01*
X205921271Y-115276552D01*
X205957009Y-115247222D01*
X205974913Y-115237652D01*
X206113533Y-115163557D01*
X206170147Y-115146384D01*
X206283373Y-115112037D01*
X206349558Y-115105518D01*
X206415740Y-115099000D01*
X206504260Y-115099000D01*
X206570442Y-115105518D01*
X206570442Y-115105518D01*
G37*
G36*
X196375256Y-113391298D02*
X196481579Y-113412447D01*
X196782042Y-113536903D01*
X197048852Y-113715180D01*
X197052454Y-113717587D01*
X197282413Y-113947546D01*
X197463098Y-114217960D01*
X197587553Y-114518422D01*
X197651000Y-114837389D01*
X197651000Y-115162611D01*
X197611774Y-115359814D01*
X197587553Y-115481579D01*
X197463097Y-115782042D01*
X197317462Y-116000000D01*
X197282413Y-116052454D01*
X197052454Y-116282413D01*
X197052451Y-116282415D01*
X196782042Y-116463097D01*
X196481579Y-116587553D01*
X196375256Y-116608702D01*
X196162611Y-116651000D01*
X195837389Y-116651000D01*
X195624744Y-116608702D01*
X195518421Y-116587553D01*
X195217958Y-116463097D01*
X194947549Y-116282415D01*
X194947546Y-116282413D01*
X194717587Y-116052454D01*
X194682538Y-116000000D01*
X194536903Y-115782042D01*
X194412447Y-115481579D01*
X194388226Y-115359814D01*
X194349000Y-115162611D01*
X194349000Y-114837389D01*
X194412447Y-114518422D01*
X194536902Y-114217960D01*
X194717587Y-113947546D01*
X194947546Y-113717587D01*
X194951148Y-113715180D01*
X195217958Y-113536903D01*
X195518421Y-113412447D01*
X195624744Y-113391298D01*
X195837389Y-113349000D01*
X196162611Y-113349000D01*
X196375256Y-113391298D01*
X196375256Y-113391298D01*
G37*
G36*
X220375256Y-113391298D02*
X220481579Y-113412447D01*
X220782042Y-113536903D01*
X221048852Y-113715180D01*
X221052454Y-113717587D01*
X221282413Y-113947546D01*
X221463098Y-114217960D01*
X221587553Y-114518422D01*
X221651000Y-114837389D01*
X221651000Y-115162611D01*
X221611774Y-115359814D01*
X221587553Y-115481579D01*
X221463097Y-115782042D01*
X221317462Y-116000000D01*
X221282413Y-116052454D01*
X221052454Y-116282413D01*
X221052451Y-116282415D01*
X220782042Y-116463097D01*
X220481579Y-116587553D01*
X220375256Y-116608702D01*
X220162611Y-116651000D01*
X219837389Y-116651000D01*
X219624744Y-116608702D01*
X219518421Y-116587553D01*
X219217958Y-116463097D01*
X218947549Y-116282415D01*
X218947546Y-116282413D01*
X218717587Y-116052454D01*
X218682538Y-116000000D01*
X218536903Y-115782042D01*
X218412447Y-115481579D01*
X218388226Y-115359814D01*
X218349000Y-115162611D01*
X218349000Y-114837389D01*
X218412447Y-114518422D01*
X218536902Y-114217960D01*
X218717587Y-113947546D01*
X218947546Y-113717587D01*
X218951148Y-113715180D01*
X219217958Y-113536903D01*
X219518421Y-113412447D01*
X219624744Y-113391298D01*
X219837389Y-113349000D01*
X220162611Y-113349000D01*
X220375256Y-113391298D01*
X220375256Y-113391298D01*
G37*
G36*
X200110442Y-112645518D02*
X200176627Y-112652037D01*
X200289853Y-112686384D01*
X200346467Y-112703557D01*
X200485087Y-112777652D01*
X200502991Y-112787222D01*
X200538729Y-112816552D01*
X200640186Y-112899814D01*
X200723448Y-113001271D01*
X200752778Y-113037009D01*
X200752779Y-113037011D01*
X200836443Y-113193533D01*
X200836443Y-113193534D01*
X200887963Y-113363373D01*
X200905359Y-113540000D01*
X200887963Y-113716627D01*
X200853616Y-113829853D01*
X200836443Y-113886467D01*
X200762348Y-114025087D01*
X200752778Y-114042991D01*
X200723448Y-114078729D01*
X200640186Y-114180186D01*
X200538729Y-114263448D01*
X200502991Y-114292778D01*
X200502989Y-114292779D01*
X200346467Y-114376443D01*
X200289853Y-114393616D01*
X200176627Y-114427963D01*
X200110442Y-114434482D01*
X200044260Y-114441000D01*
X199955740Y-114441000D01*
X199889558Y-114434482D01*
X199823373Y-114427963D01*
X199710147Y-114393616D01*
X199653533Y-114376443D01*
X199497011Y-114292779D01*
X199497009Y-114292778D01*
X199461271Y-114263448D01*
X199359814Y-114180186D01*
X199276552Y-114078729D01*
X199247222Y-114042991D01*
X199237652Y-114025087D01*
X199163557Y-113886467D01*
X199146384Y-113829853D01*
X199112037Y-113716627D01*
X199094641Y-113540000D01*
X199112037Y-113363373D01*
X199163557Y-113193534D01*
X199163557Y-113193533D01*
X199247221Y-113037011D01*
X199247222Y-113037009D01*
X199276552Y-113001271D01*
X199359814Y-112899814D01*
X199461271Y-112816552D01*
X199497009Y-112787222D01*
X199514913Y-112777652D01*
X199653533Y-112703557D01*
X199710147Y-112686384D01*
X199823373Y-112652037D01*
X199889558Y-112645518D01*
X199955740Y-112639000D01*
X200044260Y-112639000D01*
X200110442Y-112645518D01*
X200110442Y-112645518D01*
G37*
G36*
X224110442Y-112645518D02*
X224176627Y-112652037D01*
X224289853Y-112686384D01*
X224346467Y-112703557D01*
X224485087Y-112777652D01*
X224502991Y-112787222D01*
X224538729Y-112816552D01*
X224640186Y-112899814D01*
X224723448Y-113001271D01*
X224752778Y-113037009D01*
X224752779Y-113037011D01*
X224836443Y-113193533D01*
X224836443Y-113193534D01*
X224887963Y-113363373D01*
X224905359Y-113540000D01*
X224887963Y-113716627D01*
X224853616Y-113829853D01*
X224836443Y-113886467D01*
X224762348Y-114025087D01*
X224752778Y-114042991D01*
X224723448Y-114078729D01*
X224640186Y-114180186D01*
X224538729Y-114263448D01*
X224502991Y-114292778D01*
X224502989Y-114292779D01*
X224346467Y-114376443D01*
X224289853Y-114393616D01*
X224176627Y-114427963D01*
X224110442Y-114434482D01*
X224044260Y-114441000D01*
X223955740Y-114441000D01*
X223889558Y-114434482D01*
X223823373Y-114427963D01*
X223710147Y-114393616D01*
X223653533Y-114376443D01*
X223497011Y-114292779D01*
X223497009Y-114292778D01*
X223461271Y-114263448D01*
X223359814Y-114180186D01*
X223276552Y-114078729D01*
X223247222Y-114042991D01*
X223237652Y-114025087D01*
X223163557Y-113886467D01*
X223146384Y-113829853D01*
X223112037Y-113716627D01*
X223094641Y-113540000D01*
X223112037Y-113363373D01*
X223163557Y-113193534D01*
X223163557Y-113193533D01*
X223247221Y-113037011D01*
X223247222Y-113037009D01*
X223276552Y-113001271D01*
X223359814Y-112899814D01*
X223461271Y-112816552D01*
X223497009Y-112787222D01*
X223514913Y-112777652D01*
X223653533Y-112703557D01*
X223710147Y-112686384D01*
X223823373Y-112652037D01*
X223889558Y-112645518D01*
X223955740Y-112639000D01*
X224044260Y-112639000D01*
X224110442Y-112645518D01*
X224110442Y-112645518D01*
G37*
G36*
X224901000Y-111901000D02*
X223099000Y-111901000D01*
X223099000Y-110099000D01*
X224901000Y-110099000D01*
X224901000Y-111901000D01*
X224901000Y-111901000D01*
G37*
G36*
X200901000Y-111901000D02*
X199099000Y-111901000D01*
X199099000Y-110099000D01*
X200901000Y-110099000D01*
X200901000Y-111901000D01*
X200901000Y-111901000D01*
G37*
G36*
X200110443Y-105265519D02*
X200176627Y-105272037D01*
X200272105Y-105301000D01*
X200346467Y-105323557D01*
X200485087Y-105397652D01*
X200502991Y-105407222D01*
X200538729Y-105436552D01*
X200640186Y-105519814D01*
X200723448Y-105621271D01*
X200752778Y-105657009D01*
X200752779Y-105657011D01*
X200836443Y-105813533D01*
X200836443Y-105813534D01*
X200887963Y-105983373D01*
X200905359Y-106160000D01*
X200887963Y-106336627D01*
X200853616Y-106449853D01*
X200836443Y-106506467D01*
X200762348Y-106645087D01*
X200752778Y-106662991D01*
X200723448Y-106698729D01*
X200640186Y-106800186D01*
X200538729Y-106883448D01*
X200502991Y-106912778D01*
X200502989Y-106912779D01*
X200346467Y-106996443D01*
X200289853Y-107013616D01*
X200176627Y-107047963D01*
X200110442Y-107054482D01*
X200044260Y-107061000D01*
X199955740Y-107061000D01*
X199889558Y-107054482D01*
X199823373Y-107047963D01*
X199710147Y-107013616D01*
X199653533Y-106996443D01*
X199497011Y-106912779D01*
X199497009Y-106912778D01*
X199461271Y-106883448D01*
X199359814Y-106800186D01*
X199276552Y-106698729D01*
X199247222Y-106662991D01*
X199237652Y-106645087D01*
X199163557Y-106506467D01*
X199146384Y-106449853D01*
X199112037Y-106336627D01*
X199094641Y-106160000D01*
X199112037Y-105983373D01*
X199163557Y-105813534D01*
X199163557Y-105813533D01*
X199247221Y-105657011D01*
X199247222Y-105657009D01*
X199276552Y-105621271D01*
X199359814Y-105519814D01*
X199461271Y-105436552D01*
X199497009Y-105407222D01*
X199514913Y-105397652D01*
X199653533Y-105323557D01*
X199727895Y-105301000D01*
X199823373Y-105272037D01*
X199889557Y-105265519D01*
X199955740Y-105259000D01*
X200044260Y-105259000D01*
X200110443Y-105265519D01*
X200110443Y-105265519D01*
G37*
G36*
X224110443Y-105265519D02*
X224176627Y-105272037D01*
X224272105Y-105301000D01*
X224346467Y-105323557D01*
X224485087Y-105397652D01*
X224502991Y-105407222D01*
X224538729Y-105436552D01*
X224640186Y-105519814D01*
X224723448Y-105621271D01*
X224752778Y-105657009D01*
X224752779Y-105657011D01*
X224836443Y-105813533D01*
X224836443Y-105813534D01*
X224887963Y-105983373D01*
X224905359Y-106160000D01*
X224887963Y-106336627D01*
X224853616Y-106449853D01*
X224836443Y-106506467D01*
X224762348Y-106645087D01*
X224752778Y-106662991D01*
X224723448Y-106698729D01*
X224640186Y-106800186D01*
X224538729Y-106883448D01*
X224502991Y-106912778D01*
X224502989Y-106912779D01*
X224346467Y-106996443D01*
X224289853Y-107013616D01*
X224176627Y-107047963D01*
X224110442Y-107054482D01*
X224044260Y-107061000D01*
X223955740Y-107061000D01*
X223889558Y-107054482D01*
X223823373Y-107047963D01*
X223710147Y-107013616D01*
X223653533Y-106996443D01*
X223497011Y-106912779D01*
X223497009Y-106912778D01*
X223461271Y-106883448D01*
X223359814Y-106800186D01*
X223276552Y-106698729D01*
X223247222Y-106662991D01*
X223237652Y-106645087D01*
X223163557Y-106506467D01*
X223146384Y-106449853D01*
X223112037Y-106336627D01*
X223094641Y-106160000D01*
X223112037Y-105983373D01*
X223163557Y-105813534D01*
X223163557Y-105813533D01*
X223247221Y-105657011D01*
X223247222Y-105657009D01*
X223276552Y-105621271D01*
X223359814Y-105519814D01*
X223461271Y-105436552D01*
X223497009Y-105407222D01*
X223514913Y-105397652D01*
X223653533Y-105323557D01*
X223727895Y-105301000D01*
X223823373Y-105272037D01*
X223889557Y-105265519D01*
X223955740Y-105259000D01*
X224044260Y-105259000D01*
X224110443Y-105265519D01*
X224110443Y-105265519D01*
G37*
G36*
X204087796Y-104710567D02*
X204142578Y-104733258D01*
X204191879Y-104766200D01*
X204233800Y-104808121D01*
X204266742Y-104857422D01*
X204289433Y-104912204D01*
X204301000Y-104970353D01*
X204301000Y-105029647D01*
X204289433Y-105087796D01*
X204266742Y-105142578D01*
X204233800Y-105191879D01*
X204191879Y-105233800D01*
X204142578Y-105266742D01*
X204087796Y-105289433D01*
X204029647Y-105301000D01*
X203970353Y-105301000D01*
X203912204Y-105289433D01*
X203857422Y-105266742D01*
X203808121Y-105233800D01*
X203766200Y-105191879D01*
X203733258Y-105142578D01*
X203710567Y-105087796D01*
X203699000Y-105029647D01*
X203699000Y-104970353D01*
X203710567Y-104912204D01*
X203733258Y-104857422D01*
X203766200Y-104808121D01*
X203808121Y-104766200D01*
X203857422Y-104733258D01*
X203912204Y-104710567D01*
X203970353Y-104699000D01*
X204029647Y-104699000D01*
X204087796Y-104710567D01*
X204087796Y-104710567D01*
G37*
G36*
X202087796Y-104710567D02*
X202142578Y-104733258D01*
X202191879Y-104766200D01*
X202233800Y-104808121D01*
X202266742Y-104857422D01*
X202289433Y-104912204D01*
X202301000Y-104970353D01*
X202301000Y-105029647D01*
X202289433Y-105087796D01*
X202266742Y-105142578D01*
X202233800Y-105191879D01*
X202191879Y-105233800D01*
X202142578Y-105266742D01*
X202087796Y-105289433D01*
X202029647Y-105301000D01*
X201970353Y-105301000D01*
X201912204Y-105289433D01*
X201857422Y-105266742D01*
X201808121Y-105233800D01*
X201766200Y-105191879D01*
X201733258Y-105142578D01*
X201710567Y-105087796D01*
X201699000Y-105029647D01*
X201699000Y-104970353D01*
X201710567Y-104912204D01*
X201733258Y-104857422D01*
X201766200Y-104808121D01*
X201808121Y-104766200D01*
X201857422Y-104733258D01*
X201912204Y-104710567D01*
X201970353Y-104699000D01*
X202029647Y-104699000D01*
X202087796Y-104710567D01*
X202087796Y-104710567D01*
G37*
G36*
X224110443Y-102725519D02*
X224176627Y-102732037D01*
X224289241Y-102766198D01*
X224346467Y-102783557D01*
X224484657Y-102857422D01*
X224502991Y-102867222D01*
X224538729Y-102896552D01*
X224640186Y-102979814D01*
X224723448Y-103081271D01*
X224752778Y-103117009D01*
X224752779Y-103117011D01*
X224836443Y-103273533D01*
X224836443Y-103273534D01*
X224887963Y-103443373D01*
X224905359Y-103620000D01*
X224887963Y-103796627D01*
X224853616Y-103909853D01*
X224836443Y-103966467D01*
X224802672Y-104029647D01*
X224752778Y-104122991D01*
X224736704Y-104142577D01*
X224640186Y-104260186D01*
X224538729Y-104343448D01*
X224502991Y-104372778D01*
X224502989Y-104372779D01*
X224346467Y-104456443D01*
X224289853Y-104473616D01*
X224176627Y-104507963D01*
X224110443Y-104514481D01*
X224044260Y-104521000D01*
X223955740Y-104521000D01*
X223889557Y-104514481D01*
X223823373Y-104507963D01*
X223710147Y-104473616D01*
X223653533Y-104456443D01*
X223497011Y-104372779D01*
X223497009Y-104372778D01*
X223461271Y-104343448D01*
X223359814Y-104260186D01*
X223263296Y-104142577D01*
X223247222Y-104122991D01*
X223197328Y-104029647D01*
X223163557Y-103966467D01*
X223146384Y-103909853D01*
X223112037Y-103796627D01*
X223094641Y-103620000D01*
X223112037Y-103443373D01*
X223163557Y-103273534D01*
X223163557Y-103273533D01*
X223247221Y-103117011D01*
X223247222Y-103117009D01*
X223276552Y-103081271D01*
X223359814Y-102979814D01*
X223461271Y-102896552D01*
X223497009Y-102867222D01*
X223515343Y-102857422D01*
X223653533Y-102783557D01*
X223710759Y-102766198D01*
X223823373Y-102732037D01*
X223889557Y-102725519D01*
X223955740Y-102719000D01*
X224044260Y-102719000D01*
X224110443Y-102725519D01*
X224110443Y-102725519D01*
G37*
G36*
X200110443Y-102725519D02*
X200176627Y-102732037D01*
X200289241Y-102766198D01*
X200346467Y-102783557D01*
X200484657Y-102857422D01*
X200502991Y-102867222D01*
X200538729Y-102896552D01*
X200640186Y-102979814D01*
X200723448Y-103081271D01*
X200752778Y-103117009D01*
X200752779Y-103117011D01*
X200836443Y-103273533D01*
X200836443Y-103273534D01*
X200887963Y-103443373D01*
X200905359Y-103620000D01*
X200887963Y-103796627D01*
X200853616Y-103909853D01*
X200836443Y-103966467D01*
X200802672Y-104029647D01*
X200752778Y-104122991D01*
X200736704Y-104142577D01*
X200640186Y-104260186D01*
X200538729Y-104343448D01*
X200502991Y-104372778D01*
X200502989Y-104372779D01*
X200346467Y-104456443D01*
X200289853Y-104473616D01*
X200176627Y-104507963D01*
X200110443Y-104514481D01*
X200044260Y-104521000D01*
X199955740Y-104521000D01*
X199889557Y-104514481D01*
X199823373Y-104507963D01*
X199710147Y-104473616D01*
X199653533Y-104456443D01*
X199497011Y-104372779D01*
X199497009Y-104372778D01*
X199461271Y-104343448D01*
X199359814Y-104260186D01*
X199263296Y-104142577D01*
X199247222Y-104122991D01*
X199197328Y-104029647D01*
X199163557Y-103966467D01*
X199146384Y-103909853D01*
X199112037Y-103796627D01*
X199094641Y-103620000D01*
X199112037Y-103443373D01*
X199163557Y-103273534D01*
X199163557Y-103273533D01*
X199247221Y-103117011D01*
X199247222Y-103117009D01*
X199276552Y-103081271D01*
X199359814Y-102979814D01*
X199461271Y-102896552D01*
X199497009Y-102867222D01*
X199515343Y-102857422D01*
X199653533Y-102783557D01*
X199710759Y-102766198D01*
X199823373Y-102732037D01*
X199889557Y-102725519D01*
X199955740Y-102719000D01*
X200044260Y-102719000D01*
X200110443Y-102725519D01*
X200110443Y-102725519D01*
G37*
G36*
X204087796Y-103710567D02*
X204142578Y-103733258D01*
X204191879Y-103766200D01*
X204233800Y-103808121D01*
X204266742Y-103857422D01*
X204289433Y-103912204D01*
X204301000Y-103970353D01*
X204301000Y-104029647D01*
X204289433Y-104087796D01*
X204266742Y-104142578D01*
X204233800Y-104191879D01*
X204191879Y-104233800D01*
X204142578Y-104266742D01*
X204087796Y-104289433D01*
X204029647Y-104301000D01*
X203970353Y-104301000D01*
X203912204Y-104289433D01*
X203857422Y-104266742D01*
X203808121Y-104233800D01*
X203766200Y-104191879D01*
X203733258Y-104142578D01*
X203710567Y-104087796D01*
X203699000Y-104029647D01*
X203699000Y-103970353D01*
X203710567Y-103912204D01*
X203733258Y-103857422D01*
X203766200Y-103808121D01*
X203808121Y-103766200D01*
X203857422Y-103733258D01*
X203912204Y-103710567D01*
X203970353Y-103699000D01*
X204029647Y-103699000D01*
X204087796Y-103710567D01*
X204087796Y-103710567D01*
G37*
G36*
X202087796Y-103710567D02*
X202142578Y-103733258D01*
X202191879Y-103766200D01*
X202233800Y-103808121D01*
X202266742Y-103857422D01*
X202289433Y-103912204D01*
X202301000Y-103970353D01*
X202301000Y-104029647D01*
X202289433Y-104087796D01*
X202266742Y-104142578D01*
X202233800Y-104191879D01*
X202191879Y-104233800D01*
X202142578Y-104266742D01*
X202087796Y-104289433D01*
X202029647Y-104301000D01*
X201970353Y-104301000D01*
X201912204Y-104289433D01*
X201857422Y-104266742D01*
X201808121Y-104233800D01*
X201766200Y-104191879D01*
X201733258Y-104142578D01*
X201710567Y-104087796D01*
X201699000Y-104029647D01*
X201699000Y-103970353D01*
X201710567Y-103912204D01*
X201733258Y-103857422D01*
X201766200Y-103808121D01*
X201808121Y-103766200D01*
X201857422Y-103733258D01*
X201912204Y-103710567D01*
X201970353Y-103699000D01*
X202029647Y-103699000D01*
X202087796Y-103710567D01*
X202087796Y-103710567D01*
G37*
G36*
X202087796Y-102710567D02*
X202142578Y-102733258D01*
X202191879Y-102766200D01*
X202233800Y-102808121D01*
X202266742Y-102857422D01*
X202289433Y-102912204D01*
X202301000Y-102970353D01*
X202301000Y-103029647D01*
X202289433Y-103087796D01*
X202266742Y-103142578D01*
X202233800Y-103191879D01*
X202191879Y-103233800D01*
X202142578Y-103266742D01*
X202087796Y-103289433D01*
X202029647Y-103301000D01*
X201970353Y-103301000D01*
X201912204Y-103289433D01*
X201857422Y-103266742D01*
X201808121Y-103233800D01*
X201766200Y-103191879D01*
X201733258Y-103142578D01*
X201710567Y-103087796D01*
X201699000Y-103029647D01*
X201699000Y-102970353D01*
X201710567Y-102912204D01*
X201733258Y-102857422D01*
X201766200Y-102808121D01*
X201808121Y-102766200D01*
X201857422Y-102733258D01*
X201912204Y-102710567D01*
X201970353Y-102699000D01*
X202029647Y-102699000D01*
X202087796Y-102710567D01*
X202087796Y-102710567D01*
G37*
G36*
X204087796Y-102710567D02*
X204142578Y-102733258D01*
X204191879Y-102766200D01*
X204233800Y-102808121D01*
X204266742Y-102857422D01*
X204289433Y-102912204D01*
X204301000Y-102970353D01*
X204301000Y-103029647D01*
X204289433Y-103087796D01*
X204266742Y-103142578D01*
X204233800Y-103191879D01*
X204191879Y-103233800D01*
X204142578Y-103266742D01*
X204087796Y-103289433D01*
X204029647Y-103301000D01*
X203970353Y-103301000D01*
X203912204Y-103289433D01*
X203857422Y-103266742D01*
X203808121Y-103233800D01*
X203766200Y-103191879D01*
X203733258Y-103142578D01*
X203710567Y-103087796D01*
X203699000Y-103029647D01*
X203699000Y-102970353D01*
X203710567Y-102912204D01*
X203733258Y-102857422D01*
X203766200Y-102808121D01*
X203808121Y-102766200D01*
X203857422Y-102733258D01*
X203912204Y-102710567D01*
X203970353Y-102699000D01*
X204029647Y-102699000D01*
X204087796Y-102710567D01*
X204087796Y-102710567D01*
G37*
G36*
X202087796Y-101710567D02*
X202142578Y-101733258D01*
X202191879Y-101766200D01*
X202233800Y-101808121D01*
X202266742Y-101857422D01*
X202289433Y-101912204D01*
X202301000Y-101970353D01*
X202301000Y-102029647D01*
X202289433Y-102087796D01*
X202266742Y-102142578D01*
X202233800Y-102191879D01*
X202191879Y-102233800D01*
X202142578Y-102266742D01*
X202087796Y-102289433D01*
X202029647Y-102301000D01*
X201970353Y-102301000D01*
X201912204Y-102289433D01*
X201857422Y-102266742D01*
X201808121Y-102233800D01*
X201766200Y-102191879D01*
X201733258Y-102142578D01*
X201710567Y-102087796D01*
X201699000Y-102029647D01*
X201699000Y-101970353D01*
X201710567Y-101912204D01*
X201733258Y-101857422D01*
X201766200Y-101808121D01*
X201808121Y-101766200D01*
X201857422Y-101733258D01*
X201912204Y-101710567D01*
X201970353Y-101699000D01*
X202029647Y-101699000D01*
X202087796Y-101710567D01*
X202087796Y-101710567D01*
G37*
G36*
X204087796Y-101710567D02*
X204142578Y-101733258D01*
X204191879Y-101766200D01*
X204233800Y-101808121D01*
X204266742Y-101857422D01*
X204289433Y-101912204D01*
X204301000Y-101970353D01*
X204301000Y-102029647D01*
X204289433Y-102087796D01*
X204266742Y-102142578D01*
X204233800Y-102191879D01*
X204191879Y-102233800D01*
X204142578Y-102266742D01*
X204087796Y-102289433D01*
X204029647Y-102301000D01*
X203970353Y-102301000D01*
X203912204Y-102289433D01*
X203857422Y-102266742D01*
X203808121Y-102233800D01*
X203766200Y-102191879D01*
X203733258Y-102142578D01*
X203710567Y-102087796D01*
X203699000Y-102029647D01*
X203699000Y-101970353D01*
X203710567Y-101912204D01*
X203733258Y-101857422D01*
X203766200Y-101808121D01*
X203808121Y-101766200D01*
X203857422Y-101733258D01*
X203912204Y-101710567D01*
X203970353Y-101699000D01*
X204029647Y-101699000D01*
X204087796Y-101710567D01*
X204087796Y-101710567D01*
G37*
G36*
X200110442Y-100185518D02*
X200176627Y-100192037D01*
X200289853Y-100226384D01*
X200346467Y-100243557D01*
X200485087Y-100317652D01*
X200502991Y-100327222D01*
X200538729Y-100356552D01*
X200640186Y-100439814D01*
X200723448Y-100541271D01*
X200752778Y-100577009D01*
X200752779Y-100577011D01*
X200836443Y-100733533D01*
X200846352Y-100766200D01*
X200887963Y-100903373D01*
X200905359Y-101080000D01*
X200887963Y-101256627D01*
X200853616Y-101369853D01*
X200836443Y-101426467D01*
X200762348Y-101565087D01*
X200752778Y-101582991D01*
X200723448Y-101618729D01*
X200640186Y-101720186D01*
X200538729Y-101803448D01*
X200502991Y-101832778D01*
X200502989Y-101832779D01*
X200346467Y-101916443D01*
X200289853Y-101933616D01*
X200176627Y-101967963D01*
X200110442Y-101974482D01*
X200044260Y-101981000D01*
X199955740Y-101981000D01*
X199889558Y-101974482D01*
X199823373Y-101967963D01*
X199710147Y-101933616D01*
X199653533Y-101916443D01*
X199497011Y-101832779D01*
X199497009Y-101832778D01*
X199461271Y-101803448D01*
X199359814Y-101720186D01*
X199276552Y-101618729D01*
X199247222Y-101582991D01*
X199237652Y-101565087D01*
X199163557Y-101426467D01*
X199146384Y-101369853D01*
X199112037Y-101256627D01*
X199094641Y-101080000D01*
X199112037Y-100903373D01*
X199153648Y-100766200D01*
X199163557Y-100733533D01*
X199247221Y-100577011D01*
X199247222Y-100577009D01*
X199276552Y-100541271D01*
X199359814Y-100439814D01*
X199461271Y-100356552D01*
X199497009Y-100327222D01*
X199514913Y-100317652D01*
X199653533Y-100243557D01*
X199710147Y-100226384D01*
X199823373Y-100192037D01*
X199889558Y-100185518D01*
X199955740Y-100179000D01*
X200044260Y-100179000D01*
X200110442Y-100185518D01*
X200110442Y-100185518D01*
G37*
G36*
X224110442Y-100185518D02*
X224176627Y-100192037D01*
X224289853Y-100226384D01*
X224346467Y-100243557D01*
X224485087Y-100317652D01*
X224502991Y-100327222D01*
X224538729Y-100356552D01*
X224640186Y-100439814D01*
X224723448Y-100541271D01*
X224752778Y-100577009D01*
X224752779Y-100577011D01*
X224836443Y-100733533D01*
X224846352Y-100766200D01*
X224887963Y-100903373D01*
X224905359Y-101080000D01*
X224887963Y-101256627D01*
X224853616Y-101369853D01*
X224836443Y-101426467D01*
X224762348Y-101565087D01*
X224752778Y-101582991D01*
X224723448Y-101618729D01*
X224640186Y-101720186D01*
X224538729Y-101803448D01*
X224502991Y-101832778D01*
X224502989Y-101832779D01*
X224346467Y-101916443D01*
X224289853Y-101933616D01*
X224176627Y-101967963D01*
X224110442Y-101974482D01*
X224044260Y-101981000D01*
X223955740Y-101981000D01*
X223889558Y-101974482D01*
X223823373Y-101967963D01*
X223710147Y-101933616D01*
X223653533Y-101916443D01*
X223497011Y-101832779D01*
X223497009Y-101832778D01*
X223461271Y-101803448D01*
X223359814Y-101720186D01*
X223276552Y-101618729D01*
X223247222Y-101582991D01*
X223237652Y-101565087D01*
X223163557Y-101426467D01*
X223146384Y-101369853D01*
X223112037Y-101256627D01*
X223094641Y-101080000D01*
X223112037Y-100903373D01*
X223153648Y-100766200D01*
X223163557Y-100733533D01*
X223247221Y-100577011D01*
X223247222Y-100577009D01*
X223276552Y-100541271D01*
X223359814Y-100439814D01*
X223461271Y-100356552D01*
X223497009Y-100327222D01*
X223514913Y-100317652D01*
X223653533Y-100243557D01*
X223710147Y-100226384D01*
X223823373Y-100192037D01*
X223889558Y-100185518D01*
X223955740Y-100179000D01*
X224044260Y-100179000D01*
X224110442Y-100185518D01*
X224110442Y-100185518D01*
G37*
G36*
X202087796Y-100710567D02*
X202142578Y-100733258D01*
X202191879Y-100766200D01*
X202233800Y-100808121D01*
X202266742Y-100857422D01*
X202289433Y-100912204D01*
X202301000Y-100970353D01*
X202301000Y-101029647D01*
X202289433Y-101087796D01*
X202266742Y-101142578D01*
X202233800Y-101191879D01*
X202191879Y-101233800D01*
X202142578Y-101266742D01*
X202087796Y-101289433D01*
X202029647Y-101301000D01*
X201970353Y-101301000D01*
X201912204Y-101289433D01*
X201857422Y-101266742D01*
X201808121Y-101233800D01*
X201766200Y-101191879D01*
X201733258Y-101142578D01*
X201710567Y-101087796D01*
X201699000Y-101029647D01*
X201699000Y-100970353D01*
X201710567Y-100912204D01*
X201733258Y-100857422D01*
X201766200Y-100808121D01*
X201808121Y-100766200D01*
X201857422Y-100733258D01*
X201912204Y-100710567D01*
X201970353Y-100699000D01*
X202029647Y-100699000D01*
X202087796Y-100710567D01*
X202087796Y-100710567D01*
G37*
G36*
X204087796Y-100710567D02*
X204142578Y-100733258D01*
X204191879Y-100766200D01*
X204233800Y-100808121D01*
X204266742Y-100857422D01*
X204289433Y-100912204D01*
X204301000Y-100970353D01*
X204301000Y-101029647D01*
X204289433Y-101087796D01*
X204266742Y-101142578D01*
X204233800Y-101191879D01*
X204191879Y-101233800D01*
X204142578Y-101266742D01*
X204087796Y-101289433D01*
X204029647Y-101301000D01*
X203970353Y-101301000D01*
X203912204Y-101289433D01*
X203857422Y-101266742D01*
X203808121Y-101233800D01*
X203766200Y-101191879D01*
X203733258Y-101142578D01*
X203710567Y-101087796D01*
X203699000Y-101029647D01*
X203699000Y-100970353D01*
X203710567Y-100912204D01*
X203733258Y-100857422D01*
X203766200Y-100808121D01*
X203808121Y-100766200D01*
X203857422Y-100733258D01*
X203912204Y-100710567D01*
X203970353Y-100699000D01*
X204029647Y-100699000D01*
X204087796Y-100710567D01*
X204087796Y-100710567D01*
G37*
G36*
X200110442Y-97645518D02*
X200176627Y-97652037D01*
X200289853Y-97686384D01*
X200346467Y-97703557D01*
X200485087Y-97777652D01*
X200502991Y-97787222D01*
X200538729Y-97816552D01*
X200640186Y-97899814D01*
X200723448Y-98001271D01*
X200752778Y-98037009D01*
X200752779Y-98037011D01*
X200836443Y-98193533D01*
X200836443Y-98193534D01*
X200887963Y-98363373D01*
X200905359Y-98540000D01*
X200887963Y-98716627D01*
X200853616Y-98829853D01*
X200836443Y-98886467D01*
X200762348Y-99025087D01*
X200752778Y-99042991D01*
X200723448Y-99078729D01*
X200640186Y-99180186D01*
X200538729Y-99263448D01*
X200502991Y-99292778D01*
X200502989Y-99292779D01*
X200346467Y-99376443D01*
X200289853Y-99393616D01*
X200176627Y-99427963D01*
X200110443Y-99434481D01*
X200044260Y-99441000D01*
X199955740Y-99441000D01*
X199889558Y-99434482D01*
X199823373Y-99427963D01*
X199710147Y-99393616D01*
X199653533Y-99376443D01*
X199497011Y-99292779D01*
X199497009Y-99292778D01*
X199461271Y-99263448D01*
X199359814Y-99180186D01*
X199276552Y-99078729D01*
X199247222Y-99042991D01*
X199237652Y-99025087D01*
X199163557Y-98886467D01*
X199146384Y-98829853D01*
X199112037Y-98716627D01*
X199094641Y-98540000D01*
X199112037Y-98363373D01*
X199163557Y-98193534D01*
X199163557Y-98193533D01*
X199247221Y-98037011D01*
X199247222Y-98037009D01*
X199276552Y-98001271D01*
X199359814Y-97899814D01*
X199461271Y-97816552D01*
X199497009Y-97787222D01*
X199514913Y-97777652D01*
X199653533Y-97703557D01*
X199710147Y-97686384D01*
X199823373Y-97652037D01*
X199889558Y-97645518D01*
X199955740Y-97639000D01*
X200044260Y-97639000D01*
X200110442Y-97645518D01*
X200110442Y-97645518D01*
G37*
G36*
X224110442Y-97645518D02*
X224176627Y-97652037D01*
X224289853Y-97686384D01*
X224346467Y-97703557D01*
X224485087Y-97777652D01*
X224502991Y-97787222D01*
X224538729Y-97816552D01*
X224640186Y-97899814D01*
X224723448Y-98001271D01*
X224752778Y-98037009D01*
X224752779Y-98037011D01*
X224836443Y-98193533D01*
X224836443Y-98193534D01*
X224887963Y-98363373D01*
X224905359Y-98540000D01*
X224887963Y-98716627D01*
X224853616Y-98829853D01*
X224836443Y-98886467D01*
X224762348Y-99025087D01*
X224752778Y-99042991D01*
X224723448Y-99078729D01*
X224640186Y-99180186D01*
X224538729Y-99263448D01*
X224502991Y-99292778D01*
X224502989Y-99292779D01*
X224346467Y-99376443D01*
X224289853Y-99393616D01*
X224176627Y-99427963D01*
X224110443Y-99434481D01*
X224044260Y-99441000D01*
X223955740Y-99441000D01*
X223889558Y-99434482D01*
X223823373Y-99427963D01*
X223710147Y-99393616D01*
X223653533Y-99376443D01*
X223497011Y-99292779D01*
X223497009Y-99292778D01*
X223461271Y-99263448D01*
X223359814Y-99180186D01*
X223276552Y-99078729D01*
X223247222Y-99042991D01*
X223237652Y-99025087D01*
X223163557Y-98886467D01*
X223146384Y-98829853D01*
X223112037Y-98716627D01*
X223094641Y-98540000D01*
X223112037Y-98363373D01*
X223163557Y-98193534D01*
X223163557Y-98193533D01*
X223247221Y-98037011D01*
X223247222Y-98037009D01*
X223276552Y-98001271D01*
X223359814Y-97899814D01*
X223461271Y-97816552D01*
X223497009Y-97787222D01*
X223514913Y-97777652D01*
X223653533Y-97703557D01*
X223710147Y-97686384D01*
X223823373Y-97652037D01*
X223889558Y-97645518D01*
X223955740Y-97639000D01*
X224044260Y-97639000D01*
X224110442Y-97645518D01*
X224110442Y-97645518D01*
G37*
G36*
X200901000Y-96901000D02*
X199099000Y-96901000D01*
X199099000Y-95099000D01*
X200901000Y-95099000D01*
X200901000Y-96901000D01*
X200901000Y-96901000D01*
G37*
G36*
X224901000Y-96901000D02*
X223099000Y-96901000D01*
X223099000Y-95099000D01*
X224901000Y-95099000D01*
X224901000Y-96901000D01*
X224901000Y-96901000D01*
G37*
G36*
X183375256Y-89391298D02*
X183481579Y-89412447D01*
X183782042Y-89536903D01*
X183956592Y-89653534D01*
X184052454Y-89717587D01*
X184282413Y-89947546D01*
X184282415Y-89947549D01*
X184463097Y-90217958D01*
X184581162Y-90502991D01*
X184587553Y-90518422D01*
X184651000Y-90837389D01*
X184651000Y-91162611D01*
X184587553Y-91481578D01*
X184463098Y-91782040D01*
X184282413Y-92052454D01*
X184052454Y-92282413D01*
X184052451Y-92282415D01*
X183782042Y-92463097D01*
X183481579Y-92587553D01*
X183375256Y-92608702D01*
X183162611Y-92651000D01*
X182837389Y-92651000D01*
X182624744Y-92608702D01*
X182518421Y-92587553D01*
X182217958Y-92463097D01*
X181947549Y-92282415D01*
X181947546Y-92282413D01*
X181717587Y-92052454D01*
X181536902Y-91782040D01*
X181412447Y-91481578D01*
X181349000Y-91162611D01*
X181349000Y-90837389D01*
X181412447Y-90518422D01*
X181418839Y-90502991D01*
X181536903Y-90217958D01*
X181717585Y-89947549D01*
X181717587Y-89947546D01*
X181947546Y-89717587D01*
X182043408Y-89653534D01*
X182217958Y-89536903D01*
X182518421Y-89412447D01*
X182624744Y-89391298D01*
X182837389Y-89349000D01*
X183162611Y-89349000D01*
X183375256Y-89391298D01*
X183375256Y-89391298D01*
G37*
G36*
X207375256Y-89391298D02*
X207481579Y-89412447D01*
X207782042Y-89536903D01*
X207956592Y-89653534D01*
X208052454Y-89717587D01*
X208282413Y-89947546D01*
X208282415Y-89947549D01*
X208463097Y-90217958D01*
X208581162Y-90502991D01*
X208587553Y-90518422D01*
X208651000Y-90837389D01*
X208651000Y-91162611D01*
X208587553Y-91481578D01*
X208463098Y-91782040D01*
X208282413Y-92052454D01*
X208052454Y-92282413D01*
X208052451Y-92282415D01*
X207782042Y-92463097D01*
X207481579Y-92587553D01*
X207375256Y-92608702D01*
X207162611Y-92651000D01*
X206837389Y-92651000D01*
X206624744Y-92608702D01*
X206518421Y-92587553D01*
X206217958Y-92463097D01*
X205947549Y-92282415D01*
X205947546Y-92282413D01*
X205717587Y-92052454D01*
X205536902Y-91782040D01*
X205412447Y-91481578D01*
X205349000Y-91162611D01*
X205349000Y-90837389D01*
X205412447Y-90518422D01*
X205418839Y-90502991D01*
X205536903Y-90217958D01*
X205717585Y-89947549D01*
X205717587Y-89947546D01*
X205947546Y-89717587D01*
X206043408Y-89653534D01*
X206217958Y-89536903D01*
X206518421Y-89412447D01*
X206624744Y-89391298D01*
X206837389Y-89349000D01*
X207162611Y-89349000D01*
X207375256Y-89391298D01*
X207375256Y-89391298D01*
G37*
G36*
X194401000Y-90901000D02*
X192599000Y-90901000D01*
X192599000Y-89099000D01*
X194401000Y-89099000D01*
X194401000Y-90901000D01*
X194401000Y-90901000D01*
G37*
G36*
X212530443Y-89105519D02*
X212596627Y-89112037D01*
X212709853Y-89146384D01*
X212766467Y-89163557D01*
X212905087Y-89237652D01*
X212922991Y-89247222D01*
X212958729Y-89276552D01*
X213060186Y-89359814D01*
X213143448Y-89461271D01*
X213172778Y-89497009D01*
X213172779Y-89497011D01*
X213256443Y-89653533D01*
X213256443Y-89653534D01*
X213307963Y-89823373D01*
X213325359Y-90000000D01*
X213307963Y-90176627D01*
X213273616Y-90289853D01*
X213256443Y-90346467D01*
X213182348Y-90485087D01*
X213172778Y-90502991D01*
X213160114Y-90518422D01*
X213060186Y-90640186D01*
X212958729Y-90723448D01*
X212922991Y-90752778D01*
X212922989Y-90752779D01*
X212766467Y-90836443D01*
X212709853Y-90853616D01*
X212596627Y-90887963D01*
X212530443Y-90894481D01*
X212464260Y-90901000D01*
X212375740Y-90901000D01*
X212309557Y-90894481D01*
X212243373Y-90887963D01*
X212130147Y-90853616D01*
X212073533Y-90836443D01*
X211917011Y-90752779D01*
X211917009Y-90752778D01*
X211881271Y-90723448D01*
X211779814Y-90640186D01*
X211679886Y-90518422D01*
X211667222Y-90502991D01*
X211657652Y-90485087D01*
X211583557Y-90346467D01*
X211566384Y-90289853D01*
X211532037Y-90176627D01*
X211514641Y-90000000D01*
X211532037Y-89823373D01*
X211583557Y-89653534D01*
X211583557Y-89653533D01*
X211667221Y-89497011D01*
X211667222Y-89497009D01*
X211696552Y-89461271D01*
X211779814Y-89359814D01*
X211881271Y-89276552D01*
X211917009Y-89247222D01*
X211934913Y-89237652D01*
X212073533Y-89163557D01*
X212130147Y-89146384D01*
X212243373Y-89112037D01*
X212309557Y-89105519D01*
X212375740Y-89099000D01*
X212464260Y-89099000D01*
X212530443Y-89105519D01*
X212530443Y-89105519D01*
G37*
G36*
X215070443Y-89105519D02*
X215136627Y-89112037D01*
X215249853Y-89146384D01*
X215306467Y-89163557D01*
X215445087Y-89237652D01*
X215462991Y-89247222D01*
X215498729Y-89276552D01*
X215600186Y-89359814D01*
X215683448Y-89461271D01*
X215712778Y-89497009D01*
X215712779Y-89497011D01*
X215796443Y-89653533D01*
X215796443Y-89653534D01*
X215847963Y-89823373D01*
X215865359Y-90000000D01*
X215847963Y-90176627D01*
X215813616Y-90289853D01*
X215796443Y-90346467D01*
X215722348Y-90485087D01*
X215712778Y-90502991D01*
X215700114Y-90518422D01*
X215600186Y-90640186D01*
X215498729Y-90723448D01*
X215462991Y-90752778D01*
X215462989Y-90752779D01*
X215306467Y-90836443D01*
X215249853Y-90853616D01*
X215136627Y-90887963D01*
X215070443Y-90894481D01*
X215004260Y-90901000D01*
X214915740Y-90901000D01*
X214849557Y-90894481D01*
X214783373Y-90887963D01*
X214670147Y-90853616D01*
X214613533Y-90836443D01*
X214457011Y-90752779D01*
X214457009Y-90752778D01*
X214421271Y-90723448D01*
X214319814Y-90640186D01*
X214219886Y-90518422D01*
X214207222Y-90502991D01*
X214197652Y-90485087D01*
X214123557Y-90346467D01*
X214106384Y-90289853D01*
X214072037Y-90176627D01*
X214054641Y-90000000D01*
X214072037Y-89823373D01*
X214123557Y-89653534D01*
X214123557Y-89653533D01*
X214207221Y-89497011D01*
X214207222Y-89497009D01*
X214236552Y-89461271D01*
X214319814Y-89359814D01*
X214421271Y-89276552D01*
X214457009Y-89247222D01*
X214474913Y-89237652D01*
X214613533Y-89163557D01*
X214670147Y-89146384D01*
X214783373Y-89112037D01*
X214849557Y-89105519D01*
X214915740Y-89099000D01*
X215004260Y-89099000D01*
X215070443Y-89105519D01*
X215070443Y-89105519D01*
G37*
G36*
X218401000Y-90901000D02*
X216599000Y-90901000D01*
X216599000Y-89099000D01*
X218401000Y-89099000D01*
X218401000Y-90901000D01*
X218401000Y-90901000D01*
G37*
G36*
X188530443Y-89105519D02*
X188596627Y-89112037D01*
X188709853Y-89146384D01*
X188766467Y-89163557D01*
X188905087Y-89237652D01*
X188922991Y-89247222D01*
X188958729Y-89276552D01*
X189060186Y-89359814D01*
X189143448Y-89461271D01*
X189172778Y-89497009D01*
X189172779Y-89497011D01*
X189256443Y-89653533D01*
X189256443Y-89653534D01*
X189307963Y-89823373D01*
X189325359Y-90000000D01*
X189307963Y-90176627D01*
X189273616Y-90289853D01*
X189256443Y-90346467D01*
X189182348Y-90485087D01*
X189172778Y-90502991D01*
X189160114Y-90518422D01*
X189060186Y-90640186D01*
X188958729Y-90723448D01*
X188922991Y-90752778D01*
X188922989Y-90752779D01*
X188766467Y-90836443D01*
X188709853Y-90853616D01*
X188596627Y-90887963D01*
X188530443Y-90894481D01*
X188464260Y-90901000D01*
X188375740Y-90901000D01*
X188309557Y-90894481D01*
X188243373Y-90887963D01*
X188130147Y-90853616D01*
X188073533Y-90836443D01*
X187917011Y-90752779D01*
X187917009Y-90752778D01*
X187881271Y-90723448D01*
X187779814Y-90640186D01*
X187679886Y-90518422D01*
X187667222Y-90502991D01*
X187657652Y-90485087D01*
X187583557Y-90346467D01*
X187566384Y-90289853D01*
X187532037Y-90176627D01*
X187514641Y-90000000D01*
X187532037Y-89823373D01*
X187583557Y-89653534D01*
X187583557Y-89653533D01*
X187667221Y-89497011D01*
X187667222Y-89497009D01*
X187696552Y-89461271D01*
X187779814Y-89359814D01*
X187881271Y-89276552D01*
X187917009Y-89247222D01*
X187934913Y-89237652D01*
X188073533Y-89163557D01*
X188130147Y-89146384D01*
X188243373Y-89112037D01*
X188309557Y-89105519D01*
X188375740Y-89099000D01*
X188464260Y-89099000D01*
X188530443Y-89105519D01*
X188530443Y-89105519D01*
G37*
G36*
X191070443Y-89105519D02*
X191136627Y-89112037D01*
X191249853Y-89146384D01*
X191306467Y-89163557D01*
X191445087Y-89237652D01*
X191462991Y-89247222D01*
X191498729Y-89276552D01*
X191600186Y-89359814D01*
X191683448Y-89461271D01*
X191712778Y-89497009D01*
X191712779Y-89497011D01*
X191796443Y-89653533D01*
X191796443Y-89653534D01*
X191847963Y-89823373D01*
X191865359Y-90000000D01*
X191847963Y-90176627D01*
X191813616Y-90289853D01*
X191796443Y-90346467D01*
X191722348Y-90485087D01*
X191712778Y-90502991D01*
X191700114Y-90518422D01*
X191600186Y-90640186D01*
X191498729Y-90723448D01*
X191462991Y-90752778D01*
X191462989Y-90752779D01*
X191306467Y-90836443D01*
X191249853Y-90853616D01*
X191136627Y-90887963D01*
X191070443Y-90894481D01*
X191004260Y-90901000D01*
X190915740Y-90901000D01*
X190849557Y-90894481D01*
X190783373Y-90887963D01*
X190670147Y-90853616D01*
X190613533Y-90836443D01*
X190457011Y-90752779D01*
X190457009Y-90752778D01*
X190421271Y-90723448D01*
X190319814Y-90640186D01*
X190219886Y-90518422D01*
X190207222Y-90502991D01*
X190197652Y-90485087D01*
X190123557Y-90346467D01*
X190106384Y-90289853D01*
X190072037Y-90176627D01*
X190054641Y-90000000D01*
X190072037Y-89823373D01*
X190123557Y-89653534D01*
X190123557Y-89653533D01*
X190207221Y-89497011D01*
X190207222Y-89497009D01*
X190236552Y-89461271D01*
X190319814Y-89359814D01*
X190421271Y-89276552D01*
X190457009Y-89247222D01*
X190474913Y-89237652D01*
X190613533Y-89163557D01*
X190670147Y-89146384D01*
X190783373Y-89112037D01*
X190849557Y-89105519D01*
X190915740Y-89099000D01*
X191004260Y-89099000D01*
X191070443Y-89105519D01*
X191070443Y-89105519D01*
G37*
G36*
X189087796Y-87710567D02*
X189142578Y-87733258D01*
X189191879Y-87766200D01*
X189233800Y-87808121D01*
X189266742Y-87857422D01*
X189289433Y-87912204D01*
X189301000Y-87970353D01*
X189301000Y-88029647D01*
X189289433Y-88087796D01*
X189266742Y-88142578D01*
X189233800Y-88191879D01*
X189191879Y-88233800D01*
X189142578Y-88266742D01*
X189087796Y-88289433D01*
X189029647Y-88301000D01*
X188970353Y-88301000D01*
X188912204Y-88289433D01*
X188857422Y-88266742D01*
X188808121Y-88233800D01*
X188766200Y-88191879D01*
X188733258Y-88142578D01*
X188710567Y-88087796D01*
X188699000Y-88029647D01*
X188699000Y-87970353D01*
X188710567Y-87912204D01*
X188733258Y-87857422D01*
X188766200Y-87808121D01*
X188808121Y-87766200D01*
X188857422Y-87733258D01*
X188912204Y-87710567D01*
X188970353Y-87699000D01*
X189029647Y-87699000D01*
X189087796Y-87710567D01*
X189087796Y-87710567D01*
G37*
G36*
X213087796Y-87710567D02*
X213142578Y-87733258D01*
X213191879Y-87766200D01*
X213233800Y-87808121D01*
X213266742Y-87857422D01*
X213289433Y-87912204D01*
X213301000Y-87970353D01*
X213301000Y-88029647D01*
X213289433Y-88087796D01*
X213266742Y-88142578D01*
X213233800Y-88191879D01*
X213191879Y-88233800D01*
X213142578Y-88266742D01*
X213087796Y-88289433D01*
X213029647Y-88301000D01*
X212970353Y-88301000D01*
X212912204Y-88289433D01*
X212857422Y-88266742D01*
X212808121Y-88233800D01*
X212766200Y-88191879D01*
X212733258Y-88142578D01*
X212710567Y-88087796D01*
X212699000Y-88029647D01*
X212699000Y-87970353D01*
X212710567Y-87912204D01*
X212733258Y-87857422D01*
X212766200Y-87808121D01*
X212808121Y-87766200D01*
X212857422Y-87733258D01*
X212912204Y-87710567D01*
X212970353Y-87699000D01*
X213029647Y-87699000D01*
X213087796Y-87710567D01*
X213087796Y-87710567D01*
G37*
G36*
X214087796Y-87710567D02*
X214142578Y-87733258D01*
X214191879Y-87766200D01*
X214233800Y-87808121D01*
X214266742Y-87857422D01*
X214289433Y-87912204D01*
X214301000Y-87970353D01*
X214301000Y-88029647D01*
X214289433Y-88087796D01*
X214266742Y-88142578D01*
X214233800Y-88191879D01*
X214191879Y-88233800D01*
X214142578Y-88266742D01*
X214087796Y-88289433D01*
X214029647Y-88301000D01*
X213970353Y-88301000D01*
X213912204Y-88289433D01*
X213857422Y-88266742D01*
X213808121Y-88233800D01*
X213766200Y-88191879D01*
X213733258Y-88142578D01*
X213710567Y-88087796D01*
X213699000Y-88029647D01*
X213699000Y-87970353D01*
X213710567Y-87912204D01*
X213733258Y-87857422D01*
X213766200Y-87808121D01*
X213808121Y-87766200D01*
X213857422Y-87733258D01*
X213912204Y-87710567D01*
X213970353Y-87699000D01*
X214029647Y-87699000D01*
X214087796Y-87710567D01*
X214087796Y-87710567D01*
G37*
G36*
X217087796Y-87710567D02*
X217142578Y-87733258D01*
X217191879Y-87766200D01*
X217233800Y-87808121D01*
X217266742Y-87857422D01*
X217289433Y-87912204D01*
X217301000Y-87970353D01*
X217301000Y-88029647D01*
X217289433Y-88087796D01*
X217266742Y-88142578D01*
X217233800Y-88191879D01*
X217191879Y-88233800D01*
X217142578Y-88266742D01*
X217087796Y-88289433D01*
X217029647Y-88301000D01*
X216970353Y-88301000D01*
X216912204Y-88289433D01*
X216857422Y-88266742D01*
X216808121Y-88233800D01*
X216766200Y-88191879D01*
X216733258Y-88142578D01*
X216710567Y-88087796D01*
X216699000Y-88029647D01*
X216699000Y-87970353D01*
X216710567Y-87912204D01*
X216733258Y-87857422D01*
X216766200Y-87808121D01*
X216808121Y-87766200D01*
X216857422Y-87733258D01*
X216912204Y-87710567D01*
X216970353Y-87699000D01*
X217029647Y-87699000D01*
X217087796Y-87710567D01*
X217087796Y-87710567D01*
G37*
G36*
X216087796Y-87710567D02*
X216142578Y-87733258D01*
X216191879Y-87766200D01*
X216233800Y-87808121D01*
X216266742Y-87857422D01*
X216289433Y-87912204D01*
X216301000Y-87970353D01*
X216301000Y-88029647D01*
X216289433Y-88087796D01*
X216266742Y-88142578D01*
X216233800Y-88191879D01*
X216191879Y-88233800D01*
X216142578Y-88266742D01*
X216087796Y-88289433D01*
X216029647Y-88301000D01*
X215970353Y-88301000D01*
X215912204Y-88289433D01*
X215857422Y-88266742D01*
X215808121Y-88233800D01*
X215766200Y-88191879D01*
X215733258Y-88142578D01*
X215710567Y-88087796D01*
X215699000Y-88029647D01*
X215699000Y-87970353D01*
X215710567Y-87912204D01*
X215733258Y-87857422D01*
X215766200Y-87808121D01*
X215808121Y-87766200D01*
X215857422Y-87733258D01*
X215912204Y-87710567D01*
X215970353Y-87699000D01*
X216029647Y-87699000D01*
X216087796Y-87710567D01*
X216087796Y-87710567D01*
G37*
G36*
X215087796Y-87710567D02*
X215142578Y-87733258D01*
X215191879Y-87766200D01*
X215233800Y-87808121D01*
X215266742Y-87857422D01*
X215289433Y-87912204D01*
X215301000Y-87970353D01*
X215301000Y-88029647D01*
X215289433Y-88087796D01*
X215266742Y-88142578D01*
X215233800Y-88191879D01*
X215191879Y-88233800D01*
X215142578Y-88266742D01*
X215087796Y-88289433D01*
X215029647Y-88301000D01*
X214970353Y-88301000D01*
X214912204Y-88289433D01*
X214857422Y-88266742D01*
X214808121Y-88233800D01*
X214766200Y-88191879D01*
X214733258Y-88142578D01*
X214710567Y-88087796D01*
X214699000Y-88029647D01*
X214699000Y-87970353D01*
X214710567Y-87912204D01*
X214733258Y-87857422D01*
X214766200Y-87808121D01*
X214808121Y-87766200D01*
X214857422Y-87733258D01*
X214912204Y-87710567D01*
X214970353Y-87699000D01*
X215029647Y-87699000D01*
X215087796Y-87710567D01*
X215087796Y-87710567D01*
G37*
G36*
X191087796Y-87710567D02*
X191142578Y-87733258D01*
X191191879Y-87766200D01*
X191233800Y-87808121D01*
X191266742Y-87857422D01*
X191289433Y-87912204D01*
X191301000Y-87970353D01*
X191301000Y-88029647D01*
X191289433Y-88087796D01*
X191266742Y-88142578D01*
X191233800Y-88191879D01*
X191191879Y-88233800D01*
X191142578Y-88266742D01*
X191087796Y-88289433D01*
X191029647Y-88301000D01*
X190970353Y-88301000D01*
X190912204Y-88289433D01*
X190857422Y-88266742D01*
X190808121Y-88233800D01*
X190766200Y-88191879D01*
X190733258Y-88142578D01*
X190710567Y-88087796D01*
X190699000Y-88029647D01*
X190699000Y-87970353D01*
X190710567Y-87912204D01*
X190733258Y-87857422D01*
X190766200Y-87808121D01*
X190808121Y-87766200D01*
X190857422Y-87733258D01*
X190912204Y-87710567D01*
X190970353Y-87699000D01*
X191029647Y-87699000D01*
X191087796Y-87710567D01*
X191087796Y-87710567D01*
G37*
G36*
X192087796Y-87710567D02*
X192142578Y-87733258D01*
X192191879Y-87766200D01*
X192233800Y-87808121D01*
X192266742Y-87857422D01*
X192289433Y-87912204D01*
X192301000Y-87970353D01*
X192301000Y-88029647D01*
X192289433Y-88087796D01*
X192266742Y-88142578D01*
X192233800Y-88191879D01*
X192191879Y-88233800D01*
X192142578Y-88266742D01*
X192087796Y-88289433D01*
X192029647Y-88301000D01*
X191970353Y-88301000D01*
X191912204Y-88289433D01*
X191857422Y-88266742D01*
X191808121Y-88233800D01*
X191766200Y-88191879D01*
X191733258Y-88142578D01*
X191710567Y-88087796D01*
X191699000Y-88029647D01*
X191699000Y-87970353D01*
X191710567Y-87912204D01*
X191733258Y-87857422D01*
X191766200Y-87808121D01*
X191808121Y-87766200D01*
X191857422Y-87733258D01*
X191912204Y-87710567D01*
X191970353Y-87699000D01*
X192029647Y-87699000D01*
X192087796Y-87710567D01*
X192087796Y-87710567D01*
G37*
G36*
X193087796Y-87710567D02*
X193142578Y-87733258D01*
X193191879Y-87766200D01*
X193233800Y-87808121D01*
X193266742Y-87857422D01*
X193289433Y-87912204D01*
X193301000Y-87970353D01*
X193301000Y-88029647D01*
X193289433Y-88087796D01*
X193266742Y-88142578D01*
X193233800Y-88191879D01*
X193191879Y-88233800D01*
X193142578Y-88266742D01*
X193087796Y-88289433D01*
X193029647Y-88301000D01*
X192970353Y-88301000D01*
X192912204Y-88289433D01*
X192857422Y-88266742D01*
X192808121Y-88233800D01*
X192766200Y-88191879D01*
X192733258Y-88142578D01*
X192710567Y-88087796D01*
X192699000Y-88029647D01*
X192699000Y-87970353D01*
X192710567Y-87912204D01*
X192733258Y-87857422D01*
X192766200Y-87808121D01*
X192808121Y-87766200D01*
X192857422Y-87733258D01*
X192912204Y-87710567D01*
X192970353Y-87699000D01*
X193029647Y-87699000D01*
X193087796Y-87710567D01*
X193087796Y-87710567D01*
G37*
G36*
X190087796Y-87710567D02*
X190142578Y-87733258D01*
X190191879Y-87766200D01*
X190233800Y-87808121D01*
X190266742Y-87857422D01*
X190289433Y-87912204D01*
X190301000Y-87970353D01*
X190301000Y-88029647D01*
X190289433Y-88087796D01*
X190266742Y-88142578D01*
X190233800Y-88191879D01*
X190191879Y-88233800D01*
X190142578Y-88266742D01*
X190087796Y-88289433D01*
X190029647Y-88301000D01*
X189970353Y-88301000D01*
X189912204Y-88289433D01*
X189857422Y-88266742D01*
X189808121Y-88233800D01*
X189766200Y-88191879D01*
X189733258Y-88142578D01*
X189710567Y-88087796D01*
X189699000Y-88029647D01*
X189699000Y-87970353D01*
X189710567Y-87912204D01*
X189733258Y-87857422D01*
X189766200Y-87808121D01*
X189808121Y-87766200D01*
X189857422Y-87733258D01*
X189912204Y-87710567D01*
X189970353Y-87699000D01*
X190029647Y-87699000D01*
X190087796Y-87710567D01*
X190087796Y-87710567D01*
G37*
G36*
X215087796Y-85710567D02*
X215142578Y-85733258D01*
X215191879Y-85766200D01*
X215233800Y-85808121D01*
X215266742Y-85857422D01*
X215289433Y-85912204D01*
X215301000Y-85970353D01*
X215301000Y-86029647D01*
X215289433Y-86087796D01*
X215266742Y-86142578D01*
X215233800Y-86191879D01*
X215191879Y-86233800D01*
X215142578Y-86266742D01*
X215087796Y-86289433D01*
X215029647Y-86301000D01*
X214970353Y-86301000D01*
X214912204Y-86289433D01*
X214857422Y-86266742D01*
X214808121Y-86233800D01*
X214766200Y-86191879D01*
X214733258Y-86142578D01*
X214710567Y-86087796D01*
X214699000Y-86029647D01*
X214699000Y-85970353D01*
X214710567Y-85912204D01*
X214733258Y-85857422D01*
X214766200Y-85808121D01*
X214808121Y-85766200D01*
X214857422Y-85733258D01*
X214912204Y-85710567D01*
X214970353Y-85699000D01*
X215029647Y-85699000D01*
X215087796Y-85710567D01*
X215087796Y-85710567D01*
G37*
G36*
X191087796Y-85710567D02*
X191142578Y-85733258D01*
X191191879Y-85766200D01*
X191233800Y-85808121D01*
X191266742Y-85857422D01*
X191289433Y-85912204D01*
X191301000Y-85970353D01*
X191301000Y-86029647D01*
X191289433Y-86087796D01*
X191266742Y-86142578D01*
X191233800Y-86191879D01*
X191191879Y-86233800D01*
X191142578Y-86266742D01*
X191087796Y-86289433D01*
X191029647Y-86301000D01*
X190970353Y-86301000D01*
X190912204Y-86289433D01*
X190857422Y-86266742D01*
X190808121Y-86233800D01*
X190766200Y-86191879D01*
X190733258Y-86142578D01*
X190710567Y-86087796D01*
X190699000Y-86029647D01*
X190699000Y-85970353D01*
X190710567Y-85912204D01*
X190733258Y-85857422D01*
X190766200Y-85808121D01*
X190808121Y-85766200D01*
X190857422Y-85733258D01*
X190912204Y-85710567D01*
X190970353Y-85699000D01*
X191029647Y-85699000D01*
X191087796Y-85710567D01*
X191087796Y-85710567D01*
G37*
G36*
X192087796Y-85710567D02*
X192142578Y-85733258D01*
X192191879Y-85766200D01*
X192233800Y-85808121D01*
X192266742Y-85857422D01*
X192289433Y-85912204D01*
X192301000Y-85970353D01*
X192301000Y-86029647D01*
X192289433Y-86087796D01*
X192266742Y-86142578D01*
X192233800Y-86191879D01*
X192191879Y-86233800D01*
X192142578Y-86266742D01*
X192087796Y-86289433D01*
X192029647Y-86301000D01*
X191970353Y-86301000D01*
X191912204Y-86289433D01*
X191857422Y-86266742D01*
X191808121Y-86233800D01*
X191766200Y-86191879D01*
X191733258Y-86142578D01*
X191710567Y-86087796D01*
X191699000Y-86029647D01*
X191699000Y-85970353D01*
X191710567Y-85912204D01*
X191733258Y-85857422D01*
X191766200Y-85808121D01*
X191808121Y-85766200D01*
X191857422Y-85733258D01*
X191912204Y-85710567D01*
X191970353Y-85699000D01*
X192029647Y-85699000D01*
X192087796Y-85710567D01*
X192087796Y-85710567D01*
G37*
G36*
X193087796Y-85710567D02*
X193142578Y-85733258D01*
X193191879Y-85766200D01*
X193233800Y-85808121D01*
X193266742Y-85857422D01*
X193289433Y-85912204D01*
X193301000Y-85970353D01*
X193301000Y-86029647D01*
X193289433Y-86087796D01*
X193266742Y-86142578D01*
X193233800Y-86191879D01*
X193191879Y-86233800D01*
X193142578Y-86266742D01*
X193087796Y-86289433D01*
X193029647Y-86301000D01*
X192970353Y-86301000D01*
X192912204Y-86289433D01*
X192857422Y-86266742D01*
X192808121Y-86233800D01*
X192766200Y-86191879D01*
X192733258Y-86142578D01*
X192710567Y-86087796D01*
X192699000Y-86029647D01*
X192699000Y-85970353D01*
X192710567Y-85912204D01*
X192733258Y-85857422D01*
X192766200Y-85808121D01*
X192808121Y-85766200D01*
X192857422Y-85733258D01*
X192912204Y-85710567D01*
X192970353Y-85699000D01*
X193029647Y-85699000D01*
X193087796Y-85710567D01*
X193087796Y-85710567D01*
G37*
G36*
X190087796Y-85710567D02*
X190142578Y-85733258D01*
X190191879Y-85766200D01*
X190233800Y-85808121D01*
X190266742Y-85857422D01*
X190289433Y-85912204D01*
X190301000Y-85970353D01*
X190301000Y-86029647D01*
X190289433Y-86087796D01*
X190266742Y-86142578D01*
X190233800Y-86191879D01*
X190191879Y-86233800D01*
X190142578Y-86266742D01*
X190087796Y-86289433D01*
X190029647Y-86301000D01*
X189970353Y-86301000D01*
X189912204Y-86289433D01*
X189857422Y-86266742D01*
X189808121Y-86233800D01*
X189766200Y-86191879D01*
X189733258Y-86142578D01*
X189710567Y-86087796D01*
X189699000Y-86029647D01*
X189699000Y-85970353D01*
X189710567Y-85912204D01*
X189733258Y-85857422D01*
X189766200Y-85808121D01*
X189808121Y-85766200D01*
X189857422Y-85733258D01*
X189912204Y-85710567D01*
X189970353Y-85699000D01*
X190029647Y-85699000D01*
X190087796Y-85710567D01*
X190087796Y-85710567D01*
G37*
G36*
X214087796Y-85710567D02*
X214142578Y-85733258D01*
X214191879Y-85766200D01*
X214233800Y-85808121D01*
X214266742Y-85857422D01*
X214289433Y-85912204D01*
X214301000Y-85970353D01*
X214301000Y-86029647D01*
X214289433Y-86087796D01*
X214266742Y-86142578D01*
X214233800Y-86191879D01*
X214191879Y-86233800D01*
X214142578Y-86266742D01*
X214087796Y-86289433D01*
X214029647Y-86301000D01*
X213970353Y-86301000D01*
X213912204Y-86289433D01*
X213857422Y-86266742D01*
X213808121Y-86233800D01*
X213766200Y-86191879D01*
X213733258Y-86142578D01*
X213710567Y-86087796D01*
X213699000Y-86029647D01*
X213699000Y-85970353D01*
X213710567Y-85912204D01*
X213733258Y-85857422D01*
X213766200Y-85808121D01*
X213808121Y-85766200D01*
X213857422Y-85733258D01*
X213912204Y-85710567D01*
X213970353Y-85699000D01*
X214029647Y-85699000D01*
X214087796Y-85710567D01*
X214087796Y-85710567D01*
G37*
G36*
X213087796Y-85710567D02*
X213142578Y-85733258D01*
X213191879Y-85766200D01*
X213233800Y-85808121D01*
X213266742Y-85857422D01*
X213289433Y-85912204D01*
X213301000Y-85970353D01*
X213301000Y-86029647D01*
X213289433Y-86087796D01*
X213266742Y-86142578D01*
X213233800Y-86191879D01*
X213191879Y-86233800D01*
X213142578Y-86266742D01*
X213087796Y-86289433D01*
X213029647Y-86301000D01*
X212970353Y-86301000D01*
X212912204Y-86289433D01*
X212857422Y-86266742D01*
X212808121Y-86233800D01*
X212766200Y-86191879D01*
X212733258Y-86142578D01*
X212710567Y-86087796D01*
X212699000Y-86029647D01*
X212699000Y-85970353D01*
X212710567Y-85912204D01*
X212733258Y-85857422D01*
X212766200Y-85808121D01*
X212808121Y-85766200D01*
X212857422Y-85733258D01*
X212912204Y-85710567D01*
X212970353Y-85699000D01*
X213029647Y-85699000D01*
X213087796Y-85710567D01*
X213087796Y-85710567D01*
G37*
G36*
X189087796Y-85710567D02*
X189142578Y-85733258D01*
X189191879Y-85766200D01*
X189233800Y-85808121D01*
X189266742Y-85857422D01*
X189289433Y-85912204D01*
X189301000Y-85970353D01*
X189301000Y-86029647D01*
X189289433Y-86087796D01*
X189266742Y-86142578D01*
X189233800Y-86191879D01*
X189191879Y-86233800D01*
X189142578Y-86266742D01*
X189087796Y-86289433D01*
X189029647Y-86301000D01*
X188970353Y-86301000D01*
X188912204Y-86289433D01*
X188857422Y-86266742D01*
X188808121Y-86233800D01*
X188766200Y-86191879D01*
X188733258Y-86142578D01*
X188710567Y-86087796D01*
X188699000Y-86029647D01*
X188699000Y-85970353D01*
X188710567Y-85912204D01*
X188733258Y-85857422D01*
X188766200Y-85808121D01*
X188808121Y-85766200D01*
X188857422Y-85733258D01*
X188912204Y-85710567D01*
X188970353Y-85699000D01*
X189029647Y-85699000D01*
X189087796Y-85710567D01*
X189087796Y-85710567D01*
G37*
G36*
X217087796Y-85710567D02*
X217142578Y-85733258D01*
X217191879Y-85766200D01*
X217233800Y-85808121D01*
X217266742Y-85857422D01*
X217289433Y-85912204D01*
X217301000Y-85970353D01*
X217301000Y-86029647D01*
X217289433Y-86087796D01*
X217266742Y-86142578D01*
X217233800Y-86191879D01*
X217191879Y-86233800D01*
X217142578Y-86266742D01*
X217087796Y-86289433D01*
X217029647Y-86301000D01*
X216970353Y-86301000D01*
X216912204Y-86289433D01*
X216857422Y-86266742D01*
X216808121Y-86233800D01*
X216766200Y-86191879D01*
X216733258Y-86142578D01*
X216710567Y-86087796D01*
X216699000Y-86029647D01*
X216699000Y-85970353D01*
X216710567Y-85912204D01*
X216733258Y-85857422D01*
X216766200Y-85808121D01*
X216808121Y-85766200D01*
X216857422Y-85733258D01*
X216912204Y-85710567D01*
X216970353Y-85699000D01*
X217029647Y-85699000D01*
X217087796Y-85710567D01*
X217087796Y-85710567D01*
G37*
G36*
X216087796Y-85710567D02*
X216142578Y-85733258D01*
X216191879Y-85766200D01*
X216233800Y-85808121D01*
X216266742Y-85857422D01*
X216289433Y-85912204D01*
X216301000Y-85970353D01*
X216301000Y-86029647D01*
X216289433Y-86087796D01*
X216266742Y-86142578D01*
X216233800Y-86191879D01*
X216191879Y-86233800D01*
X216142578Y-86266742D01*
X216087796Y-86289433D01*
X216029647Y-86301000D01*
X215970353Y-86301000D01*
X215912204Y-86289433D01*
X215857422Y-86266742D01*
X215808121Y-86233800D01*
X215766200Y-86191879D01*
X215733258Y-86142578D01*
X215710567Y-86087796D01*
X215699000Y-86029647D01*
X215699000Y-85970353D01*
X215710567Y-85912204D01*
X215733258Y-85857422D01*
X215766200Y-85808121D01*
X215808121Y-85766200D01*
X215857422Y-85733258D01*
X215912204Y-85710567D01*
X215970353Y-85699000D01*
X216029647Y-85699000D01*
X216087796Y-85710567D01*
X216087796Y-85710567D01*
G37*
G36*
X224110442Y-83185518D02*
X224176627Y-83192037D01*
X224289853Y-83226384D01*
X224346467Y-83243557D01*
X224485087Y-83317652D01*
X224502991Y-83327222D01*
X224538729Y-83356552D01*
X224640186Y-83439814D01*
X224723448Y-83541271D01*
X224752778Y-83577009D01*
X224752779Y-83577011D01*
X224836443Y-83733533D01*
X224836443Y-83733534D01*
X224887963Y-83903373D01*
X224905359Y-84080000D01*
X224887963Y-84256627D01*
X224880140Y-84282415D01*
X224836443Y-84426467D01*
X224795539Y-84502991D01*
X224752778Y-84582991D01*
X224723448Y-84618729D01*
X224640186Y-84720186D01*
X224538729Y-84803448D01*
X224502991Y-84832778D01*
X224502989Y-84832779D01*
X224346467Y-84916443D01*
X224289853Y-84933616D01*
X224176627Y-84967963D01*
X224110443Y-84974481D01*
X224044260Y-84981000D01*
X223955740Y-84981000D01*
X223889557Y-84974481D01*
X223823373Y-84967963D01*
X223710147Y-84933616D01*
X223653533Y-84916443D01*
X223497011Y-84832779D01*
X223497009Y-84832778D01*
X223461271Y-84803448D01*
X223359814Y-84720186D01*
X223276552Y-84618729D01*
X223247222Y-84582991D01*
X223204461Y-84502991D01*
X223163557Y-84426467D01*
X223119860Y-84282415D01*
X223112037Y-84256627D01*
X223094641Y-84080000D01*
X223112037Y-83903373D01*
X223163557Y-83733534D01*
X223163557Y-83733533D01*
X223247221Y-83577011D01*
X223247222Y-83577009D01*
X223276552Y-83541271D01*
X223359814Y-83439814D01*
X223461271Y-83356552D01*
X223497009Y-83327222D01*
X223514913Y-83317652D01*
X223653533Y-83243557D01*
X223710147Y-83226384D01*
X223823373Y-83192037D01*
X223889558Y-83185518D01*
X223955740Y-83179000D01*
X224044260Y-83179000D01*
X224110442Y-83185518D01*
X224110442Y-83185518D01*
G37*
G36*
X200110442Y-83185518D02*
X200176627Y-83192037D01*
X200289853Y-83226384D01*
X200346467Y-83243557D01*
X200485087Y-83317652D01*
X200502991Y-83327222D01*
X200538729Y-83356552D01*
X200640186Y-83439814D01*
X200723448Y-83541271D01*
X200752778Y-83577009D01*
X200752779Y-83577011D01*
X200836443Y-83733533D01*
X200836443Y-83733534D01*
X200887963Y-83903373D01*
X200905359Y-84080000D01*
X200887963Y-84256627D01*
X200880140Y-84282415D01*
X200836443Y-84426467D01*
X200795539Y-84502991D01*
X200752778Y-84582991D01*
X200723448Y-84618729D01*
X200640186Y-84720186D01*
X200538729Y-84803448D01*
X200502991Y-84832778D01*
X200502989Y-84832779D01*
X200346467Y-84916443D01*
X200289853Y-84933616D01*
X200176627Y-84967963D01*
X200110443Y-84974481D01*
X200044260Y-84981000D01*
X199955740Y-84981000D01*
X199889557Y-84974481D01*
X199823373Y-84967963D01*
X199710147Y-84933616D01*
X199653533Y-84916443D01*
X199497011Y-84832779D01*
X199497009Y-84832778D01*
X199461271Y-84803448D01*
X199359814Y-84720186D01*
X199276552Y-84618729D01*
X199247222Y-84582991D01*
X199204461Y-84502991D01*
X199163557Y-84426467D01*
X199119860Y-84282415D01*
X199112037Y-84256627D01*
X199094641Y-84080000D01*
X199112037Y-83903373D01*
X199163557Y-83733534D01*
X199163557Y-83733533D01*
X199247221Y-83577011D01*
X199247222Y-83577009D01*
X199276552Y-83541271D01*
X199359814Y-83439814D01*
X199461271Y-83356552D01*
X199497009Y-83327222D01*
X199514913Y-83317652D01*
X199653533Y-83243557D01*
X199710147Y-83226384D01*
X199823373Y-83192037D01*
X199889558Y-83185518D01*
X199955740Y-83179000D01*
X200044260Y-83179000D01*
X200110442Y-83185518D01*
X200110442Y-83185518D01*
G37*
G36*
X206570442Y-83105518D02*
X206636627Y-83112037D01*
X206749853Y-83146384D01*
X206806467Y-83163557D01*
X206945087Y-83237652D01*
X206962991Y-83247222D01*
X206998729Y-83276552D01*
X207100186Y-83359814D01*
X207165839Y-83439814D01*
X207212778Y-83497009D01*
X207212779Y-83497011D01*
X207296443Y-83653533D01*
X207296443Y-83653534D01*
X207347963Y-83823373D01*
X207365359Y-84000000D01*
X207347963Y-84176627D01*
X207323696Y-84256625D01*
X207296443Y-84346467D01*
X207222348Y-84485087D01*
X207212778Y-84502991D01*
X207183448Y-84538729D01*
X207100186Y-84640186D01*
X207002705Y-84720185D01*
X206962991Y-84752778D01*
X206962989Y-84752779D01*
X206806467Y-84836443D01*
X206749853Y-84853616D01*
X206636627Y-84887963D01*
X206570442Y-84894482D01*
X206504260Y-84901000D01*
X206415740Y-84901000D01*
X206349558Y-84894482D01*
X206283373Y-84887963D01*
X206170147Y-84853616D01*
X206113533Y-84836443D01*
X205957011Y-84752779D01*
X205957009Y-84752778D01*
X205917295Y-84720185D01*
X205819814Y-84640186D01*
X205736552Y-84538729D01*
X205707222Y-84502991D01*
X205697652Y-84485087D01*
X205623557Y-84346467D01*
X205596304Y-84256625D01*
X205572037Y-84176627D01*
X205554641Y-84000000D01*
X205572037Y-83823373D01*
X205623557Y-83653534D01*
X205623557Y-83653533D01*
X205707221Y-83497011D01*
X205707222Y-83497009D01*
X205754161Y-83439814D01*
X205819814Y-83359814D01*
X205921271Y-83276552D01*
X205957009Y-83247222D01*
X205974913Y-83237652D01*
X206113533Y-83163557D01*
X206170147Y-83146384D01*
X206283373Y-83112037D01*
X206349558Y-83105518D01*
X206415740Y-83099000D01*
X206504260Y-83099000D01*
X206570442Y-83105518D01*
X206570442Y-83105518D01*
G37*
G36*
X185901000Y-84901000D02*
X184099000Y-84901000D01*
X184099000Y-83099000D01*
X185901000Y-83099000D01*
X185901000Y-84901000D01*
X185901000Y-84901000D01*
G37*
G36*
X209901000Y-84901000D02*
X208099000Y-84901000D01*
X208099000Y-83099000D01*
X209901000Y-83099000D01*
X209901000Y-84901000D01*
X209901000Y-84901000D01*
G37*
G36*
X191400442Y-83105518D02*
X191466627Y-83112037D01*
X191579853Y-83146384D01*
X191636467Y-83163557D01*
X191775087Y-83237652D01*
X191792991Y-83247222D01*
X191828729Y-83276552D01*
X191930186Y-83359814D01*
X191995839Y-83439814D01*
X192042778Y-83497009D01*
X192042779Y-83497011D01*
X192126443Y-83653533D01*
X192126443Y-83653534D01*
X192177963Y-83823373D01*
X192195359Y-84000000D01*
X192177963Y-84176627D01*
X192153696Y-84256625D01*
X192126443Y-84346467D01*
X192052348Y-84485087D01*
X192042778Y-84502991D01*
X192013448Y-84538729D01*
X191930186Y-84640186D01*
X191832705Y-84720185D01*
X191792991Y-84752778D01*
X191792989Y-84752779D01*
X191636467Y-84836443D01*
X191579853Y-84853616D01*
X191466627Y-84887963D01*
X191400442Y-84894482D01*
X191334260Y-84901000D01*
X191245740Y-84901000D01*
X191179558Y-84894482D01*
X191113373Y-84887963D01*
X191000147Y-84853616D01*
X190943533Y-84836443D01*
X190787011Y-84752779D01*
X190787009Y-84752778D01*
X190747295Y-84720185D01*
X190649814Y-84640186D01*
X190566552Y-84538729D01*
X190537222Y-84502991D01*
X190527652Y-84485087D01*
X190453557Y-84346467D01*
X190426304Y-84256625D01*
X190402037Y-84176627D01*
X190384641Y-84000000D01*
X190402037Y-83823373D01*
X190453557Y-83653534D01*
X190453557Y-83653533D01*
X190537221Y-83497011D01*
X190537222Y-83497009D01*
X190584161Y-83439814D01*
X190649814Y-83359814D01*
X190751271Y-83276552D01*
X190787009Y-83247222D01*
X190804913Y-83237652D01*
X190943533Y-83163557D01*
X191000147Y-83146384D01*
X191113373Y-83112037D01*
X191179558Y-83105518D01*
X191245740Y-83099000D01*
X191334260Y-83099000D01*
X191400442Y-83105518D01*
X191400442Y-83105518D01*
G37*
G36*
X189651000Y-84901000D02*
X187849000Y-84901000D01*
X187849000Y-83099000D01*
X189651000Y-83099000D01*
X189651000Y-84901000D01*
X189651000Y-84901000D01*
G37*
G36*
X215400442Y-83105518D02*
X215466627Y-83112037D01*
X215579853Y-83146384D01*
X215636467Y-83163557D01*
X215775087Y-83237652D01*
X215792991Y-83247222D01*
X215828729Y-83276552D01*
X215930186Y-83359814D01*
X215995839Y-83439814D01*
X216042778Y-83497009D01*
X216042779Y-83497011D01*
X216126443Y-83653533D01*
X216126443Y-83653534D01*
X216177963Y-83823373D01*
X216195359Y-84000000D01*
X216177963Y-84176627D01*
X216153696Y-84256625D01*
X216126443Y-84346467D01*
X216052348Y-84485087D01*
X216042778Y-84502991D01*
X216013448Y-84538729D01*
X215930186Y-84640186D01*
X215832705Y-84720185D01*
X215792991Y-84752778D01*
X215792989Y-84752779D01*
X215636467Y-84836443D01*
X215579853Y-84853616D01*
X215466627Y-84887963D01*
X215400442Y-84894482D01*
X215334260Y-84901000D01*
X215245740Y-84901000D01*
X215179558Y-84894482D01*
X215113373Y-84887963D01*
X215000147Y-84853616D01*
X214943533Y-84836443D01*
X214787011Y-84752779D01*
X214787009Y-84752778D01*
X214747295Y-84720185D01*
X214649814Y-84640186D01*
X214566552Y-84538729D01*
X214537222Y-84502991D01*
X214527652Y-84485087D01*
X214453557Y-84346467D01*
X214426304Y-84256625D01*
X214402037Y-84176627D01*
X214384641Y-84000000D01*
X214402037Y-83823373D01*
X214453557Y-83653534D01*
X214453557Y-83653533D01*
X214537221Y-83497011D01*
X214537222Y-83497009D01*
X214584161Y-83439814D01*
X214649814Y-83359814D01*
X214751271Y-83276552D01*
X214787009Y-83247222D01*
X214804913Y-83237652D01*
X214943533Y-83163557D01*
X215000147Y-83146384D01*
X215113373Y-83112037D01*
X215179558Y-83105518D01*
X215245740Y-83099000D01*
X215334260Y-83099000D01*
X215400442Y-83105518D01*
X215400442Y-83105518D01*
G37*
G36*
X213651000Y-84901000D02*
X211849000Y-84901000D01*
X211849000Y-83099000D01*
X213651000Y-83099000D01*
X213651000Y-84901000D01*
X213651000Y-84901000D01*
G37*
G36*
X182570442Y-83105518D02*
X182636627Y-83112037D01*
X182749853Y-83146384D01*
X182806467Y-83163557D01*
X182945087Y-83237652D01*
X182962991Y-83247222D01*
X182998729Y-83276552D01*
X183100186Y-83359814D01*
X183165839Y-83439814D01*
X183212778Y-83497009D01*
X183212779Y-83497011D01*
X183296443Y-83653533D01*
X183296443Y-83653534D01*
X183347963Y-83823373D01*
X183365359Y-84000000D01*
X183347963Y-84176627D01*
X183323696Y-84256625D01*
X183296443Y-84346467D01*
X183222348Y-84485087D01*
X183212778Y-84502991D01*
X183183448Y-84538729D01*
X183100186Y-84640186D01*
X183002705Y-84720185D01*
X182962991Y-84752778D01*
X182962989Y-84752779D01*
X182806467Y-84836443D01*
X182749853Y-84853616D01*
X182636627Y-84887963D01*
X182570442Y-84894482D01*
X182504260Y-84901000D01*
X182415740Y-84901000D01*
X182349558Y-84894482D01*
X182283373Y-84887963D01*
X182170147Y-84853616D01*
X182113533Y-84836443D01*
X181957011Y-84752779D01*
X181957009Y-84752778D01*
X181917295Y-84720185D01*
X181819814Y-84640186D01*
X181736552Y-84538729D01*
X181707222Y-84502991D01*
X181697652Y-84485087D01*
X181623557Y-84346467D01*
X181596304Y-84256625D01*
X181572037Y-84176627D01*
X181554641Y-84000000D01*
X181572037Y-83823373D01*
X181623557Y-83653534D01*
X181623557Y-83653533D01*
X181707221Y-83497011D01*
X181707222Y-83497009D01*
X181754161Y-83439814D01*
X181819814Y-83359814D01*
X181921271Y-83276552D01*
X181957009Y-83247222D01*
X181974913Y-83237652D01*
X182113533Y-83163557D01*
X182170147Y-83146384D01*
X182283373Y-83112037D01*
X182349558Y-83105518D01*
X182415740Y-83099000D01*
X182504260Y-83099000D01*
X182570442Y-83105518D01*
X182570442Y-83105518D01*
G37*
G36*
X220375256Y-81391298D02*
X220481579Y-81412447D01*
X220782042Y-81536903D01*
X221048852Y-81715180D01*
X221052454Y-81717587D01*
X221282413Y-81947546D01*
X221463098Y-82217960D01*
X221587553Y-82518422D01*
X221651000Y-82837389D01*
X221651000Y-83162611D01*
X221611774Y-83359814D01*
X221587553Y-83481579D01*
X221463097Y-83782042D01*
X221317462Y-84000000D01*
X221282413Y-84052454D01*
X221052454Y-84282413D01*
X221052451Y-84282415D01*
X220782042Y-84463097D01*
X220481579Y-84587553D01*
X220375256Y-84608702D01*
X220162611Y-84651000D01*
X219837389Y-84651000D01*
X219624744Y-84608702D01*
X219518421Y-84587553D01*
X219217958Y-84463097D01*
X218947549Y-84282415D01*
X218947546Y-84282413D01*
X218717587Y-84052454D01*
X218682538Y-84000000D01*
X218536903Y-83782042D01*
X218412447Y-83481579D01*
X218388226Y-83359814D01*
X218349000Y-83162611D01*
X218349000Y-82837389D01*
X218412447Y-82518422D01*
X218536902Y-82217960D01*
X218717587Y-81947546D01*
X218947546Y-81717587D01*
X218951148Y-81715180D01*
X219217958Y-81536903D01*
X219518421Y-81412447D01*
X219624744Y-81391298D01*
X219837389Y-81349000D01*
X220162611Y-81349000D01*
X220375256Y-81391298D01*
X220375256Y-81391298D01*
G37*
G36*
X196375256Y-81391298D02*
X196481579Y-81412447D01*
X196782042Y-81536903D01*
X197048852Y-81715180D01*
X197052454Y-81717587D01*
X197282413Y-81947546D01*
X197463098Y-82217960D01*
X197587553Y-82518422D01*
X197651000Y-82837389D01*
X197651000Y-83162611D01*
X197611774Y-83359814D01*
X197587553Y-83481579D01*
X197463097Y-83782042D01*
X197317462Y-84000000D01*
X197282413Y-84052454D01*
X197052454Y-84282413D01*
X197052451Y-84282415D01*
X196782042Y-84463097D01*
X196481579Y-84587553D01*
X196375256Y-84608702D01*
X196162611Y-84651000D01*
X195837389Y-84651000D01*
X195624744Y-84608702D01*
X195518421Y-84587553D01*
X195217958Y-84463097D01*
X194947549Y-84282415D01*
X194947546Y-84282413D01*
X194717587Y-84052454D01*
X194682538Y-84000000D01*
X194536903Y-83782042D01*
X194412447Y-83481579D01*
X194388226Y-83359814D01*
X194349000Y-83162611D01*
X194349000Y-82837389D01*
X194412447Y-82518422D01*
X194536902Y-82217960D01*
X194717587Y-81947546D01*
X194947546Y-81717587D01*
X194951148Y-81715180D01*
X195217958Y-81536903D01*
X195518421Y-81412447D01*
X195624744Y-81391298D01*
X195837389Y-81349000D01*
X196162611Y-81349000D01*
X196375256Y-81391298D01*
X196375256Y-81391298D01*
G37*
G36*
X224110443Y-80645519D02*
X224176627Y-80652037D01*
X224289853Y-80686384D01*
X224346467Y-80703557D01*
X224485087Y-80777652D01*
X224502991Y-80787222D01*
X224538729Y-80816552D01*
X224640186Y-80899814D01*
X224723448Y-81001271D01*
X224752778Y-81037009D01*
X224752779Y-81037011D01*
X224836443Y-81193533D01*
X224836443Y-81193534D01*
X224887963Y-81363373D01*
X224905359Y-81540000D01*
X224887963Y-81716627D01*
X224853616Y-81829853D01*
X224836443Y-81886467D01*
X224762348Y-82025087D01*
X224752778Y-82042991D01*
X224723448Y-82078729D01*
X224640186Y-82180186D01*
X224538729Y-82263448D01*
X224502991Y-82292778D01*
X224502989Y-82292779D01*
X224346467Y-82376443D01*
X224289853Y-82393616D01*
X224176627Y-82427963D01*
X224110442Y-82434482D01*
X224044260Y-82441000D01*
X223955740Y-82441000D01*
X223889558Y-82434482D01*
X223823373Y-82427963D01*
X223710147Y-82393616D01*
X223653533Y-82376443D01*
X223497011Y-82292779D01*
X223497009Y-82292778D01*
X223461271Y-82263448D01*
X223359814Y-82180186D01*
X223276552Y-82078729D01*
X223247222Y-82042991D01*
X223237652Y-82025087D01*
X223163557Y-81886467D01*
X223146384Y-81829853D01*
X223112037Y-81716627D01*
X223094641Y-81540000D01*
X223112037Y-81363373D01*
X223163557Y-81193534D01*
X223163557Y-81193533D01*
X223247221Y-81037011D01*
X223247222Y-81037009D01*
X223276552Y-81001271D01*
X223359814Y-80899814D01*
X223461271Y-80816552D01*
X223497009Y-80787222D01*
X223514913Y-80777652D01*
X223653533Y-80703557D01*
X223710147Y-80686384D01*
X223823373Y-80652037D01*
X223889557Y-80645519D01*
X223955740Y-80639000D01*
X224044260Y-80639000D01*
X224110443Y-80645519D01*
X224110443Y-80645519D01*
G37*
G36*
X200110443Y-80645519D02*
X200176627Y-80652037D01*
X200289853Y-80686384D01*
X200346467Y-80703557D01*
X200485087Y-80777652D01*
X200502991Y-80787222D01*
X200538729Y-80816552D01*
X200640186Y-80899814D01*
X200723448Y-81001271D01*
X200752778Y-81037009D01*
X200752779Y-81037011D01*
X200836443Y-81193533D01*
X200836443Y-81193534D01*
X200887963Y-81363373D01*
X200905359Y-81540000D01*
X200887963Y-81716627D01*
X200853616Y-81829853D01*
X200836443Y-81886467D01*
X200762348Y-82025087D01*
X200752778Y-82042991D01*
X200723448Y-82078729D01*
X200640186Y-82180186D01*
X200538729Y-82263448D01*
X200502991Y-82292778D01*
X200502989Y-82292779D01*
X200346467Y-82376443D01*
X200289853Y-82393616D01*
X200176627Y-82427963D01*
X200110442Y-82434482D01*
X200044260Y-82441000D01*
X199955740Y-82441000D01*
X199889558Y-82434482D01*
X199823373Y-82427963D01*
X199710147Y-82393616D01*
X199653533Y-82376443D01*
X199497011Y-82292779D01*
X199497009Y-82292778D01*
X199461271Y-82263448D01*
X199359814Y-82180186D01*
X199276552Y-82078729D01*
X199247222Y-82042991D01*
X199237652Y-82025087D01*
X199163557Y-81886467D01*
X199146384Y-81829853D01*
X199112037Y-81716627D01*
X199094641Y-81540000D01*
X199112037Y-81363373D01*
X199163557Y-81193534D01*
X199163557Y-81193533D01*
X199247221Y-81037011D01*
X199247222Y-81037009D01*
X199276552Y-81001271D01*
X199359814Y-80899814D01*
X199461271Y-80816552D01*
X199497009Y-80787222D01*
X199514913Y-80777652D01*
X199653533Y-80703557D01*
X199710147Y-80686384D01*
X199823373Y-80652037D01*
X199889557Y-80645519D01*
X199955740Y-80639000D01*
X200044260Y-80639000D01*
X200110443Y-80645519D01*
X200110443Y-80645519D01*
G37*
G36*
X200901000Y-79901000D02*
X199099000Y-79901000D01*
X199099000Y-78099000D01*
X200901000Y-78099000D01*
X200901000Y-79901000D01*
X200901000Y-79901000D01*
G37*
G36*
X224901000Y-79901000D02*
X223099000Y-79901000D01*
X223099000Y-78099000D01*
X224901000Y-78099000D01*
X224901000Y-79901000D01*
X224901000Y-79901000D01*
G37*
G36*
X224110443Y-73265519D02*
X224176627Y-73272037D01*
X224272105Y-73301000D01*
X224346467Y-73323557D01*
X224485087Y-73397652D01*
X224502991Y-73407222D01*
X224538729Y-73436552D01*
X224640186Y-73519814D01*
X224723448Y-73621271D01*
X224752778Y-73657009D01*
X224752779Y-73657011D01*
X224836443Y-73813533D01*
X224836443Y-73813534D01*
X224887963Y-73983373D01*
X224905359Y-74160000D01*
X224887963Y-74336627D01*
X224853616Y-74449853D01*
X224836443Y-74506467D01*
X224762348Y-74645087D01*
X224752778Y-74662991D01*
X224723448Y-74698729D01*
X224640186Y-74800186D01*
X224538729Y-74883448D01*
X224502991Y-74912778D01*
X224502989Y-74912779D01*
X224346467Y-74996443D01*
X224289853Y-75013616D01*
X224176627Y-75047963D01*
X224110443Y-75054481D01*
X224044260Y-75061000D01*
X223955740Y-75061000D01*
X223889557Y-75054481D01*
X223823373Y-75047963D01*
X223710147Y-75013616D01*
X223653533Y-74996443D01*
X223497011Y-74912779D01*
X223497009Y-74912778D01*
X223461271Y-74883448D01*
X223359814Y-74800186D01*
X223276552Y-74698729D01*
X223247222Y-74662991D01*
X223237652Y-74645087D01*
X223163557Y-74506467D01*
X223146384Y-74449853D01*
X223112037Y-74336627D01*
X223094641Y-74160000D01*
X223112037Y-73983373D01*
X223163557Y-73813534D01*
X223163557Y-73813533D01*
X223247221Y-73657011D01*
X223247222Y-73657009D01*
X223276552Y-73621271D01*
X223359814Y-73519814D01*
X223461271Y-73436552D01*
X223497009Y-73407222D01*
X223514913Y-73397652D01*
X223653533Y-73323557D01*
X223727895Y-73301000D01*
X223823373Y-73272037D01*
X223889557Y-73265519D01*
X223955740Y-73259000D01*
X224044260Y-73259000D01*
X224110443Y-73265519D01*
X224110443Y-73265519D01*
G37*
G36*
X200110443Y-73265519D02*
X200176627Y-73272037D01*
X200272105Y-73301000D01*
X200346467Y-73323557D01*
X200485087Y-73397652D01*
X200502991Y-73407222D01*
X200538729Y-73436552D01*
X200640186Y-73519814D01*
X200723448Y-73621271D01*
X200752778Y-73657009D01*
X200752779Y-73657011D01*
X200836443Y-73813533D01*
X200836443Y-73813534D01*
X200887963Y-73983373D01*
X200905359Y-74160000D01*
X200887963Y-74336627D01*
X200853616Y-74449853D01*
X200836443Y-74506467D01*
X200762348Y-74645087D01*
X200752778Y-74662991D01*
X200723448Y-74698729D01*
X200640186Y-74800186D01*
X200538729Y-74883448D01*
X200502991Y-74912778D01*
X200502989Y-74912779D01*
X200346467Y-74996443D01*
X200289853Y-75013616D01*
X200176627Y-75047963D01*
X200110443Y-75054481D01*
X200044260Y-75061000D01*
X199955740Y-75061000D01*
X199889557Y-75054481D01*
X199823373Y-75047963D01*
X199710147Y-75013616D01*
X199653533Y-74996443D01*
X199497011Y-74912779D01*
X199497009Y-74912778D01*
X199461271Y-74883448D01*
X199359814Y-74800186D01*
X199276552Y-74698729D01*
X199247222Y-74662991D01*
X199237652Y-74645087D01*
X199163557Y-74506467D01*
X199146384Y-74449853D01*
X199112037Y-74336627D01*
X199094641Y-74160000D01*
X199112037Y-73983373D01*
X199163557Y-73813534D01*
X199163557Y-73813533D01*
X199247221Y-73657011D01*
X199247222Y-73657009D01*
X199276552Y-73621271D01*
X199359814Y-73519814D01*
X199461271Y-73436552D01*
X199497009Y-73407222D01*
X199514913Y-73397652D01*
X199653533Y-73323557D01*
X199727895Y-73301000D01*
X199823373Y-73272037D01*
X199889557Y-73265519D01*
X199955740Y-73259000D01*
X200044260Y-73259000D01*
X200110443Y-73265519D01*
X200110443Y-73265519D01*
G37*
G36*
X202087796Y-72710567D02*
X202142578Y-72733258D01*
X202191879Y-72766200D01*
X202233800Y-72808121D01*
X202266742Y-72857422D01*
X202289433Y-72912204D01*
X202301000Y-72970353D01*
X202301000Y-73029647D01*
X202289433Y-73087796D01*
X202266742Y-73142578D01*
X202233800Y-73191879D01*
X202191879Y-73233800D01*
X202142578Y-73266742D01*
X202087796Y-73289433D01*
X202029647Y-73301000D01*
X201970353Y-73301000D01*
X201912204Y-73289433D01*
X201857422Y-73266742D01*
X201808121Y-73233800D01*
X201766200Y-73191879D01*
X201733258Y-73142578D01*
X201710567Y-73087796D01*
X201699000Y-73029647D01*
X201699000Y-72970353D01*
X201710567Y-72912204D01*
X201733258Y-72857422D01*
X201766200Y-72808121D01*
X201808121Y-72766200D01*
X201857422Y-72733258D01*
X201912204Y-72710567D01*
X201970353Y-72699000D01*
X202029647Y-72699000D01*
X202087796Y-72710567D01*
X202087796Y-72710567D01*
G37*
G36*
X204087796Y-72710567D02*
X204142578Y-72733258D01*
X204191879Y-72766200D01*
X204233800Y-72808121D01*
X204266742Y-72857422D01*
X204289433Y-72912204D01*
X204301000Y-72970353D01*
X204301000Y-73029647D01*
X204289433Y-73087796D01*
X204266742Y-73142578D01*
X204233800Y-73191879D01*
X204191879Y-73233800D01*
X204142578Y-73266742D01*
X204087796Y-73289433D01*
X204029647Y-73301000D01*
X203970353Y-73301000D01*
X203912204Y-73289433D01*
X203857422Y-73266742D01*
X203808121Y-73233800D01*
X203766200Y-73191879D01*
X203733258Y-73142578D01*
X203710567Y-73087796D01*
X203699000Y-73029647D01*
X203699000Y-72970353D01*
X203710567Y-72912204D01*
X203733258Y-72857422D01*
X203766200Y-72808121D01*
X203808121Y-72766200D01*
X203857422Y-72733258D01*
X203912204Y-72710567D01*
X203970353Y-72699000D01*
X204029647Y-72699000D01*
X204087796Y-72710567D01*
X204087796Y-72710567D01*
G37*
G36*
X224110442Y-70725518D02*
X224176627Y-70732037D01*
X224289241Y-70766198D01*
X224346467Y-70783557D01*
X224484657Y-70857422D01*
X224502991Y-70867222D01*
X224538729Y-70896552D01*
X224640186Y-70979814D01*
X224723448Y-71081271D01*
X224752778Y-71117009D01*
X224752779Y-71117011D01*
X224836443Y-71273533D01*
X224836443Y-71273534D01*
X224887963Y-71443373D01*
X224905359Y-71620000D01*
X224887963Y-71796627D01*
X224853616Y-71909853D01*
X224836443Y-71966467D01*
X224802672Y-72029647D01*
X224752778Y-72122991D01*
X224736704Y-72142577D01*
X224640186Y-72260186D01*
X224538729Y-72343448D01*
X224502991Y-72372778D01*
X224502989Y-72372779D01*
X224346467Y-72456443D01*
X224289853Y-72473616D01*
X224176627Y-72507963D01*
X224110442Y-72514482D01*
X224044260Y-72521000D01*
X223955740Y-72521000D01*
X223889558Y-72514482D01*
X223823373Y-72507963D01*
X223710147Y-72473616D01*
X223653533Y-72456443D01*
X223497011Y-72372779D01*
X223497009Y-72372778D01*
X223461271Y-72343448D01*
X223359814Y-72260186D01*
X223263296Y-72142577D01*
X223247222Y-72122991D01*
X223197328Y-72029647D01*
X223163557Y-71966467D01*
X223146384Y-71909853D01*
X223112037Y-71796627D01*
X223094641Y-71620000D01*
X223112037Y-71443373D01*
X223163557Y-71273534D01*
X223163557Y-71273533D01*
X223247221Y-71117011D01*
X223247222Y-71117009D01*
X223276552Y-71081271D01*
X223359814Y-70979814D01*
X223461271Y-70896552D01*
X223497009Y-70867222D01*
X223515343Y-70857422D01*
X223653533Y-70783557D01*
X223710759Y-70766198D01*
X223823373Y-70732037D01*
X223889558Y-70725518D01*
X223955740Y-70719000D01*
X224044260Y-70719000D01*
X224110442Y-70725518D01*
X224110442Y-70725518D01*
G37*
G36*
X200110442Y-70725518D02*
X200176627Y-70732037D01*
X200289241Y-70766198D01*
X200346467Y-70783557D01*
X200484657Y-70857422D01*
X200502991Y-70867222D01*
X200538729Y-70896552D01*
X200640186Y-70979814D01*
X200723448Y-71081271D01*
X200752778Y-71117009D01*
X200752779Y-71117011D01*
X200836443Y-71273533D01*
X200836443Y-71273534D01*
X200887963Y-71443373D01*
X200905359Y-71620000D01*
X200887963Y-71796627D01*
X200853616Y-71909853D01*
X200836443Y-71966467D01*
X200802672Y-72029647D01*
X200752778Y-72122991D01*
X200736704Y-72142577D01*
X200640186Y-72260186D01*
X200538729Y-72343448D01*
X200502991Y-72372778D01*
X200502989Y-72372779D01*
X200346467Y-72456443D01*
X200289853Y-72473616D01*
X200176627Y-72507963D01*
X200110442Y-72514482D01*
X200044260Y-72521000D01*
X199955740Y-72521000D01*
X199889558Y-72514482D01*
X199823373Y-72507963D01*
X199710147Y-72473616D01*
X199653533Y-72456443D01*
X199497011Y-72372779D01*
X199497009Y-72372778D01*
X199461271Y-72343448D01*
X199359814Y-72260186D01*
X199263296Y-72142577D01*
X199247222Y-72122991D01*
X199197328Y-72029647D01*
X199163557Y-71966467D01*
X199146384Y-71909853D01*
X199112037Y-71796627D01*
X199094641Y-71620000D01*
X199112037Y-71443373D01*
X199163557Y-71273534D01*
X199163557Y-71273533D01*
X199247221Y-71117011D01*
X199247222Y-71117009D01*
X199276552Y-71081271D01*
X199359814Y-70979814D01*
X199461271Y-70896552D01*
X199497009Y-70867222D01*
X199515343Y-70857422D01*
X199653533Y-70783557D01*
X199710759Y-70766198D01*
X199823373Y-70732037D01*
X199889558Y-70725518D01*
X199955740Y-70719000D01*
X200044260Y-70719000D01*
X200110442Y-70725518D01*
X200110442Y-70725518D01*
G37*
G36*
X202087796Y-71710567D02*
X202142578Y-71733258D01*
X202191879Y-71766200D01*
X202233800Y-71808121D01*
X202266742Y-71857422D01*
X202289433Y-71912204D01*
X202301000Y-71970353D01*
X202301000Y-72029647D01*
X202289433Y-72087796D01*
X202266742Y-72142578D01*
X202233800Y-72191879D01*
X202191879Y-72233800D01*
X202142578Y-72266742D01*
X202087796Y-72289433D01*
X202029647Y-72301000D01*
X201970353Y-72301000D01*
X201912204Y-72289433D01*
X201857422Y-72266742D01*
X201808121Y-72233800D01*
X201766200Y-72191879D01*
X201733258Y-72142578D01*
X201710567Y-72087796D01*
X201699000Y-72029647D01*
X201699000Y-71970353D01*
X201710567Y-71912204D01*
X201733258Y-71857422D01*
X201766200Y-71808121D01*
X201808121Y-71766200D01*
X201857422Y-71733258D01*
X201912204Y-71710567D01*
X201970353Y-71699000D01*
X202029647Y-71699000D01*
X202087796Y-71710567D01*
X202087796Y-71710567D01*
G37*
G36*
X204087796Y-71710567D02*
X204142578Y-71733258D01*
X204191879Y-71766200D01*
X204233800Y-71808121D01*
X204266742Y-71857422D01*
X204289433Y-71912204D01*
X204301000Y-71970353D01*
X204301000Y-72029647D01*
X204289433Y-72087796D01*
X204266742Y-72142578D01*
X204233800Y-72191879D01*
X204191879Y-72233800D01*
X204142578Y-72266742D01*
X204087796Y-72289433D01*
X204029647Y-72301000D01*
X203970353Y-72301000D01*
X203912204Y-72289433D01*
X203857422Y-72266742D01*
X203808121Y-72233800D01*
X203766200Y-72191879D01*
X203733258Y-72142578D01*
X203710567Y-72087796D01*
X203699000Y-72029647D01*
X203699000Y-71970353D01*
X203710567Y-71912204D01*
X203733258Y-71857422D01*
X203766200Y-71808121D01*
X203808121Y-71766200D01*
X203857422Y-71733258D01*
X203912204Y-71710567D01*
X203970353Y-71699000D01*
X204029647Y-71699000D01*
X204087796Y-71710567D01*
X204087796Y-71710567D01*
G37*
G36*
X204087796Y-70710567D02*
X204142578Y-70733258D01*
X204191879Y-70766200D01*
X204233800Y-70808121D01*
X204266742Y-70857422D01*
X204289433Y-70912204D01*
X204301000Y-70970353D01*
X204301000Y-71029647D01*
X204289433Y-71087796D01*
X204266742Y-71142578D01*
X204233800Y-71191879D01*
X204191879Y-71233800D01*
X204142578Y-71266742D01*
X204087796Y-71289433D01*
X204029647Y-71301000D01*
X203970353Y-71301000D01*
X203912204Y-71289433D01*
X203857422Y-71266742D01*
X203808121Y-71233800D01*
X203766200Y-71191879D01*
X203733258Y-71142578D01*
X203710567Y-71087796D01*
X203699000Y-71029647D01*
X203699000Y-70970353D01*
X203710567Y-70912204D01*
X203733258Y-70857422D01*
X203766200Y-70808121D01*
X203808121Y-70766200D01*
X203857422Y-70733258D01*
X203912204Y-70710567D01*
X203970353Y-70699000D01*
X204029647Y-70699000D01*
X204087796Y-70710567D01*
X204087796Y-70710567D01*
G37*
G36*
X202087796Y-70710567D02*
X202142578Y-70733258D01*
X202191879Y-70766200D01*
X202233800Y-70808121D01*
X202266742Y-70857422D01*
X202289433Y-70912204D01*
X202301000Y-70970353D01*
X202301000Y-71029647D01*
X202289433Y-71087796D01*
X202266742Y-71142578D01*
X202233800Y-71191879D01*
X202191879Y-71233800D01*
X202142578Y-71266742D01*
X202087796Y-71289433D01*
X202029647Y-71301000D01*
X201970353Y-71301000D01*
X201912204Y-71289433D01*
X201857422Y-71266742D01*
X201808121Y-71233800D01*
X201766200Y-71191879D01*
X201733258Y-71142578D01*
X201710567Y-71087796D01*
X201699000Y-71029647D01*
X201699000Y-70970353D01*
X201710567Y-70912204D01*
X201733258Y-70857422D01*
X201766200Y-70808121D01*
X201808121Y-70766200D01*
X201857422Y-70733258D01*
X201912204Y-70710567D01*
X201970353Y-70699000D01*
X202029647Y-70699000D01*
X202087796Y-70710567D01*
X202087796Y-70710567D01*
G37*
G36*
X204087796Y-69710567D02*
X204142578Y-69733258D01*
X204191879Y-69766200D01*
X204233800Y-69808121D01*
X204266742Y-69857422D01*
X204289433Y-69912204D01*
X204301000Y-69970353D01*
X204301000Y-70029647D01*
X204289433Y-70087796D01*
X204266742Y-70142578D01*
X204233800Y-70191879D01*
X204191879Y-70233800D01*
X204142578Y-70266742D01*
X204087796Y-70289433D01*
X204029647Y-70301000D01*
X203970353Y-70301000D01*
X203912204Y-70289433D01*
X203857422Y-70266742D01*
X203808121Y-70233800D01*
X203766200Y-70191879D01*
X203733258Y-70142578D01*
X203710567Y-70087796D01*
X203699000Y-70029647D01*
X203699000Y-69970353D01*
X203710567Y-69912204D01*
X203733258Y-69857422D01*
X203766200Y-69808121D01*
X203808121Y-69766200D01*
X203857422Y-69733258D01*
X203912204Y-69710567D01*
X203970353Y-69699000D01*
X204029647Y-69699000D01*
X204087796Y-69710567D01*
X204087796Y-69710567D01*
G37*
G36*
X202087796Y-69710567D02*
X202142578Y-69733258D01*
X202191879Y-69766200D01*
X202233800Y-69808121D01*
X202266742Y-69857422D01*
X202289433Y-69912204D01*
X202301000Y-69970353D01*
X202301000Y-70029647D01*
X202289433Y-70087796D01*
X202266742Y-70142578D01*
X202233800Y-70191879D01*
X202191879Y-70233800D01*
X202142578Y-70266742D01*
X202087796Y-70289433D01*
X202029647Y-70301000D01*
X201970353Y-70301000D01*
X201912204Y-70289433D01*
X201857422Y-70266742D01*
X201808121Y-70233800D01*
X201766200Y-70191879D01*
X201733258Y-70142578D01*
X201710567Y-70087796D01*
X201699000Y-70029647D01*
X201699000Y-69970353D01*
X201710567Y-69912204D01*
X201733258Y-69857422D01*
X201766200Y-69808121D01*
X201808121Y-69766200D01*
X201857422Y-69733258D01*
X201912204Y-69710567D01*
X201970353Y-69699000D01*
X202029647Y-69699000D01*
X202087796Y-69710567D01*
X202087796Y-69710567D01*
G37*
G36*
X224110443Y-68185519D02*
X224176627Y-68192037D01*
X224289853Y-68226384D01*
X224346467Y-68243557D01*
X224485087Y-68317652D01*
X224502991Y-68327222D01*
X224538729Y-68356552D01*
X224640186Y-68439814D01*
X224723448Y-68541271D01*
X224752778Y-68577009D01*
X224752779Y-68577011D01*
X224836443Y-68733533D01*
X224846352Y-68766200D01*
X224887963Y-68903373D01*
X224905359Y-69080000D01*
X224887963Y-69256627D01*
X224853616Y-69369853D01*
X224836443Y-69426467D01*
X224762348Y-69565087D01*
X224752778Y-69582991D01*
X224723448Y-69618729D01*
X224640186Y-69720186D01*
X224538729Y-69803448D01*
X224502991Y-69832778D01*
X224502989Y-69832779D01*
X224346467Y-69916443D01*
X224289853Y-69933616D01*
X224176627Y-69967963D01*
X224110442Y-69974482D01*
X224044260Y-69981000D01*
X223955740Y-69981000D01*
X223889558Y-69974482D01*
X223823373Y-69967963D01*
X223710147Y-69933616D01*
X223653533Y-69916443D01*
X223497011Y-69832779D01*
X223497009Y-69832778D01*
X223461271Y-69803448D01*
X223359814Y-69720186D01*
X223276552Y-69618729D01*
X223247222Y-69582991D01*
X223237652Y-69565087D01*
X223163557Y-69426467D01*
X223146384Y-69369853D01*
X223112037Y-69256627D01*
X223094641Y-69080000D01*
X223112037Y-68903373D01*
X223153648Y-68766200D01*
X223163557Y-68733533D01*
X223247221Y-68577011D01*
X223247222Y-68577009D01*
X223276552Y-68541271D01*
X223359814Y-68439814D01*
X223461271Y-68356552D01*
X223497009Y-68327222D01*
X223514913Y-68317652D01*
X223653533Y-68243557D01*
X223710147Y-68226384D01*
X223823373Y-68192037D01*
X223889557Y-68185519D01*
X223955740Y-68179000D01*
X224044260Y-68179000D01*
X224110443Y-68185519D01*
X224110443Y-68185519D01*
G37*
G36*
X200110443Y-68185519D02*
X200176627Y-68192037D01*
X200289853Y-68226384D01*
X200346467Y-68243557D01*
X200485087Y-68317652D01*
X200502991Y-68327222D01*
X200538729Y-68356552D01*
X200640186Y-68439814D01*
X200723448Y-68541271D01*
X200752778Y-68577009D01*
X200752779Y-68577011D01*
X200836443Y-68733533D01*
X200846352Y-68766200D01*
X200887963Y-68903373D01*
X200905359Y-69080000D01*
X200887963Y-69256627D01*
X200853616Y-69369853D01*
X200836443Y-69426467D01*
X200762348Y-69565087D01*
X200752778Y-69582991D01*
X200723448Y-69618729D01*
X200640186Y-69720186D01*
X200538729Y-69803448D01*
X200502991Y-69832778D01*
X200502989Y-69832779D01*
X200346467Y-69916443D01*
X200289853Y-69933616D01*
X200176627Y-69967963D01*
X200110442Y-69974482D01*
X200044260Y-69981000D01*
X199955740Y-69981000D01*
X199889558Y-69974482D01*
X199823373Y-69967963D01*
X199710147Y-69933616D01*
X199653533Y-69916443D01*
X199497011Y-69832779D01*
X199497009Y-69832778D01*
X199461271Y-69803448D01*
X199359814Y-69720186D01*
X199276552Y-69618729D01*
X199247222Y-69582991D01*
X199237652Y-69565087D01*
X199163557Y-69426467D01*
X199146384Y-69369853D01*
X199112037Y-69256627D01*
X199094641Y-69080000D01*
X199112037Y-68903373D01*
X199153648Y-68766200D01*
X199163557Y-68733533D01*
X199247221Y-68577011D01*
X199247222Y-68577009D01*
X199276552Y-68541271D01*
X199359814Y-68439814D01*
X199461271Y-68356552D01*
X199497009Y-68327222D01*
X199514913Y-68317652D01*
X199653533Y-68243557D01*
X199710147Y-68226384D01*
X199823373Y-68192037D01*
X199889557Y-68185519D01*
X199955740Y-68179000D01*
X200044260Y-68179000D01*
X200110443Y-68185519D01*
X200110443Y-68185519D01*
G37*
G36*
X202087796Y-68710567D02*
X202142578Y-68733258D01*
X202191879Y-68766200D01*
X202233800Y-68808121D01*
X202266742Y-68857422D01*
X202289433Y-68912204D01*
X202301000Y-68970353D01*
X202301000Y-69029647D01*
X202289433Y-69087796D01*
X202266742Y-69142578D01*
X202233800Y-69191879D01*
X202191879Y-69233800D01*
X202142578Y-69266742D01*
X202087796Y-69289433D01*
X202029647Y-69301000D01*
X201970353Y-69301000D01*
X201912204Y-69289433D01*
X201857422Y-69266742D01*
X201808121Y-69233800D01*
X201766200Y-69191879D01*
X201733258Y-69142578D01*
X201710567Y-69087796D01*
X201699000Y-69029647D01*
X201699000Y-68970353D01*
X201710567Y-68912204D01*
X201733258Y-68857422D01*
X201766200Y-68808121D01*
X201808121Y-68766200D01*
X201857422Y-68733258D01*
X201912204Y-68710567D01*
X201970353Y-68699000D01*
X202029647Y-68699000D01*
X202087796Y-68710567D01*
X202087796Y-68710567D01*
G37*
G36*
X204087796Y-68710567D02*
X204142578Y-68733258D01*
X204191879Y-68766200D01*
X204233800Y-68808121D01*
X204266742Y-68857422D01*
X204289433Y-68912204D01*
X204301000Y-68970353D01*
X204301000Y-69029647D01*
X204289433Y-69087796D01*
X204266742Y-69142578D01*
X204233800Y-69191879D01*
X204191879Y-69233800D01*
X204142578Y-69266742D01*
X204087796Y-69289433D01*
X204029647Y-69301000D01*
X203970353Y-69301000D01*
X203912204Y-69289433D01*
X203857422Y-69266742D01*
X203808121Y-69233800D01*
X203766200Y-69191879D01*
X203733258Y-69142578D01*
X203710567Y-69087796D01*
X203699000Y-69029647D01*
X203699000Y-68970353D01*
X203710567Y-68912204D01*
X203733258Y-68857422D01*
X203766200Y-68808121D01*
X203808121Y-68766200D01*
X203857422Y-68733258D01*
X203912204Y-68710567D01*
X203970353Y-68699000D01*
X204029647Y-68699000D01*
X204087796Y-68710567D01*
X204087796Y-68710567D01*
G37*
G36*
X200110442Y-65645518D02*
X200176627Y-65652037D01*
X200289853Y-65686384D01*
X200346467Y-65703557D01*
X200485087Y-65777652D01*
X200502991Y-65787222D01*
X200538729Y-65816552D01*
X200640186Y-65899814D01*
X200723448Y-66001271D01*
X200752778Y-66037009D01*
X200752779Y-66037011D01*
X200836443Y-66193533D01*
X200836443Y-66193534D01*
X200887963Y-66363373D01*
X200905359Y-66540000D01*
X200887963Y-66716627D01*
X200853616Y-66829853D01*
X200836443Y-66886467D01*
X200762348Y-67025087D01*
X200752778Y-67042991D01*
X200723448Y-67078729D01*
X200640186Y-67180186D01*
X200538729Y-67263448D01*
X200502991Y-67292778D01*
X200502989Y-67292779D01*
X200346467Y-67376443D01*
X200289853Y-67393616D01*
X200176627Y-67427963D01*
X200110443Y-67434481D01*
X200044260Y-67441000D01*
X199955740Y-67441000D01*
X199889557Y-67434481D01*
X199823373Y-67427963D01*
X199710147Y-67393616D01*
X199653533Y-67376443D01*
X199497011Y-67292779D01*
X199497009Y-67292778D01*
X199461271Y-67263448D01*
X199359814Y-67180186D01*
X199276552Y-67078729D01*
X199247222Y-67042991D01*
X199237652Y-67025087D01*
X199163557Y-66886467D01*
X199146384Y-66829853D01*
X199112037Y-66716627D01*
X199094641Y-66540000D01*
X199112037Y-66363373D01*
X199163557Y-66193534D01*
X199163557Y-66193533D01*
X199247221Y-66037011D01*
X199247222Y-66037009D01*
X199276552Y-66001271D01*
X199359814Y-65899814D01*
X199461271Y-65816552D01*
X199497009Y-65787222D01*
X199514913Y-65777652D01*
X199653533Y-65703557D01*
X199710147Y-65686384D01*
X199823373Y-65652037D01*
X199889558Y-65645518D01*
X199955740Y-65639000D01*
X200044260Y-65639000D01*
X200110442Y-65645518D01*
X200110442Y-65645518D01*
G37*
G36*
X224110442Y-65645518D02*
X224176627Y-65652037D01*
X224289853Y-65686384D01*
X224346467Y-65703557D01*
X224485087Y-65777652D01*
X224502991Y-65787222D01*
X224538729Y-65816552D01*
X224640186Y-65899814D01*
X224723448Y-66001271D01*
X224752778Y-66037009D01*
X224752779Y-66037011D01*
X224836443Y-66193533D01*
X224836443Y-66193534D01*
X224887963Y-66363373D01*
X224905359Y-66540000D01*
X224887963Y-66716627D01*
X224853616Y-66829853D01*
X224836443Y-66886467D01*
X224762348Y-67025087D01*
X224752778Y-67042991D01*
X224723448Y-67078729D01*
X224640186Y-67180186D01*
X224538729Y-67263448D01*
X224502991Y-67292778D01*
X224502989Y-67292779D01*
X224346467Y-67376443D01*
X224289853Y-67393616D01*
X224176627Y-67427963D01*
X224110443Y-67434481D01*
X224044260Y-67441000D01*
X223955740Y-67441000D01*
X223889557Y-67434481D01*
X223823373Y-67427963D01*
X223710147Y-67393616D01*
X223653533Y-67376443D01*
X223497011Y-67292779D01*
X223497009Y-67292778D01*
X223461271Y-67263448D01*
X223359814Y-67180186D01*
X223276552Y-67078729D01*
X223247222Y-67042991D01*
X223237652Y-67025087D01*
X223163557Y-66886467D01*
X223146384Y-66829853D01*
X223112037Y-66716627D01*
X223094641Y-66540000D01*
X223112037Y-66363373D01*
X223163557Y-66193534D01*
X223163557Y-66193533D01*
X223247221Y-66037011D01*
X223247222Y-66037009D01*
X223276552Y-66001271D01*
X223359814Y-65899814D01*
X223461271Y-65816552D01*
X223497009Y-65787222D01*
X223514913Y-65777652D01*
X223653533Y-65703557D01*
X223710147Y-65686384D01*
X223823373Y-65652037D01*
X223889558Y-65645518D01*
X223955740Y-65639000D01*
X224044260Y-65639000D01*
X224110442Y-65645518D01*
X224110442Y-65645518D01*
G37*
G36*
X200901000Y-64901000D02*
X199099000Y-64901000D01*
X199099000Y-63099000D01*
X200901000Y-63099000D01*
X200901000Y-64901000D01*
X200901000Y-64901000D01*
G37*
G36*
X224901000Y-64901000D02*
X223099000Y-64901000D01*
X223099000Y-63099000D01*
X224901000Y-63099000D01*
X224901000Y-64901000D01*
X224901000Y-64901000D01*
G37*
G36*
X207375256Y-57391298D02*
X207481579Y-57412447D01*
X207782042Y-57536903D01*
X207956592Y-57653534D01*
X208052454Y-57717587D01*
X208282413Y-57947546D01*
X208282415Y-57947549D01*
X208463097Y-58217958D01*
X208581162Y-58502991D01*
X208587553Y-58518422D01*
X208651000Y-58837389D01*
X208651000Y-59162611D01*
X208587553Y-59481578D01*
X208463098Y-59782040D01*
X208282413Y-60052454D01*
X208052454Y-60282413D01*
X208052451Y-60282415D01*
X207782042Y-60463097D01*
X207481579Y-60587553D01*
X207375256Y-60608702D01*
X207162611Y-60651000D01*
X206837389Y-60651000D01*
X206624744Y-60608702D01*
X206518421Y-60587553D01*
X206217958Y-60463097D01*
X205947549Y-60282415D01*
X205947546Y-60282413D01*
X205717587Y-60052454D01*
X205536902Y-59782040D01*
X205412447Y-59481578D01*
X205349000Y-59162611D01*
X205349000Y-58837389D01*
X205412447Y-58518422D01*
X205418839Y-58502991D01*
X205536903Y-58217958D01*
X205717585Y-57947549D01*
X205717587Y-57947546D01*
X205947546Y-57717587D01*
X206043408Y-57653534D01*
X206217958Y-57536903D01*
X206518421Y-57412447D01*
X206624744Y-57391298D01*
X206837389Y-57349000D01*
X207162611Y-57349000D01*
X207375256Y-57391298D01*
X207375256Y-57391298D01*
G37*
G36*
X183375256Y-57391298D02*
X183481579Y-57412447D01*
X183782042Y-57536903D01*
X183956592Y-57653534D01*
X184052454Y-57717587D01*
X184282413Y-57947546D01*
X184282415Y-57947549D01*
X184463097Y-58217958D01*
X184581162Y-58502991D01*
X184587553Y-58518422D01*
X184651000Y-58837389D01*
X184651000Y-59162611D01*
X184587553Y-59481578D01*
X184463098Y-59782040D01*
X184282413Y-60052454D01*
X184052454Y-60282413D01*
X184052451Y-60282415D01*
X183782042Y-60463097D01*
X183481579Y-60587553D01*
X183375256Y-60608702D01*
X183162611Y-60651000D01*
X182837389Y-60651000D01*
X182624744Y-60608702D01*
X182518421Y-60587553D01*
X182217958Y-60463097D01*
X181947549Y-60282415D01*
X181947546Y-60282413D01*
X181717587Y-60052454D01*
X181536902Y-59782040D01*
X181412447Y-59481578D01*
X181349000Y-59162611D01*
X181349000Y-58837389D01*
X181412447Y-58518422D01*
X181418839Y-58502991D01*
X181536903Y-58217958D01*
X181717585Y-57947549D01*
X181717587Y-57947546D01*
X181947546Y-57717587D01*
X182043408Y-57653534D01*
X182217958Y-57536903D01*
X182518421Y-57412447D01*
X182624744Y-57391298D01*
X182837389Y-57349000D01*
X183162611Y-57349000D01*
X183375256Y-57391298D01*
X183375256Y-57391298D01*
G37*
G36*
X188530443Y-57105519D02*
X188596627Y-57112037D01*
X188709853Y-57146384D01*
X188766467Y-57163557D01*
X188905087Y-57237652D01*
X188922991Y-57247222D01*
X188958729Y-57276552D01*
X189060186Y-57359814D01*
X189143448Y-57461271D01*
X189172778Y-57497009D01*
X189172779Y-57497011D01*
X189256443Y-57653533D01*
X189256443Y-57653534D01*
X189307963Y-57823373D01*
X189325359Y-58000000D01*
X189307963Y-58176627D01*
X189273616Y-58289853D01*
X189256443Y-58346467D01*
X189182348Y-58485087D01*
X189172778Y-58502991D01*
X189160114Y-58518422D01*
X189060186Y-58640186D01*
X188958729Y-58723448D01*
X188922991Y-58752778D01*
X188922989Y-58752779D01*
X188766467Y-58836443D01*
X188709853Y-58853616D01*
X188596627Y-58887963D01*
X188530442Y-58894482D01*
X188464260Y-58901000D01*
X188375740Y-58901000D01*
X188309558Y-58894482D01*
X188243373Y-58887963D01*
X188130147Y-58853616D01*
X188073533Y-58836443D01*
X187917011Y-58752779D01*
X187917009Y-58752778D01*
X187881271Y-58723448D01*
X187779814Y-58640186D01*
X187679886Y-58518422D01*
X187667222Y-58502991D01*
X187657652Y-58485087D01*
X187583557Y-58346467D01*
X187566384Y-58289853D01*
X187532037Y-58176627D01*
X187514641Y-58000000D01*
X187532037Y-57823373D01*
X187583557Y-57653534D01*
X187583557Y-57653533D01*
X187667221Y-57497011D01*
X187667222Y-57497009D01*
X187696552Y-57461271D01*
X187779814Y-57359814D01*
X187881271Y-57276552D01*
X187917009Y-57247222D01*
X187934913Y-57237652D01*
X188073533Y-57163557D01*
X188130147Y-57146384D01*
X188243373Y-57112037D01*
X188309557Y-57105519D01*
X188375740Y-57099000D01*
X188464260Y-57099000D01*
X188530443Y-57105519D01*
X188530443Y-57105519D01*
G37*
G36*
X218401000Y-58901000D02*
X216599000Y-58901000D01*
X216599000Y-57099000D01*
X218401000Y-57099000D01*
X218401000Y-58901000D01*
X218401000Y-58901000D01*
G37*
G36*
X215070443Y-57105519D02*
X215136627Y-57112037D01*
X215249853Y-57146384D01*
X215306467Y-57163557D01*
X215445087Y-57237652D01*
X215462991Y-57247222D01*
X215498729Y-57276552D01*
X215600186Y-57359814D01*
X215683448Y-57461271D01*
X215712778Y-57497009D01*
X215712779Y-57497011D01*
X215796443Y-57653533D01*
X215796443Y-57653534D01*
X215847963Y-57823373D01*
X215865359Y-58000000D01*
X215847963Y-58176627D01*
X215813616Y-58289853D01*
X215796443Y-58346467D01*
X215722348Y-58485087D01*
X215712778Y-58502991D01*
X215700114Y-58518422D01*
X215600186Y-58640186D01*
X215498729Y-58723448D01*
X215462991Y-58752778D01*
X215462989Y-58752779D01*
X215306467Y-58836443D01*
X215249853Y-58853616D01*
X215136627Y-58887963D01*
X215070442Y-58894482D01*
X215004260Y-58901000D01*
X214915740Y-58901000D01*
X214849558Y-58894482D01*
X214783373Y-58887963D01*
X214670147Y-58853616D01*
X214613533Y-58836443D01*
X214457011Y-58752779D01*
X214457009Y-58752778D01*
X214421271Y-58723448D01*
X214319814Y-58640186D01*
X214219886Y-58518422D01*
X214207222Y-58502991D01*
X214197652Y-58485087D01*
X214123557Y-58346467D01*
X214106384Y-58289853D01*
X214072037Y-58176627D01*
X214054641Y-58000000D01*
X214072037Y-57823373D01*
X214123557Y-57653534D01*
X214123557Y-57653533D01*
X214207221Y-57497011D01*
X214207222Y-57497009D01*
X214236552Y-57461271D01*
X214319814Y-57359814D01*
X214421271Y-57276552D01*
X214457009Y-57247222D01*
X214474913Y-57237652D01*
X214613533Y-57163557D01*
X214670147Y-57146384D01*
X214783373Y-57112037D01*
X214849557Y-57105519D01*
X214915740Y-57099000D01*
X215004260Y-57099000D01*
X215070443Y-57105519D01*
X215070443Y-57105519D01*
G37*
G36*
X212530443Y-57105519D02*
X212596627Y-57112037D01*
X212709853Y-57146384D01*
X212766467Y-57163557D01*
X212905087Y-57237652D01*
X212922991Y-57247222D01*
X212958729Y-57276552D01*
X213060186Y-57359814D01*
X213143448Y-57461271D01*
X213172778Y-57497009D01*
X213172779Y-57497011D01*
X213256443Y-57653533D01*
X213256443Y-57653534D01*
X213307963Y-57823373D01*
X213325359Y-58000000D01*
X213307963Y-58176627D01*
X213273616Y-58289853D01*
X213256443Y-58346467D01*
X213182348Y-58485087D01*
X213172778Y-58502991D01*
X213160114Y-58518422D01*
X213060186Y-58640186D01*
X212958729Y-58723448D01*
X212922991Y-58752778D01*
X212922989Y-58752779D01*
X212766467Y-58836443D01*
X212709853Y-58853616D01*
X212596627Y-58887963D01*
X212530442Y-58894482D01*
X212464260Y-58901000D01*
X212375740Y-58901000D01*
X212309558Y-58894482D01*
X212243373Y-58887963D01*
X212130147Y-58853616D01*
X212073533Y-58836443D01*
X211917011Y-58752779D01*
X211917009Y-58752778D01*
X211881271Y-58723448D01*
X211779814Y-58640186D01*
X211679886Y-58518422D01*
X211667222Y-58502991D01*
X211657652Y-58485087D01*
X211583557Y-58346467D01*
X211566384Y-58289853D01*
X211532037Y-58176627D01*
X211514641Y-58000000D01*
X211532037Y-57823373D01*
X211583557Y-57653534D01*
X211583557Y-57653533D01*
X211667221Y-57497011D01*
X211667222Y-57497009D01*
X211696552Y-57461271D01*
X211779814Y-57359814D01*
X211881271Y-57276552D01*
X211917009Y-57247222D01*
X211934913Y-57237652D01*
X212073533Y-57163557D01*
X212130147Y-57146384D01*
X212243373Y-57112037D01*
X212309557Y-57105519D01*
X212375740Y-57099000D01*
X212464260Y-57099000D01*
X212530443Y-57105519D01*
X212530443Y-57105519D01*
G37*
G36*
X194401000Y-58901000D02*
X192599000Y-58901000D01*
X192599000Y-57099000D01*
X194401000Y-57099000D01*
X194401000Y-58901000D01*
X194401000Y-58901000D01*
G37*
G36*
X191070443Y-57105519D02*
X191136627Y-57112037D01*
X191249853Y-57146384D01*
X191306467Y-57163557D01*
X191445087Y-57237652D01*
X191462991Y-57247222D01*
X191498729Y-57276552D01*
X191600186Y-57359814D01*
X191683448Y-57461271D01*
X191712778Y-57497009D01*
X191712779Y-57497011D01*
X191796443Y-57653533D01*
X191796443Y-57653534D01*
X191847963Y-57823373D01*
X191865359Y-58000000D01*
X191847963Y-58176627D01*
X191813616Y-58289853D01*
X191796443Y-58346467D01*
X191722348Y-58485087D01*
X191712778Y-58502991D01*
X191700114Y-58518422D01*
X191600186Y-58640186D01*
X191498729Y-58723448D01*
X191462991Y-58752778D01*
X191462989Y-58752779D01*
X191306467Y-58836443D01*
X191249853Y-58853616D01*
X191136627Y-58887963D01*
X191070442Y-58894482D01*
X191004260Y-58901000D01*
X190915740Y-58901000D01*
X190849558Y-58894482D01*
X190783373Y-58887963D01*
X190670147Y-58853616D01*
X190613533Y-58836443D01*
X190457011Y-58752779D01*
X190457009Y-58752778D01*
X190421271Y-58723448D01*
X190319814Y-58640186D01*
X190219886Y-58518422D01*
X190207222Y-58502991D01*
X190197652Y-58485087D01*
X190123557Y-58346467D01*
X190106384Y-58289853D01*
X190072037Y-58176627D01*
X190054641Y-58000000D01*
X190072037Y-57823373D01*
X190123557Y-57653534D01*
X190123557Y-57653533D01*
X190207221Y-57497011D01*
X190207222Y-57497009D01*
X190236552Y-57461271D01*
X190319814Y-57359814D01*
X190421271Y-57276552D01*
X190457009Y-57247222D01*
X190474913Y-57237652D01*
X190613533Y-57163557D01*
X190670147Y-57146384D01*
X190783373Y-57112037D01*
X190849557Y-57105519D01*
X190915740Y-57099000D01*
X191004260Y-57099000D01*
X191070443Y-57105519D01*
X191070443Y-57105519D01*
G37*
M02*
