G04 #@! TF.GenerationSoftware,KiCad,Pcbnew,5.0.2-bee76a0~70~ubuntu18.04.1*
G04 #@! TF.CreationDate,2019-07-19T10:53:47+02:00*
G04 #@! TF.ProjectId,AutoGardener_Outdoor_panel,4175746f-4761-4726-9465-6e65725f4f75,rev?*
G04 #@! TF.SameCoordinates,Original*
G04 #@! TF.FileFunction,Copper,L2,Bot*
G04 #@! TF.FilePolarity,Positive*
%FSLAX46Y46*%
G04 Gerber Fmt 4.6, Leading zero omitted, Abs format (unit mm)*
G04 Created by KiCad (PCBNEW 5.0.2-bee76a0~70~ubuntu18.04.1) date Fri 19 Jul 2019 10:53:47 CEST*
%MOMM*%
%LPD*%
G01*
G04 APERTURE LIST*
G04 #@! TA.AperFunction,ComponentPad*
%ADD10R,1.700000X1.700000*%
G04 #@! TD*
G04 #@! TA.AperFunction,ComponentPad*
%ADD11O,1.700000X1.700000*%
G04 #@! TD*
G04 #@! TA.AperFunction,ViaPad*
%ADD12C,0.800000*%
G04 #@! TD*
G04 #@! TA.AperFunction,Conductor*
%ADD13C,0.300000*%
G04 #@! TD*
G04 #@! TA.AperFunction,Conductor*
%ADD14C,0.500000*%
G04 #@! TD*
G04 #@! TA.AperFunction,NonConductor*
%ADD15C,0.254000*%
G04 #@! TD*
G04 APERTURE END LIST*
D10*
G04 #@! TO.P,J2,1*
G04 #@! TO.N,N/C*
X200000000Y-79000000D03*
D11*
G04 #@! TO.P,J2,2*
X200000000Y-81540000D03*
G04 #@! TO.P,J2,3*
X200000000Y-84080000D03*
G04 #@! TD*
G04 #@! TO.P,BAT1,2*
G04 #@! TO.N,N/C*
X206460000Y-84000000D03*
D10*
G04 #@! TO.P,BAT1,1*
X209000000Y-84000000D03*
G04 #@! TD*
G04 #@! TO.P,BAT1,1*
G04 #@! TO.N,N/C*
X185000000Y-84000000D03*
D11*
G04 #@! TO.P,BAT1,2*
X182460000Y-84000000D03*
G04 #@! TD*
G04 #@! TO.P,J1,5*
G04 #@! TO.N,N/C*
X200000000Y-74160000D03*
G04 #@! TO.P,J1,4*
X200000000Y-71620000D03*
G04 #@! TO.P,J1,3*
X200000000Y-69080000D03*
G04 #@! TO.P,J1,2*
X200000000Y-66540000D03*
D10*
G04 #@! TO.P,J1,1*
X200000000Y-64000000D03*
G04 #@! TD*
G04 #@! TO.P,J4,1*
G04 #@! TO.N,N/C*
X212750000Y-84000000D03*
D11*
G04 #@! TO.P,J4,2*
X215290000Y-84000000D03*
G04 #@! TD*
G04 #@! TO.P,J2,3*
G04 #@! TO.N,N/C*
X224000000Y-84080000D03*
G04 #@! TO.P,J2,2*
X224000000Y-81540000D03*
D10*
G04 #@! TO.P,J2,1*
X224000000Y-79000000D03*
G04 #@! TD*
D11*
G04 #@! TO.P,J3,3*
G04 #@! TO.N,N/C*
X188420000Y-58000000D03*
G04 #@! TO.P,J3,2*
X190960000Y-58000000D03*
D10*
G04 #@! TO.P,J3,1*
X193500000Y-58000000D03*
G04 #@! TD*
G04 #@! TO.P,J3,1*
G04 #@! TO.N,N/C*
X217500000Y-58000000D03*
D11*
G04 #@! TO.P,J3,2*
X214960000Y-58000000D03*
G04 #@! TO.P,J3,3*
X212420000Y-58000000D03*
G04 #@! TD*
D10*
G04 #@! TO.P,J1,1*
G04 #@! TO.N,N/C*
X224000000Y-64000000D03*
D11*
G04 #@! TO.P,J1,2*
X224000000Y-66540000D03*
G04 #@! TO.P,J1,3*
X224000000Y-69080000D03*
G04 #@! TO.P,J1,4*
X224000000Y-71620000D03*
G04 #@! TO.P,J1,5*
X224000000Y-74160000D03*
G04 #@! TD*
G04 #@! TO.P,J4,2*
G04 #@! TO.N,N/C*
X191290000Y-84000000D03*
D10*
G04 #@! TO.P,J4,1*
X188750000Y-84000000D03*
G04 #@! TD*
G04 #@! TO.P,J2,1*
G04 #@! TO.N,N/C*
X200000000Y-111000000D03*
D11*
G04 #@! TO.P,J2,2*
X200000000Y-113540000D03*
G04 #@! TO.P,J2,3*
X200000000Y-116080000D03*
G04 #@! TD*
G04 #@! TO.P,BAT1,2*
G04 #@! TO.N,N/C*
X206460000Y-116000000D03*
D10*
G04 #@! TO.P,BAT1,1*
X209000000Y-116000000D03*
G04 #@! TD*
G04 #@! TO.P,BAT1,1*
G04 #@! TO.N,N/C*
X185000000Y-116000000D03*
D11*
G04 #@! TO.P,BAT1,2*
X182460000Y-116000000D03*
G04 #@! TD*
G04 #@! TO.P,J1,5*
G04 #@! TO.N,N/C*
X200000000Y-106160000D03*
G04 #@! TO.P,J1,4*
X200000000Y-103620000D03*
G04 #@! TO.P,J1,3*
X200000000Y-101080000D03*
G04 #@! TO.P,J1,2*
X200000000Y-98540000D03*
D10*
G04 #@! TO.P,J1,1*
X200000000Y-96000000D03*
G04 #@! TD*
G04 #@! TO.P,J4,1*
G04 #@! TO.N,N/C*
X212750000Y-116000000D03*
D11*
G04 #@! TO.P,J4,2*
X215290000Y-116000000D03*
G04 #@! TD*
G04 #@! TO.P,J2,3*
G04 #@! TO.N,N/C*
X224000000Y-116080000D03*
G04 #@! TO.P,J2,2*
X224000000Y-113540000D03*
D10*
G04 #@! TO.P,J2,1*
X224000000Y-111000000D03*
G04 #@! TD*
D11*
G04 #@! TO.P,J3,3*
G04 #@! TO.N,N/C*
X188420000Y-90000000D03*
G04 #@! TO.P,J3,2*
X190960000Y-90000000D03*
D10*
G04 #@! TO.P,J3,1*
X193500000Y-90000000D03*
G04 #@! TD*
G04 #@! TO.P,J3,1*
G04 #@! TO.N,N/C*
X217500000Y-90000000D03*
D11*
G04 #@! TO.P,J3,2*
X214960000Y-90000000D03*
G04 #@! TO.P,J3,3*
X212420000Y-90000000D03*
G04 #@! TD*
D10*
G04 #@! TO.P,J1,1*
G04 #@! TO.N,N/C*
X224000000Y-96000000D03*
D11*
G04 #@! TO.P,J1,2*
X224000000Y-98540000D03*
G04 #@! TO.P,J1,3*
X224000000Y-101080000D03*
G04 #@! TO.P,J1,4*
X224000000Y-103620000D03*
G04 #@! TO.P,J1,5*
X224000000Y-106160000D03*
G04 #@! TD*
G04 #@! TO.P,J4,2*
G04 #@! TO.N,N/C*
X191290000Y-116000000D03*
D10*
G04 #@! TO.P,J4,1*
X188750000Y-116000000D03*
G04 #@! TD*
D12*
G04 #@! TO.N,*
X208037500Y-101062500D03*
X210500000Y-94500000D03*
X219000000Y-109500000D03*
X221000000Y-98600000D03*
X209000000Y-89000000D03*
X224000000Y-90000000D03*
X205000000Y-110000000D03*
X215000000Y-105000000D03*
X211000000Y-114000000D03*
X205000000Y-115000000D03*
X212600000Y-97100000D03*
X217000000Y-113000000D03*
X217000000Y-100000000D03*
X213100000Y-101100000D03*
X217000000Y-115000000D03*
X220500000Y-112000000D03*
X220300004Y-101900000D03*
X215500000Y-97500000D03*
X210000000Y-105500000D03*
X216500000Y-93000000D03*
X217100000Y-98600000D03*
X205000000Y-100000000D03*
X205000000Y-89000000D03*
X211000000Y-112000000D03*
X214000000Y-93000000D03*
X205000000Y-94000000D03*
X205000000Y-105000000D03*
X214000000Y-99500000D03*
X220000000Y-90000000D03*
X222000000Y-91000000D03*
X207000000Y-94500000D03*
X219000000Y-92000000D03*
X187000000Y-112000000D03*
X200000000Y-90000000D03*
X186000000Y-105500000D03*
X195000000Y-92000000D03*
X191500000Y-97500000D03*
X196000000Y-90000000D03*
X196500000Y-112000000D03*
X193000000Y-115000000D03*
X198000000Y-91000000D03*
X193000000Y-100000000D03*
X186500000Y-94500000D03*
X191000000Y-105000000D03*
X183000000Y-94500000D03*
X181000000Y-105000000D03*
X193000000Y-113000000D03*
X187000000Y-114000000D03*
X195000000Y-109500000D03*
X192500000Y-93000000D03*
X190000000Y-93000000D03*
X185000000Y-89000000D03*
X190000000Y-99500000D03*
X181000000Y-115000000D03*
X181000000Y-94000000D03*
X181000000Y-89000000D03*
X181000000Y-110000000D03*
X181000000Y-100000000D03*
X197000000Y-98600000D03*
X193100000Y-98600000D03*
X189100000Y-101100000D03*
X184037500Y-101062500D03*
X196300004Y-101900000D03*
X188600000Y-97100000D03*
X208037500Y-69062500D03*
X210500000Y-62500000D03*
X219000000Y-77500000D03*
X221000000Y-66600000D03*
X209000000Y-57000000D03*
X224000000Y-58000000D03*
X205000000Y-78000000D03*
X215000000Y-73000000D03*
X211000000Y-82000000D03*
X205000000Y-83000000D03*
X212600000Y-65100000D03*
X217000000Y-81000000D03*
X217000000Y-68000000D03*
X213100000Y-69100000D03*
X217000000Y-83000000D03*
X220500000Y-80000000D03*
X220300004Y-69900000D03*
X215500000Y-65500000D03*
X210000000Y-73500000D03*
X216500000Y-61000000D03*
X217100000Y-66600000D03*
X205000000Y-68000000D03*
X205000000Y-57000000D03*
X211000000Y-80000000D03*
X214000000Y-61000000D03*
X205000000Y-62000000D03*
X205000000Y-73000000D03*
X214000000Y-67500000D03*
X220000000Y-58000000D03*
X222000000Y-59000000D03*
X207000000Y-62500000D03*
X219000000Y-60000000D03*
X187000000Y-80000000D03*
X200000000Y-58000000D03*
X186000000Y-73500000D03*
X195000000Y-60000000D03*
X191500000Y-65500000D03*
X196000000Y-58000000D03*
X196500000Y-80000000D03*
X193000000Y-83000000D03*
X198000000Y-59000000D03*
X193000000Y-68000000D03*
X186500000Y-62500000D03*
X191000000Y-73000000D03*
X183000000Y-62500000D03*
X181000000Y-73000000D03*
X193000000Y-81000000D03*
X187000000Y-82000000D03*
X195000000Y-77500000D03*
X192500000Y-61000000D03*
X190000000Y-61000000D03*
X185000000Y-57000000D03*
X190000000Y-67500000D03*
X181000000Y-83000000D03*
X181000000Y-62000000D03*
X181000000Y-57000000D03*
X181000000Y-78000000D03*
X181000000Y-68000000D03*
X197000000Y-66600000D03*
X193100000Y-66600000D03*
X189100000Y-69100000D03*
X184037500Y-69062500D03*
X196300004Y-69900000D03*
X188600000Y-65100000D03*
G04 #@! TD*
D13*
G04 #@! TO.N,*
X224000000Y-96000000D02*
X222500000Y-97500000D01*
D14*
X213100000Y-101100000D02*
X213100000Y-101100000D01*
D13*
X220700003Y-101500001D02*
X220300004Y-101900000D01*
X212420000Y-90000000D02*
X212600000Y-90180000D01*
D14*
X213100000Y-101100000D02*
X208075000Y-101100000D01*
D13*
X222500000Y-97500000D02*
X222500000Y-99700004D01*
D14*
X208075000Y-101100000D02*
X208037500Y-101062500D01*
D13*
X222500000Y-99700004D02*
X220700003Y-101500001D01*
X212600000Y-90180000D02*
X212600000Y-97100000D01*
X221000000Y-98600000D02*
X217100000Y-98600000D01*
X197000000Y-98600000D02*
X193100000Y-98600000D01*
X198500000Y-97500000D02*
X198500000Y-99700004D01*
X198500000Y-99700004D02*
X196700003Y-101500001D01*
D14*
X189100000Y-101100000D02*
X184075000Y-101100000D01*
D13*
X196700003Y-101500001D02*
X196300004Y-101900000D01*
X200000000Y-96000000D02*
X198500000Y-97500000D01*
D14*
X189100000Y-101100000D02*
X189100000Y-101100000D01*
X184075000Y-101100000D02*
X184037500Y-101062500D01*
D13*
X188420000Y-90000000D02*
X188600000Y-90180000D01*
X188600000Y-90180000D02*
X188600000Y-97100000D01*
X224000000Y-64000000D02*
X222500000Y-65500000D01*
D14*
X213100000Y-69100000D02*
X213100000Y-69100000D01*
D13*
X220700003Y-69500001D02*
X220300004Y-69900000D01*
X212420000Y-58000000D02*
X212600000Y-58180000D01*
D14*
X213100000Y-69100000D02*
X208075000Y-69100000D01*
D13*
X222500000Y-65500000D02*
X222500000Y-67700004D01*
D14*
X208075000Y-69100000D02*
X208037500Y-69062500D01*
D13*
X222500000Y-67700004D02*
X220700003Y-69500001D01*
X212600000Y-58180000D02*
X212600000Y-65100000D01*
X221000000Y-66600000D02*
X217100000Y-66600000D01*
X197000000Y-66600000D02*
X193100000Y-66600000D01*
X198500000Y-65500000D02*
X198500000Y-67700004D01*
X198500000Y-67700004D02*
X196700003Y-69500001D01*
D14*
X189100000Y-69100000D02*
X184075000Y-69100000D01*
D13*
X196700003Y-69500001D02*
X196300004Y-69900000D01*
X200000000Y-64000000D02*
X198500000Y-65500000D01*
D14*
X189100000Y-69100000D02*
X189100000Y-69100000D01*
X184075000Y-69100000D02*
X184037500Y-69062500D01*
D13*
X188420000Y-58000000D02*
X188600000Y-58180000D01*
X188600000Y-58180000D02*
X188600000Y-65100000D01*
G04 #@! TD*
D15*
G36*
X187355142Y-88935142D02*
X187028697Y-89423703D01*
X186914064Y-90000000D01*
X187028697Y-90576297D01*
X187355142Y-91064858D01*
X187823000Y-91377470D01*
X187823001Y-96424602D01*
X187729352Y-96518251D01*
X187573000Y-96895717D01*
X187573000Y-97304283D01*
X187729352Y-97681749D01*
X188018251Y-97970648D01*
X188395717Y-98127000D01*
X188804283Y-98127000D01*
X189181749Y-97970648D01*
X189470648Y-97681749D01*
X189627000Y-97304283D01*
X189627000Y-96895717D01*
X189470648Y-96518251D01*
X189377000Y-96424603D01*
X189377000Y-91136926D01*
X189484858Y-91064858D01*
X189690000Y-90757840D01*
X189895142Y-91064858D01*
X190383703Y-91391303D01*
X190814529Y-91477000D01*
X191105471Y-91477000D01*
X191536297Y-91391303D01*
X192024858Y-91064858D01*
X192046895Y-91031877D01*
X192059380Y-91094643D01*
X192197959Y-91302041D01*
X192405357Y-91440620D01*
X192650000Y-91489283D01*
X194350000Y-91489283D01*
X194594643Y-91440620D01*
X194802041Y-91302041D01*
X194940620Y-91094643D01*
X194989283Y-90850000D01*
X194989283Y-89150000D01*
X194940620Y-88905357D01*
X194804741Y-88702000D01*
X200930861Y-88702000D01*
X201108776Y-88737389D01*
X201200993Y-88799007D01*
X201262611Y-88891224D01*
X201298000Y-89069139D01*
X201298000Y-94695259D01*
X201094643Y-94559380D01*
X200850000Y-94510717D01*
X199150000Y-94510717D01*
X198905357Y-94559380D01*
X198697959Y-94697959D01*
X198559380Y-94905357D01*
X198510717Y-95150000D01*
X198510717Y-96390440D01*
X198004695Y-96896462D01*
X197939814Y-96939814D01*
X197768082Y-97196831D01*
X197747155Y-97302041D01*
X197707778Y-97500000D01*
X197723000Y-97576526D01*
X197723000Y-97870603D01*
X197581749Y-97729352D01*
X197204283Y-97573000D01*
X196795717Y-97573000D01*
X196418251Y-97729352D01*
X196324603Y-97823000D01*
X193775397Y-97823000D01*
X193681749Y-97729352D01*
X193304283Y-97573000D01*
X192895717Y-97573000D01*
X192518251Y-97729352D01*
X192229352Y-98018251D01*
X192073000Y-98395717D01*
X192073000Y-98804283D01*
X192229352Y-99181749D01*
X192518251Y-99470648D01*
X192895717Y-99627000D01*
X193304283Y-99627000D01*
X193681749Y-99470648D01*
X193775397Y-99377000D01*
X196324603Y-99377000D01*
X196418251Y-99470648D01*
X196795717Y-99627000D01*
X197204283Y-99627000D01*
X197581749Y-99470648D01*
X197723001Y-99329396D01*
X197723001Y-99378159D01*
X196228161Y-100873000D01*
X196095721Y-100873000D01*
X195718255Y-101029352D01*
X195429356Y-101318251D01*
X195273004Y-101695717D01*
X195273004Y-102104283D01*
X195429356Y-102481749D01*
X195718255Y-102770648D01*
X196095721Y-102927000D01*
X196504287Y-102927000D01*
X196881753Y-102770648D01*
X197170652Y-102481749D01*
X197327004Y-102104283D01*
X197327004Y-101971843D01*
X198564470Y-100734377D01*
X198679845Y-100953000D01*
X199873000Y-100953000D01*
X199873000Y-100933000D01*
X200127000Y-100933000D01*
X200127000Y-100953000D01*
X200147000Y-100953000D01*
X200147000Y-101207000D01*
X200127000Y-101207000D01*
X200127000Y-101227000D01*
X199873000Y-101227000D01*
X199873000Y-101207000D01*
X198679845Y-101207000D01*
X198558524Y-101436890D01*
X198728355Y-101846924D01*
X199118642Y-102275183D01*
X199256934Y-102340128D01*
X198935142Y-102555142D01*
X198608697Y-103043703D01*
X198494064Y-103620000D01*
X198608697Y-104196297D01*
X198935142Y-104684858D01*
X199242160Y-104890000D01*
X198935142Y-105095142D01*
X198608697Y-105583703D01*
X198494064Y-106160000D01*
X198608697Y-106736297D01*
X198935142Y-107224858D01*
X199423703Y-107551303D01*
X199854529Y-107637000D01*
X200145471Y-107637000D01*
X200576297Y-107551303D01*
X201064858Y-107224858D01*
X201298001Y-106875934D01*
X201298001Y-109695259D01*
X201094643Y-109559380D01*
X200850000Y-109510717D01*
X199150000Y-109510717D01*
X198905357Y-109559380D01*
X198697959Y-109697959D01*
X198559380Y-109905357D01*
X198510717Y-110150000D01*
X198510717Y-111850000D01*
X198559380Y-112094643D01*
X198697959Y-112302041D01*
X198905357Y-112440620D01*
X198968123Y-112453105D01*
X198935142Y-112475142D01*
X198608697Y-112963703D01*
X198494064Y-113540000D01*
X198608697Y-114116297D01*
X198935142Y-114604858D01*
X199256934Y-114819872D01*
X199118642Y-114884817D01*
X198728355Y-115313076D01*
X198558524Y-115723110D01*
X198679845Y-115953000D01*
X199873000Y-115953000D01*
X199873000Y-115933000D01*
X200127000Y-115933000D01*
X200127000Y-115953000D01*
X200147000Y-115953000D01*
X200147000Y-116207000D01*
X200127000Y-116207000D01*
X200127000Y-116227000D01*
X199873000Y-116227000D01*
X199873000Y-116207000D01*
X198679845Y-116207000D01*
X198558524Y-116436890D01*
X198728355Y-116846924D01*
X199118642Y-117275183D01*
X199167227Y-117298000D01*
X193538264Y-117298000D01*
X193496780Y-117256516D01*
X193174446Y-117123000D01*
X192825554Y-117123000D01*
X192503220Y-117256516D01*
X192500000Y-117259736D01*
X192496780Y-117256516D01*
X192232101Y-117146882D01*
X192354858Y-117064858D01*
X192681303Y-116576297D01*
X192795936Y-116000000D01*
X192681303Y-115423703D01*
X192354858Y-114935142D01*
X191866297Y-114608697D01*
X191606511Y-114557022D01*
X193773000Y-114557022D01*
X193773000Y-115442978D01*
X194112040Y-116261494D01*
X194738506Y-116887960D01*
X195557022Y-117227000D01*
X196442978Y-117227000D01*
X197261494Y-116887960D01*
X197887960Y-116261494D01*
X198227000Y-115442978D01*
X198227000Y-114557022D01*
X197887960Y-113738506D01*
X197261494Y-113112040D01*
X196442978Y-112773000D01*
X195557022Y-112773000D01*
X194738506Y-113112040D01*
X194112040Y-113738506D01*
X193773000Y-114557022D01*
X191606511Y-114557022D01*
X191435471Y-114523000D01*
X191144529Y-114523000D01*
X190713703Y-114608697D01*
X190225142Y-114935142D01*
X190203105Y-114968123D01*
X190190620Y-114905357D01*
X190052041Y-114697959D01*
X189844643Y-114559380D01*
X189600000Y-114510717D01*
X187900000Y-114510717D01*
X187655357Y-114559380D01*
X187447959Y-114697959D01*
X187309380Y-114905357D01*
X187260717Y-115150000D01*
X187260717Y-116850000D01*
X187309380Y-117094643D01*
X187445259Y-117298000D01*
X186304741Y-117298000D01*
X186440620Y-117094643D01*
X186489283Y-116850000D01*
X186489283Y-115150000D01*
X186440620Y-114905357D01*
X186302041Y-114697959D01*
X186094643Y-114559380D01*
X185850000Y-114510717D01*
X184150000Y-114510717D01*
X183905357Y-114559380D01*
X183697959Y-114697959D01*
X183559380Y-114905357D01*
X183538167Y-115012001D01*
X183226924Y-114728355D01*
X182816890Y-114558524D01*
X182587000Y-114679845D01*
X182587000Y-115873000D01*
X182607000Y-115873000D01*
X182607000Y-116127000D01*
X182587000Y-116127000D01*
X182587000Y-116147000D01*
X182333000Y-116147000D01*
X182333000Y-116127000D01*
X181139181Y-116127000D01*
X181018514Y-116356892D01*
X181264817Y-116881358D01*
X181693076Y-117271645D01*
X181756707Y-117298000D01*
X181069139Y-117298000D01*
X180891224Y-117262611D01*
X180799007Y-117200993D01*
X180737389Y-117108776D01*
X180702000Y-116930861D01*
X180702000Y-115643108D01*
X181018514Y-115643108D01*
X181139181Y-115873000D01*
X182333000Y-115873000D01*
X182333000Y-114679845D01*
X182103110Y-114558524D01*
X181693076Y-114728355D01*
X181264817Y-115118642D01*
X181018514Y-115643108D01*
X180702000Y-115643108D01*
X180702000Y-105538264D01*
X180743484Y-105496780D01*
X180877000Y-105174446D01*
X180877000Y-104825554D01*
X180743484Y-104503220D01*
X180740264Y-104500000D01*
X180743484Y-104496780D01*
X180877000Y-104174446D01*
X180877000Y-103825554D01*
X180743484Y-103503220D01*
X180740264Y-103500000D01*
X180743484Y-103496780D01*
X180877000Y-103174446D01*
X180877000Y-102825554D01*
X180743484Y-102503220D01*
X180740264Y-102500000D01*
X180743484Y-102496780D01*
X180877000Y-102174446D01*
X180877000Y-101825554D01*
X180743484Y-101503220D01*
X180740264Y-101500000D01*
X180743484Y-101496780D01*
X180877000Y-101174446D01*
X180877000Y-100858217D01*
X183010500Y-100858217D01*
X183010500Y-101266783D01*
X183166852Y-101644249D01*
X183455751Y-101933148D01*
X183833217Y-102089500D01*
X184241783Y-102089500D01*
X184513381Y-101977000D01*
X188533586Y-101977000D01*
X188895717Y-102127000D01*
X189304283Y-102127000D01*
X189681749Y-101970648D01*
X189970648Y-101681749D01*
X190127000Y-101304283D01*
X190127000Y-100895717D01*
X189970648Y-100518251D01*
X189681749Y-100229352D01*
X189304283Y-100073000D01*
X188895717Y-100073000D01*
X188533586Y-100223000D01*
X184650397Y-100223000D01*
X184619249Y-100191852D01*
X184241783Y-100035500D01*
X183833217Y-100035500D01*
X183455751Y-100191852D01*
X183166852Y-100480751D01*
X183010500Y-100858217D01*
X180877000Y-100858217D01*
X180877000Y-100825554D01*
X180743484Y-100503220D01*
X180702000Y-100461736D01*
X180702000Y-90557022D01*
X180773000Y-90557022D01*
X180773000Y-91442978D01*
X181112040Y-92261494D01*
X181738506Y-92887960D01*
X182557022Y-93227000D01*
X183442978Y-93227000D01*
X184261494Y-92887960D01*
X184887960Y-92261494D01*
X185227000Y-91442978D01*
X185227000Y-90557022D01*
X184887960Y-89738506D01*
X184261494Y-89112040D01*
X183442978Y-88773000D01*
X182557022Y-88773000D01*
X181738506Y-89112040D01*
X181112040Y-89738506D01*
X180773000Y-90557022D01*
X180702000Y-90557022D01*
X180702000Y-89069139D01*
X180737389Y-88891224D01*
X180799007Y-88799007D01*
X180891224Y-88737389D01*
X181069139Y-88702000D01*
X187704065Y-88702000D01*
X187355142Y-88935142D01*
X187355142Y-88935142D01*
G37*
X187355142Y-88935142D02*
X187028697Y-89423703D01*
X186914064Y-90000000D01*
X187028697Y-90576297D01*
X187355142Y-91064858D01*
X187823000Y-91377470D01*
X187823001Y-96424602D01*
X187729352Y-96518251D01*
X187573000Y-96895717D01*
X187573000Y-97304283D01*
X187729352Y-97681749D01*
X188018251Y-97970648D01*
X188395717Y-98127000D01*
X188804283Y-98127000D01*
X189181749Y-97970648D01*
X189470648Y-97681749D01*
X189627000Y-97304283D01*
X189627000Y-96895717D01*
X189470648Y-96518251D01*
X189377000Y-96424603D01*
X189377000Y-91136926D01*
X189484858Y-91064858D01*
X189690000Y-90757840D01*
X189895142Y-91064858D01*
X190383703Y-91391303D01*
X190814529Y-91477000D01*
X191105471Y-91477000D01*
X191536297Y-91391303D01*
X192024858Y-91064858D01*
X192046895Y-91031877D01*
X192059380Y-91094643D01*
X192197959Y-91302041D01*
X192405357Y-91440620D01*
X192650000Y-91489283D01*
X194350000Y-91489283D01*
X194594643Y-91440620D01*
X194802041Y-91302041D01*
X194940620Y-91094643D01*
X194989283Y-90850000D01*
X194989283Y-89150000D01*
X194940620Y-88905357D01*
X194804741Y-88702000D01*
X200930861Y-88702000D01*
X201108776Y-88737389D01*
X201200993Y-88799007D01*
X201262611Y-88891224D01*
X201298000Y-89069139D01*
X201298000Y-94695259D01*
X201094643Y-94559380D01*
X200850000Y-94510717D01*
X199150000Y-94510717D01*
X198905357Y-94559380D01*
X198697959Y-94697959D01*
X198559380Y-94905357D01*
X198510717Y-95150000D01*
X198510717Y-96390440D01*
X198004695Y-96896462D01*
X197939814Y-96939814D01*
X197768082Y-97196831D01*
X197747155Y-97302041D01*
X197707778Y-97500000D01*
X197723000Y-97576526D01*
X197723000Y-97870603D01*
X197581749Y-97729352D01*
X197204283Y-97573000D01*
X196795717Y-97573000D01*
X196418251Y-97729352D01*
X196324603Y-97823000D01*
X193775397Y-97823000D01*
X193681749Y-97729352D01*
X193304283Y-97573000D01*
X192895717Y-97573000D01*
X192518251Y-97729352D01*
X192229352Y-98018251D01*
X192073000Y-98395717D01*
X192073000Y-98804283D01*
X192229352Y-99181749D01*
X192518251Y-99470648D01*
X192895717Y-99627000D01*
X193304283Y-99627000D01*
X193681749Y-99470648D01*
X193775397Y-99377000D01*
X196324603Y-99377000D01*
X196418251Y-99470648D01*
X196795717Y-99627000D01*
X197204283Y-99627000D01*
X197581749Y-99470648D01*
X197723001Y-99329396D01*
X197723001Y-99378159D01*
X196228161Y-100873000D01*
X196095721Y-100873000D01*
X195718255Y-101029352D01*
X195429356Y-101318251D01*
X195273004Y-101695717D01*
X195273004Y-102104283D01*
X195429356Y-102481749D01*
X195718255Y-102770648D01*
X196095721Y-102927000D01*
X196504287Y-102927000D01*
X196881753Y-102770648D01*
X197170652Y-102481749D01*
X197327004Y-102104283D01*
X197327004Y-101971843D01*
X198564470Y-100734377D01*
X198679845Y-100953000D01*
X199873000Y-100953000D01*
X199873000Y-100933000D01*
X200127000Y-100933000D01*
X200127000Y-100953000D01*
X200147000Y-100953000D01*
X200147000Y-101207000D01*
X200127000Y-101207000D01*
X200127000Y-101227000D01*
X199873000Y-101227000D01*
X199873000Y-101207000D01*
X198679845Y-101207000D01*
X198558524Y-101436890D01*
X198728355Y-101846924D01*
X199118642Y-102275183D01*
X199256934Y-102340128D01*
X198935142Y-102555142D01*
X198608697Y-103043703D01*
X198494064Y-103620000D01*
X198608697Y-104196297D01*
X198935142Y-104684858D01*
X199242160Y-104890000D01*
X198935142Y-105095142D01*
X198608697Y-105583703D01*
X198494064Y-106160000D01*
X198608697Y-106736297D01*
X198935142Y-107224858D01*
X199423703Y-107551303D01*
X199854529Y-107637000D01*
X200145471Y-107637000D01*
X200576297Y-107551303D01*
X201064858Y-107224858D01*
X201298001Y-106875934D01*
X201298001Y-109695259D01*
X201094643Y-109559380D01*
X200850000Y-109510717D01*
X199150000Y-109510717D01*
X198905357Y-109559380D01*
X198697959Y-109697959D01*
X198559380Y-109905357D01*
X198510717Y-110150000D01*
X198510717Y-111850000D01*
X198559380Y-112094643D01*
X198697959Y-112302041D01*
X198905357Y-112440620D01*
X198968123Y-112453105D01*
X198935142Y-112475142D01*
X198608697Y-112963703D01*
X198494064Y-113540000D01*
X198608697Y-114116297D01*
X198935142Y-114604858D01*
X199256934Y-114819872D01*
X199118642Y-114884817D01*
X198728355Y-115313076D01*
X198558524Y-115723110D01*
X198679845Y-115953000D01*
X199873000Y-115953000D01*
X199873000Y-115933000D01*
X200127000Y-115933000D01*
X200127000Y-115953000D01*
X200147000Y-115953000D01*
X200147000Y-116207000D01*
X200127000Y-116207000D01*
X200127000Y-116227000D01*
X199873000Y-116227000D01*
X199873000Y-116207000D01*
X198679845Y-116207000D01*
X198558524Y-116436890D01*
X198728355Y-116846924D01*
X199118642Y-117275183D01*
X199167227Y-117298000D01*
X193538264Y-117298000D01*
X193496780Y-117256516D01*
X193174446Y-117123000D01*
X192825554Y-117123000D01*
X192503220Y-117256516D01*
X192500000Y-117259736D01*
X192496780Y-117256516D01*
X192232101Y-117146882D01*
X192354858Y-117064858D01*
X192681303Y-116576297D01*
X192795936Y-116000000D01*
X192681303Y-115423703D01*
X192354858Y-114935142D01*
X191866297Y-114608697D01*
X191606511Y-114557022D01*
X193773000Y-114557022D01*
X193773000Y-115442978D01*
X194112040Y-116261494D01*
X194738506Y-116887960D01*
X195557022Y-117227000D01*
X196442978Y-117227000D01*
X197261494Y-116887960D01*
X197887960Y-116261494D01*
X198227000Y-115442978D01*
X198227000Y-114557022D01*
X197887960Y-113738506D01*
X197261494Y-113112040D01*
X196442978Y-112773000D01*
X195557022Y-112773000D01*
X194738506Y-113112040D01*
X194112040Y-113738506D01*
X193773000Y-114557022D01*
X191606511Y-114557022D01*
X191435471Y-114523000D01*
X191144529Y-114523000D01*
X190713703Y-114608697D01*
X190225142Y-114935142D01*
X190203105Y-114968123D01*
X190190620Y-114905357D01*
X190052041Y-114697959D01*
X189844643Y-114559380D01*
X189600000Y-114510717D01*
X187900000Y-114510717D01*
X187655357Y-114559380D01*
X187447959Y-114697959D01*
X187309380Y-114905357D01*
X187260717Y-115150000D01*
X187260717Y-116850000D01*
X187309380Y-117094643D01*
X187445259Y-117298000D01*
X186304741Y-117298000D01*
X186440620Y-117094643D01*
X186489283Y-116850000D01*
X186489283Y-115150000D01*
X186440620Y-114905357D01*
X186302041Y-114697959D01*
X186094643Y-114559380D01*
X185850000Y-114510717D01*
X184150000Y-114510717D01*
X183905357Y-114559380D01*
X183697959Y-114697959D01*
X183559380Y-114905357D01*
X183538167Y-115012001D01*
X183226924Y-114728355D01*
X182816890Y-114558524D01*
X182587000Y-114679845D01*
X182587000Y-115873000D01*
X182607000Y-115873000D01*
X182607000Y-116127000D01*
X182587000Y-116127000D01*
X182587000Y-116147000D01*
X182333000Y-116147000D01*
X182333000Y-116127000D01*
X181139181Y-116127000D01*
X181018514Y-116356892D01*
X181264817Y-116881358D01*
X181693076Y-117271645D01*
X181756707Y-117298000D01*
X181069139Y-117298000D01*
X180891224Y-117262611D01*
X180799007Y-117200993D01*
X180737389Y-117108776D01*
X180702000Y-116930861D01*
X180702000Y-115643108D01*
X181018514Y-115643108D01*
X181139181Y-115873000D01*
X182333000Y-115873000D01*
X182333000Y-114679845D01*
X182103110Y-114558524D01*
X181693076Y-114728355D01*
X181264817Y-115118642D01*
X181018514Y-115643108D01*
X180702000Y-115643108D01*
X180702000Y-105538264D01*
X180743484Y-105496780D01*
X180877000Y-105174446D01*
X180877000Y-104825554D01*
X180743484Y-104503220D01*
X180740264Y-104500000D01*
X180743484Y-104496780D01*
X180877000Y-104174446D01*
X180877000Y-103825554D01*
X180743484Y-103503220D01*
X180740264Y-103500000D01*
X180743484Y-103496780D01*
X180877000Y-103174446D01*
X180877000Y-102825554D01*
X180743484Y-102503220D01*
X180740264Y-102500000D01*
X180743484Y-102496780D01*
X180877000Y-102174446D01*
X180877000Y-101825554D01*
X180743484Y-101503220D01*
X180740264Y-101500000D01*
X180743484Y-101496780D01*
X180877000Y-101174446D01*
X180877000Y-100858217D01*
X183010500Y-100858217D01*
X183010500Y-101266783D01*
X183166852Y-101644249D01*
X183455751Y-101933148D01*
X183833217Y-102089500D01*
X184241783Y-102089500D01*
X184513381Y-101977000D01*
X188533586Y-101977000D01*
X188895717Y-102127000D01*
X189304283Y-102127000D01*
X189681749Y-101970648D01*
X189970648Y-101681749D01*
X190127000Y-101304283D01*
X190127000Y-100895717D01*
X189970648Y-100518251D01*
X189681749Y-100229352D01*
X189304283Y-100073000D01*
X188895717Y-100073000D01*
X188533586Y-100223000D01*
X184650397Y-100223000D01*
X184619249Y-100191852D01*
X184241783Y-100035500D01*
X183833217Y-100035500D01*
X183455751Y-100191852D01*
X183166852Y-100480751D01*
X183010500Y-100858217D01*
X180877000Y-100858217D01*
X180877000Y-100825554D01*
X180743484Y-100503220D01*
X180702000Y-100461736D01*
X180702000Y-90557022D01*
X180773000Y-90557022D01*
X180773000Y-91442978D01*
X181112040Y-92261494D01*
X181738506Y-92887960D01*
X182557022Y-93227000D01*
X183442978Y-93227000D01*
X184261494Y-92887960D01*
X184887960Y-92261494D01*
X185227000Y-91442978D01*
X185227000Y-90557022D01*
X184887960Y-89738506D01*
X184261494Y-89112040D01*
X183442978Y-88773000D01*
X182557022Y-88773000D01*
X181738506Y-89112040D01*
X181112040Y-89738506D01*
X180773000Y-90557022D01*
X180702000Y-90557022D01*
X180702000Y-89069139D01*
X180737389Y-88891224D01*
X180799007Y-88799007D01*
X180891224Y-88737389D01*
X181069139Y-88702000D01*
X187704065Y-88702000D01*
X187355142Y-88935142D01*
G36*
X211355142Y-88935142D02*
X211028697Y-89423703D01*
X210914064Y-90000000D01*
X211028697Y-90576297D01*
X211355142Y-91064858D01*
X211823000Y-91377470D01*
X211823001Y-96424602D01*
X211729352Y-96518251D01*
X211573000Y-96895717D01*
X211573000Y-97304283D01*
X211729352Y-97681749D01*
X212018251Y-97970648D01*
X212395717Y-98127000D01*
X212804283Y-98127000D01*
X213181749Y-97970648D01*
X213470648Y-97681749D01*
X213627000Y-97304283D01*
X213627000Y-96895717D01*
X213470648Y-96518251D01*
X213377000Y-96424603D01*
X213377000Y-91136926D01*
X213484858Y-91064858D01*
X213690000Y-90757840D01*
X213895142Y-91064858D01*
X214383703Y-91391303D01*
X214814529Y-91477000D01*
X215105471Y-91477000D01*
X215536297Y-91391303D01*
X216024858Y-91064858D01*
X216046895Y-91031877D01*
X216059380Y-91094643D01*
X216197959Y-91302041D01*
X216405357Y-91440620D01*
X216650000Y-91489283D01*
X218350000Y-91489283D01*
X218594643Y-91440620D01*
X218802041Y-91302041D01*
X218940620Y-91094643D01*
X218989283Y-90850000D01*
X218989283Y-89150000D01*
X218940620Y-88905357D01*
X218804741Y-88702000D01*
X224930861Y-88702000D01*
X225108776Y-88737389D01*
X225200993Y-88799007D01*
X225262611Y-88891224D01*
X225298000Y-89069139D01*
X225298000Y-94695259D01*
X225094643Y-94559380D01*
X224850000Y-94510717D01*
X223150000Y-94510717D01*
X222905357Y-94559380D01*
X222697959Y-94697959D01*
X222559380Y-94905357D01*
X222510717Y-95150000D01*
X222510717Y-96390440D01*
X222004695Y-96896462D01*
X221939814Y-96939814D01*
X221768082Y-97196831D01*
X221747155Y-97302041D01*
X221707778Y-97500000D01*
X221723000Y-97576526D01*
X221723000Y-97870603D01*
X221581749Y-97729352D01*
X221204283Y-97573000D01*
X220795717Y-97573000D01*
X220418251Y-97729352D01*
X220324603Y-97823000D01*
X217775397Y-97823000D01*
X217681749Y-97729352D01*
X217304283Y-97573000D01*
X216895717Y-97573000D01*
X216518251Y-97729352D01*
X216229352Y-98018251D01*
X216073000Y-98395717D01*
X216073000Y-98804283D01*
X216229352Y-99181749D01*
X216518251Y-99470648D01*
X216895717Y-99627000D01*
X217304283Y-99627000D01*
X217681749Y-99470648D01*
X217775397Y-99377000D01*
X220324603Y-99377000D01*
X220418251Y-99470648D01*
X220795717Y-99627000D01*
X221204283Y-99627000D01*
X221581749Y-99470648D01*
X221723001Y-99329396D01*
X221723001Y-99378159D01*
X220228161Y-100873000D01*
X220095721Y-100873000D01*
X219718255Y-101029352D01*
X219429356Y-101318251D01*
X219273004Y-101695717D01*
X219273004Y-102104283D01*
X219429356Y-102481749D01*
X219718255Y-102770648D01*
X220095721Y-102927000D01*
X220504287Y-102927000D01*
X220881753Y-102770648D01*
X221170652Y-102481749D01*
X221327004Y-102104283D01*
X221327004Y-101971843D01*
X222564470Y-100734377D01*
X222679845Y-100953000D01*
X223873000Y-100953000D01*
X223873000Y-100933000D01*
X224127000Y-100933000D01*
X224127000Y-100953000D01*
X224147000Y-100953000D01*
X224147000Y-101207000D01*
X224127000Y-101207000D01*
X224127000Y-101227000D01*
X223873000Y-101227000D01*
X223873000Y-101207000D01*
X222679845Y-101207000D01*
X222558524Y-101436890D01*
X222728355Y-101846924D01*
X223118642Y-102275183D01*
X223256934Y-102340128D01*
X222935142Y-102555142D01*
X222608697Y-103043703D01*
X222494064Y-103620000D01*
X222608697Y-104196297D01*
X222935142Y-104684858D01*
X223242160Y-104890000D01*
X222935142Y-105095142D01*
X222608697Y-105583703D01*
X222494064Y-106160000D01*
X222608697Y-106736297D01*
X222935142Y-107224858D01*
X223423703Y-107551303D01*
X223854529Y-107637000D01*
X224145471Y-107637000D01*
X224576297Y-107551303D01*
X225064858Y-107224858D01*
X225298001Y-106875934D01*
X225298001Y-109695259D01*
X225094643Y-109559380D01*
X224850000Y-109510717D01*
X223150000Y-109510717D01*
X222905357Y-109559380D01*
X222697959Y-109697959D01*
X222559380Y-109905357D01*
X222510717Y-110150000D01*
X222510717Y-111850000D01*
X222559380Y-112094643D01*
X222697959Y-112302041D01*
X222905357Y-112440620D01*
X222968123Y-112453105D01*
X222935142Y-112475142D01*
X222608697Y-112963703D01*
X222494064Y-113540000D01*
X222608697Y-114116297D01*
X222935142Y-114604858D01*
X223256934Y-114819872D01*
X223118642Y-114884817D01*
X222728355Y-115313076D01*
X222558524Y-115723110D01*
X222679845Y-115953000D01*
X223873000Y-115953000D01*
X223873000Y-115933000D01*
X224127000Y-115933000D01*
X224127000Y-115953000D01*
X224147000Y-115953000D01*
X224147000Y-116207000D01*
X224127000Y-116207000D01*
X224127000Y-116227000D01*
X223873000Y-116227000D01*
X223873000Y-116207000D01*
X222679845Y-116207000D01*
X222558524Y-116436890D01*
X222728355Y-116846924D01*
X223118642Y-117275183D01*
X223167227Y-117298000D01*
X217538264Y-117298000D01*
X217496780Y-117256516D01*
X217174446Y-117123000D01*
X216825554Y-117123000D01*
X216503220Y-117256516D01*
X216500000Y-117259736D01*
X216496780Y-117256516D01*
X216232101Y-117146882D01*
X216354858Y-117064858D01*
X216681303Y-116576297D01*
X216795936Y-116000000D01*
X216681303Y-115423703D01*
X216354858Y-114935142D01*
X215866297Y-114608697D01*
X215606511Y-114557022D01*
X217773000Y-114557022D01*
X217773000Y-115442978D01*
X218112040Y-116261494D01*
X218738506Y-116887960D01*
X219557022Y-117227000D01*
X220442978Y-117227000D01*
X221261494Y-116887960D01*
X221887960Y-116261494D01*
X222227000Y-115442978D01*
X222227000Y-114557022D01*
X221887960Y-113738506D01*
X221261494Y-113112040D01*
X220442978Y-112773000D01*
X219557022Y-112773000D01*
X218738506Y-113112040D01*
X218112040Y-113738506D01*
X217773000Y-114557022D01*
X215606511Y-114557022D01*
X215435471Y-114523000D01*
X215144529Y-114523000D01*
X214713703Y-114608697D01*
X214225142Y-114935142D01*
X214203105Y-114968123D01*
X214190620Y-114905357D01*
X214052041Y-114697959D01*
X213844643Y-114559380D01*
X213600000Y-114510717D01*
X211900000Y-114510717D01*
X211655357Y-114559380D01*
X211447959Y-114697959D01*
X211309380Y-114905357D01*
X211260717Y-115150000D01*
X211260717Y-116850000D01*
X211309380Y-117094643D01*
X211445259Y-117298000D01*
X210304741Y-117298000D01*
X210440620Y-117094643D01*
X210489283Y-116850000D01*
X210489283Y-115150000D01*
X210440620Y-114905357D01*
X210302041Y-114697959D01*
X210094643Y-114559380D01*
X209850000Y-114510717D01*
X208150000Y-114510717D01*
X207905357Y-114559380D01*
X207697959Y-114697959D01*
X207559380Y-114905357D01*
X207538167Y-115012001D01*
X207226924Y-114728355D01*
X206816890Y-114558524D01*
X206587000Y-114679845D01*
X206587000Y-115873000D01*
X206607000Y-115873000D01*
X206607000Y-116127000D01*
X206587000Y-116127000D01*
X206587000Y-116147000D01*
X206333000Y-116147000D01*
X206333000Y-116127000D01*
X205139181Y-116127000D01*
X205018514Y-116356892D01*
X205264817Y-116881358D01*
X205693076Y-117271645D01*
X205756707Y-117298000D01*
X205069139Y-117298000D01*
X204891224Y-117262611D01*
X204799007Y-117200993D01*
X204737389Y-117108776D01*
X204702000Y-116930861D01*
X204702000Y-115643108D01*
X205018514Y-115643108D01*
X205139181Y-115873000D01*
X206333000Y-115873000D01*
X206333000Y-114679845D01*
X206103110Y-114558524D01*
X205693076Y-114728355D01*
X205264817Y-115118642D01*
X205018514Y-115643108D01*
X204702000Y-115643108D01*
X204702000Y-105538264D01*
X204743484Y-105496780D01*
X204877000Y-105174446D01*
X204877000Y-104825554D01*
X204743484Y-104503220D01*
X204740264Y-104500000D01*
X204743484Y-104496780D01*
X204877000Y-104174446D01*
X204877000Y-103825554D01*
X204743484Y-103503220D01*
X204740264Y-103500000D01*
X204743484Y-103496780D01*
X204877000Y-103174446D01*
X204877000Y-102825554D01*
X204743484Y-102503220D01*
X204740264Y-102500000D01*
X204743484Y-102496780D01*
X204877000Y-102174446D01*
X204877000Y-101825554D01*
X204743484Y-101503220D01*
X204740264Y-101500000D01*
X204743484Y-101496780D01*
X204877000Y-101174446D01*
X204877000Y-100858217D01*
X207010500Y-100858217D01*
X207010500Y-101266783D01*
X207166852Y-101644249D01*
X207455751Y-101933148D01*
X207833217Y-102089500D01*
X208241783Y-102089500D01*
X208513381Y-101977000D01*
X212533586Y-101977000D01*
X212895717Y-102127000D01*
X213304283Y-102127000D01*
X213681749Y-101970648D01*
X213970648Y-101681749D01*
X214127000Y-101304283D01*
X214127000Y-100895717D01*
X213970648Y-100518251D01*
X213681749Y-100229352D01*
X213304283Y-100073000D01*
X212895717Y-100073000D01*
X212533586Y-100223000D01*
X208650397Y-100223000D01*
X208619249Y-100191852D01*
X208241783Y-100035500D01*
X207833217Y-100035500D01*
X207455751Y-100191852D01*
X207166852Y-100480751D01*
X207010500Y-100858217D01*
X204877000Y-100858217D01*
X204877000Y-100825554D01*
X204743484Y-100503220D01*
X204702000Y-100461736D01*
X204702000Y-90557022D01*
X204773000Y-90557022D01*
X204773000Y-91442978D01*
X205112040Y-92261494D01*
X205738506Y-92887960D01*
X206557022Y-93227000D01*
X207442978Y-93227000D01*
X208261494Y-92887960D01*
X208887960Y-92261494D01*
X209227000Y-91442978D01*
X209227000Y-90557022D01*
X208887960Y-89738506D01*
X208261494Y-89112040D01*
X207442978Y-88773000D01*
X206557022Y-88773000D01*
X205738506Y-89112040D01*
X205112040Y-89738506D01*
X204773000Y-90557022D01*
X204702000Y-90557022D01*
X204702000Y-89069139D01*
X204737389Y-88891224D01*
X204799007Y-88799007D01*
X204891224Y-88737389D01*
X205069139Y-88702000D01*
X211704065Y-88702000D01*
X211355142Y-88935142D01*
X211355142Y-88935142D01*
G37*
X211355142Y-88935142D02*
X211028697Y-89423703D01*
X210914064Y-90000000D01*
X211028697Y-90576297D01*
X211355142Y-91064858D01*
X211823000Y-91377470D01*
X211823001Y-96424602D01*
X211729352Y-96518251D01*
X211573000Y-96895717D01*
X211573000Y-97304283D01*
X211729352Y-97681749D01*
X212018251Y-97970648D01*
X212395717Y-98127000D01*
X212804283Y-98127000D01*
X213181749Y-97970648D01*
X213470648Y-97681749D01*
X213627000Y-97304283D01*
X213627000Y-96895717D01*
X213470648Y-96518251D01*
X213377000Y-96424603D01*
X213377000Y-91136926D01*
X213484858Y-91064858D01*
X213690000Y-90757840D01*
X213895142Y-91064858D01*
X214383703Y-91391303D01*
X214814529Y-91477000D01*
X215105471Y-91477000D01*
X215536297Y-91391303D01*
X216024858Y-91064858D01*
X216046895Y-91031877D01*
X216059380Y-91094643D01*
X216197959Y-91302041D01*
X216405357Y-91440620D01*
X216650000Y-91489283D01*
X218350000Y-91489283D01*
X218594643Y-91440620D01*
X218802041Y-91302041D01*
X218940620Y-91094643D01*
X218989283Y-90850000D01*
X218989283Y-89150000D01*
X218940620Y-88905357D01*
X218804741Y-88702000D01*
X224930861Y-88702000D01*
X225108776Y-88737389D01*
X225200993Y-88799007D01*
X225262611Y-88891224D01*
X225298000Y-89069139D01*
X225298000Y-94695259D01*
X225094643Y-94559380D01*
X224850000Y-94510717D01*
X223150000Y-94510717D01*
X222905357Y-94559380D01*
X222697959Y-94697959D01*
X222559380Y-94905357D01*
X222510717Y-95150000D01*
X222510717Y-96390440D01*
X222004695Y-96896462D01*
X221939814Y-96939814D01*
X221768082Y-97196831D01*
X221747155Y-97302041D01*
X221707778Y-97500000D01*
X221723000Y-97576526D01*
X221723000Y-97870603D01*
X221581749Y-97729352D01*
X221204283Y-97573000D01*
X220795717Y-97573000D01*
X220418251Y-97729352D01*
X220324603Y-97823000D01*
X217775397Y-97823000D01*
X217681749Y-97729352D01*
X217304283Y-97573000D01*
X216895717Y-97573000D01*
X216518251Y-97729352D01*
X216229352Y-98018251D01*
X216073000Y-98395717D01*
X216073000Y-98804283D01*
X216229352Y-99181749D01*
X216518251Y-99470648D01*
X216895717Y-99627000D01*
X217304283Y-99627000D01*
X217681749Y-99470648D01*
X217775397Y-99377000D01*
X220324603Y-99377000D01*
X220418251Y-99470648D01*
X220795717Y-99627000D01*
X221204283Y-99627000D01*
X221581749Y-99470648D01*
X221723001Y-99329396D01*
X221723001Y-99378159D01*
X220228161Y-100873000D01*
X220095721Y-100873000D01*
X219718255Y-101029352D01*
X219429356Y-101318251D01*
X219273004Y-101695717D01*
X219273004Y-102104283D01*
X219429356Y-102481749D01*
X219718255Y-102770648D01*
X220095721Y-102927000D01*
X220504287Y-102927000D01*
X220881753Y-102770648D01*
X221170652Y-102481749D01*
X221327004Y-102104283D01*
X221327004Y-101971843D01*
X222564470Y-100734377D01*
X222679845Y-100953000D01*
X223873000Y-100953000D01*
X223873000Y-100933000D01*
X224127000Y-100933000D01*
X224127000Y-100953000D01*
X224147000Y-100953000D01*
X224147000Y-101207000D01*
X224127000Y-101207000D01*
X224127000Y-101227000D01*
X223873000Y-101227000D01*
X223873000Y-101207000D01*
X222679845Y-101207000D01*
X222558524Y-101436890D01*
X222728355Y-101846924D01*
X223118642Y-102275183D01*
X223256934Y-102340128D01*
X222935142Y-102555142D01*
X222608697Y-103043703D01*
X222494064Y-103620000D01*
X222608697Y-104196297D01*
X222935142Y-104684858D01*
X223242160Y-104890000D01*
X222935142Y-105095142D01*
X222608697Y-105583703D01*
X222494064Y-106160000D01*
X222608697Y-106736297D01*
X222935142Y-107224858D01*
X223423703Y-107551303D01*
X223854529Y-107637000D01*
X224145471Y-107637000D01*
X224576297Y-107551303D01*
X225064858Y-107224858D01*
X225298001Y-106875934D01*
X225298001Y-109695259D01*
X225094643Y-109559380D01*
X224850000Y-109510717D01*
X223150000Y-109510717D01*
X222905357Y-109559380D01*
X222697959Y-109697959D01*
X222559380Y-109905357D01*
X222510717Y-110150000D01*
X222510717Y-111850000D01*
X222559380Y-112094643D01*
X222697959Y-112302041D01*
X222905357Y-112440620D01*
X222968123Y-112453105D01*
X222935142Y-112475142D01*
X222608697Y-112963703D01*
X222494064Y-113540000D01*
X222608697Y-114116297D01*
X222935142Y-114604858D01*
X223256934Y-114819872D01*
X223118642Y-114884817D01*
X222728355Y-115313076D01*
X222558524Y-115723110D01*
X222679845Y-115953000D01*
X223873000Y-115953000D01*
X223873000Y-115933000D01*
X224127000Y-115933000D01*
X224127000Y-115953000D01*
X224147000Y-115953000D01*
X224147000Y-116207000D01*
X224127000Y-116207000D01*
X224127000Y-116227000D01*
X223873000Y-116227000D01*
X223873000Y-116207000D01*
X222679845Y-116207000D01*
X222558524Y-116436890D01*
X222728355Y-116846924D01*
X223118642Y-117275183D01*
X223167227Y-117298000D01*
X217538264Y-117298000D01*
X217496780Y-117256516D01*
X217174446Y-117123000D01*
X216825554Y-117123000D01*
X216503220Y-117256516D01*
X216500000Y-117259736D01*
X216496780Y-117256516D01*
X216232101Y-117146882D01*
X216354858Y-117064858D01*
X216681303Y-116576297D01*
X216795936Y-116000000D01*
X216681303Y-115423703D01*
X216354858Y-114935142D01*
X215866297Y-114608697D01*
X215606511Y-114557022D01*
X217773000Y-114557022D01*
X217773000Y-115442978D01*
X218112040Y-116261494D01*
X218738506Y-116887960D01*
X219557022Y-117227000D01*
X220442978Y-117227000D01*
X221261494Y-116887960D01*
X221887960Y-116261494D01*
X222227000Y-115442978D01*
X222227000Y-114557022D01*
X221887960Y-113738506D01*
X221261494Y-113112040D01*
X220442978Y-112773000D01*
X219557022Y-112773000D01*
X218738506Y-113112040D01*
X218112040Y-113738506D01*
X217773000Y-114557022D01*
X215606511Y-114557022D01*
X215435471Y-114523000D01*
X215144529Y-114523000D01*
X214713703Y-114608697D01*
X214225142Y-114935142D01*
X214203105Y-114968123D01*
X214190620Y-114905357D01*
X214052041Y-114697959D01*
X213844643Y-114559380D01*
X213600000Y-114510717D01*
X211900000Y-114510717D01*
X211655357Y-114559380D01*
X211447959Y-114697959D01*
X211309380Y-114905357D01*
X211260717Y-115150000D01*
X211260717Y-116850000D01*
X211309380Y-117094643D01*
X211445259Y-117298000D01*
X210304741Y-117298000D01*
X210440620Y-117094643D01*
X210489283Y-116850000D01*
X210489283Y-115150000D01*
X210440620Y-114905357D01*
X210302041Y-114697959D01*
X210094643Y-114559380D01*
X209850000Y-114510717D01*
X208150000Y-114510717D01*
X207905357Y-114559380D01*
X207697959Y-114697959D01*
X207559380Y-114905357D01*
X207538167Y-115012001D01*
X207226924Y-114728355D01*
X206816890Y-114558524D01*
X206587000Y-114679845D01*
X206587000Y-115873000D01*
X206607000Y-115873000D01*
X206607000Y-116127000D01*
X206587000Y-116127000D01*
X206587000Y-116147000D01*
X206333000Y-116147000D01*
X206333000Y-116127000D01*
X205139181Y-116127000D01*
X205018514Y-116356892D01*
X205264817Y-116881358D01*
X205693076Y-117271645D01*
X205756707Y-117298000D01*
X205069139Y-117298000D01*
X204891224Y-117262611D01*
X204799007Y-117200993D01*
X204737389Y-117108776D01*
X204702000Y-116930861D01*
X204702000Y-115643108D01*
X205018514Y-115643108D01*
X205139181Y-115873000D01*
X206333000Y-115873000D01*
X206333000Y-114679845D01*
X206103110Y-114558524D01*
X205693076Y-114728355D01*
X205264817Y-115118642D01*
X205018514Y-115643108D01*
X204702000Y-115643108D01*
X204702000Y-105538264D01*
X204743484Y-105496780D01*
X204877000Y-105174446D01*
X204877000Y-104825554D01*
X204743484Y-104503220D01*
X204740264Y-104500000D01*
X204743484Y-104496780D01*
X204877000Y-104174446D01*
X204877000Y-103825554D01*
X204743484Y-103503220D01*
X204740264Y-103500000D01*
X204743484Y-103496780D01*
X204877000Y-103174446D01*
X204877000Y-102825554D01*
X204743484Y-102503220D01*
X204740264Y-102500000D01*
X204743484Y-102496780D01*
X204877000Y-102174446D01*
X204877000Y-101825554D01*
X204743484Y-101503220D01*
X204740264Y-101500000D01*
X204743484Y-101496780D01*
X204877000Y-101174446D01*
X204877000Y-100858217D01*
X207010500Y-100858217D01*
X207010500Y-101266783D01*
X207166852Y-101644249D01*
X207455751Y-101933148D01*
X207833217Y-102089500D01*
X208241783Y-102089500D01*
X208513381Y-101977000D01*
X212533586Y-101977000D01*
X212895717Y-102127000D01*
X213304283Y-102127000D01*
X213681749Y-101970648D01*
X213970648Y-101681749D01*
X214127000Y-101304283D01*
X214127000Y-100895717D01*
X213970648Y-100518251D01*
X213681749Y-100229352D01*
X213304283Y-100073000D01*
X212895717Y-100073000D01*
X212533586Y-100223000D01*
X208650397Y-100223000D01*
X208619249Y-100191852D01*
X208241783Y-100035500D01*
X207833217Y-100035500D01*
X207455751Y-100191852D01*
X207166852Y-100480751D01*
X207010500Y-100858217D01*
X204877000Y-100858217D01*
X204877000Y-100825554D01*
X204743484Y-100503220D01*
X204702000Y-100461736D01*
X204702000Y-90557022D01*
X204773000Y-90557022D01*
X204773000Y-91442978D01*
X205112040Y-92261494D01*
X205738506Y-92887960D01*
X206557022Y-93227000D01*
X207442978Y-93227000D01*
X208261494Y-92887960D01*
X208887960Y-92261494D01*
X209227000Y-91442978D01*
X209227000Y-90557022D01*
X208887960Y-89738506D01*
X208261494Y-89112040D01*
X207442978Y-88773000D01*
X206557022Y-88773000D01*
X205738506Y-89112040D01*
X205112040Y-89738506D01*
X204773000Y-90557022D01*
X204702000Y-90557022D01*
X204702000Y-89069139D01*
X204737389Y-88891224D01*
X204799007Y-88799007D01*
X204891224Y-88737389D01*
X205069139Y-88702000D01*
X211704065Y-88702000D01*
X211355142Y-88935142D01*
G36*
X187355142Y-56935142D02*
X187028697Y-57423703D01*
X186914064Y-58000000D01*
X187028697Y-58576297D01*
X187355142Y-59064858D01*
X187823000Y-59377470D01*
X187823001Y-64424602D01*
X187729352Y-64518251D01*
X187573000Y-64895717D01*
X187573000Y-65304283D01*
X187729352Y-65681749D01*
X188018251Y-65970648D01*
X188395717Y-66127000D01*
X188804283Y-66127000D01*
X189181749Y-65970648D01*
X189470648Y-65681749D01*
X189627000Y-65304283D01*
X189627000Y-64895717D01*
X189470648Y-64518251D01*
X189377000Y-64424603D01*
X189377000Y-59136926D01*
X189484858Y-59064858D01*
X189690000Y-58757840D01*
X189895142Y-59064858D01*
X190383703Y-59391303D01*
X190814529Y-59477000D01*
X191105471Y-59477000D01*
X191536297Y-59391303D01*
X192024858Y-59064858D01*
X192046895Y-59031877D01*
X192059380Y-59094643D01*
X192197959Y-59302041D01*
X192405357Y-59440620D01*
X192650000Y-59489283D01*
X194350000Y-59489283D01*
X194594643Y-59440620D01*
X194802041Y-59302041D01*
X194940620Y-59094643D01*
X194989283Y-58850000D01*
X194989283Y-57150000D01*
X194940620Y-56905357D01*
X194804741Y-56702000D01*
X200930861Y-56702000D01*
X201108776Y-56737389D01*
X201200993Y-56799007D01*
X201262611Y-56891224D01*
X201298000Y-57069139D01*
X201298000Y-62695259D01*
X201094643Y-62559380D01*
X200850000Y-62510717D01*
X199150000Y-62510717D01*
X198905357Y-62559380D01*
X198697959Y-62697959D01*
X198559380Y-62905357D01*
X198510717Y-63150000D01*
X198510717Y-64390440D01*
X198004695Y-64896462D01*
X197939814Y-64939814D01*
X197768082Y-65196831D01*
X197747155Y-65302041D01*
X197707778Y-65500000D01*
X197723000Y-65576526D01*
X197723000Y-65870603D01*
X197581749Y-65729352D01*
X197204283Y-65573000D01*
X196795717Y-65573000D01*
X196418251Y-65729352D01*
X196324603Y-65823000D01*
X193775397Y-65823000D01*
X193681749Y-65729352D01*
X193304283Y-65573000D01*
X192895717Y-65573000D01*
X192518251Y-65729352D01*
X192229352Y-66018251D01*
X192073000Y-66395717D01*
X192073000Y-66804283D01*
X192229352Y-67181749D01*
X192518251Y-67470648D01*
X192895717Y-67627000D01*
X193304283Y-67627000D01*
X193681749Y-67470648D01*
X193775397Y-67377000D01*
X196324603Y-67377000D01*
X196418251Y-67470648D01*
X196795717Y-67627000D01*
X197204283Y-67627000D01*
X197581749Y-67470648D01*
X197723001Y-67329396D01*
X197723001Y-67378159D01*
X196228161Y-68873000D01*
X196095721Y-68873000D01*
X195718255Y-69029352D01*
X195429356Y-69318251D01*
X195273004Y-69695717D01*
X195273004Y-70104283D01*
X195429356Y-70481749D01*
X195718255Y-70770648D01*
X196095721Y-70927000D01*
X196504287Y-70927000D01*
X196881753Y-70770648D01*
X197170652Y-70481749D01*
X197327004Y-70104283D01*
X197327004Y-69971843D01*
X198564470Y-68734377D01*
X198679845Y-68953000D01*
X199873000Y-68953000D01*
X199873000Y-68933000D01*
X200127000Y-68933000D01*
X200127000Y-68953000D01*
X200147000Y-68953000D01*
X200147000Y-69207000D01*
X200127000Y-69207000D01*
X200127000Y-69227000D01*
X199873000Y-69227000D01*
X199873000Y-69207000D01*
X198679845Y-69207000D01*
X198558524Y-69436890D01*
X198728355Y-69846924D01*
X199118642Y-70275183D01*
X199256934Y-70340128D01*
X198935142Y-70555142D01*
X198608697Y-71043703D01*
X198494064Y-71620000D01*
X198608697Y-72196297D01*
X198935142Y-72684858D01*
X199242160Y-72890000D01*
X198935142Y-73095142D01*
X198608697Y-73583703D01*
X198494064Y-74160000D01*
X198608697Y-74736297D01*
X198935142Y-75224858D01*
X199423703Y-75551303D01*
X199854529Y-75637000D01*
X200145471Y-75637000D01*
X200576297Y-75551303D01*
X201064858Y-75224858D01*
X201298001Y-74875934D01*
X201298001Y-77695259D01*
X201094643Y-77559380D01*
X200850000Y-77510717D01*
X199150000Y-77510717D01*
X198905357Y-77559380D01*
X198697959Y-77697959D01*
X198559380Y-77905357D01*
X198510717Y-78150000D01*
X198510717Y-79850000D01*
X198559380Y-80094643D01*
X198697959Y-80302041D01*
X198905357Y-80440620D01*
X198968123Y-80453105D01*
X198935142Y-80475142D01*
X198608697Y-80963703D01*
X198494064Y-81540000D01*
X198608697Y-82116297D01*
X198935142Y-82604858D01*
X199256934Y-82819872D01*
X199118642Y-82884817D01*
X198728355Y-83313076D01*
X198558524Y-83723110D01*
X198679845Y-83953000D01*
X199873000Y-83953000D01*
X199873000Y-83933000D01*
X200127000Y-83933000D01*
X200127000Y-83953000D01*
X200147000Y-83953000D01*
X200147000Y-84207000D01*
X200127000Y-84207000D01*
X200127000Y-84227000D01*
X199873000Y-84227000D01*
X199873000Y-84207000D01*
X198679845Y-84207000D01*
X198558524Y-84436890D01*
X198728355Y-84846924D01*
X199118642Y-85275183D01*
X199167227Y-85298000D01*
X193538264Y-85298000D01*
X193496780Y-85256516D01*
X193174446Y-85123000D01*
X192825554Y-85123000D01*
X192503220Y-85256516D01*
X192500000Y-85259736D01*
X192496780Y-85256516D01*
X192232101Y-85146882D01*
X192354858Y-85064858D01*
X192681303Y-84576297D01*
X192795936Y-84000000D01*
X192681303Y-83423703D01*
X192354858Y-82935142D01*
X191866297Y-82608697D01*
X191606511Y-82557022D01*
X193773000Y-82557022D01*
X193773000Y-83442978D01*
X194112040Y-84261494D01*
X194738506Y-84887960D01*
X195557022Y-85227000D01*
X196442978Y-85227000D01*
X197261494Y-84887960D01*
X197887960Y-84261494D01*
X198227000Y-83442978D01*
X198227000Y-82557022D01*
X197887960Y-81738506D01*
X197261494Y-81112040D01*
X196442978Y-80773000D01*
X195557022Y-80773000D01*
X194738506Y-81112040D01*
X194112040Y-81738506D01*
X193773000Y-82557022D01*
X191606511Y-82557022D01*
X191435471Y-82523000D01*
X191144529Y-82523000D01*
X190713703Y-82608697D01*
X190225142Y-82935142D01*
X190203105Y-82968123D01*
X190190620Y-82905357D01*
X190052041Y-82697959D01*
X189844643Y-82559380D01*
X189600000Y-82510717D01*
X187900000Y-82510717D01*
X187655357Y-82559380D01*
X187447959Y-82697959D01*
X187309380Y-82905357D01*
X187260717Y-83150000D01*
X187260717Y-84850000D01*
X187309380Y-85094643D01*
X187445259Y-85298000D01*
X186304741Y-85298000D01*
X186440620Y-85094643D01*
X186489283Y-84850000D01*
X186489283Y-83150000D01*
X186440620Y-82905357D01*
X186302041Y-82697959D01*
X186094643Y-82559380D01*
X185850000Y-82510717D01*
X184150000Y-82510717D01*
X183905357Y-82559380D01*
X183697959Y-82697959D01*
X183559380Y-82905357D01*
X183538167Y-83012001D01*
X183226924Y-82728355D01*
X182816890Y-82558524D01*
X182587000Y-82679845D01*
X182587000Y-83873000D01*
X182607000Y-83873000D01*
X182607000Y-84127000D01*
X182587000Y-84127000D01*
X182587000Y-84147000D01*
X182333000Y-84147000D01*
X182333000Y-84127000D01*
X181139181Y-84127000D01*
X181018514Y-84356892D01*
X181264817Y-84881358D01*
X181693076Y-85271645D01*
X181756707Y-85298000D01*
X181069139Y-85298000D01*
X180891224Y-85262611D01*
X180799007Y-85200993D01*
X180737389Y-85108776D01*
X180702000Y-84930861D01*
X180702000Y-83643108D01*
X181018514Y-83643108D01*
X181139181Y-83873000D01*
X182333000Y-83873000D01*
X182333000Y-82679845D01*
X182103110Y-82558524D01*
X181693076Y-82728355D01*
X181264817Y-83118642D01*
X181018514Y-83643108D01*
X180702000Y-83643108D01*
X180702000Y-73538264D01*
X180743484Y-73496780D01*
X180877000Y-73174446D01*
X180877000Y-72825554D01*
X180743484Y-72503220D01*
X180740264Y-72500000D01*
X180743484Y-72496780D01*
X180877000Y-72174446D01*
X180877000Y-71825554D01*
X180743484Y-71503220D01*
X180740264Y-71500000D01*
X180743484Y-71496780D01*
X180877000Y-71174446D01*
X180877000Y-70825554D01*
X180743484Y-70503220D01*
X180740264Y-70500000D01*
X180743484Y-70496780D01*
X180877000Y-70174446D01*
X180877000Y-69825554D01*
X180743484Y-69503220D01*
X180740264Y-69500000D01*
X180743484Y-69496780D01*
X180877000Y-69174446D01*
X180877000Y-68858217D01*
X183010500Y-68858217D01*
X183010500Y-69266783D01*
X183166852Y-69644249D01*
X183455751Y-69933148D01*
X183833217Y-70089500D01*
X184241783Y-70089500D01*
X184513381Y-69977000D01*
X188533586Y-69977000D01*
X188895717Y-70127000D01*
X189304283Y-70127000D01*
X189681749Y-69970648D01*
X189970648Y-69681749D01*
X190127000Y-69304283D01*
X190127000Y-68895717D01*
X189970648Y-68518251D01*
X189681749Y-68229352D01*
X189304283Y-68073000D01*
X188895717Y-68073000D01*
X188533586Y-68223000D01*
X184650397Y-68223000D01*
X184619249Y-68191852D01*
X184241783Y-68035500D01*
X183833217Y-68035500D01*
X183455751Y-68191852D01*
X183166852Y-68480751D01*
X183010500Y-68858217D01*
X180877000Y-68858217D01*
X180877000Y-68825554D01*
X180743484Y-68503220D01*
X180702000Y-68461736D01*
X180702000Y-58557022D01*
X180773000Y-58557022D01*
X180773000Y-59442978D01*
X181112040Y-60261494D01*
X181738506Y-60887960D01*
X182557022Y-61227000D01*
X183442978Y-61227000D01*
X184261494Y-60887960D01*
X184887960Y-60261494D01*
X185227000Y-59442978D01*
X185227000Y-58557022D01*
X184887960Y-57738506D01*
X184261494Y-57112040D01*
X183442978Y-56773000D01*
X182557022Y-56773000D01*
X181738506Y-57112040D01*
X181112040Y-57738506D01*
X180773000Y-58557022D01*
X180702000Y-58557022D01*
X180702000Y-57069139D01*
X180737389Y-56891224D01*
X180799007Y-56799007D01*
X180891224Y-56737389D01*
X181069139Y-56702000D01*
X187704065Y-56702000D01*
X187355142Y-56935142D01*
X187355142Y-56935142D01*
G37*
X187355142Y-56935142D02*
X187028697Y-57423703D01*
X186914064Y-58000000D01*
X187028697Y-58576297D01*
X187355142Y-59064858D01*
X187823000Y-59377470D01*
X187823001Y-64424602D01*
X187729352Y-64518251D01*
X187573000Y-64895717D01*
X187573000Y-65304283D01*
X187729352Y-65681749D01*
X188018251Y-65970648D01*
X188395717Y-66127000D01*
X188804283Y-66127000D01*
X189181749Y-65970648D01*
X189470648Y-65681749D01*
X189627000Y-65304283D01*
X189627000Y-64895717D01*
X189470648Y-64518251D01*
X189377000Y-64424603D01*
X189377000Y-59136926D01*
X189484858Y-59064858D01*
X189690000Y-58757840D01*
X189895142Y-59064858D01*
X190383703Y-59391303D01*
X190814529Y-59477000D01*
X191105471Y-59477000D01*
X191536297Y-59391303D01*
X192024858Y-59064858D01*
X192046895Y-59031877D01*
X192059380Y-59094643D01*
X192197959Y-59302041D01*
X192405357Y-59440620D01*
X192650000Y-59489283D01*
X194350000Y-59489283D01*
X194594643Y-59440620D01*
X194802041Y-59302041D01*
X194940620Y-59094643D01*
X194989283Y-58850000D01*
X194989283Y-57150000D01*
X194940620Y-56905357D01*
X194804741Y-56702000D01*
X200930861Y-56702000D01*
X201108776Y-56737389D01*
X201200993Y-56799007D01*
X201262611Y-56891224D01*
X201298000Y-57069139D01*
X201298000Y-62695259D01*
X201094643Y-62559380D01*
X200850000Y-62510717D01*
X199150000Y-62510717D01*
X198905357Y-62559380D01*
X198697959Y-62697959D01*
X198559380Y-62905357D01*
X198510717Y-63150000D01*
X198510717Y-64390440D01*
X198004695Y-64896462D01*
X197939814Y-64939814D01*
X197768082Y-65196831D01*
X197747155Y-65302041D01*
X197707778Y-65500000D01*
X197723000Y-65576526D01*
X197723000Y-65870603D01*
X197581749Y-65729352D01*
X197204283Y-65573000D01*
X196795717Y-65573000D01*
X196418251Y-65729352D01*
X196324603Y-65823000D01*
X193775397Y-65823000D01*
X193681749Y-65729352D01*
X193304283Y-65573000D01*
X192895717Y-65573000D01*
X192518251Y-65729352D01*
X192229352Y-66018251D01*
X192073000Y-66395717D01*
X192073000Y-66804283D01*
X192229352Y-67181749D01*
X192518251Y-67470648D01*
X192895717Y-67627000D01*
X193304283Y-67627000D01*
X193681749Y-67470648D01*
X193775397Y-67377000D01*
X196324603Y-67377000D01*
X196418251Y-67470648D01*
X196795717Y-67627000D01*
X197204283Y-67627000D01*
X197581749Y-67470648D01*
X197723001Y-67329396D01*
X197723001Y-67378159D01*
X196228161Y-68873000D01*
X196095721Y-68873000D01*
X195718255Y-69029352D01*
X195429356Y-69318251D01*
X195273004Y-69695717D01*
X195273004Y-70104283D01*
X195429356Y-70481749D01*
X195718255Y-70770648D01*
X196095721Y-70927000D01*
X196504287Y-70927000D01*
X196881753Y-70770648D01*
X197170652Y-70481749D01*
X197327004Y-70104283D01*
X197327004Y-69971843D01*
X198564470Y-68734377D01*
X198679845Y-68953000D01*
X199873000Y-68953000D01*
X199873000Y-68933000D01*
X200127000Y-68933000D01*
X200127000Y-68953000D01*
X200147000Y-68953000D01*
X200147000Y-69207000D01*
X200127000Y-69207000D01*
X200127000Y-69227000D01*
X199873000Y-69227000D01*
X199873000Y-69207000D01*
X198679845Y-69207000D01*
X198558524Y-69436890D01*
X198728355Y-69846924D01*
X199118642Y-70275183D01*
X199256934Y-70340128D01*
X198935142Y-70555142D01*
X198608697Y-71043703D01*
X198494064Y-71620000D01*
X198608697Y-72196297D01*
X198935142Y-72684858D01*
X199242160Y-72890000D01*
X198935142Y-73095142D01*
X198608697Y-73583703D01*
X198494064Y-74160000D01*
X198608697Y-74736297D01*
X198935142Y-75224858D01*
X199423703Y-75551303D01*
X199854529Y-75637000D01*
X200145471Y-75637000D01*
X200576297Y-75551303D01*
X201064858Y-75224858D01*
X201298001Y-74875934D01*
X201298001Y-77695259D01*
X201094643Y-77559380D01*
X200850000Y-77510717D01*
X199150000Y-77510717D01*
X198905357Y-77559380D01*
X198697959Y-77697959D01*
X198559380Y-77905357D01*
X198510717Y-78150000D01*
X198510717Y-79850000D01*
X198559380Y-80094643D01*
X198697959Y-80302041D01*
X198905357Y-80440620D01*
X198968123Y-80453105D01*
X198935142Y-80475142D01*
X198608697Y-80963703D01*
X198494064Y-81540000D01*
X198608697Y-82116297D01*
X198935142Y-82604858D01*
X199256934Y-82819872D01*
X199118642Y-82884817D01*
X198728355Y-83313076D01*
X198558524Y-83723110D01*
X198679845Y-83953000D01*
X199873000Y-83953000D01*
X199873000Y-83933000D01*
X200127000Y-83933000D01*
X200127000Y-83953000D01*
X200147000Y-83953000D01*
X200147000Y-84207000D01*
X200127000Y-84207000D01*
X200127000Y-84227000D01*
X199873000Y-84227000D01*
X199873000Y-84207000D01*
X198679845Y-84207000D01*
X198558524Y-84436890D01*
X198728355Y-84846924D01*
X199118642Y-85275183D01*
X199167227Y-85298000D01*
X193538264Y-85298000D01*
X193496780Y-85256516D01*
X193174446Y-85123000D01*
X192825554Y-85123000D01*
X192503220Y-85256516D01*
X192500000Y-85259736D01*
X192496780Y-85256516D01*
X192232101Y-85146882D01*
X192354858Y-85064858D01*
X192681303Y-84576297D01*
X192795936Y-84000000D01*
X192681303Y-83423703D01*
X192354858Y-82935142D01*
X191866297Y-82608697D01*
X191606511Y-82557022D01*
X193773000Y-82557022D01*
X193773000Y-83442978D01*
X194112040Y-84261494D01*
X194738506Y-84887960D01*
X195557022Y-85227000D01*
X196442978Y-85227000D01*
X197261494Y-84887960D01*
X197887960Y-84261494D01*
X198227000Y-83442978D01*
X198227000Y-82557022D01*
X197887960Y-81738506D01*
X197261494Y-81112040D01*
X196442978Y-80773000D01*
X195557022Y-80773000D01*
X194738506Y-81112040D01*
X194112040Y-81738506D01*
X193773000Y-82557022D01*
X191606511Y-82557022D01*
X191435471Y-82523000D01*
X191144529Y-82523000D01*
X190713703Y-82608697D01*
X190225142Y-82935142D01*
X190203105Y-82968123D01*
X190190620Y-82905357D01*
X190052041Y-82697959D01*
X189844643Y-82559380D01*
X189600000Y-82510717D01*
X187900000Y-82510717D01*
X187655357Y-82559380D01*
X187447959Y-82697959D01*
X187309380Y-82905357D01*
X187260717Y-83150000D01*
X187260717Y-84850000D01*
X187309380Y-85094643D01*
X187445259Y-85298000D01*
X186304741Y-85298000D01*
X186440620Y-85094643D01*
X186489283Y-84850000D01*
X186489283Y-83150000D01*
X186440620Y-82905357D01*
X186302041Y-82697959D01*
X186094643Y-82559380D01*
X185850000Y-82510717D01*
X184150000Y-82510717D01*
X183905357Y-82559380D01*
X183697959Y-82697959D01*
X183559380Y-82905357D01*
X183538167Y-83012001D01*
X183226924Y-82728355D01*
X182816890Y-82558524D01*
X182587000Y-82679845D01*
X182587000Y-83873000D01*
X182607000Y-83873000D01*
X182607000Y-84127000D01*
X182587000Y-84127000D01*
X182587000Y-84147000D01*
X182333000Y-84147000D01*
X182333000Y-84127000D01*
X181139181Y-84127000D01*
X181018514Y-84356892D01*
X181264817Y-84881358D01*
X181693076Y-85271645D01*
X181756707Y-85298000D01*
X181069139Y-85298000D01*
X180891224Y-85262611D01*
X180799007Y-85200993D01*
X180737389Y-85108776D01*
X180702000Y-84930861D01*
X180702000Y-83643108D01*
X181018514Y-83643108D01*
X181139181Y-83873000D01*
X182333000Y-83873000D01*
X182333000Y-82679845D01*
X182103110Y-82558524D01*
X181693076Y-82728355D01*
X181264817Y-83118642D01*
X181018514Y-83643108D01*
X180702000Y-83643108D01*
X180702000Y-73538264D01*
X180743484Y-73496780D01*
X180877000Y-73174446D01*
X180877000Y-72825554D01*
X180743484Y-72503220D01*
X180740264Y-72500000D01*
X180743484Y-72496780D01*
X180877000Y-72174446D01*
X180877000Y-71825554D01*
X180743484Y-71503220D01*
X180740264Y-71500000D01*
X180743484Y-71496780D01*
X180877000Y-71174446D01*
X180877000Y-70825554D01*
X180743484Y-70503220D01*
X180740264Y-70500000D01*
X180743484Y-70496780D01*
X180877000Y-70174446D01*
X180877000Y-69825554D01*
X180743484Y-69503220D01*
X180740264Y-69500000D01*
X180743484Y-69496780D01*
X180877000Y-69174446D01*
X180877000Y-68858217D01*
X183010500Y-68858217D01*
X183010500Y-69266783D01*
X183166852Y-69644249D01*
X183455751Y-69933148D01*
X183833217Y-70089500D01*
X184241783Y-70089500D01*
X184513381Y-69977000D01*
X188533586Y-69977000D01*
X188895717Y-70127000D01*
X189304283Y-70127000D01*
X189681749Y-69970648D01*
X189970648Y-69681749D01*
X190127000Y-69304283D01*
X190127000Y-68895717D01*
X189970648Y-68518251D01*
X189681749Y-68229352D01*
X189304283Y-68073000D01*
X188895717Y-68073000D01*
X188533586Y-68223000D01*
X184650397Y-68223000D01*
X184619249Y-68191852D01*
X184241783Y-68035500D01*
X183833217Y-68035500D01*
X183455751Y-68191852D01*
X183166852Y-68480751D01*
X183010500Y-68858217D01*
X180877000Y-68858217D01*
X180877000Y-68825554D01*
X180743484Y-68503220D01*
X180702000Y-68461736D01*
X180702000Y-58557022D01*
X180773000Y-58557022D01*
X180773000Y-59442978D01*
X181112040Y-60261494D01*
X181738506Y-60887960D01*
X182557022Y-61227000D01*
X183442978Y-61227000D01*
X184261494Y-60887960D01*
X184887960Y-60261494D01*
X185227000Y-59442978D01*
X185227000Y-58557022D01*
X184887960Y-57738506D01*
X184261494Y-57112040D01*
X183442978Y-56773000D01*
X182557022Y-56773000D01*
X181738506Y-57112040D01*
X181112040Y-57738506D01*
X180773000Y-58557022D01*
X180702000Y-58557022D01*
X180702000Y-57069139D01*
X180737389Y-56891224D01*
X180799007Y-56799007D01*
X180891224Y-56737389D01*
X181069139Y-56702000D01*
X187704065Y-56702000D01*
X187355142Y-56935142D01*
G36*
X211355142Y-56935142D02*
X211028697Y-57423703D01*
X210914064Y-58000000D01*
X211028697Y-58576297D01*
X211355142Y-59064858D01*
X211823000Y-59377470D01*
X211823001Y-64424602D01*
X211729352Y-64518251D01*
X211573000Y-64895717D01*
X211573000Y-65304283D01*
X211729352Y-65681749D01*
X212018251Y-65970648D01*
X212395717Y-66127000D01*
X212804283Y-66127000D01*
X213181749Y-65970648D01*
X213470648Y-65681749D01*
X213627000Y-65304283D01*
X213627000Y-64895717D01*
X213470648Y-64518251D01*
X213377000Y-64424603D01*
X213377000Y-59136926D01*
X213484858Y-59064858D01*
X213690000Y-58757840D01*
X213895142Y-59064858D01*
X214383703Y-59391303D01*
X214814529Y-59477000D01*
X215105471Y-59477000D01*
X215536297Y-59391303D01*
X216024858Y-59064858D01*
X216046895Y-59031877D01*
X216059380Y-59094643D01*
X216197959Y-59302041D01*
X216405357Y-59440620D01*
X216650000Y-59489283D01*
X218350000Y-59489283D01*
X218594643Y-59440620D01*
X218802041Y-59302041D01*
X218940620Y-59094643D01*
X218989283Y-58850000D01*
X218989283Y-57150000D01*
X218940620Y-56905357D01*
X218804741Y-56702000D01*
X224930861Y-56702000D01*
X225108776Y-56737389D01*
X225200993Y-56799007D01*
X225262611Y-56891224D01*
X225298000Y-57069139D01*
X225298000Y-62695259D01*
X225094643Y-62559380D01*
X224850000Y-62510717D01*
X223150000Y-62510717D01*
X222905357Y-62559380D01*
X222697959Y-62697959D01*
X222559380Y-62905357D01*
X222510717Y-63150000D01*
X222510717Y-64390440D01*
X222004695Y-64896462D01*
X221939814Y-64939814D01*
X221768082Y-65196831D01*
X221747155Y-65302041D01*
X221707778Y-65500000D01*
X221723000Y-65576526D01*
X221723000Y-65870603D01*
X221581749Y-65729352D01*
X221204283Y-65573000D01*
X220795717Y-65573000D01*
X220418251Y-65729352D01*
X220324603Y-65823000D01*
X217775397Y-65823000D01*
X217681749Y-65729352D01*
X217304283Y-65573000D01*
X216895717Y-65573000D01*
X216518251Y-65729352D01*
X216229352Y-66018251D01*
X216073000Y-66395717D01*
X216073000Y-66804283D01*
X216229352Y-67181749D01*
X216518251Y-67470648D01*
X216895717Y-67627000D01*
X217304283Y-67627000D01*
X217681749Y-67470648D01*
X217775397Y-67377000D01*
X220324603Y-67377000D01*
X220418251Y-67470648D01*
X220795717Y-67627000D01*
X221204283Y-67627000D01*
X221581749Y-67470648D01*
X221723001Y-67329396D01*
X221723001Y-67378159D01*
X220228161Y-68873000D01*
X220095721Y-68873000D01*
X219718255Y-69029352D01*
X219429356Y-69318251D01*
X219273004Y-69695717D01*
X219273004Y-70104283D01*
X219429356Y-70481749D01*
X219718255Y-70770648D01*
X220095721Y-70927000D01*
X220504287Y-70927000D01*
X220881753Y-70770648D01*
X221170652Y-70481749D01*
X221327004Y-70104283D01*
X221327004Y-69971843D01*
X222564470Y-68734377D01*
X222679845Y-68953000D01*
X223873000Y-68953000D01*
X223873000Y-68933000D01*
X224127000Y-68933000D01*
X224127000Y-68953000D01*
X224147000Y-68953000D01*
X224147000Y-69207000D01*
X224127000Y-69207000D01*
X224127000Y-69227000D01*
X223873000Y-69227000D01*
X223873000Y-69207000D01*
X222679845Y-69207000D01*
X222558524Y-69436890D01*
X222728355Y-69846924D01*
X223118642Y-70275183D01*
X223256934Y-70340128D01*
X222935142Y-70555142D01*
X222608697Y-71043703D01*
X222494064Y-71620000D01*
X222608697Y-72196297D01*
X222935142Y-72684858D01*
X223242160Y-72890000D01*
X222935142Y-73095142D01*
X222608697Y-73583703D01*
X222494064Y-74160000D01*
X222608697Y-74736297D01*
X222935142Y-75224858D01*
X223423703Y-75551303D01*
X223854529Y-75637000D01*
X224145471Y-75637000D01*
X224576297Y-75551303D01*
X225064858Y-75224858D01*
X225298001Y-74875934D01*
X225298001Y-77695259D01*
X225094643Y-77559380D01*
X224850000Y-77510717D01*
X223150000Y-77510717D01*
X222905357Y-77559380D01*
X222697959Y-77697959D01*
X222559380Y-77905357D01*
X222510717Y-78150000D01*
X222510717Y-79850000D01*
X222559380Y-80094643D01*
X222697959Y-80302041D01*
X222905357Y-80440620D01*
X222968123Y-80453105D01*
X222935142Y-80475142D01*
X222608697Y-80963703D01*
X222494064Y-81540000D01*
X222608697Y-82116297D01*
X222935142Y-82604858D01*
X223256934Y-82819872D01*
X223118642Y-82884817D01*
X222728355Y-83313076D01*
X222558524Y-83723110D01*
X222679845Y-83953000D01*
X223873000Y-83953000D01*
X223873000Y-83933000D01*
X224127000Y-83933000D01*
X224127000Y-83953000D01*
X224147000Y-83953000D01*
X224147000Y-84207000D01*
X224127000Y-84207000D01*
X224127000Y-84227000D01*
X223873000Y-84227000D01*
X223873000Y-84207000D01*
X222679845Y-84207000D01*
X222558524Y-84436890D01*
X222728355Y-84846924D01*
X223118642Y-85275183D01*
X223167227Y-85298000D01*
X217538264Y-85298000D01*
X217496780Y-85256516D01*
X217174446Y-85123000D01*
X216825554Y-85123000D01*
X216503220Y-85256516D01*
X216500000Y-85259736D01*
X216496780Y-85256516D01*
X216232101Y-85146882D01*
X216354858Y-85064858D01*
X216681303Y-84576297D01*
X216795936Y-84000000D01*
X216681303Y-83423703D01*
X216354858Y-82935142D01*
X215866297Y-82608697D01*
X215606511Y-82557022D01*
X217773000Y-82557022D01*
X217773000Y-83442978D01*
X218112040Y-84261494D01*
X218738506Y-84887960D01*
X219557022Y-85227000D01*
X220442978Y-85227000D01*
X221261494Y-84887960D01*
X221887960Y-84261494D01*
X222227000Y-83442978D01*
X222227000Y-82557022D01*
X221887960Y-81738506D01*
X221261494Y-81112040D01*
X220442978Y-80773000D01*
X219557022Y-80773000D01*
X218738506Y-81112040D01*
X218112040Y-81738506D01*
X217773000Y-82557022D01*
X215606511Y-82557022D01*
X215435471Y-82523000D01*
X215144529Y-82523000D01*
X214713703Y-82608697D01*
X214225142Y-82935142D01*
X214203105Y-82968123D01*
X214190620Y-82905357D01*
X214052041Y-82697959D01*
X213844643Y-82559380D01*
X213600000Y-82510717D01*
X211900000Y-82510717D01*
X211655357Y-82559380D01*
X211447959Y-82697959D01*
X211309380Y-82905357D01*
X211260717Y-83150000D01*
X211260717Y-84850000D01*
X211309380Y-85094643D01*
X211445259Y-85298000D01*
X210304741Y-85298000D01*
X210440620Y-85094643D01*
X210489283Y-84850000D01*
X210489283Y-83150000D01*
X210440620Y-82905357D01*
X210302041Y-82697959D01*
X210094643Y-82559380D01*
X209850000Y-82510717D01*
X208150000Y-82510717D01*
X207905357Y-82559380D01*
X207697959Y-82697959D01*
X207559380Y-82905357D01*
X207538167Y-83012001D01*
X207226924Y-82728355D01*
X206816890Y-82558524D01*
X206587000Y-82679845D01*
X206587000Y-83873000D01*
X206607000Y-83873000D01*
X206607000Y-84127000D01*
X206587000Y-84127000D01*
X206587000Y-84147000D01*
X206333000Y-84147000D01*
X206333000Y-84127000D01*
X205139181Y-84127000D01*
X205018514Y-84356892D01*
X205264817Y-84881358D01*
X205693076Y-85271645D01*
X205756707Y-85298000D01*
X205069139Y-85298000D01*
X204891224Y-85262611D01*
X204799007Y-85200993D01*
X204737389Y-85108776D01*
X204702000Y-84930861D01*
X204702000Y-83643108D01*
X205018514Y-83643108D01*
X205139181Y-83873000D01*
X206333000Y-83873000D01*
X206333000Y-82679845D01*
X206103110Y-82558524D01*
X205693076Y-82728355D01*
X205264817Y-83118642D01*
X205018514Y-83643108D01*
X204702000Y-83643108D01*
X204702000Y-73538264D01*
X204743484Y-73496780D01*
X204877000Y-73174446D01*
X204877000Y-72825554D01*
X204743484Y-72503220D01*
X204740264Y-72500000D01*
X204743484Y-72496780D01*
X204877000Y-72174446D01*
X204877000Y-71825554D01*
X204743484Y-71503220D01*
X204740264Y-71500000D01*
X204743484Y-71496780D01*
X204877000Y-71174446D01*
X204877000Y-70825554D01*
X204743484Y-70503220D01*
X204740264Y-70500000D01*
X204743484Y-70496780D01*
X204877000Y-70174446D01*
X204877000Y-69825554D01*
X204743484Y-69503220D01*
X204740264Y-69500000D01*
X204743484Y-69496780D01*
X204877000Y-69174446D01*
X204877000Y-68858217D01*
X207010500Y-68858217D01*
X207010500Y-69266783D01*
X207166852Y-69644249D01*
X207455751Y-69933148D01*
X207833217Y-70089500D01*
X208241783Y-70089500D01*
X208513381Y-69977000D01*
X212533586Y-69977000D01*
X212895717Y-70127000D01*
X213304283Y-70127000D01*
X213681749Y-69970648D01*
X213970648Y-69681749D01*
X214127000Y-69304283D01*
X214127000Y-68895717D01*
X213970648Y-68518251D01*
X213681749Y-68229352D01*
X213304283Y-68073000D01*
X212895717Y-68073000D01*
X212533586Y-68223000D01*
X208650397Y-68223000D01*
X208619249Y-68191852D01*
X208241783Y-68035500D01*
X207833217Y-68035500D01*
X207455751Y-68191852D01*
X207166852Y-68480751D01*
X207010500Y-68858217D01*
X204877000Y-68858217D01*
X204877000Y-68825554D01*
X204743484Y-68503220D01*
X204702000Y-68461736D01*
X204702000Y-58557022D01*
X204773000Y-58557022D01*
X204773000Y-59442978D01*
X205112040Y-60261494D01*
X205738506Y-60887960D01*
X206557022Y-61227000D01*
X207442978Y-61227000D01*
X208261494Y-60887960D01*
X208887960Y-60261494D01*
X209227000Y-59442978D01*
X209227000Y-58557022D01*
X208887960Y-57738506D01*
X208261494Y-57112040D01*
X207442978Y-56773000D01*
X206557022Y-56773000D01*
X205738506Y-57112040D01*
X205112040Y-57738506D01*
X204773000Y-58557022D01*
X204702000Y-58557022D01*
X204702000Y-57069139D01*
X204737389Y-56891224D01*
X204799007Y-56799007D01*
X204891224Y-56737389D01*
X205069139Y-56702000D01*
X211704065Y-56702000D01*
X211355142Y-56935142D01*
X211355142Y-56935142D01*
G37*
X211355142Y-56935142D02*
X211028697Y-57423703D01*
X210914064Y-58000000D01*
X211028697Y-58576297D01*
X211355142Y-59064858D01*
X211823000Y-59377470D01*
X211823001Y-64424602D01*
X211729352Y-64518251D01*
X211573000Y-64895717D01*
X211573000Y-65304283D01*
X211729352Y-65681749D01*
X212018251Y-65970648D01*
X212395717Y-66127000D01*
X212804283Y-66127000D01*
X213181749Y-65970648D01*
X213470648Y-65681749D01*
X213627000Y-65304283D01*
X213627000Y-64895717D01*
X213470648Y-64518251D01*
X213377000Y-64424603D01*
X213377000Y-59136926D01*
X213484858Y-59064858D01*
X213690000Y-58757840D01*
X213895142Y-59064858D01*
X214383703Y-59391303D01*
X214814529Y-59477000D01*
X215105471Y-59477000D01*
X215536297Y-59391303D01*
X216024858Y-59064858D01*
X216046895Y-59031877D01*
X216059380Y-59094643D01*
X216197959Y-59302041D01*
X216405357Y-59440620D01*
X216650000Y-59489283D01*
X218350000Y-59489283D01*
X218594643Y-59440620D01*
X218802041Y-59302041D01*
X218940620Y-59094643D01*
X218989283Y-58850000D01*
X218989283Y-57150000D01*
X218940620Y-56905357D01*
X218804741Y-56702000D01*
X224930861Y-56702000D01*
X225108776Y-56737389D01*
X225200993Y-56799007D01*
X225262611Y-56891224D01*
X225298000Y-57069139D01*
X225298000Y-62695259D01*
X225094643Y-62559380D01*
X224850000Y-62510717D01*
X223150000Y-62510717D01*
X222905357Y-62559380D01*
X222697959Y-62697959D01*
X222559380Y-62905357D01*
X222510717Y-63150000D01*
X222510717Y-64390440D01*
X222004695Y-64896462D01*
X221939814Y-64939814D01*
X221768082Y-65196831D01*
X221747155Y-65302041D01*
X221707778Y-65500000D01*
X221723000Y-65576526D01*
X221723000Y-65870603D01*
X221581749Y-65729352D01*
X221204283Y-65573000D01*
X220795717Y-65573000D01*
X220418251Y-65729352D01*
X220324603Y-65823000D01*
X217775397Y-65823000D01*
X217681749Y-65729352D01*
X217304283Y-65573000D01*
X216895717Y-65573000D01*
X216518251Y-65729352D01*
X216229352Y-66018251D01*
X216073000Y-66395717D01*
X216073000Y-66804283D01*
X216229352Y-67181749D01*
X216518251Y-67470648D01*
X216895717Y-67627000D01*
X217304283Y-67627000D01*
X217681749Y-67470648D01*
X217775397Y-67377000D01*
X220324603Y-67377000D01*
X220418251Y-67470648D01*
X220795717Y-67627000D01*
X221204283Y-67627000D01*
X221581749Y-67470648D01*
X221723001Y-67329396D01*
X221723001Y-67378159D01*
X220228161Y-68873000D01*
X220095721Y-68873000D01*
X219718255Y-69029352D01*
X219429356Y-69318251D01*
X219273004Y-69695717D01*
X219273004Y-70104283D01*
X219429356Y-70481749D01*
X219718255Y-70770648D01*
X220095721Y-70927000D01*
X220504287Y-70927000D01*
X220881753Y-70770648D01*
X221170652Y-70481749D01*
X221327004Y-70104283D01*
X221327004Y-69971843D01*
X222564470Y-68734377D01*
X222679845Y-68953000D01*
X223873000Y-68953000D01*
X223873000Y-68933000D01*
X224127000Y-68933000D01*
X224127000Y-68953000D01*
X224147000Y-68953000D01*
X224147000Y-69207000D01*
X224127000Y-69207000D01*
X224127000Y-69227000D01*
X223873000Y-69227000D01*
X223873000Y-69207000D01*
X222679845Y-69207000D01*
X222558524Y-69436890D01*
X222728355Y-69846924D01*
X223118642Y-70275183D01*
X223256934Y-70340128D01*
X222935142Y-70555142D01*
X222608697Y-71043703D01*
X222494064Y-71620000D01*
X222608697Y-72196297D01*
X222935142Y-72684858D01*
X223242160Y-72890000D01*
X222935142Y-73095142D01*
X222608697Y-73583703D01*
X222494064Y-74160000D01*
X222608697Y-74736297D01*
X222935142Y-75224858D01*
X223423703Y-75551303D01*
X223854529Y-75637000D01*
X224145471Y-75637000D01*
X224576297Y-75551303D01*
X225064858Y-75224858D01*
X225298001Y-74875934D01*
X225298001Y-77695259D01*
X225094643Y-77559380D01*
X224850000Y-77510717D01*
X223150000Y-77510717D01*
X222905357Y-77559380D01*
X222697959Y-77697959D01*
X222559380Y-77905357D01*
X222510717Y-78150000D01*
X222510717Y-79850000D01*
X222559380Y-80094643D01*
X222697959Y-80302041D01*
X222905357Y-80440620D01*
X222968123Y-80453105D01*
X222935142Y-80475142D01*
X222608697Y-80963703D01*
X222494064Y-81540000D01*
X222608697Y-82116297D01*
X222935142Y-82604858D01*
X223256934Y-82819872D01*
X223118642Y-82884817D01*
X222728355Y-83313076D01*
X222558524Y-83723110D01*
X222679845Y-83953000D01*
X223873000Y-83953000D01*
X223873000Y-83933000D01*
X224127000Y-83933000D01*
X224127000Y-83953000D01*
X224147000Y-83953000D01*
X224147000Y-84207000D01*
X224127000Y-84207000D01*
X224127000Y-84227000D01*
X223873000Y-84227000D01*
X223873000Y-84207000D01*
X222679845Y-84207000D01*
X222558524Y-84436890D01*
X222728355Y-84846924D01*
X223118642Y-85275183D01*
X223167227Y-85298000D01*
X217538264Y-85298000D01*
X217496780Y-85256516D01*
X217174446Y-85123000D01*
X216825554Y-85123000D01*
X216503220Y-85256516D01*
X216500000Y-85259736D01*
X216496780Y-85256516D01*
X216232101Y-85146882D01*
X216354858Y-85064858D01*
X216681303Y-84576297D01*
X216795936Y-84000000D01*
X216681303Y-83423703D01*
X216354858Y-82935142D01*
X215866297Y-82608697D01*
X215606511Y-82557022D01*
X217773000Y-82557022D01*
X217773000Y-83442978D01*
X218112040Y-84261494D01*
X218738506Y-84887960D01*
X219557022Y-85227000D01*
X220442978Y-85227000D01*
X221261494Y-84887960D01*
X221887960Y-84261494D01*
X222227000Y-83442978D01*
X222227000Y-82557022D01*
X221887960Y-81738506D01*
X221261494Y-81112040D01*
X220442978Y-80773000D01*
X219557022Y-80773000D01*
X218738506Y-81112040D01*
X218112040Y-81738506D01*
X217773000Y-82557022D01*
X215606511Y-82557022D01*
X215435471Y-82523000D01*
X215144529Y-82523000D01*
X214713703Y-82608697D01*
X214225142Y-82935142D01*
X214203105Y-82968123D01*
X214190620Y-82905357D01*
X214052041Y-82697959D01*
X213844643Y-82559380D01*
X213600000Y-82510717D01*
X211900000Y-82510717D01*
X211655357Y-82559380D01*
X211447959Y-82697959D01*
X211309380Y-82905357D01*
X211260717Y-83150000D01*
X211260717Y-84850000D01*
X211309380Y-85094643D01*
X211445259Y-85298000D01*
X210304741Y-85298000D01*
X210440620Y-85094643D01*
X210489283Y-84850000D01*
X210489283Y-83150000D01*
X210440620Y-82905357D01*
X210302041Y-82697959D01*
X210094643Y-82559380D01*
X209850000Y-82510717D01*
X208150000Y-82510717D01*
X207905357Y-82559380D01*
X207697959Y-82697959D01*
X207559380Y-82905357D01*
X207538167Y-83012001D01*
X207226924Y-82728355D01*
X206816890Y-82558524D01*
X206587000Y-82679845D01*
X206587000Y-83873000D01*
X206607000Y-83873000D01*
X206607000Y-84127000D01*
X206587000Y-84127000D01*
X206587000Y-84147000D01*
X206333000Y-84147000D01*
X206333000Y-84127000D01*
X205139181Y-84127000D01*
X205018514Y-84356892D01*
X205264817Y-84881358D01*
X205693076Y-85271645D01*
X205756707Y-85298000D01*
X205069139Y-85298000D01*
X204891224Y-85262611D01*
X204799007Y-85200993D01*
X204737389Y-85108776D01*
X204702000Y-84930861D01*
X204702000Y-83643108D01*
X205018514Y-83643108D01*
X205139181Y-83873000D01*
X206333000Y-83873000D01*
X206333000Y-82679845D01*
X206103110Y-82558524D01*
X205693076Y-82728355D01*
X205264817Y-83118642D01*
X205018514Y-83643108D01*
X204702000Y-83643108D01*
X204702000Y-73538264D01*
X204743484Y-73496780D01*
X204877000Y-73174446D01*
X204877000Y-72825554D01*
X204743484Y-72503220D01*
X204740264Y-72500000D01*
X204743484Y-72496780D01*
X204877000Y-72174446D01*
X204877000Y-71825554D01*
X204743484Y-71503220D01*
X204740264Y-71500000D01*
X204743484Y-71496780D01*
X204877000Y-71174446D01*
X204877000Y-70825554D01*
X204743484Y-70503220D01*
X204740264Y-70500000D01*
X204743484Y-70496780D01*
X204877000Y-70174446D01*
X204877000Y-69825554D01*
X204743484Y-69503220D01*
X204740264Y-69500000D01*
X204743484Y-69496780D01*
X204877000Y-69174446D01*
X204877000Y-68858217D01*
X207010500Y-68858217D01*
X207010500Y-69266783D01*
X207166852Y-69644249D01*
X207455751Y-69933148D01*
X207833217Y-70089500D01*
X208241783Y-70089500D01*
X208513381Y-69977000D01*
X212533586Y-69977000D01*
X212895717Y-70127000D01*
X213304283Y-70127000D01*
X213681749Y-69970648D01*
X213970648Y-69681749D01*
X214127000Y-69304283D01*
X214127000Y-68895717D01*
X213970648Y-68518251D01*
X213681749Y-68229352D01*
X213304283Y-68073000D01*
X212895717Y-68073000D01*
X212533586Y-68223000D01*
X208650397Y-68223000D01*
X208619249Y-68191852D01*
X208241783Y-68035500D01*
X207833217Y-68035500D01*
X207455751Y-68191852D01*
X207166852Y-68480751D01*
X207010500Y-68858217D01*
X204877000Y-68858217D01*
X204877000Y-68825554D01*
X204743484Y-68503220D01*
X204702000Y-68461736D01*
X204702000Y-58557022D01*
X204773000Y-58557022D01*
X204773000Y-59442978D01*
X205112040Y-60261494D01*
X205738506Y-60887960D01*
X206557022Y-61227000D01*
X207442978Y-61227000D01*
X208261494Y-60887960D01*
X208887960Y-60261494D01*
X209227000Y-59442978D01*
X209227000Y-58557022D01*
X208887960Y-57738506D01*
X208261494Y-57112040D01*
X207442978Y-56773000D01*
X206557022Y-56773000D01*
X205738506Y-57112040D01*
X205112040Y-57738506D01*
X204773000Y-58557022D01*
X204702000Y-58557022D01*
X204702000Y-57069139D01*
X204737389Y-56891224D01*
X204799007Y-56799007D01*
X204891224Y-56737389D01*
X205069139Y-56702000D01*
X211704065Y-56702000D01*
X211355142Y-56935142D01*
M02*
