G04 #@! TF.GenerationSoftware,KiCad,Pcbnew,5.0.2-bee76a0~70~ubuntu18.04.1*
G04 #@! TF.CreationDate,2019-07-19T10:53:47+02:00*
G04 #@! TF.ProjectId,AutoGardener_Outdoor_panel,4175746f-4761-4726-9465-6e65725f4f75,rev?*
G04 #@! TF.SameCoordinates,Original*
G04 #@! TF.FileFunction,Profile,NP*
%FSLAX46Y46*%
G04 Gerber Fmt 4.6, Leading zero omitted, Abs format (unit mm)*
G04 Created by KiCad (PCBNEW 5.0.2-bee76a0~70~ubuntu18.04.1) date Fri 19 Jul 2019 10:53:47 CEST*
%MOMM*%
%LPD*%
G01*
G04 APERTURE LIST*
%ADD10C,0.001000*%
G04 APERTURE END LIST*
D10*
X205000000Y-118000000D02*
X225000000Y-118000000D01*
X181000000Y-118000000D02*
X201000000Y-118000000D01*
X226000000Y-89000000D02*
X226000000Y-117000000D01*
X226000000Y-57000000D02*
X226000000Y-85000000D01*
X201000000Y-86000000D02*
G75*
G03X202000000Y-85000000I0J1000000D01*
G01*
X204000000Y-73750000D02*
X204000000Y-85000000D01*
X193750000Y-86000000D02*
G75*
G03X193750000Y-88000000I0J-1000000D01*
G01*
X212250000Y-86000000D02*
X205000000Y-86000000D01*
X181000000Y-86000000D02*
G75*
G02X180000000Y-85000000I0J1000000D01*
G01*
X205000000Y-86000000D02*
G75*
G02X204000000Y-85000000I0J1000000D01*
G01*
X202000000Y-73750000D02*
X202000000Y-85000000D01*
X205000000Y-56000000D02*
G75*
G03X204000000Y-57000000I0J-1000000D01*
G01*
X225000000Y-88000000D02*
X217750000Y-88000000D01*
X188250000Y-86000000D02*
X181000000Y-86000000D01*
X204000000Y-68250000D02*
G75*
G02X202000000Y-68250000I-1000000J0D01*
G01*
X188250000Y-86000000D02*
G75*
G02X188250000Y-88000000I0J-1000000D01*
G01*
X204000000Y-68250000D02*
X204000000Y-57000000D01*
X212250000Y-86000000D02*
G75*
G02X212250000Y-88000000I0J-1000000D01*
G01*
X202000000Y-73750000D02*
G75*
G02X204000000Y-73750000I1000000J0D01*
G01*
X217750000Y-86000000D02*
X225000000Y-86000000D01*
X201000000Y-56000000D02*
G75*
G02X202000000Y-57000000I0J-1000000D01*
G01*
X193750000Y-86000000D02*
X201000000Y-86000000D01*
X180000000Y-85000000D02*
X180000000Y-57000000D01*
X201000000Y-88000000D02*
X193750000Y-88000000D01*
X181000000Y-56000000D02*
G75*
G03X180000000Y-57000000I0J-1000000D01*
G01*
X202000000Y-68250000D02*
X202000000Y-57000000D01*
X181000000Y-88000000D02*
X188250000Y-88000000D01*
X204000000Y-73750000D02*
G75*
G03X202000000Y-73750000I-1000000J0D01*
G01*
X202000000Y-73750000D02*
X202000000Y-85000000D01*
X225000000Y-56000000D02*
G75*
G02X226000000Y-57000000I0J-1000000D01*
G01*
X201000000Y-56000000D02*
X181000000Y-56000000D01*
X202000000Y-68250000D02*
G75*
G03X204000000Y-68250000I1000000J0D01*
G01*
X202000000Y-68250000D02*
X202000000Y-57000000D01*
X204000000Y-68250000D02*
X204000000Y-57000000D01*
X204000000Y-73750000D02*
X204000000Y-85000000D01*
X225000000Y-56000000D02*
X205000000Y-56000000D01*
X205000000Y-88000000D02*
X212250000Y-88000000D01*
X217750000Y-86000000D02*
G75*
G03X217750000Y-88000000I0J-1000000D01*
G01*
X225000000Y-86000000D02*
G75*
G03X226000000Y-85000000I0J1000000D01*
G01*
X201000000Y-118000000D02*
G75*
G03X202000000Y-117000000I0J1000000D01*
G01*
X204000000Y-105750000D02*
X204000000Y-117000000D01*
X181000000Y-118000000D02*
G75*
G02X180000000Y-117000000I0J1000000D01*
G01*
X205000000Y-118000000D02*
G75*
G02X204000000Y-117000000I0J1000000D01*
G01*
X202000000Y-105750000D02*
X202000000Y-117000000D01*
X201000000Y-86000000D02*
X193750000Y-86000000D01*
X205000000Y-88000000D02*
G75*
G03X204000000Y-89000000I0J-1000000D01*
G01*
X217750000Y-88000000D02*
G75*
G02X217750000Y-86000000I0J1000000D01*
G01*
X204000000Y-100250000D02*
G75*
G02X202000000Y-100250000I-1000000J0D01*
G01*
X204000000Y-100250000D02*
X204000000Y-89000000D01*
X180000000Y-89000000D02*
X180000000Y-117000000D01*
X202000000Y-105750000D02*
G75*
G02X204000000Y-105750000I1000000J0D01*
G01*
X212250000Y-88000000D02*
G75*
G03X212250000Y-86000000I0J1000000D01*
G01*
X201000000Y-88000000D02*
G75*
G02X202000000Y-89000000I0J-1000000D01*
G01*
X181000000Y-88000000D02*
G75*
G03X180000000Y-89000000I0J-1000000D01*
G01*
X202000000Y-100250000D02*
X202000000Y-89000000D01*
X204000000Y-105750000D02*
G75*
G03X202000000Y-105750000I-1000000J0D01*
G01*
X193750000Y-88000000D02*
X201000000Y-88000000D01*
X202000000Y-105750000D02*
X202000000Y-117000000D01*
X225000000Y-88000000D02*
G75*
G02X226000000Y-89000000I0J-1000000D01*
G01*
X188250000Y-88000000D02*
G75*
G03X188250000Y-86000000I0J1000000D01*
G01*
X188250000Y-88000000D02*
X181000000Y-88000000D01*
X202000000Y-100250000D02*
G75*
G03X204000000Y-100250000I1000000J0D01*
G01*
X217750000Y-88000000D02*
X225000000Y-88000000D01*
X202000000Y-100250000D02*
X202000000Y-89000000D01*
X181000000Y-86000000D02*
X188250000Y-86000000D01*
X205000000Y-86000000D02*
X212250000Y-86000000D01*
X204000000Y-100250000D02*
X204000000Y-89000000D01*
X193750000Y-88000000D02*
G75*
G02X193750000Y-86000000I0J1000000D01*
G01*
X204000000Y-105750000D02*
X204000000Y-117000000D01*
X212250000Y-88000000D02*
X205000000Y-88000000D01*
X225000000Y-118000000D02*
G75*
G03X226000000Y-117000000I0J1000000D01*
G01*
X225000000Y-86000000D02*
X217750000Y-86000000D01*
M02*
