M48
;DRILL file {KiCad 5.0.2-bee76a0~70~ubuntu18.04.1} date Fri 19 Jul 2019 10:53:49 CEST
;FORMAT={-:-/ absolute / metric / decimal}
FMAT,2
METRIC,TZ
T1C0.500
T2C3.200
%
G90
G05
T1
X202.Y-101.
X202.Y-102.
X202.Y-103.
X202.Y-104.
X202.Y-105.
X189.Y-86.
X190.Y-86.
X191.Y-86.
X192.Y-86.
X193.Y-86.
X204.Y-101.
X204.Y-102.
X204.Y-103.
X204.Y-104.
X204.Y-105.
X202.Y-69.
X202.Y-70.
X202.Y-71.
X202.Y-72.
X202.Y-73.
X204.Y-69.
X204.Y-70.
X204.Y-71.
X204.Y-72.
X204.Y-73.
X213.Y-86.
X214.Y-86.
X215.Y-86.
X216.Y-86.
X217.Y-86.
X189.Y-88.
X190.Y-88.
X191.Y-88.
X192.Y-88.
X193.Y-88.
X213.Y-88.
X214.Y-88.
X215.Y-88.
X216.Y-88.
X217.Y-88.
T2
X220.Y-115.
X183.Y-91.
X220.Y-83.
X207.Y-91.
X196.Y-83.
X183.Y-59.
X207.Y-59.
X196.Y-115.
T0
M30
