M48
;DRILL file {KiCad 5.0.2-bee76a0~70~ubuntu18.04.1} date Fri 19 Jul 2019 10:53:49 CEST
;FORMAT={-:-/ absolute / metric / decimal}
FMAT,2
METRIC,TZ
T1C0.400
T2C1.000
%
G90
G05
T1
X181.Y-57.
X181.Y-62.
X181.Y-68.
X181.Y-73.
X181.Y-78.
X181.Y-83.
X181.Y-89.
X181.Y-94.
X181.Y-100.
X181.Y-105.
X181.Y-110.
X181.Y-115.
X183.Y-62.5
X183.Y-94.5
X184.037Y-69.062
X184.037Y-101.062
X185.Y-57.
X185.Y-89.
X186.Y-73.5
X186.Y-105.5
X186.5Y-62.5
X186.5Y-94.5
X187.Y-80.
X187.Y-82.
X187.Y-112.
X187.Y-114.
X188.6Y-65.1
X188.6Y-97.1
X189.1Y-69.1
X189.1Y-101.1
X190.Y-61.
X190.Y-67.5
X190.Y-93.
X190.Y-99.5
X191.Y-73.
X191.Y-105.
X191.5Y-65.5
X191.5Y-97.5
X192.5Y-61.
X192.5Y-93.
X193.Y-68.
X193.Y-81.
X193.Y-83.
X193.Y-100.
X193.Y-113.
X193.Y-115.
X193.1Y-66.6
X193.1Y-98.6
X195.Y-60.
X195.Y-77.5
X195.Y-92.
X195.Y-109.5
X196.Y-58.
X196.Y-90.
X196.3Y-69.9
X196.3Y-101.9
X196.5Y-80.
X196.5Y-112.
X197.Y-66.6
X197.Y-98.6
X198.Y-59.
X198.Y-91.
X200.Y-58.
X200.Y-90.
X205.Y-57.
X205.Y-62.
X205.Y-68.
X205.Y-73.
X205.Y-78.
X205.Y-83.
X205.Y-89.
X205.Y-94.
X205.Y-100.
X205.Y-105.
X205.Y-110.
X205.Y-115.
X207.Y-62.5
X207.Y-94.5
X208.037Y-69.062
X208.037Y-101.062
X209.Y-57.
X209.Y-89.
X210.Y-73.5
X210.Y-105.5
X210.5Y-62.5
X210.5Y-94.5
X211.Y-80.
X211.Y-82.
X211.Y-112.
X211.Y-114.
X212.6Y-65.1
X212.6Y-97.1
X213.1Y-69.1
X213.1Y-101.1
X214.Y-61.
X214.Y-67.5
X214.Y-93.
X214.Y-99.5
X215.Y-73.
X215.Y-105.
X215.5Y-65.5
X215.5Y-97.5
X216.5Y-61.
X216.5Y-93.
X217.Y-68.
X217.Y-81.
X217.Y-83.
X217.Y-100.
X217.Y-113.
X217.Y-115.
X217.1Y-66.6
X217.1Y-98.6
X219.Y-60.
X219.Y-77.5
X219.Y-92.
X219.Y-109.5
X220.Y-58.
X220.Y-90.
X220.3Y-69.9
X220.3Y-101.9
X220.5Y-80.
X220.5Y-112.
X221.Y-66.6
X221.Y-98.6
X222.Y-59.
X222.Y-91.
X224.Y-58.
X224.Y-90.
T2
X212.75Y-116.
X215.29Y-116.
X206.46Y-84.
X209.Y-84.
X182.46Y-116.
X185.Y-116.
X224.Y-96.
X224.Y-98.54
X224.Y-101.08
X224.Y-103.62
X224.Y-106.16
X212.75Y-84.
X215.29Y-84.
X200.Y-96.
X200.Y-98.54
X200.Y-101.08
X200.Y-103.62
X200.Y-106.16
X200.Y-79.
X200.Y-81.54
X200.Y-84.08
X188.42Y-58.
X190.96Y-58.
X193.5Y-58.
X212.42Y-58.
X214.96Y-58.
X217.5Y-58.
X188.42Y-90.
X190.96Y-90.
X193.5Y-90.
X200.Y-64.
X200.Y-66.54
X200.Y-69.08
X200.Y-71.62
X200.Y-74.16
X212.42Y-90.
X214.96Y-90.
X217.5Y-90.
X224.Y-64.
X224.Y-66.54
X224.Y-69.08
X224.Y-71.62
X224.Y-74.16
X188.75Y-84.
X191.29Y-84.
X224.Y-79.
X224.Y-81.54
X224.Y-84.08
X188.75Y-116.
X191.29Y-116.
X224.Y-111.
X224.Y-113.54
X224.Y-116.08
X200.Y-111.
X200.Y-113.54
X200.Y-116.08
X206.46Y-116.
X209.Y-116.
X182.46Y-84.
X185.Y-84.
T0
M30
