G04 #@! TF.GenerationSoftware,KiCad,Pcbnew,5.0.2-bee76a0~70~ubuntu18.04.1*
G04 #@! TF.CreationDate,2019-04-10T23:22:57+02:00*
G04 #@! TF.ProjectId,Plant_monitoring_device,506c616e-745f-46d6-9f6e-69746f72696e,rev?*
G04 #@! TF.SameCoordinates,Original*
G04 #@! TF.FileFunction,Soldermask,Top*
G04 #@! TF.FilePolarity,Negative*
%FSLAX46Y46*%
G04 Gerber Fmt 4.6, Leading zero omitted, Abs format (unit mm)*
G04 Created by KiCad (PCBNEW 5.0.2-bee76a0~70~ubuntu18.04.1) date St 10. dubna 2019, 23:22:57 CEST*
%MOMM*%
%LPD*%
G01*
G04 APERTURE LIST*
%ADD10C,0.100000*%
G04 APERTURE END LIST*
D10*
G04 #@! TO.C,SB2*
G36*
X205975000Y-125350000D02*
X205025000Y-125350000D01*
X205025000Y-124900000D01*
X205500000Y-125300000D01*
X205975000Y-124900000D01*
X205975000Y-125350000D01*
G37*
G36*
X205975000Y-124650000D02*
X205025000Y-124650000D01*
X205500000Y-125010000D01*
X205975000Y-124650000D01*
G37*
G04 #@! TO.C,SB1*
G36*
X233165000Y-140380000D02*
X232215000Y-140380000D01*
X232690000Y-140740000D01*
X233165000Y-140380000D01*
G37*
G36*
X233165000Y-141080000D02*
X232215000Y-141080000D01*
X232215000Y-140630000D01*
X232690000Y-141030000D01*
X233165000Y-140630000D01*
X233165000Y-141080000D01*
G37*
G04 #@! TO.C,SB3*
G36*
X212182270Y-122866282D02*
X213132270Y-122866282D01*
X212657270Y-122506282D01*
X212182270Y-122866282D01*
G37*
G36*
X212182270Y-122166282D02*
X213132270Y-122166282D01*
X213132270Y-122616282D01*
X212657270Y-122216282D01*
X212182270Y-122616282D01*
X212182270Y-122166282D01*
G37*
G04 #@! TO.C,SB4*
G36*
X219182270Y-122866282D02*
X220132270Y-122866282D01*
X219657270Y-122506282D01*
X219182270Y-122866282D01*
G37*
G36*
X219182270Y-122166282D02*
X220132270Y-122166282D01*
X220132270Y-122616282D01*
X219657270Y-122216282D01*
X219182270Y-122616282D01*
X219182270Y-122166282D01*
G37*
G04 #@! TO.C,SB5*
G36*
X226182270Y-122866282D02*
X227132270Y-122866282D01*
X226657270Y-122506282D01*
X226182270Y-122866282D01*
G37*
G36*
X226182270Y-122166282D02*
X227132270Y-122166282D01*
X227132270Y-122616282D01*
X226657270Y-122216282D01*
X226182270Y-122616282D01*
X226182270Y-122166282D01*
G37*
G04 #@! TO.C,SB6*
G36*
X233182270Y-122866282D02*
X234132270Y-122866282D01*
X233657270Y-122506282D01*
X233182270Y-122866282D01*
G37*
G36*
X233182270Y-122166282D02*
X234132270Y-122166282D01*
X234132270Y-122616282D01*
X233657270Y-122216282D01*
X233182270Y-122616282D01*
X233182270Y-122166282D01*
G37*
G36*
X213051000Y-149551000D02*
X210949000Y-149551000D01*
X210949000Y-147449000D01*
X213051000Y-147449000D01*
X213051000Y-149551000D01*
X213051000Y-149551000D01*
G37*
G36*
X199606565Y-147489389D02*
X199797834Y-147568615D01*
X199969976Y-147683637D01*
X200116363Y-147830024D01*
X200231385Y-148002166D01*
X200310611Y-148193435D01*
X200351000Y-148396484D01*
X200351000Y-148603516D01*
X200310611Y-148806565D01*
X200231385Y-148997834D01*
X200116363Y-149169976D01*
X199969976Y-149316363D01*
X199797834Y-149431385D01*
X199606565Y-149510611D01*
X199403516Y-149551000D01*
X199196484Y-149551000D01*
X198993435Y-149510611D01*
X198802166Y-149431385D01*
X198630024Y-149316363D01*
X198483637Y-149169976D01*
X198368615Y-148997834D01*
X198289389Y-148806565D01*
X198249000Y-148603516D01*
X198249000Y-148396484D01*
X198289389Y-148193435D01*
X198368615Y-148002166D01*
X198483637Y-147830024D01*
X198630024Y-147683637D01*
X198802166Y-147568615D01*
X198993435Y-147489389D01*
X199196484Y-147449000D01*
X199403516Y-147449000D01*
X199606565Y-147489389D01*
X199606565Y-147489389D01*
G37*
G36*
X230748228Y-146681703D02*
X230903100Y-146745853D01*
X231042481Y-146838985D01*
X231161015Y-146957519D01*
X231254147Y-147096900D01*
X231318297Y-147251772D01*
X231351000Y-147416184D01*
X231351000Y-147583816D01*
X231318297Y-147748228D01*
X231254147Y-147903100D01*
X231161015Y-148042481D01*
X231042481Y-148161015D01*
X230903100Y-148254147D01*
X230748228Y-148318297D01*
X230583816Y-148351000D01*
X230416184Y-148351000D01*
X230251772Y-148318297D01*
X230096900Y-148254147D01*
X229957519Y-148161015D01*
X229838985Y-148042481D01*
X229745853Y-147903100D01*
X229681703Y-147748228D01*
X229649000Y-147583816D01*
X229649000Y-147416184D01*
X229681703Y-147251772D01*
X229745853Y-147096900D01*
X229838985Y-146957519D01*
X229957519Y-146838985D01*
X230096900Y-146745853D01*
X230251772Y-146681703D01*
X230416184Y-146649000D01*
X230583816Y-146649000D01*
X230748228Y-146681703D01*
X230748228Y-146681703D01*
G37*
G36*
X259708228Y-146681703D02*
X259863100Y-146745853D01*
X260002481Y-146838985D01*
X260121015Y-146957519D01*
X260214147Y-147096900D01*
X260278297Y-147251772D01*
X260311000Y-147416184D01*
X260311000Y-147583816D01*
X260278297Y-147748228D01*
X260214147Y-147903100D01*
X260121015Y-148042481D01*
X260002481Y-148161015D01*
X259863100Y-148254147D01*
X259708228Y-148318297D01*
X259543816Y-148351000D01*
X259376184Y-148351000D01*
X259211772Y-148318297D01*
X259056900Y-148254147D01*
X258917519Y-148161015D01*
X258798985Y-148042481D01*
X258705853Y-147903100D01*
X258641703Y-147748228D01*
X258609000Y-147583816D01*
X258609000Y-147416184D01*
X258641703Y-147251772D01*
X258705853Y-147096900D01*
X258798985Y-146957519D01*
X258917519Y-146838985D01*
X259056900Y-146745853D01*
X259211772Y-146681703D01*
X259376184Y-146649000D01*
X259543816Y-146649000D01*
X259708228Y-146681703D01*
X259708228Y-146681703D01*
G37*
G36*
X241748228Y-146681703D02*
X241903100Y-146745853D01*
X242042481Y-146838985D01*
X242161015Y-146957519D01*
X242254147Y-147096900D01*
X242318297Y-147251772D01*
X242351000Y-147416184D01*
X242351000Y-147583816D01*
X242318297Y-147748228D01*
X242254147Y-147903100D01*
X242161015Y-148042481D01*
X242042481Y-148161015D01*
X241903100Y-148254147D01*
X241748228Y-148318297D01*
X241583816Y-148351000D01*
X241416184Y-148351000D01*
X241251772Y-148318297D01*
X241096900Y-148254147D01*
X240957519Y-148161015D01*
X240838985Y-148042481D01*
X240745853Y-147903100D01*
X240681703Y-147748228D01*
X240649000Y-147583816D01*
X240649000Y-147416184D01*
X240681703Y-147251772D01*
X240745853Y-147096900D01*
X240838985Y-146957519D01*
X240957519Y-146838985D01*
X241096900Y-146745853D01*
X241251772Y-146681703D01*
X241416184Y-146649000D01*
X241583816Y-146649000D01*
X241748228Y-146681703D01*
X241748228Y-146681703D01*
G37*
G36*
X239748228Y-146681703D02*
X239903100Y-146745853D01*
X240042481Y-146838985D01*
X240161015Y-146957519D01*
X240254147Y-147096900D01*
X240318297Y-147251772D01*
X240351000Y-147416184D01*
X240351000Y-147583816D01*
X240318297Y-147748228D01*
X240254147Y-147903100D01*
X240161015Y-148042481D01*
X240042481Y-148161015D01*
X239903100Y-148254147D01*
X239748228Y-148318297D01*
X239583816Y-148351000D01*
X239416184Y-148351000D01*
X239251772Y-148318297D01*
X239096900Y-148254147D01*
X238957519Y-148161015D01*
X238838985Y-148042481D01*
X238745853Y-147903100D01*
X238681703Y-147748228D01*
X238649000Y-147583816D01*
X238649000Y-147416184D01*
X238681703Y-147251772D01*
X238745853Y-147096900D01*
X238838985Y-146957519D01*
X238957519Y-146838985D01*
X239096900Y-146745853D01*
X239251772Y-146681703D01*
X239416184Y-146649000D01*
X239583816Y-146649000D01*
X239748228Y-146681703D01*
X239748228Y-146681703D01*
G37*
G36*
X257708228Y-146681703D02*
X257863100Y-146745853D01*
X258002481Y-146838985D01*
X258121015Y-146957519D01*
X258214147Y-147096900D01*
X258278297Y-147251772D01*
X258311000Y-147416184D01*
X258311000Y-147583816D01*
X258278297Y-147748228D01*
X258214147Y-147903100D01*
X258121015Y-148042481D01*
X258002481Y-148161015D01*
X257863100Y-148254147D01*
X257708228Y-148318297D01*
X257543816Y-148351000D01*
X257376184Y-148351000D01*
X257211772Y-148318297D01*
X257056900Y-148254147D01*
X256917519Y-148161015D01*
X256798985Y-148042481D01*
X256705853Y-147903100D01*
X256641703Y-147748228D01*
X256609000Y-147583816D01*
X256609000Y-147416184D01*
X256641703Y-147251772D01*
X256705853Y-147096900D01*
X256798985Y-146957519D01*
X256917519Y-146838985D01*
X257056900Y-146745853D01*
X257211772Y-146681703D01*
X257376184Y-146649000D01*
X257543816Y-146649000D01*
X257708228Y-146681703D01*
X257708228Y-146681703D01*
G37*
G36*
X248748228Y-146681703D02*
X248903100Y-146745853D01*
X249042481Y-146838985D01*
X249161015Y-146957519D01*
X249254147Y-147096900D01*
X249318297Y-147251772D01*
X249351000Y-147416184D01*
X249351000Y-147583816D01*
X249318297Y-147748228D01*
X249254147Y-147903100D01*
X249161015Y-148042481D01*
X249042481Y-148161015D01*
X248903100Y-148254147D01*
X248748228Y-148318297D01*
X248583816Y-148351000D01*
X248416184Y-148351000D01*
X248251772Y-148318297D01*
X248096900Y-148254147D01*
X247957519Y-148161015D01*
X247838985Y-148042481D01*
X247745853Y-147903100D01*
X247681703Y-147748228D01*
X247649000Y-147583816D01*
X247649000Y-147416184D01*
X247681703Y-147251772D01*
X247745853Y-147096900D01*
X247838985Y-146957519D01*
X247957519Y-146838985D01*
X248096900Y-146745853D01*
X248251772Y-146681703D01*
X248416184Y-146649000D01*
X248583816Y-146649000D01*
X248748228Y-146681703D01*
X248748228Y-146681703D01*
G37*
G36*
X232748228Y-146681703D02*
X232903100Y-146745853D01*
X233042481Y-146838985D01*
X233161015Y-146957519D01*
X233254147Y-147096900D01*
X233318297Y-147251772D01*
X233351000Y-147416184D01*
X233351000Y-147583816D01*
X233318297Y-147748228D01*
X233254147Y-147903100D01*
X233161015Y-148042481D01*
X233042481Y-148161015D01*
X232903100Y-148254147D01*
X232748228Y-148318297D01*
X232583816Y-148351000D01*
X232416184Y-148351000D01*
X232251772Y-148318297D01*
X232096900Y-148254147D01*
X231957519Y-148161015D01*
X231838985Y-148042481D01*
X231745853Y-147903100D01*
X231681703Y-147748228D01*
X231649000Y-147583816D01*
X231649000Y-147416184D01*
X231681703Y-147251772D01*
X231745853Y-147096900D01*
X231838985Y-146957519D01*
X231957519Y-146838985D01*
X232096900Y-146745853D01*
X232251772Y-146681703D01*
X232416184Y-146649000D01*
X232583816Y-146649000D01*
X232748228Y-146681703D01*
X232748228Y-146681703D01*
G37*
G36*
X250748228Y-146681703D02*
X250903100Y-146745853D01*
X251042481Y-146838985D01*
X251161015Y-146957519D01*
X251254147Y-147096900D01*
X251318297Y-147251772D01*
X251351000Y-147416184D01*
X251351000Y-147583816D01*
X251318297Y-147748228D01*
X251254147Y-147903100D01*
X251161015Y-148042481D01*
X251042481Y-148161015D01*
X250903100Y-148254147D01*
X250748228Y-148318297D01*
X250583816Y-148351000D01*
X250416184Y-148351000D01*
X250251772Y-148318297D01*
X250096900Y-148254147D01*
X249957519Y-148161015D01*
X249838985Y-148042481D01*
X249745853Y-147903100D01*
X249681703Y-147748228D01*
X249649000Y-147583816D01*
X249649000Y-147416184D01*
X249681703Y-147251772D01*
X249745853Y-147096900D01*
X249838985Y-146957519D01*
X249957519Y-146838985D01*
X250096900Y-146745853D01*
X250251772Y-146681703D01*
X250416184Y-146649000D01*
X250583816Y-146649000D01*
X250748228Y-146681703D01*
X250748228Y-146681703D01*
G37*
G36*
X237737142Y-146718242D02*
X237885102Y-146779530D01*
X238018258Y-146868502D01*
X238131498Y-146981742D01*
X238220470Y-147114898D01*
X238281758Y-147262858D01*
X238313000Y-147419925D01*
X238313000Y-147580075D01*
X238281758Y-147737142D01*
X238243284Y-147830024D01*
X238220471Y-147885100D01*
X238142251Y-148002166D01*
X238131498Y-148018258D01*
X238018258Y-148131498D01*
X237885102Y-148220470D01*
X237737142Y-148281758D01*
X237580075Y-148313000D01*
X237419925Y-148313000D01*
X237262858Y-148281758D01*
X237114898Y-148220470D01*
X236981742Y-148131498D01*
X236868502Y-148018258D01*
X236857750Y-148002166D01*
X236779529Y-147885100D01*
X236756716Y-147830024D01*
X236718242Y-147737142D01*
X236687000Y-147580075D01*
X236687000Y-147419925D01*
X236718242Y-147262858D01*
X236779530Y-147114898D01*
X236868502Y-146981742D01*
X236981742Y-146868502D01*
X237114898Y-146779530D01*
X237262858Y-146718242D01*
X237419925Y-146687000D01*
X237580075Y-146687000D01*
X237737142Y-146718242D01*
X237737142Y-146718242D01*
G37*
G36*
X255697142Y-146718242D02*
X255845102Y-146779530D01*
X255978258Y-146868502D01*
X256091498Y-146981742D01*
X256180470Y-147114898D01*
X256241758Y-147262858D01*
X256273000Y-147419925D01*
X256273000Y-147580075D01*
X256241758Y-147737142D01*
X256203284Y-147830024D01*
X256180471Y-147885100D01*
X256102251Y-148002166D01*
X256091498Y-148018258D01*
X255978258Y-148131498D01*
X255845102Y-148220470D01*
X255697142Y-148281758D01*
X255540075Y-148313000D01*
X255379925Y-148313000D01*
X255222858Y-148281758D01*
X255074898Y-148220470D01*
X254941742Y-148131498D01*
X254828502Y-148018258D01*
X254817750Y-148002166D01*
X254739529Y-147885100D01*
X254716716Y-147830024D01*
X254678242Y-147737142D01*
X254647000Y-147580075D01*
X254647000Y-147419925D01*
X254678242Y-147262858D01*
X254739530Y-147114898D01*
X254828502Y-146981742D01*
X254941742Y-146868502D01*
X255074898Y-146779530D01*
X255222858Y-146718242D01*
X255379925Y-146687000D01*
X255540075Y-146687000D01*
X255697142Y-146718242D01*
X255697142Y-146718242D01*
G37*
G36*
X228737142Y-146718242D02*
X228885102Y-146779530D01*
X229018258Y-146868502D01*
X229131498Y-146981742D01*
X229220470Y-147114898D01*
X229281758Y-147262858D01*
X229313000Y-147419925D01*
X229313000Y-147580075D01*
X229281758Y-147737142D01*
X229243284Y-147830024D01*
X229220471Y-147885100D01*
X229142251Y-148002166D01*
X229131498Y-148018258D01*
X229018258Y-148131498D01*
X228885102Y-148220470D01*
X228737142Y-148281758D01*
X228580075Y-148313000D01*
X228419925Y-148313000D01*
X228262858Y-148281758D01*
X228114898Y-148220470D01*
X227981742Y-148131498D01*
X227868502Y-148018258D01*
X227857750Y-148002166D01*
X227779529Y-147885100D01*
X227756716Y-147830024D01*
X227718242Y-147737142D01*
X227687000Y-147580075D01*
X227687000Y-147419925D01*
X227718242Y-147262858D01*
X227779530Y-147114898D01*
X227868502Y-146981742D01*
X227981742Y-146868502D01*
X228114898Y-146779530D01*
X228262858Y-146718242D01*
X228419925Y-146687000D01*
X228580075Y-146687000D01*
X228737142Y-146718242D01*
X228737142Y-146718242D01*
G37*
G36*
X246737142Y-146718242D02*
X246885102Y-146779530D01*
X247018258Y-146868502D01*
X247131498Y-146981742D01*
X247220470Y-147114898D01*
X247281758Y-147262858D01*
X247313000Y-147419925D01*
X247313000Y-147580075D01*
X247281758Y-147737142D01*
X247243284Y-147830024D01*
X247220471Y-147885100D01*
X247142251Y-148002166D01*
X247131498Y-148018258D01*
X247018258Y-148131498D01*
X246885102Y-148220470D01*
X246737142Y-148281758D01*
X246580075Y-148313000D01*
X246419925Y-148313000D01*
X246262858Y-148281758D01*
X246114898Y-148220470D01*
X245981742Y-148131498D01*
X245868502Y-148018258D01*
X245857750Y-148002166D01*
X245779529Y-147885100D01*
X245756716Y-147830024D01*
X245718242Y-147737142D01*
X245687000Y-147580075D01*
X245687000Y-147419925D01*
X245718242Y-147262858D01*
X245779530Y-147114898D01*
X245868502Y-146981742D01*
X245981742Y-146868502D01*
X246114898Y-146779530D01*
X246262858Y-146718242D01*
X246419925Y-146687000D01*
X246580075Y-146687000D01*
X246737142Y-146718242D01*
X246737142Y-146718242D01*
G37*
G36*
X197375256Y-142391298D02*
X197481579Y-142412447D01*
X197782042Y-142536903D01*
X198023514Y-142698250D01*
X198052454Y-142717587D01*
X198282413Y-142947546D01*
X198282415Y-142947549D01*
X198463097Y-143217958D01*
X198583651Y-143509000D01*
X198587553Y-143518422D01*
X198637559Y-143769815D01*
X198651000Y-143837391D01*
X198651000Y-144162609D01*
X198587553Y-144481579D01*
X198499550Y-144694037D01*
X198463098Y-144782040D01*
X198282413Y-145052454D01*
X198052454Y-145282413D01*
X198052451Y-145282415D01*
X197782042Y-145463097D01*
X197481579Y-145587553D01*
X197375256Y-145608702D01*
X197162611Y-145651000D01*
X196837389Y-145651000D01*
X196624744Y-145608702D01*
X196518421Y-145587553D01*
X196217958Y-145463097D01*
X195947549Y-145282415D01*
X195947546Y-145282413D01*
X195717587Y-145052454D01*
X195536902Y-144782040D01*
X195500450Y-144694037D01*
X195412447Y-144481579D01*
X195349000Y-144162609D01*
X195349000Y-143837391D01*
X195362442Y-143769815D01*
X195412447Y-143518422D01*
X195416350Y-143509000D01*
X195536903Y-143217958D01*
X195717585Y-142947549D01*
X195717587Y-142947546D01*
X195947546Y-142717587D01*
X195976486Y-142698250D01*
X196217958Y-142536903D01*
X196518421Y-142412447D01*
X196624744Y-142391298D01*
X196837389Y-142349000D01*
X197162611Y-142349000D01*
X197375256Y-142391298D01*
X197375256Y-142391298D01*
G37*
G36*
X203360442Y-143515518D02*
X203426627Y-143522037D01*
X203539853Y-143556384D01*
X203596467Y-143573557D01*
X203735087Y-143647652D01*
X203752991Y-143657222D01*
X203788729Y-143686552D01*
X203890186Y-143769814D01*
X203945644Y-143837391D01*
X204002778Y-143907009D01*
X204002779Y-143907011D01*
X204086443Y-144063533D01*
X204086443Y-144063534D01*
X204137963Y-144233373D01*
X204155359Y-144410000D01*
X204137963Y-144586627D01*
X204103616Y-144699853D01*
X204086443Y-144756467D01*
X204012348Y-144895087D01*
X204002778Y-144912991D01*
X203973448Y-144948729D01*
X203890186Y-145050186D01*
X203788729Y-145133448D01*
X203752991Y-145162778D01*
X203752989Y-145162779D01*
X203596467Y-145246443D01*
X203539853Y-145263616D01*
X203426627Y-145297963D01*
X203360442Y-145304482D01*
X203294260Y-145311000D01*
X203205740Y-145311000D01*
X203139558Y-145304482D01*
X203073373Y-145297963D01*
X202960147Y-145263616D01*
X202903533Y-145246443D01*
X202747011Y-145162779D01*
X202747009Y-145162778D01*
X202711271Y-145133448D01*
X202609814Y-145050186D01*
X202526552Y-144948729D01*
X202497222Y-144912991D01*
X202487652Y-144895087D01*
X202413557Y-144756467D01*
X202396384Y-144699853D01*
X202362037Y-144586627D01*
X202344641Y-144410000D01*
X202362037Y-144233373D01*
X202413557Y-144063534D01*
X202413557Y-144063533D01*
X202497221Y-143907011D01*
X202497222Y-143907009D01*
X202554356Y-143837391D01*
X202609814Y-143769814D01*
X202711271Y-143686552D01*
X202747009Y-143657222D01*
X202764913Y-143647652D01*
X202903533Y-143573557D01*
X202960147Y-143556384D01*
X203073373Y-143522037D01*
X203139558Y-143515518D01*
X203205740Y-143509000D01*
X203294260Y-143509000D01*
X203360442Y-143515518D01*
X203360442Y-143515518D01*
G37*
G36*
X213087091Y-142458085D02*
X213121069Y-142468393D01*
X213152387Y-142485133D01*
X213179839Y-142507661D01*
X213202367Y-142535113D01*
X213219107Y-142566431D01*
X213229415Y-142600409D01*
X213233500Y-142641890D01*
X213233500Y-143318110D01*
X213229415Y-143359591D01*
X213219107Y-143393569D01*
X213202367Y-143424887D01*
X213179839Y-143452339D01*
X213152387Y-143474867D01*
X213121069Y-143491607D01*
X213087091Y-143501915D01*
X213045610Y-143506000D01*
X212444390Y-143506000D01*
X212402909Y-143501915D01*
X212368931Y-143491607D01*
X212337613Y-143474867D01*
X212310161Y-143452339D01*
X212287633Y-143424887D01*
X212270893Y-143393569D01*
X212260585Y-143359591D01*
X212256500Y-143318110D01*
X212256500Y-142641890D01*
X212260585Y-142600409D01*
X212270893Y-142566431D01*
X212287633Y-142535113D01*
X212310161Y-142507661D01*
X212337613Y-142485133D01*
X212368931Y-142468393D01*
X212402909Y-142458085D01*
X212444390Y-142454000D01*
X213045610Y-142454000D01*
X213087091Y-142458085D01*
X213087091Y-142458085D01*
G37*
G36*
X214662091Y-142458085D02*
X214696069Y-142468393D01*
X214727387Y-142485133D01*
X214754839Y-142507661D01*
X214777367Y-142535113D01*
X214794107Y-142566431D01*
X214804415Y-142600409D01*
X214808500Y-142641890D01*
X214808500Y-143318110D01*
X214804415Y-143359591D01*
X214794107Y-143393569D01*
X214777367Y-143424887D01*
X214754839Y-143452339D01*
X214727387Y-143474867D01*
X214696069Y-143491607D01*
X214662091Y-143501915D01*
X214620610Y-143506000D01*
X214019390Y-143506000D01*
X213977909Y-143501915D01*
X213943931Y-143491607D01*
X213912613Y-143474867D01*
X213885161Y-143452339D01*
X213862633Y-143424887D01*
X213845893Y-143393569D01*
X213835585Y-143359591D01*
X213831500Y-143318110D01*
X213831500Y-142641890D01*
X213835585Y-142600409D01*
X213845893Y-142566431D01*
X213862633Y-142535113D01*
X213885161Y-142507661D01*
X213912613Y-142485133D01*
X213943931Y-142468393D01*
X213977909Y-142458085D01*
X214019390Y-142454000D01*
X214620610Y-142454000D01*
X214662091Y-142458085D01*
X214662091Y-142458085D01*
G37*
G36*
X217864591Y-142458085D02*
X217898569Y-142468393D01*
X217929887Y-142485133D01*
X217957339Y-142507661D01*
X217979867Y-142535113D01*
X217996607Y-142566431D01*
X218006915Y-142600409D01*
X218011000Y-142641890D01*
X218011000Y-143318110D01*
X218006915Y-143359591D01*
X217996607Y-143393569D01*
X217979867Y-143424887D01*
X217957339Y-143452339D01*
X217929887Y-143474867D01*
X217898569Y-143491607D01*
X217864591Y-143501915D01*
X217823110Y-143506000D01*
X217221890Y-143506000D01*
X217180409Y-143501915D01*
X217146431Y-143491607D01*
X217115113Y-143474867D01*
X217087661Y-143452339D01*
X217065133Y-143424887D01*
X217048393Y-143393569D01*
X217038085Y-143359591D01*
X217034000Y-143318110D01*
X217034000Y-142641890D01*
X217038085Y-142600409D01*
X217048393Y-142566431D01*
X217065133Y-142535113D01*
X217087661Y-142507661D01*
X217115113Y-142485133D01*
X217146431Y-142468393D01*
X217180409Y-142458085D01*
X217221890Y-142454000D01*
X217823110Y-142454000D01*
X217864591Y-142458085D01*
X217864591Y-142458085D01*
G37*
G36*
X219439591Y-142458085D02*
X219473569Y-142468393D01*
X219504887Y-142485133D01*
X219532339Y-142507661D01*
X219554867Y-142535113D01*
X219571607Y-142566431D01*
X219581915Y-142600409D01*
X219586000Y-142641890D01*
X219586000Y-143318110D01*
X219581915Y-143359591D01*
X219571607Y-143393569D01*
X219554867Y-143424887D01*
X219532339Y-143452339D01*
X219504887Y-143474867D01*
X219473569Y-143491607D01*
X219439591Y-143501915D01*
X219398110Y-143506000D01*
X218796890Y-143506000D01*
X218755409Y-143501915D01*
X218721431Y-143491607D01*
X218690113Y-143474867D01*
X218662661Y-143452339D01*
X218640133Y-143424887D01*
X218623393Y-143393569D01*
X218613085Y-143359591D01*
X218609000Y-143318110D01*
X218609000Y-142641890D01*
X218613085Y-142600409D01*
X218623393Y-142566431D01*
X218640133Y-142535113D01*
X218662661Y-142507661D01*
X218690113Y-142485133D01*
X218721431Y-142468393D01*
X218755409Y-142458085D01*
X218796890Y-142454000D01*
X219398110Y-142454000D01*
X219439591Y-142458085D01*
X219439591Y-142458085D01*
G37*
G36*
X203360443Y-140975519D02*
X203426627Y-140982037D01*
X203539853Y-141016384D01*
X203596467Y-141033557D01*
X203735087Y-141107652D01*
X203752991Y-141117222D01*
X203788729Y-141146552D01*
X203890186Y-141229814D01*
X203973448Y-141331271D01*
X204002778Y-141367009D01*
X204002779Y-141367011D01*
X204086443Y-141523533D01*
X204086443Y-141523534D01*
X204137963Y-141693373D01*
X204155359Y-141870000D01*
X204137963Y-142046627D01*
X204103616Y-142159853D01*
X204086443Y-142216467D01*
X204076002Y-142236000D01*
X204002778Y-142372991D01*
X203973448Y-142408729D01*
X203890186Y-142510186D01*
X203821650Y-142566431D01*
X203752991Y-142622778D01*
X203752989Y-142622779D01*
X203596467Y-142706443D01*
X203559736Y-142717585D01*
X203426627Y-142757963D01*
X203360443Y-142764481D01*
X203294260Y-142771000D01*
X203205740Y-142771000D01*
X203139557Y-142764481D01*
X203073373Y-142757963D01*
X202940264Y-142717585D01*
X202903533Y-142706443D01*
X202747011Y-142622779D01*
X202747009Y-142622778D01*
X202678350Y-142566431D01*
X202609814Y-142510186D01*
X202526552Y-142408729D01*
X202497222Y-142372991D01*
X202423998Y-142236000D01*
X202413557Y-142216467D01*
X202396384Y-142159853D01*
X202362037Y-142046627D01*
X202344641Y-141870000D01*
X202362037Y-141693373D01*
X202413557Y-141523534D01*
X202413557Y-141523533D01*
X202497221Y-141367011D01*
X202497222Y-141367009D01*
X202526552Y-141331271D01*
X202609814Y-141229814D01*
X202711271Y-141146552D01*
X202747009Y-141117222D01*
X202764913Y-141107652D01*
X202903533Y-141033557D01*
X202960147Y-141016384D01*
X203073373Y-140982037D01*
X203139557Y-140975519D01*
X203205740Y-140969000D01*
X203294260Y-140969000D01*
X203360443Y-140975519D01*
X203360443Y-140975519D01*
G37*
G36*
X229501000Y-142461000D02*
X228599000Y-142461000D01*
X228599000Y-141459000D01*
X229501000Y-141459000D01*
X229501000Y-142461000D01*
X229501000Y-142461000D01*
G37*
G36*
X231401000Y-142461000D02*
X230499000Y-142461000D01*
X230499000Y-141459000D01*
X231401000Y-141459000D01*
X231401000Y-142461000D01*
X231401000Y-142461000D01*
G37*
G36*
X227746000Y-142236000D02*
X226694000Y-142236000D01*
X226694000Y-141259000D01*
X227746000Y-141259000D01*
X227746000Y-142236000D01*
X227746000Y-142236000D01*
G37*
G36*
X233216000Y-142006000D02*
X232164000Y-142006000D01*
X232164000Y-141029000D01*
X233216000Y-141029000D01*
X233216000Y-142006000D01*
X233216000Y-142006000D01*
G37*
G36*
X214550048Y-139896284D02*
X214566446Y-139901258D01*
X214581552Y-139909333D01*
X214594797Y-139920203D01*
X214605667Y-139933448D01*
X214609760Y-139941105D01*
X214623374Y-139961479D01*
X214640701Y-139978806D01*
X214661075Y-139992420D01*
X214683714Y-140001798D01*
X214707748Y-140006578D01*
X214732252Y-140006578D01*
X214756286Y-140001798D01*
X214778925Y-139992420D01*
X214799299Y-139978806D01*
X214816626Y-139961479D01*
X214830240Y-139941105D01*
X214834333Y-139933448D01*
X214845203Y-139920203D01*
X214858448Y-139909333D01*
X214873554Y-139901258D01*
X214889952Y-139896284D01*
X214913141Y-139894000D01*
X215326859Y-139894000D01*
X215350048Y-139896284D01*
X215366446Y-139901258D01*
X215381552Y-139909333D01*
X215394797Y-139920203D01*
X215405667Y-139933448D01*
X215409760Y-139941105D01*
X215423374Y-139961479D01*
X215440701Y-139978806D01*
X215461075Y-139992420D01*
X215483714Y-140001798D01*
X215507748Y-140006578D01*
X215532252Y-140006578D01*
X215556286Y-140001798D01*
X215578925Y-139992420D01*
X215599299Y-139978806D01*
X215616626Y-139961479D01*
X215630240Y-139941105D01*
X215634333Y-139933448D01*
X215645203Y-139920203D01*
X215658448Y-139909333D01*
X215673554Y-139901258D01*
X215689952Y-139896284D01*
X215713141Y-139894000D01*
X216126859Y-139894000D01*
X216150048Y-139896284D01*
X216166446Y-139901258D01*
X216181552Y-139909333D01*
X216194797Y-139920203D01*
X216205667Y-139933448D01*
X216209760Y-139941105D01*
X216223374Y-139961479D01*
X216240701Y-139978806D01*
X216261075Y-139992420D01*
X216283714Y-140001798D01*
X216307748Y-140006578D01*
X216332252Y-140006578D01*
X216356286Y-140001798D01*
X216378925Y-139992420D01*
X216399299Y-139978806D01*
X216416626Y-139961479D01*
X216430240Y-139941105D01*
X216434333Y-139933448D01*
X216445203Y-139920203D01*
X216458448Y-139909333D01*
X216473554Y-139901258D01*
X216489952Y-139896284D01*
X216513141Y-139894000D01*
X216926859Y-139894000D01*
X216950048Y-139896284D01*
X216966446Y-139901258D01*
X216981552Y-139909333D01*
X216994797Y-139920203D01*
X217005667Y-139933448D01*
X217009760Y-139941105D01*
X217023374Y-139961479D01*
X217040701Y-139978806D01*
X217061075Y-139992420D01*
X217083714Y-140001798D01*
X217107748Y-140006578D01*
X217132252Y-140006578D01*
X217156286Y-140001798D01*
X217178925Y-139992420D01*
X217199299Y-139978806D01*
X217216626Y-139961479D01*
X217230240Y-139941105D01*
X217234333Y-139933448D01*
X217245203Y-139920203D01*
X217258448Y-139909333D01*
X217273554Y-139901258D01*
X217289952Y-139896284D01*
X217313141Y-139894000D01*
X217726859Y-139894000D01*
X217750048Y-139896284D01*
X217766446Y-139901258D01*
X217781552Y-139909333D01*
X217794797Y-139920203D01*
X217805667Y-139933448D01*
X217809760Y-139941105D01*
X217823374Y-139961479D01*
X217840701Y-139978806D01*
X217861075Y-139992420D01*
X217883714Y-140001798D01*
X217907748Y-140006578D01*
X217932252Y-140006578D01*
X217956286Y-140001798D01*
X217978925Y-139992420D01*
X217999299Y-139978806D01*
X218016626Y-139961479D01*
X218030240Y-139941105D01*
X218034333Y-139933448D01*
X218045203Y-139920203D01*
X218058448Y-139909333D01*
X218073554Y-139901258D01*
X218089952Y-139896284D01*
X218113141Y-139894000D01*
X218526859Y-139894000D01*
X218550048Y-139896284D01*
X218566446Y-139901258D01*
X218581552Y-139909333D01*
X218594797Y-139920203D01*
X218605667Y-139933448D01*
X218609760Y-139941105D01*
X218623374Y-139961479D01*
X218640701Y-139978806D01*
X218661075Y-139992420D01*
X218683714Y-140001798D01*
X218707748Y-140006578D01*
X218732252Y-140006578D01*
X218756286Y-140001798D01*
X218778925Y-139992420D01*
X218799299Y-139978806D01*
X218816626Y-139961479D01*
X218830240Y-139941105D01*
X218834333Y-139933448D01*
X218845203Y-139920203D01*
X218858448Y-139909333D01*
X218873554Y-139901258D01*
X218889952Y-139896284D01*
X218913141Y-139894000D01*
X219326859Y-139894000D01*
X219350048Y-139896284D01*
X219366446Y-139901258D01*
X219381552Y-139909333D01*
X219394797Y-139920203D01*
X219405667Y-139933448D01*
X219409760Y-139941105D01*
X219423374Y-139961479D01*
X219440701Y-139978806D01*
X219461075Y-139992420D01*
X219483714Y-140001798D01*
X219507748Y-140006578D01*
X219532252Y-140006578D01*
X219556286Y-140001798D01*
X219578925Y-139992420D01*
X219599299Y-139978806D01*
X219616626Y-139961479D01*
X219630240Y-139941105D01*
X219634333Y-139933448D01*
X219645203Y-139920203D01*
X219658448Y-139909333D01*
X219673554Y-139901258D01*
X219689952Y-139896284D01*
X219713141Y-139894000D01*
X220126859Y-139894000D01*
X220150048Y-139896284D01*
X220166446Y-139901258D01*
X220181552Y-139909333D01*
X220194797Y-139920203D01*
X220205667Y-139933448D01*
X220213742Y-139948554D01*
X220218716Y-139964952D01*
X220221000Y-139988141D01*
X220221000Y-141401859D01*
X220218716Y-141425048D01*
X220213742Y-141441446D01*
X220205667Y-141456552D01*
X220194797Y-141469797D01*
X220181552Y-141480667D01*
X220166446Y-141488742D01*
X220150048Y-141493716D01*
X220126859Y-141496000D01*
X219713141Y-141496000D01*
X219689952Y-141493716D01*
X219673554Y-141488742D01*
X219658448Y-141480667D01*
X219645203Y-141469797D01*
X219634333Y-141456552D01*
X219630240Y-141448895D01*
X219616626Y-141428521D01*
X219599299Y-141411194D01*
X219578925Y-141397580D01*
X219556286Y-141388202D01*
X219532252Y-141383422D01*
X219507748Y-141383422D01*
X219483714Y-141388202D01*
X219461075Y-141397580D01*
X219440701Y-141411194D01*
X219423374Y-141428521D01*
X219409760Y-141448895D01*
X219405667Y-141456552D01*
X219394797Y-141469797D01*
X219381552Y-141480667D01*
X219366446Y-141488742D01*
X219350048Y-141493716D01*
X219326859Y-141496000D01*
X218913141Y-141496000D01*
X218889952Y-141493716D01*
X218873554Y-141488742D01*
X218858448Y-141480667D01*
X218845203Y-141469797D01*
X218834333Y-141456552D01*
X218830240Y-141448895D01*
X218816626Y-141428521D01*
X218799299Y-141411194D01*
X218778925Y-141397580D01*
X218756286Y-141388202D01*
X218732252Y-141383422D01*
X218707748Y-141383422D01*
X218683714Y-141388202D01*
X218661075Y-141397580D01*
X218640701Y-141411194D01*
X218623374Y-141428521D01*
X218609760Y-141448895D01*
X218605667Y-141456552D01*
X218594797Y-141469797D01*
X218581552Y-141480667D01*
X218566446Y-141488742D01*
X218550048Y-141493716D01*
X218526859Y-141496000D01*
X218113141Y-141496000D01*
X218089952Y-141493716D01*
X218073554Y-141488742D01*
X218058448Y-141480667D01*
X218045203Y-141469797D01*
X218034333Y-141456552D01*
X218030240Y-141448895D01*
X218016626Y-141428521D01*
X217999299Y-141411194D01*
X217978925Y-141397580D01*
X217956286Y-141388202D01*
X217932252Y-141383422D01*
X217907748Y-141383422D01*
X217883714Y-141388202D01*
X217861075Y-141397580D01*
X217840701Y-141411194D01*
X217823374Y-141428521D01*
X217809760Y-141448895D01*
X217805667Y-141456552D01*
X217794797Y-141469797D01*
X217781552Y-141480667D01*
X217766446Y-141488742D01*
X217750048Y-141493716D01*
X217726859Y-141496000D01*
X217313141Y-141496000D01*
X217289952Y-141493716D01*
X217273554Y-141488742D01*
X217258448Y-141480667D01*
X217245203Y-141469797D01*
X217234333Y-141456552D01*
X217230240Y-141448895D01*
X217216626Y-141428521D01*
X217199299Y-141411194D01*
X217178925Y-141397580D01*
X217156286Y-141388202D01*
X217132252Y-141383422D01*
X217107748Y-141383422D01*
X217083714Y-141388202D01*
X217061075Y-141397580D01*
X217040701Y-141411194D01*
X217023374Y-141428521D01*
X217009760Y-141448895D01*
X217005667Y-141456552D01*
X216994797Y-141469797D01*
X216981552Y-141480667D01*
X216966446Y-141488742D01*
X216950048Y-141493716D01*
X216926859Y-141496000D01*
X216513141Y-141496000D01*
X216489952Y-141493716D01*
X216473554Y-141488742D01*
X216458448Y-141480667D01*
X216445203Y-141469797D01*
X216434333Y-141456552D01*
X216430240Y-141448895D01*
X216416626Y-141428521D01*
X216399299Y-141411194D01*
X216378925Y-141397580D01*
X216356286Y-141388202D01*
X216332252Y-141383422D01*
X216307748Y-141383422D01*
X216283714Y-141388202D01*
X216261075Y-141397580D01*
X216240701Y-141411194D01*
X216223374Y-141428521D01*
X216209760Y-141448895D01*
X216205667Y-141456552D01*
X216194797Y-141469797D01*
X216181552Y-141480667D01*
X216166446Y-141488742D01*
X216150048Y-141493716D01*
X216126859Y-141496000D01*
X215713141Y-141496000D01*
X215689952Y-141493716D01*
X215673554Y-141488742D01*
X215658448Y-141480667D01*
X215645203Y-141469797D01*
X215634333Y-141456552D01*
X215630240Y-141448895D01*
X215616626Y-141428521D01*
X215599299Y-141411194D01*
X215578925Y-141397580D01*
X215556286Y-141388202D01*
X215532252Y-141383422D01*
X215507748Y-141383422D01*
X215483714Y-141388202D01*
X215461075Y-141397580D01*
X215440701Y-141411194D01*
X215423374Y-141428521D01*
X215409760Y-141448895D01*
X215405667Y-141456552D01*
X215394797Y-141469797D01*
X215381552Y-141480667D01*
X215366446Y-141488742D01*
X215350048Y-141493716D01*
X215326859Y-141496000D01*
X214913141Y-141496000D01*
X214889952Y-141493716D01*
X214873554Y-141488742D01*
X214858448Y-141480667D01*
X214845203Y-141469797D01*
X214834333Y-141456552D01*
X214830240Y-141448895D01*
X214816626Y-141428521D01*
X214799299Y-141411194D01*
X214778925Y-141397580D01*
X214756286Y-141388202D01*
X214732252Y-141383422D01*
X214707748Y-141383422D01*
X214683714Y-141388202D01*
X214661075Y-141397580D01*
X214640701Y-141411194D01*
X214623374Y-141428521D01*
X214609760Y-141448895D01*
X214605667Y-141456552D01*
X214594797Y-141469797D01*
X214581552Y-141480667D01*
X214566446Y-141488742D01*
X214550048Y-141493716D01*
X214526859Y-141496000D01*
X214113141Y-141496000D01*
X214089952Y-141493716D01*
X214073554Y-141488742D01*
X214058448Y-141480667D01*
X214045203Y-141469797D01*
X214034333Y-141456552D01*
X214026258Y-141441446D01*
X214021284Y-141425048D01*
X214019000Y-141401859D01*
X214019000Y-139988141D01*
X214021284Y-139964952D01*
X214026258Y-139948554D01*
X214034333Y-139933448D01*
X214045203Y-139920203D01*
X214058448Y-139909333D01*
X214073554Y-139901258D01*
X214089952Y-139896284D01*
X214113141Y-139894000D01*
X214526859Y-139894000D01*
X214550048Y-139896284D01*
X214550048Y-139896284D01*
G37*
G36*
X227746000Y-140661000D02*
X226694000Y-140661000D01*
X226694000Y-139684000D01*
X227746000Y-139684000D01*
X227746000Y-140661000D01*
X227746000Y-140661000D01*
G37*
G36*
X230451000Y-140461000D02*
X229549000Y-140461000D01*
X229549000Y-139459000D01*
X230451000Y-139459000D01*
X230451000Y-140461000D01*
X230451000Y-140461000D01*
G37*
G36*
X233216000Y-140431000D02*
X232164000Y-140431000D01*
X232164000Y-139454000D01*
X233216000Y-139454000D01*
X233216000Y-140431000D01*
X233216000Y-140431000D01*
G37*
G36*
X203360442Y-138435518D02*
X203426627Y-138442037D01*
X203526519Y-138472339D01*
X203596467Y-138493557D01*
X203735087Y-138567652D01*
X203752991Y-138577222D01*
X203788729Y-138606552D01*
X203890186Y-138689814D01*
X203953075Y-138766446D01*
X204002778Y-138827009D01*
X204002779Y-138827011D01*
X204086443Y-138983533D01*
X204098079Y-139021892D01*
X204137963Y-139153373D01*
X204155359Y-139330000D01*
X204137963Y-139506627D01*
X204105470Y-139613742D01*
X204086443Y-139676467D01*
X204082416Y-139684000D01*
X204002778Y-139832991D01*
X203973448Y-139868729D01*
X203890186Y-139970186D01*
X203799633Y-140044500D01*
X203752991Y-140082778D01*
X203752989Y-140082779D01*
X203596467Y-140166443D01*
X203539853Y-140183616D01*
X203426627Y-140217963D01*
X203360442Y-140224482D01*
X203294260Y-140231000D01*
X203205740Y-140231000D01*
X203139558Y-140224482D01*
X203073373Y-140217963D01*
X202960147Y-140183616D01*
X202903533Y-140166443D01*
X202747011Y-140082779D01*
X202747009Y-140082778D01*
X202700367Y-140044500D01*
X202609814Y-139970186D01*
X202526552Y-139868729D01*
X202497222Y-139832991D01*
X202417584Y-139684000D01*
X202413557Y-139676467D01*
X202394530Y-139613742D01*
X202362037Y-139506627D01*
X202344641Y-139330000D01*
X202362037Y-139153373D01*
X202401921Y-139021892D01*
X202413557Y-138983533D01*
X202497221Y-138827011D01*
X202497222Y-138827009D01*
X202546925Y-138766446D01*
X202609814Y-138689814D01*
X202711271Y-138606552D01*
X202747009Y-138577222D01*
X202764913Y-138567652D01*
X202903533Y-138493557D01*
X202973481Y-138472339D01*
X203073373Y-138442037D01*
X203139558Y-138435518D01*
X203205740Y-138429000D01*
X203294260Y-138429000D01*
X203360442Y-138435518D01*
X203360442Y-138435518D01*
G37*
G36*
X240026000Y-140056000D02*
X238974000Y-140056000D01*
X238974000Y-139079000D01*
X240026000Y-139079000D01*
X240026000Y-140056000D01*
X240026000Y-140056000D01*
G37*
G36*
X260375256Y-136391298D02*
X260481579Y-136412447D01*
X260782042Y-136536903D01*
X260927856Y-136634333D01*
X261052454Y-136717587D01*
X261282413Y-136947546D01*
X261282415Y-136947549D01*
X261428678Y-137166446D01*
X261463098Y-137217960D01*
X261480957Y-137261075D01*
X261587553Y-137518421D01*
X261604309Y-137602661D01*
X261651000Y-137837389D01*
X261651000Y-138162611D01*
X261626479Y-138285887D01*
X261587553Y-138481579D01*
X261463097Y-138782042D01*
X261331544Y-138978925D01*
X261282413Y-139052454D01*
X261052454Y-139282413D01*
X261052451Y-139282415D01*
X260782042Y-139463097D01*
X260481579Y-139587553D01*
X260390514Y-139605667D01*
X260162611Y-139651000D01*
X259837389Y-139651000D01*
X259609486Y-139605667D01*
X259518421Y-139587553D01*
X259217958Y-139463097D01*
X258947549Y-139282415D01*
X258947546Y-139282413D01*
X258717587Y-139052454D01*
X258668456Y-138978925D01*
X258536903Y-138782042D01*
X258412447Y-138481579D01*
X258373521Y-138285887D01*
X258349000Y-138162611D01*
X258349000Y-137837389D01*
X258395691Y-137602661D01*
X258412447Y-137518421D01*
X258519043Y-137261075D01*
X258536902Y-137217960D01*
X258571323Y-137166446D01*
X258717585Y-136947549D01*
X258717587Y-136947546D01*
X258947546Y-136717587D01*
X259072144Y-136634333D01*
X259217958Y-136536903D01*
X259518421Y-136412447D01*
X259624744Y-136391298D01*
X259837389Y-136349000D01*
X260162611Y-136349000D01*
X260375256Y-136391298D01*
X260375256Y-136391298D01*
G37*
G36*
X222025048Y-133421284D02*
X222041446Y-133426258D01*
X222056552Y-133434333D01*
X222069797Y-133445203D01*
X222080667Y-133458448D01*
X222088742Y-133473554D01*
X222093716Y-133489952D01*
X222096000Y-133513141D01*
X222096000Y-133926859D01*
X222093716Y-133950048D01*
X222088742Y-133966446D01*
X222080667Y-133981552D01*
X222069797Y-133994797D01*
X222056552Y-134005667D01*
X222048895Y-134009760D01*
X222028521Y-134023374D01*
X222011194Y-134040701D01*
X221997580Y-134061075D01*
X221988202Y-134083714D01*
X221983422Y-134107748D01*
X221983422Y-134132252D01*
X221988202Y-134156286D01*
X221997580Y-134178925D01*
X222011194Y-134199299D01*
X222028521Y-134216626D01*
X222048895Y-134230240D01*
X222056552Y-134234333D01*
X222069797Y-134245203D01*
X222080667Y-134258448D01*
X222088742Y-134273554D01*
X222093716Y-134289952D01*
X222096000Y-134313141D01*
X222096000Y-134726859D01*
X222093716Y-134750048D01*
X222088742Y-134766446D01*
X222080667Y-134781552D01*
X222069797Y-134794797D01*
X222056552Y-134805667D01*
X222048895Y-134809760D01*
X222028521Y-134823374D01*
X222011194Y-134840701D01*
X221997580Y-134861075D01*
X221988202Y-134883714D01*
X221983422Y-134907748D01*
X221983422Y-134932252D01*
X221988202Y-134956286D01*
X221997580Y-134978925D01*
X222011194Y-134999299D01*
X222028521Y-135016626D01*
X222048895Y-135030240D01*
X222056552Y-135034333D01*
X222069797Y-135045203D01*
X222080667Y-135058448D01*
X222088742Y-135073554D01*
X222093716Y-135089952D01*
X222096000Y-135113141D01*
X222096000Y-135526859D01*
X222093716Y-135550048D01*
X222088742Y-135566446D01*
X222080667Y-135581552D01*
X222069797Y-135594797D01*
X222056552Y-135605667D01*
X222048895Y-135609760D01*
X222028521Y-135623374D01*
X222011194Y-135640701D01*
X221997580Y-135661075D01*
X221988202Y-135683714D01*
X221983422Y-135707748D01*
X221983422Y-135732252D01*
X221988202Y-135756286D01*
X221997580Y-135778925D01*
X222011194Y-135799299D01*
X222028521Y-135816626D01*
X222048895Y-135830240D01*
X222056552Y-135834333D01*
X222069797Y-135845203D01*
X222080667Y-135858448D01*
X222088742Y-135873554D01*
X222093716Y-135889952D01*
X222096000Y-135913141D01*
X222096000Y-136326859D01*
X222093716Y-136350048D01*
X222088742Y-136366446D01*
X222080667Y-136381552D01*
X222069797Y-136394797D01*
X222056552Y-136405667D01*
X222048895Y-136409760D01*
X222028521Y-136423374D01*
X222011194Y-136440701D01*
X221997580Y-136461075D01*
X221988202Y-136483714D01*
X221983422Y-136507748D01*
X221983422Y-136532252D01*
X221988202Y-136556286D01*
X221997580Y-136578925D01*
X222011194Y-136599299D01*
X222028521Y-136616626D01*
X222048895Y-136630240D01*
X222056552Y-136634333D01*
X222069797Y-136645203D01*
X222080667Y-136658448D01*
X222088742Y-136673554D01*
X222093716Y-136689952D01*
X222096000Y-136713141D01*
X222096000Y-137126859D01*
X222093716Y-137150048D01*
X222088742Y-137166446D01*
X222080667Y-137181552D01*
X222069797Y-137194797D01*
X222056552Y-137205667D01*
X222048895Y-137209760D01*
X222028521Y-137223374D01*
X222011194Y-137240701D01*
X221997580Y-137261075D01*
X221988202Y-137283714D01*
X221983422Y-137307748D01*
X221983422Y-137332252D01*
X221988202Y-137356286D01*
X221997580Y-137378925D01*
X222011194Y-137399299D01*
X222028521Y-137416626D01*
X222048895Y-137430240D01*
X222056552Y-137434333D01*
X222069797Y-137445203D01*
X222080667Y-137458448D01*
X222088742Y-137473554D01*
X222093716Y-137489952D01*
X222096000Y-137513141D01*
X222096000Y-137926859D01*
X222093716Y-137950048D01*
X222088742Y-137966446D01*
X222080667Y-137981552D01*
X222069797Y-137994797D01*
X222056552Y-138005667D01*
X222048895Y-138009760D01*
X222028521Y-138023374D01*
X222011194Y-138040701D01*
X221997580Y-138061075D01*
X221988202Y-138083714D01*
X221983422Y-138107748D01*
X221983422Y-138132252D01*
X221988202Y-138156286D01*
X221997580Y-138178925D01*
X222011194Y-138199299D01*
X222028521Y-138216626D01*
X222048895Y-138230240D01*
X222056552Y-138234333D01*
X222069797Y-138245203D01*
X222080667Y-138258448D01*
X222088742Y-138273554D01*
X222093716Y-138289952D01*
X222096000Y-138313141D01*
X222096000Y-138726859D01*
X222093716Y-138750048D01*
X222088742Y-138766446D01*
X222080667Y-138781552D01*
X222069797Y-138794797D01*
X222056552Y-138805667D01*
X222048895Y-138809760D01*
X222028521Y-138823374D01*
X222011194Y-138840701D01*
X221997580Y-138861075D01*
X221988202Y-138883714D01*
X221983422Y-138907748D01*
X221983422Y-138932252D01*
X221988202Y-138956286D01*
X221997580Y-138978925D01*
X222011194Y-138999299D01*
X222028521Y-139016626D01*
X222048895Y-139030240D01*
X222056552Y-139034333D01*
X222069797Y-139045203D01*
X222080667Y-139058448D01*
X222088742Y-139073554D01*
X222093716Y-139089952D01*
X222096000Y-139113141D01*
X222096000Y-139526859D01*
X222093716Y-139550048D01*
X222088742Y-139566446D01*
X222080667Y-139581552D01*
X222069797Y-139594797D01*
X222056552Y-139605667D01*
X222041446Y-139613742D01*
X222025048Y-139618716D01*
X222001859Y-139621000D01*
X220588141Y-139621000D01*
X220564952Y-139618716D01*
X220548554Y-139613742D01*
X220533448Y-139605667D01*
X220520203Y-139594797D01*
X220509333Y-139581552D01*
X220501258Y-139566446D01*
X220496284Y-139550048D01*
X220494000Y-139526859D01*
X220494000Y-139113141D01*
X220496284Y-139089952D01*
X220501258Y-139073554D01*
X220509333Y-139058448D01*
X220520203Y-139045203D01*
X220533448Y-139034333D01*
X220541105Y-139030240D01*
X220561479Y-139016626D01*
X220578806Y-138999299D01*
X220592420Y-138978925D01*
X220601798Y-138956286D01*
X220606578Y-138932252D01*
X220606578Y-138907748D01*
X220601798Y-138883714D01*
X220592420Y-138861075D01*
X220578806Y-138840701D01*
X220561479Y-138823374D01*
X220541105Y-138809760D01*
X220533448Y-138805667D01*
X220520203Y-138794797D01*
X220509333Y-138781552D01*
X220501258Y-138766446D01*
X220496284Y-138750048D01*
X220494000Y-138726859D01*
X220494000Y-138313141D01*
X220496284Y-138289952D01*
X220501258Y-138273554D01*
X220509333Y-138258448D01*
X220520203Y-138245203D01*
X220533448Y-138234333D01*
X220541105Y-138230240D01*
X220561479Y-138216626D01*
X220578806Y-138199299D01*
X220592420Y-138178925D01*
X220601798Y-138156286D01*
X220606578Y-138132252D01*
X220606578Y-138107748D01*
X220601798Y-138083714D01*
X220592420Y-138061075D01*
X220578806Y-138040701D01*
X220561479Y-138023374D01*
X220541105Y-138009760D01*
X220533448Y-138005667D01*
X220520203Y-137994797D01*
X220509333Y-137981552D01*
X220501258Y-137966446D01*
X220496284Y-137950048D01*
X220494000Y-137926859D01*
X220494000Y-137513141D01*
X220496284Y-137489952D01*
X220501258Y-137473554D01*
X220509333Y-137458448D01*
X220520203Y-137445203D01*
X220533448Y-137434333D01*
X220541105Y-137430240D01*
X220561479Y-137416626D01*
X220578806Y-137399299D01*
X220592420Y-137378925D01*
X220601798Y-137356286D01*
X220606578Y-137332252D01*
X220606578Y-137307748D01*
X220601798Y-137283714D01*
X220592420Y-137261075D01*
X220578806Y-137240701D01*
X220561479Y-137223374D01*
X220541105Y-137209760D01*
X220533448Y-137205667D01*
X220520203Y-137194797D01*
X220509333Y-137181552D01*
X220501258Y-137166446D01*
X220496284Y-137150048D01*
X220494000Y-137126859D01*
X220494000Y-136713141D01*
X220496284Y-136689952D01*
X220501258Y-136673554D01*
X220509333Y-136658448D01*
X220520203Y-136645203D01*
X220533448Y-136634333D01*
X220541105Y-136630240D01*
X220561479Y-136616626D01*
X220578806Y-136599299D01*
X220592420Y-136578925D01*
X220601798Y-136556286D01*
X220606578Y-136532252D01*
X220606578Y-136507748D01*
X220601798Y-136483714D01*
X220592420Y-136461075D01*
X220578806Y-136440701D01*
X220561479Y-136423374D01*
X220541105Y-136409760D01*
X220533448Y-136405667D01*
X220520203Y-136394797D01*
X220509333Y-136381552D01*
X220501258Y-136366446D01*
X220496284Y-136350048D01*
X220494000Y-136326859D01*
X220494000Y-135913141D01*
X220496284Y-135889952D01*
X220501258Y-135873554D01*
X220509333Y-135858448D01*
X220520203Y-135845203D01*
X220533448Y-135834333D01*
X220541105Y-135830240D01*
X220561479Y-135816626D01*
X220578806Y-135799299D01*
X220592420Y-135778925D01*
X220601798Y-135756286D01*
X220606578Y-135732252D01*
X220606578Y-135707748D01*
X220601798Y-135683714D01*
X220592420Y-135661075D01*
X220578806Y-135640701D01*
X220561479Y-135623374D01*
X220541105Y-135609760D01*
X220533448Y-135605667D01*
X220520203Y-135594797D01*
X220509333Y-135581552D01*
X220501258Y-135566446D01*
X220496284Y-135550048D01*
X220494000Y-135526859D01*
X220494000Y-135113141D01*
X220496284Y-135089952D01*
X220501258Y-135073554D01*
X220509333Y-135058448D01*
X220520203Y-135045203D01*
X220533448Y-135034333D01*
X220541105Y-135030240D01*
X220561479Y-135016626D01*
X220578806Y-134999299D01*
X220592420Y-134978925D01*
X220601798Y-134956286D01*
X220606578Y-134932252D01*
X220606578Y-134907748D01*
X220601798Y-134883714D01*
X220592420Y-134861075D01*
X220578806Y-134840701D01*
X220561479Y-134823374D01*
X220541105Y-134809760D01*
X220533448Y-134805667D01*
X220520203Y-134794797D01*
X220509333Y-134781552D01*
X220501258Y-134766446D01*
X220496284Y-134750048D01*
X220494000Y-134726859D01*
X220494000Y-134313141D01*
X220496284Y-134289952D01*
X220501258Y-134273554D01*
X220509333Y-134258448D01*
X220520203Y-134245203D01*
X220533448Y-134234333D01*
X220541105Y-134230240D01*
X220561479Y-134216626D01*
X220578806Y-134199299D01*
X220592420Y-134178925D01*
X220601798Y-134156286D01*
X220606578Y-134132252D01*
X220606578Y-134107748D01*
X220601798Y-134083714D01*
X220592420Y-134061075D01*
X220578806Y-134040701D01*
X220561479Y-134023374D01*
X220541105Y-134009760D01*
X220533448Y-134005667D01*
X220520203Y-133994797D01*
X220509333Y-133981552D01*
X220501258Y-133966446D01*
X220496284Y-133950048D01*
X220494000Y-133926859D01*
X220494000Y-133513141D01*
X220496284Y-133489952D01*
X220501258Y-133473554D01*
X220509333Y-133458448D01*
X220520203Y-133445203D01*
X220533448Y-133434333D01*
X220548554Y-133426258D01*
X220564952Y-133421284D01*
X220588141Y-133419000D01*
X222001859Y-133419000D01*
X222025048Y-133421284D01*
X222025048Y-133421284D01*
G37*
G36*
X213675048Y-133421284D02*
X213691446Y-133426258D01*
X213706552Y-133434333D01*
X213719797Y-133445203D01*
X213730667Y-133458448D01*
X213738742Y-133473554D01*
X213743716Y-133489952D01*
X213746000Y-133513141D01*
X213746000Y-133926859D01*
X213743716Y-133950048D01*
X213738742Y-133966446D01*
X213730667Y-133981552D01*
X213719797Y-133994797D01*
X213706552Y-134005667D01*
X213698895Y-134009760D01*
X213678521Y-134023374D01*
X213661194Y-134040701D01*
X213647580Y-134061075D01*
X213638202Y-134083714D01*
X213633422Y-134107748D01*
X213633422Y-134132252D01*
X213638202Y-134156286D01*
X213647580Y-134178925D01*
X213661194Y-134199299D01*
X213678521Y-134216626D01*
X213698895Y-134230240D01*
X213706552Y-134234333D01*
X213719797Y-134245203D01*
X213730667Y-134258448D01*
X213738742Y-134273554D01*
X213743716Y-134289952D01*
X213746000Y-134313141D01*
X213746000Y-134726859D01*
X213743716Y-134750048D01*
X213738742Y-134766446D01*
X213730667Y-134781552D01*
X213719797Y-134794797D01*
X213706552Y-134805667D01*
X213698895Y-134809760D01*
X213678521Y-134823374D01*
X213661194Y-134840701D01*
X213647580Y-134861075D01*
X213638202Y-134883714D01*
X213633422Y-134907748D01*
X213633422Y-134932252D01*
X213638202Y-134956286D01*
X213647580Y-134978925D01*
X213661194Y-134999299D01*
X213678521Y-135016626D01*
X213698895Y-135030240D01*
X213706552Y-135034333D01*
X213719797Y-135045203D01*
X213730667Y-135058448D01*
X213738742Y-135073554D01*
X213743716Y-135089952D01*
X213746000Y-135113141D01*
X213746000Y-135526859D01*
X213743716Y-135550048D01*
X213738742Y-135566446D01*
X213730667Y-135581552D01*
X213719797Y-135594797D01*
X213706552Y-135605667D01*
X213698895Y-135609760D01*
X213678521Y-135623374D01*
X213661194Y-135640701D01*
X213647580Y-135661075D01*
X213638202Y-135683714D01*
X213633422Y-135707748D01*
X213633422Y-135732252D01*
X213638202Y-135756286D01*
X213647580Y-135778925D01*
X213661194Y-135799299D01*
X213678521Y-135816626D01*
X213698895Y-135830240D01*
X213706552Y-135834333D01*
X213719797Y-135845203D01*
X213730667Y-135858448D01*
X213738742Y-135873554D01*
X213743716Y-135889952D01*
X213746000Y-135913141D01*
X213746000Y-136326859D01*
X213743716Y-136350048D01*
X213738742Y-136366446D01*
X213730667Y-136381552D01*
X213719797Y-136394797D01*
X213706552Y-136405667D01*
X213698895Y-136409760D01*
X213678521Y-136423374D01*
X213661194Y-136440701D01*
X213647580Y-136461075D01*
X213638202Y-136483714D01*
X213633422Y-136507748D01*
X213633422Y-136532252D01*
X213638202Y-136556286D01*
X213647580Y-136578925D01*
X213661194Y-136599299D01*
X213678521Y-136616626D01*
X213698895Y-136630240D01*
X213706552Y-136634333D01*
X213719797Y-136645203D01*
X213730667Y-136658448D01*
X213738742Y-136673554D01*
X213743716Y-136689952D01*
X213746000Y-136713141D01*
X213746000Y-137126859D01*
X213743716Y-137150048D01*
X213738742Y-137166446D01*
X213730667Y-137181552D01*
X213719797Y-137194797D01*
X213706552Y-137205667D01*
X213698895Y-137209760D01*
X213678521Y-137223374D01*
X213661194Y-137240701D01*
X213647580Y-137261075D01*
X213638202Y-137283714D01*
X213633422Y-137307748D01*
X213633422Y-137332252D01*
X213638202Y-137356286D01*
X213647580Y-137378925D01*
X213661194Y-137399299D01*
X213678521Y-137416626D01*
X213698895Y-137430240D01*
X213706552Y-137434333D01*
X213719797Y-137445203D01*
X213730667Y-137458448D01*
X213738742Y-137473554D01*
X213743716Y-137489952D01*
X213746000Y-137513141D01*
X213746000Y-137926859D01*
X213743716Y-137950048D01*
X213738742Y-137966446D01*
X213730667Y-137981552D01*
X213719797Y-137994797D01*
X213706552Y-138005667D01*
X213698895Y-138009760D01*
X213678521Y-138023374D01*
X213661194Y-138040701D01*
X213647580Y-138061075D01*
X213638202Y-138083714D01*
X213633422Y-138107748D01*
X213633422Y-138132252D01*
X213638202Y-138156286D01*
X213647580Y-138178925D01*
X213661194Y-138199299D01*
X213678521Y-138216626D01*
X213698895Y-138230240D01*
X213706552Y-138234333D01*
X213719797Y-138245203D01*
X213730667Y-138258448D01*
X213738742Y-138273554D01*
X213743716Y-138289952D01*
X213746000Y-138313141D01*
X213746000Y-138726859D01*
X213743716Y-138750048D01*
X213738742Y-138766446D01*
X213730667Y-138781552D01*
X213719797Y-138794797D01*
X213706552Y-138805667D01*
X213698895Y-138809760D01*
X213678521Y-138823374D01*
X213661194Y-138840701D01*
X213647580Y-138861075D01*
X213638202Y-138883714D01*
X213633422Y-138907748D01*
X213633422Y-138932252D01*
X213638202Y-138956286D01*
X213647580Y-138978925D01*
X213661194Y-138999299D01*
X213678521Y-139016626D01*
X213698895Y-139030240D01*
X213706552Y-139034333D01*
X213719797Y-139045203D01*
X213730667Y-139058448D01*
X213738742Y-139073554D01*
X213743716Y-139089952D01*
X213746000Y-139113141D01*
X213746000Y-139526859D01*
X213743716Y-139550048D01*
X213738742Y-139566446D01*
X213730667Y-139581552D01*
X213719797Y-139594797D01*
X213706552Y-139605667D01*
X213691446Y-139613742D01*
X213675048Y-139618716D01*
X213651859Y-139621000D01*
X212238141Y-139621000D01*
X212214952Y-139618716D01*
X212198554Y-139613742D01*
X212183448Y-139605667D01*
X212170203Y-139594797D01*
X212159333Y-139581552D01*
X212151258Y-139566446D01*
X212146284Y-139550048D01*
X212144000Y-139526859D01*
X212144000Y-139113141D01*
X212146284Y-139089952D01*
X212151258Y-139073554D01*
X212159333Y-139058448D01*
X212170203Y-139045203D01*
X212183448Y-139034333D01*
X212191105Y-139030240D01*
X212211479Y-139016626D01*
X212228806Y-138999299D01*
X212242420Y-138978925D01*
X212251798Y-138956286D01*
X212256578Y-138932252D01*
X212256578Y-138907748D01*
X212251798Y-138883714D01*
X212242420Y-138861075D01*
X212228806Y-138840701D01*
X212211479Y-138823374D01*
X212191105Y-138809760D01*
X212183448Y-138805667D01*
X212170203Y-138794797D01*
X212159333Y-138781552D01*
X212151258Y-138766446D01*
X212146284Y-138750048D01*
X212144000Y-138726859D01*
X212144000Y-138313141D01*
X212146284Y-138289952D01*
X212151258Y-138273554D01*
X212159333Y-138258448D01*
X212170203Y-138245203D01*
X212183448Y-138234333D01*
X212191105Y-138230240D01*
X212211479Y-138216626D01*
X212228806Y-138199299D01*
X212242420Y-138178925D01*
X212251798Y-138156286D01*
X212256578Y-138132252D01*
X212256578Y-138107748D01*
X212251798Y-138083714D01*
X212242420Y-138061075D01*
X212228806Y-138040701D01*
X212211479Y-138023374D01*
X212191105Y-138009760D01*
X212183448Y-138005667D01*
X212170203Y-137994797D01*
X212159333Y-137981552D01*
X212151258Y-137966446D01*
X212146284Y-137950048D01*
X212144000Y-137926859D01*
X212144000Y-137513141D01*
X212146284Y-137489952D01*
X212151258Y-137473554D01*
X212159333Y-137458448D01*
X212170203Y-137445203D01*
X212183448Y-137434333D01*
X212191105Y-137430240D01*
X212211479Y-137416626D01*
X212228806Y-137399299D01*
X212242420Y-137378925D01*
X212251798Y-137356286D01*
X212256578Y-137332252D01*
X212256578Y-137307748D01*
X212251798Y-137283714D01*
X212242420Y-137261075D01*
X212228806Y-137240701D01*
X212211479Y-137223374D01*
X212191105Y-137209760D01*
X212183448Y-137205667D01*
X212170203Y-137194797D01*
X212159333Y-137181552D01*
X212151258Y-137166446D01*
X212146284Y-137150048D01*
X212144000Y-137126859D01*
X212144000Y-136713141D01*
X212146284Y-136689952D01*
X212151258Y-136673554D01*
X212159333Y-136658448D01*
X212170203Y-136645203D01*
X212183448Y-136634333D01*
X212191105Y-136630240D01*
X212211479Y-136616626D01*
X212228806Y-136599299D01*
X212242420Y-136578925D01*
X212251798Y-136556286D01*
X212256578Y-136532252D01*
X212256578Y-136507748D01*
X212251798Y-136483714D01*
X212242420Y-136461075D01*
X212228806Y-136440701D01*
X212211479Y-136423374D01*
X212191105Y-136409760D01*
X212183448Y-136405667D01*
X212170203Y-136394797D01*
X212159333Y-136381552D01*
X212151258Y-136366446D01*
X212146284Y-136350048D01*
X212144000Y-136326859D01*
X212144000Y-135913141D01*
X212146284Y-135889952D01*
X212151258Y-135873554D01*
X212159333Y-135858448D01*
X212170203Y-135845203D01*
X212183448Y-135834333D01*
X212191105Y-135830240D01*
X212211479Y-135816626D01*
X212228806Y-135799299D01*
X212242420Y-135778925D01*
X212251798Y-135756286D01*
X212256578Y-135732252D01*
X212256578Y-135707748D01*
X212251798Y-135683714D01*
X212242420Y-135661075D01*
X212228806Y-135640701D01*
X212211479Y-135623374D01*
X212191105Y-135609760D01*
X212183448Y-135605667D01*
X212170203Y-135594797D01*
X212159333Y-135581552D01*
X212151258Y-135566446D01*
X212146284Y-135550048D01*
X212144000Y-135526859D01*
X212144000Y-135113141D01*
X212146284Y-135089952D01*
X212151258Y-135073554D01*
X212159333Y-135058448D01*
X212170203Y-135045203D01*
X212183448Y-135034333D01*
X212191105Y-135030240D01*
X212211479Y-135016626D01*
X212228806Y-134999299D01*
X212242420Y-134978925D01*
X212251798Y-134956286D01*
X212256578Y-134932252D01*
X212256578Y-134907748D01*
X212251798Y-134883714D01*
X212242420Y-134861075D01*
X212228806Y-134840701D01*
X212211479Y-134823374D01*
X212191105Y-134809760D01*
X212183448Y-134805667D01*
X212170203Y-134794797D01*
X212159333Y-134781552D01*
X212151258Y-134766446D01*
X212146284Y-134750048D01*
X212144000Y-134726859D01*
X212144000Y-134313141D01*
X212146284Y-134289952D01*
X212151258Y-134273554D01*
X212159333Y-134258448D01*
X212170203Y-134245203D01*
X212183448Y-134234333D01*
X212191105Y-134230240D01*
X212211479Y-134216626D01*
X212228806Y-134199299D01*
X212242420Y-134178925D01*
X212251798Y-134156286D01*
X212256578Y-134132252D01*
X212256578Y-134107748D01*
X212251798Y-134083714D01*
X212242420Y-134061075D01*
X212228806Y-134040701D01*
X212211479Y-134023374D01*
X212191105Y-134009760D01*
X212183448Y-134005667D01*
X212170203Y-133994797D01*
X212159333Y-133981552D01*
X212151258Y-133966446D01*
X212146284Y-133950048D01*
X212144000Y-133926859D01*
X212144000Y-133513141D01*
X212146284Y-133489952D01*
X212151258Y-133473554D01*
X212159333Y-133458448D01*
X212170203Y-133445203D01*
X212183448Y-133434333D01*
X212198554Y-133426258D01*
X212214952Y-133421284D01*
X212238141Y-133419000D01*
X213651859Y-133419000D01*
X213675048Y-133421284D01*
X213675048Y-133421284D01*
G37*
G36*
X248352627Y-137553085D02*
X248386605Y-137563393D01*
X248417923Y-137580133D01*
X248445375Y-137602661D01*
X248467903Y-137630113D01*
X248484643Y-137661431D01*
X248494951Y-137695409D01*
X248499036Y-137736890D01*
X248499036Y-138338110D01*
X248494951Y-138379591D01*
X248484643Y-138413569D01*
X248467903Y-138444887D01*
X248445375Y-138472339D01*
X248417923Y-138494867D01*
X248386605Y-138511607D01*
X248352627Y-138521915D01*
X248311146Y-138526000D01*
X247634926Y-138526000D01*
X247593445Y-138521915D01*
X247559467Y-138511607D01*
X247528149Y-138494867D01*
X247500697Y-138472339D01*
X247478169Y-138444887D01*
X247461429Y-138413569D01*
X247451121Y-138379591D01*
X247447036Y-138338110D01*
X247447036Y-137736890D01*
X247451121Y-137695409D01*
X247461429Y-137661431D01*
X247478169Y-137630113D01*
X247500697Y-137602661D01*
X247528149Y-137580133D01*
X247559467Y-137563393D01*
X247593445Y-137553085D01*
X247634926Y-137549000D01*
X248311146Y-137549000D01*
X248352627Y-137553085D01*
X248352627Y-137553085D01*
G37*
G36*
X231401000Y-138501000D02*
X230499000Y-138501000D01*
X230499000Y-137499000D01*
X231401000Y-137499000D01*
X231401000Y-138501000D01*
X231401000Y-138501000D01*
G37*
G36*
X229501000Y-138501000D02*
X228599000Y-138501000D01*
X228599000Y-137499000D01*
X229501000Y-137499000D01*
X229501000Y-138501000D01*
X229501000Y-138501000D01*
G37*
G36*
X240026000Y-138481000D02*
X238974000Y-138481000D01*
X238974000Y-137504000D01*
X240026000Y-137504000D01*
X240026000Y-138481000D01*
X240026000Y-138481000D01*
G37*
G36*
X227746000Y-138276000D02*
X226694000Y-138276000D01*
X226694000Y-137299000D01*
X227746000Y-137299000D01*
X227746000Y-138276000D01*
X227746000Y-138276000D01*
G37*
G36*
X246604036Y-138176000D02*
X245902036Y-138176000D01*
X245902036Y-136324000D01*
X246604036Y-136324000D01*
X246604036Y-138176000D01*
X246604036Y-138176000D01*
G37*
G36*
X244204036Y-138176000D02*
X243502036Y-138176000D01*
X243502036Y-136324000D01*
X244204036Y-136324000D01*
X244204036Y-138176000D01*
X244204036Y-138176000D01*
G37*
G36*
X245604036Y-138151000D02*
X244502036Y-138151000D01*
X244502036Y-136349000D01*
X245604036Y-136349000D01*
X245604036Y-138151000D01*
X245604036Y-138151000D01*
G37*
G36*
X203360442Y-135895518D02*
X203426627Y-135902037D01*
X203539853Y-135936384D01*
X203596467Y-135953557D01*
X203669495Y-135992592D01*
X203752991Y-136037222D01*
X203763125Y-136045539D01*
X203890186Y-136149814D01*
X203946349Y-136218250D01*
X204002778Y-136287009D01*
X204002779Y-136287011D01*
X204086443Y-136443533D01*
X204103616Y-136500147D01*
X204137963Y-136613373D01*
X204155359Y-136790000D01*
X204137963Y-136966627D01*
X204103616Y-137079853D01*
X204086443Y-137136467D01*
X204030728Y-137240701D01*
X204002778Y-137292991D01*
X203990667Y-137307748D01*
X203890186Y-137430186D01*
X203800242Y-137504000D01*
X203752991Y-137542778D01*
X203752989Y-137542779D01*
X203596467Y-137626443D01*
X203584368Y-137630113D01*
X203426627Y-137677963D01*
X203360442Y-137684482D01*
X203294260Y-137691000D01*
X203205740Y-137691000D01*
X203139558Y-137684482D01*
X203073373Y-137677963D01*
X202915632Y-137630113D01*
X202903533Y-137626443D01*
X202747011Y-137542779D01*
X202747009Y-137542778D01*
X202699758Y-137504000D01*
X202609814Y-137430186D01*
X202509333Y-137307748D01*
X202497222Y-137292991D01*
X202469272Y-137240701D01*
X202413557Y-137136467D01*
X202396384Y-137079853D01*
X202362037Y-136966627D01*
X202344641Y-136790000D01*
X202362037Y-136613373D01*
X202396384Y-136500147D01*
X202413557Y-136443533D01*
X202497221Y-136287011D01*
X202497222Y-136287009D01*
X202553651Y-136218250D01*
X202609814Y-136149814D01*
X202736875Y-136045539D01*
X202747009Y-136037222D01*
X202830505Y-135992592D01*
X202903533Y-135953557D01*
X202960147Y-135936384D01*
X203073373Y-135902037D01*
X203139558Y-135895518D01*
X203205740Y-135889000D01*
X203294260Y-135889000D01*
X203360442Y-135895518D01*
X203360442Y-135895518D01*
G37*
G36*
X240026000Y-136986000D02*
X238974000Y-136986000D01*
X238974000Y-136009000D01*
X240026000Y-136009000D01*
X240026000Y-136986000D01*
X240026000Y-136986000D01*
G37*
G36*
X248352627Y-135978085D02*
X248386605Y-135988393D01*
X248417923Y-136005133D01*
X248445375Y-136027661D01*
X248467903Y-136055113D01*
X248484643Y-136086431D01*
X248494951Y-136120409D01*
X248499036Y-136161890D01*
X248499036Y-136763110D01*
X248494951Y-136804591D01*
X248484643Y-136838569D01*
X248467903Y-136869887D01*
X248445375Y-136897339D01*
X248417923Y-136919867D01*
X248386605Y-136936607D01*
X248352627Y-136946915D01*
X248311146Y-136951000D01*
X247634926Y-136951000D01*
X247593445Y-136946915D01*
X247559467Y-136936607D01*
X247528149Y-136919867D01*
X247500697Y-136897339D01*
X247478169Y-136869887D01*
X247461429Y-136838569D01*
X247451121Y-136804591D01*
X247447036Y-136763110D01*
X247447036Y-136161890D01*
X247451121Y-136120409D01*
X247461429Y-136086431D01*
X247478169Y-136055113D01*
X247500697Y-136027661D01*
X247528149Y-136005133D01*
X247559467Y-135988393D01*
X247593445Y-135978085D01*
X247634926Y-135974000D01*
X248311146Y-135974000D01*
X248352627Y-135978085D01*
X248352627Y-135978085D01*
G37*
G36*
X227746000Y-136701000D02*
X226694000Y-136701000D01*
X226694000Y-135724000D01*
X227746000Y-135724000D01*
X227746000Y-136701000D01*
X227746000Y-136701000D01*
G37*
G36*
X230451000Y-136501000D02*
X229549000Y-136501000D01*
X229549000Y-135499000D01*
X230451000Y-135499000D01*
X230451000Y-136501000D01*
X230451000Y-136501000D01*
G37*
G36*
X240026000Y-135411000D02*
X238974000Y-135411000D01*
X238974000Y-134434000D01*
X240026000Y-134434000D01*
X240026000Y-135411000D01*
X240026000Y-135411000D01*
G37*
G36*
X204151000Y-135151000D02*
X202349000Y-135151000D01*
X202349000Y-133349000D01*
X204151000Y-133349000D01*
X204151000Y-135151000D01*
X204151000Y-135151000D01*
G37*
G36*
X214550048Y-131546284D02*
X214566446Y-131551258D01*
X214581552Y-131559333D01*
X214594797Y-131570203D01*
X214605667Y-131583448D01*
X214609760Y-131591105D01*
X214623374Y-131611479D01*
X214640701Y-131628806D01*
X214661075Y-131642420D01*
X214683714Y-131651798D01*
X214707748Y-131656578D01*
X214732252Y-131656578D01*
X214756286Y-131651798D01*
X214778925Y-131642420D01*
X214799299Y-131628806D01*
X214816626Y-131611479D01*
X214830240Y-131591105D01*
X214834333Y-131583448D01*
X214845203Y-131570203D01*
X214858448Y-131559333D01*
X214873554Y-131551258D01*
X214889952Y-131546284D01*
X214913141Y-131544000D01*
X215326859Y-131544000D01*
X215350048Y-131546284D01*
X215366446Y-131551258D01*
X215381552Y-131559333D01*
X215394797Y-131570203D01*
X215405667Y-131583448D01*
X215409760Y-131591105D01*
X215423374Y-131611479D01*
X215440701Y-131628806D01*
X215461075Y-131642420D01*
X215483714Y-131651798D01*
X215507748Y-131656578D01*
X215532252Y-131656578D01*
X215556286Y-131651798D01*
X215578925Y-131642420D01*
X215599299Y-131628806D01*
X215616626Y-131611479D01*
X215630240Y-131591105D01*
X215634333Y-131583448D01*
X215645203Y-131570203D01*
X215658448Y-131559333D01*
X215673554Y-131551258D01*
X215689952Y-131546284D01*
X215713141Y-131544000D01*
X216126859Y-131544000D01*
X216150048Y-131546284D01*
X216166446Y-131551258D01*
X216181552Y-131559333D01*
X216194797Y-131570203D01*
X216205667Y-131583448D01*
X216209760Y-131591105D01*
X216223374Y-131611479D01*
X216240701Y-131628806D01*
X216261075Y-131642420D01*
X216283714Y-131651798D01*
X216307748Y-131656578D01*
X216332252Y-131656578D01*
X216356286Y-131651798D01*
X216378925Y-131642420D01*
X216399299Y-131628806D01*
X216416626Y-131611479D01*
X216430240Y-131591105D01*
X216434333Y-131583448D01*
X216445203Y-131570203D01*
X216458448Y-131559333D01*
X216473554Y-131551258D01*
X216489952Y-131546284D01*
X216513141Y-131544000D01*
X216926859Y-131544000D01*
X216950048Y-131546284D01*
X216966446Y-131551258D01*
X216981552Y-131559333D01*
X216994797Y-131570203D01*
X217005667Y-131583448D01*
X217009760Y-131591105D01*
X217023374Y-131611479D01*
X217040701Y-131628806D01*
X217061075Y-131642420D01*
X217083714Y-131651798D01*
X217107748Y-131656578D01*
X217132252Y-131656578D01*
X217156286Y-131651798D01*
X217178925Y-131642420D01*
X217199299Y-131628806D01*
X217216626Y-131611479D01*
X217230240Y-131591105D01*
X217234333Y-131583448D01*
X217245203Y-131570203D01*
X217258448Y-131559333D01*
X217273554Y-131551258D01*
X217289952Y-131546284D01*
X217313141Y-131544000D01*
X217726859Y-131544000D01*
X217750048Y-131546284D01*
X217766446Y-131551258D01*
X217781552Y-131559333D01*
X217794797Y-131570203D01*
X217805667Y-131583448D01*
X217809760Y-131591105D01*
X217823374Y-131611479D01*
X217840701Y-131628806D01*
X217861075Y-131642420D01*
X217883714Y-131651798D01*
X217907748Y-131656578D01*
X217932252Y-131656578D01*
X217956286Y-131651798D01*
X217978925Y-131642420D01*
X217999299Y-131628806D01*
X218016626Y-131611479D01*
X218030240Y-131591105D01*
X218034333Y-131583448D01*
X218045203Y-131570203D01*
X218058448Y-131559333D01*
X218073554Y-131551258D01*
X218089952Y-131546284D01*
X218113141Y-131544000D01*
X218526859Y-131544000D01*
X218550048Y-131546284D01*
X218566446Y-131551258D01*
X218581552Y-131559333D01*
X218594797Y-131570203D01*
X218605667Y-131583448D01*
X218609760Y-131591105D01*
X218623374Y-131611479D01*
X218640701Y-131628806D01*
X218661075Y-131642420D01*
X218683714Y-131651798D01*
X218707748Y-131656578D01*
X218732252Y-131656578D01*
X218756286Y-131651798D01*
X218778925Y-131642420D01*
X218799299Y-131628806D01*
X218816626Y-131611479D01*
X218830240Y-131591105D01*
X218834333Y-131583448D01*
X218845203Y-131570203D01*
X218858448Y-131559333D01*
X218873554Y-131551258D01*
X218889952Y-131546284D01*
X218913141Y-131544000D01*
X219326859Y-131544000D01*
X219350048Y-131546284D01*
X219366446Y-131551258D01*
X219381552Y-131559333D01*
X219394797Y-131570203D01*
X219405667Y-131583448D01*
X219409760Y-131591105D01*
X219423374Y-131611479D01*
X219440701Y-131628806D01*
X219461075Y-131642420D01*
X219483714Y-131651798D01*
X219507748Y-131656578D01*
X219532252Y-131656578D01*
X219556286Y-131651798D01*
X219578925Y-131642420D01*
X219599299Y-131628806D01*
X219616626Y-131611479D01*
X219630240Y-131591105D01*
X219634333Y-131583448D01*
X219645203Y-131570203D01*
X219658448Y-131559333D01*
X219673554Y-131551258D01*
X219689952Y-131546284D01*
X219713141Y-131544000D01*
X220126859Y-131544000D01*
X220150048Y-131546284D01*
X220166446Y-131551258D01*
X220181552Y-131559333D01*
X220194797Y-131570203D01*
X220205667Y-131583448D01*
X220213742Y-131598554D01*
X220218716Y-131614952D01*
X220221000Y-131638141D01*
X220221000Y-133051859D01*
X220218716Y-133075048D01*
X220213742Y-133091446D01*
X220205667Y-133106552D01*
X220194797Y-133119797D01*
X220181552Y-133130667D01*
X220166446Y-133138742D01*
X220150048Y-133143716D01*
X220126859Y-133146000D01*
X219713141Y-133146000D01*
X219689952Y-133143716D01*
X219673554Y-133138742D01*
X219658448Y-133130667D01*
X219645203Y-133119797D01*
X219634333Y-133106552D01*
X219630240Y-133098895D01*
X219616626Y-133078521D01*
X219599299Y-133061194D01*
X219578925Y-133047580D01*
X219556286Y-133038202D01*
X219532252Y-133033422D01*
X219507748Y-133033422D01*
X219483714Y-133038202D01*
X219461075Y-133047580D01*
X219440701Y-133061194D01*
X219423374Y-133078521D01*
X219409760Y-133098895D01*
X219405667Y-133106552D01*
X219394797Y-133119797D01*
X219381552Y-133130667D01*
X219366446Y-133138742D01*
X219350048Y-133143716D01*
X219326859Y-133146000D01*
X218913141Y-133146000D01*
X218889952Y-133143716D01*
X218873554Y-133138742D01*
X218858448Y-133130667D01*
X218845203Y-133119797D01*
X218834333Y-133106552D01*
X218830240Y-133098895D01*
X218816626Y-133078521D01*
X218799299Y-133061194D01*
X218778925Y-133047580D01*
X218756286Y-133038202D01*
X218732252Y-133033422D01*
X218707748Y-133033422D01*
X218683714Y-133038202D01*
X218661075Y-133047580D01*
X218640701Y-133061194D01*
X218623374Y-133078521D01*
X218609760Y-133098895D01*
X218605667Y-133106552D01*
X218594797Y-133119797D01*
X218581552Y-133130667D01*
X218566446Y-133138742D01*
X218550048Y-133143716D01*
X218526859Y-133146000D01*
X218113141Y-133146000D01*
X218089952Y-133143716D01*
X218073554Y-133138742D01*
X218058448Y-133130667D01*
X218045203Y-133119797D01*
X218034333Y-133106552D01*
X218030240Y-133098895D01*
X218016626Y-133078521D01*
X217999299Y-133061194D01*
X217978925Y-133047580D01*
X217956286Y-133038202D01*
X217932252Y-133033422D01*
X217907748Y-133033422D01*
X217883714Y-133038202D01*
X217861075Y-133047580D01*
X217840701Y-133061194D01*
X217823374Y-133078521D01*
X217809760Y-133098895D01*
X217805667Y-133106552D01*
X217794797Y-133119797D01*
X217781552Y-133130667D01*
X217766446Y-133138742D01*
X217750048Y-133143716D01*
X217726859Y-133146000D01*
X217313141Y-133146000D01*
X217289952Y-133143716D01*
X217273554Y-133138742D01*
X217258448Y-133130667D01*
X217245203Y-133119797D01*
X217234333Y-133106552D01*
X217230240Y-133098895D01*
X217216626Y-133078521D01*
X217199299Y-133061194D01*
X217178925Y-133047580D01*
X217156286Y-133038202D01*
X217132252Y-133033422D01*
X217107748Y-133033422D01*
X217083714Y-133038202D01*
X217061075Y-133047580D01*
X217040701Y-133061194D01*
X217023374Y-133078521D01*
X217009760Y-133098895D01*
X217005667Y-133106552D01*
X216994797Y-133119797D01*
X216981552Y-133130667D01*
X216966446Y-133138742D01*
X216950048Y-133143716D01*
X216926859Y-133146000D01*
X216513141Y-133146000D01*
X216489952Y-133143716D01*
X216473554Y-133138742D01*
X216458448Y-133130667D01*
X216445203Y-133119797D01*
X216434333Y-133106552D01*
X216430240Y-133098895D01*
X216416626Y-133078521D01*
X216399299Y-133061194D01*
X216378925Y-133047580D01*
X216356286Y-133038202D01*
X216332252Y-133033422D01*
X216307748Y-133033422D01*
X216283714Y-133038202D01*
X216261075Y-133047580D01*
X216240701Y-133061194D01*
X216223374Y-133078521D01*
X216209760Y-133098895D01*
X216205667Y-133106552D01*
X216194797Y-133119797D01*
X216181552Y-133130667D01*
X216166446Y-133138742D01*
X216150048Y-133143716D01*
X216126859Y-133146000D01*
X215713141Y-133146000D01*
X215689952Y-133143716D01*
X215673554Y-133138742D01*
X215658448Y-133130667D01*
X215645203Y-133119797D01*
X215634333Y-133106552D01*
X215630240Y-133098895D01*
X215616626Y-133078521D01*
X215599299Y-133061194D01*
X215578925Y-133047580D01*
X215556286Y-133038202D01*
X215532252Y-133033422D01*
X215507748Y-133033422D01*
X215483714Y-133038202D01*
X215461075Y-133047580D01*
X215440701Y-133061194D01*
X215423374Y-133078521D01*
X215409760Y-133098895D01*
X215405667Y-133106552D01*
X215394797Y-133119797D01*
X215381552Y-133130667D01*
X215366446Y-133138742D01*
X215350048Y-133143716D01*
X215326859Y-133146000D01*
X214913141Y-133146000D01*
X214889952Y-133143716D01*
X214873554Y-133138742D01*
X214858448Y-133130667D01*
X214845203Y-133119797D01*
X214834333Y-133106552D01*
X214830240Y-133098895D01*
X214816626Y-133078521D01*
X214799299Y-133061194D01*
X214778925Y-133047580D01*
X214756286Y-133038202D01*
X214732252Y-133033422D01*
X214707748Y-133033422D01*
X214683714Y-133038202D01*
X214661075Y-133047580D01*
X214640701Y-133061194D01*
X214623374Y-133078521D01*
X214609760Y-133098895D01*
X214605667Y-133106552D01*
X214594797Y-133119797D01*
X214581552Y-133130667D01*
X214566446Y-133138742D01*
X214550048Y-133143716D01*
X214526859Y-133146000D01*
X214113141Y-133146000D01*
X214089952Y-133143716D01*
X214073554Y-133138742D01*
X214058448Y-133130667D01*
X214045203Y-133119797D01*
X214034333Y-133106552D01*
X214026258Y-133091446D01*
X214021284Y-133075048D01*
X214019000Y-133051859D01*
X214019000Y-131638141D01*
X214021284Y-131614952D01*
X214026258Y-131598554D01*
X214034333Y-131583448D01*
X214045203Y-131570203D01*
X214058448Y-131559333D01*
X214073554Y-131551258D01*
X214089952Y-131546284D01*
X214113141Y-131544000D01*
X214526859Y-131544000D01*
X214550048Y-131546284D01*
X214550048Y-131546284D01*
G37*
G36*
X218594591Y-129998085D02*
X218628569Y-130008393D01*
X218659887Y-130025133D01*
X218687339Y-130047661D01*
X218709867Y-130075113D01*
X218726607Y-130106431D01*
X218736915Y-130140409D01*
X218741000Y-130181890D01*
X218741000Y-130858110D01*
X218736915Y-130899591D01*
X218726607Y-130933569D01*
X218709867Y-130964887D01*
X218687339Y-130992339D01*
X218659887Y-131014867D01*
X218628569Y-131031607D01*
X218594591Y-131041915D01*
X218553110Y-131046000D01*
X217951890Y-131046000D01*
X217910409Y-131041915D01*
X217876431Y-131031607D01*
X217845113Y-131014867D01*
X217817661Y-130992339D01*
X217795133Y-130964887D01*
X217778393Y-130933569D01*
X217768085Y-130899591D01*
X217764000Y-130858110D01*
X217764000Y-130181890D01*
X217768085Y-130140409D01*
X217778393Y-130106431D01*
X217795133Y-130075113D01*
X217817661Y-130047661D01*
X217845113Y-130025133D01*
X217876431Y-130008393D01*
X217910409Y-129998085D01*
X217951890Y-129994000D01*
X218553110Y-129994000D01*
X218594591Y-129998085D01*
X218594591Y-129998085D01*
G37*
G36*
X220169591Y-129998085D02*
X220203569Y-130008393D01*
X220234887Y-130025133D01*
X220262339Y-130047661D01*
X220284867Y-130075113D01*
X220301607Y-130106431D01*
X220311915Y-130140409D01*
X220316000Y-130181890D01*
X220316000Y-130858110D01*
X220311915Y-130899591D01*
X220301607Y-130933569D01*
X220284867Y-130964887D01*
X220262339Y-130992339D01*
X220234887Y-131014867D01*
X220203569Y-131031607D01*
X220169591Y-131041915D01*
X220128110Y-131046000D01*
X219526890Y-131046000D01*
X219485409Y-131041915D01*
X219451431Y-131031607D01*
X219420113Y-131014867D01*
X219392661Y-130992339D01*
X219370133Y-130964887D01*
X219353393Y-130933569D01*
X219343085Y-130899591D01*
X219339000Y-130858110D01*
X219339000Y-130181890D01*
X219343085Y-130140409D01*
X219353393Y-130106431D01*
X219370133Y-130075113D01*
X219392661Y-130047661D01*
X219420113Y-130025133D01*
X219451431Y-130008393D01*
X219485409Y-129998085D01*
X219526890Y-129994000D01*
X220128110Y-129994000D01*
X220169591Y-129998085D01*
X220169591Y-129998085D01*
G37*
G36*
X202554591Y-129728085D02*
X202588569Y-129738393D01*
X202619887Y-129755133D01*
X202647339Y-129777661D01*
X202669867Y-129805113D01*
X202686607Y-129836431D01*
X202696915Y-129870409D01*
X202701000Y-129911890D01*
X202701000Y-130588110D01*
X202696915Y-130629591D01*
X202686607Y-130663569D01*
X202669867Y-130694887D01*
X202647339Y-130722339D01*
X202619887Y-130744867D01*
X202588569Y-130761607D01*
X202554591Y-130771915D01*
X202513110Y-130776000D01*
X201911890Y-130776000D01*
X201870409Y-130771915D01*
X201836431Y-130761607D01*
X201805113Y-130744867D01*
X201777661Y-130722339D01*
X201755133Y-130694887D01*
X201738393Y-130663569D01*
X201728085Y-130629591D01*
X201724000Y-130588110D01*
X201724000Y-129911890D01*
X201728085Y-129870409D01*
X201738393Y-129836431D01*
X201755133Y-129805113D01*
X201777661Y-129777661D01*
X201805113Y-129755133D01*
X201836431Y-129738393D01*
X201870409Y-129728085D01*
X201911890Y-129724000D01*
X202513110Y-129724000D01*
X202554591Y-129728085D01*
X202554591Y-129728085D01*
G37*
G36*
X204129591Y-129728085D02*
X204163569Y-129738393D01*
X204194887Y-129755133D01*
X204222339Y-129777661D01*
X204244867Y-129805113D01*
X204261607Y-129836431D01*
X204271915Y-129870409D01*
X204276000Y-129911890D01*
X204276000Y-130588110D01*
X204271915Y-130629591D01*
X204261607Y-130663569D01*
X204244867Y-130694887D01*
X204222339Y-130722339D01*
X204194887Y-130744867D01*
X204163569Y-130761607D01*
X204129591Y-130771915D01*
X204088110Y-130776000D01*
X203486890Y-130776000D01*
X203445409Y-130771915D01*
X203411431Y-130761607D01*
X203380113Y-130744867D01*
X203352661Y-130722339D01*
X203330133Y-130694887D01*
X203313393Y-130663569D01*
X203303085Y-130629591D01*
X203299000Y-130588110D01*
X203299000Y-129911890D01*
X203303085Y-129870409D01*
X203313393Y-129836431D01*
X203330133Y-129805113D01*
X203352661Y-129777661D01*
X203380113Y-129755133D01*
X203411431Y-129738393D01*
X203445409Y-129728085D01*
X203486890Y-129724000D01*
X204088110Y-129724000D01*
X204129591Y-129728085D01*
X204129591Y-129728085D01*
G37*
G36*
X208526000Y-129776000D02*
X207474000Y-129776000D01*
X207474000Y-128799000D01*
X208526000Y-128799000D01*
X208526000Y-129776000D01*
X208526000Y-129776000D01*
G37*
G36*
X202554591Y-128228085D02*
X202588569Y-128238393D01*
X202619887Y-128255133D01*
X202647339Y-128277661D01*
X202669867Y-128305113D01*
X202686607Y-128336431D01*
X202696915Y-128370409D01*
X202701000Y-128411890D01*
X202701000Y-129088110D01*
X202696915Y-129129591D01*
X202686607Y-129163569D01*
X202669867Y-129194887D01*
X202647339Y-129222339D01*
X202619887Y-129244867D01*
X202588569Y-129261607D01*
X202554591Y-129271915D01*
X202513110Y-129276000D01*
X201911890Y-129276000D01*
X201870409Y-129271915D01*
X201836431Y-129261607D01*
X201805113Y-129244867D01*
X201777661Y-129222339D01*
X201755133Y-129194887D01*
X201738393Y-129163569D01*
X201728085Y-129129591D01*
X201724000Y-129088110D01*
X201724000Y-128411890D01*
X201728085Y-128370409D01*
X201738393Y-128336431D01*
X201755133Y-128305113D01*
X201777661Y-128277661D01*
X201805113Y-128255133D01*
X201836431Y-128238393D01*
X201870409Y-128228085D01*
X201911890Y-128224000D01*
X202513110Y-128224000D01*
X202554591Y-128228085D01*
X202554591Y-128228085D01*
G37*
G36*
X204129591Y-128228085D02*
X204163569Y-128238393D01*
X204194887Y-128255133D01*
X204222339Y-128277661D01*
X204244867Y-128305113D01*
X204261607Y-128336431D01*
X204271915Y-128370409D01*
X204276000Y-128411890D01*
X204276000Y-129088110D01*
X204271915Y-129129591D01*
X204261607Y-129163569D01*
X204244867Y-129194887D01*
X204222339Y-129222339D01*
X204194887Y-129244867D01*
X204163569Y-129261607D01*
X204129591Y-129271915D01*
X204088110Y-129276000D01*
X203486890Y-129276000D01*
X203445409Y-129271915D01*
X203411431Y-129261607D01*
X203380113Y-129244867D01*
X203352661Y-129222339D01*
X203330133Y-129194887D01*
X203313393Y-129163569D01*
X203303085Y-129129591D01*
X203299000Y-129088110D01*
X203299000Y-128411890D01*
X203303085Y-128370409D01*
X203313393Y-128336431D01*
X203330133Y-128305113D01*
X203352661Y-128277661D01*
X203380113Y-128255133D01*
X203411431Y-128238393D01*
X203445409Y-128228085D01*
X203486890Y-128224000D01*
X204088110Y-128224000D01*
X204129591Y-128228085D01*
X204129591Y-128228085D01*
G37*
G36*
X208526000Y-128201000D02*
X207474000Y-128201000D01*
X207474000Y-127224000D01*
X208526000Y-127224000D01*
X208526000Y-128201000D01*
X208526000Y-128201000D01*
G37*
G36*
X262689433Y-101883686D02*
X262729281Y-101895774D01*
X262766001Y-101915401D01*
X262798186Y-101941814D01*
X262824599Y-101973999D01*
X262844226Y-102010719D01*
X262856314Y-102050567D01*
X262861000Y-102098141D01*
X262861000Y-102761859D01*
X262856314Y-102809433D01*
X262844226Y-102849281D01*
X262824599Y-102886001D01*
X262798186Y-102918186D01*
X262765998Y-102944603D01*
X262746994Y-102954760D01*
X262726619Y-102968373D01*
X262709292Y-102985700D01*
X262695678Y-103006075D01*
X262686301Y-103028714D01*
X262681520Y-103052747D01*
X262681520Y-103077252D01*
X262686300Y-103101285D01*
X262695678Y-103123924D01*
X262709291Y-103144299D01*
X262726618Y-103161626D01*
X262746994Y-103175240D01*
X262765998Y-103185397D01*
X262798186Y-103211814D01*
X262824599Y-103243999D01*
X262844226Y-103280719D01*
X262856314Y-103320567D01*
X262861000Y-103368141D01*
X262861000Y-104031859D01*
X262856314Y-104079433D01*
X262844226Y-104119281D01*
X262824599Y-104156001D01*
X262798186Y-104188186D01*
X262765998Y-104214603D01*
X262746994Y-104224760D01*
X262726619Y-104238373D01*
X262709292Y-104255700D01*
X262695678Y-104276075D01*
X262686301Y-104298714D01*
X262681520Y-104322747D01*
X262681520Y-104347252D01*
X262686300Y-104371285D01*
X262695678Y-104393924D01*
X262709291Y-104414299D01*
X262726618Y-104431626D01*
X262746994Y-104445240D01*
X262765998Y-104455397D01*
X262798186Y-104481814D01*
X262824599Y-104513999D01*
X262844226Y-104550719D01*
X262856314Y-104590567D01*
X262861000Y-104638141D01*
X262861000Y-105301859D01*
X262856314Y-105349433D01*
X262844226Y-105389281D01*
X262824599Y-105426001D01*
X262798186Y-105458186D01*
X262765998Y-105484603D01*
X262746994Y-105494760D01*
X262726619Y-105508373D01*
X262709292Y-105525700D01*
X262695678Y-105546075D01*
X262686301Y-105568714D01*
X262681520Y-105592747D01*
X262681520Y-105617252D01*
X262686300Y-105641285D01*
X262695678Y-105663924D01*
X262709291Y-105684299D01*
X262726618Y-105701626D01*
X262746994Y-105715240D01*
X262765998Y-105725397D01*
X262798186Y-105751814D01*
X262824599Y-105783999D01*
X262844226Y-105820719D01*
X262856314Y-105860567D01*
X262861000Y-105908141D01*
X262861000Y-106571859D01*
X262856314Y-106619433D01*
X262844226Y-106659281D01*
X262824599Y-106696001D01*
X262798186Y-106728186D01*
X262765998Y-106754603D01*
X262746994Y-106764760D01*
X262726619Y-106778373D01*
X262709292Y-106795700D01*
X262695678Y-106816075D01*
X262686301Y-106838714D01*
X262681520Y-106862747D01*
X262681520Y-106887252D01*
X262686300Y-106911285D01*
X262695678Y-106933924D01*
X262709291Y-106954299D01*
X262726618Y-106971626D01*
X262746994Y-106985240D01*
X262765998Y-106995397D01*
X262798186Y-107021814D01*
X262824599Y-107053999D01*
X262844226Y-107090719D01*
X262856314Y-107130567D01*
X262861000Y-107178141D01*
X262861000Y-107841859D01*
X262856314Y-107889433D01*
X262844226Y-107929281D01*
X262824599Y-107966001D01*
X262798186Y-107998186D01*
X262765998Y-108024603D01*
X262746994Y-108034760D01*
X262726619Y-108048373D01*
X262709292Y-108065700D01*
X262695678Y-108086075D01*
X262686301Y-108108714D01*
X262681520Y-108132747D01*
X262681520Y-108157252D01*
X262686300Y-108181285D01*
X262695678Y-108203924D01*
X262709291Y-108224299D01*
X262726618Y-108241626D01*
X262746994Y-108255240D01*
X262765998Y-108265397D01*
X262798186Y-108291814D01*
X262824599Y-108323999D01*
X262844226Y-108360719D01*
X262856314Y-108400567D01*
X262861000Y-108448141D01*
X262861000Y-109111859D01*
X262856314Y-109159433D01*
X262844226Y-109199281D01*
X262824599Y-109236001D01*
X262798186Y-109268186D01*
X262765998Y-109294603D01*
X262746994Y-109304760D01*
X262726619Y-109318373D01*
X262709292Y-109335700D01*
X262695678Y-109356075D01*
X262686301Y-109378714D01*
X262681520Y-109402747D01*
X262681520Y-109427252D01*
X262686300Y-109451285D01*
X262695678Y-109473924D01*
X262709291Y-109494299D01*
X262726618Y-109511626D01*
X262746994Y-109525240D01*
X262765998Y-109535397D01*
X262798186Y-109561814D01*
X262824599Y-109593999D01*
X262844226Y-109630719D01*
X262856314Y-109670567D01*
X262861000Y-109718141D01*
X262861000Y-110381859D01*
X262856314Y-110429433D01*
X262844226Y-110469281D01*
X262824599Y-110506001D01*
X262798186Y-110538186D01*
X262765998Y-110564603D01*
X262746994Y-110574760D01*
X262726619Y-110588373D01*
X262709292Y-110605700D01*
X262695678Y-110626075D01*
X262686301Y-110648714D01*
X262681520Y-110672747D01*
X262681520Y-110697252D01*
X262686300Y-110721285D01*
X262695678Y-110743924D01*
X262709291Y-110764299D01*
X262726618Y-110781626D01*
X262746994Y-110795240D01*
X262765998Y-110805397D01*
X262798186Y-110831814D01*
X262824599Y-110863999D01*
X262844226Y-110900719D01*
X262856314Y-110940567D01*
X262861000Y-110988141D01*
X262861000Y-111651859D01*
X262856314Y-111699433D01*
X262844226Y-111739281D01*
X262824599Y-111776001D01*
X262798186Y-111808186D01*
X262765998Y-111834603D01*
X262746994Y-111844760D01*
X262726619Y-111858373D01*
X262709292Y-111875700D01*
X262695678Y-111896075D01*
X262686301Y-111918714D01*
X262681520Y-111942747D01*
X262681520Y-111967252D01*
X262686300Y-111991285D01*
X262695678Y-112013924D01*
X262709291Y-112034299D01*
X262726618Y-112051626D01*
X262746994Y-112065240D01*
X262765998Y-112075397D01*
X262798186Y-112101814D01*
X262824599Y-112133999D01*
X262844226Y-112170719D01*
X262856314Y-112210567D01*
X262861000Y-112258141D01*
X262861000Y-112921859D01*
X262856314Y-112969433D01*
X262844226Y-113009281D01*
X262824599Y-113046001D01*
X262798186Y-113078186D01*
X262765998Y-113104603D01*
X262746994Y-113114760D01*
X262726619Y-113128373D01*
X262709292Y-113145700D01*
X262695678Y-113166075D01*
X262686301Y-113188714D01*
X262681520Y-113212747D01*
X262681520Y-113237252D01*
X262686300Y-113261285D01*
X262695678Y-113283924D01*
X262709291Y-113304299D01*
X262726618Y-113321626D01*
X262746994Y-113335240D01*
X262765998Y-113345397D01*
X262798186Y-113371814D01*
X262824599Y-113403999D01*
X262844226Y-113440719D01*
X262856314Y-113480567D01*
X262861000Y-113528141D01*
X262861000Y-114191859D01*
X262856314Y-114239433D01*
X262844226Y-114279281D01*
X262824599Y-114316001D01*
X262798186Y-114348186D01*
X262765998Y-114374603D01*
X262746994Y-114384760D01*
X262726619Y-114398373D01*
X262709292Y-114415700D01*
X262695678Y-114436075D01*
X262686301Y-114458714D01*
X262681520Y-114482747D01*
X262681520Y-114507252D01*
X262686300Y-114531285D01*
X262695678Y-114553924D01*
X262709291Y-114574299D01*
X262726618Y-114591626D01*
X262746994Y-114605240D01*
X262765998Y-114615397D01*
X262798186Y-114641814D01*
X262824599Y-114673999D01*
X262844226Y-114710719D01*
X262856314Y-114750567D01*
X262861000Y-114798141D01*
X262861000Y-115461859D01*
X262856314Y-115509433D01*
X262844226Y-115549281D01*
X262824599Y-115586001D01*
X262798186Y-115618186D01*
X262765998Y-115644603D01*
X262746994Y-115654760D01*
X262726619Y-115668373D01*
X262709292Y-115685700D01*
X262695678Y-115706075D01*
X262686301Y-115728714D01*
X262681520Y-115752747D01*
X262681520Y-115777252D01*
X262686300Y-115801285D01*
X262695678Y-115823924D01*
X262709291Y-115844299D01*
X262726618Y-115861626D01*
X262746994Y-115875240D01*
X262765998Y-115885397D01*
X262798186Y-115911814D01*
X262824599Y-115943999D01*
X262844226Y-115980719D01*
X262856314Y-116020567D01*
X262861000Y-116068141D01*
X262861000Y-116731859D01*
X262856314Y-116779433D01*
X262844226Y-116819281D01*
X262824599Y-116856001D01*
X262798186Y-116888186D01*
X262765998Y-116914603D01*
X262746994Y-116924760D01*
X262726619Y-116938373D01*
X262709292Y-116955700D01*
X262695678Y-116976075D01*
X262686301Y-116998714D01*
X262681520Y-117022747D01*
X262681520Y-117047252D01*
X262686300Y-117071285D01*
X262695678Y-117093924D01*
X262709291Y-117114299D01*
X262726618Y-117131626D01*
X262746994Y-117145240D01*
X262765998Y-117155397D01*
X262798186Y-117181814D01*
X262824599Y-117213999D01*
X262844226Y-117250719D01*
X262856314Y-117290567D01*
X262861000Y-117338141D01*
X262861000Y-118001859D01*
X262856314Y-118049433D01*
X262844226Y-118089281D01*
X262824599Y-118126001D01*
X262798186Y-118158186D01*
X262765998Y-118184603D01*
X262746994Y-118194760D01*
X262726619Y-118208373D01*
X262709292Y-118225700D01*
X262695678Y-118246075D01*
X262686301Y-118268714D01*
X262681520Y-118292747D01*
X262681520Y-118317252D01*
X262686300Y-118341285D01*
X262695678Y-118363924D01*
X262709291Y-118384299D01*
X262726618Y-118401626D01*
X262746994Y-118415240D01*
X262765998Y-118425397D01*
X262798186Y-118451814D01*
X262824599Y-118483999D01*
X262844226Y-118520719D01*
X262856314Y-118560567D01*
X262861000Y-118608141D01*
X262861000Y-119271859D01*
X262856314Y-119319433D01*
X262844226Y-119359281D01*
X262824599Y-119396001D01*
X262798186Y-119428186D01*
X262765998Y-119454603D01*
X262746994Y-119464760D01*
X262726619Y-119478373D01*
X262709292Y-119495700D01*
X262695678Y-119516075D01*
X262686301Y-119538714D01*
X262681520Y-119562747D01*
X262681520Y-119587252D01*
X262686300Y-119611285D01*
X262695678Y-119633924D01*
X262709291Y-119654299D01*
X262726618Y-119671626D01*
X262746994Y-119685240D01*
X262765998Y-119695397D01*
X262798186Y-119721814D01*
X262824599Y-119753999D01*
X262844226Y-119790719D01*
X262856314Y-119830567D01*
X262861000Y-119878141D01*
X262861000Y-120541859D01*
X262856314Y-120589433D01*
X262844226Y-120629281D01*
X262824599Y-120666001D01*
X262798186Y-120698186D01*
X262765998Y-120724603D01*
X262746994Y-120734760D01*
X262726619Y-120748373D01*
X262709292Y-120765700D01*
X262695678Y-120786075D01*
X262686301Y-120808714D01*
X262681520Y-120832747D01*
X262681520Y-120857252D01*
X262686300Y-120881285D01*
X262695678Y-120903924D01*
X262709291Y-120924299D01*
X262726618Y-120941626D01*
X262746994Y-120955240D01*
X262765998Y-120965397D01*
X262798186Y-120991814D01*
X262824599Y-121023999D01*
X262844226Y-121060719D01*
X262856314Y-121100567D01*
X262861000Y-121148141D01*
X262861000Y-121811859D01*
X262856314Y-121859433D01*
X262844226Y-121899281D01*
X262824599Y-121936001D01*
X262798186Y-121968186D01*
X262765998Y-121994603D01*
X262746994Y-122004760D01*
X262726619Y-122018373D01*
X262709292Y-122035700D01*
X262695678Y-122056075D01*
X262686301Y-122078714D01*
X262681520Y-122102747D01*
X262681520Y-122127252D01*
X262686300Y-122151285D01*
X262695678Y-122173924D01*
X262709291Y-122194299D01*
X262726618Y-122211626D01*
X262746994Y-122225240D01*
X262765998Y-122235397D01*
X262798186Y-122261814D01*
X262824599Y-122293999D01*
X262844226Y-122330719D01*
X262856314Y-122370567D01*
X262861000Y-122418141D01*
X262861000Y-123081859D01*
X262856314Y-123129433D01*
X262844226Y-123169281D01*
X262824599Y-123206001D01*
X262798186Y-123238186D01*
X262765998Y-123264603D01*
X262746994Y-123274760D01*
X262726619Y-123288373D01*
X262709292Y-123305700D01*
X262695678Y-123326075D01*
X262686301Y-123348714D01*
X262681520Y-123372747D01*
X262681520Y-123397252D01*
X262686300Y-123421285D01*
X262695678Y-123443924D01*
X262709291Y-123464299D01*
X262726618Y-123481626D01*
X262746994Y-123495240D01*
X262765998Y-123505397D01*
X262798186Y-123531814D01*
X262824599Y-123563999D01*
X262844226Y-123600719D01*
X262856314Y-123640567D01*
X262861000Y-123688141D01*
X262861000Y-124351859D01*
X262856314Y-124399433D01*
X262844226Y-124439281D01*
X262824599Y-124476001D01*
X262798186Y-124508186D01*
X262765998Y-124534603D01*
X262746994Y-124544760D01*
X262726619Y-124558373D01*
X262709292Y-124575700D01*
X262695678Y-124596075D01*
X262686301Y-124618714D01*
X262681520Y-124642747D01*
X262681520Y-124667252D01*
X262686300Y-124691285D01*
X262695678Y-124713924D01*
X262709291Y-124734299D01*
X262726618Y-124751626D01*
X262746994Y-124765240D01*
X262765998Y-124775397D01*
X262798186Y-124801814D01*
X262824599Y-124833999D01*
X262844226Y-124870719D01*
X262856314Y-124910567D01*
X262861000Y-124958141D01*
X262861000Y-125621859D01*
X262856314Y-125669433D01*
X262844226Y-125709281D01*
X262824599Y-125746001D01*
X262798186Y-125778186D01*
X262765998Y-125804603D01*
X262746994Y-125814760D01*
X262726619Y-125828373D01*
X262709292Y-125845700D01*
X262695678Y-125866075D01*
X262686301Y-125888714D01*
X262681520Y-125912747D01*
X262681520Y-125937252D01*
X262686300Y-125961285D01*
X262695678Y-125983924D01*
X262709291Y-126004299D01*
X262726618Y-126021626D01*
X262746994Y-126035240D01*
X262765998Y-126045397D01*
X262798186Y-126071814D01*
X262824599Y-126103999D01*
X262844226Y-126140719D01*
X262856314Y-126180567D01*
X262861000Y-126228141D01*
X262861000Y-126891859D01*
X262856314Y-126939433D01*
X262844226Y-126979281D01*
X262824599Y-127016001D01*
X262798186Y-127048186D01*
X262766001Y-127074599D01*
X262729281Y-127094226D01*
X262689433Y-127106314D01*
X262641859Y-127111000D01*
X261378141Y-127111000D01*
X261330567Y-127106314D01*
X261290719Y-127094226D01*
X261253999Y-127074599D01*
X261221814Y-127048186D01*
X261195401Y-127016001D01*
X261175774Y-126979281D01*
X261163686Y-126939433D01*
X261159000Y-126891859D01*
X261159000Y-126228141D01*
X261163686Y-126180567D01*
X261175774Y-126140719D01*
X261195401Y-126103999D01*
X261221814Y-126071814D01*
X261254002Y-126045397D01*
X261273006Y-126035240D01*
X261293381Y-126021627D01*
X261310708Y-126004300D01*
X261324322Y-125983925D01*
X261333699Y-125961286D01*
X261338480Y-125937253D01*
X261338480Y-125912748D01*
X261333700Y-125888715D01*
X261324322Y-125866076D01*
X261310709Y-125845701D01*
X261293382Y-125828374D01*
X261273006Y-125814760D01*
X261254002Y-125804603D01*
X261221814Y-125778186D01*
X261195401Y-125746001D01*
X261175774Y-125709281D01*
X261163686Y-125669433D01*
X261159000Y-125621859D01*
X261159000Y-124958141D01*
X261163686Y-124910567D01*
X261175774Y-124870719D01*
X261195401Y-124833999D01*
X261221814Y-124801814D01*
X261254002Y-124775397D01*
X261273006Y-124765240D01*
X261293381Y-124751627D01*
X261310708Y-124734300D01*
X261324322Y-124713925D01*
X261333699Y-124691286D01*
X261338480Y-124667253D01*
X261338480Y-124642748D01*
X261333700Y-124618715D01*
X261324322Y-124596076D01*
X261310709Y-124575701D01*
X261293382Y-124558374D01*
X261273006Y-124544760D01*
X261254002Y-124534603D01*
X261221814Y-124508186D01*
X261195401Y-124476001D01*
X261175774Y-124439281D01*
X261163686Y-124399433D01*
X261159000Y-124351859D01*
X261159000Y-123688141D01*
X261163686Y-123640567D01*
X261175774Y-123600719D01*
X261195401Y-123563999D01*
X261221814Y-123531814D01*
X261254002Y-123505397D01*
X261273006Y-123495240D01*
X261293381Y-123481627D01*
X261310708Y-123464300D01*
X261324322Y-123443925D01*
X261333699Y-123421286D01*
X261338480Y-123397253D01*
X261338480Y-123372748D01*
X261333700Y-123348715D01*
X261324322Y-123326076D01*
X261310709Y-123305701D01*
X261293382Y-123288374D01*
X261273006Y-123274760D01*
X261254002Y-123264603D01*
X261221814Y-123238186D01*
X261195401Y-123206001D01*
X261175774Y-123169281D01*
X261163686Y-123129433D01*
X261159000Y-123081859D01*
X261159000Y-122418141D01*
X261163686Y-122370567D01*
X261175774Y-122330719D01*
X261195401Y-122293999D01*
X261221814Y-122261814D01*
X261254002Y-122235397D01*
X261273006Y-122225240D01*
X261293381Y-122211627D01*
X261310708Y-122194300D01*
X261324322Y-122173925D01*
X261333699Y-122151286D01*
X261338480Y-122127253D01*
X261338480Y-122102748D01*
X261333700Y-122078715D01*
X261324322Y-122056076D01*
X261310709Y-122035701D01*
X261293382Y-122018374D01*
X261273006Y-122004760D01*
X261254002Y-121994603D01*
X261221814Y-121968186D01*
X261195401Y-121936001D01*
X261175774Y-121899281D01*
X261163686Y-121859433D01*
X261159000Y-121811859D01*
X261159000Y-121148141D01*
X261163686Y-121100567D01*
X261175774Y-121060719D01*
X261195401Y-121023999D01*
X261221814Y-120991814D01*
X261254002Y-120965397D01*
X261273006Y-120955240D01*
X261293381Y-120941627D01*
X261310708Y-120924300D01*
X261324322Y-120903925D01*
X261333699Y-120881286D01*
X261338480Y-120857253D01*
X261338480Y-120832748D01*
X261333700Y-120808715D01*
X261324322Y-120786076D01*
X261310709Y-120765701D01*
X261293382Y-120748374D01*
X261273006Y-120734760D01*
X261254002Y-120724603D01*
X261221814Y-120698186D01*
X261195401Y-120666001D01*
X261175774Y-120629281D01*
X261163686Y-120589433D01*
X261159000Y-120541859D01*
X261159000Y-119878141D01*
X261163686Y-119830567D01*
X261175774Y-119790719D01*
X261195401Y-119753999D01*
X261221814Y-119721814D01*
X261254002Y-119695397D01*
X261273006Y-119685240D01*
X261293381Y-119671627D01*
X261310708Y-119654300D01*
X261324322Y-119633925D01*
X261333699Y-119611286D01*
X261338480Y-119587253D01*
X261338480Y-119562748D01*
X261333700Y-119538715D01*
X261324322Y-119516076D01*
X261310709Y-119495701D01*
X261293382Y-119478374D01*
X261273006Y-119464760D01*
X261254002Y-119454603D01*
X261221814Y-119428186D01*
X261195401Y-119396001D01*
X261175774Y-119359281D01*
X261163686Y-119319433D01*
X261159000Y-119271859D01*
X261159000Y-118608141D01*
X261163686Y-118560567D01*
X261175774Y-118520719D01*
X261195401Y-118483999D01*
X261221814Y-118451814D01*
X261254002Y-118425397D01*
X261273006Y-118415240D01*
X261293381Y-118401627D01*
X261310708Y-118384300D01*
X261324322Y-118363925D01*
X261333699Y-118341286D01*
X261338480Y-118317253D01*
X261338480Y-118292748D01*
X261333700Y-118268715D01*
X261324322Y-118246076D01*
X261310709Y-118225701D01*
X261293382Y-118208374D01*
X261273006Y-118194760D01*
X261254002Y-118184603D01*
X261221814Y-118158186D01*
X261195401Y-118126001D01*
X261175774Y-118089281D01*
X261163686Y-118049433D01*
X261159000Y-118001859D01*
X261159000Y-117338141D01*
X261163686Y-117290567D01*
X261175774Y-117250719D01*
X261195401Y-117213999D01*
X261221814Y-117181814D01*
X261254002Y-117155397D01*
X261273006Y-117145240D01*
X261293381Y-117131627D01*
X261310708Y-117114300D01*
X261324322Y-117093925D01*
X261333699Y-117071286D01*
X261338480Y-117047253D01*
X261338480Y-117022748D01*
X261333700Y-116998715D01*
X261324322Y-116976076D01*
X261310709Y-116955701D01*
X261293382Y-116938374D01*
X261273006Y-116924760D01*
X261254002Y-116914603D01*
X261221814Y-116888186D01*
X261195401Y-116856001D01*
X261175774Y-116819281D01*
X261163686Y-116779433D01*
X261159000Y-116731859D01*
X261159000Y-116068141D01*
X261163686Y-116020567D01*
X261175774Y-115980719D01*
X261195401Y-115943999D01*
X261221814Y-115911814D01*
X261254002Y-115885397D01*
X261273006Y-115875240D01*
X261293381Y-115861627D01*
X261310708Y-115844300D01*
X261324322Y-115823925D01*
X261333699Y-115801286D01*
X261338480Y-115777253D01*
X261338480Y-115752748D01*
X261333700Y-115728715D01*
X261324322Y-115706076D01*
X261310709Y-115685701D01*
X261293382Y-115668374D01*
X261273006Y-115654760D01*
X261254002Y-115644603D01*
X261221814Y-115618186D01*
X261195401Y-115586001D01*
X261175774Y-115549281D01*
X261163686Y-115509433D01*
X261159000Y-115461859D01*
X261159000Y-114798141D01*
X261163686Y-114750567D01*
X261175774Y-114710719D01*
X261195401Y-114673999D01*
X261221814Y-114641814D01*
X261254002Y-114615397D01*
X261273006Y-114605240D01*
X261293381Y-114591627D01*
X261310708Y-114574300D01*
X261324322Y-114553925D01*
X261333699Y-114531286D01*
X261338480Y-114507253D01*
X261338480Y-114482748D01*
X261333700Y-114458715D01*
X261324322Y-114436076D01*
X261310709Y-114415701D01*
X261293382Y-114398374D01*
X261273006Y-114384760D01*
X261254002Y-114374603D01*
X261221814Y-114348186D01*
X261195401Y-114316001D01*
X261175774Y-114279281D01*
X261163686Y-114239433D01*
X261159000Y-114191859D01*
X261159000Y-113528141D01*
X261163686Y-113480567D01*
X261175774Y-113440719D01*
X261195401Y-113403999D01*
X261221814Y-113371814D01*
X261254002Y-113345397D01*
X261273006Y-113335240D01*
X261293381Y-113321627D01*
X261310708Y-113304300D01*
X261324322Y-113283925D01*
X261333699Y-113261286D01*
X261338480Y-113237253D01*
X261338480Y-113212748D01*
X261333700Y-113188715D01*
X261324322Y-113166076D01*
X261310709Y-113145701D01*
X261293382Y-113128374D01*
X261273006Y-113114760D01*
X261254002Y-113104603D01*
X261221814Y-113078186D01*
X261195401Y-113046001D01*
X261175774Y-113009281D01*
X261163686Y-112969433D01*
X261159000Y-112921859D01*
X261159000Y-112258141D01*
X261163686Y-112210567D01*
X261175774Y-112170719D01*
X261195401Y-112133999D01*
X261221814Y-112101814D01*
X261254002Y-112075397D01*
X261273006Y-112065240D01*
X261293381Y-112051627D01*
X261310708Y-112034300D01*
X261324322Y-112013925D01*
X261333699Y-111991286D01*
X261338480Y-111967253D01*
X261338480Y-111942748D01*
X261333700Y-111918715D01*
X261324322Y-111896076D01*
X261310709Y-111875701D01*
X261293382Y-111858374D01*
X261273006Y-111844760D01*
X261254002Y-111834603D01*
X261221814Y-111808186D01*
X261195401Y-111776001D01*
X261175774Y-111739281D01*
X261163686Y-111699433D01*
X261159000Y-111651859D01*
X261159000Y-110988141D01*
X261163686Y-110940567D01*
X261175774Y-110900719D01*
X261195401Y-110863999D01*
X261221814Y-110831814D01*
X261254002Y-110805397D01*
X261273006Y-110795240D01*
X261293381Y-110781627D01*
X261310708Y-110764300D01*
X261324322Y-110743925D01*
X261333699Y-110721286D01*
X261338480Y-110697253D01*
X261338480Y-110672748D01*
X261333700Y-110648715D01*
X261324322Y-110626076D01*
X261310709Y-110605701D01*
X261293382Y-110588374D01*
X261273006Y-110574760D01*
X261254002Y-110564603D01*
X261221814Y-110538186D01*
X261195401Y-110506001D01*
X261175774Y-110469281D01*
X261163686Y-110429433D01*
X261159000Y-110381859D01*
X261159000Y-109718141D01*
X261163686Y-109670567D01*
X261175774Y-109630719D01*
X261195401Y-109593999D01*
X261221814Y-109561814D01*
X261254002Y-109535397D01*
X261273006Y-109525240D01*
X261293381Y-109511627D01*
X261310708Y-109494300D01*
X261324322Y-109473925D01*
X261333699Y-109451286D01*
X261338480Y-109427253D01*
X261338480Y-109402748D01*
X261333700Y-109378715D01*
X261324322Y-109356076D01*
X261310709Y-109335701D01*
X261293382Y-109318374D01*
X261273006Y-109304760D01*
X261254002Y-109294603D01*
X261221814Y-109268186D01*
X261195401Y-109236001D01*
X261175774Y-109199281D01*
X261163686Y-109159433D01*
X261159000Y-109111859D01*
X261159000Y-108448141D01*
X261163686Y-108400567D01*
X261175774Y-108360719D01*
X261195401Y-108323999D01*
X261221814Y-108291814D01*
X261254002Y-108265397D01*
X261273006Y-108255240D01*
X261293381Y-108241627D01*
X261310708Y-108224300D01*
X261324322Y-108203925D01*
X261333699Y-108181286D01*
X261338480Y-108157253D01*
X261338480Y-108132748D01*
X261333700Y-108108715D01*
X261324322Y-108086076D01*
X261310709Y-108065701D01*
X261293382Y-108048374D01*
X261273006Y-108034760D01*
X261254002Y-108024603D01*
X261221814Y-107998186D01*
X261195401Y-107966001D01*
X261175774Y-107929281D01*
X261163686Y-107889433D01*
X261159000Y-107841859D01*
X261159000Y-107178141D01*
X261163686Y-107130567D01*
X261175774Y-107090719D01*
X261195401Y-107053999D01*
X261221814Y-107021814D01*
X261254002Y-106995397D01*
X261273006Y-106985240D01*
X261293381Y-106971627D01*
X261310708Y-106954300D01*
X261324322Y-106933925D01*
X261333699Y-106911286D01*
X261338480Y-106887253D01*
X261338480Y-106862748D01*
X261333700Y-106838715D01*
X261324322Y-106816076D01*
X261310709Y-106795701D01*
X261293382Y-106778374D01*
X261273006Y-106764760D01*
X261254002Y-106754603D01*
X261221814Y-106728186D01*
X261195401Y-106696001D01*
X261175774Y-106659281D01*
X261163686Y-106619433D01*
X261159000Y-106571859D01*
X261159000Y-105908141D01*
X261163686Y-105860567D01*
X261175774Y-105820719D01*
X261195401Y-105783999D01*
X261221814Y-105751814D01*
X261254002Y-105725397D01*
X261273006Y-105715240D01*
X261293381Y-105701627D01*
X261310708Y-105684300D01*
X261324322Y-105663925D01*
X261333699Y-105641286D01*
X261338480Y-105617253D01*
X261338480Y-105592748D01*
X261333700Y-105568715D01*
X261324322Y-105546076D01*
X261310709Y-105525701D01*
X261293382Y-105508374D01*
X261273006Y-105494760D01*
X261254002Y-105484603D01*
X261221814Y-105458186D01*
X261195401Y-105426001D01*
X261175774Y-105389281D01*
X261163686Y-105349433D01*
X261159000Y-105301859D01*
X261159000Y-104638141D01*
X261163686Y-104590567D01*
X261175774Y-104550719D01*
X261195401Y-104513999D01*
X261221814Y-104481814D01*
X261254002Y-104455397D01*
X261273006Y-104445240D01*
X261293381Y-104431627D01*
X261310708Y-104414300D01*
X261324322Y-104393925D01*
X261333699Y-104371286D01*
X261338480Y-104347253D01*
X261338480Y-104322748D01*
X261333700Y-104298715D01*
X261324322Y-104276076D01*
X261310709Y-104255701D01*
X261293382Y-104238374D01*
X261273006Y-104224760D01*
X261254002Y-104214603D01*
X261221814Y-104188186D01*
X261195401Y-104156001D01*
X261175774Y-104119281D01*
X261163686Y-104079433D01*
X261159000Y-104031859D01*
X261159000Y-103368141D01*
X261163686Y-103320567D01*
X261175774Y-103280719D01*
X261195401Y-103243999D01*
X261221814Y-103211814D01*
X261254002Y-103185397D01*
X261273006Y-103175240D01*
X261293381Y-103161627D01*
X261310708Y-103144300D01*
X261324322Y-103123925D01*
X261333699Y-103101286D01*
X261338480Y-103077253D01*
X261338480Y-103052748D01*
X261333700Y-103028715D01*
X261324322Y-103006076D01*
X261310709Y-102985701D01*
X261293382Y-102968374D01*
X261273006Y-102954760D01*
X261254002Y-102944603D01*
X261221814Y-102918186D01*
X261195401Y-102886001D01*
X261175774Y-102849281D01*
X261163686Y-102809433D01*
X261159000Y-102761859D01*
X261159000Y-102098141D01*
X261163686Y-102050567D01*
X261175774Y-102010719D01*
X261195401Y-101973999D01*
X261221814Y-101941814D01*
X261253999Y-101915401D01*
X261290719Y-101895774D01*
X261330567Y-101883686D01*
X261378141Y-101879000D01*
X262641859Y-101879000D01*
X262689433Y-101883686D01*
X262689433Y-101883686D01*
G37*
G36*
X244909433Y-101883686D02*
X244949281Y-101895774D01*
X244986001Y-101915401D01*
X245018186Y-101941814D01*
X245044599Y-101973999D01*
X245064226Y-102010719D01*
X245076314Y-102050567D01*
X245081000Y-102098141D01*
X245081000Y-102761859D01*
X245076314Y-102809433D01*
X245064226Y-102849281D01*
X245044599Y-102886001D01*
X245018186Y-102918186D01*
X244985998Y-102944603D01*
X244966994Y-102954760D01*
X244946619Y-102968373D01*
X244929292Y-102985700D01*
X244915678Y-103006075D01*
X244906301Y-103028714D01*
X244901520Y-103052747D01*
X244901520Y-103077252D01*
X244906300Y-103101285D01*
X244915678Y-103123924D01*
X244929291Y-103144299D01*
X244946618Y-103161626D01*
X244966994Y-103175240D01*
X244985998Y-103185397D01*
X245018186Y-103211814D01*
X245044599Y-103243999D01*
X245064226Y-103280719D01*
X245076314Y-103320567D01*
X245081000Y-103368141D01*
X245081000Y-104031859D01*
X245076314Y-104079433D01*
X245064226Y-104119281D01*
X245044599Y-104156001D01*
X245018186Y-104188186D01*
X244985998Y-104214603D01*
X244966994Y-104224760D01*
X244946619Y-104238373D01*
X244929292Y-104255700D01*
X244915678Y-104276075D01*
X244906301Y-104298714D01*
X244901520Y-104322747D01*
X244901520Y-104347252D01*
X244906300Y-104371285D01*
X244915678Y-104393924D01*
X244929291Y-104414299D01*
X244946618Y-104431626D01*
X244966994Y-104445240D01*
X244985998Y-104455397D01*
X245018186Y-104481814D01*
X245044599Y-104513999D01*
X245064226Y-104550719D01*
X245076314Y-104590567D01*
X245081000Y-104638141D01*
X245081000Y-105301859D01*
X245076314Y-105349433D01*
X245064226Y-105389281D01*
X245044599Y-105426001D01*
X245018186Y-105458186D01*
X244985998Y-105484603D01*
X244966994Y-105494760D01*
X244946619Y-105508373D01*
X244929292Y-105525700D01*
X244915678Y-105546075D01*
X244906301Y-105568714D01*
X244901520Y-105592747D01*
X244901520Y-105617252D01*
X244906300Y-105641285D01*
X244915678Y-105663924D01*
X244929291Y-105684299D01*
X244946618Y-105701626D01*
X244966994Y-105715240D01*
X244985998Y-105725397D01*
X245018186Y-105751814D01*
X245044599Y-105783999D01*
X245064226Y-105820719D01*
X245076314Y-105860567D01*
X245081000Y-105908141D01*
X245081000Y-106571859D01*
X245076314Y-106619433D01*
X245064226Y-106659281D01*
X245044599Y-106696001D01*
X245018186Y-106728186D01*
X244985998Y-106754603D01*
X244966994Y-106764760D01*
X244946619Y-106778373D01*
X244929292Y-106795700D01*
X244915678Y-106816075D01*
X244906301Y-106838714D01*
X244901520Y-106862747D01*
X244901520Y-106887252D01*
X244906300Y-106911285D01*
X244915678Y-106933924D01*
X244929291Y-106954299D01*
X244946618Y-106971626D01*
X244966994Y-106985240D01*
X244985998Y-106995397D01*
X245018186Y-107021814D01*
X245044599Y-107053999D01*
X245064226Y-107090719D01*
X245076314Y-107130567D01*
X245081000Y-107178141D01*
X245081000Y-107841859D01*
X245076314Y-107889433D01*
X245064226Y-107929281D01*
X245044599Y-107966001D01*
X245018186Y-107998186D01*
X244985998Y-108024603D01*
X244966994Y-108034760D01*
X244946619Y-108048373D01*
X244929292Y-108065700D01*
X244915678Y-108086075D01*
X244906301Y-108108714D01*
X244901520Y-108132747D01*
X244901520Y-108157252D01*
X244906300Y-108181285D01*
X244915678Y-108203924D01*
X244929291Y-108224299D01*
X244946618Y-108241626D01*
X244966994Y-108255240D01*
X244985998Y-108265397D01*
X245018186Y-108291814D01*
X245044599Y-108323999D01*
X245064226Y-108360719D01*
X245076314Y-108400567D01*
X245081000Y-108448141D01*
X245081000Y-109111859D01*
X245076314Y-109159433D01*
X245064226Y-109199281D01*
X245044599Y-109236001D01*
X245018186Y-109268186D01*
X244985998Y-109294603D01*
X244966994Y-109304760D01*
X244946619Y-109318373D01*
X244929292Y-109335700D01*
X244915678Y-109356075D01*
X244906301Y-109378714D01*
X244901520Y-109402747D01*
X244901520Y-109427252D01*
X244906300Y-109451285D01*
X244915678Y-109473924D01*
X244929291Y-109494299D01*
X244946618Y-109511626D01*
X244966994Y-109525240D01*
X244985998Y-109535397D01*
X245018186Y-109561814D01*
X245044599Y-109593999D01*
X245064226Y-109630719D01*
X245076314Y-109670567D01*
X245081000Y-109718141D01*
X245081000Y-110381859D01*
X245076314Y-110429433D01*
X245064226Y-110469281D01*
X245044599Y-110506001D01*
X245018186Y-110538186D01*
X244985998Y-110564603D01*
X244966994Y-110574760D01*
X244946619Y-110588373D01*
X244929292Y-110605700D01*
X244915678Y-110626075D01*
X244906301Y-110648714D01*
X244901520Y-110672747D01*
X244901520Y-110697252D01*
X244906300Y-110721285D01*
X244915678Y-110743924D01*
X244929291Y-110764299D01*
X244946618Y-110781626D01*
X244966994Y-110795240D01*
X244985998Y-110805397D01*
X245018186Y-110831814D01*
X245044599Y-110863999D01*
X245064226Y-110900719D01*
X245076314Y-110940567D01*
X245081000Y-110988141D01*
X245081000Y-111651859D01*
X245076314Y-111699433D01*
X245064226Y-111739281D01*
X245044599Y-111776001D01*
X245018186Y-111808186D01*
X244985998Y-111834603D01*
X244966994Y-111844760D01*
X244946619Y-111858373D01*
X244929292Y-111875700D01*
X244915678Y-111896075D01*
X244906301Y-111918714D01*
X244901520Y-111942747D01*
X244901520Y-111967252D01*
X244906300Y-111991285D01*
X244915678Y-112013924D01*
X244929291Y-112034299D01*
X244946618Y-112051626D01*
X244966994Y-112065240D01*
X244985998Y-112075397D01*
X245018186Y-112101814D01*
X245044599Y-112133999D01*
X245064226Y-112170719D01*
X245076314Y-112210567D01*
X245081000Y-112258141D01*
X245081000Y-112921859D01*
X245076314Y-112969433D01*
X245064226Y-113009281D01*
X245044599Y-113046001D01*
X245018186Y-113078186D01*
X244985998Y-113104603D01*
X244966994Y-113114760D01*
X244946619Y-113128373D01*
X244929292Y-113145700D01*
X244915678Y-113166075D01*
X244906301Y-113188714D01*
X244901520Y-113212747D01*
X244901520Y-113237252D01*
X244906300Y-113261285D01*
X244915678Y-113283924D01*
X244929291Y-113304299D01*
X244946618Y-113321626D01*
X244966994Y-113335240D01*
X244985998Y-113345397D01*
X245018186Y-113371814D01*
X245044599Y-113403999D01*
X245064226Y-113440719D01*
X245076314Y-113480567D01*
X245081000Y-113528141D01*
X245081000Y-114191859D01*
X245076314Y-114239433D01*
X245064226Y-114279281D01*
X245044599Y-114316001D01*
X245018186Y-114348186D01*
X244985998Y-114374603D01*
X244966994Y-114384760D01*
X244946619Y-114398373D01*
X244929292Y-114415700D01*
X244915678Y-114436075D01*
X244906301Y-114458714D01*
X244901520Y-114482747D01*
X244901520Y-114507252D01*
X244906300Y-114531285D01*
X244915678Y-114553924D01*
X244929291Y-114574299D01*
X244946618Y-114591626D01*
X244966994Y-114605240D01*
X244985998Y-114615397D01*
X245018186Y-114641814D01*
X245044599Y-114673999D01*
X245064226Y-114710719D01*
X245076314Y-114750567D01*
X245081000Y-114798141D01*
X245081000Y-115461859D01*
X245076314Y-115509433D01*
X245064226Y-115549281D01*
X245044599Y-115586001D01*
X245018186Y-115618186D01*
X244985998Y-115644603D01*
X244966994Y-115654760D01*
X244946619Y-115668373D01*
X244929292Y-115685700D01*
X244915678Y-115706075D01*
X244906301Y-115728714D01*
X244901520Y-115752747D01*
X244901520Y-115777252D01*
X244906300Y-115801285D01*
X244915678Y-115823924D01*
X244929291Y-115844299D01*
X244946618Y-115861626D01*
X244966994Y-115875240D01*
X244985998Y-115885397D01*
X245018186Y-115911814D01*
X245044599Y-115943999D01*
X245064226Y-115980719D01*
X245076314Y-116020567D01*
X245081000Y-116068141D01*
X245081000Y-116731859D01*
X245076314Y-116779433D01*
X245064226Y-116819281D01*
X245044599Y-116856001D01*
X245018186Y-116888186D01*
X244985998Y-116914603D01*
X244966994Y-116924760D01*
X244946619Y-116938373D01*
X244929292Y-116955700D01*
X244915678Y-116976075D01*
X244906301Y-116998714D01*
X244901520Y-117022747D01*
X244901520Y-117047252D01*
X244906300Y-117071285D01*
X244915678Y-117093924D01*
X244929291Y-117114299D01*
X244946618Y-117131626D01*
X244966994Y-117145240D01*
X244985998Y-117155397D01*
X245018186Y-117181814D01*
X245044599Y-117213999D01*
X245064226Y-117250719D01*
X245076314Y-117290567D01*
X245081000Y-117338141D01*
X245081000Y-118001859D01*
X245076314Y-118049433D01*
X245064226Y-118089281D01*
X245044599Y-118126001D01*
X245018186Y-118158186D01*
X244985998Y-118184603D01*
X244966994Y-118194760D01*
X244946619Y-118208373D01*
X244929292Y-118225700D01*
X244915678Y-118246075D01*
X244906301Y-118268714D01*
X244901520Y-118292747D01*
X244901520Y-118317252D01*
X244906300Y-118341285D01*
X244915678Y-118363924D01*
X244929291Y-118384299D01*
X244946618Y-118401626D01*
X244966994Y-118415240D01*
X244985998Y-118425397D01*
X245018186Y-118451814D01*
X245044599Y-118483999D01*
X245064226Y-118520719D01*
X245076314Y-118560567D01*
X245081000Y-118608141D01*
X245081000Y-119271859D01*
X245076314Y-119319433D01*
X245064226Y-119359281D01*
X245044599Y-119396001D01*
X245018186Y-119428186D01*
X244985998Y-119454603D01*
X244966994Y-119464760D01*
X244946619Y-119478373D01*
X244929292Y-119495700D01*
X244915678Y-119516075D01*
X244906301Y-119538714D01*
X244901520Y-119562747D01*
X244901520Y-119587252D01*
X244906300Y-119611285D01*
X244915678Y-119633924D01*
X244929291Y-119654299D01*
X244946618Y-119671626D01*
X244966994Y-119685240D01*
X244985998Y-119695397D01*
X245018186Y-119721814D01*
X245044599Y-119753999D01*
X245064226Y-119790719D01*
X245076314Y-119830567D01*
X245081000Y-119878141D01*
X245081000Y-120541859D01*
X245076314Y-120589433D01*
X245064226Y-120629281D01*
X245044599Y-120666001D01*
X245018186Y-120698186D01*
X244985998Y-120724603D01*
X244966994Y-120734760D01*
X244946619Y-120748373D01*
X244929292Y-120765700D01*
X244915678Y-120786075D01*
X244906301Y-120808714D01*
X244901520Y-120832747D01*
X244901520Y-120857252D01*
X244906300Y-120881285D01*
X244915678Y-120903924D01*
X244929291Y-120924299D01*
X244946618Y-120941626D01*
X244966994Y-120955240D01*
X244985998Y-120965397D01*
X245018186Y-120991814D01*
X245044599Y-121023999D01*
X245064226Y-121060719D01*
X245076314Y-121100567D01*
X245081000Y-121148141D01*
X245081000Y-121811859D01*
X245076314Y-121859433D01*
X245064226Y-121899281D01*
X245044599Y-121936001D01*
X245018186Y-121968186D01*
X244985998Y-121994603D01*
X244966994Y-122004760D01*
X244946619Y-122018373D01*
X244929292Y-122035700D01*
X244915678Y-122056075D01*
X244906301Y-122078714D01*
X244901520Y-122102747D01*
X244901520Y-122127252D01*
X244906300Y-122151285D01*
X244915678Y-122173924D01*
X244929291Y-122194299D01*
X244946618Y-122211626D01*
X244966994Y-122225240D01*
X244985998Y-122235397D01*
X245018186Y-122261814D01*
X245044599Y-122293999D01*
X245064226Y-122330719D01*
X245076314Y-122370567D01*
X245081000Y-122418141D01*
X245081000Y-123081859D01*
X245076314Y-123129433D01*
X245064226Y-123169281D01*
X245044599Y-123206001D01*
X245018186Y-123238186D01*
X244985998Y-123264603D01*
X244966994Y-123274760D01*
X244946619Y-123288373D01*
X244929292Y-123305700D01*
X244915678Y-123326075D01*
X244906301Y-123348714D01*
X244901520Y-123372747D01*
X244901520Y-123397252D01*
X244906300Y-123421285D01*
X244915678Y-123443924D01*
X244929291Y-123464299D01*
X244946618Y-123481626D01*
X244966994Y-123495240D01*
X244985998Y-123505397D01*
X245018186Y-123531814D01*
X245044599Y-123563999D01*
X245064226Y-123600719D01*
X245076314Y-123640567D01*
X245081000Y-123688141D01*
X245081000Y-124351859D01*
X245076314Y-124399433D01*
X245064226Y-124439281D01*
X245044599Y-124476001D01*
X245018186Y-124508186D01*
X244985998Y-124534603D01*
X244966994Y-124544760D01*
X244946619Y-124558373D01*
X244929292Y-124575700D01*
X244915678Y-124596075D01*
X244906301Y-124618714D01*
X244901520Y-124642747D01*
X244901520Y-124667252D01*
X244906300Y-124691285D01*
X244915678Y-124713924D01*
X244929291Y-124734299D01*
X244946618Y-124751626D01*
X244966994Y-124765240D01*
X244985998Y-124775397D01*
X245018186Y-124801814D01*
X245044599Y-124833999D01*
X245064226Y-124870719D01*
X245076314Y-124910567D01*
X245081000Y-124958141D01*
X245081000Y-125621859D01*
X245076314Y-125669433D01*
X245064226Y-125709281D01*
X245044599Y-125746001D01*
X245018186Y-125778186D01*
X244985998Y-125804603D01*
X244966994Y-125814760D01*
X244946619Y-125828373D01*
X244929292Y-125845700D01*
X244915678Y-125866075D01*
X244906301Y-125888714D01*
X244901520Y-125912747D01*
X244901520Y-125937252D01*
X244906300Y-125961285D01*
X244915678Y-125983924D01*
X244929291Y-126004299D01*
X244946618Y-126021626D01*
X244966994Y-126035240D01*
X244985998Y-126045397D01*
X245018186Y-126071814D01*
X245044599Y-126103999D01*
X245064226Y-126140719D01*
X245076314Y-126180567D01*
X245081000Y-126228141D01*
X245081000Y-126891859D01*
X245076314Y-126939433D01*
X245064226Y-126979281D01*
X245044599Y-127016001D01*
X245018186Y-127048186D01*
X244986001Y-127074599D01*
X244949281Y-127094226D01*
X244909433Y-127106314D01*
X244861859Y-127111000D01*
X243598141Y-127111000D01*
X243550567Y-127106314D01*
X243510719Y-127094226D01*
X243473999Y-127074599D01*
X243441814Y-127048186D01*
X243415401Y-127016001D01*
X243395774Y-126979281D01*
X243383686Y-126939433D01*
X243379000Y-126891859D01*
X243379000Y-126228141D01*
X243383686Y-126180567D01*
X243395774Y-126140719D01*
X243415401Y-126103999D01*
X243441814Y-126071814D01*
X243474002Y-126045397D01*
X243493006Y-126035240D01*
X243513381Y-126021627D01*
X243530708Y-126004300D01*
X243544322Y-125983925D01*
X243553699Y-125961286D01*
X243558480Y-125937253D01*
X243558480Y-125912748D01*
X243553700Y-125888715D01*
X243544322Y-125866076D01*
X243530709Y-125845701D01*
X243513382Y-125828374D01*
X243493006Y-125814760D01*
X243474002Y-125804603D01*
X243441814Y-125778186D01*
X243415401Y-125746001D01*
X243395774Y-125709281D01*
X243383686Y-125669433D01*
X243379000Y-125621859D01*
X243379000Y-124958141D01*
X243383686Y-124910567D01*
X243395774Y-124870719D01*
X243415401Y-124833999D01*
X243441814Y-124801814D01*
X243474002Y-124775397D01*
X243493006Y-124765240D01*
X243513381Y-124751627D01*
X243530708Y-124734300D01*
X243544322Y-124713925D01*
X243553699Y-124691286D01*
X243558480Y-124667253D01*
X243558480Y-124642748D01*
X243553700Y-124618715D01*
X243544322Y-124596076D01*
X243530709Y-124575701D01*
X243513382Y-124558374D01*
X243493006Y-124544760D01*
X243474002Y-124534603D01*
X243441814Y-124508186D01*
X243415401Y-124476001D01*
X243395774Y-124439281D01*
X243383686Y-124399433D01*
X243379000Y-124351859D01*
X243379000Y-123688141D01*
X243383686Y-123640567D01*
X243395774Y-123600719D01*
X243415401Y-123563999D01*
X243441814Y-123531814D01*
X243474002Y-123505397D01*
X243493006Y-123495240D01*
X243513381Y-123481627D01*
X243530708Y-123464300D01*
X243544322Y-123443925D01*
X243553699Y-123421286D01*
X243558480Y-123397253D01*
X243558480Y-123372748D01*
X243553700Y-123348715D01*
X243544322Y-123326076D01*
X243530709Y-123305701D01*
X243513382Y-123288374D01*
X243493006Y-123274760D01*
X243474002Y-123264603D01*
X243441814Y-123238186D01*
X243415401Y-123206001D01*
X243395774Y-123169281D01*
X243383686Y-123129433D01*
X243379000Y-123081859D01*
X243379000Y-122418141D01*
X243383686Y-122370567D01*
X243395774Y-122330719D01*
X243415401Y-122293999D01*
X243441814Y-122261814D01*
X243474002Y-122235397D01*
X243493006Y-122225240D01*
X243513381Y-122211627D01*
X243530708Y-122194300D01*
X243544322Y-122173925D01*
X243553699Y-122151286D01*
X243558480Y-122127253D01*
X243558480Y-122102748D01*
X243553700Y-122078715D01*
X243544322Y-122056076D01*
X243530709Y-122035701D01*
X243513382Y-122018374D01*
X243493006Y-122004760D01*
X243474002Y-121994603D01*
X243441814Y-121968186D01*
X243415401Y-121936001D01*
X243395774Y-121899281D01*
X243383686Y-121859433D01*
X243379000Y-121811859D01*
X243379000Y-121148141D01*
X243383686Y-121100567D01*
X243395774Y-121060719D01*
X243415401Y-121023999D01*
X243441814Y-120991814D01*
X243474002Y-120965397D01*
X243493006Y-120955240D01*
X243513381Y-120941627D01*
X243530708Y-120924300D01*
X243544322Y-120903925D01*
X243553699Y-120881286D01*
X243558480Y-120857253D01*
X243558480Y-120832748D01*
X243553700Y-120808715D01*
X243544322Y-120786076D01*
X243530709Y-120765701D01*
X243513382Y-120748374D01*
X243493006Y-120734760D01*
X243474002Y-120724603D01*
X243441814Y-120698186D01*
X243415401Y-120666001D01*
X243395774Y-120629281D01*
X243383686Y-120589433D01*
X243379000Y-120541859D01*
X243379000Y-119878141D01*
X243383686Y-119830567D01*
X243395774Y-119790719D01*
X243415401Y-119753999D01*
X243441814Y-119721814D01*
X243474002Y-119695397D01*
X243493006Y-119685240D01*
X243513381Y-119671627D01*
X243530708Y-119654300D01*
X243544322Y-119633925D01*
X243553699Y-119611286D01*
X243558480Y-119587253D01*
X243558480Y-119562748D01*
X243553700Y-119538715D01*
X243544322Y-119516076D01*
X243530709Y-119495701D01*
X243513382Y-119478374D01*
X243493006Y-119464760D01*
X243474002Y-119454603D01*
X243441814Y-119428186D01*
X243415401Y-119396001D01*
X243395774Y-119359281D01*
X243383686Y-119319433D01*
X243379000Y-119271859D01*
X243379000Y-118608141D01*
X243383686Y-118560567D01*
X243395774Y-118520719D01*
X243415401Y-118483999D01*
X243441814Y-118451814D01*
X243474002Y-118425397D01*
X243493006Y-118415240D01*
X243513381Y-118401627D01*
X243530708Y-118384300D01*
X243544322Y-118363925D01*
X243553699Y-118341286D01*
X243558480Y-118317253D01*
X243558480Y-118292748D01*
X243553700Y-118268715D01*
X243544322Y-118246076D01*
X243530709Y-118225701D01*
X243513382Y-118208374D01*
X243493006Y-118194760D01*
X243474002Y-118184603D01*
X243441814Y-118158186D01*
X243415401Y-118126001D01*
X243395774Y-118089281D01*
X243383686Y-118049433D01*
X243379000Y-118001859D01*
X243379000Y-117338141D01*
X243383686Y-117290567D01*
X243395774Y-117250719D01*
X243415401Y-117213999D01*
X243441814Y-117181814D01*
X243474002Y-117155397D01*
X243493006Y-117145240D01*
X243513381Y-117131627D01*
X243530708Y-117114300D01*
X243544322Y-117093925D01*
X243553699Y-117071286D01*
X243558480Y-117047253D01*
X243558480Y-117022748D01*
X243553700Y-116998715D01*
X243544322Y-116976076D01*
X243530709Y-116955701D01*
X243513382Y-116938374D01*
X243493006Y-116924760D01*
X243474002Y-116914603D01*
X243441814Y-116888186D01*
X243415401Y-116856001D01*
X243395774Y-116819281D01*
X243383686Y-116779433D01*
X243379000Y-116731859D01*
X243379000Y-116068141D01*
X243383686Y-116020567D01*
X243395774Y-115980719D01*
X243415401Y-115943999D01*
X243441814Y-115911814D01*
X243474002Y-115885397D01*
X243493006Y-115875240D01*
X243513381Y-115861627D01*
X243530708Y-115844300D01*
X243544322Y-115823925D01*
X243553699Y-115801286D01*
X243558480Y-115777253D01*
X243558480Y-115752748D01*
X243553700Y-115728715D01*
X243544322Y-115706076D01*
X243530709Y-115685701D01*
X243513382Y-115668374D01*
X243493006Y-115654760D01*
X243474002Y-115644603D01*
X243441814Y-115618186D01*
X243415401Y-115586001D01*
X243395774Y-115549281D01*
X243383686Y-115509433D01*
X243379000Y-115461859D01*
X243379000Y-114798141D01*
X243383686Y-114750567D01*
X243395774Y-114710719D01*
X243415401Y-114673999D01*
X243441814Y-114641814D01*
X243474002Y-114615397D01*
X243493006Y-114605240D01*
X243513381Y-114591627D01*
X243530708Y-114574300D01*
X243544322Y-114553925D01*
X243553699Y-114531286D01*
X243558480Y-114507253D01*
X243558480Y-114482748D01*
X243553700Y-114458715D01*
X243544322Y-114436076D01*
X243530709Y-114415701D01*
X243513382Y-114398374D01*
X243493006Y-114384760D01*
X243474002Y-114374603D01*
X243441814Y-114348186D01*
X243415401Y-114316001D01*
X243395774Y-114279281D01*
X243383686Y-114239433D01*
X243379000Y-114191859D01*
X243379000Y-113528141D01*
X243383686Y-113480567D01*
X243395774Y-113440719D01*
X243415401Y-113403999D01*
X243441814Y-113371814D01*
X243474002Y-113345397D01*
X243493006Y-113335240D01*
X243513381Y-113321627D01*
X243530708Y-113304300D01*
X243544322Y-113283925D01*
X243553699Y-113261286D01*
X243558480Y-113237253D01*
X243558480Y-113212748D01*
X243553700Y-113188715D01*
X243544322Y-113166076D01*
X243530709Y-113145701D01*
X243513382Y-113128374D01*
X243493006Y-113114760D01*
X243474002Y-113104603D01*
X243441814Y-113078186D01*
X243415401Y-113046001D01*
X243395774Y-113009281D01*
X243383686Y-112969433D01*
X243379000Y-112921859D01*
X243379000Y-112258141D01*
X243383686Y-112210567D01*
X243395774Y-112170719D01*
X243415401Y-112133999D01*
X243441814Y-112101814D01*
X243474002Y-112075397D01*
X243493006Y-112065240D01*
X243513381Y-112051627D01*
X243530708Y-112034300D01*
X243544322Y-112013925D01*
X243553699Y-111991286D01*
X243558480Y-111967253D01*
X243558480Y-111942748D01*
X243553700Y-111918715D01*
X243544322Y-111896076D01*
X243530709Y-111875701D01*
X243513382Y-111858374D01*
X243493006Y-111844760D01*
X243474002Y-111834603D01*
X243441814Y-111808186D01*
X243415401Y-111776001D01*
X243395774Y-111739281D01*
X243383686Y-111699433D01*
X243379000Y-111651859D01*
X243379000Y-110988141D01*
X243383686Y-110940567D01*
X243395774Y-110900719D01*
X243415401Y-110863999D01*
X243441814Y-110831814D01*
X243474002Y-110805397D01*
X243493006Y-110795240D01*
X243513381Y-110781627D01*
X243530708Y-110764300D01*
X243544322Y-110743925D01*
X243553699Y-110721286D01*
X243558480Y-110697253D01*
X243558480Y-110672748D01*
X243553700Y-110648715D01*
X243544322Y-110626076D01*
X243530709Y-110605701D01*
X243513382Y-110588374D01*
X243493006Y-110574760D01*
X243474002Y-110564603D01*
X243441814Y-110538186D01*
X243415401Y-110506001D01*
X243395774Y-110469281D01*
X243383686Y-110429433D01*
X243379000Y-110381859D01*
X243379000Y-109718141D01*
X243383686Y-109670567D01*
X243395774Y-109630719D01*
X243415401Y-109593999D01*
X243441814Y-109561814D01*
X243474002Y-109535397D01*
X243493006Y-109525240D01*
X243513381Y-109511627D01*
X243530708Y-109494300D01*
X243544322Y-109473925D01*
X243553699Y-109451286D01*
X243558480Y-109427253D01*
X243558480Y-109402748D01*
X243553700Y-109378715D01*
X243544322Y-109356076D01*
X243530709Y-109335701D01*
X243513382Y-109318374D01*
X243493006Y-109304760D01*
X243474002Y-109294603D01*
X243441814Y-109268186D01*
X243415401Y-109236001D01*
X243395774Y-109199281D01*
X243383686Y-109159433D01*
X243379000Y-109111859D01*
X243379000Y-108448141D01*
X243383686Y-108400567D01*
X243395774Y-108360719D01*
X243415401Y-108323999D01*
X243441814Y-108291814D01*
X243474002Y-108265397D01*
X243493006Y-108255240D01*
X243513381Y-108241627D01*
X243530708Y-108224300D01*
X243544322Y-108203925D01*
X243553699Y-108181286D01*
X243558480Y-108157253D01*
X243558480Y-108132748D01*
X243553700Y-108108715D01*
X243544322Y-108086076D01*
X243530709Y-108065701D01*
X243513382Y-108048374D01*
X243493006Y-108034760D01*
X243474002Y-108024603D01*
X243441814Y-107998186D01*
X243415401Y-107966001D01*
X243395774Y-107929281D01*
X243383686Y-107889433D01*
X243379000Y-107841859D01*
X243379000Y-107178141D01*
X243383686Y-107130567D01*
X243395774Y-107090719D01*
X243415401Y-107053999D01*
X243441814Y-107021814D01*
X243474002Y-106995397D01*
X243493006Y-106985240D01*
X243513381Y-106971627D01*
X243530708Y-106954300D01*
X243544322Y-106933925D01*
X243553699Y-106911286D01*
X243558480Y-106887253D01*
X243558480Y-106862748D01*
X243553700Y-106838715D01*
X243544322Y-106816076D01*
X243530709Y-106795701D01*
X243513382Y-106778374D01*
X243493006Y-106764760D01*
X243474002Y-106754603D01*
X243441814Y-106728186D01*
X243415401Y-106696001D01*
X243395774Y-106659281D01*
X243383686Y-106619433D01*
X243379000Y-106571859D01*
X243379000Y-105908141D01*
X243383686Y-105860567D01*
X243395774Y-105820719D01*
X243415401Y-105783999D01*
X243441814Y-105751814D01*
X243474002Y-105725397D01*
X243493006Y-105715240D01*
X243513381Y-105701627D01*
X243530708Y-105684300D01*
X243544322Y-105663925D01*
X243553699Y-105641286D01*
X243558480Y-105617253D01*
X243558480Y-105592748D01*
X243553700Y-105568715D01*
X243544322Y-105546076D01*
X243530709Y-105525701D01*
X243513382Y-105508374D01*
X243493006Y-105494760D01*
X243474002Y-105484603D01*
X243441814Y-105458186D01*
X243415401Y-105426001D01*
X243395774Y-105389281D01*
X243383686Y-105349433D01*
X243379000Y-105301859D01*
X243379000Y-104638141D01*
X243383686Y-104590567D01*
X243395774Y-104550719D01*
X243415401Y-104513999D01*
X243441814Y-104481814D01*
X243474002Y-104455397D01*
X243493006Y-104445240D01*
X243513381Y-104431627D01*
X243530708Y-104414300D01*
X243544322Y-104393925D01*
X243553699Y-104371286D01*
X243558480Y-104347253D01*
X243558480Y-104322748D01*
X243553700Y-104298715D01*
X243544322Y-104276076D01*
X243530709Y-104255701D01*
X243513382Y-104238374D01*
X243493006Y-104224760D01*
X243474002Y-104214603D01*
X243441814Y-104188186D01*
X243415401Y-104156001D01*
X243395774Y-104119281D01*
X243383686Y-104079433D01*
X243379000Y-104031859D01*
X243379000Y-103368141D01*
X243383686Y-103320567D01*
X243395774Y-103280719D01*
X243415401Y-103243999D01*
X243441814Y-103211814D01*
X243474002Y-103185397D01*
X243493006Y-103175240D01*
X243513381Y-103161627D01*
X243530708Y-103144300D01*
X243544322Y-103123925D01*
X243553699Y-103101286D01*
X243558480Y-103077253D01*
X243558480Y-103052748D01*
X243553700Y-103028715D01*
X243544322Y-103006076D01*
X243530709Y-102985701D01*
X243513382Y-102968374D01*
X243493006Y-102954760D01*
X243474002Y-102944603D01*
X243441814Y-102918186D01*
X243415401Y-102886001D01*
X243395774Y-102849281D01*
X243383686Y-102809433D01*
X243379000Y-102761859D01*
X243379000Y-102098141D01*
X243383686Y-102050567D01*
X243395774Y-102010719D01*
X243415401Y-101973999D01*
X243441814Y-101941814D01*
X243473999Y-101915401D01*
X243510719Y-101895774D01*
X243550567Y-101883686D01*
X243598141Y-101879000D01*
X244861859Y-101879000D01*
X244909433Y-101883686D01*
X244909433Y-101883686D01*
G37*
G36*
X234183270Y-126752282D02*
X233131270Y-126752282D01*
X233131270Y-125775282D01*
X234183270Y-125775282D01*
X234183270Y-126752282D01*
X234183270Y-126752282D01*
G37*
G36*
X213183270Y-126752282D02*
X212131270Y-126752282D01*
X212131270Y-125775282D01*
X213183270Y-125775282D01*
X213183270Y-126752282D01*
X213183270Y-126752282D01*
G37*
G36*
X220183270Y-126752282D02*
X219131270Y-126752282D01*
X219131270Y-125775282D01*
X220183270Y-125775282D01*
X220183270Y-126752282D01*
X220183270Y-126752282D01*
G37*
G36*
X227183270Y-126752282D02*
X226131270Y-126752282D01*
X226131270Y-125775282D01*
X227183270Y-125775282D01*
X227183270Y-126752282D01*
X227183270Y-126752282D01*
G37*
G36*
X236751000Y-126651000D02*
X235249000Y-126651000D01*
X235249000Y-125399000D01*
X236751000Y-125399000D01*
X236751000Y-126651000D01*
X236751000Y-126651000D01*
G37*
G36*
X229751000Y-126651000D02*
X228249000Y-126651000D01*
X228249000Y-125399000D01*
X229751000Y-125399000D01*
X229751000Y-126651000D01*
X229751000Y-126651000D01*
G37*
G36*
X222751000Y-126651000D02*
X221249000Y-126651000D01*
X221249000Y-125399000D01*
X222751000Y-125399000D01*
X222751000Y-126651000D01*
X222751000Y-126651000D01*
G37*
G36*
X215751000Y-126651000D02*
X214249000Y-126651000D01*
X214249000Y-125399000D01*
X215751000Y-125399000D01*
X215751000Y-126651000D01*
X215751000Y-126651000D01*
G37*
G36*
X208751000Y-126651000D02*
X207249000Y-126651000D01*
X207249000Y-125399000D01*
X208751000Y-125399000D01*
X208751000Y-126651000D01*
X208751000Y-126651000D01*
G37*
G36*
X206026000Y-126276000D02*
X204974000Y-126276000D01*
X204974000Y-125299000D01*
X206026000Y-125299000D01*
X206026000Y-126276000D01*
X206026000Y-126276000D01*
G37*
G36*
X204451000Y-126076000D02*
X203049000Y-126076000D01*
X203049000Y-125424000D01*
X204451000Y-125424000D01*
X204451000Y-126076000D01*
X204451000Y-126076000D01*
G37*
G36*
X202901000Y-123674000D02*
X202903402Y-123698386D01*
X202910515Y-123721835D01*
X202922066Y-123743446D01*
X202937612Y-123762388D01*
X202956554Y-123777934D01*
X202978165Y-123789485D01*
X203001614Y-123796598D01*
X203026000Y-123799000D01*
X204501000Y-123799000D01*
X204501000Y-124701000D01*
X203026000Y-124701000D01*
X203001614Y-124703402D01*
X202978165Y-124710515D01*
X202956554Y-124722066D01*
X202937612Y-124737612D01*
X202922066Y-124756554D01*
X202910515Y-124778165D01*
X202903402Y-124801614D01*
X202901000Y-124826000D01*
X202901000Y-125226000D01*
X199599000Y-125226000D01*
X199599000Y-123274000D01*
X202901000Y-123274000D01*
X202901000Y-123674000D01*
X202901000Y-123674000D01*
G37*
G36*
X213183270Y-125177282D02*
X212131270Y-125177282D01*
X212131270Y-124200282D01*
X213183270Y-124200282D01*
X213183270Y-125177282D01*
X213183270Y-125177282D01*
G37*
G36*
X220183270Y-125177282D02*
X219131270Y-125177282D01*
X219131270Y-124200282D01*
X220183270Y-124200282D01*
X220183270Y-125177282D01*
X220183270Y-125177282D01*
G37*
G36*
X227183270Y-125177282D02*
X226131270Y-125177282D01*
X226131270Y-124200282D01*
X227183270Y-124200282D01*
X227183270Y-125177282D01*
X227183270Y-125177282D01*
G37*
G36*
X234183270Y-125177282D02*
X233131270Y-125177282D01*
X233131270Y-124200282D01*
X234183270Y-124200282D01*
X234183270Y-125177282D01*
X234183270Y-125177282D01*
G37*
G36*
X206026000Y-124701000D02*
X204974000Y-124701000D01*
X204974000Y-123724000D01*
X206026000Y-123724000D01*
X206026000Y-124701000D01*
X206026000Y-124701000D01*
G37*
G36*
X208751000Y-124601000D02*
X207249000Y-124601000D01*
X207249000Y-123349000D01*
X208751000Y-123349000D01*
X208751000Y-124601000D01*
X208751000Y-124601000D01*
G37*
G36*
X236751000Y-124601000D02*
X235249000Y-124601000D01*
X235249000Y-123349000D01*
X236751000Y-123349000D01*
X236751000Y-124601000D01*
X236751000Y-124601000D01*
G37*
G36*
X229751000Y-124601000D02*
X228249000Y-124601000D01*
X228249000Y-123349000D01*
X229751000Y-123349000D01*
X229751000Y-124601000D01*
X229751000Y-124601000D01*
G37*
G36*
X222751000Y-124601000D02*
X221249000Y-124601000D01*
X221249000Y-123349000D01*
X222751000Y-123349000D01*
X222751000Y-124601000D01*
X222751000Y-124601000D01*
G37*
G36*
X215751000Y-124601000D02*
X214249000Y-124601000D01*
X214249000Y-123349000D01*
X215751000Y-123349000D01*
X215751000Y-124601000D01*
X215751000Y-124601000D01*
G37*
G36*
X227183270Y-123792282D02*
X226131270Y-123792282D01*
X226131270Y-122815282D01*
X227183270Y-122815282D01*
X227183270Y-123792282D01*
X227183270Y-123792282D01*
G37*
G36*
X234183270Y-123792282D02*
X233131270Y-123792282D01*
X233131270Y-122815282D01*
X234183270Y-122815282D01*
X234183270Y-123792282D01*
X234183270Y-123792282D01*
G37*
G36*
X220183270Y-123792282D02*
X219131270Y-123792282D01*
X219131270Y-122815282D01*
X220183270Y-122815282D01*
X220183270Y-123792282D01*
X220183270Y-123792282D01*
G37*
G36*
X213183270Y-123792282D02*
X212131270Y-123792282D01*
X212131270Y-122815282D01*
X213183270Y-122815282D01*
X213183270Y-123792282D01*
X213183270Y-123792282D01*
G37*
G36*
X204451000Y-123076000D02*
X203049000Y-123076000D01*
X203049000Y-122424000D01*
X204451000Y-122424000D01*
X204451000Y-123076000D01*
X204451000Y-123076000D01*
G37*
G36*
X230578270Y-122917282D02*
X229676270Y-122917282D01*
X229676270Y-121915282D01*
X230578270Y-121915282D01*
X230578270Y-122917282D01*
X230578270Y-122917282D01*
G37*
G36*
X221678270Y-122917282D02*
X220776270Y-122917282D01*
X220776270Y-121915282D01*
X221678270Y-121915282D01*
X221678270Y-122917282D01*
X221678270Y-122917282D01*
G37*
G36*
X216578270Y-122917282D02*
X215676270Y-122917282D01*
X215676270Y-121915282D01*
X216578270Y-121915282D01*
X216578270Y-122917282D01*
X216578270Y-122917282D01*
G37*
G36*
X214678270Y-122917282D02*
X213776270Y-122917282D01*
X213776270Y-121915282D01*
X214678270Y-121915282D01*
X214678270Y-122917282D01*
X214678270Y-122917282D01*
G37*
G36*
X228678270Y-122917282D02*
X227776270Y-122917282D01*
X227776270Y-121915282D01*
X228678270Y-121915282D01*
X228678270Y-122917282D01*
X228678270Y-122917282D01*
G37*
G36*
X235678270Y-122917282D02*
X234776270Y-122917282D01*
X234776270Y-121915282D01*
X235678270Y-121915282D01*
X235678270Y-122917282D01*
X235678270Y-122917282D01*
G37*
G36*
X237578270Y-122917282D02*
X236676270Y-122917282D01*
X236676270Y-121915282D01*
X237578270Y-121915282D01*
X237578270Y-122917282D01*
X237578270Y-122917282D01*
G37*
G36*
X223578270Y-122917282D02*
X222676270Y-122917282D01*
X222676270Y-121915282D01*
X223578270Y-121915282D01*
X223578270Y-122917282D01*
X223578270Y-122917282D01*
G37*
G36*
X234183270Y-122217282D02*
X233131270Y-122217282D01*
X233131270Y-121240282D01*
X234183270Y-121240282D01*
X234183270Y-122217282D01*
X234183270Y-122217282D01*
G37*
G36*
X213183270Y-122217282D02*
X212131270Y-122217282D01*
X212131270Y-121240282D01*
X213183270Y-121240282D01*
X213183270Y-122217282D01*
X213183270Y-122217282D01*
G37*
G36*
X227183270Y-122217282D02*
X226131270Y-122217282D01*
X226131270Y-121240282D01*
X227183270Y-121240282D01*
X227183270Y-122217282D01*
X227183270Y-122217282D01*
G37*
G36*
X220183270Y-122217282D02*
X219131270Y-122217282D01*
X219131270Y-121240282D01*
X220183270Y-121240282D01*
X220183270Y-122217282D01*
X220183270Y-122217282D01*
G37*
G36*
X207304591Y-120978085D02*
X207338569Y-120988393D01*
X207369887Y-121005133D01*
X207397339Y-121027661D01*
X207419867Y-121055113D01*
X207436607Y-121086431D01*
X207446915Y-121120409D01*
X207451000Y-121161890D01*
X207451000Y-121838110D01*
X207446915Y-121879591D01*
X207436607Y-121913569D01*
X207419867Y-121944887D01*
X207397339Y-121972339D01*
X207369887Y-121994867D01*
X207338569Y-122011607D01*
X207304591Y-122021915D01*
X207263110Y-122026000D01*
X206661890Y-122026000D01*
X206620409Y-122021915D01*
X206586431Y-122011607D01*
X206555113Y-121994867D01*
X206527661Y-121972339D01*
X206505133Y-121944887D01*
X206488393Y-121913569D01*
X206478085Y-121879591D01*
X206474000Y-121838110D01*
X206474000Y-121161890D01*
X206478085Y-121120409D01*
X206488393Y-121086431D01*
X206505133Y-121055113D01*
X206527661Y-121027661D01*
X206555113Y-121005133D01*
X206586431Y-120988393D01*
X206620409Y-120978085D01*
X206661890Y-120974000D01*
X207263110Y-120974000D01*
X207304591Y-120978085D01*
X207304591Y-120978085D01*
G37*
G36*
X208879591Y-120978085D02*
X208913569Y-120988393D01*
X208944887Y-121005133D01*
X208972339Y-121027661D01*
X208994867Y-121055113D01*
X209011607Y-121086431D01*
X209021915Y-121120409D01*
X209026000Y-121161890D01*
X209026000Y-121838110D01*
X209021915Y-121879591D01*
X209011607Y-121913569D01*
X208994867Y-121944887D01*
X208972339Y-121972339D01*
X208944887Y-121994867D01*
X208913569Y-122011607D01*
X208879591Y-122021915D01*
X208838110Y-122026000D01*
X208236890Y-122026000D01*
X208195409Y-122021915D01*
X208161431Y-122011607D01*
X208130113Y-121994867D01*
X208102661Y-121972339D01*
X208080133Y-121944887D01*
X208063393Y-121913569D01*
X208053085Y-121879591D01*
X208049000Y-121838110D01*
X208049000Y-121161890D01*
X208053085Y-121120409D01*
X208063393Y-121086431D01*
X208080133Y-121055113D01*
X208102661Y-121027661D01*
X208130113Y-121005133D01*
X208161431Y-120988393D01*
X208195409Y-120978085D01*
X208236890Y-120974000D01*
X208838110Y-120974000D01*
X208879591Y-120978085D01*
X208879591Y-120978085D01*
G37*
G36*
X222628270Y-120917282D02*
X221726270Y-120917282D01*
X221726270Y-119915282D01*
X222628270Y-119915282D01*
X222628270Y-120917282D01*
X222628270Y-120917282D01*
G37*
G36*
X215628270Y-120917282D02*
X214726270Y-120917282D01*
X214726270Y-119915282D01*
X215628270Y-119915282D01*
X215628270Y-120917282D01*
X215628270Y-120917282D01*
G37*
G36*
X229628270Y-120917282D02*
X228726270Y-120917282D01*
X228726270Y-119915282D01*
X229628270Y-119915282D01*
X229628270Y-120917282D01*
X229628270Y-120917282D01*
G37*
G36*
X236628270Y-120917282D02*
X235726270Y-120917282D01*
X235726270Y-119915282D01*
X236628270Y-119915282D01*
X236628270Y-120917282D01*
X236628270Y-120917282D01*
G37*
G36*
X208879591Y-119478085D02*
X208913569Y-119488393D01*
X208944887Y-119505133D01*
X208972339Y-119527661D01*
X208994867Y-119555113D01*
X209011607Y-119586431D01*
X209021915Y-119620409D01*
X209026000Y-119661890D01*
X209026000Y-120338110D01*
X209021915Y-120379591D01*
X209011607Y-120413569D01*
X208994867Y-120444887D01*
X208972339Y-120472339D01*
X208944887Y-120494867D01*
X208913569Y-120511607D01*
X208879591Y-120521915D01*
X208838110Y-120526000D01*
X208236890Y-120526000D01*
X208195409Y-120521915D01*
X208161431Y-120511607D01*
X208130113Y-120494867D01*
X208102661Y-120472339D01*
X208080133Y-120444887D01*
X208063393Y-120413569D01*
X208053085Y-120379591D01*
X208049000Y-120338110D01*
X208049000Y-119661890D01*
X208053085Y-119620409D01*
X208063393Y-119586431D01*
X208080133Y-119555113D01*
X208102661Y-119527661D01*
X208130113Y-119505133D01*
X208161431Y-119488393D01*
X208195409Y-119478085D01*
X208236890Y-119474000D01*
X208838110Y-119474000D01*
X208879591Y-119478085D01*
X208879591Y-119478085D01*
G37*
G36*
X207304591Y-119478085D02*
X207338569Y-119488393D01*
X207369887Y-119505133D01*
X207397339Y-119527661D01*
X207419867Y-119555113D01*
X207436607Y-119586431D01*
X207446915Y-119620409D01*
X207451000Y-119661890D01*
X207451000Y-120338110D01*
X207446915Y-120379591D01*
X207436607Y-120413569D01*
X207419867Y-120444887D01*
X207397339Y-120472339D01*
X207369887Y-120494867D01*
X207338569Y-120511607D01*
X207304591Y-120521915D01*
X207263110Y-120526000D01*
X206661890Y-120526000D01*
X206620409Y-120521915D01*
X206586431Y-120511607D01*
X206555113Y-120494867D01*
X206527661Y-120472339D01*
X206505133Y-120444887D01*
X206488393Y-120413569D01*
X206478085Y-120379591D01*
X206474000Y-120338110D01*
X206474000Y-119661890D01*
X206478085Y-119620409D01*
X206488393Y-119586431D01*
X206505133Y-119555113D01*
X206527661Y-119527661D01*
X206555113Y-119505133D01*
X206586431Y-119488393D01*
X206620409Y-119478085D01*
X206661890Y-119474000D01*
X207263110Y-119474000D01*
X207304591Y-119478085D01*
X207304591Y-119478085D01*
G37*
G36*
X204126366Y-116415695D02*
X204283458Y-116463348D01*
X204428230Y-116540731D01*
X204555128Y-116644872D01*
X204659269Y-116771770D01*
X204736652Y-116916542D01*
X204784305Y-117073634D01*
X204801000Y-117243140D01*
X204801000Y-119156860D01*
X204784305Y-119326366D01*
X204736652Y-119483458D01*
X204659269Y-119628230D01*
X204555128Y-119755128D01*
X204428230Y-119859269D01*
X204283458Y-119936652D01*
X204126366Y-119984305D01*
X203956860Y-120001000D01*
X202043140Y-120001000D01*
X201873634Y-119984305D01*
X201716542Y-119936652D01*
X201571770Y-119859269D01*
X201444872Y-119755128D01*
X201340731Y-119628230D01*
X201263348Y-119483458D01*
X201215695Y-119326366D01*
X201199000Y-119156860D01*
X201199000Y-117243140D01*
X201215695Y-117073634D01*
X201263348Y-116916542D01*
X201340731Y-116771770D01*
X201444872Y-116644872D01*
X201571770Y-116540731D01*
X201716542Y-116463348D01*
X201873634Y-116415695D01*
X202043140Y-116399000D01*
X203956860Y-116399000D01*
X204126366Y-116415695D01*
X204126366Y-116415695D01*
G37*
G36*
X215248228Y-115681703D02*
X215403100Y-115745853D01*
X215542481Y-115838985D01*
X215661015Y-115957519D01*
X215754147Y-116096900D01*
X215818297Y-116251772D01*
X215851000Y-116416184D01*
X215851000Y-116583816D01*
X215818297Y-116748228D01*
X215754147Y-116903100D01*
X215661015Y-117042481D01*
X215542481Y-117161015D01*
X215403100Y-117254147D01*
X215248228Y-117318297D01*
X215083816Y-117351000D01*
X214916184Y-117351000D01*
X214751772Y-117318297D01*
X214596900Y-117254147D01*
X214457519Y-117161015D01*
X214338985Y-117042481D01*
X214245853Y-116903100D01*
X214181703Y-116748228D01*
X214149000Y-116583816D01*
X214149000Y-116416184D01*
X214181703Y-116251772D01*
X214245853Y-116096900D01*
X214338985Y-115957519D01*
X214457519Y-115838985D01*
X214596900Y-115745853D01*
X214751772Y-115681703D01*
X214916184Y-115649000D01*
X215083816Y-115649000D01*
X215248228Y-115681703D01*
X215248228Y-115681703D01*
G37*
G36*
X236248228Y-115681703D02*
X236403100Y-115745853D01*
X236542481Y-115838985D01*
X236661015Y-115957519D01*
X236754147Y-116096900D01*
X236818297Y-116251772D01*
X236851000Y-116416184D01*
X236851000Y-116583816D01*
X236818297Y-116748228D01*
X236754147Y-116903100D01*
X236661015Y-117042481D01*
X236542481Y-117161015D01*
X236403100Y-117254147D01*
X236248228Y-117318297D01*
X236083816Y-117351000D01*
X235916184Y-117351000D01*
X235751772Y-117318297D01*
X235596900Y-117254147D01*
X235457519Y-117161015D01*
X235338985Y-117042481D01*
X235245853Y-116903100D01*
X235181703Y-116748228D01*
X235149000Y-116583816D01*
X235149000Y-116416184D01*
X235181703Y-116251772D01*
X235245853Y-116096900D01*
X235338985Y-115957519D01*
X235457519Y-115838985D01*
X235596900Y-115745853D01*
X235751772Y-115681703D01*
X235916184Y-115649000D01*
X236083816Y-115649000D01*
X236248228Y-115681703D01*
X236248228Y-115681703D01*
G37*
G36*
X229248228Y-115681703D02*
X229403100Y-115745853D01*
X229542481Y-115838985D01*
X229661015Y-115957519D01*
X229754147Y-116096900D01*
X229818297Y-116251772D01*
X229851000Y-116416184D01*
X229851000Y-116583816D01*
X229818297Y-116748228D01*
X229754147Y-116903100D01*
X229661015Y-117042481D01*
X229542481Y-117161015D01*
X229403100Y-117254147D01*
X229248228Y-117318297D01*
X229083816Y-117351000D01*
X228916184Y-117351000D01*
X228751772Y-117318297D01*
X228596900Y-117254147D01*
X228457519Y-117161015D01*
X228338985Y-117042481D01*
X228245853Y-116903100D01*
X228181703Y-116748228D01*
X228149000Y-116583816D01*
X228149000Y-116416184D01*
X228181703Y-116251772D01*
X228245853Y-116096900D01*
X228338985Y-115957519D01*
X228457519Y-115838985D01*
X228596900Y-115745853D01*
X228751772Y-115681703D01*
X228916184Y-115649000D01*
X229083816Y-115649000D01*
X229248228Y-115681703D01*
X229248228Y-115681703D01*
G37*
G36*
X234248228Y-115681703D02*
X234403100Y-115745853D01*
X234542481Y-115838985D01*
X234661015Y-115957519D01*
X234754147Y-116096900D01*
X234818297Y-116251772D01*
X234851000Y-116416184D01*
X234851000Y-116583816D01*
X234818297Y-116748228D01*
X234754147Y-116903100D01*
X234661015Y-117042481D01*
X234542481Y-117161015D01*
X234403100Y-117254147D01*
X234248228Y-117318297D01*
X234083816Y-117351000D01*
X233916184Y-117351000D01*
X233751772Y-117318297D01*
X233596900Y-117254147D01*
X233457519Y-117161015D01*
X233338985Y-117042481D01*
X233245853Y-116903100D01*
X233181703Y-116748228D01*
X233149000Y-116583816D01*
X233149000Y-116416184D01*
X233181703Y-116251772D01*
X233245853Y-116096900D01*
X233338985Y-115957519D01*
X233457519Y-115838985D01*
X233596900Y-115745853D01*
X233751772Y-115681703D01*
X233916184Y-115649000D01*
X234083816Y-115649000D01*
X234248228Y-115681703D01*
X234248228Y-115681703D01*
G37*
G36*
X213248228Y-115681703D02*
X213403100Y-115745853D01*
X213542481Y-115838985D01*
X213661015Y-115957519D01*
X213754147Y-116096900D01*
X213818297Y-116251772D01*
X213851000Y-116416184D01*
X213851000Y-116583816D01*
X213818297Y-116748228D01*
X213754147Y-116903100D01*
X213661015Y-117042481D01*
X213542481Y-117161015D01*
X213403100Y-117254147D01*
X213248228Y-117318297D01*
X213083816Y-117351000D01*
X212916184Y-117351000D01*
X212751772Y-117318297D01*
X212596900Y-117254147D01*
X212457519Y-117161015D01*
X212338985Y-117042481D01*
X212245853Y-116903100D01*
X212181703Y-116748228D01*
X212149000Y-116583816D01*
X212149000Y-116416184D01*
X212181703Y-116251772D01*
X212245853Y-116096900D01*
X212338985Y-115957519D01*
X212457519Y-115838985D01*
X212596900Y-115745853D01*
X212751772Y-115681703D01*
X212916184Y-115649000D01*
X213083816Y-115649000D01*
X213248228Y-115681703D01*
X213248228Y-115681703D01*
G37*
G36*
X220248228Y-115681703D02*
X220403100Y-115745853D01*
X220542481Y-115838985D01*
X220661015Y-115957519D01*
X220754147Y-116096900D01*
X220818297Y-116251772D01*
X220851000Y-116416184D01*
X220851000Y-116583816D01*
X220818297Y-116748228D01*
X220754147Y-116903100D01*
X220661015Y-117042481D01*
X220542481Y-117161015D01*
X220403100Y-117254147D01*
X220248228Y-117318297D01*
X220083816Y-117351000D01*
X219916184Y-117351000D01*
X219751772Y-117318297D01*
X219596900Y-117254147D01*
X219457519Y-117161015D01*
X219338985Y-117042481D01*
X219245853Y-116903100D01*
X219181703Y-116748228D01*
X219149000Y-116583816D01*
X219149000Y-116416184D01*
X219181703Y-116251772D01*
X219245853Y-116096900D01*
X219338985Y-115957519D01*
X219457519Y-115838985D01*
X219596900Y-115745853D01*
X219751772Y-115681703D01*
X219916184Y-115649000D01*
X220083816Y-115649000D01*
X220248228Y-115681703D01*
X220248228Y-115681703D01*
G37*
G36*
X222248228Y-115681703D02*
X222403100Y-115745853D01*
X222542481Y-115838985D01*
X222661015Y-115957519D01*
X222754147Y-116096900D01*
X222818297Y-116251772D01*
X222851000Y-116416184D01*
X222851000Y-116583816D01*
X222818297Y-116748228D01*
X222754147Y-116903100D01*
X222661015Y-117042481D01*
X222542481Y-117161015D01*
X222403100Y-117254147D01*
X222248228Y-117318297D01*
X222083816Y-117351000D01*
X221916184Y-117351000D01*
X221751772Y-117318297D01*
X221596900Y-117254147D01*
X221457519Y-117161015D01*
X221338985Y-117042481D01*
X221245853Y-116903100D01*
X221181703Y-116748228D01*
X221149000Y-116583816D01*
X221149000Y-116416184D01*
X221181703Y-116251772D01*
X221245853Y-116096900D01*
X221338985Y-115957519D01*
X221457519Y-115838985D01*
X221596900Y-115745853D01*
X221751772Y-115681703D01*
X221916184Y-115649000D01*
X222083816Y-115649000D01*
X222248228Y-115681703D01*
X222248228Y-115681703D01*
G37*
G36*
X227248228Y-115681703D02*
X227403100Y-115745853D01*
X227542481Y-115838985D01*
X227661015Y-115957519D01*
X227754147Y-116096900D01*
X227818297Y-116251772D01*
X227851000Y-116416184D01*
X227851000Y-116583816D01*
X227818297Y-116748228D01*
X227754147Y-116903100D01*
X227661015Y-117042481D01*
X227542481Y-117161015D01*
X227403100Y-117254147D01*
X227248228Y-117318297D01*
X227083816Y-117351000D01*
X226916184Y-117351000D01*
X226751772Y-117318297D01*
X226596900Y-117254147D01*
X226457519Y-117161015D01*
X226338985Y-117042481D01*
X226245853Y-116903100D01*
X226181703Y-116748228D01*
X226149000Y-116583816D01*
X226149000Y-116416184D01*
X226181703Y-116251772D01*
X226245853Y-116096900D01*
X226338985Y-115957519D01*
X226457519Y-115838985D01*
X226596900Y-115745853D01*
X226751772Y-115681703D01*
X226916184Y-115649000D01*
X227083816Y-115649000D01*
X227248228Y-115681703D01*
X227248228Y-115681703D01*
G37*
G36*
X200976978Y-111713293D02*
X201110627Y-111753835D01*
X201233782Y-111819662D01*
X201341739Y-111908261D01*
X201430338Y-112016218D01*
X201496165Y-112139373D01*
X201536707Y-112273022D01*
X201551000Y-112418140D01*
X201551000Y-114581860D01*
X201536707Y-114726978D01*
X201496165Y-114860627D01*
X201430338Y-114983782D01*
X201341739Y-115091739D01*
X201233782Y-115180338D01*
X201110627Y-115246165D01*
X200976978Y-115286707D01*
X200831860Y-115301000D01*
X199168140Y-115301000D01*
X199023022Y-115286707D01*
X198889373Y-115246165D01*
X198766218Y-115180338D01*
X198658261Y-115091739D01*
X198569662Y-114983782D01*
X198503835Y-114860627D01*
X198463293Y-114726978D01*
X198449000Y-114581860D01*
X198449000Y-112418140D01*
X198463293Y-112273022D01*
X198503835Y-112139373D01*
X198569662Y-112016218D01*
X198658261Y-111908261D01*
X198766218Y-111819662D01*
X198889373Y-111753835D01*
X199023022Y-111713293D01*
X199168140Y-111699000D01*
X200831860Y-111699000D01*
X200976978Y-111713293D01*
X200976978Y-111713293D01*
G37*
G36*
X204201425Y-111699000D02*
X207801000Y-111699000D01*
X207801000Y-115301000D01*
X204199000Y-115301000D01*
X204199000Y-111698761D01*
X204201425Y-111699000D01*
X204201425Y-111699000D01*
G37*
G36*
X265019591Y-112103085D02*
X265053569Y-112113393D01*
X265084887Y-112130133D01*
X265112339Y-112152661D01*
X265134867Y-112180113D01*
X265151607Y-112211431D01*
X265161915Y-112245409D01*
X265166000Y-112286890D01*
X265166000Y-112888110D01*
X265161915Y-112929591D01*
X265151607Y-112963569D01*
X265134867Y-112994887D01*
X265112339Y-113022339D01*
X265084887Y-113044867D01*
X265053569Y-113061607D01*
X265019591Y-113071915D01*
X264978110Y-113076000D01*
X264301890Y-113076000D01*
X264260409Y-113071915D01*
X264226431Y-113061607D01*
X264195113Y-113044867D01*
X264167661Y-113022339D01*
X264145133Y-112994887D01*
X264128393Y-112963569D01*
X264118085Y-112929591D01*
X264114000Y-112888110D01*
X264114000Y-112286890D01*
X264118085Y-112245409D01*
X264128393Y-112211431D01*
X264145133Y-112180113D01*
X264167661Y-112152661D01*
X264195113Y-112130133D01*
X264226431Y-112113393D01*
X264260409Y-112103085D01*
X264301890Y-112099000D01*
X264978110Y-112099000D01*
X265019591Y-112103085D01*
X265019591Y-112103085D01*
G37*
G36*
X203818037Y-108182250D02*
X203818039Y-108182251D01*
X203818040Y-108182251D01*
X204141251Y-108316129D01*
X204245446Y-108385750D01*
X204432137Y-108510493D01*
X204679507Y-108757863D01*
X204679509Y-108757866D01*
X204873871Y-109048749D01*
X205007749Y-109371960D01*
X205007750Y-109371963D01*
X205076000Y-109715078D01*
X205076000Y-110064922D01*
X205013477Y-110379247D01*
X205007749Y-110408040D01*
X204873871Y-110731251D01*
X204766836Y-110891440D01*
X204679507Y-111022137D01*
X204432137Y-111269507D01*
X204432134Y-111269509D01*
X204141251Y-111463871D01*
X204141250Y-111463872D01*
X204131979Y-111470066D01*
X204113037Y-111485612D01*
X204097654Y-111504356D01*
X204074000Y-111502026D01*
X204049614Y-111504428D01*
X204026168Y-111511540D01*
X203818040Y-111597749D01*
X203818039Y-111597749D01*
X203818037Y-111597750D01*
X203474922Y-111666000D01*
X203125078Y-111666000D01*
X202781963Y-111597750D01*
X202781961Y-111597749D01*
X202781960Y-111597749D01*
X202458749Y-111463871D01*
X202167866Y-111269509D01*
X202167863Y-111269507D01*
X201920493Y-111022137D01*
X201833164Y-110891440D01*
X201726129Y-110731251D01*
X201592251Y-110408040D01*
X201586524Y-110379247D01*
X201524000Y-110064922D01*
X201524000Y-109715078D01*
X201592250Y-109371963D01*
X201592251Y-109371960D01*
X201726129Y-109048749D01*
X201920491Y-108757866D01*
X201920493Y-108757863D01*
X202167863Y-108510493D01*
X202354554Y-108385750D01*
X202458749Y-108316129D01*
X202781960Y-108182251D01*
X202781961Y-108182251D01*
X202781963Y-108182250D01*
X203125078Y-108114000D01*
X203474922Y-108114000D01*
X203818037Y-108182250D01*
X203818037Y-108182250D01*
G37*
G36*
X265019591Y-110528085D02*
X265053569Y-110538393D01*
X265084887Y-110555133D01*
X265112339Y-110577661D01*
X265134867Y-110605113D01*
X265151607Y-110636431D01*
X265161915Y-110670409D01*
X265166000Y-110711890D01*
X265166000Y-111313110D01*
X265161915Y-111354591D01*
X265151607Y-111388569D01*
X265134867Y-111419887D01*
X265112339Y-111447339D01*
X265084887Y-111469867D01*
X265053569Y-111486607D01*
X265019591Y-111496915D01*
X264978110Y-111501000D01*
X264301890Y-111501000D01*
X264260409Y-111496915D01*
X264226431Y-111486607D01*
X264195113Y-111469867D01*
X264167661Y-111447339D01*
X264145133Y-111419887D01*
X264128393Y-111388569D01*
X264118085Y-111354591D01*
X264114000Y-111313110D01*
X264114000Y-110711890D01*
X264118085Y-110670409D01*
X264128393Y-110636431D01*
X264145133Y-110605113D01*
X264167661Y-110577661D01*
X264195113Y-110555133D01*
X264226431Y-110538393D01*
X264260409Y-110528085D01*
X264301890Y-110524000D01*
X264978110Y-110524000D01*
X265019591Y-110528085D01*
X265019591Y-110528085D01*
G37*
G36*
X213248228Y-109681703D02*
X213403100Y-109745853D01*
X213542481Y-109838985D01*
X213661015Y-109957519D01*
X213754147Y-110096900D01*
X213818297Y-110251772D01*
X213851000Y-110416184D01*
X213851000Y-110583816D01*
X213818297Y-110748228D01*
X213754147Y-110903100D01*
X213661015Y-111042481D01*
X213542481Y-111161015D01*
X213403100Y-111254147D01*
X213248228Y-111318297D01*
X213083816Y-111351000D01*
X212916184Y-111351000D01*
X212751772Y-111318297D01*
X212596900Y-111254147D01*
X212457519Y-111161015D01*
X212338985Y-111042481D01*
X212245853Y-110903100D01*
X212181703Y-110748228D01*
X212149000Y-110583816D01*
X212149000Y-110416184D01*
X212181703Y-110251772D01*
X212245853Y-110096900D01*
X212338985Y-109957519D01*
X212457519Y-109838985D01*
X212596900Y-109745853D01*
X212751772Y-109681703D01*
X212916184Y-109649000D01*
X213083816Y-109649000D01*
X213248228Y-109681703D01*
X213248228Y-109681703D01*
G37*
G36*
X234248228Y-109681703D02*
X234403100Y-109745853D01*
X234542481Y-109838985D01*
X234661015Y-109957519D01*
X234754147Y-110096900D01*
X234818297Y-110251772D01*
X234851000Y-110416184D01*
X234851000Y-110583816D01*
X234818297Y-110748228D01*
X234754147Y-110903100D01*
X234661015Y-111042481D01*
X234542481Y-111161015D01*
X234403100Y-111254147D01*
X234248228Y-111318297D01*
X234083816Y-111351000D01*
X233916184Y-111351000D01*
X233751772Y-111318297D01*
X233596900Y-111254147D01*
X233457519Y-111161015D01*
X233338985Y-111042481D01*
X233245853Y-110903100D01*
X233181703Y-110748228D01*
X233149000Y-110583816D01*
X233149000Y-110416184D01*
X233181703Y-110251772D01*
X233245853Y-110096900D01*
X233338985Y-109957519D01*
X233457519Y-109838985D01*
X233596900Y-109745853D01*
X233751772Y-109681703D01*
X233916184Y-109649000D01*
X234083816Y-109649000D01*
X234248228Y-109681703D01*
X234248228Y-109681703D01*
G37*
G36*
X215248228Y-109681703D02*
X215403100Y-109745853D01*
X215542481Y-109838985D01*
X215661015Y-109957519D01*
X215754147Y-110096900D01*
X215818297Y-110251772D01*
X215851000Y-110416184D01*
X215851000Y-110583816D01*
X215818297Y-110748228D01*
X215754147Y-110903100D01*
X215661015Y-111042481D01*
X215542481Y-111161015D01*
X215403100Y-111254147D01*
X215248228Y-111318297D01*
X215083816Y-111351000D01*
X214916184Y-111351000D01*
X214751772Y-111318297D01*
X214596900Y-111254147D01*
X214457519Y-111161015D01*
X214338985Y-111042481D01*
X214245853Y-110903100D01*
X214181703Y-110748228D01*
X214149000Y-110583816D01*
X214149000Y-110416184D01*
X214181703Y-110251772D01*
X214245853Y-110096900D01*
X214338985Y-109957519D01*
X214457519Y-109838985D01*
X214596900Y-109745853D01*
X214751772Y-109681703D01*
X214916184Y-109649000D01*
X215083816Y-109649000D01*
X215248228Y-109681703D01*
X215248228Y-109681703D01*
G37*
G36*
X236248228Y-109681703D02*
X236403100Y-109745853D01*
X236542481Y-109838985D01*
X236661015Y-109957519D01*
X236754147Y-110096900D01*
X236818297Y-110251772D01*
X236851000Y-110416184D01*
X236851000Y-110583816D01*
X236818297Y-110748228D01*
X236754147Y-110903100D01*
X236661015Y-111042481D01*
X236542481Y-111161015D01*
X236403100Y-111254147D01*
X236248228Y-111318297D01*
X236083816Y-111351000D01*
X235916184Y-111351000D01*
X235751772Y-111318297D01*
X235596900Y-111254147D01*
X235457519Y-111161015D01*
X235338985Y-111042481D01*
X235245853Y-110903100D01*
X235181703Y-110748228D01*
X235149000Y-110583816D01*
X235149000Y-110416184D01*
X235181703Y-110251772D01*
X235245853Y-110096900D01*
X235338985Y-109957519D01*
X235457519Y-109838985D01*
X235596900Y-109745853D01*
X235751772Y-109681703D01*
X235916184Y-109649000D01*
X236083816Y-109649000D01*
X236248228Y-109681703D01*
X236248228Y-109681703D01*
G37*
G36*
X229248228Y-109681703D02*
X229403100Y-109745853D01*
X229542481Y-109838985D01*
X229661015Y-109957519D01*
X229754147Y-110096900D01*
X229818297Y-110251772D01*
X229851000Y-110416184D01*
X229851000Y-110583816D01*
X229818297Y-110748228D01*
X229754147Y-110903100D01*
X229661015Y-111042481D01*
X229542481Y-111161015D01*
X229403100Y-111254147D01*
X229248228Y-111318297D01*
X229083816Y-111351000D01*
X228916184Y-111351000D01*
X228751772Y-111318297D01*
X228596900Y-111254147D01*
X228457519Y-111161015D01*
X228338985Y-111042481D01*
X228245853Y-110903100D01*
X228181703Y-110748228D01*
X228149000Y-110583816D01*
X228149000Y-110416184D01*
X228181703Y-110251772D01*
X228245853Y-110096900D01*
X228338985Y-109957519D01*
X228457519Y-109838985D01*
X228596900Y-109745853D01*
X228751772Y-109681703D01*
X228916184Y-109649000D01*
X229083816Y-109649000D01*
X229248228Y-109681703D01*
X229248228Y-109681703D01*
G37*
G36*
X222248228Y-109681703D02*
X222403100Y-109745853D01*
X222542481Y-109838985D01*
X222661015Y-109957519D01*
X222754147Y-110096900D01*
X222818297Y-110251772D01*
X222851000Y-110416184D01*
X222851000Y-110583816D01*
X222818297Y-110748228D01*
X222754147Y-110903100D01*
X222661015Y-111042481D01*
X222542481Y-111161015D01*
X222403100Y-111254147D01*
X222248228Y-111318297D01*
X222083816Y-111351000D01*
X221916184Y-111351000D01*
X221751772Y-111318297D01*
X221596900Y-111254147D01*
X221457519Y-111161015D01*
X221338985Y-111042481D01*
X221245853Y-110903100D01*
X221181703Y-110748228D01*
X221149000Y-110583816D01*
X221149000Y-110416184D01*
X221181703Y-110251772D01*
X221245853Y-110096900D01*
X221338985Y-109957519D01*
X221457519Y-109838985D01*
X221596900Y-109745853D01*
X221751772Y-109681703D01*
X221916184Y-109649000D01*
X222083816Y-109649000D01*
X222248228Y-109681703D01*
X222248228Y-109681703D01*
G37*
G36*
X220248228Y-109681703D02*
X220403100Y-109745853D01*
X220542481Y-109838985D01*
X220661015Y-109957519D01*
X220754147Y-110096900D01*
X220818297Y-110251772D01*
X220851000Y-110416184D01*
X220851000Y-110583816D01*
X220818297Y-110748228D01*
X220754147Y-110903100D01*
X220661015Y-111042481D01*
X220542481Y-111161015D01*
X220403100Y-111254147D01*
X220248228Y-111318297D01*
X220083816Y-111351000D01*
X219916184Y-111351000D01*
X219751772Y-111318297D01*
X219596900Y-111254147D01*
X219457519Y-111161015D01*
X219338985Y-111042481D01*
X219245853Y-110903100D01*
X219181703Y-110748228D01*
X219149000Y-110583816D01*
X219149000Y-110416184D01*
X219181703Y-110251772D01*
X219245853Y-110096900D01*
X219338985Y-109957519D01*
X219457519Y-109838985D01*
X219596900Y-109745853D01*
X219751772Y-109681703D01*
X219916184Y-109649000D01*
X220083816Y-109649000D01*
X220248228Y-109681703D01*
X220248228Y-109681703D01*
G37*
G36*
X227248228Y-109681703D02*
X227403100Y-109745853D01*
X227542481Y-109838985D01*
X227661015Y-109957519D01*
X227754147Y-110096900D01*
X227818297Y-110251772D01*
X227851000Y-110416184D01*
X227851000Y-110583816D01*
X227818297Y-110748228D01*
X227754147Y-110903100D01*
X227661015Y-111042481D01*
X227542481Y-111161015D01*
X227403100Y-111254147D01*
X227248228Y-111318297D01*
X227083816Y-111351000D01*
X226916184Y-111351000D01*
X226751772Y-111318297D01*
X226596900Y-111254147D01*
X226457519Y-111161015D01*
X226338985Y-111042481D01*
X226245853Y-110903100D01*
X226181703Y-110748228D01*
X226149000Y-110583816D01*
X226149000Y-110416184D01*
X226181703Y-110251772D01*
X226245853Y-110096900D01*
X226338985Y-109957519D01*
X226457519Y-109838985D01*
X226596900Y-109745853D01*
X226751772Y-109681703D01*
X226916184Y-109649000D01*
X227083816Y-109649000D01*
X227248228Y-109681703D01*
X227248228Y-109681703D01*
G37*
G36*
X241829591Y-109720585D02*
X241863569Y-109730893D01*
X241894887Y-109747633D01*
X241922339Y-109770161D01*
X241944867Y-109797613D01*
X241961607Y-109828931D01*
X241971915Y-109862909D01*
X241976000Y-109904390D01*
X241976000Y-110505610D01*
X241971915Y-110547091D01*
X241961607Y-110581069D01*
X241944867Y-110612387D01*
X241922339Y-110639839D01*
X241894887Y-110662367D01*
X241863569Y-110679107D01*
X241829591Y-110689415D01*
X241788110Y-110693500D01*
X241111890Y-110693500D01*
X241070409Y-110689415D01*
X241036431Y-110679107D01*
X241005113Y-110662367D01*
X240977661Y-110639839D01*
X240955133Y-110612387D01*
X240938393Y-110581069D01*
X240928085Y-110547091D01*
X240924000Y-110505610D01*
X240924000Y-109904390D01*
X240928085Y-109862909D01*
X240938393Y-109828931D01*
X240955133Y-109797613D01*
X240977661Y-109770161D01*
X241005113Y-109747633D01*
X241036431Y-109730893D01*
X241070409Y-109720585D01*
X241111890Y-109716500D01*
X241788110Y-109716500D01*
X241829591Y-109720585D01*
X241829591Y-109720585D01*
G37*
G36*
X241829591Y-108145585D02*
X241863569Y-108155893D01*
X241894887Y-108172633D01*
X241922339Y-108195161D01*
X241944867Y-108222613D01*
X241961607Y-108253931D01*
X241971915Y-108287909D01*
X241976000Y-108329390D01*
X241976000Y-108930610D01*
X241971915Y-108972091D01*
X241961607Y-109006069D01*
X241944867Y-109037387D01*
X241922339Y-109064839D01*
X241894887Y-109087367D01*
X241863569Y-109104107D01*
X241829591Y-109114415D01*
X241788110Y-109118500D01*
X241111890Y-109118500D01*
X241070409Y-109114415D01*
X241036431Y-109104107D01*
X241005113Y-109087367D01*
X240977661Y-109064839D01*
X240955133Y-109037387D01*
X240938393Y-109006069D01*
X240928085Y-108972091D01*
X240924000Y-108930610D01*
X240924000Y-108329390D01*
X240928085Y-108287909D01*
X240938393Y-108253931D01*
X240955133Y-108222613D01*
X240977661Y-108195161D01*
X241005113Y-108172633D01*
X241036431Y-108155893D01*
X241070409Y-108145585D01*
X241111890Y-108141500D01*
X241788110Y-108141500D01*
X241829591Y-108145585D01*
X241829591Y-108145585D01*
G37*
G36*
X222401000Y-106951000D02*
X221499000Y-106951000D01*
X221499000Y-105949000D01*
X222401000Y-105949000D01*
X222401000Y-106951000D01*
X222401000Y-106951000D01*
G37*
G36*
X236401000Y-106951000D02*
X235499000Y-106951000D01*
X235499000Y-105949000D01*
X236401000Y-105949000D01*
X236401000Y-106951000D01*
X236401000Y-106951000D01*
G37*
G36*
X229401000Y-106951000D02*
X228499000Y-106951000D01*
X228499000Y-105949000D01*
X229401000Y-105949000D01*
X229401000Y-106951000D01*
X229401000Y-106951000D01*
G37*
G36*
X215401000Y-106951000D02*
X214499000Y-106951000D01*
X214499000Y-105949000D01*
X215401000Y-105949000D01*
X215401000Y-106951000D01*
X215401000Y-106951000D01*
G37*
G36*
X197375256Y-103391298D02*
X197481579Y-103412447D01*
X197782042Y-103536903D01*
X198048852Y-103715180D01*
X198052454Y-103717587D01*
X198282413Y-103947546D01*
X198282415Y-103947549D01*
X198421699Y-104156001D01*
X198463098Y-104217960D01*
X198478730Y-104255700D01*
X198561448Y-104455397D01*
X198587553Y-104518422D01*
X198651000Y-104837389D01*
X198651000Y-105162611D01*
X198613838Y-105349433D01*
X198587553Y-105481579D01*
X198463097Y-105782042D01*
X198410628Y-105860567D01*
X198282413Y-106052454D01*
X198052454Y-106282413D01*
X198052451Y-106282415D01*
X197782042Y-106463097D01*
X197481579Y-106587553D01*
X197375256Y-106608702D01*
X197162611Y-106651000D01*
X196837389Y-106651000D01*
X196624744Y-106608702D01*
X196518421Y-106587553D01*
X196217958Y-106463097D01*
X195947549Y-106282415D01*
X195947546Y-106282413D01*
X195717587Y-106052454D01*
X195589372Y-105860567D01*
X195536903Y-105782042D01*
X195412447Y-105481579D01*
X195386162Y-105349433D01*
X195349000Y-105162611D01*
X195349000Y-104837389D01*
X195412447Y-104518422D01*
X195438553Y-104455397D01*
X195521270Y-104255700D01*
X195536902Y-104217960D01*
X195578302Y-104156001D01*
X195717585Y-103947549D01*
X195717587Y-103947546D01*
X195947546Y-103717587D01*
X195951148Y-103715180D01*
X196217958Y-103536903D01*
X196518421Y-103412447D01*
X196624744Y-103391298D01*
X196837389Y-103349000D01*
X197162611Y-103349000D01*
X197375256Y-103391298D01*
X197375256Y-103391298D01*
G37*
G36*
X228451000Y-104951000D02*
X227549000Y-104951000D01*
X227549000Y-103949000D01*
X228451000Y-103949000D01*
X228451000Y-104951000D01*
X228451000Y-104951000D01*
G37*
G36*
X235451000Y-104951000D02*
X234549000Y-104951000D01*
X234549000Y-103949000D01*
X235451000Y-103949000D01*
X235451000Y-104951000D01*
X235451000Y-104951000D01*
G37*
G36*
X223351000Y-104951000D02*
X222449000Y-104951000D01*
X222449000Y-103949000D01*
X223351000Y-103949000D01*
X223351000Y-104951000D01*
X223351000Y-104951000D01*
G37*
G36*
X221451000Y-104951000D02*
X220549000Y-104951000D01*
X220549000Y-103949000D01*
X221451000Y-103949000D01*
X221451000Y-104951000D01*
X221451000Y-104951000D01*
G37*
G36*
X230351000Y-104951000D02*
X229449000Y-104951000D01*
X229449000Y-103949000D01*
X230351000Y-103949000D01*
X230351000Y-104951000D01*
X230351000Y-104951000D01*
G37*
G36*
X237351000Y-104951000D02*
X236449000Y-104951000D01*
X236449000Y-103949000D01*
X237351000Y-103949000D01*
X237351000Y-104951000D01*
X237351000Y-104951000D01*
G37*
G36*
X216351000Y-104951000D02*
X215449000Y-104951000D01*
X215449000Y-103949000D01*
X216351000Y-103949000D01*
X216351000Y-104951000D01*
X216351000Y-104951000D01*
G37*
G36*
X214451000Y-104951000D02*
X213549000Y-104951000D01*
X213549000Y-103949000D01*
X214451000Y-103949000D01*
X214451000Y-104951000D01*
X214451000Y-104951000D01*
G37*
G36*
X216226000Y-103246000D02*
X215249000Y-103246000D01*
X215249000Y-102194000D01*
X216226000Y-102194000D01*
X216226000Y-103246000D01*
X216226000Y-103246000D01*
G37*
G36*
X237226000Y-103246000D02*
X236249000Y-103246000D01*
X236249000Y-102194000D01*
X237226000Y-102194000D01*
X237226000Y-103246000D01*
X237226000Y-103246000D01*
G37*
G36*
X214651000Y-103246000D02*
X213674000Y-103246000D01*
X213674000Y-102194000D01*
X214651000Y-102194000D01*
X214651000Y-103246000D01*
X214651000Y-103246000D01*
G37*
G36*
X223226000Y-103246000D02*
X222249000Y-103246000D01*
X222249000Y-102194000D01*
X223226000Y-102194000D01*
X223226000Y-103246000D01*
X223226000Y-103246000D01*
G37*
G36*
X221651000Y-103246000D02*
X220674000Y-103246000D01*
X220674000Y-102194000D01*
X221651000Y-102194000D01*
X221651000Y-103246000D01*
X221651000Y-103246000D01*
G37*
G36*
X235651000Y-103246000D02*
X234674000Y-103246000D01*
X234674000Y-102194000D01*
X235651000Y-102194000D01*
X235651000Y-103246000D01*
X235651000Y-103246000D01*
G37*
G36*
X228651000Y-103246000D02*
X227674000Y-103246000D01*
X227674000Y-102194000D01*
X228651000Y-102194000D01*
X228651000Y-103246000D01*
X228651000Y-103246000D01*
G37*
G36*
X230226000Y-103246000D02*
X229249000Y-103246000D01*
X229249000Y-102194000D01*
X230226000Y-102194000D01*
X230226000Y-103246000D01*
X230226000Y-103246000D01*
G37*
G36*
X249689433Y-100313686D02*
X249729281Y-100325774D01*
X249766001Y-100345401D01*
X249798186Y-100371814D01*
X249824603Y-100404002D01*
X249834760Y-100423006D01*
X249848373Y-100443381D01*
X249865700Y-100460708D01*
X249886075Y-100474322D01*
X249908714Y-100483699D01*
X249932747Y-100488480D01*
X249957252Y-100488480D01*
X249981285Y-100483700D01*
X250003924Y-100474322D01*
X250024299Y-100460709D01*
X250041626Y-100443382D01*
X250055240Y-100423006D01*
X250065397Y-100404002D01*
X250091814Y-100371814D01*
X250123999Y-100345401D01*
X250160719Y-100325774D01*
X250200567Y-100313686D01*
X250248141Y-100309000D01*
X250911859Y-100309000D01*
X250959433Y-100313686D01*
X250999281Y-100325774D01*
X251036001Y-100345401D01*
X251068186Y-100371814D01*
X251094603Y-100404002D01*
X251104760Y-100423006D01*
X251118373Y-100443381D01*
X251135700Y-100460708D01*
X251156075Y-100474322D01*
X251178714Y-100483699D01*
X251202747Y-100488480D01*
X251227252Y-100488480D01*
X251251285Y-100483700D01*
X251273924Y-100474322D01*
X251294299Y-100460709D01*
X251311626Y-100443382D01*
X251325240Y-100423006D01*
X251335397Y-100404002D01*
X251361814Y-100371814D01*
X251393999Y-100345401D01*
X251430719Y-100325774D01*
X251470567Y-100313686D01*
X251518141Y-100309000D01*
X252181859Y-100309000D01*
X252229433Y-100313686D01*
X252269281Y-100325774D01*
X252306001Y-100345401D01*
X252338186Y-100371814D01*
X252364603Y-100404002D01*
X252374760Y-100423006D01*
X252388373Y-100443381D01*
X252405700Y-100460708D01*
X252426075Y-100474322D01*
X252448714Y-100483699D01*
X252472747Y-100488480D01*
X252497252Y-100488480D01*
X252521285Y-100483700D01*
X252543924Y-100474322D01*
X252564299Y-100460709D01*
X252581626Y-100443382D01*
X252595240Y-100423006D01*
X252605397Y-100404002D01*
X252631814Y-100371814D01*
X252663999Y-100345401D01*
X252700719Y-100325774D01*
X252740567Y-100313686D01*
X252788141Y-100309000D01*
X253451859Y-100309000D01*
X253499433Y-100313686D01*
X253539281Y-100325774D01*
X253576001Y-100345401D01*
X253608186Y-100371814D01*
X253634603Y-100404002D01*
X253644760Y-100423006D01*
X253658373Y-100443381D01*
X253675700Y-100460708D01*
X253696075Y-100474322D01*
X253718714Y-100483699D01*
X253742747Y-100488480D01*
X253767252Y-100488480D01*
X253791285Y-100483700D01*
X253813924Y-100474322D01*
X253834299Y-100460709D01*
X253851626Y-100443382D01*
X253865240Y-100423006D01*
X253875397Y-100404002D01*
X253901814Y-100371814D01*
X253933999Y-100345401D01*
X253970719Y-100325774D01*
X254010567Y-100313686D01*
X254058141Y-100309000D01*
X254721859Y-100309000D01*
X254769433Y-100313686D01*
X254809281Y-100325774D01*
X254846001Y-100345401D01*
X254878186Y-100371814D01*
X254904603Y-100404002D01*
X254914760Y-100423006D01*
X254928373Y-100443381D01*
X254945700Y-100460708D01*
X254966075Y-100474322D01*
X254988714Y-100483699D01*
X255012747Y-100488480D01*
X255037252Y-100488480D01*
X255061285Y-100483700D01*
X255083924Y-100474322D01*
X255104299Y-100460709D01*
X255121626Y-100443382D01*
X255135240Y-100423006D01*
X255145397Y-100404002D01*
X255171814Y-100371814D01*
X255203999Y-100345401D01*
X255240719Y-100325774D01*
X255280567Y-100313686D01*
X255328141Y-100309000D01*
X255991859Y-100309000D01*
X256039433Y-100313686D01*
X256079281Y-100325774D01*
X256116001Y-100345401D01*
X256148186Y-100371814D01*
X256174603Y-100404002D01*
X256184760Y-100423006D01*
X256198373Y-100443381D01*
X256215700Y-100460708D01*
X256236075Y-100474322D01*
X256258714Y-100483699D01*
X256282747Y-100488480D01*
X256307252Y-100488480D01*
X256331285Y-100483700D01*
X256353924Y-100474322D01*
X256374299Y-100460709D01*
X256391626Y-100443382D01*
X256405240Y-100423006D01*
X256415397Y-100404002D01*
X256441814Y-100371814D01*
X256473999Y-100345401D01*
X256510719Y-100325774D01*
X256550567Y-100313686D01*
X256598141Y-100309000D01*
X257261859Y-100309000D01*
X257309433Y-100313686D01*
X257349281Y-100325774D01*
X257386001Y-100345401D01*
X257418186Y-100371814D01*
X257444599Y-100403999D01*
X257464226Y-100440719D01*
X257476314Y-100480567D01*
X257481000Y-100528141D01*
X257481000Y-101791859D01*
X257476314Y-101839433D01*
X257464226Y-101879281D01*
X257444599Y-101916001D01*
X257418186Y-101948186D01*
X257386001Y-101974599D01*
X257349281Y-101994226D01*
X257309433Y-102006314D01*
X257261859Y-102011000D01*
X256598141Y-102011000D01*
X256550567Y-102006314D01*
X256510719Y-101994226D01*
X256473999Y-101974599D01*
X256441814Y-101948186D01*
X256415397Y-101915998D01*
X256405240Y-101896994D01*
X256391627Y-101876619D01*
X256374300Y-101859292D01*
X256353925Y-101845678D01*
X256331286Y-101836301D01*
X256307253Y-101831520D01*
X256282748Y-101831520D01*
X256258715Y-101836300D01*
X256236076Y-101845678D01*
X256215701Y-101859291D01*
X256198374Y-101876618D01*
X256184760Y-101896994D01*
X256174603Y-101915998D01*
X256148186Y-101948186D01*
X256116001Y-101974599D01*
X256079281Y-101994226D01*
X256039433Y-102006314D01*
X255991859Y-102011000D01*
X255328141Y-102011000D01*
X255280567Y-102006314D01*
X255240719Y-101994226D01*
X255203999Y-101974599D01*
X255171814Y-101948186D01*
X255145397Y-101915998D01*
X255135240Y-101896994D01*
X255121627Y-101876619D01*
X255104300Y-101859292D01*
X255083925Y-101845678D01*
X255061286Y-101836301D01*
X255037253Y-101831520D01*
X255012748Y-101831520D01*
X254988715Y-101836300D01*
X254966076Y-101845678D01*
X254945701Y-101859291D01*
X254928374Y-101876618D01*
X254914760Y-101896994D01*
X254904603Y-101915998D01*
X254878186Y-101948186D01*
X254846001Y-101974599D01*
X254809281Y-101994226D01*
X254769433Y-102006314D01*
X254721859Y-102011000D01*
X254058141Y-102011000D01*
X254010567Y-102006314D01*
X253970719Y-101994226D01*
X253933999Y-101974599D01*
X253901814Y-101948186D01*
X253875397Y-101915998D01*
X253865240Y-101896994D01*
X253851627Y-101876619D01*
X253834300Y-101859292D01*
X253813925Y-101845678D01*
X253791286Y-101836301D01*
X253767253Y-101831520D01*
X253742748Y-101831520D01*
X253718715Y-101836300D01*
X253696076Y-101845678D01*
X253675701Y-101859291D01*
X253658374Y-101876618D01*
X253644760Y-101896994D01*
X253634603Y-101915998D01*
X253608186Y-101948186D01*
X253576001Y-101974599D01*
X253539281Y-101994226D01*
X253499433Y-102006314D01*
X253451859Y-102011000D01*
X252788141Y-102011000D01*
X252740567Y-102006314D01*
X252700719Y-101994226D01*
X252663999Y-101974599D01*
X252631814Y-101948186D01*
X252605397Y-101915998D01*
X252595240Y-101896994D01*
X252581627Y-101876619D01*
X252564300Y-101859292D01*
X252543925Y-101845678D01*
X252521286Y-101836301D01*
X252497253Y-101831520D01*
X252472748Y-101831520D01*
X252448715Y-101836300D01*
X252426076Y-101845678D01*
X252405701Y-101859291D01*
X252388374Y-101876618D01*
X252374760Y-101896994D01*
X252364603Y-101915998D01*
X252338186Y-101948186D01*
X252306001Y-101974599D01*
X252269281Y-101994226D01*
X252229433Y-102006314D01*
X252181859Y-102011000D01*
X251518141Y-102011000D01*
X251470567Y-102006314D01*
X251430719Y-101994226D01*
X251393999Y-101974599D01*
X251361814Y-101948186D01*
X251335397Y-101915998D01*
X251325240Y-101896994D01*
X251311627Y-101876619D01*
X251294300Y-101859292D01*
X251273925Y-101845678D01*
X251251286Y-101836301D01*
X251227253Y-101831520D01*
X251202748Y-101831520D01*
X251178715Y-101836300D01*
X251156076Y-101845678D01*
X251135701Y-101859291D01*
X251118374Y-101876618D01*
X251104760Y-101896994D01*
X251094603Y-101915998D01*
X251068186Y-101948186D01*
X251036001Y-101974599D01*
X250999281Y-101994226D01*
X250959433Y-102006314D01*
X250911859Y-102011000D01*
X250248141Y-102011000D01*
X250200567Y-102006314D01*
X250160719Y-101994226D01*
X250123999Y-101974599D01*
X250091814Y-101948186D01*
X250065397Y-101915998D01*
X250055240Y-101896994D01*
X250041627Y-101876619D01*
X250024300Y-101859292D01*
X250003925Y-101845678D01*
X249981286Y-101836301D01*
X249957253Y-101831520D01*
X249932748Y-101831520D01*
X249908715Y-101836300D01*
X249886076Y-101845678D01*
X249865701Y-101859291D01*
X249848374Y-101876618D01*
X249834760Y-101896994D01*
X249824603Y-101915998D01*
X249798186Y-101948186D01*
X249766001Y-101974599D01*
X249729281Y-101994226D01*
X249689433Y-102006314D01*
X249641859Y-102011000D01*
X248978141Y-102011000D01*
X248930567Y-102006314D01*
X248890719Y-101994226D01*
X248853999Y-101974599D01*
X248821814Y-101948186D01*
X248795401Y-101916001D01*
X248775774Y-101879281D01*
X248763686Y-101839433D01*
X248759000Y-101791859D01*
X248759000Y-100528141D01*
X248763686Y-100480567D01*
X248775774Y-100440719D01*
X248795401Y-100403999D01*
X248821814Y-100371814D01*
X248853999Y-100345401D01*
X248890719Y-100325774D01*
X248930567Y-100313686D01*
X248978141Y-100309000D01*
X249641859Y-100309000D01*
X249689433Y-100313686D01*
X249689433Y-100313686D01*
G37*
G36*
X254522004Y-97830544D02*
X254609059Y-97847860D01*
X254745732Y-97904472D01*
X254745733Y-97904473D01*
X254868738Y-97986662D01*
X254973338Y-98091262D01*
X254973340Y-98091265D01*
X255055528Y-98214268D01*
X255112140Y-98350941D01*
X255141000Y-98496033D01*
X255141000Y-98643967D01*
X255112140Y-98789059D01*
X255055528Y-98925732D01*
X255055527Y-98925733D01*
X254973338Y-99048738D01*
X254868738Y-99153338D01*
X254868735Y-99153340D01*
X254745732Y-99235528D01*
X254609059Y-99292140D01*
X254522004Y-99309456D01*
X254463969Y-99321000D01*
X254316031Y-99321000D01*
X254257996Y-99309456D01*
X254170941Y-99292140D01*
X254034268Y-99235528D01*
X253911265Y-99153340D01*
X253911262Y-99153338D01*
X253806662Y-99048738D01*
X253724473Y-98925733D01*
X253724472Y-98925732D01*
X253667860Y-98789059D01*
X253639000Y-98643967D01*
X253639000Y-98496033D01*
X253667860Y-98350941D01*
X253724472Y-98214268D01*
X253806660Y-98091265D01*
X253806662Y-98091262D01*
X253911262Y-97986662D01*
X254034267Y-97904473D01*
X254034268Y-97904472D01*
X254170941Y-97847860D01*
X254257996Y-97830544D01*
X254316031Y-97819000D01*
X254463969Y-97819000D01*
X254522004Y-97830544D01*
X254522004Y-97830544D01*
G37*
M02*
