G04 #@! TF.GenerationSoftware,KiCad,Pcbnew,5.0.2-bee76a0~70~ubuntu18.04.1*
G04 #@! TF.CreationDate,2019-04-10T23:22:57+02:00*
G04 #@! TF.ProjectId,Plant_monitoring_device,506c616e-745f-46d6-9f6e-69746f72696e,rev?*
G04 #@! TF.SameCoordinates,Original*
G04 #@! TF.FileFunction,Soldermask,Bot*
G04 #@! TF.FilePolarity,Negative*
%FSLAX46Y46*%
G04 Gerber Fmt 4.6, Leading zero omitted, Abs format (unit mm)*
G04 Created by KiCad (PCBNEW 5.0.2-bee76a0~70~ubuntu18.04.1) date St 10. dubna 2019, 23:22:57 CEST*
%MOMM*%
%LPD*%
G01*
G04 APERTURE LIST*
%ADD10C,0.100000*%
G04 APERTURE END LIST*
D10*
G36*
X213051000Y-149551000D02*
X210949000Y-149551000D01*
X210949000Y-147449000D01*
X213051000Y-147449000D01*
X213051000Y-149551000D01*
X213051000Y-149551000D01*
G37*
G36*
X199606565Y-147489389D02*
X199797834Y-147568615D01*
X199969976Y-147683637D01*
X200116363Y-147830024D01*
X200231385Y-148002166D01*
X200310611Y-148193435D01*
X200351000Y-148396484D01*
X200351000Y-148603516D01*
X200310611Y-148806565D01*
X200231385Y-148997834D01*
X200116363Y-149169976D01*
X199969976Y-149316363D01*
X199797834Y-149431385D01*
X199606565Y-149510611D01*
X199403516Y-149551000D01*
X199196484Y-149551000D01*
X198993435Y-149510611D01*
X198802166Y-149431385D01*
X198630024Y-149316363D01*
X198483637Y-149169976D01*
X198368615Y-148997834D01*
X198289389Y-148806565D01*
X198249000Y-148603516D01*
X198249000Y-148396484D01*
X198289389Y-148193435D01*
X198368615Y-148002166D01*
X198483637Y-147830024D01*
X198630024Y-147683637D01*
X198802166Y-147568615D01*
X198993435Y-147489389D01*
X199196484Y-147449000D01*
X199403516Y-147449000D01*
X199606565Y-147489389D01*
X199606565Y-147489389D01*
G37*
G36*
X250748228Y-146681703D02*
X250903100Y-146745853D01*
X251042481Y-146838985D01*
X251161015Y-146957519D01*
X251254147Y-147096900D01*
X251318297Y-147251772D01*
X251351000Y-147416184D01*
X251351000Y-147583816D01*
X251318297Y-147748228D01*
X251254147Y-147903100D01*
X251161015Y-148042481D01*
X251042481Y-148161015D01*
X250903100Y-148254147D01*
X250748228Y-148318297D01*
X250583816Y-148351000D01*
X250416184Y-148351000D01*
X250251772Y-148318297D01*
X250096900Y-148254147D01*
X249957519Y-148161015D01*
X249838985Y-148042481D01*
X249745853Y-147903100D01*
X249681703Y-147748228D01*
X249649000Y-147583816D01*
X249649000Y-147416184D01*
X249681703Y-147251772D01*
X249745853Y-147096900D01*
X249838985Y-146957519D01*
X249957519Y-146838985D01*
X250096900Y-146745853D01*
X250251772Y-146681703D01*
X250416184Y-146649000D01*
X250583816Y-146649000D01*
X250748228Y-146681703D01*
X250748228Y-146681703D01*
G37*
G36*
X259708228Y-146681703D02*
X259863100Y-146745853D01*
X260002481Y-146838985D01*
X260121015Y-146957519D01*
X260214147Y-147096900D01*
X260278297Y-147251772D01*
X260311000Y-147416184D01*
X260311000Y-147583816D01*
X260278297Y-147748228D01*
X260214147Y-147903100D01*
X260121015Y-148042481D01*
X260002481Y-148161015D01*
X259863100Y-148254147D01*
X259708228Y-148318297D01*
X259543816Y-148351000D01*
X259376184Y-148351000D01*
X259211772Y-148318297D01*
X259056900Y-148254147D01*
X258917519Y-148161015D01*
X258798985Y-148042481D01*
X258705853Y-147903100D01*
X258641703Y-147748228D01*
X258609000Y-147583816D01*
X258609000Y-147416184D01*
X258641703Y-147251772D01*
X258705853Y-147096900D01*
X258798985Y-146957519D01*
X258917519Y-146838985D01*
X259056900Y-146745853D01*
X259211772Y-146681703D01*
X259376184Y-146649000D01*
X259543816Y-146649000D01*
X259708228Y-146681703D01*
X259708228Y-146681703D01*
G37*
G36*
X257708228Y-146681703D02*
X257863100Y-146745853D01*
X258002481Y-146838985D01*
X258121015Y-146957519D01*
X258214147Y-147096900D01*
X258278297Y-147251772D01*
X258311000Y-147416184D01*
X258311000Y-147583816D01*
X258278297Y-147748228D01*
X258214147Y-147903100D01*
X258121015Y-148042481D01*
X258002481Y-148161015D01*
X257863100Y-148254147D01*
X257708228Y-148318297D01*
X257543816Y-148351000D01*
X257376184Y-148351000D01*
X257211772Y-148318297D01*
X257056900Y-148254147D01*
X256917519Y-148161015D01*
X256798985Y-148042481D01*
X256705853Y-147903100D01*
X256641703Y-147748228D01*
X256609000Y-147583816D01*
X256609000Y-147416184D01*
X256641703Y-147251772D01*
X256705853Y-147096900D01*
X256798985Y-146957519D01*
X256917519Y-146838985D01*
X257056900Y-146745853D01*
X257211772Y-146681703D01*
X257376184Y-146649000D01*
X257543816Y-146649000D01*
X257708228Y-146681703D01*
X257708228Y-146681703D01*
G37*
G36*
X232748228Y-146681703D02*
X232903100Y-146745853D01*
X233042481Y-146838985D01*
X233161015Y-146957519D01*
X233254147Y-147096900D01*
X233318297Y-147251772D01*
X233351000Y-147416184D01*
X233351000Y-147583816D01*
X233318297Y-147748228D01*
X233254147Y-147903100D01*
X233161015Y-148042481D01*
X233042481Y-148161015D01*
X232903100Y-148254147D01*
X232748228Y-148318297D01*
X232583816Y-148351000D01*
X232416184Y-148351000D01*
X232251772Y-148318297D01*
X232096900Y-148254147D01*
X231957519Y-148161015D01*
X231838985Y-148042481D01*
X231745853Y-147903100D01*
X231681703Y-147748228D01*
X231649000Y-147583816D01*
X231649000Y-147416184D01*
X231681703Y-147251772D01*
X231745853Y-147096900D01*
X231838985Y-146957519D01*
X231957519Y-146838985D01*
X232096900Y-146745853D01*
X232251772Y-146681703D01*
X232416184Y-146649000D01*
X232583816Y-146649000D01*
X232748228Y-146681703D01*
X232748228Y-146681703D01*
G37*
G36*
X230748228Y-146681703D02*
X230903100Y-146745853D01*
X231042481Y-146838985D01*
X231161015Y-146957519D01*
X231254147Y-147096900D01*
X231318297Y-147251772D01*
X231351000Y-147416184D01*
X231351000Y-147583816D01*
X231318297Y-147748228D01*
X231254147Y-147903100D01*
X231161015Y-148042481D01*
X231042481Y-148161015D01*
X230903100Y-148254147D01*
X230748228Y-148318297D01*
X230583816Y-148351000D01*
X230416184Y-148351000D01*
X230251772Y-148318297D01*
X230096900Y-148254147D01*
X229957519Y-148161015D01*
X229838985Y-148042481D01*
X229745853Y-147903100D01*
X229681703Y-147748228D01*
X229649000Y-147583816D01*
X229649000Y-147416184D01*
X229681703Y-147251772D01*
X229745853Y-147096900D01*
X229838985Y-146957519D01*
X229957519Y-146838985D01*
X230096900Y-146745853D01*
X230251772Y-146681703D01*
X230416184Y-146649000D01*
X230583816Y-146649000D01*
X230748228Y-146681703D01*
X230748228Y-146681703D01*
G37*
G36*
X248748228Y-146681703D02*
X248903100Y-146745853D01*
X249042481Y-146838985D01*
X249161015Y-146957519D01*
X249254147Y-147096900D01*
X249318297Y-147251772D01*
X249351000Y-147416184D01*
X249351000Y-147583816D01*
X249318297Y-147748228D01*
X249254147Y-147903100D01*
X249161015Y-148042481D01*
X249042481Y-148161015D01*
X248903100Y-148254147D01*
X248748228Y-148318297D01*
X248583816Y-148351000D01*
X248416184Y-148351000D01*
X248251772Y-148318297D01*
X248096900Y-148254147D01*
X247957519Y-148161015D01*
X247838985Y-148042481D01*
X247745853Y-147903100D01*
X247681703Y-147748228D01*
X247649000Y-147583816D01*
X247649000Y-147416184D01*
X247681703Y-147251772D01*
X247745853Y-147096900D01*
X247838985Y-146957519D01*
X247957519Y-146838985D01*
X248096900Y-146745853D01*
X248251772Y-146681703D01*
X248416184Y-146649000D01*
X248583816Y-146649000D01*
X248748228Y-146681703D01*
X248748228Y-146681703D01*
G37*
G36*
X239748228Y-146681703D02*
X239903100Y-146745853D01*
X240042481Y-146838985D01*
X240161015Y-146957519D01*
X240254147Y-147096900D01*
X240318297Y-147251772D01*
X240351000Y-147416184D01*
X240351000Y-147583816D01*
X240318297Y-147748228D01*
X240254147Y-147903100D01*
X240161015Y-148042481D01*
X240042481Y-148161015D01*
X239903100Y-148254147D01*
X239748228Y-148318297D01*
X239583816Y-148351000D01*
X239416184Y-148351000D01*
X239251772Y-148318297D01*
X239096900Y-148254147D01*
X238957519Y-148161015D01*
X238838985Y-148042481D01*
X238745853Y-147903100D01*
X238681703Y-147748228D01*
X238649000Y-147583816D01*
X238649000Y-147416184D01*
X238681703Y-147251772D01*
X238745853Y-147096900D01*
X238838985Y-146957519D01*
X238957519Y-146838985D01*
X239096900Y-146745853D01*
X239251772Y-146681703D01*
X239416184Y-146649000D01*
X239583816Y-146649000D01*
X239748228Y-146681703D01*
X239748228Y-146681703D01*
G37*
G36*
X241748228Y-146681703D02*
X241903100Y-146745853D01*
X242042481Y-146838985D01*
X242161015Y-146957519D01*
X242254147Y-147096900D01*
X242318297Y-147251772D01*
X242351000Y-147416184D01*
X242351000Y-147583816D01*
X242318297Y-147748228D01*
X242254147Y-147903100D01*
X242161015Y-148042481D01*
X242042481Y-148161015D01*
X241903100Y-148254147D01*
X241748228Y-148318297D01*
X241583816Y-148351000D01*
X241416184Y-148351000D01*
X241251772Y-148318297D01*
X241096900Y-148254147D01*
X240957519Y-148161015D01*
X240838985Y-148042481D01*
X240745853Y-147903100D01*
X240681703Y-147748228D01*
X240649000Y-147583816D01*
X240649000Y-147416184D01*
X240681703Y-147251772D01*
X240745853Y-147096900D01*
X240838985Y-146957519D01*
X240957519Y-146838985D01*
X241096900Y-146745853D01*
X241251772Y-146681703D01*
X241416184Y-146649000D01*
X241583816Y-146649000D01*
X241748228Y-146681703D01*
X241748228Y-146681703D01*
G37*
G36*
X237737142Y-146718242D02*
X237885102Y-146779530D01*
X238018258Y-146868502D01*
X238131498Y-146981742D01*
X238220470Y-147114898D01*
X238281758Y-147262858D01*
X238313000Y-147419925D01*
X238313000Y-147580075D01*
X238281758Y-147737142D01*
X238243284Y-147830024D01*
X238220471Y-147885100D01*
X238142251Y-148002166D01*
X238131498Y-148018258D01*
X238018258Y-148131498D01*
X237885102Y-148220470D01*
X237737142Y-148281758D01*
X237580075Y-148313000D01*
X237419925Y-148313000D01*
X237262858Y-148281758D01*
X237114898Y-148220470D01*
X236981742Y-148131498D01*
X236868502Y-148018258D01*
X236857750Y-148002166D01*
X236779529Y-147885100D01*
X236756716Y-147830024D01*
X236718242Y-147737142D01*
X236687000Y-147580075D01*
X236687000Y-147419925D01*
X236718242Y-147262858D01*
X236779530Y-147114898D01*
X236868502Y-146981742D01*
X236981742Y-146868502D01*
X237114898Y-146779530D01*
X237262858Y-146718242D01*
X237419925Y-146687000D01*
X237580075Y-146687000D01*
X237737142Y-146718242D01*
X237737142Y-146718242D01*
G37*
G36*
X246737142Y-146718242D02*
X246885102Y-146779530D01*
X247018258Y-146868502D01*
X247131498Y-146981742D01*
X247220470Y-147114898D01*
X247281758Y-147262858D01*
X247313000Y-147419925D01*
X247313000Y-147580075D01*
X247281758Y-147737142D01*
X247243284Y-147830024D01*
X247220471Y-147885100D01*
X247142251Y-148002166D01*
X247131498Y-148018258D01*
X247018258Y-148131498D01*
X246885102Y-148220470D01*
X246737142Y-148281758D01*
X246580075Y-148313000D01*
X246419925Y-148313000D01*
X246262858Y-148281758D01*
X246114898Y-148220470D01*
X245981742Y-148131498D01*
X245868502Y-148018258D01*
X245857750Y-148002166D01*
X245779529Y-147885100D01*
X245756716Y-147830024D01*
X245718242Y-147737142D01*
X245687000Y-147580075D01*
X245687000Y-147419925D01*
X245718242Y-147262858D01*
X245779530Y-147114898D01*
X245868502Y-146981742D01*
X245981742Y-146868502D01*
X246114898Y-146779530D01*
X246262858Y-146718242D01*
X246419925Y-146687000D01*
X246580075Y-146687000D01*
X246737142Y-146718242D01*
X246737142Y-146718242D01*
G37*
G36*
X255697142Y-146718242D02*
X255845102Y-146779530D01*
X255978258Y-146868502D01*
X256091498Y-146981742D01*
X256180470Y-147114898D01*
X256241758Y-147262858D01*
X256273000Y-147419925D01*
X256273000Y-147580075D01*
X256241758Y-147737142D01*
X256203284Y-147830024D01*
X256180471Y-147885100D01*
X256102251Y-148002166D01*
X256091498Y-148018258D01*
X255978258Y-148131498D01*
X255845102Y-148220470D01*
X255697142Y-148281758D01*
X255540075Y-148313000D01*
X255379925Y-148313000D01*
X255222858Y-148281758D01*
X255074898Y-148220470D01*
X254941742Y-148131498D01*
X254828502Y-148018258D01*
X254817750Y-148002166D01*
X254739529Y-147885100D01*
X254716716Y-147830024D01*
X254678242Y-147737142D01*
X254647000Y-147580075D01*
X254647000Y-147419925D01*
X254678242Y-147262858D01*
X254739530Y-147114898D01*
X254828502Y-146981742D01*
X254941742Y-146868502D01*
X255074898Y-146779530D01*
X255222858Y-146718242D01*
X255379925Y-146687000D01*
X255540075Y-146687000D01*
X255697142Y-146718242D01*
X255697142Y-146718242D01*
G37*
G36*
X228737142Y-146718242D02*
X228885102Y-146779530D01*
X229018258Y-146868502D01*
X229131498Y-146981742D01*
X229220470Y-147114898D01*
X229281758Y-147262858D01*
X229313000Y-147419925D01*
X229313000Y-147580075D01*
X229281758Y-147737142D01*
X229243284Y-147830024D01*
X229220471Y-147885100D01*
X229142251Y-148002166D01*
X229131498Y-148018258D01*
X229018258Y-148131498D01*
X228885102Y-148220470D01*
X228737142Y-148281758D01*
X228580075Y-148313000D01*
X228419925Y-148313000D01*
X228262858Y-148281758D01*
X228114898Y-148220470D01*
X227981742Y-148131498D01*
X227868502Y-148018258D01*
X227857750Y-148002166D01*
X227779529Y-147885100D01*
X227756716Y-147830024D01*
X227718242Y-147737142D01*
X227687000Y-147580075D01*
X227687000Y-147419925D01*
X227718242Y-147262858D01*
X227779530Y-147114898D01*
X227868502Y-146981742D01*
X227981742Y-146868502D01*
X228114898Y-146779530D01*
X228262858Y-146718242D01*
X228419925Y-146687000D01*
X228580075Y-146687000D01*
X228737142Y-146718242D01*
X228737142Y-146718242D01*
G37*
G36*
X197375256Y-142391298D02*
X197481579Y-142412447D01*
X197782042Y-142536903D01*
X197910564Y-142622779D01*
X198052454Y-142717587D01*
X198282413Y-142947546D01*
X198282415Y-142947549D01*
X198463097Y-143217958D01*
X198583651Y-143509000D01*
X198587553Y-143518422D01*
X198637559Y-143769815D01*
X198651000Y-143837391D01*
X198651000Y-144162609D01*
X198587553Y-144481579D01*
X198499550Y-144694037D01*
X198463098Y-144782040D01*
X198282413Y-145052454D01*
X198052454Y-145282413D01*
X198052451Y-145282415D01*
X197782042Y-145463097D01*
X197481579Y-145587553D01*
X197375256Y-145608702D01*
X197162611Y-145651000D01*
X196837389Y-145651000D01*
X196624744Y-145608702D01*
X196518421Y-145587553D01*
X196217958Y-145463097D01*
X195947549Y-145282415D01*
X195947546Y-145282413D01*
X195717587Y-145052454D01*
X195536902Y-144782040D01*
X195500450Y-144694037D01*
X195412447Y-144481579D01*
X195349000Y-144162609D01*
X195349000Y-143837391D01*
X195362442Y-143769815D01*
X195412447Y-143518422D01*
X195416350Y-143509000D01*
X195536903Y-143217958D01*
X195717585Y-142947549D01*
X195717587Y-142947546D01*
X195947546Y-142717587D01*
X196089436Y-142622779D01*
X196217958Y-142536903D01*
X196518421Y-142412447D01*
X196624744Y-142391298D01*
X196837389Y-142349000D01*
X197162611Y-142349000D01*
X197375256Y-142391298D01*
X197375256Y-142391298D01*
G37*
G36*
X203360442Y-143515518D02*
X203426627Y-143522037D01*
X203539853Y-143556384D01*
X203596467Y-143573557D01*
X203735087Y-143647652D01*
X203752991Y-143657222D01*
X203788729Y-143686552D01*
X203890186Y-143769814D01*
X203945644Y-143837391D01*
X204002778Y-143907009D01*
X204002779Y-143907011D01*
X204086443Y-144063533D01*
X204086443Y-144063534D01*
X204137963Y-144233373D01*
X204155359Y-144410000D01*
X204137963Y-144586627D01*
X204103616Y-144699853D01*
X204086443Y-144756467D01*
X204012348Y-144895087D01*
X204002778Y-144912991D01*
X203973448Y-144948729D01*
X203890186Y-145050186D01*
X203788729Y-145133448D01*
X203752991Y-145162778D01*
X203752989Y-145162779D01*
X203596467Y-145246443D01*
X203539853Y-145263616D01*
X203426627Y-145297963D01*
X203360442Y-145304482D01*
X203294260Y-145311000D01*
X203205740Y-145311000D01*
X203139558Y-145304482D01*
X203073373Y-145297963D01*
X202960147Y-145263616D01*
X202903533Y-145246443D01*
X202747011Y-145162779D01*
X202747009Y-145162778D01*
X202711271Y-145133448D01*
X202609814Y-145050186D01*
X202526552Y-144948729D01*
X202497222Y-144912991D01*
X202487652Y-144895087D01*
X202413557Y-144756467D01*
X202396384Y-144699853D01*
X202362037Y-144586627D01*
X202344641Y-144410000D01*
X202362037Y-144233373D01*
X202413557Y-144063534D01*
X202413557Y-144063533D01*
X202497221Y-143907011D01*
X202497222Y-143907009D01*
X202554356Y-143837391D01*
X202609814Y-143769814D01*
X202711271Y-143686552D01*
X202747009Y-143657222D01*
X202764913Y-143647652D01*
X202903533Y-143573557D01*
X202960147Y-143556384D01*
X203073373Y-143522037D01*
X203139558Y-143515518D01*
X203205740Y-143509000D01*
X203294260Y-143509000D01*
X203360442Y-143515518D01*
X203360442Y-143515518D01*
G37*
G36*
X203360443Y-140975519D02*
X203426627Y-140982037D01*
X203539853Y-141016384D01*
X203596467Y-141033557D01*
X203735087Y-141107652D01*
X203752991Y-141117222D01*
X203788729Y-141146552D01*
X203890186Y-141229814D01*
X203973448Y-141331271D01*
X204002778Y-141367009D01*
X204002779Y-141367011D01*
X204086443Y-141523533D01*
X204086443Y-141523534D01*
X204137963Y-141693373D01*
X204155359Y-141870000D01*
X204137963Y-142046627D01*
X204103616Y-142159853D01*
X204086443Y-142216467D01*
X204015602Y-142349000D01*
X204002778Y-142372991D01*
X203973448Y-142408729D01*
X203890186Y-142510186D01*
X203788729Y-142593448D01*
X203752991Y-142622778D01*
X203752989Y-142622779D01*
X203596467Y-142706443D01*
X203559736Y-142717585D01*
X203426627Y-142757963D01*
X203360443Y-142764481D01*
X203294260Y-142771000D01*
X203205740Y-142771000D01*
X203139557Y-142764481D01*
X203073373Y-142757963D01*
X202940264Y-142717585D01*
X202903533Y-142706443D01*
X202747011Y-142622779D01*
X202747009Y-142622778D01*
X202711271Y-142593448D01*
X202609814Y-142510186D01*
X202526552Y-142408729D01*
X202497222Y-142372991D01*
X202484398Y-142349000D01*
X202413557Y-142216467D01*
X202396384Y-142159853D01*
X202362037Y-142046627D01*
X202344641Y-141870000D01*
X202362037Y-141693373D01*
X202413557Y-141523534D01*
X202413557Y-141523533D01*
X202497221Y-141367011D01*
X202497222Y-141367009D01*
X202526552Y-141331271D01*
X202609814Y-141229814D01*
X202711271Y-141146552D01*
X202747009Y-141117222D01*
X202764913Y-141107652D01*
X202903533Y-141033557D01*
X202960147Y-141016384D01*
X203073373Y-140982037D01*
X203139557Y-140975519D01*
X203205740Y-140969000D01*
X203294260Y-140969000D01*
X203360443Y-140975519D01*
X203360443Y-140975519D01*
G37*
G36*
X203360442Y-138435518D02*
X203426627Y-138442037D01*
X203539853Y-138476384D01*
X203596467Y-138493557D01*
X203735087Y-138567652D01*
X203752991Y-138577222D01*
X203788729Y-138606552D01*
X203890186Y-138689814D01*
X203965873Y-138782040D01*
X204002778Y-138827009D01*
X204002779Y-138827011D01*
X204086443Y-138983533D01*
X204086443Y-138983534D01*
X204137963Y-139153373D01*
X204155359Y-139330000D01*
X204137963Y-139506627D01*
X204113414Y-139587553D01*
X204086443Y-139676467D01*
X204012348Y-139815087D01*
X204002778Y-139832991D01*
X203973448Y-139868729D01*
X203890186Y-139970186D01*
X203788729Y-140053448D01*
X203752991Y-140082778D01*
X203752989Y-140082779D01*
X203596467Y-140166443D01*
X203539853Y-140183616D01*
X203426627Y-140217963D01*
X203360442Y-140224482D01*
X203294260Y-140231000D01*
X203205740Y-140231000D01*
X203139558Y-140224482D01*
X203073373Y-140217963D01*
X202960147Y-140183616D01*
X202903533Y-140166443D01*
X202747011Y-140082779D01*
X202747009Y-140082778D01*
X202711271Y-140053448D01*
X202609814Y-139970186D01*
X202526552Y-139868729D01*
X202497222Y-139832991D01*
X202487652Y-139815087D01*
X202413557Y-139676467D01*
X202386586Y-139587553D01*
X202362037Y-139506627D01*
X202344641Y-139330000D01*
X202362037Y-139153373D01*
X202413557Y-138983534D01*
X202413557Y-138983533D01*
X202497221Y-138827011D01*
X202497222Y-138827009D01*
X202534127Y-138782040D01*
X202609814Y-138689814D01*
X202711271Y-138606552D01*
X202747009Y-138577222D01*
X202764913Y-138567652D01*
X202903533Y-138493557D01*
X202960147Y-138476384D01*
X203073373Y-138442037D01*
X203139558Y-138435518D01*
X203205740Y-138429000D01*
X203294260Y-138429000D01*
X203360442Y-138435518D01*
X203360442Y-138435518D01*
G37*
G36*
X260375256Y-136391298D02*
X260481579Y-136412447D01*
X260782042Y-136536903D01*
X260896487Y-136613373D01*
X261052454Y-136717587D01*
X261282413Y-136947546D01*
X261282415Y-136947549D01*
X261463097Y-137217958D01*
X261587553Y-137518421D01*
X261651000Y-137837391D01*
X261651000Y-138162609D01*
X261587553Y-138481579D01*
X261463097Y-138782042D01*
X261328465Y-138983533D01*
X261282413Y-139052454D01*
X261052454Y-139282413D01*
X261052451Y-139282415D01*
X260782042Y-139463097D01*
X260481579Y-139587553D01*
X260375256Y-139608702D01*
X260162611Y-139651000D01*
X259837389Y-139651000D01*
X259624744Y-139608702D01*
X259518421Y-139587553D01*
X259217958Y-139463097D01*
X258947549Y-139282415D01*
X258947546Y-139282413D01*
X258717587Y-139052454D01*
X258671535Y-138983533D01*
X258536903Y-138782042D01*
X258412447Y-138481579D01*
X258349000Y-138162609D01*
X258349000Y-137837391D01*
X258412447Y-137518421D01*
X258536903Y-137217958D01*
X258717585Y-136947549D01*
X258717587Y-136947546D01*
X258947546Y-136717587D01*
X259103513Y-136613373D01*
X259217958Y-136536903D01*
X259518421Y-136412447D01*
X259624744Y-136391298D01*
X259837389Y-136349000D01*
X260162611Y-136349000D01*
X260375256Y-136391298D01*
X260375256Y-136391298D01*
G37*
G36*
X203360442Y-135895518D02*
X203426627Y-135902037D01*
X203539853Y-135936384D01*
X203596467Y-135953557D01*
X203735087Y-136027652D01*
X203752991Y-136037222D01*
X203788729Y-136066552D01*
X203890186Y-136149814D01*
X203973448Y-136251271D01*
X204002778Y-136287009D01*
X204002779Y-136287011D01*
X204086443Y-136443533D01*
X204086443Y-136443534D01*
X204137963Y-136613373D01*
X204155359Y-136790000D01*
X204137963Y-136966627D01*
X204103616Y-137079853D01*
X204086443Y-137136467D01*
X204042883Y-137217960D01*
X204002778Y-137292991D01*
X203973448Y-137328729D01*
X203890186Y-137430186D01*
X203788729Y-137513448D01*
X203752991Y-137542778D01*
X203752989Y-137542779D01*
X203596467Y-137626443D01*
X203539853Y-137643616D01*
X203426627Y-137677963D01*
X203360442Y-137684482D01*
X203294260Y-137691000D01*
X203205740Y-137691000D01*
X203139558Y-137684482D01*
X203073373Y-137677963D01*
X202960147Y-137643616D01*
X202903533Y-137626443D01*
X202747011Y-137542779D01*
X202747009Y-137542778D01*
X202711271Y-137513448D01*
X202609814Y-137430186D01*
X202526552Y-137328729D01*
X202497222Y-137292991D01*
X202457117Y-137217960D01*
X202413557Y-137136467D01*
X202396384Y-137079853D01*
X202362037Y-136966627D01*
X202344641Y-136790000D01*
X202362037Y-136613373D01*
X202413557Y-136443534D01*
X202413557Y-136443533D01*
X202497221Y-136287011D01*
X202497222Y-136287009D01*
X202526552Y-136251271D01*
X202609814Y-136149814D01*
X202711271Y-136066552D01*
X202747009Y-136037222D01*
X202764913Y-136027652D01*
X202903533Y-135953557D01*
X202960147Y-135936384D01*
X203073373Y-135902037D01*
X203139558Y-135895518D01*
X203205740Y-135889000D01*
X203294260Y-135889000D01*
X203360442Y-135895518D01*
X203360442Y-135895518D01*
G37*
G36*
X204151000Y-135151000D02*
X202349000Y-135151000D01*
X202349000Y-133349000D01*
X204151000Y-133349000D01*
X204151000Y-135151000D01*
X204151000Y-135151000D01*
G37*
G36*
X204126366Y-116415695D02*
X204283458Y-116463348D01*
X204428230Y-116540731D01*
X204555128Y-116644872D01*
X204659269Y-116771770D01*
X204736652Y-116916542D01*
X204784305Y-117073634D01*
X204801000Y-117243140D01*
X204801000Y-119156860D01*
X204784305Y-119326366D01*
X204736652Y-119483458D01*
X204659269Y-119628230D01*
X204555128Y-119755128D01*
X204428230Y-119859269D01*
X204283458Y-119936652D01*
X204126366Y-119984305D01*
X203956860Y-120001000D01*
X202043140Y-120001000D01*
X201873634Y-119984305D01*
X201716542Y-119936652D01*
X201571770Y-119859269D01*
X201444872Y-119755128D01*
X201340731Y-119628230D01*
X201263348Y-119483458D01*
X201215695Y-119326366D01*
X201199000Y-119156860D01*
X201199000Y-117243140D01*
X201215695Y-117073634D01*
X201263348Y-116916542D01*
X201340731Y-116771770D01*
X201444872Y-116644872D01*
X201571770Y-116540731D01*
X201716542Y-116463348D01*
X201873634Y-116415695D01*
X202043140Y-116399000D01*
X203956860Y-116399000D01*
X204126366Y-116415695D01*
X204126366Y-116415695D01*
G37*
G36*
X229248228Y-115681703D02*
X229403100Y-115745853D01*
X229542481Y-115838985D01*
X229661015Y-115957519D01*
X229754147Y-116096900D01*
X229818297Y-116251772D01*
X229851000Y-116416184D01*
X229851000Y-116583816D01*
X229818297Y-116748228D01*
X229754147Y-116903100D01*
X229661015Y-117042481D01*
X229542481Y-117161015D01*
X229403100Y-117254147D01*
X229248228Y-117318297D01*
X229083816Y-117351000D01*
X228916184Y-117351000D01*
X228751772Y-117318297D01*
X228596900Y-117254147D01*
X228457519Y-117161015D01*
X228338985Y-117042481D01*
X228245853Y-116903100D01*
X228181703Y-116748228D01*
X228149000Y-116583816D01*
X228149000Y-116416184D01*
X228181703Y-116251772D01*
X228245853Y-116096900D01*
X228338985Y-115957519D01*
X228457519Y-115838985D01*
X228596900Y-115745853D01*
X228751772Y-115681703D01*
X228916184Y-115649000D01*
X229083816Y-115649000D01*
X229248228Y-115681703D01*
X229248228Y-115681703D01*
G37*
G36*
X227248228Y-115681703D02*
X227403100Y-115745853D01*
X227542481Y-115838985D01*
X227661015Y-115957519D01*
X227754147Y-116096900D01*
X227818297Y-116251772D01*
X227851000Y-116416184D01*
X227851000Y-116583816D01*
X227818297Y-116748228D01*
X227754147Y-116903100D01*
X227661015Y-117042481D01*
X227542481Y-117161015D01*
X227403100Y-117254147D01*
X227248228Y-117318297D01*
X227083816Y-117351000D01*
X226916184Y-117351000D01*
X226751772Y-117318297D01*
X226596900Y-117254147D01*
X226457519Y-117161015D01*
X226338985Y-117042481D01*
X226245853Y-116903100D01*
X226181703Y-116748228D01*
X226149000Y-116583816D01*
X226149000Y-116416184D01*
X226181703Y-116251772D01*
X226245853Y-116096900D01*
X226338985Y-115957519D01*
X226457519Y-115838985D01*
X226596900Y-115745853D01*
X226751772Y-115681703D01*
X226916184Y-115649000D01*
X227083816Y-115649000D01*
X227248228Y-115681703D01*
X227248228Y-115681703D01*
G37*
G36*
X234248228Y-115681703D02*
X234403100Y-115745853D01*
X234542481Y-115838985D01*
X234661015Y-115957519D01*
X234754147Y-116096900D01*
X234818297Y-116251772D01*
X234851000Y-116416184D01*
X234851000Y-116583816D01*
X234818297Y-116748228D01*
X234754147Y-116903100D01*
X234661015Y-117042481D01*
X234542481Y-117161015D01*
X234403100Y-117254147D01*
X234248228Y-117318297D01*
X234083816Y-117351000D01*
X233916184Y-117351000D01*
X233751772Y-117318297D01*
X233596900Y-117254147D01*
X233457519Y-117161015D01*
X233338985Y-117042481D01*
X233245853Y-116903100D01*
X233181703Y-116748228D01*
X233149000Y-116583816D01*
X233149000Y-116416184D01*
X233181703Y-116251772D01*
X233245853Y-116096900D01*
X233338985Y-115957519D01*
X233457519Y-115838985D01*
X233596900Y-115745853D01*
X233751772Y-115681703D01*
X233916184Y-115649000D01*
X234083816Y-115649000D01*
X234248228Y-115681703D01*
X234248228Y-115681703D01*
G37*
G36*
X236248228Y-115681703D02*
X236403100Y-115745853D01*
X236542481Y-115838985D01*
X236661015Y-115957519D01*
X236754147Y-116096900D01*
X236818297Y-116251772D01*
X236851000Y-116416184D01*
X236851000Y-116583816D01*
X236818297Y-116748228D01*
X236754147Y-116903100D01*
X236661015Y-117042481D01*
X236542481Y-117161015D01*
X236403100Y-117254147D01*
X236248228Y-117318297D01*
X236083816Y-117351000D01*
X235916184Y-117351000D01*
X235751772Y-117318297D01*
X235596900Y-117254147D01*
X235457519Y-117161015D01*
X235338985Y-117042481D01*
X235245853Y-116903100D01*
X235181703Y-116748228D01*
X235149000Y-116583816D01*
X235149000Y-116416184D01*
X235181703Y-116251772D01*
X235245853Y-116096900D01*
X235338985Y-115957519D01*
X235457519Y-115838985D01*
X235596900Y-115745853D01*
X235751772Y-115681703D01*
X235916184Y-115649000D01*
X236083816Y-115649000D01*
X236248228Y-115681703D01*
X236248228Y-115681703D01*
G37*
G36*
X222248228Y-115681703D02*
X222403100Y-115745853D01*
X222542481Y-115838985D01*
X222661015Y-115957519D01*
X222754147Y-116096900D01*
X222818297Y-116251772D01*
X222851000Y-116416184D01*
X222851000Y-116583816D01*
X222818297Y-116748228D01*
X222754147Y-116903100D01*
X222661015Y-117042481D01*
X222542481Y-117161015D01*
X222403100Y-117254147D01*
X222248228Y-117318297D01*
X222083816Y-117351000D01*
X221916184Y-117351000D01*
X221751772Y-117318297D01*
X221596900Y-117254147D01*
X221457519Y-117161015D01*
X221338985Y-117042481D01*
X221245853Y-116903100D01*
X221181703Y-116748228D01*
X221149000Y-116583816D01*
X221149000Y-116416184D01*
X221181703Y-116251772D01*
X221245853Y-116096900D01*
X221338985Y-115957519D01*
X221457519Y-115838985D01*
X221596900Y-115745853D01*
X221751772Y-115681703D01*
X221916184Y-115649000D01*
X222083816Y-115649000D01*
X222248228Y-115681703D01*
X222248228Y-115681703D01*
G37*
G36*
X213248228Y-115681703D02*
X213403100Y-115745853D01*
X213542481Y-115838985D01*
X213661015Y-115957519D01*
X213754147Y-116096900D01*
X213818297Y-116251772D01*
X213851000Y-116416184D01*
X213851000Y-116583816D01*
X213818297Y-116748228D01*
X213754147Y-116903100D01*
X213661015Y-117042481D01*
X213542481Y-117161015D01*
X213403100Y-117254147D01*
X213248228Y-117318297D01*
X213083816Y-117351000D01*
X212916184Y-117351000D01*
X212751772Y-117318297D01*
X212596900Y-117254147D01*
X212457519Y-117161015D01*
X212338985Y-117042481D01*
X212245853Y-116903100D01*
X212181703Y-116748228D01*
X212149000Y-116583816D01*
X212149000Y-116416184D01*
X212181703Y-116251772D01*
X212245853Y-116096900D01*
X212338985Y-115957519D01*
X212457519Y-115838985D01*
X212596900Y-115745853D01*
X212751772Y-115681703D01*
X212916184Y-115649000D01*
X213083816Y-115649000D01*
X213248228Y-115681703D01*
X213248228Y-115681703D01*
G37*
G36*
X215248228Y-115681703D02*
X215403100Y-115745853D01*
X215542481Y-115838985D01*
X215661015Y-115957519D01*
X215754147Y-116096900D01*
X215818297Y-116251772D01*
X215851000Y-116416184D01*
X215851000Y-116583816D01*
X215818297Y-116748228D01*
X215754147Y-116903100D01*
X215661015Y-117042481D01*
X215542481Y-117161015D01*
X215403100Y-117254147D01*
X215248228Y-117318297D01*
X215083816Y-117351000D01*
X214916184Y-117351000D01*
X214751772Y-117318297D01*
X214596900Y-117254147D01*
X214457519Y-117161015D01*
X214338985Y-117042481D01*
X214245853Y-116903100D01*
X214181703Y-116748228D01*
X214149000Y-116583816D01*
X214149000Y-116416184D01*
X214181703Y-116251772D01*
X214245853Y-116096900D01*
X214338985Y-115957519D01*
X214457519Y-115838985D01*
X214596900Y-115745853D01*
X214751772Y-115681703D01*
X214916184Y-115649000D01*
X215083816Y-115649000D01*
X215248228Y-115681703D01*
X215248228Y-115681703D01*
G37*
G36*
X220248228Y-115681703D02*
X220403100Y-115745853D01*
X220542481Y-115838985D01*
X220661015Y-115957519D01*
X220754147Y-116096900D01*
X220818297Y-116251772D01*
X220851000Y-116416184D01*
X220851000Y-116583816D01*
X220818297Y-116748228D01*
X220754147Y-116903100D01*
X220661015Y-117042481D01*
X220542481Y-117161015D01*
X220403100Y-117254147D01*
X220248228Y-117318297D01*
X220083816Y-117351000D01*
X219916184Y-117351000D01*
X219751772Y-117318297D01*
X219596900Y-117254147D01*
X219457519Y-117161015D01*
X219338985Y-117042481D01*
X219245853Y-116903100D01*
X219181703Y-116748228D01*
X219149000Y-116583816D01*
X219149000Y-116416184D01*
X219181703Y-116251772D01*
X219245853Y-116096900D01*
X219338985Y-115957519D01*
X219457519Y-115838985D01*
X219596900Y-115745853D01*
X219751772Y-115681703D01*
X219916184Y-115649000D01*
X220083816Y-115649000D01*
X220248228Y-115681703D01*
X220248228Y-115681703D01*
G37*
G36*
X200976978Y-111713293D02*
X201110627Y-111753835D01*
X201233782Y-111819662D01*
X201341739Y-111908261D01*
X201430338Y-112016218D01*
X201496165Y-112139373D01*
X201536707Y-112273022D01*
X201551000Y-112418140D01*
X201551000Y-114581860D01*
X201536707Y-114726978D01*
X201496165Y-114860627D01*
X201430338Y-114983782D01*
X201341739Y-115091739D01*
X201233782Y-115180338D01*
X201110627Y-115246165D01*
X200976978Y-115286707D01*
X200831860Y-115301000D01*
X199168140Y-115301000D01*
X199023022Y-115286707D01*
X198889373Y-115246165D01*
X198766218Y-115180338D01*
X198658261Y-115091739D01*
X198569662Y-114983782D01*
X198503835Y-114860627D01*
X198463293Y-114726978D01*
X198449000Y-114581860D01*
X198449000Y-112418140D01*
X198463293Y-112273022D01*
X198503835Y-112139373D01*
X198569662Y-112016218D01*
X198658261Y-111908261D01*
X198766218Y-111819662D01*
X198889373Y-111753835D01*
X199023022Y-111713293D01*
X199168140Y-111699000D01*
X200831860Y-111699000D01*
X200976978Y-111713293D01*
X200976978Y-111713293D01*
G37*
G36*
X204201425Y-111699000D02*
X207801000Y-111699000D01*
X207801000Y-115301000D01*
X204199000Y-115301000D01*
X204199000Y-111698761D01*
X204201425Y-111699000D01*
X204201425Y-111699000D01*
G37*
G36*
X203818037Y-108182250D02*
X203818039Y-108182251D01*
X203818040Y-108182251D01*
X204141251Y-108316129D01*
X204141252Y-108316130D01*
X204432137Y-108510493D01*
X204679507Y-108757863D01*
X204679509Y-108757866D01*
X204873871Y-109048749D01*
X205007749Y-109371960D01*
X205076000Y-109715079D01*
X205076000Y-110064921D01*
X205007749Y-110408040D01*
X204873871Y-110731251D01*
X204873870Y-110731252D01*
X204679507Y-111022137D01*
X204432137Y-111269507D01*
X204432134Y-111269509D01*
X204141251Y-111463871D01*
X204141250Y-111463872D01*
X204131979Y-111470066D01*
X204113037Y-111485612D01*
X204097654Y-111504356D01*
X204074000Y-111502026D01*
X204049614Y-111504428D01*
X204026168Y-111511540D01*
X203818040Y-111597749D01*
X203818039Y-111597749D01*
X203818037Y-111597750D01*
X203474922Y-111666000D01*
X203125078Y-111666000D01*
X202781963Y-111597750D01*
X202781961Y-111597749D01*
X202781960Y-111597749D01*
X202458749Y-111463871D01*
X202167866Y-111269509D01*
X202167863Y-111269507D01*
X201920493Y-111022137D01*
X201726130Y-110731252D01*
X201726129Y-110731251D01*
X201592251Y-110408040D01*
X201524000Y-110064921D01*
X201524000Y-109715079D01*
X201592251Y-109371960D01*
X201726129Y-109048749D01*
X201920491Y-108757866D01*
X201920493Y-108757863D01*
X202167863Y-108510493D01*
X202458748Y-108316130D01*
X202458749Y-108316129D01*
X202781960Y-108182251D01*
X202781961Y-108182251D01*
X202781963Y-108182250D01*
X203125078Y-108114000D01*
X203474922Y-108114000D01*
X203818037Y-108182250D01*
X203818037Y-108182250D01*
G37*
G36*
X234248228Y-109681703D02*
X234403100Y-109745853D01*
X234542481Y-109838985D01*
X234661015Y-109957519D01*
X234754147Y-110096900D01*
X234818297Y-110251772D01*
X234851000Y-110416184D01*
X234851000Y-110583816D01*
X234818297Y-110748228D01*
X234754147Y-110903100D01*
X234661015Y-111042481D01*
X234542481Y-111161015D01*
X234403100Y-111254147D01*
X234248228Y-111318297D01*
X234083816Y-111351000D01*
X233916184Y-111351000D01*
X233751772Y-111318297D01*
X233596900Y-111254147D01*
X233457519Y-111161015D01*
X233338985Y-111042481D01*
X233245853Y-110903100D01*
X233181703Y-110748228D01*
X233149000Y-110583816D01*
X233149000Y-110416184D01*
X233181703Y-110251772D01*
X233245853Y-110096900D01*
X233338985Y-109957519D01*
X233457519Y-109838985D01*
X233596900Y-109745853D01*
X233751772Y-109681703D01*
X233916184Y-109649000D01*
X234083816Y-109649000D01*
X234248228Y-109681703D01*
X234248228Y-109681703D01*
G37*
G36*
X222248228Y-109681703D02*
X222403100Y-109745853D01*
X222542481Y-109838985D01*
X222661015Y-109957519D01*
X222754147Y-110096900D01*
X222818297Y-110251772D01*
X222851000Y-110416184D01*
X222851000Y-110583816D01*
X222818297Y-110748228D01*
X222754147Y-110903100D01*
X222661015Y-111042481D01*
X222542481Y-111161015D01*
X222403100Y-111254147D01*
X222248228Y-111318297D01*
X222083816Y-111351000D01*
X221916184Y-111351000D01*
X221751772Y-111318297D01*
X221596900Y-111254147D01*
X221457519Y-111161015D01*
X221338985Y-111042481D01*
X221245853Y-110903100D01*
X221181703Y-110748228D01*
X221149000Y-110583816D01*
X221149000Y-110416184D01*
X221181703Y-110251772D01*
X221245853Y-110096900D01*
X221338985Y-109957519D01*
X221457519Y-109838985D01*
X221596900Y-109745853D01*
X221751772Y-109681703D01*
X221916184Y-109649000D01*
X222083816Y-109649000D01*
X222248228Y-109681703D01*
X222248228Y-109681703D01*
G37*
G36*
X220248228Y-109681703D02*
X220403100Y-109745853D01*
X220542481Y-109838985D01*
X220661015Y-109957519D01*
X220754147Y-110096900D01*
X220818297Y-110251772D01*
X220851000Y-110416184D01*
X220851000Y-110583816D01*
X220818297Y-110748228D01*
X220754147Y-110903100D01*
X220661015Y-111042481D01*
X220542481Y-111161015D01*
X220403100Y-111254147D01*
X220248228Y-111318297D01*
X220083816Y-111351000D01*
X219916184Y-111351000D01*
X219751772Y-111318297D01*
X219596900Y-111254147D01*
X219457519Y-111161015D01*
X219338985Y-111042481D01*
X219245853Y-110903100D01*
X219181703Y-110748228D01*
X219149000Y-110583816D01*
X219149000Y-110416184D01*
X219181703Y-110251772D01*
X219245853Y-110096900D01*
X219338985Y-109957519D01*
X219457519Y-109838985D01*
X219596900Y-109745853D01*
X219751772Y-109681703D01*
X219916184Y-109649000D01*
X220083816Y-109649000D01*
X220248228Y-109681703D01*
X220248228Y-109681703D01*
G37*
G36*
X227248228Y-109681703D02*
X227403100Y-109745853D01*
X227542481Y-109838985D01*
X227661015Y-109957519D01*
X227754147Y-110096900D01*
X227818297Y-110251772D01*
X227851000Y-110416184D01*
X227851000Y-110583816D01*
X227818297Y-110748228D01*
X227754147Y-110903100D01*
X227661015Y-111042481D01*
X227542481Y-111161015D01*
X227403100Y-111254147D01*
X227248228Y-111318297D01*
X227083816Y-111351000D01*
X226916184Y-111351000D01*
X226751772Y-111318297D01*
X226596900Y-111254147D01*
X226457519Y-111161015D01*
X226338985Y-111042481D01*
X226245853Y-110903100D01*
X226181703Y-110748228D01*
X226149000Y-110583816D01*
X226149000Y-110416184D01*
X226181703Y-110251772D01*
X226245853Y-110096900D01*
X226338985Y-109957519D01*
X226457519Y-109838985D01*
X226596900Y-109745853D01*
X226751772Y-109681703D01*
X226916184Y-109649000D01*
X227083816Y-109649000D01*
X227248228Y-109681703D01*
X227248228Y-109681703D01*
G37*
G36*
X215248228Y-109681703D02*
X215403100Y-109745853D01*
X215542481Y-109838985D01*
X215661015Y-109957519D01*
X215754147Y-110096900D01*
X215818297Y-110251772D01*
X215851000Y-110416184D01*
X215851000Y-110583816D01*
X215818297Y-110748228D01*
X215754147Y-110903100D01*
X215661015Y-111042481D01*
X215542481Y-111161015D01*
X215403100Y-111254147D01*
X215248228Y-111318297D01*
X215083816Y-111351000D01*
X214916184Y-111351000D01*
X214751772Y-111318297D01*
X214596900Y-111254147D01*
X214457519Y-111161015D01*
X214338985Y-111042481D01*
X214245853Y-110903100D01*
X214181703Y-110748228D01*
X214149000Y-110583816D01*
X214149000Y-110416184D01*
X214181703Y-110251772D01*
X214245853Y-110096900D01*
X214338985Y-109957519D01*
X214457519Y-109838985D01*
X214596900Y-109745853D01*
X214751772Y-109681703D01*
X214916184Y-109649000D01*
X215083816Y-109649000D01*
X215248228Y-109681703D01*
X215248228Y-109681703D01*
G37*
G36*
X213248228Y-109681703D02*
X213403100Y-109745853D01*
X213542481Y-109838985D01*
X213661015Y-109957519D01*
X213754147Y-110096900D01*
X213818297Y-110251772D01*
X213851000Y-110416184D01*
X213851000Y-110583816D01*
X213818297Y-110748228D01*
X213754147Y-110903100D01*
X213661015Y-111042481D01*
X213542481Y-111161015D01*
X213403100Y-111254147D01*
X213248228Y-111318297D01*
X213083816Y-111351000D01*
X212916184Y-111351000D01*
X212751772Y-111318297D01*
X212596900Y-111254147D01*
X212457519Y-111161015D01*
X212338985Y-111042481D01*
X212245853Y-110903100D01*
X212181703Y-110748228D01*
X212149000Y-110583816D01*
X212149000Y-110416184D01*
X212181703Y-110251772D01*
X212245853Y-110096900D01*
X212338985Y-109957519D01*
X212457519Y-109838985D01*
X212596900Y-109745853D01*
X212751772Y-109681703D01*
X212916184Y-109649000D01*
X213083816Y-109649000D01*
X213248228Y-109681703D01*
X213248228Y-109681703D01*
G37*
G36*
X229248228Y-109681703D02*
X229403100Y-109745853D01*
X229542481Y-109838985D01*
X229661015Y-109957519D01*
X229754147Y-110096900D01*
X229818297Y-110251772D01*
X229851000Y-110416184D01*
X229851000Y-110583816D01*
X229818297Y-110748228D01*
X229754147Y-110903100D01*
X229661015Y-111042481D01*
X229542481Y-111161015D01*
X229403100Y-111254147D01*
X229248228Y-111318297D01*
X229083816Y-111351000D01*
X228916184Y-111351000D01*
X228751772Y-111318297D01*
X228596900Y-111254147D01*
X228457519Y-111161015D01*
X228338985Y-111042481D01*
X228245853Y-110903100D01*
X228181703Y-110748228D01*
X228149000Y-110583816D01*
X228149000Y-110416184D01*
X228181703Y-110251772D01*
X228245853Y-110096900D01*
X228338985Y-109957519D01*
X228457519Y-109838985D01*
X228596900Y-109745853D01*
X228751772Y-109681703D01*
X228916184Y-109649000D01*
X229083816Y-109649000D01*
X229248228Y-109681703D01*
X229248228Y-109681703D01*
G37*
G36*
X236248228Y-109681703D02*
X236403100Y-109745853D01*
X236542481Y-109838985D01*
X236661015Y-109957519D01*
X236754147Y-110096900D01*
X236818297Y-110251772D01*
X236851000Y-110416184D01*
X236851000Y-110583816D01*
X236818297Y-110748228D01*
X236754147Y-110903100D01*
X236661015Y-111042481D01*
X236542481Y-111161015D01*
X236403100Y-111254147D01*
X236248228Y-111318297D01*
X236083816Y-111351000D01*
X235916184Y-111351000D01*
X235751772Y-111318297D01*
X235596900Y-111254147D01*
X235457519Y-111161015D01*
X235338985Y-111042481D01*
X235245853Y-110903100D01*
X235181703Y-110748228D01*
X235149000Y-110583816D01*
X235149000Y-110416184D01*
X235181703Y-110251772D01*
X235245853Y-110096900D01*
X235338985Y-109957519D01*
X235457519Y-109838985D01*
X235596900Y-109745853D01*
X235751772Y-109681703D01*
X235916184Y-109649000D01*
X236083816Y-109649000D01*
X236248228Y-109681703D01*
X236248228Y-109681703D01*
G37*
G36*
X197375256Y-103391298D02*
X197481579Y-103412447D01*
X197782042Y-103536903D01*
X198048852Y-103715180D01*
X198052454Y-103717587D01*
X198282413Y-103947546D01*
X198463098Y-104217960D01*
X198587553Y-104518422D01*
X198651000Y-104837389D01*
X198651000Y-105162611D01*
X198587553Y-105481578D01*
X198463098Y-105782040D01*
X198282413Y-106052454D01*
X198052454Y-106282413D01*
X198052451Y-106282415D01*
X197782042Y-106463097D01*
X197481579Y-106587553D01*
X197375256Y-106608702D01*
X197162611Y-106651000D01*
X196837389Y-106651000D01*
X196624744Y-106608702D01*
X196518421Y-106587553D01*
X196217958Y-106463097D01*
X195947549Y-106282415D01*
X195947546Y-106282413D01*
X195717587Y-106052454D01*
X195536902Y-105782040D01*
X195412447Y-105481578D01*
X195349000Y-105162611D01*
X195349000Y-104837389D01*
X195412447Y-104518422D01*
X195536902Y-104217960D01*
X195717587Y-103947546D01*
X195947546Y-103717587D01*
X195951148Y-103715180D01*
X196217958Y-103536903D01*
X196518421Y-103412447D01*
X196624744Y-103391298D01*
X196837389Y-103349000D01*
X197162611Y-103349000D01*
X197375256Y-103391298D01*
X197375256Y-103391298D01*
G37*
G36*
X254522004Y-97830544D02*
X254609059Y-97847860D01*
X254745732Y-97904472D01*
X254745733Y-97904473D01*
X254868738Y-97986662D01*
X254973338Y-98091262D01*
X254973340Y-98091265D01*
X255055528Y-98214268D01*
X255112140Y-98350941D01*
X255141000Y-98496033D01*
X255141000Y-98643967D01*
X255112140Y-98789059D01*
X255055528Y-98925732D01*
X255055527Y-98925733D01*
X254973338Y-99048738D01*
X254868738Y-99153338D01*
X254868735Y-99153340D01*
X254745732Y-99235528D01*
X254609059Y-99292140D01*
X254522004Y-99309456D01*
X254463969Y-99321000D01*
X254316031Y-99321000D01*
X254257996Y-99309456D01*
X254170941Y-99292140D01*
X254034268Y-99235528D01*
X253911265Y-99153340D01*
X253911262Y-99153338D01*
X253806662Y-99048738D01*
X253724473Y-98925733D01*
X253724472Y-98925732D01*
X253667860Y-98789059D01*
X253639000Y-98643967D01*
X253639000Y-98496033D01*
X253667860Y-98350941D01*
X253724472Y-98214268D01*
X253806660Y-98091265D01*
X253806662Y-98091262D01*
X253911262Y-97986662D01*
X254034267Y-97904473D01*
X254034268Y-97904472D01*
X254170941Y-97847860D01*
X254257996Y-97830544D01*
X254316031Y-97819000D01*
X254463969Y-97819000D01*
X254522004Y-97830544D01*
X254522004Y-97830544D01*
G37*
M02*
