G04 #@! TF.GenerationSoftware,KiCad,Pcbnew,5.0.2-bee76a0~70~ubuntu18.04.1*
G04 #@! TF.CreationDate,2019-04-11T12:15:27+02:00*
G04 #@! TF.ProjectId,Plant_monitoring_device,506c616e-745f-46d6-9f6e-69746f72696e,rev?*
G04 #@! TF.SameCoordinates,Original*
G04 #@! TF.FileFunction,Legend,Bot*
G04 #@! TF.FilePolarity,Positive*
%FSLAX46Y46*%
G04 Gerber Fmt 4.6, Leading zero omitted, Abs format (unit mm)*
G04 Created by KiCad (PCBNEW 5.0.2-bee76a0~70~ubuntu18.04.1) date Čt 11. dubna 2019, 12:15:27 CEST*
%MOMM*%
%LPD*%
G01*
G04 APERTURE LIST*
%ADD10C,0.150000*%
%ADD11C,0.120000*%
G04 APERTURE END LIST*
D10*
X200071428Y-150607142D02*
X198928571Y-150607142D01*
X211428571Y-150607142D02*
X212571428Y-150607142D01*
X212000000Y-151178571D02*
X212000000Y-150035714D01*
D11*
G04 #@! TO.C,BAT1*
X194220000Y-101970000D02*
X195490000Y-101970000D01*
X194220000Y-99430000D02*
X194220000Y-101970000D01*
X217080000Y-99430000D02*
X194220000Y-99430000D01*
X217080000Y-101970000D02*
X215810000Y-101970000D01*
X217080000Y-99430000D02*
X217080000Y-101970000D01*
X195490000Y-147230000D02*
X195490000Y-134530000D01*
X194220000Y-147230000D02*
X195490000Y-147230000D01*
X194220000Y-149770000D02*
X194220000Y-147230000D01*
X217080000Y-149770000D02*
X194220000Y-149770000D01*
X217080000Y-147230000D02*
X217080000Y-149770000D01*
X215810000Y-147230000D02*
X217080000Y-147230000D01*
X215810000Y-147230000D02*
X215810000Y-134530000D01*
X195490000Y-101970000D02*
X195490000Y-114670000D01*
X217080000Y-134530000D02*
X215810000Y-134530000D01*
X217080000Y-114670000D02*
X217080000Y-134530000D01*
X215810000Y-114670000D02*
X217080000Y-114670000D01*
X215810000Y-101970000D02*
X215810000Y-114670000D01*
X194220000Y-114670000D02*
X195490000Y-114670000D01*
X194220000Y-134530000D02*
X194220000Y-114670000D01*
X195490000Y-134530000D02*
X194220000Y-134530000D01*
X218055000Y-98000000D02*
X218055000Y-151200000D01*
X218050000Y-151200000D02*
X193250000Y-151200000D01*
X193245000Y-151200000D02*
X193245000Y-98000000D01*
X193250000Y-98000000D02*
X218050000Y-98000000D01*
X218950000Y-147650000D02*
X218983333Y-147750000D01*
X219016666Y-147783333D01*
X219083333Y-147816666D01*
X219183333Y-147816666D01*
X219250000Y-147783333D01*
X219283333Y-147750000D01*
X219316666Y-147683333D01*
X219316666Y-147416666D01*
X218616666Y-147416666D01*
X218616666Y-147650000D01*
X218650000Y-147716666D01*
X218683333Y-147750000D01*
X218750000Y-147783333D01*
X218816666Y-147783333D01*
X218883333Y-147750000D01*
X218916666Y-147716666D01*
X218950000Y-147650000D01*
X218950000Y-147416666D01*
X219116666Y-148083333D02*
X219116666Y-148416666D01*
X219316666Y-148016666D02*
X218616666Y-148250000D01*
X219316666Y-148483333D01*
X218616666Y-148616666D02*
X218616666Y-149016666D01*
X219316666Y-148816666D02*
X218616666Y-148816666D01*
X219316666Y-149616666D02*
X219316666Y-149216666D01*
X219316666Y-149416666D02*
X218616666Y-149416666D01*
X218716666Y-149350000D01*
X218783333Y-149283333D01*
X218816666Y-149216666D01*
D10*
X199407142Y-151738571D02*
X199407142Y-152881428D01*
X212107142Y-151738571D02*
X212107142Y-152881428D01*
X212678571Y-152310000D02*
X211535714Y-152310000D01*
G04 #@! TD*
M02*
