G04 #@! TF.GenerationSoftware,KiCad,Pcbnew,5.0.2-bee76a0~70~ubuntu18.04.1*
G04 #@! TF.CreationDate,2019-04-10T23:22:57+02:00*
G04 #@! TF.ProjectId,Plant_monitoring_device,506c616e-745f-46d6-9f6e-69746f72696e,rev?*
G04 #@! TF.SameCoordinates,Original*
G04 #@! TF.FileFunction,Paste,Top*
G04 #@! TF.FilePolarity,Positive*
%FSLAX46Y46*%
G04 Gerber Fmt 4.6, Leading zero omitted, Abs format (unit mm)*
G04 Created by KiCad (PCBNEW 5.0.2-bee76a0~70~ubuntu18.04.1) date St 10. dubna 2019, 23:22:57 CEST*
%MOMM*%
%LPD*%
G01*
G04 APERTURE LIST*
%ADD10R,0.800000X0.900000*%
%ADD11R,0.950000X0.875000*%
%ADD12C,0.100000*%
%ADD13C,0.875000*%
%ADD14R,3.200000X1.850000*%
%ADD15R,1.300000X0.550000*%
%ADD16R,1.600000X0.800000*%
%ADD17C,1.000000*%
%ADD18C,0.500000*%
%ADD19R,1.400000X1.150000*%
%ADD20R,0.875000X0.950000*%
%ADD21R,0.600000X0.250000*%
%ADD22R,1.000000X1.700000*%
G04 APERTURE END LIST*
D10*
G04 #@! TO.C,Q1*
X230000000Y-139960000D03*
X229050000Y-141960000D03*
X230950000Y-141960000D03*
G04 #@! TD*
D11*
G04 #@! TO.C,R2*
X227220000Y-137787500D03*
X227220000Y-136212500D03*
G04 #@! TD*
G04 #@! TO.C,R1*
X227220000Y-140172500D03*
X227220000Y-141747500D03*
G04 #@! TD*
D10*
G04 #@! TO.C,Q2*
X230950000Y-138000000D03*
X229050000Y-138000000D03*
X230000000Y-136000000D03*
G04 #@! TD*
D12*
G04 #@! TO.C,C32*
G36*
X207202691Y-119526053D02*
X207223926Y-119529203D01*
X207244750Y-119534419D01*
X207264962Y-119541651D01*
X207284368Y-119550830D01*
X207302781Y-119561866D01*
X207320024Y-119574654D01*
X207335930Y-119589070D01*
X207350346Y-119604976D01*
X207363134Y-119622219D01*
X207374170Y-119640632D01*
X207383349Y-119660038D01*
X207390581Y-119680250D01*
X207395797Y-119701074D01*
X207398947Y-119722309D01*
X207400000Y-119743750D01*
X207400000Y-120256250D01*
X207398947Y-120277691D01*
X207395797Y-120298926D01*
X207390581Y-120319750D01*
X207383349Y-120339962D01*
X207374170Y-120359368D01*
X207363134Y-120377781D01*
X207350346Y-120395024D01*
X207335930Y-120410930D01*
X207320024Y-120425346D01*
X207302781Y-120438134D01*
X207284368Y-120449170D01*
X207264962Y-120458349D01*
X207244750Y-120465581D01*
X207223926Y-120470797D01*
X207202691Y-120473947D01*
X207181250Y-120475000D01*
X206743750Y-120475000D01*
X206722309Y-120473947D01*
X206701074Y-120470797D01*
X206680250Y-120465581D01*
X206660038Y-120458349D01*
X206640632Y-120449170D01*
X206622219Y-120438134D01*
X206604976Y-120425346D01*
X206589070Y-120410930D01*
X206574654Y-120395024D01*
X206561866Y-120377781D01*
X206550830Y-120359368D01*
X206541651Y-120339962D01*
X206534419Y-120319750D01*
X206529203Y-120298926D01*
X206526053Y-120277691D01*
X206525000Y-120256250D01*
X206525000Y-119743750D01*
X206526053Y-119722309D01*
X206529203Y-119701074D01*
X206534419Y-119680250D01*
X206541651Y-119660038D01*
X206550830Y-119640632D01*
X206561866Y-119622219D01*
X206574654Y-119604976D01*
X206589070Y-119589070D01*
X206604976Y-119574654D01*
X206622219Y-119561866D01*
X206640632Y-119550830D01*
X206660038Y-119541651D01*
X206680250Y-119534419D01*
X206701074Y-119529203D01*
X206722309Y-119526053D01*
X206743750Y-119525000D01*
X207181250Y-119525000D01*
X207202691Y-119526053D01*
X207202691Y-119526053D01*
G37*
D13*
X206962500Y-120000000D03*
D12*
G36*
X208777691Y-119526053D02*
X208798926Y-119529203D01*
X208819750Y-119534419D01*
X208839962Y-119541651D01*
X208859368Y-119550830D01*
X208877781Y-119561866D01*
X208895024Y-119574654D01*
X208910930Y-119589070D01*
X208925346Y-119604976D01*
X208938134Y-119622219D01*
X208949170Y-119640632D01*
X208958349Y-119660038D01*
X208965581Y-119680250D01*
X208970797Y-119701074D01*
X208973947Y-119722309D01*
X208975000Y-119743750D01*
X208975000Y-120256250D01*
X208973947Y-120277691D01*
X208970797Y-120298926D01*
X208965581Y-120319750D01*
X208958349Y-120339962D01*
X208949170Y-120359368D01*
X208938134Y-120377781D01*
X208925346Y-120395024D01*
X208910930Y-120410930D01*
X208895024Y-120425346D01*
X208877781Y-120438134D01*
X208859368Y-120449170D01*
X208839962Y-120458349D01*
X208819750Y-120465581D01*
X208798926Y-120470797D01*
X208777691Y-120473947D01*
X208756250Y-120475000D01*
X208318750Y-120475000D01*
X208297309Y-120473947D01*
X208276074Y-120470797D01*
X208255250Y-120465581D01*
X208235038Y-120458349D01*
X208215632Y-120449170D01*
X208197219Y-120438134D01*
X208179976Y-120425346D01*
X208164070Y-120410930D01*
X208149654Y-120395024D01*
X208136866Y-120377781D01*
X208125830Y-120359368D01*
X208116651Y-120339962D01*
X208109419Y-120319750D01*
X208104203Y-120298926D01*
X208101053Y-120277691D01*
X208100000Y-120256250D01*
X208100000Y-119743750D01*
X208101053Y-119722309D01*
X208104203Y-119701074D01*
X208109419Y-119680250D01*
X208116651Y-119660038D01*
X208125830Y-119640632D01*
X208136866Y-119622219D01*
X208149654Y-119604976D01*
X208164070Y-119589070D01*
X208179976Y-119574654D01*
X208197219Y-119561866D01*
X208215632Y-119550830D01*
X208235038Y-119541651D01*
X208255250Y-119534419D01*
X208276074Y-119529203D01*
X208297309Y-119526053D01*
X208318750Y-119525000D01*
X208756250Y-119525000D01*
X208777691Y-119526053D01*
X208777691Y-119526053D01*
G37*
D13*
X208537500Y-120000000D03*
G04 #@! TD*
D12*
G04 #@! TO.C,C31*
G36*
X208777691Y-121026053D02*
X208798926Y-121029203D01*
X208819750Y-121034419D01*
X208839962Y-121041651D01*
X208859368Y-121050830D01*
X208877781Y-121061866D01*
X208895024Y-121074654D01*
X208910930Y-121089070D01*
X208925346Y-121104976D01*
X208938134Y-121122219D01*
X208949170Y-121140632D01*
X208958349Y-121160038D01*
X208965581Y-121180250D01*
X208970797Y-121201074D01*
X208973947Y-121222309D01*
X208975000Y-121243750D01*
X208975000Y-121756250D01*
X208973947Y-121777691D01*
X208970797Y-121798926D01*
X208965581Y-121819750D01*
X208958349Y-121839962D01*
X208949170Y-121859368D01*
X208938134Y-121877781D01*
X208925346Y-121895024D01*
X208910930Y-121910930D01*
X208895024Y-121925346D01*
X208877781Y-121938134D01*
X208859368Y-121949170D01*
X208839962Y-121958349D01*
X208819750Y-121965581D01*
X208798926Y-121970797D01*
X208777691Y-121973947D01*
X208756250Y-121975000D01*
X208318750Y-121975000D01*
X208297309Y-121973947D01*
X208276074Y-121970797D01*
X208255250Y-121965581D01*
X208235038Y-121958349D01*
X208215632Y-121949170D01*
X208197219Y-121938134D01*
X208179976Y-121925346D01*
X208164070Y-121910930D01*
X208149654Y-121895024D01*
X208136866Y-121877781D01*
X208125830Y-121859368D01*
X208116651Y-121839962D01*
X208109419Y-121819750D01*
X208104203Y-121798926D01*
X208101053Y-121777691D01*
X208100000Y-121756250D01*
X208100000Y-121243750D01*
X208101053Y-121222309D01*
X208104203Y-121201074D01*
X208109419Y-121180250D01*
X208116651Y-121160038D01*
X208125830Y-121140632D01*
X208136866Y-121122219D01*
X208149654Y-121104976D01*
X208164070Y-121089070D01*
X208179976Y-121074654D01*
X208197219Y-121061866D01*
X208215632Y-121050830D01*
X208235038Y-121041651D01*
X208255250Y-121034419D01*
X208276074Y-121029203D01*
X208297309Y-121026053D01*
X208318750Y-121025000D01*
X208756250Y-121025000D01*
X208777691Y-121026053D01*
X208777691Y-121026053D01*
G37*
D13*
X208537500Y-121500000D03*
D12*
G36*
X207202691Y-121026053D02*
X207223926Y-121029203D01*
X207244750Y-121034419D01*
X207264962Y-121041651D01*
X207284368Y-121050830D01*
X207302781Y-121061866D01*
X207320024Y-121074654D01*
X207335930Y-121089070D01*
X207350346Y-121104976D01*
X207363134Y-121122219D01*
X207374170Y-121140632D01*
X207383349Y-121160038D01*
X207390581Y-121180250D01*
X207395797Y-121201074D01*
X207398947Y-121222309D01*
X207400000Y-121243750D01*
X207400000Y-121756250D01*
X207398947Y-121777691D01*
X207395797Y-121798926D01*
X207390581Y-121819750D01*
X207383349Y-121839962D01*
X207374170Y-121859368D01*
X207363134Y-121877781D01*
X207350346Y-121895024D01*
X207335930Y-121910930D01*
X207320024Y-121925346D01*
X207302781Y-121938134D01*
X207284368Y-121949170D01*
X207264962Y-121958349D01*
X207244750Y-121965581D01*
X207223926Y-121970797D01*
X207202691Y-121973947D01*
X207181250Y-121975000D01*
X206743750Y-121975000D01*
X206722309Y-121973947D01*
X206701074Y-121970797D01*
X206680250Y-121965581D01*
X206660038Y-121958349D01*
X206640632Y-121949170D01*
X206622219Y-121938134D01*
X206604976Y-121925346D01*
X206589070Y-121910930D01*
X206574654Y-121895024D01*
X206561866Y-121877781D01*
X206550830Y-121859368D01*
X206541651Y-121839962D01*
X206534419Y-121819750D01*
X206529203Y-121798926D01*
X206526053Y-121777691D01*
X206525000Y-121756250D01*
X206525000Y-121243750D01*
X206526053Y-121222309D01*
X206529203Y-121201074D01*
X206534419Y-121180250D01*
X206541651Y-121160038D01*
X206550830Y-121140632D01*
X206561866Y-121122219D01*
X206574654Y-121104976D01*
X206589070Y-121089070D01*
X206604976Y-121074654D01*
X206622219Y-121061866D01*
X206640632Y-121050830D01*
X206660038Y-121041651D01*
X206680250Y-121034419D01*
X206701074Y-121029203D01*
X206722309Y-121026053D01*
X206743750Y-121025000D01*
X207181250Y-121025000D01*
X207202691Y-121026053D01*
X207202691Y-121026053D01*
G37*
D13*
X206962500Y-121500000D03*
G04 #@! TD*
D12*
G04 #@! TO.C,C34*
G36*
X204027691Y-129776053D02*
X204048926Y-129779203D01*
X204069750Y-129784419D01*
X204089962Y-129791651D01*
X204109368Y-129800830D01*
X204127781Y-129811866D01*
X204145024Y-129824654D01*
X204160930Y-129839070D01*
X204175346Y-129854976D01*
X204188134Y-129872219D01*
X204199170Y-129890632D01*
X204208349Y-129910038D01*
X204215581Y-129930250D01*
X204220797Y-129951074D01*
X204223947Y-129972309D01*
X204225000Y-129993750D01*
X204225000Y-130506250D01*
X204223947Y-130527691D01*
X204220797Y-130548926D01*
X204215581Y-130569750D01*
X204208349Y-130589962D01*
X204199170Y-130609368D01*
X204188134Y-130627781D01*
X204175346Y-130645024D01*
X204160930Y-130660930D01*
X204145024Y-130675346D01*
X204127781Y-130688134D01*
X204109368Y-130699170D01*
X204089962Y-130708349D01*
X204069750Y-130715581D01*
X204048926Y-130720797D01*
X204027691Y-130723947D01*
X204006250Y-130725000D01*
X203568750Y-130725000D01*
X203547309Y-130723947D01*
X203526074Y-130720797D01*
X203505250Y-130715581D01*
X203485038Y-130708349D01*
X203465632Y-130699170D01*
X203447219Y-130688134D01*
X203429976Y-130675346D01*
X203414070Y-130660930D01*
X203399654Y-130645024D01*
X203386866Y-130627781D01*
X203375830Y-130609368D01*
X203366651Y-130589962D01*
X203359419Y-130569750D01*
X203354203Y-130548926D01*
X203351053Y-130527691D01*
X203350000Y-130506250D01*
X203350000Y-129993750D01*
X203351053Y-129972309D01*
X203354203Y-129951074D01*
X203359419Y-129930250D01*
X203366651Y-129910038D01*
X203375830Y-129890632D01*
X203386866Y-129872219D01*
X203399654Y-129854976D01*
X203414070Y-129839070D01*
X203429976Y-129824654D01*
X203447219Y-129811866D01*
X203465632Y-129800830D01*
X203485038Y-129791651D01*
X203505250Y-129784419D01*
X203526074Y-129779203D01*
X203547309Y-129776053D01*
X203568750Y-129775000D01*
X204006250Y-129775000D01*
X204027691Y-129776053D01*
X204027691Y-129776053D01*
G37*
D13*
X203787500Y-130250000D03*
D12*
G36*
X202452691Y-129776053D02*
X202473926Y-129779203D01*
X202494750Y-129784419D01*
X202514962Y-129791651D01*
X202534368Y-129800830D01*
X202552781Y-129811866D01*
X202570024Y-129824654D01*
X202585930Y-129839070D01*
X202600346Y-129854976D01*
X202613134Y-129872219D01*
X202624170Y-129890632D01*
X202633349Y-129910038D01*
X202640581Y-129930250D01*
X202645797Y-129951074D01*
X202648947Y-129972309D01*
X202650000Y-129993750D01*
X202650000Y-130506250D01*
X202648947Y-130527691D01*
X202645797Y-130548926D01*
X202640581Y-130569750D01*
X202633349Y-130589962D01*
X202624170Y-130609368D01*
X202613134Y-130627781D01*
X202600346Y-130645024D01*
X202585930Y-130660930D01*
X202570024Y-130675346D01*
X202552781Y-130688134D01*
X202534368Y-130699170D01*
X202514962Y-130708349D01*
X202494750Y-130715581D01*
X202473926Y-130720797D01*
X202452691Y-130723947D01*
X202431250Y-130725000D01*
X201993750Y-130725000D01*
X201972309Y-130723947D01*
X201951074Y-130720797D01*
X201930250Y-130715581D01*
X201910038Y-130708349D01*
X201890632Y-130699170D01*
X201872219Y-130688134D01*
X201854976Y-130675346D01*
X201839070Y-130660930D01*
X201824654Y-130645024D01*
X201811866Y-130627781D01*
X201800830Y-130609368D01*
X201791651Y-130589962D01*
X201784419Y-130569750D01*
X201779203Y-130548926D01*
X201776053Y-130527691D01*
X201775000Y-130506250D01*
X201775000Y-129993750D01*
X201776053Y-129972309D01*
X201779203Y-129951074D01*
X201784419Y-129930250D01*
X201791651Y-129910038D01*
X201800830Y-129890632D01*
X201811866Y-129872219D01*
X201824654Y-129854976D01*
X201839070Y-129839070D01*
X201854976Y-129824654D01*
X201872219Y-129811866D01*
X201890632Y-129800830D01*
X201910038Y-129791651D01*
X201930250Y-129784419D01*
X201951074Y-129779203D01*
X201972309Y-129776053D01*
X201993750Y-129775000D01*
X202431250Y-129775000D01*
X202452691Y-129776053D01*
X202452691Y-129776053D01*
G37*
D13*
X202212500Y-130250000D03*
G04 #@! TD*
D12*
G04 #@! TO.C,C33*
G36*
X202452691Y-128276053D02*
X202473926Y-128279203D01*
X202494750Y-128284419D01*
X202514962Y-128291651D01*
X202534368Y-128300830D01*
X202552781Y-128311866D01*
X202570024Y-128324654D01*
X202585930Y-128339070D01*
X202600346Y-128354976D01*
X202613134Y-128372219D01*
X202624170Y-128390632D01*
X202633349Y-128410038D01*
X202640581Y-128430250D01*
X202645797Y-128451074D01*
X202648947Y-128472309D01*
X202650000Y-128493750D01*
X202650000Y-129006250D01*
X202648947Y-129027691D01*
X202645797Y-129048926D01*
X202640581Y-129069750D01*
X202633349Y-129089962D01*
X202624170Y-129109368D01*
X202613134Y-129127781D01*
X202600346Y-129145024D01*
X202585930Y-129160930D01*
X202570024Y-129175346D01*
X202552781Y-129188134D01*
X202534368Y-129199170D01*
X202514962Y-129208349D01*
X202494750Y-129215581D01*
X202473926Y-129220797D01*
X202452691Y-129223947D01*
X202431250Y-129225000D01*
X201993750Y-129225000D01*
X201972309Y-129223947D01*
X201951074Y-129220797D01*
X201930250Y-129215581D01*
X201910038Y-129208349D01*
X201890632Y-129199170D01*
X201872219Y-129188134D01*
X201854976Y-129175346D01*
X201839070Y-129160930D01*
X201824654Y-129145024D01*
X201811866Y-129127781D01*
X201800830Y-129109368D01*
X201791651Y-129089962D01*
X201784419Y-129069750D01*
X201779203Y-129048926D01*
X201776053Y-129027691D01*
X201775000Y-129006250D01*
X201775000Y-128493750D01*
X201776053Y-128472309D01*
X201779203Y-128451074D01*
X201784419Y-128430250D01*
X201791651Y-128410038D01*
X201800830Y-128390632D01*
X201811866Y-128372219D01*
X201824654Y-128354976D01*
X201839070Y-128339070D01*
X201854976Y-128324654D01*
X201872219Y-128311866D01*
X201890632Y-128300830D01*
X201910038Y-128291651D01*
X201930250Y-128284419D01*
X201951074Y-128279203D01*
X201972309Y-128276053D01*
X201993750Y-128275000D01*
X202431250Y-128275000D01*
X202452691Y-128276053D01*
X202452691Y-128276053D01*
G37*
D13*
X202212500Y-128750000D03*
D12*
G36*
X204027691Y-128276053D02*
X204048926Y-128279203D01*
X204069750Y-128284419D01*
X204089962Y-128291651D01*
X204109368Y-128300830D01*
X204127781Y-128311866D01*
X204145024Y-128324654D01*
X204160930Y-128339070D01*
X204175346Y-128354976D01*
X204188134Y-128372219D01*
X204199170Y-128390632D01*
X204208349Y-128410038D01*
X204215581Y-128430250D01*
X204220797Y-128451074D01*
X204223947Y-128472309D01*
X204225000Y-128493750D01*
X204225000Y-129006250D01*
X204223947Y-129027691D01*
X204220797Y-129048926D01*
X204215581Y-129069750D01*
X204208349Y-129089962D01*
X204199170Y-129109368D01*
X204188134Y-129127781D01*
X204175346Y-129145024D01*
X204160930Y-129160930D01*
X204145024Y-129175346D01*
X204127781Y-129188134D01*
X204109368Y-129199170D01*
X204089962Y-129208349D01*
X204069750Y-129215581D01*
X204048926Y-129220797D01*
X204027691Y-129223947D01*
X204006250Y-129225000D01*
X203568750Y-129225000D01*
X203547309Y-129223947D01*
X203526074Y-129220797D01*
X203505250Y-129215581D01*
X203485038Y-129208349D01*
X203465632Y-129199170D01*
X203447219Y-129188134D01*
X203429976Y-129175346D01*
X203414070Y-129160930D01*
X203399654Y-129145024D01*
X203386866Y-129127781D01*
X203375830Y-129109368D01*
X203366651Y-129089962D01*
X203359419Y-129069750D01*
X203354203Y-129048926D01*
X203351053Y-129027691D01*
X203350000Y-129006250D01*
X203350000Y-128493750D01*
X203351053Y-128472309D01*
X203354203Y-128451074D01*
X203359419Y-128430250D01*
X203366651Y-128410038D01*
X203375830Y-128390632D01*
X203386866Y-128372219D01*
X203399654Y-128354976D01*
X203414070Y-128339070D01*
X203429976Y-128324654D01*
X203447219Y-128311866D01*
X203465632Y-128300830D01*
X203485038Y-128291651D01*
X203505250Y-128284419D01*
X203526074Y-128279203D01*
X203547309Y-128276053D01*
X203568750Y-128275000D01*
X204006250Y-128275000D01*
X204027691Y-128276053D01*
X204027691Y-128276053D01*
G37*
D13*
X203787500Y-128750000D03*
G04 #@! TD*
D14*
G04 #@! TO.C,U3*
X201250000Y-124250000D03*
D15*
X203750000Y-122750000D03*
D16*
X203650000Y-124250000D03*
D15*
X203750000Y-125750000D03*
G04 #@! TD*
D11*
G04 #@! TO.C,R41*
X239500000Y-139567500D03*
X239500000Y-137992500D03*
G04 #@! TD*
G04 #@! TO.C,R42*
X239500000Y-136497500D03*
X239500000Y-134922500D03*
G04 #@! TD*
D12*
G04 #@! TO.C,U2*
G36*
X262584504Y-126061204D02*
X262608773Y-126064804D01*
X262632571Y-126070765D01*
X262655671Y-126079030D01*
X262677849Y-126089520D01*
X262698893Y-126102133D01*
X262718598Y-126116747D01*
X262736777Y-126133223D01*
X262753253Y-126151402D01*
X262767867Y-126171107D01*
X262780480Y-126192151D01*
X262790970Y-126214329D01*
X262799235Y-126237429D01*
X262805196Y-126261227D01*
X262808796Y-126285496D01*
X262810000Y-126310000D01*
X262810000Y-126810000D01*
X262808796Y-126834504D01*
X262805196Y-126858773D01*
X262799235Y-126882571D01*
X262790970Y-126905671D01*
X262780480Y-126927849D01*
X262767867Y-126948893D01*
X262753253Y-126968598D01*
X262736777Y-126986777D01*
X262718598Y-127003253D01*
X262698893Y-127017867D01*
X262677849Y-127030480D01*
X262655671Y-127040970D01*
X262632571Y-127049235D01*
X262608773Y-127055196D01*
X262584504Y-127058796D01*
X262560000Y-127060000D01*
X261460000Y-127060000D01*
X261435496Y-127058796D01*
X261411227Y-127055196D01*
X261387429Y-127049235D01*
X261364329Y-127040970D01*
X261342151Y-127030480D01*
X261321107Y-127017867D01*
X261301402Y-127003253D01*
X261283223Y-126986777D01*
X261266747Y-126968598D01*
X261252133Y-126948893D01*
X261239520Y-126927849D01*
X261229030Y-126905671D01*
X261220765Y-126882571D01*
X261214804Y-126858773D01*
X261211204Y-126834504D01*
X261210000Y-126810000D01*
X261210000Y-126310000D01*
X261211204Y-126285496D01*
X261214804Y-126261227D01*
X261220765Y-126237429D01*
X261229030Y-126214329D01*
X261239520Y-126192151D01*
X261252133Y-126171107D01*
X261266747Y-126151402D01*
X261283223Y-126133223D01*
X261301402Y-126116747D01*
X261321107Y-126102133D01*
X261342151Y-126089520D01*
X261364329Y-126079030D01*
X261387429Y-126070765D01*
X261411227Y-126064804D01*
X261435496Y-126061204D01*
X261460000Y-126060000D01*
X262560000Y-126060000D01*
X262584504Y-126061204D01*
X262584504Y-126061204D01*
G37*
D17*
X262010000Y-126560000D03*
D12*
G36*
X262584504Y-124791204D02*
X262608773Y-124794804D01*
X262632571Y-124800765D01*
X262655671Y-124809030D01*
X262677849Y-124819520D01*
X262698893Y-124832133D01*
X262718598Y-124846747D01*
X262736777Y-124863223D01*
X262753253Y-124881402D01*
X262767867Y-124901107D01*
X262780480Y-124922151D01*
X262790970Y-124944329D01*
X262799235Y-124967429D01*
X262805196Y-124991227D01*
X262808796Y-125015496D01*
X262810000Y-125040000D01*
X262810000Y-125540000D01*
X262808796Y-125564504D01*
X262805196Y-125588773D01*
X262799235Y-125612571D01*
X262790970Y-125635671D01*
X262780480Y-125657849D01*
X262767867Y-125678893D01*
X262753253Y-125698598D01*
X262736777Y-125716777D01*
X262718598Y-125733253D01*
X262698893Y-125747867D01*
X262677849Y-125760480D01*
X262655671Y-125770970D01*
X262632571Y-125779235D01*
X262608773Y-125785196D01*
X262584504Y-125788796D01*
X262560000Y-125790000D01*
X261460000Y-125790000D01*
X261435496Y-125788796D01*
X261411227Y-125785196D01*
X261387429Y-125779235D01*
X261364329Y-125770970D01*
X261342151Y-125760480D01*
X261321107Y-125747867D01*
X261301402Y-125733253D01*
X261283223Y-125716777D01*
X261266747Y-125698598D01*
X261252133Y-125678893D01*
X261239520Y-125657849D01*
X261229030Y-125635671D01*
X261220765Y-125612571D01*
X261214804Y-125588773D01*
X261211204Y-125564504D01*
X261210000Y-125540000D01*
X261210000Y-125040000D01*
X261211204Y-125015496D01*
X261214804Y-124991227D01*
X261220765Y-124967429D01*
X261229030Y-124944329D01*
X261239520Y-124922151D01*
X261252133Y-124901107D01*
X261266747Y-124881402D01*
X261283223Y-124863223D01*
X261301402Y-124846747D01*
X261321107Y-124832133D01*
X261342151Y-124819520D01*
X261364329Y-124809030D01*
X261387429Y-124800765D01*
X261411227Y-124794804D01*
X261435496Y-124791204D01*
X261460000Y-124790000D01*
X262560000Y-124790000D01*
X262584504Y-124791204D01*
X262584504Y-124791204D01*
G37*
D17*
X262010000Y-125290000D03*
D12*
G36*
X262584504Y-123521204D02*
X262608773Y-123524804D01*
X262632571Y-123530765D01*
X262655671Y-123539030D01*
X262677849Y-123549520D01*
X262698893Y-123562133D01*
X262718598Y-123576747D01*
X262736777Y-123593223D01*
X262753253Y-123611402D01*
X262767867Y-123631107D01*
X262780480Y-123652151D01*
X262790970Y-123674329D01*
X262799235Y-123697429D01*
X262805196Y-123721227D01*
X262808796Y-123745496D01*
X262810000Y-123770000D01*
X262810000Y-124270000D01*
X262808796Y-124294504D01*
X262805196Y-124318773D01*
X262799235Y-124342571D01*
X262790970Y-124365671D01*
X262780480Y-124387849D01*
X262767867Y-124408893D01*
X262753253Y-124428598D01*
X262736777Y-124446777D01*
X262718598Y-124463253D01*
X262698893Y-124477867D01*
X262677849Y-124490480D01*
X262655671Y-124500970D01*
X262632571Y-124509235D01*
X262608773Y-124515196D01*
X262584504Y-124518796D01*
X262560000Y-124520000D01*
X261460000Y-124520000D01*
X261435496Y-124518796D01*
X261411227Y-124515196D01*
X261387429Y-124509235D01*
X261364329Y-124500970D01*
X261342151Y-124490480D01*
X261321107Y-124477867D01*
X261301402Y-124463253D01*
X261283223Y-124446777D01*
X261266747Y-124428598D01*
X261252133Y-124408893D01*
X261239520Y-124387849D01*
X261229030Y-124365671D01*
X261220765Y-124342571D01*
X261214804Y-124318773D01*
X261211204Y-124294504D01*
X261210000Y-124270000D01*
X261210000Y-123770000D01*
X261211204Y-123745496D01*
X261214804Y-123721227D01*
X261220765Y-123697429D01*
X261229030Y-123674329D01*
X261239520Y-123652151D01*
X261252133Y-123631107D01*
X261266747Y-123611402D01*
X261283223Y-123593223D01*
X261301402Y-123576747D01*
X261321107Y-123562133D01*
X261342151Y-123549520D01*
X261364329Y-123539030D01*
X261387429Y-123530765D01*
X261411227Y-123524804D01*
X261435496Y-123521204D01*
X261460000Y-123520000D01*
X262560000Y-123520000D01*
X262584504Y-123521204D01*
X262584504Y-123521204D01*
G37*
D17*
X262010000Y-124020000D03*
D12*
G36*
X262584504Y-122251204D02*
X262608773Y-122254804D01*
X262632571Y-122260765D01*
X262655671Y-122269030D01*
X262677849Y-122279520D01*
X262698893Y-122292133D01*
X262718598Y-122306747D01*
X262736777Y-122323223D01*
X262753253Y-122341402D01*
X262767867Y-122361107D01*
X262780480Y-122382151D01*
X262790970Y-122404329D01*
X262799235Y-122427429D01*
X262805196Y-122451227D01*
X262808796Y-122475496D01*
X262810000Y-122500000D01*
X262810000Y-123000000D01*
X262808796Y-123024504D01*
X262805196Y-123048773D01*
X262799235Y-123072571D01*
X262790970Y-123095671D01*
X262780480Y-123117849D01*
X262767867Y-123138893D01*
X262753253Y-123158598D01*
X262736777Y-123176777D01*
X262718598Y-123193253D01*
X262698893Y-123207867D01*
X262677849Y-123220480D01*
X262655671Y-123230970D01*
X262632571Y-123239235D01*
X262608773Y-123245196D01*
X262584504Y-123248796D01*
X262560000Y-123250000D01*
X261460000Y-123250000D01*
X261435496Y-123248796D01*
X261411227Y-123245196D01*
X261387429Y-123239235D01*
X261364329Y-123230970D01*
X261342151Y-123220480D01*
X261321107Y-123207867D01*
X261301402Y-123193253D01*
X261283223Y-123176777D01*
X261266747Y-123158598D01*
X261252133Y-123138893D01*
X261239520Y-123117849D01*
X261229030Y-123095671D01*
X261220765Y-123072571D01*
X261214804Y-123048773D01*
X261211204Y-123024504D01*
X261210000Y-123000000D01*
X261210000Y-122500000D01*
X261211204Y-122475496D01*
X261214804Y-122451227D01*
X261220765Y-122427429D01*
X261229030Y-122404329D01*
X261239520Y-122382151D01*
X261252133Y-122361107D01*
X261266747Y-122341402D01*
X261283223Y-122323223D01*
X261301402Y-122306747D01*
X261321107Y-122292133D01*
X261342151Y-122279520D01*
X261364329Y-122269030D01*
X261387429Y-122260765D01*
X261411227Y-122254804D01*
X261435496Y-122251204D01*
X261460000Y-122250000D01*
X262560000Y-122250000D01*
X262584504Y-122251204D01*
X262584504Y-122251204D01*
G37*
D17*
X262010000Y-122750000D03*
D12*
G36*
X262584504Y-120981204D02*
X262608773Y-120984804D01*
X262632571Y-120990765D01*
X262655671Y-120999030D01*
X262677849Y-121009520D01*
X262698893Y-121022133D01*
X262718598Y-121036747D01*
X262736777Y-121053223D01*
X262753253Y-121071402D01*
X262767867Y-121091107D01*
X262780480Y-121112151D01*
X262790970Y-121134329D01*
X262799235Y-121157429D01*
X262805196Y-121181227D01*
X262808796Y-121205496D01*
X262810000Y-121230000D01*
X262810000Y-121730000D01*
X262808796Y-121754504D01*
X262805196Y-121778773D01*
X262799235Y-121802571D01*
X262790970Y-121825671D01*
X262780480Y-121847849D01*
X262767867Y-121868893D01*
X262753253Y-121888598D01*
X262736777Y-121906777D01*
X262718598Y-121923253D01*
X262698893Y-121937867D01*
X262677849Y-121950480D01*
X262655671Y-121960970D01*
X262632571Y-121969235D01*
X262608773Y-121975196D01*
X262584504Y-121978796D01*
X262560000Y-121980000D01*
X261460000Y-121980000D01*
X261435496Y-121978796D01*
X261411227Y-121975196D01*
X261387429Y-121969235D01*
X261364329Y-121960970D01*
X261342151Y-121950480D01*
X261321107Y-121937867D01*
X261301402Y-121923253D01*
X261283223Y-121906777D01*
X261266747Y-121888598D01*
X261252133Y-121868893D01*
X261239520Y-121847849D01*
X261229030Y-121825671D01*
X261220765Y-121802571D01*
X261214804Y-121778773D01*
X261211204Y-121754504D01*
X261210000Y-121730000D01*
X261210000Y-121230000D01*
X261211204Y-121205496D01*
X261214804Y-121181227D01*
X261220765Y-121157429D01*
X261229030Y-121134329D01*
X261239520Y-121112151D01*
X261252133Y-121091107D01*
X261266747Y-121071402D01*
X261283223Y-121053223D01*
X261301402Y-121036747D01*
X261321107Y-121022133D01*
X261342151Y-121009520D01*
X261364329Y-120999030D01*
X261387429Y-120990765D01*
X261411227Y-120984804D01*
X261435496Y-120981204D01*
X261460000Y-120980000D01*
X262560000Y-120980000D01*
X262584504Y-120981204D01*
X262584504Y-120981204D01*
G37*
D17*
X262010000Y-121480000D03*
D12*
G36*
X262584504Y-119711204D02*
X262608773Y-119714804D01*
X262632571Y-119720765D01*
X262655671Y-119729030D01*
X262677849Y-119739520D01*
X262698893Y-119752133D01*
X262718598Y-119766747D01*
X262736777Y-119783223D01*
X262753253Y-119801402D01*
X262767867Y-119821107D01*
X262780480Y-119842151D01*
X262790970Y-119864329D01*
X262799235Y-119887429D01*
X262805196Y-119911227D01*
X262808796Y-119935496D01*
X262810000Y-119960000D01*
X262810000Y-120460000D01*
X262808796Y-120484504D01*
X262805196Y-120508773D01*
X262799235Y-120532571D01*
X262790970Y-120555671D01*
X262780480Y-120577849D01*
X262767867Y-120598893D01*
X262753253Y-120618598D01*
X262736777Y-120636777D01*
X262718598Y-120653253D01*
X262698893Y-120667867D01*
X262677849Y-120680480D01*
X262655671Y-120690970D01*
X262632571Y-120699235D01*
X262608773Y-120705196D01*
X262584504Y-120708796D01*
X262560000Y-120710000D01*
X261460000Y-120710000D01*
X261435496Y-120708796D01*
X261411227Y-120705196D01*
X261387429Y-120699235D01*
X261364329Y-120690970D01*
X261342151Y-120680480D01*
X261321107Y-120667867D01*
X261301402Y-120653253D01*
X261283223Y-120636777D01*
X261266747Y-120618598D01*
X261252133Y-120598893D01*
X261239520Y-120577849D01*
X261229030Y-120555671D01*
X261220765Y-120532571D01*
X261214804Y-120508773D01*
X261211204Y-120484504D01*
X261210000Y-120460000D01*
X261210000Y-119960000D01*
X261211204Y-119935496D01*
X261214804Y-119911227D01*
X261220765Y-119887429D01*
X261229030Y-119864329D01*
X261239520Y-119842151D01*
X261252133Y-119821107D01*
X261266747Y-119801402D01*
X261283223Y-119783223D01*
X261301402Y-119766747D01*
X261321107Y-119752133D01*
X261342151Y-119739520D01*
X261364329Y-119729030D01*
X261387429Y-119720765D01*
X261411227Y-119714804D01*
X261435496Y-119711204D01*
X261460000Y-119710000D01*
X262560000Y-119710000D01*
X262584504Y-119711204D01*
X262584504Y-119711204D01*
G37*
D17*
X262010000Y-120210000D03*
D12*
G36*
X262584504Y-118441204D02*
X262608773Y-118444804D01*
X262632571Y-118450765D01*
X262655671Y-118459030D01*
X262677849Y-118469520D01*
X262698893Y-118482133D01*
X262718598Y-118496747D01*
X262736777Y-118513223D01*
X262753253Y-118531402D01*
X262767867Y-118551107D01*
X262780480Y-118572151D01*
X262790970Y-118594329D01*
X262799235Y-118617429D01*
X262805196Y-118641227D01*
X262808796Y-118665496D01*
X262810000Y-118690000D01*
X262810000Y-119190000D01*
X262808796Y-119214504D01*
X262805196Y-119238773D01*
X262799235Y-119262571D01*
X262790970Y-119285671D01*
X262780480Y-119307849D01*
X262767867Y-119328893D01*
X262753253Y-119348598D01*
X262736777Y-119366777D01*
X262718598Y-119383253D01*
X262698893Y-119397867D01*
X262677849Y-119410480D01*
X262655671Y-119420970D01*
X262632571Y-119429235D01*
X262608773Y-119435196D01*
X262584504Y-119438796D01*
X262560000Y-119440000D01*
X261460000Y-119440000D01*
X261435496Y-119438796D01*
X261411227Y-119435196D01*
X261387429Y-119429235D01*
X261364329Y-119420970D01*
X261342151Y-119410480D01*
X261321107Y-119397867D01*
X261301402Y-119383253D01*
X261283223Y-119366777D01*
X261266747Y-119348598D01*
X261252133Y-119328893D01*
X261239520Y-119307849D01*
X261229030Y-119285671D01*
X261220765Y-119262571D01*
X261214804Y-119238773D01*
X261211204Y-119214504D01*
X261210000Y-119190000D01*
X261210000Y-118690000D01*
X261211204Y-118665496D01*
X261214804Y-118641227D01*
X261220765Y-118617429D01*
X261229030Y-118594329D01*
X261239520Y-118572151D01*
X261252133Y-118551107D01*
X261266747Y-118531402D01*
X261283223Y-118513223D01*
X261301402Y-118496747D01*
X261321107Y-118482133D01*
X261342151Y-118469520D01*
X261364329Y-118459030D01*
X261387429Y-118450765D01*
X261411227Y-118444804D01*
X261435496Y-118441204D01*
X261460000Y-118440000D01*
X262560000Y-118440000D01*
X262584504Y-118441204D01*
X262584504Y-118441204D01*
G37*
D17*
X262010000Y-118940000D03*
D12*
G36*
X262584504Y-117171204D02*
X262608773Y-117174804D01*
X262632571Y-117180765D01*
X262655671Y-117189030D01*
X262677849Y-117199520D01*
X262698893Y-117212133D01*
X262718598Y-117226747D01*
X262736777Y-117243223D01*
X262753253Y-117261402D01*
X262767867Y-117281107D01*
X262780480Y-117302151D01*
X262790970Y-117324329D01*
X262799235Y-117347429D01*
X262805196Y-117371227D01*
X262808796Y-117395496D01*
X262810000Y-117420000D01*
X262810000Y-117920000D01*
X262808796Y-117944504D01*
X262805196Y-117968773D01*
X262799235Y-117992571D01*
X262790970Y-118015671D01*
X262780480Y-118037849D01*
X262767867Y-118058893D01*
X262753253Y-118078598D01*
X262736777Y-118096777D01*
X262718598Y-118113253D01*
X262698893Y-118127867D01*
X262677849Y-118140480D01*
X262655671Y-118150970D01*
X262632571Y-118159235D01*
X262608773Y-118165196D01*
X262584504Y-118168796D01*
X262560000Y-118170000D01*
X261460000Y-118170000D01*
X261435496Y-118168796D01*
X261411227Y-118165196D01*
X261387429Y-118159235D01*
X261364329Y-118150970D01*
X261342151Y-118140480D01*
X261321107Y-118127867D01*
X261301402Y-118113253D01*
X261283223Y-118096777D01*
X261266747Y-118078598D01*
X261252133Y-118058893D01*
X261239520Y-118037849D01*
X261229030Y-118015671D01*
X261220765Y-117992571D01*
X261214804Y-117968773D01*
X261211204Y-117944504D01*
X261210000Y-117920000D01*
X261210000Y-117420000D01*
X261211204Y-117395496D01*
X261214804Y-117371227D01*
X261220765Y-117347429D01*
X261229030Y-117324329D01*
X261239520Y-117302151D01*
X261252133Y-117281107D01*
X261266747Y-117261402D01*
X261283223Y-117243223D01*
X261301402Y-117226747D01*
X261321107Y-117212133D01*
X261342151Y-117199520D01*
X261364329Y-117189030D01*
X261387429Y-117180765D01*
X261411227Y-117174804D01*
X261435496Y-117171204D01*
X261460000Y-117170000D01*
X262560000Y-117170000D01*
X262584504Y-117171204D01*
X262584504Y-117171204D01*
G37*
D17*
X262010000Y-117670000D03*
D12*
G36*
X262584504Y-115901204D02*
X262608773Y-115904804D01*
X262632571Y-115910765D01*
X262655671Y-115919030D01*
X262677849Y-115929520D01*
X262698893Y-115942133D01*
X262718598Y-115956747D01*
X262736777Y-115973223D01*
X262753253Y-115991402D01*
X262767867Y-116011107D01*
X262780480Y-116032151D01*
X262790970Y-116054329D01*
X262799235Y-116077429D01*
X262805196Y-116101227D01*
X262808796Y-116125496D01*
X262810000Y-116150000D01*
X262810000Y-116650000D01*
X262808796Y-116674504D01*
X262805196Y-116698773D01*
X262799235Y-116722571D01*
X262790970Y-116745671D01*
X262780480Y-116767849D01*
X262767867Y-116788893D01*
X262753253Y-116808598D01*
X262736777Y-116826777D01*
X262718598Y-116843253D01*
X262698893Y-116857867D01*
X262677849Y-116870480D01*
X262655671Y-116880970D01*
X262632571Y-116889235D01*
X262608773Y-116895196D01*
X262584504Y-116898796D01*
X262560000Y-116900000D01*
X261460000Y-116900000D01*
X261435496Y-116898796D01*
X261411227Y-116895196D01*
X261387429Y-116889235D01*
X261364329Y-116880970D01*
X261342151Y-116870480D01*
X261321107Y-116857867D01*
X261301402Y-116843253D01*
X261283223Y-116826777D01*
X261266747Y-116808598D01*
X261252133Y-116788893D01*
X261239520Y-116767849D01*
X261229030Y-116745671D01*
X261220765Y-116722571D01*
X261214804Y-116698773D01*
X261211204Y-116674504D01*
X261210000Y-116650000D01*
X261210000Y-116150000D01*
X261211204Y-116125496D01*
X261214804Y-116101227D01*
X261220765Y-116077429D01*
X261229030Y-116054329D01*
X261239520Y-116032151D01*
X261252133Y-116011107D01*
X261266747Y-115991402D01*
X261283223Y-115973223D01*
X261301402Y-115956747D01*
X261321107Y-115942133D01*
X261342151Y-115929520D01*
X261364329Y-115919030D01*
X261387429Y-115910765D01*
X261411227Y-115904804D01*
X261435496Y-115901204D01*
X261460000Y-115900000D01*
X262560000Y-115900000D01*
X262584504Y-115901204D01*
X262584504Y-115901204D01*
G37*
D17*
X262010000Y-116400000D03*
D12*
G36*
X262584504Y-114631204D02*
X262608773Y-114634804D01*
X262632571Y-114640765D01*
X262655671Y-114649030D01*
X262677849Y-114659520D01*
X262698893Y-114672133D01*
X262718598Y-114686747D01*
X262736777Y-114703223D01*
X262753253Y-114721402D01*
X262767867Y-114741107D01*
X262780480Y-114762151D01*
X262790970Y-114784329D01*
X262799235Y-114807429D01*
X262805196Y-114831227D01*
X262808796Y-114855496D01*
X262810000Y-114880000D01*
X262810000Y-115380000D01*
X262808796Y-115404504D01*
X262805196Y-115428773D01*
X262799235Y-115452571D01*
X262790970Y-115475671D01*
X262780480Y-115497849D01*
X262767867Y-115518893D01*
X262753253Y-115538598D01*
X262736777Y-115556777D01*
X262718598Y-115573253D01*
X262698893Y-115587867D01*
X262677849Y-115600480D01*
X262655671Y-115610970D01*
X262632571Y-115619235D01*
X262608773Y-115625196D01*
X262584504Y-115628796D01*
X262560000Y-115630000D01*
X261460000Y-115630000D01*
X261435496Y-115628796D01*
X261411227Y-115625196D01*
X261387429Y-115619235D01*
X261364329Y-115610970D01*
X261342151Y-115600480D01*
X261321107Y-115587867D01*
X261301402Y-115573253D01*
X261283223Y-115556777D01*
X261266747Y-115538598D01*
X261252133Y-115518893D01*
X261239520Y-115497849D01*
X261229030Y-115475671D01*
X261220765Y-115452571D01*
X261214804Y-115428773D01*
X261211204Y-115404504D01*
X261210000Y-115380000D01*
X261210000Y-114880000D01*
X261211204Y-114855496D01*
X261214804Y-114831227D01*
X261220765Y-114807429D01*
X261229030Y-114784329D01*
X261239520Y-114762151D01*
X261252133Y-114741107D01*
X261266747Y-114721402D01*
X261283223Y-114703223D01*
X261301402Y-114686747D01*
X261321107Y-114672133D01*
X261342151Y-114659520D01*
X261364329Y-114649030D01*
X261387429Y-114640765D01*
X261411227Y-114634804D01*
X261435496Y-114631204D01*
X261460000Y-114630000D01*
X262560000Y-114630000D01*
X262584504Y-114631204D01*
X262584504Y-114631204D01*
G37*
D17*
X262010000Y-115130000D03*
D12*
G36*
X262584504Y-113361204D02*
X262608773Y-113364804D01*
X262632571Y-113370765D01*
X262655671Y-113379030D01*
X262677849Y-113389520D01*
X262698893Y-113402133D01*
X262718598Y-113416747D01*
X262736777Y-113433223D01*
X262753253Y-113451402D01*
X262767867Y-113471107D01*
X262780480Y-113492151D01*
X262790970Y-113514329D01*
X262799235Y-113537429D01*
X262805196Y-113561227D01*
X262808796Y-113585496D01*
X262810000Y-113610000D01*
X262810000Y-114110000D01*
X262808796Y-114134504D01*
X262805196Y-114158773D01*
X262799235Y-114182571D01*
X262790970Y-114205671D01*
X262780480Y-114227849D01*
X262767867Y-114248893D01*
X262753253Y-114268598D01*
X262736777Y-114286777D01*
X262718598Y-114303253D01*
X262698893Y-114317867D01*
X262677849Y-114330480D01*
X262655671Y-114340970D01*
X262632571Y-114349235D01*
X262608773Y-114355196D01*
X262584504Y-114358796D01*
X262560000Y-114360000D01*
X261460000Y-114360000D01*
X261435496Y-114358796D01*
X261411227Y-114355196D01*
X261387429Y-114349235D01*
X261364329Y-114340970D01*
X261342151Y-114330480D01*
X261321107Y-114317867D01*
X261301402Y-114303253D01*
X261283223Y-114286777D01*
X261266747Y-114268598D01*
X261252133Y-114248893D01*
X261239520Y-114227849D01*
X261229030Y-114205671D01*
X261220765Y-114182571D01*
X261214804Y-114158773D01*
X261211204Y-114134504D01*
X261210000Y-114110000D01*
X261210000Y-113610000D01*
X261211204Y-113585496D01*
X261214804Y-113561227D01*
X261220765Y-113537429D01*
X261229030Y-113514329D01*
X261239520Y-113492151D01*
X261252133Y-113471107D01*
X261266747Y-113451402D01*
X261283223Y-113433223D01*
X261301402Y-113416747D01*
X261321107Y-113402133D01*
X261342151Y-113389520D01*
X261364329Y-113379030D01*
X261387429Y-113370765D01*
X261411227Y-113364804D01*
X261435496Y-113361204D01*
X261460000Y-113360000D01*
X262560000Y-113360000D01*
X262584504Y-113361204D01*
X262584504Y-113361204D01*
G37*
D17*
X262010000Y-113860000D03*
D12*
G36*
X262584504Y-112091204D02*
X262608773Y-112094804D01*
X262632571Y-112100765D01*
X262655671Y-112109030D01*
X262677849Y-112119520D01*
X262698893Y-112132133D01*
X262718598Y-112146747D01*
X262736777Y-112163223D01*
X262753253Y-112181402D01*
X262767867Y-112201107D01*
X262780480Y-112222151D01*
X262790970Y-112244329D01*
X262799235Y-112267429D01*
X262805196Y-112291227D01*
X262808796Y-112315496D01*
X262810000Y-112340000D01*
X262810000Y-112840000D01*
X262808796Y-112864504D01*
X262805196Y-112888773D01*
X262799235Y-112912571D01*
X262790970Y-112935671D01*
X262780480Y-112957849D01*
X262767867Y-112978893D01*
X262753253Y-112998598D01*
X262736777Y-113016777D01*
X262718598Y-113033253D01*
X262698893Y-113047867D01*
X262677849Y-113060480D01*
X262655671Y-113070970D01*
X262632571Y-113079235D01*
X262608773Y-113085196D01*
X262584504Y-113088796D01*
X262560000Y-113090000D01*
X261460000Y-113090000D01*
X261435496Y-113088796D01*
X261411227Y-113085196D01*
X261387429Y-113079235D01*
X261364329Y-113070970D01*
X261342151Y-113060480D01*
X261321107Y-113047867D01*
X261301402Y-113033253D01*
X261283223Y-113016777D01*
X261266747Y-112998598D01*
X261252133Y-112978893D01*
X261239520Y-112957849D01*
X261229030Y-112935671D01*
X261220765Y-112912571D01*
X261214804Y-112888773D01*
X261211204Y-112864504D01*
X261210000Y-112840000D01*
X261210000Y-112340000D01*
X261211204Y-112315496D01*
X261214804Y-112291227D01*
X261220765Y-112267429D01*
X261229030Y-112244329D01*
X261239520Y-112222151D01*
X261252133Y-112201107D01*
X261266747Y-112181402D01*
X261283223Y-112163223D01*
X261301402Y-112146747D01*
X261321107Y-112132133D01*
X261342151Y-112119520D01*
X261364329Y-112109030D01*
X261387429Y-112100765D01*
X261411227Y-112094804D01*
X261435496Y-112091204D01*
X261460000Y-112090000D01*
X262560000Y-112090000D01*
X262584504Y-112091204D01*
X262584504Y-112091204D01*
G37*
D17*
X262010000Y-112590000D03*
D12*
G36*
X262584504Y-110821204D02*
X262608773Y-110824804D01*
X262632571Y-110830765D01*
X262655671Y-110839030D01*
X262677849Y-110849520D01*
X262698893Y-110862133D01*
X262718598Y-110876747D01*
X262736777Y-110893223D01*
X262753253Y-110911402D01*
X262767867Y-110931107D01*
X262780480Y-110952151D01*
X262790970Y-110974329D01*
X262799235Y-110997429D01*
X262805196Y-111021227D01*
X262808796Y-111045496D01*
X262810000Y-111070000D01*
X262810000Y-111570000D01*
X262808796Y-111594504D01*
X262805196Y-111618773D01*
X262799235Y-111642571D01*
X262790970Y-111665671D01*
X262780480Y-111687849D01*
X262767867Y-111708893D01*
X262753253Y-111728598D01*
X262736777Y-111746777D01*
X262718598Y-111763253D01*
X262698893Y-111777867D01*
X262677849Y-111790480D01*
X262655671Y-111800970D01*
X262632571Y-111809235D01*
X262608773Y-111815196D01*
X262584504Y-111818796D01*
X262560000Y-111820000D01*
X261460000Y-111820000D01*
X261435496Y-111818796D01*
X261411227Y-111815196D01*
X261387429Y-111809235D01*
X261364329Y-111800970D01*
X261342151Y-111790480D01*
X261321107Y-111777867D01*
X261301402Y-111763253D01*
X261283223Y-111746777D01*
X261266747Y-111728598D01*
X261252133Y-111708893D01*
X261239520Y-111687849D01*
X261229030Y-111665671D01*
X261220765Y-111642571D01*
X261214804Y-111618773D01*
X261211204Y-111594504D01*
X261210000Y-111570000D01*
X261210000Y-111070000D01*
X261211204Y-111045496D01*
X261214804Y-111021227D01*
X261220765Y-110997429D01*
X261229030Y-110974329D01*
X261239520Y-110952151D01*
X261252133Y-110931107D01*
X261266747Y-110911402D01*
X261283223Y-110893223D01*
X261301402Y-110876747D01*
X261321107Y-110862133D01*
X261342151Y-110849520D01*
X261364329Y-110839030D01*
X261387429Y-110830765D01*
X261411227Y-110824804D01*
X261435496Y-110821204D01*
X261460000Y-110820000D01*
X262560000Y-110820000D01*
X262584504Y-110821204D01*
X262584504Y-110821204D01*
G37*
D17*
X262010000Y-111320000D03*
D12*
G36*
X262584504Y-109551204D02*
X262608773Y-109554804D01*
X262632571Y-109560765D01*
X262655671Y-109569030D01*
X262677849Y-109579520D01*
X262698893Y-109592133D01*
X262718598Y-109606747D01*
X262736777Y-109623223D01*
X262753253Y-109641402D01*
X262767867Y-109661107D01*
X262780480Y-109682151D01*
X262790970Y-109704329D01*
X262799235Y-109727429D01*
X262805196Y-109751227D01*
X262808796Y-109775496D01*
X262810000Y-109800000D01*
X262810000Y-110300000D01*
X262808796Y-110324504D01*
X262805196Y-110348773D01*
X262799235Y-110372571D01*
X262790970Y-110395671D01*
X262780480Y-110417849D01*
X262767867Y-110438893D01*
X262753253Y-110458598D01*
X262736777Y-110476777D01*
X262718598Y-110493253D01*
X262698893Y-110507867D01*
X262677849Y-110520480D01*
X262655671Y-110530970D01*
X262632571Y-110539235D01*
X262608773Y-110545196D01*
X262584504Y-110548796D01*
X262560000Y-110550000D01*
X261460000Y-110550000D01*
X261435496Y-110548796D01*
X261411227Y-110545196D01*
X261387429Y-110539235D01*
X261364329Y-110530970D01*
X261342151Y-110520480D01*
X261321107Y-110507867D01*
X261301402Y-110493253D01*
X261283223Y-110476777D01*
X261266747Y-110458598D01*
X261252133Y-110438893D01*
X261239520Y-110417849D01*
X261229030Y-110395671D01*
X261220765Y-110372571D01*
X261214804Y-110348773D01*
X261211204Y-110324504D01*
X261210000Y-110300000D01*
X261210000Y-109800000D01*
X261211204Y-109775496D01*
X261214804Y-109751227D01*
X261220765Y-109727429D01*
X261229030Y-109704329D01*
X261239520Y-109682151D01*
X261252133Y-109661107D01*
X261266747Y-109641402D01*
X261283223Y-109623223D01*
X261301402Y-109606747D01*
X261321107Y-109592133D01*
X261342151Y-109579520D01*
X261364329Y-109569030D01*
X261387429Y-109560765D01*
X261411227Y-109554804D01*
X261435496Y-109551204D01*
X261460000Y-109550000D01*
X262560000Y-109550000D01*
X262584504Y-109551204D01*
X262584504Y-109551204D01*
G37*
D17*
X262010000Y-110050000D03*
D12*
G36*
X262584504Y-108281204D02*
X262608773Y-108284804D01*
X262632571Y-108290765D01*
X262655671Y-108299030D01*
X262677849Y-108309520D01*
X262698893Y-108322133D01*
X262718598Y-108336747D01*
X262736777Y-108353223D01*
X262753253Y-108371402D01*
X262767867Y-108391107D01*
X262780480Y-108412151D01*
X262790970Y-108434329D01*
X262799235Y-108457429D01*
X262805196Y-108481227D01*
X262808796Y-108505496D01*
X262810000Y-108530000D01*
X262810000Y-109030000D01*
X262808796Y-109054504D01*
X262805196Y-109078773D01*
X262799235Y-109102571D01*
X262790970Y-109125671D01*
X262780480Y-109147849D01*
X262767867Y-109168893D01*
X262753253Y-109188598D01*
X262736777Y-109206777D01*
X262718598Y-109223253D01*
X262698893Y-109237867D01*
X262677849Y-109250480D01*
X262655671Y-109260970D01*
X262632571Y-109269235D01*
X262608773Y-109275196D01*
X262584504Y-109278796D01*
X262560000Y-109280000D01*
X261460000Y-109280000D01*
X261435496Y-109278796D01*
X261411227Y-109275196D01*
X261387429Y-109269235D01*
X261364329Y-109260970D01*
X261342151Y-109250480D01*
X261321107Y-109237867D01*
X261301402Y-109223253D01*
X261283223Y-109206777D01*
X261266747Y-109188598D01*
X261252133Y-109168893D01*
X261239520Y-109147849D01*
X261229030Y-109125671D01*
X261220765Y-109102571D01*
X261214804Y-109078773D01*
X261211204Y-109054504D01*
X261210000Y-109030000D01*
X261210000Y-108530000D01*
X261211204Y-108505496D01*
X261214804Y-108481227D01*
X261220765Y-108457429D01*
X261229030Y-108434329D01*
X261239520Y-108412151D01*
X261252133Y-108391107D01*
X261266747Y-108371402D01*
X261283223Y-108353223D01*
X261301402Y-108336747D01*
X261321107Y-108322133D01*
X261342151Y-108309520D01*
X261364329Y-108299030D01*
X261387429Y-108290765D01*
X261411227Y-108284804D01*
X261435496Y-108281204D01*
X261460000Y-108280000D01*
X262560000Y-108280000D01*
X262584504Y-108281204D01*
X262584504Y-108281204D01*
G37*
D17*
X262010000Y-108780000D03*
D12*
G36*
X262584504Y-107011204D02*
X262608773Y-107014804D01*
X262632571Y-107020765D01*
X262655671Y-107029030D01*
X262677849Y-107039520D01*
X262698893Y-107052133D01*
X262718598Y-107066747D01*
X262736777Y-107083223D01*
X262753253Y-107101402D01*
X262767867Y-107121107D01*
X262780480Y-107142151D01*
X262790970Y-107164329D01*
X262799235Y-107187429D01*
X262805196Y-107211227D01*
X262808796Y-107235496D01*
X262810000Y-107260000D01*
X262810000Y-107760000D01*
X262808796Y-107784504D01*
X262805196Y-107808773D01*
X262799235Y-107832571D01*
X262790970Y-107855671D01*
X262780480Y-107877849D01*
X262767867Y-107898893D01*
X262753253Y-107918598D01*
X262736777Y-107936777D01*
X262718598Y-107953253D01*
X262698893Y-107967867D01*
X262677849Y-107980480D01*
X262655671Y-107990970D01*
X262632571Y-107999235D01*
X262608773Y-108005196D01*
X262584504Y-108008796D01*
X262560000Y-108010000D01*
X261460000Y-108010000D01*
X261435496Y-108008796D01*
X261411227Y-108005196D01*
X261387429Y-107999235D01*
X261364329Y-107990970D01*
X261342151Y-107980480D01*
X261321107Y-107967867D01*
X261301402Y-107953253D01*
X261283223Y-107936777D01*
X261266747Y-107918598D01*
X261252133Y-107898893D01*
X261239520Y-107877849D01*
X261229030Y-107855671D01*
X261220765Y-107832571D01*
X261214804Y-107808773D01*
X261211204Y-107784504D01*
X261210000Y-107760000D01*
X261210000Y-107260000D01*
X261211204Y-107235496D01*
X261214804Y-107211227D01*
X261220765Y-107187429D01*
X261229030Y-107164329D01*
X261239520Y-107142151D01*
X261252133Y-107121107D01*
X261266747Y-107101402D01*
X261283223Y-107083223D01*
X261301402Y-107066747D01*
X261321107Y-107052133D01*
X261342151Y-107039520D01*
X261364329Y-107029030D01*
X261387429Y-107020765D01*
X261411227Y-107014804D01*
X261435496Y-107011204D01*
X261460000Y-107010000D01*
X262560000Y-107010000D01*
X262584504Y-107011204D01*
X262584504Y-107011204D01*
G37*
D17*
X262010000Y-107510000D03*
D12*
G36*
X262584504Y-105741204D02*
X262608773Y-105744804D01*
X262632571Y-105750765D01*
X262655671Y-105759030D01*
X262677849Y-105769520D01*
X262698893Y-105782133D01*
X262718598Y-105796747D01*
X262736777Y-105813223D01*
X262753253Y-105831402D01*
X262767867Y-105851107D01*
X262780480Y-105872151D01*
X262790970Y-105894329D01*
X262799235Y-105917429D01*
X262805196Y-105941227D01*
X262808796Y-105965496D01*
X262810000Y-105990000D01*
X262810000Y-106490000D01*
X262808796Y-106514504D01*
X262805196Y-106538773D01*
X262799235Y-106562571D01*
X262790970Y-106585671D01*
X262780480Y-106607849D01*
X262767867Y-106628893D01*
X262753253Y-106648598D01*
X262736777Y-106666777D01*
X262718598Y-106683253D01*
X262698893Y-106697867D01*
X262677849Y-106710480D01*
X262655671Y-106720970D01*
X262632571Y-106729235D01*
X262608773Y-106735196D01*
X262584504Y-106738796D01*
X262560000Y-106740000D01*
X261460000Y-106740000D01*
X261435496Y-106738796D01*
X261411227Y-106735196D01*
X261387429Y-106729235D01*
X261364329Y-106720970D01*
X261342151Y-106710480D01*
X261321107Y-106697867D01*
X261301402Y-106683253D01*
X261283223Y-106666777D01*
X261266747Y-106648598D01*
X261252133Y-106628893D01*
X261239520Y-106607849D01*
X261229030Y-106585671D01*
X261220765Y-106562571D01*
X261214804Y-106538773D01*
X261211204Y-106514504D01*
X261210000Y-106490000D01*
X261210000Y-105990000D01*
X261211204Y-105965496D01*
X261214804Y-105941227D01*
X261220765Y-105917429D01*
X261229030Y-105894329D01*
X261239520Y-105872151D01*
X261252133Y-105851107D01*
X261266747Y-105831402D01*
X261283223Y-105813223D01*
X261301402Y-105796747D01*
X261321107Y-105782133D01*
X261342151Y-105769520D01*
X261364329Y-105759030D01*
X261387429Y-105750765D01*
X261411227Y-105744804D01*
X261435496Y-105741204D01*
X261460000Y-105740000D01*
X262560000Y-105740000D01*
X262584504Y-105741204D01*
X262584504Y-105741204D01*
G37*
D17*
X262010000Y-106240000D03*
D12*
G36*
X262584504Y-104471204D02*
X262608773Y-104474804D01*
X262632571Y-104480765D01*
X262655671Y-104489030D01*
X262677849Y-104499520D01*
X262698893Y-104512133D01*
X262718598Y-104526747D01*
X262736777Y-104543223D01*
X262753253Y-104561402D01*
X262767867Y-104581107D01*
X262780480Y-104602151D01*
X262790970Y-104624329D01*
X262799235Y-104647429D01*
X262805196Y-104671227D01*
X262808796Y-104695496D01*
X262810000Y-104720000D01*
X262810000Y-105220000D01*
X262808796Y-105244504D01*
X262805196Y-105268773D01*
X262799235Y-105292571D01*
X262790970Y-105315671D01*
X262780480Y-105337849D01*
X262767867Y-105358893D01*
X262753253Y-105378598D01*
X262736777Y-105396777D01*
X262718598Y-105413253D01*
X262698893Y-105427867D01*
X262677849Y-105440480D01*
X262655671Y-105450970D01*
X262632571Y-105459235D01*
X262608773Y-105465196D01*
X262584504Y-105468796D01*
X262560000Y-105470000D01*
X261460000Y-105470000D01*
X261435496Y-105468796D01*
X261411227Y-105465196D01*
X261387429Y-105459235D01*
X261364329Y-105450970D01*
X261342151Y-105440480D01*
X261321107Y-105427867D01*
X261301402Y-105413253D01*
X261283223Y-105396777D01*
X261266747Y-105378598D01*
X261252133Y-105358893D01*
X261239520Y-105337849D01*
X261229030Y-105315671D01*
X261220765Y-105292571D01*
X261214804Y-105268773D01*
X261211204Y-105244504D01*
X261210000Y-105220000D01*
X261210000Y-104720000D01*
X261211204Y-104695496D01*
X261214804Y-104671227D01*
X261220765Y-104647429D01*
X261229030Y-104624329D01*
X261239520Y-104602151D01*
X261252133Y-104581107D01*
X261266747Y-104561402D01*
X261283223Y-104543223D01*
X261301402Y-104526747D01*
X261321107Y-104512133D01*
X261342151Y-104499520D01*
X261364329Y-104489030D01*
X261387429Y-104480765D01*
X261411227Y-104474804D01*
X261435496Y-104471204D01*
X261460000Y-104470000D01*
X262560000Y-104470000D01*
X262584504Y-104471204D01*
X262584504Y-104471204D01*
G37*
D17*
X262010000Y-104970000D03*
D12*
G36*
X262584504Y-103201204D02*
X262608773Y-103204804D01*
X262632571Y-103210765D01*
X262655671Y-103219030D01*
X262677849Y-103229520D01*
X262698893Y-103242133D01*
X262718598Y-103256747D01*
X262736777Y-103273223D01*
X262753253Y-103291402D01*
X262767867Y-103311107D01*
X262780480Y-103332151D01*
X262790970Y-103354329D01*
X262799235Y-103377429D01*
X262805196Y-103401227D01*
X262808796Y-103425496D01*
X262810000Y-103450000D01*
X262810000Y-103950000D01*
X262808796Y-103974504D01*
X262805196Y-103998773D01*
X262799235Y-104022571D01*
X262790970Y-104045671D01*
X262780480Y-104067849D01*
X262767867Y-104088893D01*
X262753253Y-104108598D01*
X262736777Y-104126777D01*
X262718598Y-104143253D01*
X262698893Y-104157867D01*
X262677849Y-104170480D01*
X262655671Y-104180970D01*
X262632571Y-104189235D01*
X262608773Y-104195196D01*
X262584504Y-104198796D01*
X262560000Y-104200000D01*
X261460000Y-104200000D01*
X261435496Y-104198796D01*
X261411227Y-104195196D01*
X261387429Y-104189235D01*
X261364329Y-104180970D01*
X261342151Y-104170480D01*
X261321107Y-104157867D01*
X261301402Y-104143253D01*
X261283223Y-104126777D01*
X261266747Y-104108598D01*
X261252133Y-104088893D01*
X261239520Y-104067849D01*
X261229030Y-104045671D01*
X261220765Y-104022571D01*
X261214804Y-103998773D01*
X261211204Y-103974504D01*
X261210000Y-103950000D01*
X261210000Y-103450000D01*
X261211204Y-103425496D01*
X261214804Y-103401227D01*
X261220765Y-103377429D01*
X261229030Y-103354329D01*
X261239520Y-103332151D01*
X261252133Y-103311107D01*
X261266747Y-103291402D01*
X261283223Y-103273223D01*
X261301402Y-103256747D01*
X261321107Y-103242133D01*
X261342151Y-103229520D01*
X261364329Y-103219030D01*
X261387429Y-103210765D01*
X261411227Y-103204804D01*
X261435496Y-103201204D01*
X261460000Y-103200000D01*
X262560000Y-103200000D01*
X262584504Y-103201204D01*
X262584504Y-103201204D01*
G37*
D17*
X262010000Y-103700000D03*
D12*
G36*
X262584504Y-101931204D02*
X262608773Y-101934804D01*
X262632571Y-101940765D01*
X262655671Y-101949030D01*
X262677849Y-101959520D01*
X262698893Y-101972133D01*
X262718598Y-101986747D01*
X262736777Y-102003223D01*
X262753253Y-102021402D01*
X262767867Y-102041107D01*
X262780480Y-102062151D01*
X262790970Y-102084329D01*
X262799235Y-102107429D01*
X262805196Y-102131227D01*
X262808796Y-102155496D01*
X262810000Y-102180000D01*
X262810000Y-102680000D01*
X262808796Y-102704504D01*
X262805196Y-102728773D01*
X262799235Y-102752571D01*
X262790970Y-102775671D01*
X262780480Y-102797849D01*
X262767867Y-102818893D01*
X262753253Y-102838598D01*
X262736777Y-102856777D01*
X262718598Y-102873253D01*
X262698893Y-102887867D01*
X262677849Y-102900480D01*
X262655671Y-102910970D01*
X262632571Y-102919235D01*
X262608773Y-102925196D01*
X262584504Y-102928796D01*
X262560000Y-102930000D01*
X261460000Y-102930000D01*
X261435496Y-102928796D01*
X261411227Y-102925196D01*
X261387429Y-102919235D01*
X261364329Y-102910970D01*
X261342151Y-102900480D01*
X261321107Y-102887867D01*
X261301402Y-102873253D01*
X261283223Y-102856777D01*
X261266747Y-102838598D01*
X261252133Y-102818893D01*
X261239520Y-102797849D01*
X261229030Y-102775671D01*
X261220765Y-102752571D01*
X261214804Y-102728773D01*
X261211204Y-102704504D01*
X261210000Y-102680000D01*
X261210000Y-102180000D01*
X261211204Y-102155496D01*
X261214804Y-102131227D01*
X261220765Y-102107429D01*
X261229030Y-102084329D01*
X261239520Y-102062151D01*
X261252133Y-102041107D01*
X261266747Y-102021402D01*
X261283223Y-102003223D01*
X261301402Y-101986747D01*
X261321107Y-101972133D01*
X261342151Y-101959520D01*
X261364329Y-101949030D01*
X261387429Y-101940765D01*
X261411227Y-101934804D01*
X261435496Y-101931204D01*
X261460000Y-101930000D01*
X262560000Y-101930000D01*
X262584504Y-101931204D01*
X262584504Y-101931204D01*
G37*
D17*
X262010000Y-102430000D03*
D12*
G36*
X257204504Y-100361204D02*
X257228773Y-100364804D01*
X257252571Y-100370765D01*
X257275671Y-100379030D01*
X257297849Y-100389520D01*
X257318893Y-100402133D01*
X257338598Y-100416747D01*
X257356777Y-100433223D01*
X257373253Y-100451402D01*
X257387867Y-100471107D01*
X257400480Y-100492151D01*
X257410970Y-100514329D01*
X257419235Y-100537429D01*
X257425196Y-100561227D01*
X257428796Y-100585496D01*
X257430000Y-100610000D01*
X257430000Y-101710000D01*
X257428796Y-101734504D01*
X257425196Y-101758773D01*
X257419235Y-101782571D01*
X257410970Y-101805671D01*
X257400480Y-101827849D01*
X257387867Y-101848893D01*
X257373253Y-101868598D01*
X257356777Y-101886777D01*
X257338598Y-101903253D01*
X257318893Y-101917867D01*
X257297849Y-101930480D01*
X257275671Y-101940970D01*
X257252571Y-101949235D01*
X257228773Y-101955196D01*
X257204504Y-101958796D01*
X257180000Y-101960000D01*
X256680000Y-101960000D01*
X256655496Y-101958796D01*
X256631227Y-101955196D01*
X256607429Y-101949235D01*
X256584329Y-101940970D01*
X256562151Y-101930480D01*
X256541107Y-101917867D01*
X256521402Y-101903253D01*
X256503223Y-101886777D01*
X256486747Y-101868598D01*
X256472133Y-101848893D01*
X256459520Y-101827849D01*
X256449030Y-101805671D01*
X256440765Y-101782571D01*
X256434804Y-101758773D01*
X256431204Y-101734504D01*
X256430000Y-101710000D01*
X256430000Y-100610000D01*
X256431204Y-100585496D01*
X256434804Y-100561227D01*
X256440765Y-100537429D01*
X256449030Y-100514329D01*
X256459520Y-100492151D01*
X256472133Y-100471107D01*
X256486747Y-100451402D01*
X256503223Y-100433223D01*
X256521402Y-100416747D01*
X256541107Y-100402133D01*
X256562151Y-100389520D01*
X256584329Y-100379030D01*
X256607429Y-100370765D01*
X256631227Y-100364804D01*
X256655496Y-100361204D01*
X256680000Y-100360000D01*
X257180000Y-100360000D01*
X257204504Y-100361204D01*
X257204504Y-100361204D01*
G37*
D17*
X256930000Y-101160000D03*
D12*
G36*
X255934504Y-100361204D02*
X255958773Y-100364804D01*
X255982571Y-100370765D01*
X256005671Y-100379030D01*
X256027849Y-100389520D01*
X256048893Y-100402133D01*
X256068598Y-100416747D01*
X256086777Y-100433223D01*
X256103253Y-100451402D01*
X256117867Y-100471107D01*
X256130480Y-100492151D01*
X256140970Y-100514329D01*
X256149235Y-100537429D01*
X256155196Y-100561227D01*
X256158796Y-100585496D01*
X256160000Y-100610000D01*
X256160000Y-101710000D01*
X256158796Y-101734504D01*
X256155196Y-101758773D01*
X256149235Y-101782571D01*
X256140970Y-101805671D01*
X256130480Y-101827849D01*
X256117867Y-101848893D01*
X256103253Y-101868598D01*
X256086777Y-101886777D01*
X256068598Y-101903253D01*
X256048893Y-101917867D01*
X256027849Y-101930480D01*
X256005671Y-101940970D01*
X255982571Y-101949235D01*
X255958773Y-101955196D01*
X255934504Y-101958796D01*
X255910000Y-101960000D01*
X255410000Y-101960000D01*
X255385496Y-101958796D01*
X255361227Y-101955196D01*
X255337429Y-101949235D01*
X255314329Y-101940970D01*
X255292151Y-101930480D01*
X255271107Y-101917867D01*
X255251402Y-101903253D01*
X255233223Y-101886777D01*
X255216747Y-101868598D01*
X255202133Y-101848893D01*
X255189520Y-101827849D01*
X255179030Y-101805671D01*
X255170765Y-101782571D01*
X255164804Y-101758773D01*
X255161204Y-101734504D01*
X255160000Y-101710000D01*
X255160000Y-100610000D01*
X255161204Y-100585496D01*
X255164804Y-100561227D01*
X255170765Y-100537429D01*
X255179030Y-100514329D01*
X255189520Y-100492151D01*
X255202133Y-100471107D01*
X255216747Y-100451402D01*
X255233223Y-100433223D01*
X255251402Y-100416747D01*
X255271107Y-100402133D01*
X255292151Y-100389520D01*
X255314329Y-100379030D01*
X255337429Y-100370765D01*
X255361227Y-100364804D01*
X255385496Y-100361204D01*
X255410000Y-100360000D01*
X255910000Y-100360000D01*
X255934504Y-100361204D01*
X255934504Y-100361204D01*
G37*
D17*
X255660000Y-101160000D03*
D12*
G36*
X254664504Y-100361204D02*
X254688773Y-100364804D01*
X254712571Y-100370765D01*
X254735671Y-100379030D01*
X254757849Y-100389520D01*
X254778893Y-100402133D01*
X254798598Y-100416747D01*
X254816777Y-100433223D01*
X254833253Y-100451402D01*
X254847867Y-100471107D01*
X254860480Y-100492151D01*
X254870970Y-100514329D01*
X254879235Y-100537429D01*
X254885196Y-100561227D01*
X254888796Y-100585496D01*
X254890000Y-100610000D01*
X254890000Y-101710000D01*
X254888796Y-101734504D01*
X254885196Y-101758773D01*
X254879235Y-101782571D01*
X254870970Y-101805671D01*
X254860480Y-101827849D01*
X254847867Y-101848893D01*
X254833253Y-101868598D01*
X254816777Y-101886777D01*
X254798598Y-101903253D01*
X254778893Y-101917867D01*
X254757849Y-101930480D01*
X254735671Y-101940970D01*
X254712571Y-101949235D01*
X254688773Y-101955196D01*
X254664504Y-101958796D01*
X254640000Y-101960000D01*
X254140000Y-101960000D01*
X254115496Y-101958796D01*
X254091227Y-101955196D01*
X254067429Y-101949235D01*
X254044329Y-101940970D01*
X254022151Y-101930480D01*
X254001107Y-101917867D01*
X253981402Y-101903253D01*
X253963223Y-101886777D01*
X253946747Y-101868598D01*
X253932133Y-101848893D01*
X253919520Y-101827849D01*
X253909030Y-101805671D01*
X253900765Y-101782571D01*
X253894804Y-101758773D01*
X253891204Y-101734504D01*
X253890000Y-101710000D01*
X253890000Y-100610000D01*
X253891204Y-100585496D01*
X253894804Y-100561227D01*
X253900765Y-100537429D01*
X253909030Y-100514329D01*
X253919520Y-100492151D01*
X253932133Y-100471107D01*
X253946747Y-100451402D01*
X253963223Y-100433223D01*
X253981402Y-100416747D01*
X254001107Y-100402133D01*
X254022151Y-100389520D01*
X254044329Y-100379030D01*
X254067429Y-100370765D01*
X254091227Y-100364804D01*
X254115496Y-100361204D01*
X254140000Y-100360000D01*
X254640000Y-100360000D01*
X254664504Y-100361204D01*
X254664504Y-100361204D01*
G37*
D17*
X254390000Y-101160000D03*
D12*
G36*
X253394504Y-100361204D02*
X253418773Y-100364804D01*
X253442571Y-100370765D01*
X253465671Y-100379030D01*
X253487849Y-100389520D01*
X253508893Y-100402133D01*
X253528598Y-100416747D01*
X253546777Y-100433223D01*
X253563253Y-100451402D01*
X253577867Y-100471107D01*
X253590480Y-100492151D01*
X253600970Y-100514329D01*
X253609235Y-100537429D01*
X253615196Y-100561227D01*
X253618796Y-100585496D01*
X253620000Y-100610000D01*
X253620000Y-101710000D01*
X253618796Y-101734504D01*
X253615196Y-101758773D01*
X253609235Y-101782571D01*
X253600970Y-101805671D01*
X253590480Y-101827849D01*
X253577867Y-101848893D01*
X253563253Y-101868598D01*
X253546777Y-101886777D01*
X253528598Y-101903253D01*
X253508893Y-101917867D01*
X253487849Y-101930480D01*
X253465671Y-101940970D01*
X253442571Y-101949235D01*
X253418773Y-101955196D01*
X253394504Y-101958796D01*
X253370000Y-101960000D01*
X252870000Y-101960000D01*
X252845496Y-101958796D01*
X252821227Y-101955196D01*
X252797429Y-101949235D01*
X252774329Y-101940970D01*
X252752151Y-101930480D01*
X252731107Y-101917867D01*
X252711402Y-101903253D01*
X252693223Y-101886777D01*
X252676747Y-101868598D01*
X252662133Y-101848893D01*
X252649520Y-101827849D01*
X252639030Y-101805671D01*
X252630765Y-101782571D01*
X252624804Y-101758773D01*
X252621204Y-101734504D01*
X252620000Y-101710000D01*
X252620000Y-100610000D01*
X252621204Y-100585496D01*
X252624804Y-100561227D01*
X252630765Y-100537429D01*
X252639030Y-100514329D01*
X252649520Y-100492151D01*
X252662133Y-100471107D01*
X252676747Y-100451402D01*
X252693223Y-100433223D01*
X252711402Y-100416747D01*
X252731107Y-100402133D01*
X252752151Y-100389520D01*
X252774329Y-100379030D01*
X252797429Y-100370765D01*
X252821227Y-100364804D01*
X252845496Y-100361204D01*
X252870000Y-100360000D01*
X253370000Y-100360000D01*
X253394504Y-100361204D01*
X253394504Y-100361204D01*
G37*
D17*
X253120000Y-101160000D03*
D12*
G36*
X252124504Y-100361204D02*
X252148773Y-100364804D01*
X252172571Y-100370765D01*
X252195671Y-100379030D01*
X252217849Y-100389520D01*
X252238893Y-100402133D01*
X252258598Y-100416747D01*
X252276777Y-100433223D01*
X252293253Y-100451402D01*
X252307867Y-100471107D01*
X252320480Y-100492151D01*
X252330970Y-100514329D01*
X252339235Y-100537429D01*
X252345196Y-100561227D01*
X252348796Y-100585496D01*
X252350000Y-100610000D01*
X252350000Y-101710000D01*
X252348796Y-101734504D01*
X252345196Y-101758773D01*
X252339235Y-101782571D01*
X252330970Y-101805671D01*
X252320480Y-101827849D01*
X252307867Y-101848893D01*
X252293253Y-101868598D01*
X252276777Y-101886777D01*
X252258598Y-101903253D01*
X252238893Y-101917867D01*
X252217849Y-101930480D01*
X252195671Y-101940970D01*
X252172571Y-101949235D01*
X252148773Y-101955196D01*
X252124504Y-101958796D01*
X252100000Y-101960000D01*
X251600000Y-101960000D01*
X251575496Y-101958796D01*
X251551227Y-101955196D01*
X251527429Y-101949235D01*
X251504329Y-101940970D01*
X251482151Y-101930480D01*
X251461107Y-101917867D01*
X251441402Y-101903253D01*
X251423223Y-101886777D01*
X251406747Y-101868598D01*
X251392133Y-101848893D01*
X251379520Y-101827849D01*
X251369030Y-101805671D01*
X251360765Y-101782571D01*
X251354804Y-101758773D01*
X251351204Y-101734504D01*
X251350000Y-101710000D01*
X251350000Y-100610000D01*
X251351204Y-100585496D01*
X251354804Y-100561227D01*
X251360765Y-100537429D01*
X251369030Y-100514329D01*
X251379520Y-100492151D01*
X251392133Y-100471107D01*
X251406747Y-100451402D01*
X251423223Y-100433223D01*
X251441402Y-100416747D01*
X251461107Y-100402133D01*
X251482151Y-100389520D01*
X251504329Y-100379030D01*
X251527429Y-100370765D01*
X251551227Y-100364804D01*
X251575496Y-100361204D01*
X251600000Y-100360000D01*
X252100000Y-100360000D01*
X252124504Y-100361204D01*
X252124504Y-100361204D01*
G37*
D17*
X251850000Y-101160000D03*
D12*
G36*
X250854504Y-100361204D02*
X250878773Y-100364804D01*
X250902571Y-100370765D01*
X250925671Y-100379030D01*
X250947849Y-100389520D01*
X250968893Y-100402133D01*
X250988598Y-100416747D01*
X251006777Y-100433223D01*
X251023253Y-100451402D01*
X251037867Y-100471107D01*
X251050480Y-100492151D01*
X251060970Y-100514329D01*
X251069235Y-100537429D01*
X251075196Y-100561227D01*
X251078796Y-100585496D01*
X251080000Y-100610000D01*
X251080000Y-101710000D01*
X251078796Y-101734504D01*
X251075196Y-101758773D01*
X251069235Y-101782571D01*
X251060970Y-101805671D01*
X251050480Y-101827849D01*
X251037867Y-101848893D01*
X251023253Y-101868598D01*
X251006777Y-101886777D01*
X250988598Y-101903253D01*
X250968893Y-101917867D01*
X250947849Y-101930480D01*
X250925671Y-101940970D01*
X250902571Y-101949235D01*
X250878773Y-101955196D01*
X250854504Y-101958796D01*
X250830000Y-101960000D01*
X250330000Y-101960000D01*
X250305496Y-101958796D01*
X250281227Y-101955196D01*
X250257429Y-101949235D01*
X250234329Y-101940970D01*
X250212151Y-101930480D01*
X250191107Y-101917867D01*
X250171402Y-101903253D01*
X250153223Y-101886777D01*
X250136747Y-101868598D01*
X250122133Y-101848893D01*
X250109520Y-101827849D01*
X250099030Y-101805671D01*
X250090765Y-101782571D01*
X250084804Y-101758773D01*
X250081204Y-101734504D01*
X250080000Y-101710000D01*
X250080000Y-100610000D01*
X250081204Y-100585496D01*
X250084804Y-100561227D01*
X250090765Y-100537429D01*
X250099030Y-100514329D01*
X250109520Y-100492151D01*
X250122133Y-100471107D01*
X250136747Y-100451402D01*
X250153223Y-100433223D01*
X250171402Y-100416747D01*
X250191107Y-100402133D01*
X250212151Y-100389520D01*
X250234329Y-100379030D01*
X250257429Y-100370765D01*
X250281227Y-100364804D01*
X250305496Y-100361204D01*
X250330000Y-100360000D01*
X250830000Y-100360000D01*
X250854504Y-100361204D01*
X250854504Y-100361204D01*
G37*
D17*
X250580000Y-101160000D03*
D12*
G36*
X249584504Y-100361204D02*
X249608773Y-100364804D01*
X249632571Y-100370765D01*
X249655671Y-100379030D01*
X249677849Y-100389520D01*
X249698893Y-100402133D01*
X249718598Y-100416747D01*
X249736777Y-100433223D01*
X249753253Y-100451402D01*
X249767867Y-100471107D01*
X249780480Y-100492151D01*
X249790970Y-100514329D01*
X249799235Y-100537429D01*
X249805196Y-100561227D01*
X249808796Y-100585496D01*
X249810000Y-100610000D01*
X249810000Y-101710000D01*
X249808796Y-101734504D01*
X249805196Y-101758773D01*
X249799235Y-101782571D01*
X249790970Y-101805671D01*
X249780480Y-101827849D01*
X249767867Y-101848893D01*
X249753253Y-101868598D01*
X249736777Y-101886777D01*
X249718598Y-101903253D01*
X249698893Y-101917867D01*
X249677849Y-101930480D01*
X249655671Y-101940970D01*
X249632571Y-101949235D01*
X249608773Y-101955196D01*
X249584504Y-101958796D01*
X249560000Y-101960000D01*
X249060000Y-101960000D01*
X249035496Y-101958796D01*
X249011227Y-101955196D01*
X248987429Y-101949235D01*
X248964329Y-101940970D01*
X248942151Y-101930480D01*
X248921107Y-101917867D01*
X248901402Y-101903253D01*
X248883223Y-101886777D01*
X248866747Y-101868598D01*
X248852133Y-101848893D01*
X248839520Y-101827849D01*
X248829030Y-101805671D01*
X248820765Y-101782571D01*
X248814804Y-101758773D01*
X248811204Y-101734504D01*
X248810000Y-101710000D01*
X248810000Y-100610000D01*
X248811204Y-100585496D01*
X248814804Y-100561227D01*
X248820765Y-100537429D01*
X248829030Y-100514329D01*
X248839520Y-100492151D01*
X248852133Y-100471107D01*
X248866747Y-100451402D01*
X248883223Y-100433223D01*
X248901402Y-100416747D01*
X248921107Y-100402133D01*
X248942151Y-100389520D01*
X248964329Y-100379030D01*
X248987429Y-100370765D01*
X249011227Y-100364804D01*
X249035496Y-100361204D01*
X249060000Y-100360000D01*
X249560000Y-100360000D01*
X249584504Y-100361204D01*
X249584504Y-100361204D01*
G37*
D17*
X249310000Y-101160000D03*
D12*
G36*
X244804504Y-101931204D02*
X244828773Y-101934804D01*
X244852571Y-101940765D01*
X244875671Y-101949030D01*
X244897849Y-101959520D01*
X244918893Y-101972133D01*
X244938598Y-101986747D01*
X244956777Y-102003223D01*
X244973253Y-102021402D01*
X244987867Y-102041107D01*
X245000480Y-102062151D01*
X245010970Y-102084329D01*
X245019235Y-102107429D01*
X245025196Y-102131227D01*
X245028796Y-102155496D01*
X245030000Y-102180000D01*
X245030000Y-102680000D01*
X245028796Y-102704504D01*
X245025196Y-102728773D01*
X245019235Y-102752571D01*
X245010970Y-102775671D01*
X245000480Y-102797849D01*
X244987867Y-102818893D01*
X244973253Y-102838598D01*
X244956777Y-102856777D01*
X244938598Y-102873253D01*
X244918893Y-102887867D01*
X244897849Y-102900480D01*
X244875671Y-102910970D01*
X244852571Y-102919235D01*
X244828773Y-102925196D01*
X244804504Y-102928796D01*
X244780000Y-102930000D01*
X243680000Y-102930000D01*
X243655496Y-102928796D01*
X243631227Y-102925196D01*
X243607429Y-102919235D01*
X243584329Y-102910970D01*
X243562151Y-102900480D01*
X243541107Y-102887867D01*
X243521402Y-102873253D01*
X243503223Y-102856777D01*
X243486747Y-102838598D01*
X243472133Y-102818893D01*
X243459520Y-102797849D01*
X243449030Y-102775671D01*
X243440765Y-102752571D01*
X243434804Y-102728773D01*
X243431204Y-102704504D01*
X243430000Y-102680000D01*
X243430000Y-102180000D01*
X243431204Y-102155496D01*
X243434804Y-102131227D01*
X243440765Y-102107429D01*
X243449030Y-102084329D01*
X243459520Y-102062151D01*
X243472133Y-102041107D01*
X243486747Y-102021402D01*
X243503223Y-102003223D01*
X243521402Y-101986747D01*
X243541107Y-101972133D01*
X243562151Y-101959520D01*
X243584329Y-101949030D01*
X243607429Y-101940765D01*
X243631227Y-101934804D01*
X243655496Y-101931204D01*
X243680000Y-101930000D01*
X244780000Y-101930000D01*
X244804504Y-101931204D01*
X244804504Y-101931204D01*
G37*
D17*
X244230000Y-102430000D03*
D12*
G36*
X244804504Y-103201204D02*
X244828773Y-103204804D01*
X244852571Y-103210765D01*
X244875671Y-103219030D01*
X244897849Y-103229520D01*
X244918893Y-103242133D01*
X244938598Y-103256747D01*
X244956777Y-103273223D01*
X244973253Y-103291402D01*
X244987867Y-103311107D01*
X245000480Y-103332151D01*
X245010970Y-103354329D01*
X245019235Y-103377429D01*
X245025196Y-103401227D01*
X245028796Y-103425496D01*
X245030000Y-103450000D01*
X245030000Y-103950000D01*
X245028796Y-103974504D01*
X245025196Y-103998773D01*
X245019235Y-104022571D01*
X245010970Y-104045671D01*
X245000480Y-104067849D01*
X244987867Y-104088893D01*
X244973253Y-104108598D01*
X244956777Y-104126777D01*
X244938598Y-104143253D01*
X244918893Y-104157867D01*
X244897849Y-104170480D01*
X244875671Y-104180970D01*
X244852571Y-104189235D01*
X244828773Y-104195196D01*
X244804504Y-104198796D01*
X244780000Y-104200000D01*
X243680000Y-104200000D01*
X243655496Y-104198796D01*
X243631227Y-104195196D01*
X243607429Y-104189235D01*
X243584329Y-104180970D01*
X243562151Y-104170480D01*
X243541107Y-104157867D01*
X243521402Y-104143253D01*
X243503223Y-104126777D01*
X243486747Y-104108598D01*
X243472133Y-104088893D01*
X243459520Y-104067849D01*
X243449030Y-104045671D01*
X243440765Y-104022571D01*
X243434804Y-103998773D01*
X243431204Y-103974504D01*
X243430000Y-103950000D01*
X243430000Y-103450000D01*
X243431204Y-103425496D01*
X243434804Y-103401227D01*
X243440765Y-103377429D01*
X243449030Y-103354329D01*
X243459520Y-103332151D01*
X243472133Y-103311107D01*
X243486747Y-103291402D01*
X243503223Y-103273223D01*
X243521402Y-103256747D01*
X243541107Y-103242133D01*
X243562151Y-103229520D01*
X243584329Y-103219030D01*
X243607429Y-103210765D01*
X243631227Y-103204804D01*
X243655496Y-103201204D01*
X243680000Y-103200000D01*
X244780000Y-103200000D01*
X244804504Y-103201204D01*
X244804504Y-103201204D01*
G37*
D17*
X244230000Y-103700000D03*
D12*
G36*
X244804504Y-104471204D02*
X244828773Y-104474804D01*
X244852571Y-104480765D01*
X244875671Y-104489030D01*
X244897849Y-104499520D01*
X244918893Y-104512133D01*
X244938598Y-104526747D01*
X244956777Y-104543223D01*
X244973253Y-104561402D01*
X244987867Y-104581107D01*
X245000480Y-104602151D01*
X245010970Y-104624329D01*
X245019235Y-104647429D01*
X245025196Y-104671227D01*
X245028796Y-104695496D01*
X245030000Y-104720000D01*
X245030000Y-105220000D01*
X245028796Y-105244504D01*
X245025196Y-105268773D01*
X245019235Y-105292571D01*
X245010970Y-105315671D01*
X245000480Y-105337849D01*
X244987867Y-105358893D01*
X244973253Y-105378598D01*
X244956777Y-105396777D01*
X244938598Y-105413253D01*
X244918893Y-105427867D01*
X244897849Y-105440480D01*
X244875671Y-105450970D01*
X244852571Y-105459235D01*
X244828773Y-105465196D01*
X244804504Y-105468796D01*
X244780000Y-105470000D01*
X243680000Y-105470000D01*
X243655496Y-105468796D01*
X243631227Y-105465196D01*
X243607429Y-105459235D01*
X243584329Y-105450970D01*
X243562151Y-105440480D01*
X243541107Y-105427867D01*
X243521402Y-105413253D01*
X243503223Y-105396777D01*
X243486747Y-105378598D01*
X243472133Y-105358893D01*
X243459520Y-105337849D01*
X243449030Y-105315671D01*
X243440765Y-105292571D01*
X243434804Y-105268773D01*
X243431204Y-105244504D01*
X243430000Y-105220000D01*
X243430000Y-104720000D01*
X243431204Y-104695496D01*
X243434804Y-104671227D01*
X243440765Y-104647429D01*
X243449030Y-104624329D01*
X243459520Y-104602151D01*
X243472133Y-104581107D01*
X243486747Y-104561402D01*
X243503223Y-104543223D01*
X243521402Y-104526747D01*
X243541107Y-104512133D01*
X243562151Y-104499520D01*
X243584329Y-104489030D01*
X243607429Y-104480765D01*
X243631227Y-104474804D01*
X243655496Y-104471204D01*
X243680000Y-104470000D01*
X244780000Y-104470000D01*
X244804504Y-104471204D01*
X244804504Y-104471204D01*
G37*
D17*
X244230000Y-104970000D03*
D12*
G36*
X244804504Y-105741204D02*
X244828773Y-105744804D01*
X244852571Y-105750765D01*
X244875671Y-105759030D01*
X244897849Y-105769520D01*
X244918893Y-105782133D01*
X244938598Y-105796747D01*
X244956777Y-105813223D01*
X244973253Y-105831402D01*
X244987867Y-105851107D01*
X245000480Y-105872151D01*
X245010970Y-105894329D01*
X245019235Y-105917429D01*
X245025196Y-105941227D01*
X245028796Y-105965496D01*
X245030000Y-105990000D01*
X245030000Y-106490000D01*
X245028796Y-106514504D01*
X245025196Y-106538773D01*
X245019235Y-106562571D01*
X245010970Y-106585671D01*
X245000480Y-106607849D01*
X244987867Y-106628893D01*
X244973253Y-106648598D01*
X244956777Y-106666777D01*
X244938598Y-106683253D01*
X244918893Y-106697867D01*
X244897849Y-106710480D01*
X244875671Y-106720970D01*
X244852571Y-106729235D01*
X244828773Y-106735196D01*
X244804504Y-106738796D01*
X244780000Y-106740000D01*
X243680000Y-106740000D01*
X243655496Y-106738796D01*
X243631227Y-106735196D01*
X243607429Y-106729235D01*
X243584329Y-106720970D01*
X243562151Y-106710480D01*
X243541107Y-106697867D01*
X243521402Y-106683253D01*
X243503223Y-106666777D01*
X243486747Y-106648598D01*
X243472133Y-106628893D01*
X243459520Y-106607849D01*
X243449030Y-106585671D01*
X243440765Y-106562571D01*
X243434804Y-106538773D01*
X243431204Y-106514504D01*
X243430000Y-106490000D01*
X243430000Y-105990000D01*
X243431204Y-105965496D01*
X243434804Y-105941227D01*
X243440765Y-105917429D01*
X243449030Y-105894329D01*
X243459520Y-105872151D01*
X243472133Y-105851107D01*
X243486747Y-105831402D01*
X243503223Y-105813223D01*
X243521402Y-105796747D01*
X243541107Y-105782133D01*
X243562151Y-105769520D01*
X243584329Y-105759030D01*
X243607429Y-105750765D01*
X243631227Y-105744804D01*
X243655496Y-105741204D01*
X243680000Y-105740000D01*
X244780000Y-105740000D01*
X244804504Y-105741204D01*
X244804504Y-105741204D01*
G37*
D17*
X244230000Y-106240000D03*
D12*
G36*
X244804504Y-107011204D02*
X244828773Y-107014804D01*
X244852571Y-107020765D01*
X244875671Y-107029030D01*
X244897849Y-107039520D01*
X244918893Y-107052133D01*
X244938598Y-107066747D01*
X244956777Y-107083223D01*
X244973253Y-107101402D01*
X244987867Y-107121107D01*
X245000480Y-107142151D01*
X245010970Y-107164329D01*
X245019235Y-107187429D01*
X245025196Y-107211227D01*
X245028796Y-107235496D01*
X245030000Y-107260000D01*
X245030000Y-107760000D01*
X245028796Y-107784504D01*
X245025196Y-107808773D01*
X245019235Y-107832571D01*
X245010970Y-107855671D01*
X245000480Y-107877849D01*
X244987867Y-107898893D01*
X244973253Y-107918598D01*
X244956777Y-107936777D01*
X244938598Y-107953253D01*
X244918893Y-107967867D01*
X244897849Y-107980480D01*
X244875671Y-107990970D01*
X244852571Y-107999235D01*
X244828773Y-108005196D01*
X244804504Y-108008796D01*
X244780000Y-108010000D01*
X243680000Y-108010000D01*
X243655496Y-108008796D01*
X243631227Y-108005196D01*
X243607429Y-107999235D01*
X243584329Y-107990970D01*
X243562151Y-107980480D01*
X243541107Y-107967867D01*
X243521402Y-107953253D01*
X243503223Y-107936777D01*
X243486747Y-107918598D01*
X243472133Y-107898893D01*
X243459520Y-107877849D01*
X243449030Y-107855671D01*
X243440765Y-107832571D01*
X243434804Y-107808773D01*
X243431204Y-107784504D01*
X243430000Y-107760000D01*
X243430000Y-107260000D01*
X243431204Y-107235496D01*
X243434804Y-107211227D01*
X243440765Y-107187429D01*
X243449030Y-107164329D01*
X243459520Y-107142151D01*
X243472133Y-107121107D01*
X243486747Y-107101402D01*
X243503223Y-107083223D01*
X243521402Y-107066747D01*
X243541107Y-107052133D01*
X243562151Y-107039520D01*
X243584329Y-107029030D01*
X243607429Y-107020765D01*
X243631227Y-107014804D01*
X243655496Y-107011204D01*
X243680000Y-107010000D01*
X244780000Y-107010000D01*
X244804504Y-107011204D01*
X244804504Y-107011204D01*
G37*
D17*
X244230000Y-107510000D03*
D12*
G36*
X244804504Y-108281204D02*
X244828773Y-108284804D01*
X244852571Y-108290765D01*
X244875671Y-108299030D01*
X244897849Y-108309520D01*
X244918893Y-108322133D01*
X244938598Y-108336747D01*
X244956777Y-108353223D01*
X244973253Y-108371402D01*
X244987867Y-108391107D01*
X245000480Y-108412151D01*
X245010970Y-108434329D01*
X245019235Y-108457429D01*
X245025196Y-108481227D01*
X245028796Y-108505496D01*
X245030000Y-108530000D01*
X245030000Y-109030000D01*
X245028796Y-109054504D01*
X245025196Y-109078773D01*
X245019235Y-109102571D01*
X245010970Y-109125671D01*
X245000480Y-109147849D01*
X244987867Y-109168893D01*
X244973253Y-109188598D01*
X244956777Y-109206777D01*
X244938598Y-109223253D01*
X244918893Y-109237867D01*
X244897849Y-109250480D01*
X244875671Y-109260970D01*
X244852571Y-109269235D01*
X244828773Y-109275196D01*
X244804504Y-109278796D01*
X244780000Y-109280000D01*
X243680000Y-109280000D01*
X243655496Y-109278796D01*
X243631227Y-109275196D01*
X243607429Y-109269235D01*
X243584329Y-109260970D01*
X243562151Y-109250480D01*
X243541107Y-109237867D01*
X243521402Y-109223253D01*
X243503223Y-109206777D01*
X243486747Y-109188598D01*
X243472133Y-109168893D01*
X243459520Y-109147849D01*
X243449030Y-109125671D01*
X243440765Y-109102571D01*
X243434804Y-109078773D01*
X243431204Y-109054504D01*
X243430000Y-109030000D01*
X243430000Y-108530000D01*
X243431204Y-108505496D01*
X243434804Y-108481227D01*
X243440765Y-108457429D01*
X243449030Y-108434329D01*
X243459520Y-108412151D01*
X243472133Y-108391107D01*
X243486747Y-108371402D01*
X243503223Y-108353223D01*
X243521402Y-108336747D01*
X243541107Y-108322133D01*
X243562151Y-108309520D01*
X243584329Y-108299030D01*
X243607429Y-108290765D01*
X243631227Y-108284804D01*
X243655496Y-108281204D01*
X243680000Y-108280000D01*
X244780000Y-108280000D01*
X244804504Y-108281204D01*
X244804504Y-108281204D01*
G37*
D17*
X244230000Y-108780000D03*
D12*
G36*
X244804504Y-109551204D02*
X244828773Y-109554804D01*
X244852571Y-109560765D01*
X244875671Y-109569030D01*
X244897849Y-109579520D01*
X244918893Y-109592133D01*
X244938598Y-109606747D01*
X244956777Y-109623223D01*
X244973253Y-109641402D01*
X244987867Y-109661107D01*
X245000480Y-109682151D01*
X245010970Y-109704329D01*
X245019235Y-109727429D01*
X245025196Y-109751227D01*
X245028796Y-109775496D01*
X245030000Y-109800000D01*
X245030000Y-110300000D01*
X245028796Y-110324504D01*
X245025196Y-110348773D01*
X245019235Y-110372571D01*
X245010970Y-110395671D01*
X245000480Y-110417849D01*
X244987867Y-110438893D01*
X244973253Y-110458598D01*
X244956777Y-110476777D01*
X244938598Y-110493253D01*
X244918893Y-110507867D01*
X244897849Y-110520480D01*
X244875671Y-110530970D01*
X244852571Y-110539235D01*
X244828773Y-110545196D01*
X244804504Y-110548796D01*
X244780000Y-110550000D01*
X243680000Y-110550000D01*
X243655496Y-110548796D01*
X243631227Y-110545196D01*
X243607429Y-110539235D01*
X243584329Y-110530970D01*
X243562151Y-110520480D01*
X243541107Y-110507867D01*
X243521402Y-110493253D01*
X243503223Y-110476777D01*
X243486747Y-110458598D01*
X243472133Y-110438893D01*
X243459520Y-110417849D01*
X243449030Y-110395671D01*
X243440765Y-110372571D01*
X243434804Y-110348773D01*
X243431204Y-110324504D01*
X243430000Y-110300000D01*
X243430000Y-109800000D01*
X243431204Y-109775496D01*
X243434804Y-109751227D01*
X243440765Y-109727429D01*
X243449030Y-109704329D01*
X243459520Y-109682151D01*
X243472133Y-109661107D01*
X243486747Y-109641402D01*
X243503223Y-109623223D01*
X243521402Y-109606747D01*
X243541107Y-109592133D01*
X243562151Y-109579520D01*
X243584329Y-109569030D01*
X243607429Y-109560765D01*
X243631227Y-109554804D01*
X243655496Y-109551204D01*
X243680000Y-109550000D01*
X244780000Y-109550000D01*
X244804504Y-109551204D01*
X244804504Y-109551204D01*
G37*
D17*
X244230000Y-110050000D03*
D12*
G36*
X244804504Y-110821204D02*
X244828773Y-110824804D01*
X244852571Y-110830765D01*
X244875671Y-110839030D01*
X244897849Y-110849520D01*
X244918893Y-110862133D01*
X244938598Y-110876747D01*
X244956777Y-110893223D01*
X244973253Y-110911402D01*
X244987867Y-110931107D01*
X245000480Y-110952151D01*
X245010970Y-110974329D01*
X245019235Y-110997429D01*
X245025196Y-111021227D01*
X245028796Y-111045496D01*
X245030000Y-111070000D01*
X245030000Y-111570000D01*
X245028796Y-111594504D01*
X245025196Y-111618773D01*
X245019235Y-111642571D01*
X245010970Y-111665671D01*
X245000480Y-111687849D01*
X244987867Y-111708893D01*
X244973253Y-111728598D01*
X244956777Y-111746777D01*
X244938598Y-111763253D01*
X244918893Y-111777867D01*
X244897849Y-111790480D01*
X244875671Y-111800970D01*
X244852571Y-111809235D01*
X244828773Y-111815196D01*
X244804504Y-111818796D01*
X244780000Y-111820000D01*
X243680000Y-111820000D01*
X243655496Y-111818796D01*
X243631227Y-111815196D01*
X243607429Y-111809235D01*
X243584329Y-111800970D01*
X243562151Y-111790480D01*
X243541107Y-111777867D01*
X243521402Y-111763253D01*
X243503223Y-111746777D01*
X243486747Y-111728598D01*
X243472133Y-111708893D01*
X243459520Y-111687849D01*
X243449030Y-111665671D01*
X243440765Y-111642571D01*
X243434804Y-111618773D01*
X243431204Y-111594504D01*
X243430000Y-111570000D01*
X243430000Y-111070000D01*
X243431204Y-111045496D01*
X243434804Y-111021227D01*
X243440765Y-110997429D01*
X243449030Y-110974329D01*
X243459520Y-110952151D01*
X243472133Y-110931107D01*
X243486747Y-110911402D01*
X243503223Y-110893223D01*
X243521402Y-110876747D01*
X243541107Y-110862133D01*
X243562151Y-110849520D01*
X243584329Y-110839030D01*
X243607429Y-110830765D01*
X243631227Y-110824804D01*
X243655496Y-110821204D01*
X243680000Y-110820000D01*
X244780000Y-110820000D01*
X244804504Y-110821204D01*
X244804504Y-110821204D01*
G37*
D17*
X244230000Y-111320000D03*
D12*
G36*
X244804504Y-112091204D02*
X244828773Y-112094804D01*
X244852571Y-112100765D01*
X244875671Y-112109030D01*
X244897849Y-112119520D01*
X244918893Y-112132133D01*
X244938598Y-112146747D01*
X244956777Y-112163223D01*
X244973253Y-112181402D01*
X244987867Y-112201107D01*
X245000480Y-112222151D01*
X245010970Y-112244329D01*
X245019235Y-112267429D01*
X245025196Y-112291227D01*
X245028796Y-112315496D01*
X245030000Y-112340000D01*
X245030000Y-112840000D01*
X245028796Y-112864504D01*
X245025196Y-112888773D01*
X245019235Y-112912571D01*
X245010970Y-112935671D01*
X245000480Y-112957849D01*
X244987867Y-112978893D01*
X244973253Y-112998598D01*
X244956777Y-113016777D01*
X244938598Y-113033253D01*
X244918893Y-113047867D01*
X244897849Y-113060480D01*
X244875671Y-113070970D01*
X244852571Y-113079235D01*
X244828773Y-113085196D01*
X244804504Y-113088796D01*
X244780000Y-113090000D01*
X243680000Y-113090000D01*
X243655496Y-113088796D01*
X243631227Y-113085196D01*
X243607429Y-113079235D01*
X243584329Y-113070970D01*
X243562151Y-113060480D01*
X243541107Y-113047867D01*
X243521402Y-113033253D01*
X243503223Y-113016777D01*
X243486747Y-112998598D01*
X243472133Y-112978893D01*
X243459520Y-112957849D01*
X243449030Y-112935671D01*
X243440765Y-112912571D01*
X243434804Y-112888773D01*
X243431204Y-112864504D01*
X243430000Y-112840000D01*
X243430000Y-112340000D01*
X243431204Y-112315496D01*
X243434804Y-112291227D01*
X243440765Y-112267429D01*
X243449030Y-112244329D01*
X243459520Y-112222151D01*
X243472133Y-112201107D01*
X243486747Y-112181402D01*
X243503223Y-112163223D01*
X243521402Y-112146747D01*
X243541107Y-112132133D01*
X243562151Y-112119520D01*
X243584329Y-112109030D01*
X243607429Y-112100765D01*
X243631227Y-112094804D01*
X243655496Y-112091204D01*
X243680000Y-112090000D01*
X244780000Y-112090000D01*
X244804504Y-112091204D01*
X244804504Y-112091204D01*
G37*
D17*
X244230000Y-112590000D03*
D12*
G36*
X244804504Y-113361204D02*
X244828773Y-113364804D01*
X244852571Y-113370765D01*
X244875671Y-113379030D01*
X244897849Y-113389520D01*
X244918893Y-113402133D01*
X244938598Y-113416747D01*
X244956777Y-113433223D01*
X244973253Y-113451402D01*
X244987867Y-113471107D01*
X245000480Y-113492151D01*
X245010970Y-113514329D01*
X245019235Y-113537429D01*
X245025196Y-113561227D01*
X245028796Y-113585496D01*
X245030000Y-113610000D01*
X245030000Y-114110000D01*
X245028796Y-114134504D01*
X245025196Y-114158773D01*
X245019235Y-114182571D01*
X245010970Y-114205671D01*
X245000480Y-114227849D01*
X244987867Y-114248893D01*
X244973253Y-114268598D01*
X244956777Y-114286777D01*
X244938598Y-114303253D01*
X244918893Y-114317867D01*
X244897849Y-114330480D01*
X244875671Y-114340970D01*
X244852571Y-114349235D01*
X244828773Y-114355196D01*
X244804504Y-114358796D01*
X244780000Y-114360000D01*
X243680000Y-114360000D01*
X243655496Y-114358796D01*
X243631227Y-114355196D01*
X243607429Y-114349235D01*
X243584329Y-114340970D01*
X243562151Y-114330480D01*
X243541107Y-114317867D01*
X243521402Y-114303253D01*
X243503223Y-114286777D01*
X243486747Y-114268598D01*
X243472133Y-114248893D01*
X243459520Y-114227849D01*
X243449030Y-114205671D01*
X243440765Y-114182571D01*
X243434804Y-114158773D01*
X243431204Y-114134504D01*
X243430000Y-114110000D01*
X243430000Y-113610000D01*
X243431204Y-113585496D01*
X243434804Y-113561227D01*
X243440765Y-113537429D01*
X243449030Y-113514329D01*
X243459520Y-113492151D01*
X243472133Y-113471107D01*
X243486747Y-113451402D01*
X243503223Y-113433223D01*
X243521402Y-113416747D01*
X243541107Y-113402133D01*
X243562151Y-113389520D01*
X243584329Y-113379030D01*
X243607429Y-113370765D01*
X243631227Y-113364804D01*
X243655496Y-113361204D01*
X243680000Y-113360000D01*
X244780000Y-113360000D01*
X244804504Y-113361204D01*
X244804504Y-113361204D01*
G37*
D17*
X244230000Y-113860000D03*
D12*
G36*
X244804504Y-114631204D02*
X244828773Y-114634804D01*
X244852571Y-114640765D01*
X244875671Y-114649030D01*
X244897849Y-114659520D01*
X244918893Y-114672133D01*
X244938598Y-114686747D01*
X244956777Y-114703223D01*
X244973253Y-114721402D01*
X244987867Y-114741107D01*
X245000480Y-114762151D01*
X245010970Y-114784329D01*
X245019235Y-114807429D01*
X245025196Y-114831227D01*
X245028796Y-114855496D01*
X245030000Y-114880000D01*
X245030000Y-115380000D01*
X245028796Y-115404504D01*
X245025196Y-115428773D01*
X245019235Y-115452571D01*
X245010970Y-115475671D01*
X245000480Y-115497849D01*
X244987867Y-115518893D01*
X244973253Y-115538598D01*
X244956777Y-115556777D01*
X244938598Y-115573253D01*
X244918893Y-115587867D01*
X244897849Y-115600480D01*
X244875671Y-115610970D01*
X244852571Y-115619235D01*
X244828773Y-115625196D01*
X244804504Y-115628796D01*
X244780000Y-115630000D01*
X243680000Y-115630000D01*
X243655496Y-115628796D01*
X243631227Y-115625196D01*
X243607429Y-115619235D01*
X243584329Y-115610970D01*
X243562151Y-115600480D01*
X243541107Y-115587867D01*
X243521402Y-115573253D01*
X243503223Y-115556777D01*
X243486747Y-115538598D01*
X243472133Y-115518893D01*
X243459520Y-115497849D01*
X243449030Y-115475671D01*
X243440765Y-115452571D01*
X243434804Y-115428773D01*
X243431204Y-115404504D01*
X243430000Y-115380000D01*
X243430000Y-114880000D01*
X243431204Y-114855496D01*
X243434804Y-114831227D01*
X243440765Y-114807429D01*
X243449030Y-114784329D01*
X243459520Y-114762151D01*
X243472133Y-114741107D01*
X243486747Y-114721402D01*
X243503223Y-114703223D01*
X243521402Y-114686747D01*
X243541107Y-114672133D01*
X243562151Y-114659520D01*
X243584329Y-114649030D01*
X243607429Y-114640765D01*
X243631227Y-114634804D01*
X243655496Y-114631204D01*
X243680000Y-114630000D01*
X244780000Y-114630000D01*
X244804504Y-114631204D01*
X244804504Y-114631204D01*
G37*
D17*
X244230000Y-115130000D03*
D12*
G36*
X244804504Y-115901204D02*
X244828773Y-115904804D01*
X244852571Y-115910765D01*
X244875671Y-115919030D01*
X244897849Y-115929520D01*
X244918893Y-115942133D01*
X244938598Y-115956747D01*
X244956777Y-115973223D01*
X244973253Y-115991402D01*
X244987867Y-116011107D01*
X245000480Y-116032151D01*
X245010970Y-116054329D01*
X245019235Y-116077429D01*
X245025196Y-116101227D01*
X245028796Y-116125496D01*
X245030000Y-116150000D01*
X245030000Y-116650000D01*
X245028796Y-116674504D01*
X245025196Y-116698773D01*
X245019235Y-116722571D01*
X245010970Y-116745671D01*
X245000480Y-116767849D01*
X244987867Y-116788893D01*
X244973253Y-116808598D01*
X244956777Y-116826777D01*
X244938598Y-116843253D01*
X244918893Y-116857867D01*
X244897849Y-116870480D01*
X244875671Y-116880970D01*
X244852571Y-116889235D01*
X244828773Y-116895196D01*
X244804504Y-116898796D01*
X244780000Y-116900000D01*
X243680000Y-116900000D01*
X243655496Y-116898796D01*
X243631227Y-116895196D01*
X243607429Y-116889235D01*
X243584329Y-116880970D01*
X243562151Y-116870480D01*
X243541107Y-116857867D01*
X243521402Y-116843253D01*
X243503223Y-116826777D01*
X243486747Y-116808598D01*
X243472133Y-116788893D01*
X243459520Y-116767849D01*
X243449030Y-116745671D01*
X243440765Y-116722571D01*
X243434804Y-116698773D01*
X243431204Y-116674504D01*
X243430000Y-116650000D01*
X243430000Y-116150000D01*
X243431204Y-116125496D01*
X243434804Y-116101227D01*
X243440765Y-116077429D01*
X243449030Y-116054329D01*
X243459520Y-116032151D01*
X243472133Y-116011107D01*
X243486747Y-115991402D01*
X243503223Y-115973223D01*
X243521402Y-115956747D01*
X243541107Y-115942133D01*
X243562151Y-115929520D01*
X243584329Y-115919030D01*
X243607429Y-115910765D01*
X243631227Y-115904804D01*
X243655496Y-115901204D01*
X243680000Y-115900000D01*
X244780000Y-115900000D01*
X244804504Y-115901204D01*
X244804504Y-115901204D01*
G37*
D17*
X244230000Y-116400000D03*
D12*
G36*
X244804504Y-117171204D02*
X244828773Y-117174804D01*
X244852571Y-117180765D01*
X244875671Y-117189030D01*
X244897849Y-117199520D01*
X244918893Y-117212133D01*
X244938598Y-117226747D01*
X244956777Y-117243223D01*
X244973253Y-117261402D01*
X244987867Y-117281107D01*
X245000480Y-117302151D01*
X245010970Y-117324329D01*
X245019235Y-117347429D01*
X245025196Y-117371227D01*
X245028796Y-117395496D01*
X245030000Y-117420000D01*
X245030000Y-117920000D01*
X245028796Y-117944504D01*
X245025196Y-117968773D01*
X245019235Y-117992571D01*
X245010970Y-118015671D01*
X245000480Y-118037849D01*
X244987867Y-118058893D01*
X244973253Y-118078598D01*
X244956777Y-118096777D01*
X244938598Y-118113253D01*
X244918893Y-118127867D01*
X244897849Y-118140480D01*
X244875671Y-118150970D01*
X244852571Y-118159235D01*
X244828773Y-118165196D01*
X244804504Y-118168796D01*
X244780000Y-118170000D01*
X243680000Y-118170000D01*
X243655496Y-118168796D01*
X243631227Y-118165196D01*
X243607429Y-118159235D01*
X243584329Y-118150970D01*
X243562151Y-118140480D01*
X243541107Y-118127867D01*
X243521402Y-118113253D01*
X243503223Y-118096777D01*
X243486747Y-118078598D01*
X243472133Y-118058893D01*
X243459520Y-118037849D01*
X243449030Y-118015671D01*
X243440765Y-117992571D01*
X243434804Y-117968773D01*
X243431204Y-117944504D01*
X243430000Y-117920000D01*
X243430000Y-117420000D01*
X243431204Y-117395496D01*
X243434804Y-117371227D01*
X243440765Y-117347429D01*
X243449030Y-117324329D01*
X243459520Y-117302151D01*
X243472133Y-117281107D01*
X243486747Y-117261402D01*
X243503223Y-117243223D01*
X243521402Y-117226747D01*
X243541107Y-117212133D01*
X243562151Y-117199520D01*
X243584329Y-117189030D01*
X243607429Y-117180765D01*
X243631227Y-117174804D01*
X243655496Y-117171204D01*
X243680000Y-117170000D01*
X244780000Y-117170000D01*
X244804504Y-117171204D01*
X244804504Y-117171204D01*
G37*
D17*
X244230000Y-117670000D03*
D12*
G36*
X244804504Y-118441204D02*
X244828773Y-118444804D01*
X244852571Y-118450765D01*
X244875671Y-118459030D01*
X244897849Y-118469520D01*
X244918893Y-118482133D01*
X244938598Y-118496747D01*
X244956777Y-118513223D01*
X244973253Y-118531402D01*
X244987867Y-118551107D01*
X245000480Y-118572151D01*
X245010970Y-118594329D01*
X245019235Y-118617429D01*
X245025196Y-118641227D01*
X245028796Y-118665496D01*
X245030000Y-118690000D01*
X245030000Y-119190000D01*
X245028796Y-119214504D01*
X245025196Y-119238773D01*
X245019235Y-119262571D01*
X245010970Y-119285671D01*
X245000480Y-119307849D01*
X244987867Y-119328893D01*
X244973253Y-119348598D01*
X244956777Y-119366777D01*
X244938598Y-119383253D01*
X244918893Y-119397867D01*
X244897849Y-119410480D01*
X244875671Y-119420970D01*
X244852571Y-119429235D01*
X244828773Y-119435196D01*
X244804504Y-119438796D01*
X244780000Y-119440000D01*
X243680000Y-119440000D01*
X243655496Y-119438796D01*
X243631227Y-119435196D01*
X243607429Y-119429235D01*
X243584329Y-119420970D01*
X243562151Y-119410480D01*
X243541107Y-119397867D01*
X243521402Y-119383253D01*
X243503223Y-119366777D01*
X243486747Y-119348598D01*
X243472133Y-119328893D01*
X243459520Y-119307849D01*
X243449030Y-119285671D01*
X243440765Y-119262571D01*
X243434804Y-119238773D01*
X243431204Y-119214504D01*
X243430000Y-119190000D01*
X243430000Y-118690000D01*
X243431204Y-118665496D01*
X243434804Y-118641227D01*
X243440765Y-118617429D01*
X243449030Y-118594329D01*
X243459520Y-118572151D01*
X243472133Y-118551107D01*
X243486747Y-118531402D01*
X243503223Y-118513223D01*
X243521402Y-118496747D01*
X243541107Y-118482133D01*
X243562151Y-118469520D01*
X243584329Y-118459030D01*
X243607429Y-118450765D01*
X243631227Y-118444804D01*
X243655496Y-118441204D01*
X243680000Y-118440000D01*
X244780000Y-118440000D01*
X244804504Y-118441204D01*
X244804504Y-118441204D01*
G37*
D17*
X244230000Y-118940000D03*
D12*
G36*
X244804504Y-119711204D02*
X244828773Y-119714804D01*
X244852571Y-119720765D01*
X244875671Y-119729030D01*
X244897849Y-119739520D01*
X244918893Y-119752133D01*
X244938598Y-119766747D01*
X244956777Y-119783223D01*
X244973253Y-119801402D01*
X244987867Y-119821107D01*
X245000480Y-119842151D01*
X245010970Y-119864329D01*
X245019235Y-119887429D01*
X245025196Y-119911227D01*
X245028796Y-119935496D01*
X245030000Y-119960000D01*
X245030000Y-120460000D01*
X245028796Y-120484504D01*
X245025196Y-120508773D01*
X245019235Y-120532571D01*
X245010970Y-120555671D01*
X245000480Y-120577849D01*
X244987867Y-120598893D01*
X244973253Y-120618598D01*
X244956777Y-120636777D01*
X244938598Y-120653253D01*
X244918893Y-120667867D01*
X244897849Y-120680480D01*
X244875671Y-120690970D01*
X244852571Y-120699235D01*
X244828773Y-120705196D01*
X244804504Y-120708796D01*
X244780000Y-120710000D01*
X243680000Y-120710000D01*
X243655496Y-120708796D01*
X243631227Y-120705196D01*
X243607429Y-120699235D01*
X243584329Y-120690970D01*
X243562151Y-120680480D01*
X243541107Y-120667867D01*
X243521402Y-120653253D01*
X243503223Y-120636777D01*
X243486747Y-120618598D01*
X243472133Y-120598893D01*
X243459520Y-120577849D01*
X243449030Y-120555671D01*
X243440765Y-120532571D01*
X243434804Y-120508773D01*
X243431204Y-120484504D01*
X243430000Y-120460000D01*
X243430000Y-119960000D01*
X243431204Y-119935496D01*
X243434804Y-119911227D01*
X243440765Y-119887429D01*
X243449030Y-119864329D01*
X243459520Y-119842151D01*
X243472133Y-119821107D01*
X243486747Y-119801402D01*
X243503223Y-119783223D01*
X243521402Y-119766747D01*
X243541107Y-119752133D01*
X243562151Y-119739520D01*
X243584329Y-119729030D01*
X243607429Y-119720765D01*
X243631227Y-119714804D01*
X243655496Y-119711204D01*
X243680000Y-119710000D01*
X244780000Y-119710000D01*
X244804504Y-119711204D01*
X244804504Y-119711204D01*
G37*
D17*
X244230000Y-120210000D03*
D12*
G36*
X244804504Y-120981204D02*
X244828773Y-120984804D01*
X244852571Y-120990765D01*
X244875671Y-120999030D01*
X244897849Y-121009520D01*
X244918893Y-121022133D01*
X244938598Y-121036747D01*
X244956777Y-121053223D01*
X244973253Y-121071402D01*
X244987867Y-121091107D01*
X245000480Y-121112151D01*
X245010970Y-121134329D01*
X245019235Y-121157429D01*
X245025196Y-121181227D01*
X245028796Y-121205496D01*
X245030000Y-121230000D01*
X245030000Y-121730000D01*
X245028796Y-121754504D01*
X245025196Y-121778773D01*
X245019235Y-121802571D01*
X245010970Y-121825671D01*
X245000480Y-121847849D01*
X244987867Y-121868893D01*
X244973253Y-121888598D01*
X244956777Y-121906777D01*
X244938598Y-121923253D01*
X244918893Y-121937867D01*
X244897849Y-121950480D01*
X244875671Y-121960970D01*
X244852571Y-121969235D01*
X244828773Y-121975196D01*
X244804504Y-121978796D01*
X244780000Y-121980000D01*
X243680000Y-121980000D01*
X243655496Y-121978796D01*
X243631227Y-121975196D01*
X243607429Y-121969235D01*
X243584329Y-121960970D01*
X243562151Y-121950480D01*
X243541107Y-121937867D01*
X243521402Y-121923253D01*
X243503223Y-121906777D01*
X243486747Y-121888598D01*
X243472133Y-121868893D01*
X243459520Y-121847849D01*
X243449030Y-121825671D01*
X243440765Y-121802571D01*
X243434804Y-121778773D01*
X243431204Y-121754504D01*
X243430000Y-121730000D01*
X243430000Y-121230000D01*
X243431204Y-121205496D01*
X243434804Y-121181227D01*
X243440765Y-121157429D01*
X243449030Y-121134329D01*
X243459520Y-121112151D01*
X243472133Y-121091107D01*
X243486747Y-121071402D01*
X243503223Y-121053223D01*
X243521402Y-121036747D01*
X243541107Y-121022133D01*
X243562151Y-121009520D01*
X243584329Y-120999030D01*
X243607429Y-120990765D01*
X243631227Y-120984804D01*
X243655496Y-120981204D01*
X243680000Y-120980000D01*
X244780000Y-120980000D01*
X244804504Y-120981204D01*
X244804504Y-120981204D01*
G37*
D17*
X244230000Y-121480000D03*
D12*
G36*
X244804504Y-122251204D02*
X244828773Y-122254804D01*
X244852571Y-122260765D01*
X244875671Y-122269030D01*
X244897849Y-122279520D01*
X244918893Y-122292133D01*
X244938598Y-122306747D01*
X244956777Y-122323223D01*
X244973253Y-122341402D01*
X244987867Y-122361107D01*
X245000480Y-122382151D01*
X245010970Y-122404329D01*
X245019235Y-122427429D01*
X245025196Y-122451227D01*
X245028796Y-122475496D01*
X245030000Y-122500000D01*
X245030000Y-123000000D01*
X245028796Y-123024504D01*
X245025196Y-123048773D01*
X245019235Y-123072571D01*
X245010970Y-123095671D01*
X245000480Y-123117849D01*
X244987867Y-123138893D01*
X244973253Y-123158598D01*
X244956777Y-123176777D01*
X244938598Y-123193253D01*
X244918893Y-123207867D01*
X244897849Y-123220480D01*
X244875671Y-123230970D01*
X244852571Y-123239235D01*
X244828773Y-123245196D01*
X244804504Y-123248796D01*
X244780000Y-123250000D01*
X243680000Y-123250000D01*
X243655496Y-123248796D01*
X243631227Y-123245196D01*
X243607429Y-123239235D01*
X243584329Y-123230970D01*
X243562151Y-123220480D01*
X243541107Y-123207867D01*
X243521402Y-123193253D01*
X243503223Y-123176777D01*
X243486747Y-123158598D01*
X243472133Y-123138893D01*
X243459520Y-123117849D01*
X243449030Y-123095671D01*
X243440765Y-123072571D01*
X243434804Y-123048773D01*
X243431204Y-123024504D01*
X243430000Y-123000000D01*
X243430000Y-122500000D01*
X243431204Y-122475496D01*
X243434804Y-122451227D01*
X243440765Y-122427429D01*
X243449030Y-122404329D01*
X243459520Y-122382151D01*
X243472133Y-122361107D01*
X243486747Y-122341402D01*
X243503223Y-122323223D01*
X243521402Y-122306747D01*
X243541107Y-122292133D01*
X243562151Y-122279520D01*
X243584329Y-122269030D01*
X243607429Y-122260765D01*
X243631227Y-122254804D01*
X243655496Y-122251204D01*
X243680000Y-122250000D01*
X244780000Y-122250000D01*
X244804504Y-122251204D01*
X244804504Y-122251204D01*
G37*
D17*
X244230000Y-122750000D03*
D12*
G36*
X244804504Y-123521204D02*
X244828773Y-123524804D01*
X244852571Y-123530765D01*
X244875671Y-123539030D01*
X244897849Y-123549520D01*
X244918893Y-123562133D01*
X244938598Y-123576747D01*
X244956777Y-123593223D01*
X244973253Y-123611402D01*
X244987867Y-123631107D01*
X245000480Y-123652151D01*
X245010970Y-123674329D01*
X245019235Y-123697429D01*
X245025196Y-123721227D01*
X245028796Y-123745496D01*
X245030000Y-123770000D01*
X245030000Y-124270000D01*
X245028796Y-124294504D01*
X245025196Y-124318773D01*
X245019235Y-124342571D01*
X245010970Y-124365671D01*
X245000480Y-124387849D01*
X244987867Y-124408893D01*
X244973253Y-124428598D01*
X244956777Y-124446777D01*
X244938598Y-124463253D01*
X244918893Y-124477867D01*
X244897849Y-124490480D01*
X244875671Y-124500970D01*
X244852571Y-124509235D01*
X244828773Y-124515196D01*
X244804504Y-124518796D01*
X244780000Y-124520000D01*
X243680000Y-124520000D01*
X243655496Y-124518796D01*
X243631227Y-124515196D01*
X243607429Y-124509235D01*
X243584329Y-124500970D01*
X243562151Y-124490480D01*
X243541107Y-124477867D01*
X243521402Y-124463253D01*
X243503223Y-124446777D01*
X243486747Y-124428598D01*
X243472133Y-124408893D01*
X243459520Y-124387849D01*
X243449030Y-124365671D01*
X243440765Y-124342571D01*
X243434804Y-124318773D01*
X243431204Y-124294504D01*
X243430000Y-124270000D01*
X243430000Y-123770000D01*
X243431204Y-123745496D01*
X243434804Y-123721227D01*
X243440765Y-123697429D01*
X243449030Y-123674329D01*
X243459520Y-123652151D01*
X243472133Y-123631107D01*
X243486747Y-123611402D01*
X243503223Y-123593223D01*
X243521402Y-123576747D01*
X243541107Y-123562133D01*
X243562151Y-123549520D01*
X243584329Y-123539030D01*
X243607429Y-123530765D01*
X243631227Y-123524804D01*
X243655496Y-123521204D01*
X243680000Y-123520000D01*
X244780000Y-123520000D01*
X244804504Y-123521204D01*
X244804504Y-123521204D01*
G37*
D17*
X244230000Y-124020000D03*
D12*
G36*
X244804504Y-124791204D02*
X244828773Y-124794804D01*
X244852571Y-124800765D01*
X244875671Y-124809030D01*
X244897849Y-124819520D01*
X244918893Y-124832133D01*
X244938598Y-124846747D01*
X244956777Y-124863223D01*
X244973253Y-124881402D01*
X244987867Y-124901107D01*
X245000480Y-124922151D01*
X245010970Y-124944329D01*
X245019235Y-124967429D01*
X245025196Y-124991227D01*
X245028796Y-125015496D01*
X245030000Y-125040000D01*
X245030000Y-125540000D01*
X245028796Y-125564504D01*
X245025196Y-125588773D01*
X245019235Y-125612571D01*
X245010970Y-125635671D01*
X245000480Y-125657849D01*
X244987867Y-125678893D01*
X244973253Y-125698598D01*
X244956777Y-125716777D01*
X244938598Y-125733253D01*
X244918893Y-125747867D01*
X244897849Y-125760480D01*
X244875671Y-125770970D01*
X244852571Y-125779235D01*
X244828773Y-125785196D01*
X244804504Y-125788796D01*
X244780000Y-125790000D01*
X243680000Y-125790000D01*
X243655496Y-125788796D01*
X243631227Y-125785196D01*
X243607429Y-125779235D01*
X243584329Y-125770970D01*
X243562151Y-125760480D01*
X243541107Y-125747867D01*
X243521402Y-125733253D01*
X243503223Y-125716777D01*
X243486747Y-125698598D01*
X243472133Y-125678893D01*
X243459520Y-125657849D01*
X243449030Y-125635671D01*
X243440765Y-125612571D01*
X243434804Y-125588773D01*
X243431204Y-125564504D01*
X243430000Y-125540000D01*
X243430000Y-125040000D01*
X243431204Y-125015496D01*
X243434804Y-124991227D01*
X243440765Y-124967429D01*
X243449030Y-124944329D01*
X243459520Y-124922151D01*
X243472133Y-124901107D01*
X243486747Y-124881402D01*
X243503223Y-124863223D01*
X243521402Y-124846747D01*
X243541107Y-124832133D01*
X243562151Y-124819520D01*
X243584329Y-124809030D01*
X243607429Y-124800765D01*
X243631227Y-124794804D01*
X243655496Y-124791204D01*
X243680000Y-124790000D01*
X244780000Y-124790000D01*
X244804504Y-124791204D01*
X244804504Y-124791204D01*
G37*
D17*
X244230000Y-125290000D03*
D12*
G36*
X244804504Y-126061204D02*
X244828773Y-126064804D01*
X244852571Y-126070765D01*
X244875671Y-126079030D01*
X244897849Y-126089520D01*
X244918893Y-126102133D01*
X244938598Y-126116747D01*
X244956777Y-126133223D01*
X244973253Y-126151402D01*
X244987867Y-126171107D01*
X245000480Y-126192151D01*
X245010970Y-126214329D01*
X245019235Y-126237429D01*
X245025196Y-126261227D01*
X245028796Y-126285496D01*
X245030000Y-126310000D01*
X245030000Y-126810000D01*
X245028796Y-126834504D01*
X245025196Y-126858773D01*
X245019235Y-126882571D01*
X245010970Y-126905671D01*
X245000480Y-126927849D01*
X244987867Y-126948893D01*
X244973253Y-126968598D01*
X244956777Y-126986777D01*
X244938598Y-127003253D01*
X244918893Y-127017867D01*
X244897849Y-127030480D01*
X244875671Y-127040970D01*
X244852571Y-127049235D01*
X244828773Y-127055196D01*
X244804504Y-127058796D01*
X244780000Y-127060000D01*
X243680000Y-127060000D01*
X243655496Y-127058796D01*
X243631227Y-127055196D01*
X243607429Y-127049235D01*
X243584329Y-127040970D01*
X243562151Y-127030480D01*
X243541107Y-127017867D01*
X243521402Y-127003253D01*
X243503223Y-126986777D01*
X243486747Y-126968598D01*
X243472133Y-126948893D01*
X243459520Y-126927849D01*
X243449030Y-126905671D01*
X243440765Y-126882571D01*
X243434804Y-126858773D01*
X243431204Y-126834504D01*
X243430000Y-126810000D01*
X243430000Y-126310000D01*
X243431204Y-126285496D01*
X243434804Y-126261227D01*
X243440765Y-126237429D01*
X243449030Y-126214329D01*
X243459520Y-126192151D01*
X243472133Y-126171107D01*
X243486747Y-126151402D01*
X243503223Y-126133223D01*
X243521402Y-126116747D01*
X243541107Y-126102133D01*
X243562151Y-126089520D01*
X243584329Y-126079030D01*
X243607429Y-126070765D01*
X243631227Y-126064804D01*
X243655496Y-126061204D01*
X243680000Y-126060000D01*
X244780000Y-126060000D01*
X244804504Y-126061204D01*
X244804504Y-126061204D01*
G37*
D17*
X244230000Y-126560000D03*
G04 #@! TD*
D12*
G04 #@! TO.C,U1*
G36*
X214457252Y-139945602D02*
X214469386Y-139947402D01*
X214481286Y-139950382D01*
X214492835Y-139954515D01*
X214503925Y-139959760D01*
X214514446Y-139966066D01*
X214524299Y-139973374D01*
X214533388Y-139981612D01*
X214541626Y-139990701D01*
X214548934Y-140000554D01*
X214555240Y-140011075D01*
X214560485Y-140022165D01*
X214564618Y-140033714D01*
X214567598Y-140045614D01*
X214569398Y-140057748D01*
X214570000Y-140070000D01*
X214570000Y-141320000D01*
X214569398Y-141332252D01*
X214567598Y-141344386D01*
X214564618Y-141356286D01*
X214560485Y-141367835D01*
X214555240Y-141378925D01*
X214548934Y-141389446D01*
X214541626Y-141399299D01*
X214533388Y-141408388D01*
X214524299Y-141416626D01*
X214514446Y-141423934D01*
X214503925Y-141430240D01*
X214492835Y-141435485D01*
X214481286Y-141439618D01*
X214469386Y-141442598D01*
X214457252Y-141444398D01*
X214445000Y-141445000D01*
X214195000Y-141445000D01*
X214182748Y-141444398D01*
X214170614Y-141442598D01*
X214158714Y-141439618D01*
X214147165Y-141435485D01*
X214136075Y-141430240D01*
X214125554Y-141423934D01*
X214115701Y-141416626D01*
X214106612Y-141408388D01*
X214098374Y-141399299D01*
X214091066Y-141389446D01*
X214084760Y-141378925D01*
X214079515Y-141367835D01*
X214075382Y-141356286D01*
X214072402Y-141344386D01*
X214070602Y-141332252D01*
X214070000Y-141320000D01*
X214070000Y-140070000D01*
X214070602Y-140057748D01*
X214072402Y-140045614D01*
X214075382Y-140033714D01*
X214079515Y-140022165D01*
X214084760Y-140011075D01*
X214091066Y-140000554D01*
X214098374Y-139990701D01*
X214106612Y-139981612D01*
X214115701Y-139973374D01*
X214125554Y-139966066D01*
X214136075Y-139959760D01*
X214147165Y-139954515D01*
X214158714Y-139950382D01*
X214170614Y-139947402D01*
X214182748Y-139945602D01*
X214195000Y-139945000D01*
X214445000Y-139945000D01*
X214457252Y-139945602D01*
X214457252Y-139945602D01*
G37*
D18*
X214320000Y-140695000D03*
D12*
G36*
X215257252Y-139945602D02*
X215269386Y-139947402D01*
X215281286Y-139950382D01*
X215292835Y-139954515D01*
X215303925Y-139959760D01*
X215314446Y-139966066D01*
X215324299Y-139973374D01*
X215333388Y-139981612D01*
X215341626Y-139990701D01*
X215348934Y-140000554D01*
X215355240Y-140011075D01*
X215360485Y-140022165D01*
X215364618Y-140033714D01*
X215367598Y-140045614D01*
X215369398Y-140057748D01*
X215370000Y-140070000D01*
X215370000Y-141320000D01*
X215369398Y-141332252D01*
X215367598Y-141344386D01*
X215364618Y-141356286D01*
X215360485Y-141367835D01*
X215355240Y-141378925D01*
X215348934Y-141389446D01*
X215341626Y-141399299D01*
X215333388Y-141408388D01*
X215324299Y-141416626D01*
X215314446Y-141423934D01*
X215303925Y-141430240D01*
X215292835Y-141435485D01*
X215281286Y-141439618D01*
X215269386Y-141442598D01*
X215257252Y-141444398D01*
X215245000Y-141445000D01*
X214995000Y-141445000D01*
X214982748Y-141444398D01*
X214970614Y-141442598D01*
X214958714Y-141439618D01*
X214947165Y-141435485D01*
X214936075Y-141430240D01*
X214925554Y-141423934D01*
X214915701Y-141416626D01*
X214906612Y-141408388D01*
X214898374Y-141399299D01*
X214891066Y-141389446D01*
X214884760Y-141378925D01*
X214879515Y-141367835D01*
X214875382Y-141356286D01*
X214872402Y-141344386D01*
X214870602Y-141332252D01*
X214870000Y-141320000D01*
X214870000Y-140070000D01*
X214870602Y-140057748D01*
X214872402Y-140045614D01*
X214875382Y-140033714D01*
X214879515Y-140022165D01*
X214884760Y-140011075D01*
X214891066Y-140000554D01*
X214898374Y-139990701D01*
X214906612Y-139981612D01*
X214915701Y-139973374D01*
X214925554Y-139966066D01*
X214936075Y-139959760D01*
X214947165Y-139954515D01*
X214958714Y-139950382D01*
X214970614Y-139947402D01*
X214982748Y-139945602D01*
X214995000Y-139945000D01*
X215245000Y-139945000D01*
X215257252Y-139945602D01*
X215257252Y-139945602D01*
G37*
D18*
X215120000Y-140695000D03*
D12*
G36*
X216057252Y-139945602D02*
X216069386Y-139947402D01*
X216081286Y-139950382D01*
X216092835Y-139954515D01*
X216103925Y-139959760D01*
X216114446Y-139966066D01*
X216124299Y-139973374D01*
X216133388Y-139981612D01*
X216141626Y-139990701D01*
X216148934Y-140000554D01*
X216155240Y-140011075D01*
X216160485Y-140022165D01*
X216164618Y-140033714D01*
X216167598Y-140045614D01*
X216169398Y-140057748D01*
X216170000Y-140070000D01*
X216170000Y-141320000D01*
X216169398Y-141332252D01*
X216167598Y-141344386D01*
X216164618Y-141356286D01*
X216160485Y-141367835D01*
X216155240Y-141378925D01*
X216148934Y-141389446D01*
X216141626Y-141399299D01*
X216133388Y-141408388D01*
X216124299Y-141416626D01*
X216114446Y-141423934D01*
X216103925Y-141430240D01*
X216092835Y-141435485D01*
X216081286Y-141439618D01*
X216069386Y-141442598D01*
X216057252Y-141444398D01*
X216045000Y-141445000D01*
X215795000Y-141445000D01*
X215782748Y-141444398D01*
X215770614Y-141442598D01*
X215758714Y-141439618D01*
X215747165Y-141435485D01*
X215736075Y-141430240D01*
X215725554Y-141423934D01*
X215715701Y-141416626D01*
X215706612Y-141408388D01*
X215698374Y-141399299D01*
X215691066Y-141389446D01*
X215684760Y-141378925D01*
X215679515Y-141367835D01*
X215675382Y-141356286D01*
X215672402Y-141344386D01*
X215670602Y-141332252D01*
X215670000Y-141320000D01*
X215670000Y-140070000D01*
X215670602Y-140057748D01*
X215672402Y-140045614D01*
X215675382Y-140033714D01*
X215679515Y-140022165D01*
X215684760Y-140011075D01*
X215691066Y-140000554D01*
X215698374Y-139990701D01*
X215706612Y-139981612D01*
X215715701Y-139973374D01*
X215725554Y-139966066D01*
X215736075Y-139959760D01*
X215747165Y-139954515D01*
X215758714Y-139950382D01*
X215770614Y-139947402D01*
X215782748Y-139945602D01*
X215795000Y-139945000D01*
X216045000Y-139945000D01*
X216057252Y-139945602D01*
X216057252Y-139945602D01*
G37*
D18*
X215920000Y-140695000D03*
D12*
G36*
X216857252Y-139945602D02*
X216869386Y-139947402D01*
X216881286Y-139950382D01*
X216892835Y-139954515D01*
X216903925Y-139959760D01*
X216914446Y-139966066D01*
X216924299Y-139973374D01*
X216933388Y-139981612D01*
X216941626Y-139990701D01*
X216948934Y-140000554D01*
X216955240Y-140011075D01*
X216960485Y-140022165D01*
X216964618Y-140033714D01*
X216967598Y-140045614D01*
X216969398Y-140057748D01*
X216970000Y-140070000D01*
X216970000Y-141320000D01*
X216969398Y-141332252D01*
X216967598Y-141344386D01*
X216964618Y-141356286D01*
X216960485Y-141367835D01*
X216955240Y-141378925D01*
X216948934Y-141389446D01*
X216941626Y-141399299D01*
X216933388Y-141408388D01*
X216924299Y-141416626D01*
X216914446Y-141423934D01*
X216903925Y-141430240D01*
X216892835Y-141435485D01*
X216881286Y-141439618D01*
X216869386Y-141442598D01*
X216857252Y-141444398D01*
X216845000Y-141445000D01*
X216595000Y-141445000D01*
X216582748Y-141444398D01*
X216570614Y-141442598D01*
X216558714Y-141439618D01*
X216547165Y-141435485D01*
X216536075Y-141430240D01*
X216525554Y-141423934D01*
X216515701Y-141416626D01*
X216506612Y-141408388D01*
X216498374Y-141399299D01*
X216491066Y-141389446D01*
X216484760Y-141378925D01*
X216479515Y-141367835D01*
X216475382Y-141356286D01*
X216472402Y-141344386D01*
X216470602Y-141332252D01*
X216470000Y-141320000D01*
X216470000Y-140070000D01*
X216470602Y-140057748D01*
X216472402Y-140045614D01*
X216475382Y-140033714D01*
X216479515Y-140022165D01*
X216484760Y-140011075D01*
X216491066Y-140000554D01*
X216498374Y-139990701D01*
X216506612Y-139981612D01*
X216515701Y-139973374D01*
X216525554Y-139966066D01*
X216536075Y-139959760D01*
X216547165Y-139954515D01*
X216558714Y-139950382D01*
X216570614Y-139947402D01*
X216582748Y-139945602D01*
X216595000Y-139945000D01*
X216845000Y-139945000D01*
X216857252Y-139945602D01*
X216857252Y-139945602D01*
G37*
D18*
X216720000Y-140695000D03*
D12*
G36*
X217657252Y-139945602D02*
X217669386Y-139947402D01*
X217681286Y-139950382D01*
X217692835Y-139954515D01*
X217703925Y-139959760D01*
X217714446Y-139966066D01*
X217724299Y-139973374D01*
X217733388Y-139981612D01*
X217741626Y-139990701D01*
X217748934Y-140000554D01*
X217755240Y-140011075D01*
X217760485Y-140022165D01*
X217764618Y-140033714D01*
X217767598Y-140045614D01*
X217769398Y-140057748D01*
X217770000Y-140070000D01*
X217770000Y-141320000D01*
X217769398Y-141332252D01*
X217767598Y-141344386D01*
X217764618Y-141356286D01*
X217760485Y-141367835D01*
X217755240Y-141378925D01*
X217748934Y-141389446D01*
X217741626Y-141399299D01*
X217733388Y-141408388D01*
X217724299Y-141416626D01*
X217714446Y-141423934D01*
X217703925Y-141430240D01*
X217692835Y-141435485D01*
X217681286Y-141439618D01*
X217669386Y-141442598D01*
X217657252Y-141444398D01*
X217645000Y-141445000D01*
X217395000Y-141445000D01*
X217382748Y-141444398D01*
X217370614Y-141442598D01*
X217358714Y-141439618D01*
X217347165Y-141435485D01*
X217336075Y-141430240D01*
X217325554Y-141423934D01*
X217315701Y-141416626D01*
X217306612Y-141408388D01*
X217298374Y-141399299D01*
X217291066Y-141389446D01*
X217284760Y-141378925D01*
X217279515Y-141367835D01*
X217275382Y-141356286D01*
X217272402Y-141344386D01*
X217270602Y-141332252D01*
X217270000Y-141320000D01*
X217270000Y-140070000D01*
X217270602Y-140057748D01*
X217272402Y-140045614D01*
X217275382Y-140033714D01*
X217279515Y-140022165D01*
X217284760Y-140011075D01*
X217291066Y-140000554D01*
X217298374Y-139990701D01*
X217306612Y-139981612D01*
X217315701Y-139973374D01*
X217325554Y-139966066D01*
X217336075Y-139959760D01*
X217347165Y-139954515D01*
X217358714Y-139950382D01*
X217370614Y-139947402D01*
X217382748Y-139945602D01*
X217395000Y-139945000D01*
X217645000Y-139945000D01*
X217657252Y-139945602D01*
X217657252Y-139945602D01*
G37*
D18*
X217520000Y-140695000D03*
D12*
G36*
X218457252Y-139945602D02*
X218469386Y-139947402D01*
X218481286Y-139950382D01*
X218492835Y-139954515D01*
X218503925Y-139959760D01*
X218514446Y-139966066D01*
X218524299Y-139973374D01*
X218533388Y-139981612D01*
X218541626Y-139990701D01*
X218548934Y-140000554D01*
X218555240Y-140011075D01*
X218560485Y-140022165D01*
X218564618Y-140033714D01*
X218567598Y-140045614D01*
X218569398Y-140057748D01*
X218570000Y-140070000D01*
X218570000Y-141320000D01*
X218569398Y-141332252D01*
X218567598Y-141344386D01*
X218564618Y-141356286D01*
X218560485Y-141367835D01*
X218555240Y-141378925D01*
X218548934Y-141389446D01*
X218541626Y-141399299D01*
X218533388Y-141408388D01*
X218524299Y-141416626D01*
X218514446Y-141423934D01*
X218503925Y-141430240D01*
X218492835Y-141435485D01*
X218481286Y-141439618D01*
X218469386Y-141442598D01*
X218457252Y-141444398D01*
X218445000Y-141445000D01*
X218195000Y-141445000D01*
X218182748Y-141444398D01*
X218170614Y-141442598D01*
X218158714Y-141439618D01*
X218147165Y-141435485D01*
X218136075Y-141430240D01*
X218125554Y-141423934D01*
X218115701Y-141416626D01*
X218106612Y-141408388D01*
X218098374Y-141399299D01*
X218091066Y-141389446D01*
X218084760Y-141378925D01*
X218079515Y-141367835D01*
X218075382Y-141356286D01*
X218072402Y-141344386D01*
X218070602Y-141332252D01*
X218070000Y-141320000D01*
X218070000Y-140070000D01*
X218070602Y-140057748D01*
X218072402Y-140045614D01*
X218075382Y-140033714D01*
X218079515Y-140022165D01*
X218084760Y-140011075D01*
X218091066Y-140000554D01*
X218098374Y-139990701D01*
X218106612Y-139981612D01*
X218115701Y-139973374D01*
X218125554Y-139966066D01*
X218136075Y-139959760D01*
X218147165Y-139954515D01*
X218158714Y-139950382D01*
X218170614Y-139947402D01*
X218182748Y-139945602D01*
X218195000Y-139945000D01*
X218445000Y-139945000D01*
X218457252Y-139945602D01*
X218457252Y-139945602D01*
G37*
D18*
X218320000Y-140695000D03*
D12*
G36*
X219257252Y-139945602D02*
X219269386Y-139947402D01*
X219281286Y-139950382D01*
X219292835Y-139954515D01*
X219303925Y-139959760D01*
X219314446Y-139966066D01*
X219324299Y-139973374D01*
X219333388Y-139981612D01*
X219341626Y-139990701D01*
X219348934Y-140000554D01*
X219355240Y-140011075D01*
X219360485Y-140022165D01*
X219364618Y-140033714D01*
X219367598Y-140045614D01*
X219369398Y-140057748D01*
X219370000Y-140070000D01*
X219370000Y-141320000D01*
X219369398Y-141332252D01*
X219367598Y-141344386D01*
X219364618Y-141356286D01*
X219360485Y-141367835D01*
X219355240Y-141378925D01*
X219348934Y-141389446D01*
X219341626Y-141399299D01*
X219333388Y-141408388D01*
X219324299Y-141416626D01*
X219314446Y-141423934D01*
X219303925Y-141430240D01*
X219292835Y-141435485D01*
X219281286Y-141439618D01*
X219269386Y-141442598D01*
X219257252Y-141444398D01*
X219245000Y-141445000D01*
X218995000Y-141445000D01*
X218982748Y-141444398D01*
X218970614Y-141442598D01*
X218958714Y-141439618D01*
X218947165Y-141435485D01*
X218936075Y-141430240D01*
X218925554Y-141423934D01*
X218915701Y-141416626D01*
X218906612Y-141408388D01*
X218898374Y-141399299D01*
X218891066Y-141389446D01*
X218884760Y-141378925D01*
X218879515Y-141367835D01*
X218875382Y-141356286D01*
X218872402Y-141344386D01*
X218870602Y-141332252D01*
X218870000Y-141320000D01*
X218870000Y-140070000D01*
X218870602Y-140057748D01*
X218872402Y-140045614D01*
X218875382Y-140033714D01*
X218879515Y-140022165D01*
X218884760Y-140011075D01*
X218891066Y-140000554D01*
X218898374Y-139990701D01*
X218906612Y-139981612D01*
X218915701Y-139973374D01*
X218925554Y-139966066D01*
X218936075Y-139959760D01*
X218947165Y-139954515D01*
X218958714Y-139950382D01*
X218970614Y-139947402D01*
X218982748Y-139945602D01*
X218995000Y-139945000D01*
X219245000Y-139945000D01*
X219257252Y-139945602D01*
X219257252Y-139945602D01*
G37*
D18*
X219120000Y-140695000D03*
D12*
G36*
X220057252Y-139945602D02*
X220069386Y-139947402D01*
X220081286Y-139950382D01*
X220092835Y-139954515D01*
X220103925Y-139959760D01*
X220114446Y-139966066D01*
X220124299Y-139973374D01*
X220133388Y-139981612D01*
X220141626Y-139990701D01*
X220148934Y-140000554D01*
X220155240Y-140011075D01*
X220160485Y-140022165D01*
X220164618Y-140033714D01*
X220167598Y-140045614D01*
X220169398Y-140057748D01*
X220170000Y-140070000D01*
X220170000Y-141320000D01*
X220169398Y-141332252D01*
X220167598Y-141344386D01*
X220164618Y-141356286D01*
X220160485Y-141367835D01*
X220155240Y-141378925D01*
X220148934Y-141389446D01*
X220141626Y-141399299D01*
X220133388Y-141408388D01*
X220124299Y-141416626D01*
X220114446Y-141423934D01*
X220103925Y-141430240D01*
X220092835Y-141435485D01*
X220081286Y-141439618D01*
X220069386Y-141442598D01*
X220057252Y-141444398D01*
X220045000Y-141445000D01*
X219795000Y-141445000D01*
X219782748Y-141444398D01*
X219770614Y-141442598D01*
X219758714Y-141439618D01*
X219747165Y-141435485D01*
X219736075Y-141430240D01*
X219725554Y-141423934D01*
X219715701Y-141416626D01*
X219706612Y-141408388D01*
X219698374Y-141399299D01*
X219691066Y-141389446D01*
X219684760Y-141378925D01*
X219679515Y-141367835D01*
X219675382Y-141356286D01*
X219672402Y-141344386D01*
X219670602Y-141332252D01*
X219670000Y-141320000D01*
X219670000Y-140070000D01*
X219670602Y-140057748D01*
X219672402Y-140045614D01*
X219675382Y-140033714D01*
X219679515Y-140022165D01*
X219684760Y-140011075D01*
X219691066Y-140000554D01*
X219698374Y-139990701D01*
X219706612Y-139981612D01*
X219715701Y-139973374D01*
X219725554Y-139966066D01*
X219736075Y-139959760D01*
X219747165Y-139954515D01*
X219758714Y-139950382D01*
X219770614Y-139947402D01*
X219782748Y-139945602D01*
X219795000Y-139945000D01*
X220045000Y-139945000D01*
X220057252Y-139945602D01*
X220057252Y-139945602D01*
G37*
D18*
X219920000Y-140695000D03*
D12*
G36*
X221932252Y-139070602D02*
X221944386Y-139072402D01*
X221956286Y-139075382D01*
X221967835Y-139079515D01*
X221978925Y-139084760D01*
X221989446Y-139091066D01*
X221999299Y-139098374D01*
X222008388Y-139106612D01*
X222016626Y-139115701D01*
X222023934Y-139125554D01*
X222030240Y-139136075D01*
X222035485Y-139147165D01*
X222039618Y-139158714D01*
X222042598Y-139170614D01*
X222044398Y-139182748D01*
X222045000Y-139195000D01*
X222045000Y-139445000D01*
X222044398Y-139457252D01*
X222042598Y-139469386D01*
X222039618Y-139481286D01*
X222035485Y-139492835D01*
X222030240Y-139503925D01*
X222023934Y-139514446D01*
X222016626Y-139524299D01*
X222008388Y-139533388D01*
X221999299Y-139541626D01*
X221989446Y-139548934D01*
X221978925Y-139555240D01*
X221967835Y-139560485D01*
X221956286Y-139564618D01*
X221944386Y-139567598D01*
X221932252Y-139569398D01*
X221920000Y-139570000D01*
X220670000Y-139570000D01*
X220657748Y-139569398D01*
X220645614Y-139567598D01*
X220633714Y-139564618D01*
X220622165Y-139560485D01*
X220611075Y-139555240D01*
X220600554Y-139548934D01*
X220590701Y-139541626D01*
X220581612Y-139533388D01*
X220573374Y-139524299D01*
X220566066Y-139514446D01*
X220559760Y-139503925D01*
X220554515Y-139492835D01*
X220550382Y-139481286D01*
X220547402Y-139469386D01*
X220545602Y-139457252D01*
X220545000Y-139445000D01*
X220545000Y-139195000D01*
X220545602Y-139182748D01*
X220547402Y-139170614D01*
X220550382Y-139158714D01*
X220554515Y-139147165D01*
X220559760Y-139136075D01*
X220566066Y-139125554D01*
X220573374Y-139115701D01*
X220581612Y-139106612D01*
X220590701Y-139098374D01*
X220600554Y-139091066D01*
X220611075Y-139084760D01*
X220622165Y-139079515D01*
X220633714Y-139075382D01*
X220645614Y-139072402D01*
X220657748Y-139070602D01*
X220670000Y-139070000D01*
X221920000Y-139070000D01*
X221932252Y-139070602D01*
X221932252Y-139070602D01*
G37*
D18*
X221295000Y-139320000D03*
D12*
G36*
X221932252Y-138270602D02*
X221944386Y-138272402D01*
X221956286Y-138275382D01*
X221967835Y-138279515D01*
X221978925Y-138284760D01*
X221989446Y-138291066D01*
X221999299Y-138298374D01*
X222008388Y-138306612D01*
X222016626Y-138315701D01*
X222023934Y-138325554D01*
X222030240Y-138336075D01*
X222035485Y-138347165D01*
X222039618Y-138358714D01*
X222042598Y-138370614D01*
X222044398Y-138382748D01*
X222045000Y-138395000D01*
X222045000Y-138645000D01*
X222044398Y-138657252D01*
X222042598Y-138669386D01*
X222039618Y-138681286D01*
X222035485Y-138692835D01*
X222030240Y-138703925D01*
X222023934Y-138714446D01*
X222016626Y-138724299D01*
X222008388Y-138733388D01*
X221999299Y-138741626D01*
X221989446Y-138748934D01*
X221978925Y-138755240D01*
X221967835Y-138760485D01*
X221956286Y-138764618D01*
X221944386Y-138767598D01*
X221932252Y-138769398D01*
X221920000Y-138770000D01*
X220670000Y-138770000D01*
X220657748Y-138769398D01*
X220645614Y-138767598D01*
X220633714Y-138764618D01*
X220622165Y-138760485D01*
X220611075Y-138755240D01*
X220600554Y-138748934D01*
X220590701Y-138741626D01*
X220581612Y-138733388D01*
X220573374Y-138724299D01*
X220566066Y-138714446D01*
X220559760Y-138703925D01*
X220554515Y-138692835D01*
X220550382Y-138681286D01*
X220547402Y-138669386D01*
X220545602Y-138657252D01*
X220545000Y-138645000D01*
X220545000Y-138395000D01*
X220545602Y-138382748D01*
X220547402Y-138370614D01*
X220550382Y-138358714D01*
X220554515Y-138347165D01*
X220559760Y-138336075D01*
X220566066Y-138325554D01*
X220573374Y-138315701D01*
X220581612Y-138306612D01*
X220590701Y-138298374D01*
X220600554Y-138291066D01*
X220611075Y-138284760D01*
X220622165Y-138279515D01*
X220633714Y-138275382D01*
X220645614Y-138272402D01*
X220657748Y-138270602D01*
X220670000Y-138270000D01*
X221920000Y-138270000D01*
X221932252Y-138270602D01*
X221932252Y-138270602D01*
G37*
D18*
X221295000Y-138520000D03*
D12*
G36*
X221932252Y-137470602D02*
X221944386Y-137472402D01*
X221956286Y-137475382D01*
X221967835Y-137479515D01*
X221978925Y-137484760D01*
X221989446Y-137491066D01*
X221999299Y-137498374D01*
X222008388Y-137506612D01*
X222016626Y-137515701D01*
X222023934Y-137525554D01*
X222030240Y-137536075D01*
X222035485Y-137547165D01*
X222039618Y-137558714D01*
X222042598Y-137570614D01*
X222044398Y-137582748D01*
X222045000Y-137595000D01*
X222045000Y-137845000D01*
X222044398Y-137857252D01*
X222042598Y-137869386D01*
X222039618Y-137881286D01*
X222035485Y-137892835D01*
X222030240Y-137903925D01*
X222023934Y-137914446D01*
X222016626Y-137924299D01*
X222008388Y-137933388D01*
X221999299Y-137941626D01*
X221989446Y-137948934D01*
X221978925Y-137955240D01*
X221967835Y-137960485D01*
X221956286Y-137964618D01*
X221944386Y-137967598D01*
X221932252Y-137969398D01*
X221920000Y-137970000D01*
X220670000Y-137970000D01*
X220657748Y-137969398D01*
X220645614Y-137967598D01*
X220633714Y-137964618D01*
X220622165Y-137960485D01*
X220611075Y-137955240D01*
X220600554Y-137948934D01*
X220590701Y-137941626D01*
X220581612Y-137933388D01*
X220573374Y-137924299D01*
X220566066Y-137914446D01*
X220559760Y-137903925D01*
X220554515Y-137892835D01*
X220550382Y-137881286D01*
X220547402Y-137869386D01*
X220545602Y-137857252D01*
X220545000Y-137845000D01*
X220545000Y-137595000D01*
X220545602Y-137582748D01*
X220547402Y-137570614D01*
X220550382Y-137558714D01*
X220554515Y-137547165D01*
X220559760Y-137536075D01*
X220566066Y-137525554D01*
X220573374Y-137515701D01*
X220581612Y-137506612D01*
X220590701Y-137498374D01*
X220600554Y-137491066D01*
X220611075Y-137484760D01*
X220622165Y-137479515D01*
X220633714Y-137475382D01*
X220645614Y-137472402D01*
X220657748Y-137470602D01*
X220670000Y-137470000D01*
X221920000Y-137470000D01*
X221932252Y-137470602D01*
X221932252Y-137470602D01*
G37*
D18*
X221295000Y-137720000D03*
D12*
G36*
X221932252Y-136670602D02*
X221944386Y-136672402D01*
X221956286Y-136675382D01*
X221967835Y-136679515D01*
X221978925Y-136684760D01*
X221989446Y-136691066D01*
X221999299Y-136698374D01*
X222008388Y-136706612D01*
X222016626Y-136715701D01*
X222023934Y-136725554D01*
X222030240Y-136736075D01*
X222035485Y-136747165D01*
X222039618Y-136758714D01*
X222042598Y-136770614D01*
X222044398Y-136782748D01*
X222045000Y-136795000D01*
X222045000Y-137045000D01*
X222044398Y-137057252D01*
X222042598Y-137069386D01*
X222039618Y-137081286D01*
X222035485Y-137092835D01*
X222030240Y-137103925D01*
X222023934Y-137114446D01*
X222016626Y-137124299D01*
X222008388Y-137133388D01*
X221999299Y-137141626D01*
X221989446Y-137148934D01*
X221978925Y-137155240D01*
X221967835Y-137160485D01*
X221956286Y-137164618D01*
X221944386Y-137167598D01*
X221932252Y-137169398D01*
X221920000Y-137170000D01*
X220670000Y-137170000D01*
X220657748Y-137169398D01*
X220645614Y-137167598D01*
X220633714Y-137164618D01*
X220622165Y-137160485D01*
X220611075Y-137155240D01*
X220600554Y-137148934D01*
X220590701Y-137141626D01*
X220581612Y-137133388D01*
X220573374Y-137124299D01*
X220566066Y-137114446D01*
X220559760Y-137103925D01*
X220554515Y-137092835D01*
X220550382Y-137081286D01*
X220547402Y-137069386D01*
X220545602Y-137057252D01*
X220545000Y-137045000D01*
X220545000Y-136795000D01*
X220545602Y-136782748D01*
X220547402Y-136770614D01*
X220550382Y-136758714D01*
X220554515Y-136747165D01*
X220559760Y-136736075D01*
X220566066Y-136725554D01*
X220573374Y-136715701D01*
X220581612Y-136706612D01*
X220590701Y-136698374D01*
X220600554Y-136691066D01*
X220611075Y-136684760D01*
X220622165Y-136679515D01*
X220633714Y-136675382D01*
X220645614Y-136672402D01*
X220657748Y-136670602D01*
X220670000Y-136670000D01*
X221920000Y-136670000D01*
X221932252Y-136670602D01*
X221932252Y-136670602D01*
G37*
D18*
X221295000Y-136920000D03*
D12*
G36*
X221932252Y-135870602D02*
X221944386Y-135872402D01*
X221956286Y-135875382D01*
X221967835Y-135879515D01*
X221978925Y-135884760D01*
X221989446Y-135891066D01*
X221999299Y-135898374D01*
X222008388Y-135906612D01*
X222016626Y-135915701D01*
X222023934Y-135925554D01*
X222030240Y-135936075D01*
X222035485Y-135947165D01*
X222039618Y-135958714D01*
X222042598Y-135970614D01*
X222044398Y-135982748D01*
X222045000Y-135995000D01*
X222045000Y-136245000D01*
X222044398Y-136257252D01*
X222042598Y-136269386D01*
X222039618Y-136281286D01*
X222035485Y-136292835D01*
X222030240Y-136303925D01*
X222023934Y-136314446D01*
X222016626Y-136324299D01*
X222008388Y-136333388D01*
X221999299Y-136341626D01*
X221989446Y-136348934D01*
X221978925Y-136355240D01*
X221967835Y-136360485D01*
X221956286Y-136364618D01*
X221944386Y-136367598D01*
X221932252Y-136369398D01*
X221920000Y-136370000D01*
X220670000Y-136370000D01*
X220657748Y-136369398D01*
X220645614Y-136367598D01*
X220633714Y-136364618D01*
X220622165Y-136360485D01*
X220611075Y-136355240D01*
X220600554Y-136348934D01*
X220590701Y-136341626D01*
X220581612Y-136333388D01*
X220573374Y-136324299D01*
X220566066Y-136314446D01*
X220559760Y-136303925D01*
X220554515Y-136292835D01*
X220550382Y-136281286D01*
X220547402Y-136269386D01*
X220545602Y-136257252D01*
X220545000Y-136245000D01*
X220545000Y-135995000D01*
X220545602Y-135982748D01*
X220547402Y-135970614D01*
X220550382Y-135958714D01*
X220554515Y-135947165D01*
X220559760Y-135936075D01*
X220566066Y-135925554D01*
X220573374Y-135915701D01*
X220581612Y-135906612D01*
X220590701Y-135898374D01*
X220600554Y-135891066D01*
X220611075Y-135884760D01*
X220622165Y-135879515D01*
X220633714Y-135875382D01*
X220645614Y-135872402D01*
X220657748Y-135870602D01*
X220670000Y-135870000D01*
X221920000Y-135870000D01*
X221932252Y-135870602D01*
X221932252Y-135870602D01*
G37*
D18*
X221295000Y-136120000D03*
D12*
G36*
X221932252Y-135070602D02*
X221944386Y-135072402D01*
X221956286Y-135075382D01*
X221967835Y-135079515D01*
X221978925Y-135084760D01*
X221989446Y-135091066D01*
X221999299Y-135098374D01*
X222008388Y-135106612D01*
X222016626Y-135115701D01*
X222023934Y-135125554D01*
X222030240Y-135136075D01*
X222035485Y-135147165D01*
X222039618Y-135158714D01*
X222042598Y-135170614D01*
X222044398Y-135182748D01*
X222045000Y-135195000D01*
X222045000Y-135445000D01*
X222044398Y-135457252D01*
X222042598Y-135469386D01*
X222039618Y-135481286D01*
X222035485Y-135492835D01*
X222030240Y-135503925D01*
X222023934Y-135514446D01*
X222016626Y-135524299D01*
X222008388Y-135533388D01*
X221999299Y-135541626D01*
X221989446Y-135548934D01*
X221978925Y-135555240D01*
X221967835Y-135560485D01*
X221956286Y-135564618D01*
X221944386Y-135567598D01*
X221932252Y-135569398D01*
X221920000Y-135570000D01*
X220670000Y-135570000D01*
X220657748Y-135569398D01*
X220645614Y-135567598D01*
X220633714Y-135564618D01*
X220622165Y-135560485D01*
X220611075Y-135555240D01*
X220600554Y-135548934D01*
X220590701Y-135541626D01*
X220581612Y-135533388D01*
X220573374Y-135524299D01*
X220566066Y-135514446D01*
X220559760Y-135503925D01*
X220554515Y-135492835D01*
X220550382Y-135481286D01*
X220547402Y-135469386D01*
X220545602Y-135457252D01*
X220545000Y-135445000D01*
X220545000Y-135195000D01*
X220545602Y-135182748D01*
X220547402Y-135170614D01*
X220550382Y-135158714D01*
X220554515Y-135147165D01*
X220559760Y-135136075D01*
X220566066Y-135125554D01*
X220573374Y-135115701D01*
X220581612Y-135106612D01*
X220590701Y-135098374D01*
X220600554Y-135091066D01*
X220611075Y-135084760D01*
X220622165Y-135079515D01*
X220633714Y-135075382D01*
X220645614Y-135072402D01*
X220657748Y-135070602D01*
X220670000Y-135070000D01*
X221920000Y-135070000D01*
X221932252Y-135070602D01*
X221932252Y-135070602D01*
G37*
D18*
X221295000Y-135320000D03*
D12*
G36*
X221932252Y-134270602D02*
X221944386Y-134272402D01*
X221956286Y-134275382D01*
X221967835Y-134279515D01*
X221978925Y-134284760D01*
X221989446Y-134291066D01*
X221999299Y-134298374D01*
X222008388Y-134306612D01*
X222016626Y-134315701D01*
X222023934Y-134325554D01*
X222030240Y-134336075D01*
X222035485Y-134347165D01*
X222039618Y-134358714D01*
X222042598Y-134370614D01*
X222044398Y-134382748D01*
X222045000Y-134395000D01*
X222045000Y-134645000D01*
X222044398Y-134657252D01*
X222042598Y-134669386D01*
X222039618Y-134681286D01*
X222035485Y-134692835D01*
X222030240Y-134703925D01*
X222023934Y-134714446D01*
X222016626Y-134724299D01*
X222008388Y-134733388D01*
X221999299Y-134741626D01*
X221989446Y-134748934D01*
X221978925Y-134755240D01*
X221967835Y-134760485D01*
X221956286Y-134764618D01*
X221944386Y-134767598D01*
X221932252Y-134769398D01*
X221920000Y-134770000D01*
X220670000Y-134770000D01*
X220657748Y-134769398D01*
X220645614Y-134767598D01*
X220633714Y-134764618D01*
X220622165Y-134760485D01*
X220611075Y-134755240D01*
X220600554Y-134748934D01*
X220590701Y-134741626D01*
X220581612Y-134733388D01*
X220573374Y-134724299D01*
X220566066Y-134714446D01*
X220559760Y-134703925D01*
X220554515Y-134692835D01*
X220550382Y-134681286D01*
X220547402Y-134669386D01*
X220545602Y-134657252D01*
X220545000Y-134645000D01*
X220545000Y-134395000D01*
X220545602Y-134382748D01*
X220547402Y-134370614D01*
X220550382Y-134358714D01*
X220554515Y-134347165D01*
X220559760Y-134336075D01*
X220566066Y-134325554D01*
X220573374Y-134315701D01*
X220581612Y-134306612D01*
X220590701Y-134298374D01*
X220600554Y-134291066D01*
X220611075Y-134284760D01*
X220622165Y-134279515D01*
X220633714Y-134275382D01*
X220645614Y-134272402D01*
X220657748Y-134270602D01*
X220670000Y-134270000D01*
X221920000Y-134270000D01*
X221932252Y-134270602D01*
X221932252Y-134270602D01*
G37*
D18*
X221295000Y-134520000D03*
D12*
G36*
X221932252Y-133470602D02*
X221944386Y-133472402D01*
X221956286Y-133475382D01*
X221967835Y-133479515D01*
X221978925Y-133484760D01*
X221989446Y-133491066D01*
X221999299Y-133498374D01*
X222008388Y-133506612D01*
X222016626Y-133515701D01*
X222023934Y-133525554D01*
X222030240Y-133536075D01*
X222035485Y-133547165D01*
X222039618Y-133558714D01*
X222042598Y-133570614D01*
X222044398Y-133582748D01*
X222045000Y-133595000D01*
X222045000Y-133845000D01*
X222044398Y-133857252D01*
X222042598Y-133869386D01*
X222039618Y-133881286D01*
X222035485Y-133892835D01*
X222030240Y-133903925D01*
X222023934Y-133914446D01*
X222016626Y-133924299D01*
X222008388Y-133933388D01*
X221999299Y-133941626D01*
X221989446Y-133948934D01*
X221978925Y-133955240D01*
X221967835Y-133960485D01*
X221956286Y-133964618D01*
X221944386Y-133967598D01*
X221932252Y-133969398D01*
X221920000Y-133970000D01*
X220670000Y-133970000D01*
X220657748Y-133969398D01*
X220645614Y-133967598D01*
X220633714Y-133964618D01*
X220622165Y-133960485D01*
X220611075Y-133955240D01*
X220600554Y-133948934D01*
X220590701Y-133941626D01*
X220581612Y-133933388D01*
X220573374Y-133924299D01*
X220566066Y-133914446D01*
X220559760Y-133903925D01*
X220554515Y-133892835D01*
X220550382Y-133881286D01*
X220547402Y-133869386D01*
X220545602Y-133857252D01*
X220545000Y-133845000D01*
X220545000Y-133595000D01*
X220545602Y-133582748D01*
X220547402Y-133570614D01*
X220550382Y-133558714D01*
X220554515Y-133547165D01*
X220559760Y-133536075D01*
X220566066Y-133525554D01*
X220573374Y-133515701D01*
X220581612Y-133506612D01*
X220590701Y-133498374D01*
X220600554Y-133491066D01*
X220611075Y-133484760D01*
X220622165Y-133479515D01*
X220633714Y-133475382D01*
X220645614Y-133472402D01*
X220657748Y-133470602D01*
X220670000Y-133470000D01*
X221920000Y-133470000D01*
X221932252Y-133470602D01*
X221932252Y-133470602D01*
G37*
D18*
X221295000Y-133720000D03*
D12*
G36*
X220057252Y-131595602D02*
X220069386Y-131597402D01*
X220081286Y-131600382D01*
X220092835Y-131604515D01*
X220103925Y-131609760D01*
X220114446Y-131616066D01*
X220124299Y-131623374D01*
X220133388Y-131631612D01*
X220141626Y-131640701D01*
X220148934Y-131650554D01*
X220155240Y-131661075D01*
X220160485Y-131672165D01*
X220164618Y-131683714D01*
X220167598Y-131695614D01*
X220169398Y-131707748D01*
X220170000Y-131720000D01*
X220170000Y-132970000D01*
X220169398Y-132982252D01*
X220167598Y-132994386D01*
X220164618Y-133006286D01*
X220160485Y-133017835D01*
X220155240Y-133028925D01*
X220148934Y-133039446D01*
X220141626Y-133049299D01*
X220133388Y-133058388D01*
X220124299Y-133066626D01*
X220114446Y-133073934D01*
X220103925Y-133080240D01*
X220092835Y-133085485D01*
X220081286Y-133089618D01*
X220069386Y-133092598D01*
X220057252Y-133094398D01*
X220045000Y-133095000D01*
X219795000Y-133095000D01*
X219782748Y-133094398D01*
X219770614Y-133092598D01*
X219758714Y-133089618D01*
X219747165Y-133085485D01*
X219736075Y-133080240D01*
X219725554Y-133073934D01*
X219715701Y-133066626D01*
X219706612Y-133058388D01*
X219698374Y-133049299D01*
X219691066Y-133039446D01*
X219684760Y-133028925D01*
X219679515Y-133017835D01*
X219675382Y-133006286D01*
X219672402Y-132994386D01*
X219670602Y-132982252D01*
X219670000Y-132970000D01*
X219670000Y-131720000D01*
X219670602Y-131707748D01*
X219672402Y-131695614D01*
X219675382Y-131683714D01*
X219679515Y-131672165D01*
X219684760Y-131661075D01*
X219691066Y-131650554D01*
X219698374Y-131640701D01*
X219706612Y-131631612D01*
X219715701Y-131623374D01*
X219725554Y-131616066D01*
X219736075Y-131609760D01*
X219747165Y-131604515D01*
X219758714Y-131600382D01*
X219770614Y-131597402D01*
X219782748Y-131595602D01*
X219795000Y-131595000D01*
X220045000Y-131595000D01*
X220057252Y-131595602D01*
X220057252Y-131595602D01*
G37*
D18*
X219920000Y-132345000D03*
D12*
G36*
X219257252Y-131595602D02*
X219269386Y-131597402D01*
X219281286Y-131600382D01*
X219292835Y-131604515D01*
X219303925Y-131609760D01*
X219314446Y-131616066D01*
X219324299Y-131623374D01*
X219333388Y-131631612D01*
X219341626Y-131640701D01*
X219348934Y-131650554D01*
X219355240Y-131661075D01*
X219360485Y-131672165D01*
X219364618Y-131683714D01*
X219367598Y-131695614D01*
X219369398Y-131707748D01*
X219370000Y-131720000D01*
X219370000Y-132970000D01*
X219369398Y-132982252D01*
X219367598Y-132994386D01*
X219364618Y-133006286D01*
X219360485Y-133017835D01*
X219355240Y-133028925D01*
X219348934Y-133039446D01*
X219341626Y-133049299D01*
X219333388Y-133058388D01*
X219324299Y-133066626D01*
X219314446Y-133073934D01*
X219303925Y-133080240D01*
X219292835Y-133085485D01*
X219281286Y-133089618D01*
X219269386Y-133092598D01*
X219257252Y-133094398D01*
X219245000Y-133095000D01*
X218995000Y-133095000D01*
X218982748Y-133094398D01*
X218970614Y-133092598D01*
X218958714Y-133089618D01*
X218947165Y-133085485D01*
X218936075Y-133080240D01*
X218925554Y-133073934D01*
X218915701Y-133066626D01*
X218906612Y-133058388D01*
X218898374Y-133049299D01*
X218891066Y-133039446D01*
X218884760Y-133028925D01*
X218879515Y-133017835D01*
X218875382Y-133006286D01*
X218872402Y-132994386D01*
X218870602Y-132982252D01*
X218870000Y-132970000D01*
X218870000Y-131720000D01*
X218870602Y-131707748D01*
X218872402Y-131695614D01*
X218875382Y-131683714D01*
X218879515Y-131672165D01*
X218884760Y-131661075D01*
X218891066Y-131650554D01*
X218898374Y-131640701D01*
X218906612Y-131631612D01*
X218915701Y-131623374D01*
X218925554Y-131616066D01*
X218936075Y-131609760D01*
X218947165Y-131604515D01*
X218958714Y-131600382D01*
X218970614Y-131597402D01*
X218982748Y-131595602D01*
X218995000Y-131595000D01*
X219245000Y-131595000D01*
X219257252Y-131595602D01*
X219257252Y-131595602D01*
G37*
D18*
X219120000Y-132345000D03*
D12*
G36*
X218457252Y-131595602D02*
X218469386Y-131597402D01*
X218481286Y-131600382D01*
X218492835Y-131604515D01*
X218503925Y-131609760D01*
X218514446Y-131616066D01*
X218524299Y-131623374D01*
X218533388Y-131631612D01*
X218541626Y-131640701D01*
X218548934Y-131650554D01*
X218555240Y-131661075D01*
X218560485Y-131672165D01*
X218564618Y-131683714D01*
X218567598Y-131695614D01*
X218569398Y-131707748D01*
X218570000Y-131720000D01*
X218570000Y-132970000D01*
X218569398Y-132982252D01*
X218567598Y-132994386D01*
X218564618Y-133006286D01*
X218560485Y-133017835D01*
X218555240Y-133028925D01*
X218548934Y-133039446D01*
X218541626Y-133049299D01*
X218533388Y-133058388D01*
X218524299Y-133066626D01*
X218514446Y-133073934D01*
X218503925Y-133080240D01*
X218492835Y-133085485D01*
X218481286Y-133089618D01*
X218469386Y-133092598D01*
X218457252Y-133094398D01*
X218445000Y-133095000D01*
X218195000Y-133095000D01*
X218182748Y-133094398D01*
X218170614Y-133092598D01*
X218158714Y-133089618D01*
X218147165Y-133085485D01*
X218136075Y-133080240D01*
X218125554Y-133073934D01*
X218115701Y-133066626D01*
X218106612Y-133058388D01*
X218098374Y-133049299D01*
X218091066Y-133039446D01*
X218084760Y-133028925D01*
X218079515Y-133017835D01*
X218075382Y-133006286D01*
X218072402Y-132994386D01*
X218070602Y-132982252D01*
X218070000Y-132970000D01*
X218070000Y-131720000D01*
X218070602Y-131707748D01*
X218072402Y-131695614D01*
X218075382Y-131683714D01*
X218079515Y-131672165D01*
X218084760Y-131661075D01*
X218091066Y-131650554D01*
X218098374Y-131640701D01*
X218106612Y-131631612D01*
X218115701Y-131623374D01*
X218125554Y-131616066D01*
X218136075Y-131609760D01*
X218147165Y-131604515D01*
X218158714Y-131600382D01*
X218170614Y-131597402D01*
X218182748Y-131595602D01*
X218195000Y-131595000D01*
X218445000Y-131595000D01*
X218457252Y-131595602D01*
X218457252Y-131595602D01*
G37*
D18*
X218320000Y-132345000D03*
D12*
G36*
X217657252Y-131595602D02*
X217669386Y-131597402D01*
X217681286Y-131600382D01*
X217692835Y-131604515D01*
X217703925Y-131609760D01*
X217714446Y-131616066D01*
X217724299Y-131623374D01*
X217733388Y-131631612D01*
X217741626Y-131640701D01*
X217748934Y-131650554D01*
X217755240Y-131661075D01*
X217760485Y-131672165D01*
X217764618Y-131683714D01*
X217767598Y-131695614D01*
X217769398Y-131707748D01*
X217770000Y-131720000D01*
X217770000Y-132970000D01*
X217769398Y-132982252D01*
X217767598Y-132994386D01*
X217764618Y-133006286D01*
X217760485Y-133017835D01*
X217755240Y-133028925D01*
X217748934Y-133039446D01*
X217741626Y-133049299D01*
X217733388Y-133058388D01*
X217724299Y-133066626D01*
X217714446Y-133073934D01*
X217703925Y-133080240D01*
X217692835Y-133085485D01*
X217681286Y-133089618D01*
X217669386Y-133092598D01*
X217657252Y-133094398D01*
X217645000Y-133095000D01*
X217395000Y-133095000D01*
X217382748Y-133094398D01*
X217370614Y-133092598D01*
X217358714Y-133089618D01*
X217347165Y-133085485D01*
X217336075Y-133080240D01*
X217325554Y-133073934D01*
X217315701Y-133066626D01*
X217306612Y-133058388D01*
X217298374Y-133049299D01*
X217291066Y-133039446D01*
X217284760Y-133028925D01*
X217279515Y-133017835D01*
X217275382Y-133006286D01*
X217272402Y-132994386D01*
X217270602Y-132982252D01*
X217270000Y-132970000D01*
X217270000Y-131720000D01*
X217270602Y-131707748D01*
X217272402Y-131695614D01*
X217275382Y-131683714D01*
X217279515Y-131672165D01*
X217284760Y-131661075D01*
X217291066Y-131650554D01*
X217298374Y-131640701D01*
X217306612Y-131631612D01*
X217315701Y-131623374D01*
X217325554Y-131616066D01*
X217336075Y-131609760D01*
X217347165Y-131604515D01*
X217358714Y-131600382D01*
X217370614Y-131597402D01*
X217382748Y-131595602D01*
X217395000Y-131595000D01*
X217645000Y-131595000D01*
X217657252Y-131595602D01*
X217657252Y-131595602D01*
G37*
D18*
X217520000Y-132345000D03*
D12*
G36*
X216857252Y-131595602D02*
X216869386Y-131597402D01*
X216881286Y-131600382D01*
X216892835Y-131604515D01*
X216903925Y-131609760D01*
X216914446Y-131616066D01*
X216924299Y-131623374D01*
X216933388Y-131631612D01*
X216941626Y-131640701D01*
X216948934Y-131650554D01*
X216955240Y-131661075D01*
X216960485Y-131672165D01*
X216964618Y-131683714D01*
X216967598Y-131695614D01*
X216969398Y-131707748D01*
X216970000Y-131720000D01*
X216970000Y-132970000D01*
X216969398Y-132982252D01*
X216967598Y-132994386D01*
X216964618Y-133006286D01*
X216960485Y-133017835D01*
X216955240Y-133028925D01*
X216948934Y-133039446D01*
X216941626Y-133049299D01*
X216933388Y-133058388D01*
X216924299Y-133066626D01*
X216914446Y-133073934D01*
X216903925Y-133080240D01*
X216892835Y-133085485D01*
X216881286Y-133089618D01*
X216869386Y-133092598D01*
X216857252Y-133094398D01*
X216845000Y-133095000D01*
X216595000Y-133095000D01*
X216582748Y-133094398D01*
X216570614Y-133092598D01*
X216558714Y-133089618D01*
X216547165Y-133085485D01*
X216536075Y-133080240D01*
X216525554Y-133073934D01*
X216515701Y-133066626D01*
X216506612Y-133058388D01*
X216498374Y-133049299D01*
X216491066Y-133039446D01*
X216484760Y-133028925D01*
X216479515Y-133017835D01*
X216475382Y-133006286D01*
X216472402Y-132994386D01*
X216470602Y-132982252D01*
X216470000Y-132970000D01*
X216470000Y-131720000D01*
X216470602Y-131707748D01*
X216472402Y-131695614D01*
X216475382Y-131683714D01*
X216479515Y-131672165D01*
X216484760Y-131661075D01*
X216491066Y-131650554D01*
X216498374Y-131640701D01*
X216506612Y-131631612D01*
X216515701Y-131623374D01*
X216525554Y-131616066D01*
X216536075Y-131609760D01*
X216547165Y-131604515D01*
X216558714Y-131600382D01*
X216570614Y-131597402D01*
X216582748Y-131595602D01*
X216595000Y-131595000D01*
X216845000Y-131595000D01*
X216857252Y-131595602D01*
X216857252Y-131595602D01*
G37*
D18*
X216720000Y-132345000D03*
D12*
G36*
X216057252Y-131595602D02*
X216069386Y-131597402D01*
X216081286Y-131600382D01*
X216092835Y-131604515D01*
X216103925Y-131609760D01*
X216114446Y-131616066D01*
X216124299Y-131623374D01*
X216133388Y-131631612D01*
X216141626Y-131640701D01*
X216148934Y-131650554D01*
X216155240Y-131661075D01*
X216160485Y-131672165D01*
X216164618Y-131683714D01*
X216167598Y-131695614D01*
X216169398Y-131707748D01*
X216170000Y-131720000D01*
X216170000Y-132970000D01*
X216169398Y-132982252D01*
X216167598Y-132994386D01*
X216164618Y-133006286D01*
X216160485Y-133017835D01*
X216155240Y-133028925D01*
X216148934Y-133039446D01*
X216141626Y-133049299D01*
X216133388Y-133058388D01*
X216124299Y-133066626D01*
X216114446Y-133073934D01*
X216103925Y-133080240D01*
X216092835Y-133085485D01*
X216081286Y-133089618D01*
X216069386Y-133092598D01*
X216057252Y-133094398D01*
X216045000Y-133095000D01*
X215795000Y-133095000D01*
X215782748Y-133094398D01*
X215770614Y-133092598D01*
X215758714Y-133089618D01*
X215747165Y-133085485D01*
X215736075Y-133080240D01*
X215725554Y-133073934D01*
X215715701Y-133066626D01*
X215706612Y-133058388D01*
X215698374Y-133049299D01*
X215691066Y-133039446D01*
X215684760Y-133028925D01*
X215679515Y-133017835D01*
X215675382Y-133006286D01*
X215672402Y-132994386D01*
X215670602Y-132982252D01*
X215670000Y-132970000D01*
X215670000Y-131720000D01*
X215670602Y-131707748D01*
X215672402Y-131695614D01*
X215675382Y-131683714D01*
X215679515Y-131672165D01*
X215684760Y-131661075D01*
X215691066Y-131650554D01*
X215698374Y-131640701D01*
X215706612Y-131631612D01*
X215715701Y-131623374D01*
X215725554Y-131616066D01*
X215736075Y-131609760D01*
X215747165Y-131604515D01*
X215758714Y-131600382D01*
X215770614Y-131597402D01*
X215782748Y-131595602D01*
X215795000Y-131595000D01*
X216045000Y-131595000D01*
X216057252Y-131595602D01*
X216057252Y-131595602D01*
G37*
D18*
X215920000Y-132345000D03*
D12*
G36*
X215257252Y-131595602D02*
X215269386Y-131597402D01*
X215281286Y-131600382D01*
X215292835Y-131604515D01*
X215303925Y-131609760D01*
X215314446Y-131616066D01*
X215324299Y-131623374D01*
X215333388Y-131631612D01*
X215341626Y-131640701D01*
X215348934Y-131650554D01*
X215355240Y-131661075D01*
X215360485Y-131672165D01*
X215364618Y-131683714D01*
X215367598Y-131695614D01*
X215369398Y-131707748D01*
X215370000Y-131720000D01*
X215370000Y-132970000D01*
X215369398Y-132982252D01*
X215367598Y-132994386D01*
X215364618Y-133006286D01*
X215360485Y-133017835D01*
X215355240Y-133028925D01*
X215348934Y-133039446D01*
X215341626Y-133049299D01*
X215333388Y-133058388D01*
X215324299Y-133066626D01*
X215314446Y-133073934D01*
X215303925Y-133080240D01*
X215292835Y-133085485D01*
X215281286Y-133089618D01*
X215269386Y-133092598D01*
X215257252Y-133094398D01*
X215245000Y-133095000D01*
X214995000Y-133095000D01*
X214982748Y-133094398D01*
X214970614Y-133092598D01*
X214958714Y-133089618D01*
X214947165Y-133085485D01*
X214936075Y-133080240D01*
X214925554Y-133073934D01*
X214915701Y-133066626D01*
X214906612Y-133058388D01*
X214898374Y-133049299D01*
X214891066Y-133039446D01*
X214884760Y-133028925D01*
X214879515Y-133017835D01*
X214875382Y-133006286D01*
X214872402Y-132994386D01*
X214870602Y-132982252D01*
X214870000Y-132970000D01*
X214870000Y-131720000D01*
X214870602Y-131707748D01*
X214872402Y-131695614D01*
X214875382Y-131683714D01*
X214879515Y-131672165D01*
X214884760Y-131661075D01*
X214891066Y-131650554D01*
X214898374Y-131640701D01*
X214906612Y-131631612D01*
X214915701Y-131623374D01*
X214925554Y-131616066D01*
X214936075Y-131609760D01*
X214947165Y-131604515D01*
X214958714Y-131600382D01*
X214970614Y-131597402D01*
X214982748Y-131595602D01*
X214995000Y-131595000D01*
X215245000Y-131595000D01*
X215257252Y-131595602D01*
X215257252Y-131595602D01*
G37*
D18*
X215120000Y-132345000D03*
D12*
G36*
X214457252Y-131595602D02*
X214469386Y-131597402D01*
X214481286Y-131600382D01*
X214492835Y-131604515D01*
X214503925Y-131609760D01*
X214514446Y-131616066D01*
X214524299Y-131623374D01*
X214533388Y-131631612D01*
X214541626Y-131640701D01*
X214548934Y-131650554D01*
X214555240Y-131661075D01*
X214560485Y-131672165D01*
X214564618Y-131683714D01*
X214567598Y-131695614D01*
X214569398Y-131707748D01*
X214570000Y-131720000D01*
X214570000Y-132970000D01*
X214569398Y-132982252D01*
X214567598Y-132994386D01*
X214564618Y-133006286D01*
X214560485Y-133017835D01*
X214555240Y-133028925D01*
X214548934Y-133039446D01*
X214541626Y-133049299D01*
X214533388Y-133058388D01*
X214524299Y-133066626D01*
X214514446Y-133073934D01*
X214503925Y-133080240D01*
X214492835Y-133085485D01*
X214481286Y-133089618D01*
X214469386Y-133092598D01*
X214457252Y-133094398D01*
X214445000Y-133095000D01*
X214195000Y-133095000D01*
X214182748Y-133094398D01*
X214170614Y-133092598D01*
X214158714Y-133089618D01*
X214147165Y-133085485D01*
X214136075Y-133080240D01*
X214125554Y-133073934D01*
X214115701Y-133066626D01*
X214106612Y-133058388D01*
X214098374Y-133049299D01*
X214091066Y-133039446D01*
X214084760Y-133028925D01*
X214079515Y-133017835D01*
X214075382Y-133006286D01*
X214072402Y-132994386D01*
X214070602Y-132982252D01*
X214070000Y-132970000D01*
X214070000Y-131720000D01*
X214070602Y-131707748D01*
X214072402Y-131695614D01*
X214075382Y-131683714D01*
X214079515Y-131672165D01*
X214084760Y-131661075D01*
X214091066Y-131650554D01*
X214098374Y-131640701D01*
X214106612Y-131631612D01*
X214115701Y-131623374D01*
X214125554Y-131616066D01*
X214136075Y-131609760D01*
X214147165Y-131604515D01*
X214158714Y-131600382D01*
X214170614Y-131597402D01*
X214182748Y-131595602D01*
X214195000Y-131595000D01*
X214445000Y-131595000D01*
X214457252Y-131595602D01*
X214457252Y-131595602D01*
G37*
D18*
X214320000Y-132345000D03*
D12*
G36*
X213582252Y-133470602D02*
X213594386Y-133472402D01*
X213606286Y-133475382D01*
X213617835Y-133479515D01*
X213628925Y-133484760D01*
X213639446Y-133491066D01*
X213649299Y-133498374D01*
X213658388Y-133506612D01*
X213666626Y-133515701D01*
X213673934Y-133525554D01*
X213680240Y-133536075D01*
X213685485Y-133547165D01*
X213689618Y-133558714D01*
X213692598Y-133570614D01*
X213694398Y-133582748D01*
X213695000Y-133595000D01*
X213695000Y-133845000D01*
X213694398Y-133857252D01*
X213692598Y-133869386D01*
X213689618Y-133881286D01*
X213685485Y-133892835D01*
X213680240Y-133903925D01*
X213673934Y-133914446D01*
X213666626Y-133924299D01*
X213658388Y-133933388D01*
X213649299Y-133941626D01*
X213639446Y-133948934D01*
X213628925Y-133955240D01*
X213617835Y-133960485D01*
X213606286Y-133964618D01*
X213594386Y-133967598D01*
X213582252Y-133969398D01*
X213570000Y-133970000D01*
X212320000Y-133970000D01*
X212307748Y-133969398D01*
X212295614Y-133967598D01*
X212283714Y-133964618D01*
X212272165Y-133960485D01*
X212261075Y-133955240D01*
X212250554Y-133948934D01*
X212240701Y-133941626D01*
X212231612Y-133933388D01*
X212223374Y-133924299D01*
X212216066Y-133914446D01*
X212209760Y-133903925D01*
X212204515Y-133892835D01*
X212200382Y-133881286D01*
X212197402Y-133869386D01*
X212195602Y-133857252D01*
X212195000Y-133845000D01*
X212195000Y-133595000D01*
X212195602Y-133582748D01*
X212197402Y-133570614D01*
X212200382Y-133558714D01*
X212204515Y-133547165D01*
X212209760Y-133536075D01*
X212216066Y-133525554D01*
X212223374Y-133515701D01*
X212231612Y-133506612D01*
X212240701Y-133498374D01*
X212250554Y-133491066D01*
X212261075Y-133484760D01*
X212272165Y-133479515D01*
X212283714Y-133475382D01*
X212295614Y-133472402D01*
X212307748Y-133470602D01*
X212320000Y-133470000D01*
X213570000Y-133470000D01*
X213582252Y-133470602D01*
X213582252Y-133470602D01*
G37*
D18*
X212945000Y-133720000D03*
D12*
G36*
X213582252Y-134270602D02*
X213594386Y-134272402D01*
X213606286Y-134275382D01*
X213617835Y-134279515D01*
X213628925Y-134284760D01*
X213639446Y-134291066D01*
X213649299Y-134298374D01*
X213658388Y-134306612D01*
X213666626Y-134315701D01*
X213673934Y-134325554D01*
X213680240Y-134336075D01*
X213685485Y-134347165D01*
X213689618Y-134358714D01*
X213692598Y-134370614D01*
X213694398Y-134382748D01*
X213695000Y-134395000D01*
X213695000Y-134645000D01*
X213694398Y-134657252D01*
X213692598Y-134669386D01*
X213689618Y-134681286D01*
X213685485Y-134692835D01*
X213680240Y-134703925D01*
X213673934Y-134714446D01*
X213666626Y-134724299D01*
X213658388Y-134733388D01*
X213649299Y-134741626D01*
X213639446Y-134748934D01*
X213628925Y-134755240D01*
X213617835Y-134760485D01*
X213606286Y-134764618D01*
X213594386Y-134767598D01*
X213582252Y-134769398D01*
X213570000Y-134770000D01*
X212320000Y-134770000D01*
X212307748Y-134769398D01*
X212295614Y-134767598D01*
X212283714Y-134764618D01*
X212272165Y-134760485D01*
X212261075Y-134755240D01*
X212250554Y-134748934D01*
X212240701Y-134741626D01*
X212231612Y-134733388D01*
X212223374Y-134724299D01*
X212216066Y-134714446D01*
X212209760Y-134703925D01*
X212204515Y-134692835D01*
X212200382Y-134681286D01*
X212197402Y-134669386D01*
X212195602Y-134657252D01*
X212195000Y-134645000D01*
X212195000Y-134395000D01*
X212195602Y-134382748D01*
X212197402Y-134370614D01*
X212200382Y-134358714D01*
X212204515Y-134347165D01*
X212209760Y-134336075D01*
X212216066Y-134325554D01*
X212223374Y-134315701D01*
X212231612Y-134306612D01*
X212240701Y-134298374D01*
X212250554Y-134291066D01*
X212261075Y-134284760D01*
X212272165Y-134279515D01*
X212283714Y-134275382D01*
X212295614Y-134272402D01*
X212307748Y-134270602D01*
X212320000Y-134270000D01*
X213570000Y-134270000D01*
X213582252Y-134270602D01*
X213582252Y-134270602D01*
G37*
D18*
X212945000Y-134520000D03*
D12*
G36*
X213582252Y-135070602D02*
X213594386Y-135072402D01*
X213606286Y-135075382D01*
X213617835Y-135079515D01*
X213628925Y-135084760D01*
X213639446Y-135091066D01*
X213649299Y-135098374D01*
X213658388Y-135106612D01*
X213666626Y-135115701D01*
X213673934Y-135125554D01*
X213680240Y-135136075D01*
X213685485Y-135147165D01*
X213689618Y-135158714D01*
X213692598Y-135170614D01*
X213694398Y-135182748D01*
X213695000Y-135195000D01*
X213695000Y-135445000D01*
X213694398Y-135457252D01*
X213692598Y-135469386D01*
X213689618Y-135481286D01*
X213685485Y-135492835D01*
X213680240Y-135503925D01*
X213673934Y-135514446D01*
X213666626Y-135524299D01*
X213658388Y-135533388D01*
X213649299Y-135541626D01*
X213639446Y-135548934D01*
X213628925Y-135555240D01*
X213617835Y-135560485D01*
X213606286Y-135564618D01*
X213594386Y-135567598D01*
X213582252Y-135569398D01*
X213570000Y-135570000D01*
X212320000Y-135570000D01*
X212307748Y-135569398D01*
X212295614Y-135567598D01*
X212283714Y-135564618D01*
X212272165Y-135560485D01*
X212261075Y-135555240D01*
X212250554Y-135548934D01*
X212240701Y-135541626D01*
X212231612Y-135533388D01*
X212223374Y-135524299D01*
X212216066Y-135514446D01*
X212209760Y-135503925D01*
X212204515Y-135492835D01*
X212200382Y-135481286D01*
X212197402Y-135469386D01*
X212195602Y-135457252D01*
X212195000Y-135445000D01*
X212195000Y-135195000D01*
X212195602Y-135182748D01*
X212197402Y-135170614D01*
X212200382Y-135158714D01*
X212204515Y-135147165D01*
X212209760Y-135136075D01*
X212216066Y-135125554D01*
X212223374Y-135115701D01*
X212231612Y-135106612D01*
X212240701Y-135098374D01*
X212250554Y-135091066D01*
X212261075Y-135084760D01*
X212272165Y-135079515D01*
X212283714Y-135075382D01*
X212295614Y-135072402D01*
X212307748Y-135070602D01*
X212320000Y-135070000D01*
X213570000Y-135070000D01*
X213582252Y-135070602D01*
X213582252Y-135070602D01*
G37*
D18*
X212945000Y-135320000D03*
D12*
G36*
X213582252Y-135870602D02*
X213594386Y-135872402D01*
X213606286Y-135875382D01*
X213617835Y-135879515D01*
X213628925Y-135884760D01*
X213639446Y-135891066D01*
X213649299Y-135898374D01*
X213658388Y-135906612D01*
X213666626Y-135915701D01*
X213673934Y-135925554D01*
X213680240Y-135936075D01*
X213685485Y-135947165D01*
X213689618Y-135958714D01*
X213692598Y-135970614D01*
X213694398Y-135982748D01*
X213695000Y-135995000D01*
X213695000Y-136245000D01*
X213694398Y-136257252D01*
X213692598Y-136269386D01*
X213689618Y-136281286D01*
X213685485Y-136292835D01*
X213680240Y-136303925D01*
X213673934Y-136314446D01*
X213666626Y-136324299D01*
X213658388Y-136333388D01*
X213649299Y-136341626D01*
X213639446Y-136348934D01*
X213628925Y-136355240D01*
X213617835Y-136360485D01*
X213606286Y-136364618D01*
X213594386Y-136367598D01*
X213582252Y-136369398D01*
X213570000Y-136370000D01*
X212320000Y-136370000D01*
X212307748Y-136369398D01*
X212295614Y-136367598D01*
X212283714Y-136364618D01*
X212272165Y-136360485D01*
X212261075Y-136355240D01*
X212250554Y-136348934D01*
X212240701Y-136341626D01*
X212231612Y-136333388D01*
X212223374Y-136324299D01*
X212216066Y-136314446D01*
X212209760Y-136303925D01*
X212204515Y-136292835D01*
X212200382Y-136281286D01*
X212197402Y-136269386D01*
X212195602Y-136257252D01*
X212195000Y-136245000D01*
X212195000Y-135995000D01*
X212195602Y-135982748D01*
X212197402Y-135970614D01*
X212200382Y-135958714D01*
X212204515Y-135947165D01*
X212209760Y-135936075D01*
X212216066Y-135925554D01*
X212223374Y-135915701D01*
X212231612Y-135906612D01*
X212240701Y-135898374D01*
X212250554Y-135891066D01*
X212261075Y-135884760D01*
X212272165Y-135879515D01*
X212283714Y-135875382D01*
X212295614Y-135872402D01*
X212307748Y-135870602D01*
X212320000Y-135870000D01*
X213570000Y-135870000D01*
X213582252Y-135870602D01*
X213582252Y-135870602D01*
G37*
D18*
X212945000Y-136120000D03*
D12*
G36*
X213582252Y-136670602D02*
X213594386Y-136672402D01*
X213606286Y-136675382D01*
X213617835Y-136679515D01*
X213628925Y-136684760D01*
X213639446Y-136691066D01*
X213649299Y-136698374D01*
X213658388Y-136706612D01*
X213666626Y-136715701D01*
X213673934Y-136725554D01*
X213680240Y-136736075D01*
X213685485Y-136747165D01*
X213689618Y-136758714D01*
X213692598Y-136770614D01*
X213694398Y-136782748D01*
X213695000Y-136795000D01*
X213695000Y-137045000D01*
X213694398Y-137057252D01*
X213692598Y-137069386D01*
X213689618Y-137081286D01*
X213685485Y-137092835D01*
X213680240Y-137103925D01*
X213673934Y-137114446D01*
X213666626Y-137124299D01*
X213658388Y-137133388D01*
X213649299Y-137141626D01*
X213639446Y-137148934D01*
X213628925Y-137155240D01*
X213617835Y-137160485D01*
X213606286Y-137164618D01*
X213594386Y-137167598D01*
X213582252Y-137169398D01*
X213570000Y-137170000D01*
X212320000Y-137170000D01*
X212307748Y-137169398D01*
X212295614Y-137167598D01*
X212283714Y-137164618D01*
X212272165Y-137160485D01*
X212261075Y-137155240D01*
X212250554Y-137148934D01*
X212240701Y-137141626D01*
X212231612Y-137133388D01*
X212223374Y-137124299D01*
X212216066Y-137114446D01*
X212209760Y-137103925D01*
X212204515Y-137092835D01*
X212200382Y-137081286D01*
X212197402Y-137069386D01*
X212195602Y-137057252D01*
X212195000Y-137045000D01*
X212195000Y-136795000D01*
X212195602Y-136782748D01*
X212197402Y-136770614D01*
X212200382Y-136758714D01*
X212204515Y-136747165D01*
X212209760Y-136736075D01*
X212216066Y-136725554D01*
X212223374Y-136715701D01*
X212231612Y-136706612D01*
X212240701Y-136698374D01*
X212250554Y-136691066D01*
X212261075Y-136684760D01*
X212272165Y-136679515D01*
X212283714Y-136675382D01*
X212295614Y-136672402D01*
X212307748Y-136670602D01*
X212320000Y-136670000D01*
X213570000Y-136670000D01*
X213582252Y-136670602D01*
X213582252Y-136670602D01*
G37*
D18*
X212945000Y-136920000D03*
D12*
G36*
X213582252Y-137470602D02*
X213594386Y-137472402D01*
X213606286Y-137475382D01*
X213617835Y-137479515D01*
X213628925Y-137484760D01*
X213639446Y-137491066D01*
X213649299Y-137498374D01*
X213658388Y-137506612D01*
X213666626Y-137515701D01*
X213673934Y-137525554D01*
X213680240Y-137536075D01*
X213685485Y-137547165D01*
X213689618Y-137558714D01*
X213692598Y-137570614D01*
X213694398Y-137582748D01*
X213695000Y-137595000D01*
X213695000Y-137845000D01*
X213694398Y-137857252D01*
X213692598Y-137869386D01*
X213689618Y-137881286D01*
X213685485Y-137892835D01*
X213680240Y-137903925D01*
X213673934Y-137914446D01*
X213666626Y-137924299D01*
X213658388Y-137933388D01*
X213649299Y-137941626D01*
X213639446Y-137948934D01*
X213628925Y-137955240D01*
X213617835Y-137960485D01*
X213606286Y-137964618D01*
X213594386Y-137967598D01*
X213582252Y-137969398D01*
X213570000Y-137970000D01*
X212320000Y-137970000D01*
X212307748Y-137969398D01*
X212295614Y-137967598D01*
X212283714Y-137964618D01*
X212272165Y-137960485D01*
X212261075Y-137955240D01*
X212250554Y-137948934D01*
X212240701Y-137941626D01*
X212231612Y-137933388D01*
X212223374Y-137924299D01*
X212216066Y-137914446D01*
X212209760Y-137903925D01*
X212204515Y-137892835D01*
X212200382Y-137881286D01*
X212197402Y-137869386D01*
X212195602Y-137857252D01*
X212195000Y-137845000D01*
X212195000Y-137595000D01*
X212195602Y-137582748D01*
X212197402Y-137570614D01*
X212200382Y-137558714D01*
X212204515Y-137547165D01*
X212209760Y-137536075D01*
X212216066Y-137525554D01*
X212223374Y-137515701D01*
X212231612Y-137506612D01*
X212240701Y-137498374D01*
X212250554Y-137491066D01*
X212261075Y-137484760D01*
X212272165Y-137479515D01*
X212283714Y-137475382D01*
X212295614Y-137472402D01*
X212307748Y-137470602D01*
X212320000Y-137470000D01*
X213570000Y-137470000D01*
X213582252Y-137470602D01*
X213582252Y-137470602D01*
G37*
D18*
X212945000Y-137720000D03*
D12*
G36*
X213582252Y-138270602D02*
X213594386Y-138272402D01*
X213606286Y-138275382D01*
X213617835Y-138279515D01*
X213628925Y-138284760D01*
X213639446Y-138291066D01*
X213649299Y-138298374D01*
X213658388Y-138306612D01*
X213666626Y-138315701D01*
X213673934Y-138325554D01*
X213680240Y-138336075D01*
X213685485Y-138347165D01*
X213689618Y-138358714D01*
X213692598Y-138370614D01*
X213694398Y-138382748D01*
X213695000Y-138395000D01*
X213695000Y-138645000D01*
X213694398Y-138657252D01*
X213692598Y-138669386D01*
X213689618Y-138681286D01*
X213685485Y-138692835D01*
X213680240Y-138703925D01*
X213673934Y-138714446D01*
X213666626Y-138724299D01*
X213658388Y-138733388D01*
X213649299Y-138741626D01*
X213639446Y-138748934D01*
X213628925Y-138755240D01*
X213617835Y-138760485D01*
X213606286Y-138764618D01*
X213594386Y-138767598D01*
X213582252Y-138769398D01*
X213570000Y-138770000D01*
X212320000Y-138770000D01*
X212307748Y-138769398D01*
X212295614Y-138767598D01*
X212283714Y-138764618D01*
X212272165Y-138760485D01*
X212261075Y-138755240D01*
X212250554Y-138748934D01*
X212240701Y-138741626D01*
X212231612Y-138733388D01*
X212223374Y-138724299D01*
X212216066Y-138714446D01*
X212209760Y-138703925D01*
X212204515Y-138692835D01*
X212200382Y-138681286D01*
X212197402Y-138669386D01*
X212195602Y-138657252D01*
X212195000Y-138645000D01*
X212195000Y-138395000D01*
X212195602Y-138382748D01*
X212197402Y-138370614D01*
X212200382Y-138358714D01*
X212204515Y-138347165D01*
X212209760Y-138336075D01*
X212216066Y-138325554D01*
X212223374Y-138315701D01*
X212231612Y-138306612D01*
X212240701Y-138298374D01*
X212250554Y-138291066D01*
X212261075Y-138284760D01*
X212272165Y-138279515D01*
X212283714Y-138275382D01*
X212295614Y-138272402D01*
X212307748Y-138270602D01*
X212320000Y-138270000D01*
X213570000Y-138270000D01*
X213582252Y-138270602D01*
X213582252Y-138270602D01*
G37*
D18*
X212945000Y-138520000D03*
D12*
G36*
X213582252Y-139070602D02*
X213594386Y-139072402D01*
X213606286Y-139075382D01*
X213617835Y-139079515D01*
X213628925Y-139084760D01*
X213639446Y-139091066D01*
X213649299Y-139098374D01*
X213658388Y-139106612D01*
X213666626Y-139115701D01*
X213673934Y-139125554D01*
X213680240Y-139136075D01*
X213685485Y-139147165D01*
X213689618Y-139158714D01*
X213692598Y-139170614D01*
X213694398Y-139182748D01*
X213695000Y-139195000D01*
X213695000Y-139445000D01*
X213694398Y-139457252D01*
X213692598Y-139469386D01*
X213689618Y-139481286D01*
X213685485Y-139492835D01*
X213680240Y-139503925D01*
X213673934Y-139514446D01*
X213666626Y-139524299D01*
X213658388Y-139533388D01*
X213649299Y-139541626D01*
X213639446Y-139548934D01*
X213628925Y-139555240D01*
X213617835Y-139560485D01*
X213606286Y-139564618D01*
X213594386Y-139567598D01*
X213582252Y-139569398D01*
X213570000Y-139570000D01*
X212320000Y-139570000D01*
X212307748Y-139569398D01*
X212295614Y-139567598D01*
X212283714Y-139564618D01*
X212272165Y-139560485D01*
X212261075Y-139555240D01*
X212250554Y-139548934D01*
X212240701Y-139541626D01*
X212231612Y-139533388D01*
X212223374Y-139524299D01*
X212216066Y-139514446D01*
X212209760Y-139503925D01*
X212204515Y-139492835D01*
X212200382Y-139481286D01*
X212197402Y-139469386D01*
X212195602Y-139457252D01*
X212195000Y-139445000D01*
X212195000Y-139195000D01*
X212195602Y-139182748D01*
X212197402Y-139170614D01*
X212200382Y-139158714D01*
X212204515Y-139147165D01*
X212209760Y-139136075D01*
X212216066Y-139125554D01*
X212223374Y-139115701D01*
X212231612Y-139106612D01*
X212240701Y-139098374D01*
X212250554Y-139091066D01*
X212261075Y-139084760D01*
X212272165Y-139079515D01*
X212283714Y-139075382D01*
X212295614Y-139072402D01*
X212307748Y-139070602D01*
X212320000Y-139070000D01*
X213570000Y-139070000D01*
X213582252Y-139070602D01*
X213582252Y-139070602D01*
G37*
D18*
X212945000Y-139320000D03*
G04 #@! TD*
D19*
G04 #@! TO.C,LD3*
X215000000Y-123975000D03*
X215000000Y-126025000D03*
G04 #@! TD*
D11*
G04 #@! TO.C,R3*
X212657270Y-126263782D03*
X212657270Y-124688782D03*
G04 #@! TD*
D10*
G04 #@! TO.C,Q3*
X215177270Y-120416282D03*
X214227270Y-122416282D03*
X216127270Y-122416282D03*
G04 #@! TD*
D19*
G04 #@! TO.C,LD4*
X222000000Y-123975000D03*
X222000000Y-126025000D03*
G04 #@! TD*
D11*
G04 #@! TO.C,R4*
X219657270Y-126263782D03*
X219657270Y-124688782D03*
G04 #@! TD*
D10*
G04 #@! TO.C,Q4*
X222177270Y-120416282D03*
X221227270Y-122416282D03*
X223127270Y-122416282D03*
G04 #@! TD*
D19*
G04 #@! TO.C,LD5*
X229000000Y-123975000D03*
X229000000Y-126025000D03*
G04 #@! TD*
D11*
G04 #@! TO.C,R5*
X226657270Y-126263782D03*
X226657270Y-124688782D03*
G04 #@! TD*
D10*
G04 #@! TO.C,Q5*
X229177270Y-120416282D03*
X228227270Y-122416282D03*
X230127270Y-122416282D03*
G04 #@! TD*
D19*
G04 #@! TO.C,LD6*
X236000000Y-123975000D03*
X236000000Y-126025000D03*
G04 #@! TD*
D11*
G04 #@! TO.C,R6*
X233657270Y-126263782D03*
X233657270Y-124688782D03*
G04 #@! TD*
D10*
G04 #@! TO.C,Q6*
X236177270Y-120416282D03*
X235227270Y-122416282D03*
X237127270Y-122416282D03*
G04 #@! TD*
G04 #@! TO.C,Q10*
X235950000Y-106450000D03*
X236900000Y-104450000D03*
X235000000Y-104450000D03*
G04 #@! TD*
D20*
G04 #@! TO.C,R10*
X235162500Y-102720000D03*
X236737500Y-102720000D03*
G04 #@! TD*
D10*
G04 #@! TO.C,Q9*
X228950000Y-106450000D03*
X229900000Y-104450000D03*
X228000000Y-104450000D03*
G04 #@! TD*
D20*
G04 #@! TO.C,R9*
X228162500Y-102720000D03*
X229737500Y-102720000D03*
G04 #@! TD*
D10*
G04 #@! TO.C,Q8*
X221950000Y-106450000D03*
X222900000Y-104450000D03*
X221000000Y-104450000D03*
G04 #@! TD*
D20*
G04 #@! TO.C,R8*
X221162500Y-102720000D03*
X222737500Y-102720000D03*
G04 #@! TD*
G04 #@! TO.C,R7*
X215737500Y-102720000D03*
X214162500Y-102720000D03*
G04 #@! TD*
D10*
G04 #@! TO.C,Q7*
X214000000Y-104450000D03*
X215900000Y-104450000D03*
X214950000Y-106450000D03*
G04 #@! TD*
D19*
G04 #@! TO.C,LD13*
X208000000Y-123975000D03*
X208000000Y-126025000D03*
G04 #@! TD*
D12*
G04 #@! TO.C,C12*
G36*
X219337691Y-142506053D02*
X219358926Y-142509203D01*
X219379750Y-142514419D01*
X219399962Y-142521651D01*
X219419368Y-142530830D01*
X219437781Y-142541866D01*
X219455024Y-142554654D01*
X219470930Y-142569070D01*
X219485346Y-142584976D01*
X219498134Y-142602219D01*
X219509170Y-142620632D01*
X219518349Y-142640038D01*
X219525581Y-142660250D01*
X219530797Y-142681074D01*
X219533947Y-142702309D01*
X219535000Y-142723750D01*
X219535000Y-143236250D01*
X219533947Y-143257691D01*
X219530797Y-143278926D01*
X219525581Y-143299750D01*
X219518349Y-143319962D01*
X219509170Y-143339368D01*
X219498134Y-143357781D01*
X219485346Y-143375024D01*
X219470930Y-143390930D01*
X219455024Y-143405346D01*
X219437781Y-143418134D01*
X219419368Y-143429170D01*
X219399962Y-143438349D01*
X219379750Y-143445581D01*
X219358926Y-143450797D01*
X219337691Y-143453947D01*
X219316250Y-143455000D01*
X218878750Y-143455000D01*
X218857309Y-143453947D01*
X218836074Y-143450797D01*
X218815250Y-143445581D01*
X218795038Y-143438349D01*
X218775632Y-143429170D01*
X218757219Y-143418134D01*
X218739976Y-143405346D01*
X218724070Y-143390930D01*
X218709654Y-143375024D01*
X218696866Y-143357781D01*
X218685830Y-143339368D01*
X218676651Y-143319962D01*
X218669419Y-143299750D01*
X218664203Y-143278926D01*
X218661053Y-143257691D01*
X218660000Y-143236250D01*
X218660000Y-142723750D01*
X218661053Y-142702309D01*
X218664203Y-142681074D01*
X218669419Y-142660250D01*
X218676651Y-142640038D01*
X218685830Y-142620632D01*
X218696866Y-142602219D01*
X218709654Y-142584976D01*
X218724070Y-142569070D01*
X218739976Y-142554654D01*
X218757219Y-142541866D01*
X218775632Y-142530830D01*
X218795038Y-142521651D01*
X218815250Y-142514419D01*
X218836074Y-142509203D01*
X218857309Y-142506053D01*
X218878750Y-142505000D01*
X219316250Y-142505000D01*
X219337691Y-142506053D01*
X219337691Y-142506053D01*
G37*
D13*
X219097500Y-142980000D03*
D12*
G36*
X217762691Y-142506053D02*
X217783926Y-142509203D01*
X217804750Y-142514419D01*
X217824962Y-142521651D01*
X217844368Y-142530830D01*
X217862781Y-142541866D01*
X217880024Y-142554654D01*
X217895930Y-142569070D01*
X217910346Y-142584976D01*
X217923134Y-142602219D01*
X217934170Y-142620632D01*
X217943349Y-142640038D01*
X217950581Y-142660250D01*
X217955797Y-142681074D01*
X217958947Y-142702309D01*
X217960000Y-142723750D01*
X217960000Y-143236250D01*
X217958947Y-143257691D01*
X217955797Y-143278926D01*
X217950581Y-143299750D01*
X217943349Y-143319962D01*
X217934170Y-143339368D01*
X217923134Y-143357781D01*
X217910346Y-143375024D01*
X217895930Y-143390930D01*
X217880024Y-143405346D01*
X217862781Y-143418134D01*
X217844368Y-143429170D01*
X217824962Y-143438349D01*
X217804750Y-143445581D01*
X217783926Y-143450797D01*
X217762691Y-143453947D01*
X217741250Y-143455000D01*
X217303750Y-143455000D01*
X217282309Y-143453947D01*
X217261074Y-143450797D01*
X217240250Y-143445581D01*
X217220038Y-143438349D01*
X217200632Y-143429170D01*
X217182219Y-143418134D01*
X217164976Y-143405346D01*
X217149070Y-143390930D01*
X217134654Y-143375024D01*
X217121866Y-143357781D01*
X217110830Y-143339368D01*
X217101651Y-143319962D01*
X217094419Y-143299750D01*
X217089203Y-143278926D01*
X217086053Y-143257691D01*
X217085000Y-143236250D01*
X217085000Y-142723750D01*
X217086053Y-142702309D01*
X217089203Y-142681074D01*
X217094419Y-142660250D01*
X217101651Y-142640038D01*
X217110830Y-142620632D01*
X217121866Y-142602219D01*
X217134654Y-142584976D01*
X217149070Y-142569070D01*
X217164976Y-142554654D01*
X217182219Y-142541866D01*
X217200632Y-142530830D01*
X217220038Y-142521651D01*
X217240250Y-142514419D01*
X217261074Y-142509203D01*
X217282309Y-142506053D01*
X217303750Y-142505000D01*
X217741250Y-142505000D01*
X217762691Y-142506053D01*
X217762691Y-142506053D01*
G37*
D13*
X217522500Y-142980000D03*
G04 #@! TD*
D12*
G04 #@! TO.C,C21*
G36*
X264917691Y-110576053D02*
X264938926Y-110579203D01*
X264959750Y-110584419D01*
X264979962Y-110591651D01*
X264999368Y-110600830D01*
X265017781Y-110611866D01*
X265035024Y-110624654D01*
X265050930Y-110639070D01*
X265065346Y-110654976D01*
X265078134Y-110672219D01*
X265089170Y-110690632D01*
X265098349Y-110710038D01*
X265105581Y-110730250D01*
X265110797Y-110751074D01*
X265113947Y-110772309D01*
X265115000Y-110793750D01*
X265115000Y-111231250D01*
X265113947Y-111252691D01*
X265110797Y-111273926D01*
X265105581Y-111294750D01*
X265098349Y-111314962D01*
X265089170Y-111334368D01*
X265078134Y-111352781D01*
X265065346Y-111370024D01*
X265050930Y-111385930D01*
X265035024Y-111400346D01*
X265017781Y-111413134D01*
X264999368Y-111424170D01*
X264979962Y-111433349D01*
X264959750Y-111440581D01*
X264938926Y-111445797D01*
X264917691Y-111448947D01*
X264896250Y-111450000D01*
X264383750Y-111450000D01*
X264362309Y-111448947D01*
X264341074Y-111445797D01*
X264320250Y-111440581D01*
X264300038Y-111433349D01*
X264280632Y-111424170D01*
X264262219Y-111413134D01*
X264244976Y-111400346D01*
X264229070Y-111385930D01*
X264214654Y-111370024D01*
X264201866Y-111352781D01*
X264190830Y-111334368D01*
X264181651Y-111314962D01*
X264174419Y-111294750D01*
X264169203Y-111273926D01*
X264166053Y-111252691D01*
X264165000Y-111231250D01*
X264165000Y-110793750D01*
X264166053Y-110772309D01*
X264169203Y-110751074D01*
X264174419Y-110730250D01*
X264181651Y-110710038D01*
X264190830Y-110690632D01*
X264201866Y-110672219D01*
X264214654Y-110654976D01*
X264229070Y-110639070D01*
X264244976Y-110624654D01*
X264262219Y-110611866D01*
X264280632Y-110600830D01*
X264300038Y-110591651D01*
X264320250Y-110584419D01*
X264341074Y-110579203D01*
X264362309Y-110576053D01*
X264383750Y-110575000D01*
X264896250Y-110575000D01*
X264917691Y-110576053D01*
X264917691Y-110576053D01*
G37*
D13*
X264640000Y-111012500D03*
D12*
G36*
X264917691Y-112151053D02*
X264938926Y-112154203D01*
X264959750Y-112159419D01*
X264979962Y-112166651D01*
X264999368Y-112175830D01*
X265017781Y-112186866D01*
X265035024Y-112199654D01*
X265050930Y-112214070D01*
X265065346Y-112229976D01*
X265078134Y-112247219D01*
X265089170Y-112265632D01*
X265098349Y-112285038D01*
X265105581Y-112305250D01*
X265110797Y-112326074D01*
X265113947Y-112347309D01*
X265115000Y-112368750D01*
X265115000Y-112806250D01*
X265113947Y-112827691D01*
X265110797Y-112848926D01*
X265105581Y-112869750D01*
X265098349Y-112889962D01*
X265089170Y-112909368D01*
X265078134Y-112927781D01*
X265065346Y-112945024D01*
X265050930Y-112960930D01*
X265035024Y-112975346D01*
X265017781Y-112988134D01*
X264999368Y-112999170D01*
X264979962Y-113008349D01*
X264959750Y-113015581D01*
X264938926Y-113020797D01*
X264917691Y-113023947D01*
X264896250Y-113025000D01*
X264383750Y-113025000D01*
X264362309Y-113023947D01*
X264341074Y-113020797D01*
X264320250Y-113015581D01*
X264300038Y-113008349D01*
X264280632Y-112999170D01*
X264262219Y-112988134D01*
X264244976Y-112975346D01*
X264229070Y-112960930D01*
X264214654Y-112945024D01*
X264201866Y-112927781D01*
X264190830Y-112909368D01*
X264181651Y-112889962D01*
X264174419Y-112869750D01*
X264169203Y-112848926D01*
X264166053Y-112827691D01*
X264165000Y-112806250D01*
X264165000Y-112368750D01*
X264166053Y-112347309D01*
X264169203Y-112326074D01*
X264174419Y-112305250D01*
X264181651Y-112285038D01*
X264190830Y-112265632D01*
X264201866Y-112247219D01*
X264214654Y-112229976D01*
X264229070Y-112214070D01*
X264244976Y-112199654D01*
X264262219Y-112186866D01*
X264280632Y-112175830D01*
X264300038Y-112166651D01*
X264320250Y-112159419D01*
X264341074Y-112154203D01*
X264362309Y-112151053D01*
X264383750Y-112150000D01*
X264896250Y-112150000D01*
X264917691Y-112151053D01*
X264917691Y-112151053D01*
G37*
D13*
X264640000Y-112587500D03*
G04 #@! TD*
D12*
G04 #@! TO.C,C22*
G36*
X241727691Y-109768553D02*
X241748926Y-109771703D01*
X241769750Y-109776919D01*
X241789962Y-109784151D01*
X241809368Y-109793330D01*
X241827781Y-109804366D01*
X241845024Y-109817154D01*
X241860930Y-109831570D01*
X241875346Y-109847476D01*
X241888134Y-109864719D01*
X241899170Y-109883132D01*
X241908349Y-109902538D01*
X241915581Y-109922750D01*
X241920797Y-109943574D01*
X241923947Y-109964809D01*
X241925000Y-109986250D01*
X241925000Y-110423750D01*
X241923947Y-110445191D01*
X241920797Y-110466426D01*
X241915581Y-110487250D01*
X241908349Y-110507462D01*
X241899170Y-110526868D01*
X241888134Y-110545281D01*
X241875346Y-110562524D01*
X241860930Y-110578430D01*
X241845024Y-110592846D01*
X241827781Y-110605634D01*
X241809368Y-110616670D01*
X241789962Y-110625849D01*
X241769750Y-110633081D01*
X241748926Y-110638297D01*
X241727691Y-110641447D01*
X241706250Y-110642500D01*
X241193750Y-110642500D01*
X241172309Y-110641447D01*
X241151074Y-110638297D01*
X241130250Y-110633081D01*
X241110038Y-110625849D01*
X241090632Y-110616670D01*
X241072219Y-110605634D01*
X241054976Y-110592846D01*
X241039070Y-110578430D01*
X241024654Y-110562524D01*
X241011866Y-110545281D01*
X241000830Y-110526868D01*
X240991651Y-110507462D01*
X240984419Y-110487250D01*
X240979203Y-110466426D01*
X240976053Y-110445191D01*
X240975000Y-110423750D01*
X240975000Y-109986250D01*
X240976053Y-109964809D01*
X240979203Y-109943574D01*
X240984419Y-109922750D01*
X240991651Y-109902538D01*
X241000830Y-109883132D01*
X241011866Y-109864719D01*
X241024654Y-109847476D01*
X241039070Y-109831570D01*
X241054976Y-109817154D01*
X241072219Y-109804366D01*
X241090632Y-109793330D01*
X241110038Y-109784151D01*
X241130250Y-109776919D01*
X241151074Y-109771703D01*
X241172309Y-109768553D01*
X241193750Y-109767500D01*
X241706250Y-109767500D01*
X241727691Y-109768553D01*
X241727691Y-109768553D01*
G37*
D13*
X241450000Y-110205000D03*
D12*
G36*
X241727691Y-108193553D02*
X241748926Y-108196703D01*
X241769750Y-108201919D01*
X241789962Y-108209151D01*
X241809368Y-108218330D01*
X241827781Y-108229366D01*
X241845024Y-108242154D01*
X241860930Y-108256570D01*
X241875346Y-108272476D01*
X241888134Y-108289719D01*
X241899170Y-108308132D01*
X241908349Y-108327538D01*
X241915581Y-108347750D01*
X241920797Y-108368574D01*
X241923947Y-108389809D01*
X241925000Y-108411250D01*
X241925000Y-108848750D01*
X241923947Y-108870191D01*
X241920797Y-108891426D01*
X241915581Y-108912250D01*
X241908349Y-108932462D01*
X241899170Y-108951868D01*
X241888134Y-108970281D01*
X241875346Y-108987524D01*
X241860930Y-109003430D01*
X241845024Y-109017846D01*
X241827781Y-109030634D01*
X241809368Y-109041670D01*
X241789962Y-109050849D01*
X241769750Y-109058081D01*
X241748926Y-109063297D01*
X241727691Y-109066447D01*
X241706250Y-109067500D01*
X241193750Y-109067500D01*
X241172309Y-109066447D01*
X241151074Y-109063297D01*
X241130250Y-109058081D01*
X241110038Y-109050849D01*
X241090632Y-109041670D01*
X241072219Y-109030634D01*
X241054976Y-109017846D01*
X241039070Y-109003430D01*
X241024654Y-108987524D01*
X241011866Y-108970281D01*
X241000830Y-108951868D01*
X240991651Y-108932462D01*
X240984419Y-108912250D01*
X240979203Y-108891426D01*
X240976053Y-108870191D01*
X240975000Y-108848750D01*
X240975000Y-108411250D01*
X240976053Y-108389809D01*
X240979203Y-108368574D01*
X240984419Y-108347750D01*
X240991651Y-108327538D01*
X241000830Y-108308132D01*
X241011866Y-108289719D01*
X241024654Y-108272476D01*
X241039070Y-108256570D01*
X241054976Y-108242154D01*
X241072219Y-108229366D01*
X241090632Y-108218330D01*
X241110038Y-108209151D01*
X241130250Y-108201919D01*
X241151074Y-108196703D01*
X241172309Y-108193553D01*
X241193750Y-108192500D01*
X241706250Y-108192500D01*
X241727691Y-108193553D01*
X241727691Y-108193553D01*
G37*
D13*
X241450000Y-108630000D03*
G04 #@! TD*
D12*
G04 #@! TO.C,C13*
G36*
X218492691Y-130046053D02*
X218513926Y-130049203D01*
X218534750Y-130054419D01*
X218554962Y-130061651D01*
X218574368Y-130070830D01*
X218592781Y-130081866D01*
X218610024Y-130094654D01*
X218625930Y-130109070D01*
X218640346Y-130124976D01*
X218653134Y-130142219D01*
X218664170Y-130160632D01*
X218673349Y-130180038D01*
X218680581Y-130200250D01*
X218685797Y-130221074D01*
X218688947Y-130242309D01*
X218690000Y-130263750D01*
X218690000Y-130776250D01*
X218688947Y-130797691D01*
X218685797Y-130818926D01*
X218680581Y-130839750D01*
X218673349Y-130859962D01*
X218664170Y-130879368D01*
X218653134Y-130897781D01*
X218640346Y-130915024D01*
X218625930Y-130930930D01*
X218610024Y-130945346D01*
X218592781Y-130958134D01*
X218574368Y-130969170D01*
X218554962Y-130978349D01*
X218534750Y-130985581D01*
X218513926Y-130990797D01*
X218492691Y-130993947D01*
X218471250Y-130995000D01*
X218033750Y-130995000D01*
X218012309Y-130993947D01*
X217991074Y-130990797D01*
X217970250Y-130985581D01*
X217950038Y-130978349D01*
X217930632Y-130969170D01*
X217912219Y-130958134D01*
X217894976Y-130945346D01*
X217879070Y-130930930D01*
X217864654Y-130915024D01*
X217851866Y-130897781D01*
X217840830Y-130879368D01*
X217831651Y-130859962D01*
X217824419Y-130839750D01*
X217819203Y-130818926D01*
X217816053Y-130797691D01*
X217815000Y-130776250D01*
X217815000Y-130263750D01*
X217816053Y-130242309D01*
X217819203Y-130221074D01*
X217824419Y-130200250D01*
X217831651Y-130180038D01*
X217840830Y-130160632D01*
X217851866Y-130142219D01*
X217864654Y-130124976D01*
X217879070Y-130109070D01*
X217894976Y-130094654D01*
X217912219Y-130081866D01*
X217930632Y-130070830D01*
X217950038Y-130061651D01*
X217970250Y-130054419D01*
X217991074Y-130049203D01*
X218012309Y-130046053D01*
X218033750Y-130045000D01*
X218471250Y-130045000D01*
X218492691Y-130046053D01*
X218492691Y-130046053D01*
G37*
D13*
X218252500Y-130520000D03*
D12*
G36*
X220067691Y-130046053D02*
X220088926Y-130049203D01*
X220109750Y-130054419D01*
X220129962Y-130061651D01*
X220149368Y-130070830D01*
X220167781Y-130081866D01*
X220185024Y-130094654D01*
X220200930Y-130109070D01*
X220215346Y-130124976D01*
X220228134Y-130142219D01*
X220239170Y-130160632D01*
X220248349Y-130180038D01*
X220255581Y-130200250D01*
X220260797Y-130221074D01*
X220263947Y-130242309D01*
X220265000Y-130263750D01*
X220265000Y-130776250D01*
X220263947Y-130797691D01*
X220260797Y-130818926D01*
X220255581Y-130839750D01*
X220248349Y-130859962D01*
X220239170Y-130879368D01*
X220228134Y-130897781D01*
X220215346Y-130915024D01*
X220200930Y-130930930D01*
X220185024Y-130945346D01*
X220167781Y-130958134D01*
X220149368Y-130969170D01*
X220129962Y-130978349D01*
X220109750Y-130985581D01*
X220088926Y-130990797D01*
X220067691Y-130993947D01*
X220046250Y-130995000D01*
X219608750Y-130995000D01*
X219587309Y-130993947D01*
X219566074Y-130990797D01*
X219545250Y-130985581D01*
X219525038Y-130978349D01*
X219505632Y-130969170D01*
X219487219Y-130958134D01*
X219469976Y-130945346D01*
X219454070Y-130930930D01*
X219439654Y-130915024D01*
X219426866Y-130897781D01*
X219415830Y-130879368D01*
X219406651Y-130859962D01*
X219399419Y-130839750D01*
X219394203Y-130818926D01*
X219391053Y-130797691D01*
X219390000Y-130776250D01*
X219390000Y-130263750D01*
X219391053Y-130242309D01*
X219394203Y-130221074D01*
X219399419Y-130200250D01*
X219406651Y-130180038D01*
X219415830Y-130160632D01*
X219426866Y-130142219D01*
X219439654Y-130124976D01*
X219454070Y-130109070D01*
X219469976Y-130094654D01*
X219487219Y-130081866D01*
X219505632Y-130070830D01*
X219525038Y-130061651D01*
X219545250Y-130054419D01*
X219566074Y-130049203D01*
X219587309Y-130046053D01*
X219608750Y-130045000D01*
X220046250Y-130045000D01*
X220067691Y-130046053D01*
X220067691Y-130046053D01*
G37*
D13*
X219827500Y-130520000D03*
G04 #@! TD*
D12*
G04 #@! TO.C,C11*
G36*
X214560191Y-142506053D02*
X214581426Y-142509203D01*
X214602250Y-142514419D01*
X214622462Y-142521651D01*
X214641868Y-142530830D01*
X214660281Y-142541866D01*
X214677524Y-142554654D01*
X214693430Y-142569070D01*
X214707846Y-142584976D01*
X214720634Y-142602219D01*
X214731670Y-142620632D01*
X214740849Y-142640038D01*
X214748081Y-142660250D01*
X214753297Y-142681074D01*
X214756447Y-142702309D01*
X214757500Y-142723750D01*
X214757500Y-143236250D01*
X214756447Y-143257691D01*
X214753297Y-143278926D01*
X214748081Y-143299750D01*
X214740849Y-143319962D01*
X214731670Y-143339368D01*
X214720634Y-143357781D01*
X214707846Y-143375024D01*
X214693430Y-143390930D01*
X214677524Y-143405346D01*
X214660281Y-143418134D01*
X214641868Y-143429170D01*
X214622462Y-143438349D01*
X214602250Y-143445581D01*
X214581426Y-143450797D01*
X214560191Y-143453947D01*
X214538750Y-143455000D01*
X214101250Y-143455000D01*
X214079809Y-143453947D01*
X214058574Y-143450797D01*
X214037750Y-143445581D01*
X214017538Y-143438349D01*
X213998132Y-143429170D01*
X213979719Y-143418134D01*
X213962476Y-143405346D01*
X213946570Y-143390930D01*
X213932154Y-143375024D01*
X213919366Y-143357781D01*
X213908330Y-143339368D01*
X213899151Y-143319962D01*
X213891919Y-143299750D01*
X213886703Y-143278926D01*
X213883553Y-143257691D01*
X213882500Y-143236250D01*
X213882500Y-142723750D01*
X213883553Y-142702309D01*
X213886703Y-142681074D01*
X213891919Y-142660250D01*
X213899151Y-142640038D01*
X213908330Y-142620632D01*
X213919366Y-142602219D01*
X213932154Y-142584976D01*
X213946570Y-142569070D01*
X213962476Y-142554654D01*
X213979719Y-142541866D01*
X213998132Y-142530830D01*
X214017538Y-142521651D01*
X214037750Y-142514419D01*
X214058574Y-142509203D01*
X214079809Y-142506053D01*
X214101250Y-142505000D01*
X214538750Y-142505000D01*
X214560191Y-142506053D01*
X214560191Y-142506053D01*
G37*
D13*
X214320000Y-142980000D03*
D12*
G36*
X212985191Y-142506053D02*
X213006426Y-142509203D01*
X213027250Y-142514419D01*
X213047462Y-142521651D01*
X213066868Y-142530830D01*
X213085281Y-142541866D01*
X213102524Y-142554654D01*
X213118430Y-142569070D01*
X213132846Y-142584976D01*
X213145634Y-142602219D01*
X213156670Y-142620632D01*
X213165849Y-142640038D01*
X213173081Y-142660250D01*
X213178297Y-142681074D01*
X213181447Y-142702309D01*
X213182500Y-142723750D01*
X213182500Y-143236250D01*
X213181447Y-143257691D01*
X213178297Y-143278926D01*
X213173081Y-143299750D01*
X213165849Y-143319962D01*
X213156670Y-143339368D01*
X213145634Y-143357781D01*
X213132846Y-143375024D01*
X213118430Y-143390930D01*
X213102524Y-143405346D01*
X213085281Y-143418134D01*
X213066868Y-143429170D01*
X213047462Y-143438349D01*
X213027250Y-143445581D01*
X213006426Y-143450797D01*
X212985191Y-143453947D01*
X212963750Y-143455000D01*
X212526250Y-143455000D01*
X212504809Y-143453947D01*
X212483574Y-143450797D01*
X212462750Y-143445581D01*
X212442538Y-143438349D01*
X212423132Y-143429170D01*
X212404719Y-143418134D01*
X212387476Y-143405346D01*
X212371570Y-143390930D01*
X212357154Y-143375024D01*
X212344366Y-143357781D01*
X212333330Y-143339368D01*
X212324151Y-143319962D01*
X212316919Y-143299750D01*
X212311703Y-143278926D01*
X212308553Y-143257691D01*
X212307500Y-143236250D01*
X212307500Y-142723750D01*
X212308553Y-142702309D01*
X212311703Y-142681074D01*
X212316919Y-142660250D01*
X212324151Y-142640038D01*
X212333330Y-142620632D01*
X212344366Y-142602219D01*
X212357154Y-142584976D01*
X212371570Y-142569070D01*
X212387476Y-142554654D01*
X212404719Y-142541866D01*
X212423132Y-142530830D01*
X212442538Y-142521651D01*
X212462750Y-142514419D01*
X212483574Y-142509203D01*
X212504809Y-142506053D01*
X212526250Y-142505000D01*
X212963750Y-142505000D01*
X212985191Y-142506053D01*
X212985191Y-142506053D01*
G37*
D13*
X212745000Y-142980000D03*
G04 #@! TD*
D12*
G04 #@! TO.C,C41*
G36*
X248250727Y-137601053D02*
X248271962Y-137604203D01*
X248292786Y-137609419D01*
X248312998Y-137616651D01*
X248332404Y-137625830D01*
X248350817Y-137636866D01*
X248368060Y-137649654D01*
X248383966Y-137664070D01*
X248398382Y-137679976D01*
X248411170Y-137697219D01*
X248422206Y-137715632D01*
X248431385Y-137735038D01*
X248438617Y-137755250D01*
X248443833Y-137776074D01*
X248446983Y-137797309D01*
X248448036Y-137818750D01*
X248448036Y-138256250D01*
X248446983Y-138277691D01*
X248443833Y-138298926D01*
X248438617Y-138319750D01*
X248431385Y-138339962D01*
X248422206Y-138359368D01*
X248411170Y-138377781D01*
X248398382Y-138395024D01*
X248383966Y-138410930D01*
X248368060Y-138425346D01*
X248350817Y-138438134D01*
X248332404Y-138449170D01*
X248312998Y-138458349D01*
X248292786Y-138465581D01*
X248271962Y-138470797D01*
X248250727Y-138473947D01*
X248229286Y-138475000D01*
X247716786Y-138475000D01*
X247695345Y-138473947D01*
X247674110Y-138470797D01*
X247653286Y-138465581D01*
X247633074Y-138458349D01*
X247613668Y-138449170D01*
X247595255Y-138438134D01*
X247578012Y-138425346D01*
X247562106Y-138410930D01*
X247547690Y-138395024D01*
X247534902Y-138377781D01*
X247523866Y-138359368D01*
X247514687Y-138339962D01*
X247507455Y-138319750D01*
X247502239Y-138298926D01*
X247499089Y-138277691D01*
X247498036Y-138256250D01*
X247498036Y-137818750D01*
X247499089Y-137797309D01*
X247502239Y-137776074D01*
X247507455Y-137755250D01*
X247514687Y-137735038D01*
X247523866Y-137715632D01*
X247534902Y-137697219D01*
X247547690Y-137679976D01*
X247562106Y-137664070D01*
X247578012Y-137649654D01*
X247595255Y-137636866D01*
X247613668Y-137625830D01*
X247633074Y-137616651D01*
X247653286Y-137609419D01*
X247674110Y-137604203D01*
X247695345Y-137601053D01*
X247716786Y-137600000D01*
X248229286Y-137600000D01*
X248250727Y-137601053D01*
X248250727Y-137601053D01*
G37*
D13*
X247973036Y-138037500D03*
D12*
G36*
X248250727Y-136026053D02*
X248271962Y-136029203D01*
X248292786Y-136034419D01*
X248312998Y-136041651D01*
X248332404Y-136050830D01*
X248350817Y-136061866D01*
X248368060Y-136074654D01*
X248383966Y-136089070D01*
X248398382Y-136104976D01*
X248411170Y-136122219D01*
X248422206Y-136140632D01*
X248431385Y-136160038D01*
X248438617Y-136180250D01*
X248443833Y-136201074D01*
X248446983Y-136222309D01*
X248448036Y-136243750D01*
X248448036Y-136681250D01*
X248446983Y-136702691D01*
X248443833Y-136723926D01*
X248438617Y-136744750D01*
X248431385Y-136764962D01*
X248422206Y-136784368D01*
X248411170Y-136802781D01*
X248398382Y-136820024D01*
X248383966Y-136835930D01*
X248368060Y-136850346D01*
X248350817Y-136863134D01*
X248332404Y-136874170D01*
X248312998Y-136883349D01*
X248292786Y-136890581D01*
X248271962Y-136895797D01*
X248250727Y-136898947D01*
X248229286Y-136900000D01*
X247716786Y-136900000D01*
X247695345Y-136898947D01*
X247674110Y-136895797D01*
X247653286Y-136890581D01*
X247633074Y-136883349D01*
X247613668Y-136874170D01*
X247595255Y-136863134D01*
X247578012Y-136850346D01*
X247562106Y-136835930D01*
X247547690Y-136820024D01*
X247534902Y-136802781D01*
X247523866Y-136784368D01*
X247514687Y-136764962D01*
X247507455Y-136744750D01*
X247502239Y-136723926D01*
X247499089Y-136702691D01*
X247498036Y-136681250D01*
X247498036Y-136243750D01*
X247499089Y-136222309D01*
X247502239Y-136201074D01*
X247507455Y-136180250D01*
X247514687Y-136160038D01*
X247523866Y-136140632D01*
X247534902Y-136122219D01*
X247547690Y-136104976D01*
X247562106Y-136089070D01*
X247578012Y-136074654D01*
X247595255Y-136061866D01*
X247613668Y-136050830D01*
X247633074Y-136041651D01*
X247653286Y-136034419D01*
X247674110Y-136029203D01*
X247695345Y-136026053D01*
X247716786Y-136025000D01*
X248229286Y-136025000D01*
X248250727Y-136026053D01*
X248250727Y-136026053D01*
G37*
D13*
X247973036Y-136462500D03*
G04 #@! TD*
D11*
G04 #@! TO.C,R13*
X208000000Y-129287500D03*
X208000000Y-127712500D03*
G04 #@! TD*
D21*
G04 #@! TO.C,U4*
X243853036Y-136500000D03*
X243853036Y-137000000D03*
X243853036Y-137500000D03*
X243853036Y-138000000D03*
X246253036Y-138000000D03*
X246253036Y-137500000D03*
X246253036Y-137000000D03*
X246253036Y-136500000D03*
D22*
X245053036Y-137250000D03*
G04 #@! TD*
M02*
