<?xml version="1.0" encoding="UTF-8" standalone="no"?>
<!-- Created with Inkscape (http://www.inkscape.org/) -->

<svg
   xmlns:dc="http://purl.org/dc/elements/1.1/"
   xmlns:cc="http://creativecommons.org/ns#"
   xmlns:rdf="http://www.w3.org/1999/02/22-rdf-syntax-ns#"
   xmlns:svg="http://www.w3.org/2000/svg"
   xmlns="http://www.w3.org/2000/svg"
   xmlns:sodipodi="http://sodipodi.sourceforge.net/DTD/sodipodi-0.dtd"
   xmlns:inkscape="http://www.inkscape.org/namespaces/inkscape"
   width="210mm"
   height="297mm"
   viewBox="0 0 210 297"
   version="1.1"
   id="svg8"
   inkscape:version="0.92.3 (2405546, 2018-03-11)"
   sodipodi:docname="mr_gardener_logo.svg">
  <defs
     id="defs2" />
  <sodipodi:namedview
     id="base"
     pagecolor="#ffffff"
     bordercolor="#666666"
     borderopacity="1.0"
     inkscape:pageopacity="0.0"
     inkscape:pageshadow="2"
     inkscape:zoom="1.4142136"
     inkscape:cx="265.3483"
     inkscape:cy="828.68978"
     inkscape:document-units="mm"
     inkscape:current-layer="g5260"
     showgrid="false"
     inkscape:window-width="1920"
     inkscape:window-height="1060"
     inkscape:window-x="0"
     inkscape:window-y="20"
     inkscape:window-maximized="0">
    <inkscape:grid
       type="xygrid"
       id="grid16" />
  </sodipodi:namedview>
  <metadata
     id="metadata5">
    <rdf:RDF>
      <cc:Work
         rdf:about="">
        <dc:format>image/svg+xml</dc:format>
        <dc:type
           rdf:resource="http://purl.org/dc/dcmitype/StillImage" />
        <dc:title />
      </cc:Work>
    </rdf:RDF>
  </metadata>
  <g
     inkscape:label="Layer 1"
     inkscape:groupmode="layer"
     id="layer1">
    <g
       id="g4929"
       transform="matrix(0.38823447,0,0,0.38823447,45.232809,46.451574)"
       style="stroke-width:5.15152609;stroke-miterlimit:4;stroke-dasharray:none">
      <g
         id="g4933"
         transform="matrix(1.2988292,0.54218751,-0.49407151,1.425318,-17.378163,-59.909888)"
         style="fill:#fffffb;fill-opacity:1;stroke-width:3.53881382;stroke-miterlimit:4;stroke-dasharray:none">
        <g
           style="fill:#fffffb;fill-opacity:1;stroke-width:3.53881383;stroke-miterlimit:4;stroke-dasharray:none"
           id="g4655-3-2"
           transform="matrix(1.7131529,0.50993425,-0.65356132,1.6329702,99.837793,65.832163)"
           inkscape:export-xdpi="96"
           inkscape:export-ydpi="96" />
        <g
           id="g5260"
           inkscape:export-xdpi="96"
           inkscape:export-ydpi="96"
           transform="translate(-197.75019,-215.53993)">
          <g
             id="g930"
             inkscape:export-xdpi="96"
             inkscape:export-ydpi="96">
            <path
               transform="matrix(1.7131529,0.50993425,-0.65356132,1.6329702,99.837794,65.832162)"
               inkscape:connector-curvature="0"
               id="path20-59-4"
               d="m 189.88554,53.782773 c 0,0 -1.87088,-1.870887 -4.67721,-0.935444 -2.80633,0.935445 -8.41899,12.160765 -8.41899,12.160765 l 8.41899,8.418989 c 0,0 11.22532,-5.61266 12.16076,-8.41899 0.93544,-2.80633 -0.93544,-4.677217 -0.93544,-4.677217 z"
               style="fill:#fffffb;fill-opacity:1;stroke:#000000;stroke-width:2;stroke-linecap:round;stroke-linejoin:round;stroke-miterlimit:4;stroke-dasharray:none;stroke-opacity:1" />
            <path
               transform="matrix(1.7131529,0.50993425,-0.65356132,1.6329702,99.837794,65.832162)"
               inkscape:connector-curvature="0"
               id="path20-7-22-7"
               d="m 145.23879,60.330874 c 0,0 -1.87089,1.87088 -0.93545,4.67722 0.93545,2.806327 12.16077,8.418988 12.16077,8.418988 l 8.41899,-8.418988 c 0,0 -5.61266,-11.22533 -8.41899,-12.16077 -2.80633,-0.93544 -4.67722,0.93544 -4.67722,0.93544 z"
               style="fill:#fffffb;fill-opacity:1;stroke:#000000;stroke-width:2;stroke-linecap:round;stroke-linejoin:round;stroke-miterlimit:4;stroke-dasharray:none;stroke-opacity:1" />
            <path
               transform="matrix(1.7131529,0.50993425,-0.65356132,1.6329702,99.837794,65.832162)"
               inkscape:connector-curvature="0"
               id="path20-5-8-4"
               d="m 189.88554,104.97765 c 0,0 -1.87088,1.87089 -4.67721,0.93544 -2.80633,-0.93544 -8.41899,-12.160768 -8.41899,-12.160768 l 8.41899,-8.418989 c 0,0 11.22532,5.61266 12.16076,8.41899 0.93544,2.80633 -0.93544,4.677217 -0.93544,4.677217 z"
               style="fill:#fffffb;fill-opacity:1;stroke:#000000;stroke-width:2;stroke-linecap:round;stroke-linejoin:round;stroke-miterlimit:4;stroke-dasharray:none;stroke-opacity:1" />
            <path
               transform="matrix(1.7131529,0.50993425,-0.65356132,1.6329702,99.837794,65.832162)"
               inkscape:connector-curvature="0"
               id="path20-7-3-9-4"
               d="m 145.23878,98.429541 c 0,0 -1.87088,-1.87088 -0.93544,-4.67722 0.93545,-2.806327 12.16076,-8.418989 12.16076,-8.418989 l 8.41899,8.418989 c 0,0 -5.61266,11.225329 -8.41899,12.160769 -2.80633,0.93544 -4.67721,-0.93544 -4.67721,-0.93544 z"
               style="fill:#fffffb;fill-opacity:1;stroke:#000000;stroke-width:2;stroke-linecap:round;stroke-linejoin:round;stroke-miterlimit:4;stroke-dasharray:none;stroke-opacity:1" />
            <path
               transform="matrix(1.7131529,0.50993425,-0.65356132,1.6329702,99.837794,65.832162)"
               inkscape:connector-curvature="0"
               id="path20-56-7-3"
               d="m 202.40625,74.749995 c 0,0 0,-2.645829 -2.64583,-3.968746 -2.64584,-1.322916 -14.55209,2.645834 -14.55209,2.645834 v 11.90625 c 0,0 11.90625,3.96875 14.55208,2.64583 2.64584,-1.322919 2.64584,-3.968747 2.64584,-3.968747 z"
               style="fill:#fffffb;fill-opacity:1;stroke:#000000;stroke-width:2;stroke-linecap:round;stroke-linejoin:round;stroke-miterlimit:4;stroke-dasharray:none;stroke-opacity:1" />
            <path
               transform="matrix(1.7131529,0.50993425,-0.65356132,1.6329702,99.837794,65.832162)"
               inkscape:connector-curvature="0"
               id="path20-7-2-3-07"
               d="m 166.20601,47.810175 c 0,0 -2.64582,-5e-6 -3.96875,2.645835 -1.32291,2.645833 2.64584,14.552084 2.64584,14.552084 h 11.90624 c 0,0 3.96876,-11.906257 2.64584,-14.552088 -1.32292,-2.645831 -3.96875,-2.645836 -3.96875,-2.645836 z"
               style="fill:#fffffb;fill-opacity:1;stroke:#000000;stroke-width:2;stroke-linecap:round;stroke-linejoin:round;stroke-miterlimit:4;stroke-dasharray:none;stroke-opacity:1" />
            <path
               transform="matrix(1.7131529,0.50993425,-0.65356132,1.6329702,99.837794,65.832162)"
               inkscape:connector-curvature="0"
               id="path20-5-9-6-8"
               d="m 166.206,110.95024 c 0,0 -2.64583,1e-5 -3.96874,-2.64583 -1.32292,-2.64583 2.64583,-14.552089 2.64583,-14.552089 l 11.90625,1e-6 c 0,0 3.96875,11.906258 2.64583,14.552088 -1.32292,2.64583 -3.96875,2.64584 -3.96875,2.64584 z"
               style="fill:#fffffb;fill-opacity:1;stroke:#000000;stroke-width:2;stroke-linecap:round;stroke-linejoin:round;stroke-miterlimit:4;stroke-dasharray:none;stroke-opacity:1" />
            <path
               transform="matrix(1.7131529,0.50993425,-0.65356132,1.6329702,99.837794,65.832162)"
               inkscape:connector-curvature="0"
               id="path20-7-3-1-1-6"
               d="m 139.26619,74.75 c 0,0 0,-2.645829 2.64584,-3.968753 2.64583,-1.322913 14.55208,2.645835 14.55208,2.645835 V 85.33333 c 0,0 -11.90626,3.968754 -14.55209,2.645835 -2.64583,-1.322919 -2.64583,-3.968747 -2.64583,-3.968747 z"
               style="fill:#fffffb;fill-opacity:1;stroke:#000000;stroke-width:2;stroke-linecap:round;stroke-linejoin:round;stroke-miterlimit:4;stroke-dasharray:none;stroke-opacity:1" />
            <circle
               transform="matrix(1.7131529,0.50993425,-0.65356132,1.6329702,99.837794,65.832162)"
               r="14"
               style="fill:#fffffb;fill-opacity:1;stroke:#000000;stroke-width:4.5;stroke-miterlimit:4;stroke-dasharray:none;stroke-opacity:1"
               cy="79.336845"
               cx="170.80386"
               id="path14-7-5" />
            <g
               style="fill:#fffffb;fill-opacity:1;stroke-width:1.49999996;stroke-miterlimit:4;stroke-dasharray:none"
               transform="matrix(1.7324524,-0.65902069,0.60053641,1.5787072,149.65039,163.78732)"
               id="g4790-1-3"
               inkscape:export-xdpi="96"
               inkscape:export-ydpi="96">
              <path
                 inkscape:connector-curvature="0"
                 d="m 74.6125,109.14583 c 0,0 0.529167,1.05833 1.058334,1.32292 m 1.058333,-1.32292 c 0,0 -0.529167,1.05833 -1.058333,1.32292 m 1.058333,-1.32292 c 0,0 0.529166,1.05833 1.058333,1.32292 m 1.058334,-1.32292 c 0,0 -0.529167,1.05833 -1.058334,1.32292 m 3.704167,0 c 0,0 -1.852083,-0.26459 -2.645833,-1.32292 m -4.233334,0 c 0,0 -0.529167,1.05833 -1.058334,1.32292 m -1.058333,-1.32292 c 0,0 0.529167,1.05833 1.058333,1.32292 m -1.058332,-1.32292 c 0,0 -0.529167,1.05833 -1.058334,1.32292 m -1.058333,-1.32292 c 0,0 0.529166,1.05833 1.058333,1.32292 m -1.058333,-1.32292 c 0,0 -0.529167,1.05833 -1.058334,1.32292 M 68.2625,109.14583 c 0,0 0.529167,1.05833 1.058333,1.32292 m -3.704166,0 c 0,0 1.852083,-0.26459 2.645833,-1.32292 m 13.229167,1.32292 c 0,0 0,-3.96875 -7.9375,-3.96875 m -7.9375,3.96875 c 0,0 0,-3.96875 7.9375,-3.96875"
                 style="fill:none;fill-opacity:1;stroke:#000000;stroke-width:1.49999996;stroke-linecap:round;stroke-linejoin:round;stroke-miterlimit:4;stroke-dasharray:none;stroke-opacity:1"
                 id="path4714-3-0-2-9-1" />
              <path
                 inkscape:connector-curvature="0"
                 id="path4786-4-4"
                 d="m 68.262499,108.35208 c 0,0 9.525,0 10.054167,0"
                 style="fill:none;stroke:#000000;stroke-width:2.99999991;stroke-linecap:butt;stroke-linejoin:miter;stroke-miterlimit:4;stroke-dasharray:none;stroke-opacity:1" />
            </g>
            <ellipse
               style="fill:#000000;fill-opacity:1;stroke:#000000;stroke-width:4.80916548;stroke-linecap:round;stroke-linejoin:round;stroke-miterlimit:4;stroke-dasharray:none;stroke-opacity:1"
               id="path4792-7-9"
               cx="210.49271"
               cy="376.61984"
               rx="0.85371953"
               ry="2.2224419"
               transform="rotate(-20.826693)"
               inkscape:export-xdpi="96"
               inkscape:export-ydpi="96" />
            <ellipse
               style="fill:#000000;fill-opacity:1;stroke:#000000;stroke-width:4.80916548;stroke-linecap:round;stroke-linejoin:round;stroke-miterlimit:4;stroke-dasharray:none;stroke-opacity:1"
               id="path4792-2-8-2"
               cx="224.19054"
               cy="376.48428"
               rx="0.85371953"
               ry="2.2224419"
               transform="rotate(-20.826693)"
               inkscape:export-xdpi="96"
               inkscape:export-ydpi="96" />
            <g
               style="fill:#fffffb;fill-opacity:1;stroke-width:7.07817793;stroke-miterlimit:4;stroke-dasharray:none"
               id="g4937-4-0"
               transform="matrix(0.48997146,0.00905085,0.00905086,0.51032167,286.21849,219.50275)"
               inkscape:export-xdpi="96"
               inkscape:export-ydpi="96">
              <path
                 inkscape:connector-curvature="0"
                 id="path4907-5-6"
                 d="m 145.56548,65.021473 c 42.33333,9.260416 3.96875,15.875 3.96875,15.875 0,0 -25.13542,9.260416 -70.114575,2.645833 -44.979168,-6.614583 0,-18.520833 0,-18.520833 0,0 6.61458,-23.812501 7.9375,-25.135417 1.32292,-1.322917 36.456705,-7.296999 54.239575,6.614583 0,0 1.32291,3.968751 3.96875,18.520834 z"
                 style="fill:#fffffb;fill-opacity:1;stroke:#000000;stroke-width:7.07817793;stroke-linecap:round;stroke-linejoin:round;stroke-miterlimit:4;stroke-dasharray:none;stroke-opacity:1" />
              <path
                 sodipodi:nodetypes="cc"
                 inkscape:connector-curvature="0"
                 id="path4925-0-8"
                 d="m 78.030595,66.476681 c 0,0 27.053635,11.509375 69.386975,2.38125"
                 style="fill:#fffffb;fill-opacity:1;stroke:#000000;stroke-width:7.07817793;stroke-linecap:butt;stroke-linejoin:bevel;stroke-miterlimit:4;stroke-dasharray:none;stroke-opacity:1" />
            </g>
            <path
               inkscape:connector-curvature="0"
               id="path907"
               d="m 331.13192,292.27505 2.49297,-3.13233"
               style="fill:none;stroke:#000000;stroke-width:2.16000199;stroke-linecap:butt;stroke-linejoin:miter;stroke-miterlimit:4;stroke-dasharray:none;stroke-opacity:1" />
            <path
               inkscape:connector-curvature="0"
               id="path909"
               d="m 349.15879,283.00404 5.3258,0.46754"
               style="fill:none;stroke:#000000;stroke-width:1.76940691;stroke-linecap:butt;stroke-linejoin:miter;stroke-opacity:1;stroke-miterlimit:4;stroke-dasharray:none" />
          </g>
        </g>
      </g>
    </g>
  </g>
</svg>
